<?xml version="1.0" encoding="UTF-8" standalone="no"?>
<!DOCTYPE svg PUBLIC "-//W3C//DTD SVG 1.1//EN"
 "http://www.w3.org/Graphics/SVG/1.1/DTD/svg11.dtd">
<!-- Generated by graphviz version 9.0.0 (20230911.1827)
 -->
<!-- Title: D:/Note_Database/Subject/MCETA Microcontroller Experiment TA/files/HT32_STD_5xxxx_FWLib_V1.5.1_7084b/example/ADC/Two_Group_MaxCH/ht32f5xxxx_01_it.c Pages: 1 -->
<svg width="259pt" height="144pt"
 viewBox="0.00 0.00 259.12 144.00" xmlns="http://www.w3.org/2000/svg" xmlns:xlink="http://www.w3.org/1999/xlink">
<g id="graph0" class="graph" transform="scale(1 1) rotate(0) translate(4 140)">
<title>D:/Note_Database/Subject/MCETA Microcontroller Experiment TA/files/HT32_STD_5xxxx_FWLib_V1.5.1_7084b/example/ADC/Two_Group_MaxCH/ht32f5xxxx_01_it.c</title>
<!-- Node1 -->
<g id="Node000001" class="node">
<title>Node1</title>
<g id="a_Node000001"><a xlink:title="This file provides all interrupt service routine.">
<polygon fill="#999999" stroke="#666666" points="197.75,-136 27.25,-136 27.25,-56 197.75,-56 197.75,-136"/>
<text text-anchor="start" x="35.25" y="-122.5" font-family="Helvetica,sans-Serif" font-size="10.00">D:/Note_Database/Subject</text>
<text text-anchor="start" x="35.25" y="-110.5" font-family="Helvetica,sans-Serif" font-size="10.00">/MCETA Microcontroller</text>
<text text-anchor="start" x="35.25" y="-98.5" font-family="Helvetica,sans-Serif" font-size="10.00"> Experiment TA/files/HT32</text>
<text text-anchor="start" x="35.25" y="-86.5" font-family="Helvetica,sans-Serif" font-size="10.00">_STD_5xxxx_FWLib_V1.5.1_7084b</text>
<text text-anchor="start" x="35.25" y="-74.5" font-family="Helvetica,sans-Serif" font-size="10.00">/example/ADC/Two_Group_MaxCH</text>
<text text-anchor="middle" x="112.5" y="-62.5" font-family="Helvetica,sans-Serif" font-size="10.00">/ht32f5xxxx_01_it.c</text>
</a>
</g>
</g>
<!-- Node2 -->
<g id="Node000002" class="node">
<title>Node2</title>
<g id="a_Node000002"><a xlink:title=" ">
<polygon fill="#e0e0e0" stroke="#999999" points="43,-20 0,-20 0,0 43,0 43,-20"/>
<text text-anchor="middle" x="21.5" y="-6.5" font-family="Helvetica,sans-Serif" font-size="10.00">ht32.h</text>
</a>
</g>
</g>
<!-- Node1&#45;&gt;Node2 -->
<g id="edge1_Node000001_Node000002" class="edge">
<title>Node1&#45;&gt;Node2</title>
<g id="a_edge1_Node000001_Node000002"><a xlink:title=" ">
<path fill="none" stroke="#63b8ff" d="M69.93,-55.71C59.36,-45.94 48.57,-35.99 39.87,-27.96"/>
<polygon fill="#63b8ff" stroke="#63b8ff" points="42.49,-25.61 32.77,-21.4 37.74,-30.75 42.49,-25.61"/>
</a>
</g>
</g>
<!-- Node3 -->
<g id="Node000003" class="node">
<title>Node3</title>
<g id="a_Node000003"><a xlink:href="_a_d_c_2_two___group___max_c_h_2ht32__board__config_8h.html" target="_top" xlink:title="The header file of board configuration.">
<polygon fill="white" stroke="#666666" points="164,-20 61,-20 61,0 164,0 164,-20"/>
<text text-anchor="middle" x="112.5" y="-6.5" font-family="Helvetica,sans-Serif" font-size="10.00">ht32_board_config.h</text>
</a>
</g>
</g>
<!-- Node1&#45;&gt;Node3 -->
<g id="edge2_Node000001_Node000003" class="edge">
<title>Node1&#45;&gt;Node3</title>
<g id="a_edge2_Node000001_Node000003"><a xlink:title=" ">
<path fill="none" stroke="#63b8ff" d="M112.5,-55.95C112.5,-47.6 112.5,-39.09 112.5,-31.76"/>
<polygon fill="#63b8ff" stroke="#63b8ff" points="116,-31.95 112.5,-21.95 109,-31.95 116,-31.95"/>
</a>
</g>
</g>
<!-- Node4 -->
<g id="Node000004" class="node">
<title>Node4</title>
<g id="a_Node000004"><a xlink:href="adc__group_8h.html" target="_top" xlink:title="The header file of ADC Group.">
<polygon fill="white" stroke="#666666" points="251.12,-20 181.88,-20 181.88,0 251.12,0 251.12,-20"/>
<text text-anchor="middle" x="216.5" y="-6.5" font-family="Helvetica,sans-Serif" font-size="10.00">adc_group.h</text>
</a>
</g>
</g>
<!-- Node1&#45;&gt;Node4 -->
<g id="edge3_Node000001_Node000004" class="edge">
<title>Node1&#45;&gt;Node4</title>
<g id="a_edge3_Node000001_Node000004"><a xlink:title=" ">
<path fill="none" stroke="#63b8ff" d="M161.15,-55.71C173.49,-45.74 186.08,-35.57 196.13,-27.45"/>
<polygon fill="#63b8ff" stroke="#63b8ff" points="198.14,-30.33 203.72,-21.32 193.74,-24.88 198.14,-30.33"/>
</a>
</g>
</g>
</g>
</svg>
