<?xml version="1.0" encoding="UTF-8" standalone="no"?>
<!DOCTYPE svg PUBLIC "-//W3C//DTD SVG 1.1//EN"
 "http://www.w3.org/Graphics/SVG/1.1/DTD/svg11.dtd">
<!-- Generated by graphviz version 9.0.0 (20230911.1827)
 -->
<!-- Title: D:/Note_Database/Subject/MCETA Microcontroller Experiment TA/files/HT32_STD_5xxxx_FWLib_V1.5.1_7084b/library/CMSIS/Core/Include/cmsis_version.h Pages: 1 -->
<svg width="3478pt" height="204pt"
 viewBox="0.00 0.00 3477.50 204.00" xmlns="http://www.w3.org/2000/svg" xmlns:xlink="http://www.w3.org/1999/xlink">
<g id="graph0" class="graph" transform="scale(1 1) rotate(0) translate(4 200)">
<title>D:/Note_Database/Subject/MCETA Microcontroller Experiment TA/files/HT32_STD_5xxxx_FWLib_V1.5.1_7084b/library/CMSIS/Core/Include/cmsis_version.h</title>
<!-- Node1 -->
<g id="Node000001" class="node">
<title>Node1</title>
<g id="a_Node000001"><a xlink:title="CMSIS Core(M) Version definitions.">
<polygon fill="#999999" stroke="#666666" points="1775.5,-196 1605,-196 1605,-116 1775.5,-116 1775.5,-196"/>
<text text-anchor="start" x="1613" y="-182.5" font-family="Helvetica,sans-Serif" font-size="10.00">D:/Note_Database/Subject</text>
<text text-anchor="start" x="1613" y="-170.5" font-family="Helvetica,sans-Serif" font-size="10.00">/MCETA Microcontroller</text>
<text text-anchor="start" x="1613" y="-158.5" font-family="Helvetica,sans-Serif" font-size="10.00"> Experiment TA/files/HT32</text>
<text text-anchor="start" x="1613" y="-146.5" font-family="Helvetica,sans-Serif" font-size="10.00">_STD_5xxxx_FWLib_V1.5.1_7084b</text>
<text text-anchor="start" x="1613" y="-134.5" font-family="Helvetica,sans-Serif" font-size="10.00">/library/CMSIS/Core/Include/cmsis</text>
<text text-anchor="middle" x="1690.25" y="-122.5" font-family="Helvetica,sans-Serif" font-size="10.00">_version.h</text>
</a>
</g>
</g>
<!-- Node2 -->
<g id="Node000002" class="node">
<title>Node2</title>
<g id="a_Node000002"><a xlink:href="core__armv81mml_8h.html" target="_top" xlink:title="CMSIS Armv8.1&#45;M Mainline Core Peripheral Access Layer Header File.">
<polygon fill="white" stroke="#666666" points="170.5,-80 0,-80 0,0 170.5,0 170.5,-80"/>
<text text-anchor="start" x="8" y="-66.5" font-family="Helvetica,sans-Serif" font-size="10.00">D:/Note_Database/Subject</text>
<text text-anchor="start" x="8" y="-54.5" font-family="Helvetica,sans-Serif" font-size="10.00">/MCETA Microcontroller</text>
<text text-anchor="start" x="8" y="-42.5" font-family="Helvetica,sans-Serif" font-size="10.00"> Experiment TA/files/HT32</text>
<text text-anchor="start" x="8" y="-30.5" font-family="Helvetica,sans-Serif" font-size="10.00">_STD_5xxxx_FWLib_V1.5.1_7084b</text>
<text text-anchor="start" x="8" y="-18.5" font-family="Helvetica,sans-Serif" font-size="10.00">/library/CMSIS/Core/Include/core</text>
<text text-anchor="middle" x="85.25" y="-6.5" font-family="Helvetica,sans-Serif" font-size="10.00">_armv81mml.h</text>
</a>
</g>
</g>
<!-- Node1&#45;&gt;Node2 -->
<g id="edge1_Node000001_Node000002" class="edge">
<title>Node1&#45;&gt;Node2</title>
<g id="a_edge1_Node000001_Node000002"><a xlink:title=" ">
<path fill="none" stroke="#63b8ff" d="M1593.48,-154.47C1304.49,-152.2 451.06,-140.44 180.25,-80 177.12,-79.3 173.96,-78.51 170.79,-77.64"/>
<polygon fill="#63b8ff" stroke="#63b8ff" points="1593.22,-157.97 1603.25,-154.54 1593.28,-150.97 1593.22,-157.97"/>
</a>
</g>
</g>
<!-- Node3 -->
<g id="Node000003" class="node">
<title>Node3</title>
<g id="a_Node000003"><a xlink:href="core__armv8mbl_8h.html" target="_top" xlink:title="CMSIS Armv8&#45;M Baseline Core Peripheral Access Layer Header File.">
<polygon fill="white" stroke="#666666" points="359.5,-80 189,-80 189,0 359.5,0 359.5,-80"/>
<text text-anchor="start" x="197" y="-66.5" font-family="Helvetica,sans-Serif" font-size="10.00">D:/Note_Database/Subject</text>
<text text-anchor="start" x="197" y="-54.5" font-family="Helvetica,sans-Serif" font-size="10.00">/MCETA Microcontroller</text>
<text text-anchor="start" x="197" y="-42.5" font-family="Helvetica,sans-Serif" font-size="10.00"> Experiment TA/files/HT32</text>
<text text-anchor="start" x="197" y="-30.5" font-family="Helvetica,sans-Serif" font-size="10.00">_STD_5xxxx_FWLib_V1.5.1_7084b</text>
<text text-anchor="start" x="197" y="-18.5" font-family="Helvetica,sans-Serif" font-size="10.00">/library/CMSIS/Core/Include/core</text>
<text text-anchor="middle" x="274.25" y="-6.5" font-family="Helvetica,sans-Serif" font-size="10.00">_armv8mbl.h</text>
</a>
</g>
</g>
<!-- Node1&#45;&gt;Node3 -->
<g id="edge2_Node000001_Node000003" class="edge">
<title>Node1&#45;&gt;Node3</title>
<g id="a_edge2_Node000001_Node000003"><a xlink:title=" ">
<path fill="none" stroke="#63b8ff" d="M1593.04,-153.66C1328.91,-149.34 602.26,-132.87 369.25,-80 366.12,-79.29 362.96,-78.49 359.79,-77.61"/>
<polygon fill="#63b8ff" stroke="#63b8ff" points="1592.94,-157.15 1602.99,-153.82 1593.05,-150.16 1592.94,-157.15"/>
</a>
</g>
</g>
<!-- Node4 -->
<g id="Node000004" class="node">
<title>Node4</title>
<g id="a_Node000004"><a xlink:href="core__armv8mml_8h.html" target="_top" xlink:title="CMSIS Armv8&#45;M Mainline Core Peripheral Access Layer Header File.">
<polygon fill="white" stroke="#666666" points="548.5,-80 378,-80 378,0 548.5,0 548.5,-80"/>
<text text-anchor="start" x="386" y="-66.5" font-family="Helvetica,sans-Serif" font-size="10.00">D:/Note_Database/Subject</text>
<text text-anchor="start" x="386" y="-54.5" font-family="Helvetica,sans-Serif" font-size="10.00">/MCETA Microcontroller</text>
<text text-anchor="start" x="386" y="-42.5" font-family="Helvetica,sans-Serif" font-size="10.00"> Experiment TA/files/HT32</text>
<text text-anchor="start" x="386" y="-30.5" font-family="Helvetica,sans-Serif" font-size="10.00">_STD_5xxxx_FWLib_V1.5.1_7084b</text>
<text text-anchor="start" x="386" y="-18.5" font-family="Helvetica,sans-Serif" font-size="10.00">/library/CMSIS/Core/Include/core</text>
<text text-anchor="middle" x="463.25" y="-6.5" font-family="Helvetica,sans-Serif" font-size="10.00">_armv8mml.h</text>
</a>
</g>
</g>
<!-- Node1&#45;&gt;Node4 -->
<g id="edge3_Node000001_Node000004" class="edge">
<title>Node1&#45;&gt;Node4</title>
<g id="a_edge3_Node000001_Node000004"><a xlink:title=" ">
<path fill="none" stroke="#63b8ff" d="M1593.35,-152.64C1356.46,-146.23 753.08,-125.79 557.25,-80 554.5,-79.36 551.72,-78.64 548.94,-77.86"/>
<polygon fill="#63b8ff" stroke="#63b8ff" points="1593.09,-156.14 1603.18,-152.91 1593.28,-149.14 1593.09,-156.14"/>
</a>
</g>
</g>
<!-- Node5 -->
<g id="Node000005" class="node">
<title>Node5</title>
<g id="a_Node000005"><a xlink:href="core__cm0_8h.html" target="_top" xlink:title="CMSIS Cortex&#45;M0 Core Peripheral Access Layer Header File.">
<polygon fill="white" stroke="#666666" points="756.25,-74 566.25,-74 566.25,-6 756.25,-6 756.25,-74"/>
<text text-anchor="start" x="574.25" y="-60.5" font-family="Helvetica,sans-Serif" font-size="10.00">D:/Note_Database/Subject</text>
<text text-anchor="start" x="574.25" y="-48.5" font-family="Helvetica,sans-Serif" font-size="10.00">/MCETA Microcontroller</text>
<text text-anchor="start" x="574.25" y="-36.5" font-family="Helvetica,sans-Serif" font-size="10.00"> Experiment TA/files/HT32</text>
<text text-anchor="start" x="574.25" y="-24.5" font-family="Helvetica,sans-Serif" font-size="10.00">_STD_5xxxx_FWLib_V1.5.1_7084b</text>
<text text-anchor="middle" x="661.25" y="-12.5" font-family="Helvetica,sans-Serif" font-size="10.00">/library/CMSIS/Core/Include/core_cm0.h</text>
</a>
</g>
</g>
<!-- Node1&#45;&gt;Node5 -->
<g id="edge4_Node000001_Node000005" class="edge">
<title>Node1&#45;&gt;Node5</title>
<g id="a_edge4_Node000001_Node000005"><a xlink:title=" ">
<path fill="none" stroke="#63b8ff" d="M1593.17,-155.92C1423.23,-155.59 1061.71,-146.24 765.25,-80 758.38,-78.47 751.36,-76.58 744.36,-74.46"/>
<polygon fill="#63b8ff" stroke="#63b8ff" points="1593.06,-159.42 1603.07,-155.93 1593.07,-152.42 1593.06,-159.42"/>
</a>
</g>
</g>
<!-- Node6 -->
<g id="Node000006" class="node">
<title>Node6</title>
<g id="a_Node000006"><a xlink:href="_core_2_include_2core__cm0plus_8h.html" target="_top" xlink:title="CMSIS Cortex&#45;M0+ Core Peripheral Access Layer Header File.">
<polygon fill="white" stroke="#666666" points="944.5,-80 774,-80 774,0 944.5,0 944.5,-80"/>
<text text-anchor="start" x="782" y="-66.5" font-family="Helvetica,sans-Serif" font-size="10.00">D:/Note_Database/Subject</text>
<text text-anchor="start" x="782" y="-54.5" font-family="Helvetica,sans-Serif" font-size="10.00">/MCETA Microcontroller</text>
<text text-anchor="start" x="782" y="-42.5" font-family="Helvetica,sans-Serif" font-size="10.00"> Experiment TA/files/HT32</text>
<text text-anchor="start" x="782" y="-30.5" font-family="Helvetica,sans-Serif" font-size="10.00">_STD_5xxxx_FWLib_V1.5.1_7084b</text>
<text text-anchor="start" x="782" y="-18.5" font-family="Helvetica,sans-Serif" font-size="10.00">/library/CMSIS/Core/Include/core</text>
<text text-anchor="middle" x="859.25" y="-6.5" font-family="Helvetica,sans-Serif" font-size="10.00">_cm0plus.h</text>
</a>
</g>
</g>
<!-- Node1&#45;&gt;Node6 -->
<g id="edge5_Node000001_Node000006" class="edge">
<title>Node1&#45;&gt;Node6</title>
<g id="a_edge5_Node000001_Node000006"><a xlink:title=" ">
<path fill="none" stroke="#63b8ff" d="M1593.3,-154.08C1450.88,-150.73 1177.71,-136.68 953.25,-80 950.51,-79.31 947.74,-78.55 944.97,-77.74"/>
<polygon fill="#63b8ff" stroke="#63b8ff" points="1592.99,-157.57 1603.07,-154.3 1593.15,-150.58 1592.99,-157.57"/>
</a>
</g>
</g>
<!-- Node7 -->
<g id="Node000007" class="node">
<title>Node7</title>
<g id="a_Node000007"><a xlink:href="core__cm1_8h.html" target="_top" xlink:title="CMSIS Cortex&#45;M1 Core Peripheral Access Layer Header File.">
<polygon fill="white" stroke="#666666" points="1152.25,-74 962.25,-74 962.25,-6 1152.25,-6 1152.25,-74"/>
<text text-anchor="start" x="970.25" y="-60.5" font-family="Helvetica,sans-Serif" font-size="10.00">D:/Note_Database/Subject</text>
<text text-anchor="start" x="970.25" y="-48.5" font-family="Helvetica,sans-Serif" font-size="10.00">/MCETA Microcontroller</text>
<text text-anchor="start" x="970.25" y="-36.5" font-family="Helvetica,sans-Serif" font-size="10.00"> Experiment TA/files/HT32</text>
<text text-anchor="start" x="970.25" y="-24.5" font-family="Helvetica,sans-Serif" font-size="10.00">_STD_5xxxx_FWLib_V1.5.1_7084b</text>
<text text-anchor="middle" x="1057.25" y="-12.5" font-family="Helvetica,sans-Serif" font-size="10.00">/library/CMSIS/Core/Include/core_cm1.h</text>
</a>
</g>
</g>
<!-- Node1&#45;&gt;Node7 -->
<g id="edge6_Node000001_Node000007" class="edge">
<title>Node1&#45;&gt;Node7</title>
<g id="a_edge6_Node000001_Node000007"><a xlink:title=" ">
<path fill="none" stroke="#63b8ff" d="M1593.44,-147.65C1486.42,-138.05 1309.54,-117.83 1161.25,-80 1154.9,-78.38 1148.4,-76.5 1141.9,-74.46"/>
<polygon fill="#63b8ff" stroke="#63b8ff" points="1593.07,-151.13 1603.34,-148.52 1593.69,-144.16 1593.07,-151.13"/>
</a>
</g>
</g>
<!-- Node8 -->
<g id="Node000008" class="node">
<title>Node8</title>
<g id="a_Node000008"><a xlink:href="core__cm23_8h.html" target="_top" xlink:title="CMSIS Cortex&#45;M23 Core Peripheral Access Layer Header File.">
<polygon fill="white" stroke="#666666" points="1365.88,-74 1170.62,-74 1170.62,-6 1365.88,-6 1365.88,-74"/>
<text text-anchor="start" x="1178.62" y="-60.5" font-family="Helvetica,sans-Serif" font-size="10.00">D:/Note_Database/Subject</text>
<text text-anchor="start" x="1178.62" y="-48.5" font-family="Helvetica,sans-Serif" font-size="10.00">/MCETA Microcontroller</text>
<text text-anchor="start" x="1178.62" y="-36.5" font-family="Helvetica,sans-Serif" font-size="10.00"> Experiment TA/files/HT32</text>
<text text-anchor="start" x="1178.62" y="-24.5" font-family="Helvetica,sans-Serif" font-size="10.00">_STD_5xxxx_FWLib_V1.5.1_7084b</text>
<text text-anchor="middle" x="1268.25" y="-12.5" font-family="Helvetica,sans-Serif" font-size="10.00">/library/CMSIS/Core/Include/core_cm23.h</text>
</a>
</g>
</g>
<!-- Node1&#45;&gt;Node8 -->
<g id="edge7_Node000001_Node000008" class="edge">
<title>Node1&#45;&gt;Node8</title>
<g id="a_edge7_Node000001_Node000008"><a xlink:title=" ">
<path fill="none" stroke="#63b8ff" d="M1593.57,-135.02C1530.85,-121.32 1447.63,-101.73 1375.25,-80 1369.47,-78.27 1363.56,-76.39 1357.61,-74.44"/>
<polygon fill="#63b8ff" stroke="#63b8ff" points="1592.65,-138.4 1603.16,-137.11 1594.14,-131.56 1592.65,-138.4"/>
</a>
</g>
</g>
<!-- Node9 -->
<g id="Node000009" class="node">
<title>Node9</title>
<g id="a_Node000009"><a xlink:href="_core_2_include_2core__cm3_8h.html" target="_top" xlink:title="CMSIS Cortex&#45;M3 Core Peripheral Access Layer Header File.">
<polygon fill="white" stroke="#666666" points="1574.25,-74 1384.25,-74 1384.25,-6 1574.25,-6 1574.25,-74"/>
<text text-anchor="start" x="1392.25" y="-60.5" font-family="Helvetica,sans-Serif" font-size="10.00">D:/Note_Database/Subject</text>
<text text-anchor="start" x="1392.25" y="-48.5" font-family="Helvetica,sans-Serif" font-size="10.00">/MCETA Microcontroller</text>
<text text-anchor="start" x="1392.25" y="-36.5" font-family="Helvetica,sans-Serif" font-size="10.00"> Experiment TA/files/HT32</text>
<text text-anchor="start" x="1392.25" y="-24.5" font-family="Helvetica,sans-Serif" font-size="10.00">_STD_5xxxx_FWLib_V1.5.1_7084b</text>
<text text-anchor="middle" x="1479.25" y="-12.5" font-family="Helvetica,sans-Serif" font-size="10.00">/library/CMSIS/Core/Include/core_cm3.h</text>
</a>
</g>
</g>
<!-- Node1&#45;&gt;Node9 -->
<g id="edge8_Node000001_Node000009" class="edge">
<title>Node1&#45;&gt;Node9</title>
<g id="a_edge8_Node000001_Node000009"><a xlink:title=" ">
<path fill="none" stroke="#63b8ff" d="M1607.29,-110.18C1585.18,-98.23 1561.69,-85.54 1540.94,-74.33"/>
<polygon fill="#63b8ff" stroke="#63b8ff" points="1605.55,-113.21 1616.01,-114.89 1608.87,-107.06 1605.55,-113.21"/>
</a>
</g>
</g>
<!-- Node10 -->
<g id="Node000010" class="node">
<title>Node10</title>
<g id="a_Node000010"><a xlink:href="core__cm33_8h.html" target="_top" xlink:title="CMSIS Cortex&#45;M33 Core Peripheral Access Layer Header File.">
<polygon fill="white" stroke="#666666" points="1787.88,-74 1592.62,-74 1592.62,-6 1787.88,-6 1787.88,-74"/>
<text text-anchor="start" x="1600.62" y="-60.5" font-family="Helvetica,sans-Serif" font-size="10.00">D:/Note_Database/Subject</text>
<text text-anchor="start" x="1600.62" y="-48.5" font-family="Helvetica,sans-Serif" font-size="10.00">/MCETA Microcontroller</text>
<text text-anchor="start" x="1600.62" y="-36.5" font-family="Helvetica,sans-Serif" font-size="10.00"> Experiment TA/files/HT32</text>
<text text-anchor="start" x="1600.62" y="-24.5" font-family="Helvetica,sans-Serif" font-size="10.00">_STD_5xxxx_FWLib_V1.5.1_7084b</text>
<text text-anchor="middle" x="1690.25" y="-12.5" font-family="Helvetica,sans-Serif" font-size="10.00">/library/CMSIS/Core/Include/core_cm33.h</text>
</a>
</g>
</g>
<!-- Node1&#45;&gt;Node10 -->
<g id="edge9_Node000001_Node000010" class="edge">
<title>Node1&#45;&gt;Node10</title>
<g id="a_edge9_Node000001_Node000010"><a xlink:title=" ">
<path fill="none" stroke="#63b8ff" d="M1690.25,-104.41C1690.25,-94.18 1690.25,-83.68 1690.25,-74.23"/>
<polygon fill="#63b8ff" stroke="#63b8ff" points="1686.75,-104.25 1690.25,-114.25 1693.75,-104.25 1686.75,-104.25"/>
</a>
</g>
</g>
<!-- Node11 -->
<g id="Node000011" class="node">
<title>Node11</title>
<g id="a_Node000011"><a xlink:href="core__cm35p_8h.html" target="_top" xlink:title="CMSIS Cortex&#45;M35P Core Peripheral Access Layer Header File.">
<polygon fill="white" stroke="#666666" points="2006.5,-74 1806,-74 1806,-6 2006.5,-6 2006.5,-74"/>
<text text-anchor="start" x="1814" y="-60.5" font-family="Helvetica,sans-Serif" font-size="10.00">D:/Note_Database/Subject</text>
<text text-anchor="start" x="1814" y="-48.5" font-family="Helvetica,sans-Serif" font-size="10.00">/MCETA Microcontroller</text>
<text text-anchor="start" x="1814" y="-36.5" font-family="Helvetica,sans-Serif" font-size="10.00"> Experiment TA/files/HT32</text>
<text text-anchor="start" x="1814" y="-24.5" font-family="Helvetica,sans-Serif" font-size="10.00">_STD_5xxxx_FWLib_V1.5.1_7084b</text>
<text text-anchor="middle" x="1906.25" y="-12.5" font-family="Helvetica,sans-Serif" font-size="10.00">/library/CMSIS/Core/Include/core_cm35p.h</text>
</a>
</g>
</g>
<!-- Node1&#45;&gt;Node11 -->
<g id="edge10_Node000001_Node000011" class="edge">
<title>Node1&#45;&gt;Node11</title>
<g id="a_edge10_Node000001_Node000011"><a xlink:title=" ">
<path fill="none" stroke="#63b8ff" d="M1774.87,-110.34C1797.59,-98.35 1821.76,-85.59 1843.1,-74.33"/>
<polygon fill="#63b8ff" stroke="#63b8ff" points="1773.44,-107.14 1766.23,-114.9 1776.7,-113.33 1773.44,-107.14"/>
</a>
</g>
</g>
<!-- Node12 -->
<g id="Node000012" class="node">
<title>Node12</title>
<g id="a_Node000012"><a xlink:href="core__cm4_8h.html" target="_top" xlink:title="CMSIS Cortex&#45;M4 Core Peripheral Access Layer Header File.">
<polygon fill="white" stroke="#666666" points="2214.25,-74 2024.25,-74 2024.25,-6 2214.25,-6 2214.25,-74"/>
<text text-anchor="start" x="2032.25" y="-60.5" font-family="Helvetica,sans-Serif" font-size="10.00">D:/Note_Database/Subject</text>
<text text-anchor="start" x="2032.25" y="-48.5" font-family="Helvetica,sans-Serif" font-size="10.00">/MCETA Microcontroller</text>
<text text-anchor="start" x="2032.25" y="-36.5" font-family="Helvetica,sans-Serif" font-size="10.00"> Experiment TA/files/HT32</text>
<text text-anchor="start" x="2032.25" y="-24.5" font-family="Helvetica,sans-Serif" font-size="10.00">_STD_5xxxx_FWLib_V1.5.1_7084b</text>
<text text-anchor="middle" x="2119.25" y="-12.5" font-family="Helvetica,sans-Serif" font-size="10.00">/library/CMSIS/Core/Include/core_cm4.h</text>
</a>
</g>
</g>
<!-- Node1&#45;&gt;Node12 -->
<g id="edge11_Node000001_Node000012" class="edge">
<title>Node1&#45;&gt;Node12</title>
<g id="a_edge11_Node000001_Node000012"><a xlink:title=" ">
<path fill="none" stroke="#63b8ff" d="M1786.98,-136.17C1852.07,-122.65 1939.52,-102.83 2015.25,-80 2020.97,-78.27 2026.84,-76.4 2032.72,-74.42"/>
<polygon fill="#63b8ff" stroke="#63b8ff" points="1786.48,-132.7 1777.39,-138.15 1787.89,-139.56 1786.48,-132.7"/>
</a>
</g>
</g>
<!-- Node13 -->
<g id="Node000013" class="node">
<title>Node13</title>
<g id="a_Node000013"><a xlink:href="core__cm55_8h.html" target="_top" xlink:title="CMSIS Cortex&#45;M55 Core Peripheral Access Layer Header File.">
<polygon fill="white" stroke="#666666" points="2427.88,-74 2232.62,-74 2232.62,-6 2427.88,-6 2427.88,-74"/>
<text text-anchor="start" x="2240.62" y="-60.5" font-family="Helvetica,sans-Serif" font-size="10.00">D:/Note_Database/Subject</text>
<text text-anchor="start" x="2240.62" y="-48.5" font-family="Helvetica,sans-Serif" font-size="10.00">/MCETA Microcontroller</text>
<text text-anchor="start" x="2240.62" y="-36.5" font-family="Helvetica,sans-Serif" font-size="10.00"> Experiment TA/files/HT32</text>
<text text-anchor="start" x="2240.62" y="-24.5" font-family="Helvetica,sans-Serif" font-size="10.00">_STD_5xxxx_FWLib_V1.5.1_7084b</text>
<text text-anchor="middle" x="2330.25" y="-12.5" font-family="Helvetica,sans-Serif" font-size="10.00">/library/CMSIS/Core/Include/core_cm55.h</text>
</a>
</g>
</g>
<!-- Node1&#45;&gt;Node13 -->
<g id="edge12_Node000001_Node000013" class="edge">
<title>Node1&#45;&gt;Node13</title>
<g id="a_edge12_Node000001_Node000013"><a xlink:title=" ">
<path fill="none" stroke="#63b8ff" d="M1786.93,-147.53C1894.62,-137.81 2073.3,-117.44 2223.25,-80 2229.77,-78.37 2236.45,-76.49 2243.13,-74.45"/>
<polygon fill="#63b8ff" stroke="#63b8ff" points="1786.93,-144.02 1777.28,-148.39 1787.55,-150.99 1786.93,-144.02"/>
</a>
</g>
</g>
<!-- Node14 -->
<g id="Node000014" class="node">
<title>Node14</title>
<g id="a_Node000014"><a xlink:href="core__cm7_8h.html" target="_top" xlink:title="CMSIS Cortex&#45;M7 Core Peripheral Access Layer Header File.">
<polygon fill="white" stroke="#666666" points="2636.25,-74 2446.25,-74 2446.25,-6 2636.25,-6 2636.25,-74"/>
<text text-anchor="start" x="2454.25" y="-60.5" font-family="Helvetica,sans-Serif" font-size="10.00">D:/Note_Database/Subject</text>
<text text-anchor="start" x="2454.25" y="-48.5" font-family="Helvetica,sans-Serif" font-size="10.00">/MCETA Microcontroller</text>
<text text-anchor="start" x="2454.25" y="-36.5" font-family="Helvetica,sans-Serif" font-size="10.00"> Experiment TA/files/HT32</text>
<text text-anchor="start" x="2454.25" y="-24.5" font-family="Helvetica,sans-Serif" font-size="10.00">_STD_5xxxx_FWLib_V1.5.1_7084b</text>
<text text-anchor="middle" x="2541.25" y="-12.5" font-family="Helvetica,sans-Serif" font-size="10.00">/library/CMSIS/Core/Include/core_cm7.h</text>
</a>
</g>
</g>
<!-- Node1&#45;&gt;Node14 -->
<g id="edge13_Node000001_Node000014" class="edge">
<title>Node1&#45;&gt;Node14</title>
<g id="a_edge13_Node000001_Node000014"><a xlink:title=" ">
<path fill="none" stroke="#63b8ff" d="M1787.1,-153.24C1930.8,-148.84 2208.17,-133.5 2437.25,-80 2443.92,-78.44 2450.73,-76.57 2457.53,-74.49"/>
<polygon fill="#63b8ff" stroke="#63b8ff" points="1787.12,-149.73 1777.23,-153.53 1787.33,-156.73 1787.12,-149.73"/>
</a>
</g>
</g>
<!-- Node15 -->
<g id="Node000015" class="node">
<title>Node15</title>
<g id="a_Node000015"><a xlink:href="core__cm85_8h.html" target="_top" xlink:title="CMSIS Cortex&#45;M85 Core Peripheral Access Layer Header File.">
<polygon fill="white" stroke="#666666" points="2849.88,-74 2654.62,-74 2654.62,-6 2849.88,-6 2849.88,-74"/>
<text text-anchor="start" x="2662.62" y="-60.5" font-family="Helvetica,sans-Serif" font-size="10.00">D:/Note_Database/Subject</text>
<text text-anchor="start" x="2662.62" y="-48.5" font-family="Helvetica,sans-Serif" font-size="10.00">/MCETA Microcontroller</text>
<text text-anchor="start" x="2662.62" y="-36.5" font-family="Helvetica,sans-Serif" font-size="10.00"> Experiment TA/files/HT32</text>
<text text-anchor="start" x="2662.62" y="-24.5" font-family="Helvetica,sans-Serif" font-size="10.00">_STD_5xxxx_FWLib_V1.5.1_7084b</text>
<text text-anchor="middle" x="2752.25" y="-12.5" font-family="Helvetica,sans-Serif" font-size="10.00">/library/CMSIS/Core/Include/core_cm85.h</text>
</a>
</g>
</g>
<!-- Node1&#45;&gt;Node15 -->
<g id="edge14_Node000001_Node000015" class="edge">
<title>Node1&#45;&gt;Node15</title>
<g id="a_edge14_Node000001_Node000015"><a xlink:title=" ">
<path fill="none" stroke="#63b8ff" d="M1787.1,-155.99C1961.02,-155.88 2336.89,-147 2645.25,-80 2652.3,-78.47 2659.52,-76.58 2666.71,-74.47"/>
<polygon fill="#63b8ff" stroke="#63b8ff" points="1787.2,-152.49 1777.2,-155.99 1787.2,-159.49 1787.2,-152.49"/>
</a>
</g>
</g>
<!-- Node16 -->
<g id="Node000016" class="node">
<title>Node16</title>
<g id="a_Node000016"><a xlink:href="core__sc000_8h.html" target="_top" xlink:title="CMSIS SC000 Core Peripheral Access Layer Header File.">
<polygon fill="white" stroke="#666666" points="3065,-74 2867.5,-74 2867.5,-6 3065,-6 3065,-74"/>
<text text-anchor="start" x="2875.5" y="-60.5" font-family="Helvetica,sans-Serif" font-size="10.00">D:/Note_Database/Subject</text>
<text text-anchor="start" x="2875.5" y="-48.5" font-family="Helvetica,sans-Serif" font-size="10.00">/MCETA Microcontroller</text>
<text text-anchor="start" x="2875.5" y="-36.5" font-family="Helvetica,sans-Serif" font-size="10.00"> Experiment TA/files/HT32</text>
<text text-anchor="start" x="2875.5" y="-24.5" font-family="Helvetica,sans-Serif" font-size="10.00">_STD_5xxxx_FWLib_V1.5.1_7084b</text>
<text text-anchor="middle" x="2966.25" y="-12.5" font-family="Helvetica,sans-Serif" font-size="10.00">/library/CMSIS/Core/Include/core_sc000.h</text>
</a>
</g>
</g>
<!-- Node1&#45;&gt;Node16 -->
<g id="edge15_Node000001_Node000016" class="edge">
<title>Node1&#45;&gt;Node16</title>
<g id="a_edge15_Node000001_Node000016"><a xlink:title=" ">
<path fill="none" stroke="#63b8ff" d="M1787.11,-152.34C2029.12,-145.12 2655.36,-122.77 2859.25,-80 2866.41,-78.5 2873.73,-76.62 2881.03,-74.49"/>
<polygon fill="#63b8ff" stroke="#63b8ff" points="1787.28,-148.83 1777.39,-152.63 1787.49,-155.83 1787.28,-148.83"/>
</a>
</g>
</g>
<!-- Node17 -->
<g id="Node000017" class="node">
<title>Node17</title>
<g id="a_Node000017"><a xlink:href="core__sc300_8h.html" target="_top" xlink:title="CMSIS SC300 Core Peripheral Access Layer Header File.">
<polygon fill="white" stroke="#666666" points="3281,-74 3083.5,-74 3083.5,-6 3281,-6 3281,-74"/>
<text text-anchor="start" x="3091.5" y="-60.5" font-family="Helvetica,sans-Serif" font-size="10.00">D:/Note_Database/Subject</text>
<text text-anchor="start" x="3091.5" y="-48.5" font-family="Helvetica,sans-Serif" font-size="10.00">/MCETA Microcontroller</text>
<text text-anchor="start" x="3091.5" y="-36.5" font-family="Helvetica,sans-Serif" font-size="10.00"> Experiment TA/files/HT32</text>
<text text-anchor="start" x="3091.5" y="-24.5" font-family="Helvetica,sans-Serif" font-size="10.00">_STD_5xxxx_FWLib_V1.5.1_7084b</text>
<text text-anchor="middle" x="3182.25" y="-12.5" font-family="Helvetica,sans-Serif" font-size="10.00">/library/CMSIS/Core/Include/core_sc300.h</text>
</a>
</g>
</g>
<!-- Node1&#45;&gt;Node17 -->
<g id="edge16_Node000001_Node000017" class="edge">
<title>Node1&#45;&gt;Node17</title>
<g id="a_edge16_Node000001_Node000017"><a xlink:title=" ">
<path fill="none" stroke="#63b8ff" d="M1787.2,-153.42C2059.51,-148.41 2827.53,-130.1 3074.25,-80 3081.58,-78.51 3089.07,-76.62 3096.53,-74.48"/>
<polygon fill="#63b8ff" stroke="#63b8ff" points="1787.22,-149.92 1777.28,-153.6 1787.35,-156.92 1787.22,-149.92"/>
</a>
</g>
</g>
<!-- Node18 -->
<g id="Node000018" class="node">
<title>Node18</title>
<g id="a_Node000018"><a xlink:href="core__starmc1_8h.html" target="_top" xlink:title="CMSIS ArmChina STAR&#45;MC1 Core Peripheral Access Layer Header File.">
<polygon fill="white" stroke="#666666" points="3469.5,-80 3299,-80 3299,0 3469.5,0 3469.5,-80"/>
<text text-anchor="start" x="3307" y="-66.5" font-family="Helvetica,sans-Serif" font-size="10.00">D:/Note_Database/Subject</text>
<text text-anchor="start" x="3307" y="-54.5" font-family="Helvetica,sans-Serif" font-size="10.00">/MCETA Microcontroller</text>
<text text-anchor="start" x="3307" y="-42.5" font-family="Helvetica,sans-Serif" font-size="10.00"> Experiment TA/files/HT32</text>
<text text-anchor="start" x="3307" y="-30.5" font-family="Helvetica,sans-Serif" font-size="10.00">_STD_5xxxx_FWLib_V1.5.1_7084b</text>
<text text-anchor="start" x="3307" y="-18.5" font-family="Helvetica,sans-Serif" font-size="10.00">/library/CMSIS/Core/Include/core</text>
<text text-anchor="middle" x="3384.25" y="-6.5" font-family="Helvetica,sans-Serif" font-size="10.00">_starmc1.h</text>
</a>
</g>
</g>
<!-- Node1&#45;&gt;Node18 -->
<g id="edge17_Node000001_Node000018" class="edge">
<title>Node1&#45;&gt;Node18</title>
<g id="a_edge17_Node000001_Node000018"><a xlink:title=" ">
<path fill="none" stroke="#63b8ff" d="M1787.04,-154.83C2087.54,-153.62 3001.55,-144.58 3290.25,-80 3293.01,-79.38 3295.79,-78.69 3298.58,-77.93"/>
<polygon fill="#63b8ff" stroke="#63b8ff" points="1787.26,-151.33 1777.27,-154.87 1787.29,-158.33 1787.26,-151.33"/>
</a>
</g>
</g>
</g>
</svg>
