<?xml version="1.0" encoding="UTF-8" standalone="no"?>
<!DOCTYPE svg PUBLIC "-//W3C//DTD SVG 1.1//EN"
 "http://www.w3.org/Graphics/SVG/1.1/DTD/svg11.dtd">
<!-- Generated by graphviz version 9.0.0 (20230911.1827)
 -->
<!-- Title: D:/Note_Database/Subject/MCETA Microcontroller Experiment TA/files/HT32_STD_5xxxx_FWLib_V1.5.1_7084b/example/EXTI/WakeUp_SleepMode/main.c Pages: 1 -->
<svg width="213pt" height="132pt"
 viewBox="0.00 0.00 213.00 132.00" xmlns="http://www.w3.org/2000/svg" xmlns:xlink="http://www.w3.org/1999/xlink">
<g id="graph0" class="graph" transform="scale(1 1) rotate(0) translate(4 128)">
<title>D:/Note_Database/Subject/MCETA Microcontroller Experiment TA/files/HT32_STD_5xxxx_FWLib_V1.5.1_7084b/example/EXTI/WakeUp_SleepMode/main.c</title>
<!-- Node1 -->
<g id="Node000001" class="node">
<title>Node1</title>
<g id="a_Node000001"><a xlink:title="Main program.">
<polygon fill="#999999" stroke="#666666" points="205,-124 0,-124 0,-56 205,-56 205,-124"/>
<text text-anchor="start" x="8" y="-110.5" font-family="Helvetica,sans-Serif" font-size="10.00">D:/Note_Database/Subject</text>
<text text-anchor="start" x="8" y="-98.5" font-family="Helvetica,sans-Serif" font-size="10.00">/MCETA Microcontroller</text>
<text text-anchor="start" x="8" y="-86.5" font-family="Helvetica,sans-Serif" font-size="10.00"> Experiment TA/files/HT32</text>
<text text-anchor="start" x="8" y="-74.5" font-family="Helvetica,sans-Serif" font-size="10.00">_STD_5xxxx_FWLib_V1.5.1_7084b</text>
<text text-anchor="middle" x="102.5" y="-62.5" font-family="Helvetica,sans-Serif" font-size="10.00">/example/EXTI/WakeUp_SleepMode/main.c</text>
</a>
</g>
</g>
<!-- Node2 -->
<g id="Node000002" class="node">
<title>Node2</title>
<g id="a_Node000002"><a xlink:title=" ">
<polygon fill="#e0e0e0" stroke="#999999" points="86,-20 43,-20 43,0 86,0 86,-20"/>
<text text-anchor="middle" x="64.5" y="-6.5" font-family="Helvetica,sans-Serif" font-size="10.00">ht32.h</text>
</a>
</g>
</g>
<!-- Node1&#45;&gt;Node2 -->
<g id="edge1_Node000001_Node000002" class="edge">
<title>Node1&#45;&gt;Node2</title>
<g id="a_edge1_Node000001_Node000002"><a xlink:title=" ">
<path fill="none" stroke="#63b8ff" d="M86.38,-55.92C82.14,-47.22 77.71,-38.11 73.95,-30.39"/>
<polygon fill="#63b8ff" stroke="#63b8ff" points="77.21,-29.1 69.68,-21.64 70.92,-32.16 77.21,-29.1"/>
</a>
</g>
</g>
<!-- Node3 -->
<g id="Node000003" class="node">
<title>Node3</title>
<g id="a_Node000003"><a xlink:title=" ">
<polygon fill="#e0e0e0" stroke="#999999" points="176.62,-20 104.38,-20 104.38,0 176.62,0 176.62,-20"/>
<text text-anchor="middle" x="140.5" y="-6.5" font-family="Helvetica,sans-Serif" font-size="10.00">ht32_board.h</text>
</a>
</g>
</g>
<!-- Node1&#45;&gt;Node3 -->
<g id="edge2_Node000001_Node000003" class="edge">
<title>Node1&#45;&gt;Node3</title>
<g id="a_edge2_Node000001_Node000003"><a xlink:title=" ">
<path fill="none" stroke="#63b8ff" d="M118.62,-55.92C122.86,-47.22 127.29,-38.11 131.05,-30.39"/>
<polygon fill="#63b8ff" stroke="#63b8ff" points="134.08,-32.16 135.32,-21.64 127.79,-29.1 134.08,-32.16"/>
</a>
</g>
</g>
</g>
</svg>
