<?xml version="1.0" encoding="UTF-8" standalone="no"?>
<!DOCTYPE svg PUBLIC "-//W3C//DTD SVG 1.1//EN"
 "http://www.w3.org/Graphics/SVG/1.1/DTD/svg11.dtd">
<!-- Generated by graphviz version 9.0.0 (20230911.1827)
 -->
<!-- Title: D:/Note_Database/Subject/MCETA Microcontroller Experiment TA/files/HT32_STD_5xxxx_FWLib_V1.5.1_7084b/example/USBD/HID_Keyboard_Mass_Storage/Src_MassStorage/usb_scsi_block_command.c Pages: 1 -->
<svg width="550pt" height="212pt"
 viewBox="0.00 0.00 550.12 212.00" xmlns="http://www.w3.org/2000/svg" xmlns:xlink="http://www.w3.org/1999/xlink">
<g id="graph0" class="graph" transform="scale(1 1) rotate(0) translate(4 208)">
<title>D:/Note_Database/Subject/MCETA Microcontroller Experiment TA/files/HT32_STD_5xxxx_FWLib_V1.5.1_7084b/example/USBD/HID_Keyboard_Mass_Storage/Src_MassStorage/usb_scsi_block_command.c</title>
<!-- Node1 -->
<g id="Node000001" class="node">
<title>Node1</title>
<g id="a_Node000001"><a xlink:title="The SCSI Block Command (SBC&#45;3 &amp; SPC&#45;4).">
<polygon fill="#999999" stroke="#666666" points="327.62,-204 147.38,-204 147.38,-112 327.62,-112 327.62,-204"/>
<text text-anchor="start" x="155.38" y="-190.5" font-family="Helvetica,sans-Serif" font-size="10.00">D:/Note_Database/Subject</text>
<text text-anchor="start" x="155.38" y="-178.5" font-family="Helvetica,sans-Serif" font-size="10.00">/MCETA Microcontroller</text>
<text text-anchor="start" x="155.38" y="-166.5" font-family="Helvetica,sans-Serif" font-size="10.00"> Experiment TA/files/HT32</text>
<text text-anchor="start" x="155.38" y="-154.5" font-family="Helvetica,sans-Serif" font-size="10.00">_STD_5xxxx_FWLib_V1.5.1_7084b</text>
<text text-anchor="start" x="155.38" y="-142.5" font-family="Helvetica,sans-Serif" font-size="10.00">/example/USBD/HID_Keyboard_Mass</text>
<text text-anchor="start" x="155.38" y="-130.5" font-family="Helvetica,sans-Serif" font-size="10.00">_Storage/Src_MassStorage/usb_scsi</text>
<text text-anchor="middle" x="237.5" y="-118.5" font-family="Helvetica,sans-Serif" font-size="10.00">_block_command.c</text>
</a>
</g>
</g>
<!-- Node2 -->
<g id="Node000002" class="node">
<title>Node2</title>
<g id="a_Node000002"><a xlink:title=" ">
<polygon fill="#e0e0e0" stroke="#999999" points="43,-76 0,-76 0,-56 43,-56 43,-76"/>
<text text-anchor="middle" x="21.5" y="-62.5" font-family="Helvetica,sans-Serif" font-size="10.00">ht32.h</text>
</a>
</g>
</g>
<!-- Node1&#45;&gt;Node2 -->
<g id="edge1_Node000001_Node000002" class="edge">
<title>Node1&#45;&gt;Node2</title>
<g id="a_edge1_Node000001_Node000002"><a xlink:title=" ">
<path fill="none" stroke="#63b8ff" d="M147.15,-119.35C114.07,-105.57 78.71,-90.84 53.96,-80.53"/>
<polygon fill="#63b8ff" stroke="#63b8ff" points="55.36,-77.31 44.78,-76.7 52.66,-83.78 55.36,-77.31"/>
</a>
</g>
</g>
<!-- Node3 -->
<g id="Node000003" class="node">
<title>Node3</title>
<g id="a_Node000003"><a xlink:title=" ">
<polygon fill="#e0e0e0" stroke="#999999" points="154.12,-76 60.88,-76 60.88,-56 154.12,-56 154.12,-76"/>
<text text-anchor="middle" x="107.5" y="-62.5" font-family="Helvetica,sans-Serif" font-size="10.00">ht32_usbd_core.h</text>
</a>
</g>
</g>
<!-- Node1&#45;&gt;Node3 -->
<g id="edge2_Node000001_Node000003" class="edge">
<title>Node1&#45;&gt;Node3</title>
<g id="a_edge2_Node000001_Node000003"><a xlink:title=" ">
<path fill="none" stroke="#63b8ff" d="M172.12,-111.74C157.06,-101.31 142.02,-90.9 130.25,-82.75"/>
<polygon fill="#63b8ff" stroke="#63b8ff" points="132.28,-79.9 122.07,-77.09 128.3,-85.66 132.28,-79.9"/>
</a>
</g>
</g>
<!-- Node4 -->
<g id="Node000004" class="node">
<title>Node4</title>
<g id="a_Node000004"><a xlink:href="_h_i_d___keyboard___mass___storage_2_src___mass_storage_2usb__bulk__only__transport_8h.html" target="_top" xlink:title="The header file of Bulk Only Transport.">
<polygon fill="white" stroke="#666666" points="302.5,-76 172.5,-76 172.5,-56 302.5,-56 302.5,-76"/>
<text text-anchor="middle" x="237.5" y="-62.5" font-family="Helvetica,sans-Serif" font-size="10.00">usb_bulk_only_transport.h</text>
</a>
</g>
</g>
<!-- Node1&#45;&gt;Node4 -->
<g id="edge3_Node000001_Node000004" class="edge">
<title>Node1&#45;&gt;Node4</title>
<g id="a_edge3_Node000001_Node000004"><a xlink:title=" ">
<path fill="none" stroke="#63b8ff" d="M237.5,-111.74C237.5,-103.31 237.5,-94.9 237.5,-87.68"/>
<polygon fill="#63b8ff" stroke="#63b8ff" points="241,-87.74 237.5,-77.74 234,-87.74 241,-87.74"/>
</a>
</g>
</g>
<!-- Node6 -->
<g id="Node000006" class="node">
<title>Node6</title>
<g id="a_Node000006"><a xlink:href="_h_i_d___keyboard___mass___storage_2_src___mass_storage_2usb__scsi__block__command_8h.html" target="_top" xlink:title="The header file of SCSI Block Command (SBC&#45;3 &amp; SPC&#45;4).">
<polygon fill="white" stroke="#666666" points="460.38,-76 320.62,-76 320.62,-56 460.38,-56 460.38,-76"/>
<text text-anchor="middle" x="390.5" y="-62.5" font-family="Helvetica,sans-Serif" font-size="10.00">usb_scsi_block_command.h</text>
</a>
</g>
</g>
<!-- Node1&#45;&gt;Node6 -->
<g id="edge5_Node000001_Node000006" class="edge">
<title>Node1&#45;&gt;Node6</title>
<g id="a_edge5_Node000001_Node000006"><a xlink:title=" ">
<path fill="none" stroke="#63b8ff" d="M314.45,-111.74C332.59,-101.06 350.71,-90.41 364.7,-82.18"/>
<polygon fill="#63b8ff" stroke="#63b8ff" points="366.38,-85.25 373.23,-77.16 362.83,-79.21 366.38,-85.25"/>
</a>
</g>
</g>
<!-- Node7 -->
<g id="Node000007" class="node">
<title>Node7</title>
<g id="a_Node000007"><a xlink:href="_h_i_d___keyboard___mass___storage_2_src___mass_storage_2usb__scsi_8h.html" target="_top" xlink:title="The header file of SCSI Block Command (SBC&#45;3 &amp; SPC&#45;4).">
<polygon fill="white" stroke="#666666" points="542.12,-76 478.88,-76 478.88,-56 542.12,-56 542.12,-76"/>
<text text-anchor="middle" x="510.5" y="-62.5" font-family="Helvetica,sans-Serif" font-size="10.00">usb_scsi.h</text>
</a>
</g>
</g>
<!-- Node1&#45;&gt;Node7 -->
<g id="edge6_Node000001_Node000007" class="edge">
<title>Node1&#45;&gt;Node7</title>
<g id="a_edge6_Node000001_Node000007"><a xlink:title=" ">
<path fill="none" stroke="#63b8ff" d="M328.03,-127.16C376.41,-111.2 433.53,-92.38 470.8,-80.09"/>
<polygon fill="#63b8ff" stroke="#63b8ff" points="471.86,-83.42 480.26,-76.97 469.67,-76.78 471.86,-83.42"/>
</a>
</g>
</g>
<!-- Node5 -->
<g id="Node000005" class="node">
<title>Node5</title>
<g id="a_Node000005"><a xlink:title=" ">
<polygon fill="#e0e0e0" stroke="#999999" points="273.62,-20 201.38,-20 201.38,0 273.62,0 273.62,-20"/>
<text text-anchor="middle" x="237.5" y="-6.5" font-family="Helvetica,sans-Serif" font-size="10.00">ht32_board.h</text>
</a>
</g>
</g>
<!-- Node4&#45;&gt;Node5 -->
<g id="edge4_Node000004_Node000005" class="edge">
<title>Node4&#45;&gt;Node5</title>
<g id="a_edge4_Node000004_Node000005"><a xlink:title=" ">
<path fill="none" stroke="#63b8ff" d="M237.5,-55.59C237.5,-49.01 237.5,-39.96 237.5,-31.73"/>
<polygon fill="#63b8ff" stroke="#63b8ff" points="241,-31.81 237.5,-21.81 234,-31.81 241,-31.81"/>
</a>
</g>
</g>
</g>
</svg>
