<?xml version="1.0" encoding="UTF-8" standalone="no"?>
<!DOCTYPE svg PUBLIC "-//W3C//DTD SVG 1.1//EN"
 "http://www.w3.org/Graphics/SVG/1.1/DTD/svg11.dtd">
<!-- Generated by graphviz version 9.0.0 (20230911.1827)
 -->
<!-- Title: D:/Note_Database/Subject/MCETA Microcontroller Experiment TA/files/HT32_STD_5xxxx_FWLib_V1.5.1_7084b/example/USBD/HID_Keyboard_Mass_Storage/Src_MassStorage/usb_bulk_only_transport.c Pages: 1 -->
<svg width="369pt" height="268pt"
 viewBox="0.00 0.00 369.09 268.00" xmlns="http://www.w3.org/2000/svg" xmlns:xlink="http://www.w3.org/1999/xlink">
<g id="graph0" class="graph" transform="scale(1 1) rotate(0) translate(4 264)">
<title>D:/Note_Database/Subject/MCETA Microcontroller Experiment TA/files/HT32_STD_5xxxx_FWLib_V1.5.1_7084b/example/USBD/HID_Keyboard_Mass_Storage/Src_MassStorage/usb_bulk_only_transport.c</title>
<!-- Node1 -->
<g id="Node000001" class="node">
<title>Node1</title>
<g id="a_Node000001"><a xlink:title="The Bulk Only Transport (BOT).">
<polygon fill="#999999" stroke="#666666" points="246.91,-260 66.66,-260 66.66,-168 246.91,-168 246.91,-260"/>
<text text-anchor="start" x="74.66" y="-246.5" font-family="Helvetica,sans-Serif" font-size="10.00">D:/Note_Database/Subject</text>
<text text-anchor="start" x="74.66" y="-234.5" font-family="Helvetica,sans-Serif" font-size="10.00">/MCETA Microcontroller</text>
<text text-anchor="start" x="74.66" y="-222.5" font-family="Helvetica,sans-Serif" font-size="10.00"> Experiment TA/files/HT32</text>
<text text-anchor="start" x="74.66" y="-210.5" font-family="Helvetica,sans-Serif" font-size="10.00">_STD_5xxxx_FWLib_V1.5.1_7084b</text>
<text text-anchor="start" x="74.66" y="-198.5" font-family="Helvetica,sans-Serif" font-size="10.00">/example/USBD/HID_Keyboard_Mass</text>
<text text-anchor="start" x="74.66" y="-186.5" font-family="Helvetica,sans-Serif" font-size="10.00">_Storage/Src_MassStorage/usb_bulk</text>
<text text-anchor="middle" x="156.79" y="-174.5" font-family="Helvetica,sans-Serif" font-size="10.00">_only_transport.c</text>
</a>
</g>
</g>
<!-- Node2 -->
<g id="Node000002" class="node">
<title>Node2</title>
<g id="a_Node000002"><a xlink:title=" ">
<polygon fill="#e0e0e0" stroke="#999999" points="109.29,-76 66.29,-76 66.29,-56 109.29,-56 109.29,-76"/>
<text text-anchor="middle" x="87.79" y="-62.5" font-family="Helvetica,sans-Serif" font-size="10.00">ht32.h</text>
</a>
</g>
</g>
<!-- Node1&#45;&gt;Node2 -->
<g id="edge1_Node000001_Node000002" class="edge">
<title>Node1&#45;&gt;Node2</title>
<g id="a_edge1_Node000001_Node000002"><a xlink:title=" ">
<path fill="none" stroke="#63b8ff" d="M66.43,-185.03C41.82,-172.81 18.05,-155.69 3.79,-132 -11.48,-106.65 25.42,-87.53 55.07,-76.8"/>
<polygon fill="#63b8ff" stroke="#63b8ff" points="56.18,-80.12 64.52,-73.59 53.92,-73.5 56.18,-80.12"/>
</a>
</g>
</g>
<!-- Node3 -->
<g id="Node000003" class="node">
<title>Node3</title>
<g id="a_Node000003"><a xlink:title=" ">
<polygon fill="#e0e0e0" stroke="#999999" points="106.41,-132 13.16,-132 13.16,-112 106.41,-112 106.41,-132"/>
<text text-anchor="middle" x="59.79" y="-118.5" font-family="Helvetica,sans-Serif" font-size="10.00">ht32_usbd_core.h</text>
</a>
</g>
</g>
<!-- Node1&#45;&gt;Node3 -->
<g id="edge2_Node000001_Node000003" class="edge">
<title>Node1&#45;&gt;Node3</title>
<g id="a_edge2_Node000001_Node000003"><a xlink:title=" ">
<path fill="none" stroke="#63b8ff" d="M108.01,-167.74C97.33,-157.84 86.68,-147.95 78.11,-140"/>
<polygon fill="#63b8ff" stroke="#63b8ff" points="80.55,-137.49 70.84,-133.26 75.79,-142.62 80.55,-137.49"/>
</a>
</g>
</g>
<!-- Node4 -->
<g id="Node000004" class="node">
<title>Node4</title>
<g id="a_Node000004"><a xlink:href="_h_i_d___keyboard___mass___storage_2_src___mass_storage_2usb__bulk__only__transport_8h.html" target="_top" xlink:title="The header file of Bulk Only Transport.">
<polygon fill="white" stroke="#666666" points="290.79,-76 160.79,-76 160.79,-56 290.79,-56 290.79,-76"/>
<text text-anchor="middle" x="225.79" y="-62.5" font-family="Helvetica,sans-Serif" font-size="10.00">usb_bulk_only_transport.h</text>
</a>
</g>
</g>
<!-- Node1&#45;&gt;Node4 -->
<g id="edge3_Node000001_Node000004" class="edge">
<title>Node1&#45;&gt;Node4</title>
<g id="a_edge3_Node000001_Node000004"><a xlink:title=" ">
<path fill="none" stroke="#63b8ff" d="M247.28,-199.39C287.59,-188.33 331.38,-168.29 355.79,-132 374.2,-104.63 339.92,-88.27 301.95,-78.8"/>
<polygon fill="#63b8ff" stroke="#63b8ff" points="303.19,-75.5 292.66,-76.65 301.62,-82.32 303.19,-75.5"/>
</a>
</g>
</g>
<!-- Node6 -->
<g id="Node000006" class="node">
<title>Node6</title>
<g id="a_Node000006"><a xlink:href="_h_i_d___keyboard___mass___storage_2_src___mass_storage_2usb__scsi__block__command_8h.html" target="_top" xlink:title="The header file of SCSI Block Command (SBC&#45;3 &amp; SPC&#45;4).">
<polygon fill="white" stroke="#666666" points="346.66,-132 206.91,-132 206.91,-112 346.66,-112 346.66,-132"/>
<text text-anchor="middle" x="276.79" y="-118.5" font-family="Helvetica,sans-Serif" font-size="10.00">usb_scsi_block_command.h</text>
</a>
</g>
</g>
<!-- Node1&#45;&gt;Node6 -->
<g id="edge5_Node000001_Node000006" class="edge">
<title>Node1&#45;&gt;Node6</title>
<g id="a_edge5_Node000001_Node000006"><a xlink:title=" ">
<path fill="none" stroke="#63b8ff" d="M217.14,-167.74C230.9,-157.41 244.64,-147.11 255.46,-139"/>
<polygon fill="#63b8ff" stroke="#63b8ff" points="257.38,-141.93 263.28,-133.13 253.18,-136.33 257.38,-141.93"/>
</a>
</g>
</g>
<!-- Node7 -->
<g id="Node000007" class="node">
<title>Node7</title>
<g id="a_Node000007"><a xlink:href="_h_i_d___keyboard___mass___storage_2_src___mass_storage_2ram__disk_8h.html" target="_top" xlink:title="The header file of RAM Disk.">
<polygon fill="white" stroke="#666666" points="188.79,-132 124.79,-132 124.79,-112 188.79,-112 188.79,-132"/>
<text text-anchor="middle" x="156.79" y="-118.5" font-family="Helvetica,sans-Serif" font-size="10.00">ram_disk.h</text>
</a>
</g>
</g>
<!-- Node1&#45;&gt;Node7 -->
<g id="edge6_Node000001_Node000007" class="edge">
<title>Node1&#45;&gt;Node7</title>
<g id="a_edge6_Node000001_Node000007"><a xlink:title=" ">
<path fill="none" stroke="#63b8ff" d="M156.79,-167.74C156.79,-159.31 156.79,-150.9 156.79,-143.68"/>
<polygon fill="#63b8ff" stroke="#63b8ff" points="160.29,-143.74 156.79,-133.74 153.29,-143.74 160.29,-143.74"/>
</a>
</g>
</g>
<!-- Node5 -->
<g id="Node000005" class="node">
<title>Node5</title>
<g id="a_Node000005"><a xlink:title=" ">
<polygon fill="#e0e0e0" stroke="#999999" points="261.91,-20 189.66,-20 189.66,0 261.91,0 261.91,-20"/>
<text text-anchor="middle" x="225.79" y="-6.5" font-family="Helvetica,sans-Serif" font-size="10.00">ht32_board.h</text>
</a>
</g>
</g>
<!-- Node4&#45;&gt;Node5 -->
<g id="edge4_Node000004_Node000005" class="edge">
<title>Node4&#45;&gt;Node5</title>
<g id="a_edge4_Node000004_Node000005"><a xlink:title=" ">
<path fill="none" stroke="#63b8ff" d="M225.79,-55.59C225.79,-49.01 225.79,-39.96 225.79,-31.73"/>
<polygon fill="#63b8ff" stroke="#63b8ff" points="229.29,-31.81 225.79,-21.81 222.29,-31.81 229.29,-31.81"/>
</a>
</g>
</g>
<!-- Node7&#45;&gt;Node2 -->
<g id="edge7_Node000007_Node000002" class="edge">
<title>Node7&#45;&gt;Node2</title>
<g id="a_edge7_Node000007_Node000002"><a xlink:title=" ">
<path fill="none" stroke="#63b8ff" d="M144.77,-111.59C134.78,-103.77 120.33,-92.46 108.48,-83.19"/>
<polygon fill="#63b8ff" stroke="#63b8ff" points="110.9,-80.64 100.86,-77.23 106.58,-86.15 110.9,-80.64"/>
</a>
</g>
</g>
<!-- Node7&#45;&gt;Node4 -->
<g id="edge8_Node000007_Node000004" class="edge">
<title>Node7&#45;&gt;Node4</title>
<g id="a_edge8_Node000007_Node000004"><a xlink:title=" ">
<path fill="none" stroke="#63b8ff" d="M168.81,-111.59C178.8,-103.77 193.25,-92.46 205.1,-83.19"/>
<polygon fill="#63b8ff" stroke="#63b8ff" points="207,-86.15 212.72,-77.23 202.68,-80.64 207,-86.15"/>
</a>
</g>
</g>
</g>
</svg>
