<?xml version="1.0" encoding="UTF-8" standalone="no"?>
<!DOCTYPE svg PUBLIC "-//W3C//DTD SVG 1.1//EN"
 "http://www.w3.org/Graphics/SVG/1.1/DTD/svg11.dtd">
<!-- Generated by graphviz version 9.0.0 (20230911.1827)
 -->
<!-- Title: D:/Note_Database/Subject/MCETA Microcontroller Experiment TA/files/HT32_STD_5xxxx_FWLib_V1.5.1_7084b/example/I2S/CodecLoopback_PDMA/main.c Pages: 1 -->
<svg width="301pt" height="188pt"
 viewBox="0.00 0.00 300.92 188.00" xmlns="http://www.w3.org/2000/svg" xmlns:xlink="http://www.w3.org/1999/xlink">
<g id="graph0" class="graph" transform="scale(1 1) rotate(0) translate(4 184)">
<title>D:/Note_Database/Subject/MCETA Microcontroller Experiment TA/files/HT32_STD_5xxxx_FWLib_V1.5.1_7084b/example/I2S/CodecLoopback_PDMA/main.c</title>
<!-- Node1 -->
<g id="Node000001" class="node">
<title>Node1</title>
<g id="a_Node000001"><a xlink:title="Main program.">
<polygon fill="#999999" stroke="#666666" points="241.29,-180 29.54,-180 29.54,-112 241.29,-112 241.29,-180"/>
<text text-anchor="start" x="37.54" y="-166.5" font-family="Helvetica,sans-Serif" font-size="10.00">D:/Note_Database/Subject</text>
<text text-anchor="start" x="37.54" y="-154.5" font-family="Helvetica,sans-Serif" font-size="10.00">/MCETA Microcontroller</text>
<text text-anchor="start" x="37.54" y="-142.5" font-family="Helvetica,sans-Serif" font-size="10.00"> Experiment TA/files/HT32</text>
<text text-anchor="start" x="37.54" y="-130.5" font-family="Helvetica,sans-Serif" font-size="10.00">_STD_5xxxx_FWLib_V1.5.1_7084b</text>
<text text-anchor="middle" x="135.42" y="-118.5" font-family="Helvetica,sans-Serif" font-size="10.00">/example/I2S/CodecLoopback_PDMA/main.c</text>
</a>
</g>
</g>
<!-- Node2 -->
<g id="Node000002" class="node">
<title>Node2</title>
<g id="a_Node000002"><a xlink:title=" ">
<polygon fill="#e0e0e0" stroke="#999999" points="156.92,-20 113.92,-20 113.92,0 156.92,0 156.92,-20"/>
<text text-anchor="middle" x="135.42" y="-6.5" font-family="Helvetica,sans-Serif" font-size="10.00">ht32.h</text>
</a>
</g>
</g>
<!-- Node1&#45;&gt;Node2 -->
<g id="edge1_Node000001_Node000002" class="edge">
<title>Node1&#45;&gt;Node2</title>
<g id="a_edge1_Node000001_Node000002"><a xlink:title=" ">
<path fill="none" stroke="#63b8ff" d="M34.09,-111.69C7.56,-97.35 -9.65,-78.63 6.42,-56 28,-25.61 71.69,-15.57 102.22,-12.35"/>
<polygon fill="#63b8ff" stroke="#63b8ff" points="102.42,-15.85 112.09,-11.53 101.83,-8.87 102.42,-15.85"/>
</a>
</g>
</g>
<!-- Node3 -->
<g id="Node000003" class="node">
<title>Node3</title>
<g id="a_Node000003"><a xlink:title=" ">
<polygon fill="#e0e0e0" stroke="#999999" points="87.54,-76 15.29,-76 15.29,-56 87.54,-56 87.54,-76"/>
<text text-anchor="middle" x="51.42" y="-62.5" font-family="Helvetica,sans-Serif" font-size="10.00">ht32_board.h</text>
</a>
</g>
</g>
<!-- Node1&#45;&gt;Node3 -->
<g id="edge2_Node000001_Node000003" class="edge">
<title>Node1&#45;&gt;Node3</title>
<g id="a_edge2_Node000001_Node000003"><a xlink:title=" ">
<path fill="none" stroke="#63b8ff" d="M99.79,-111.92C89.44,-102.31 78.56,-92.2 69.74,-84.01"/>
<polygon fill="#63b8ff" stroke="#63b8ff" points="72.23,-81.55 62.52,-77.31 67.47,-86.68 72.23,-81.55"/>
</a>
</g>
</g>
<!-- Node4 -->
<g id="Node000004" class="node">
<title>Node4</title>
<g id="a_Node000004"><a xlink:href="_i2_s_2_codec_loopback___p_d_m_a_2ht32__board__config_8h.html" target="_top" xlink:title="The header file of board configuration.">
<polygon fill="white" stroke="#666666" points="292.92,-20 189.92,-20 189.92,0 292.92,0 292.92,-20"/>
<text text-anchor="middle" x="241.42" y="-6.5" font-family="Helvetica,sans-Serif" font-size="10.00">ht32_board_config.h</text>
</a>
</g>
</g>
<!-- Node1&#45;&gt;Node4 -->
<g id="edge3_Node000001_Node000004" class="edge">
<title>Node1&#45;&gt;Node4</title>
<g id="a_edge3_Node000001_Node000004"><a xlink:title=" ">
<path fill="none" stroke="#63b8ff" d="M204.92,-111.58C218.21,-101.96 230.44,-90.16 238.42,-76 246.06,-62.44 246.35,-44.64 244.98,-31.1"/>
<polygon fill="#63b8ff" stroke="#63b8ff" points="248.5,-31.01 243.63,-21.6 241.57,-31.99 248.5,-31.01"/>
</a>
</g>
</g>
<!-- Node5 -->
<g id="Node000005" class="node">
<title>Node5</title>
<g id="a_Node000005"><a xlink:href="_i2_s_2_codec_loopback___p_d_m_a_2i2cm_8h.html" target="_top" xlink:title="The header file of I2C master driver.">
<polygon fill="white" stroke="#666666" points="229.04,-76 183.79,-76 183.79,-56 229.04,-56 229.04,-76"/>
<text text-anchor="middle" x="206.42" y="-62.5" font-family="Helvetica,sans-Serif" font-size="10.00">i2cm.h</text>
</a>
</g>
</g>
<!-- Node1&#45;&gt;Node5 -->
<g id="edge4_Node000001_Node000005" class="edge">
<title>Node1&#45;&gt;Node5</title>
<g id="a_edge4_Node000001_Node000005"><a xlink:title=" ">
<path fill="none" stroke="#63b8ff" d="M165.53,-111.92C174.1,-102.51 183.09,-92.63 190.46,-84.53"/>
<polygon fill="#63b8ff" stroke="#63b8ff" points="192.81,-87.15 196.95,-77.4 187.63,-82.44 192.81,-87.15"/>
</a>
</g>
</g>
<!-- Node6 -->
<g id="Node000006" class="node">
<title>Node6</title>
<g id="a_Node000006"><a xlink:href="_i2_s_2_codec_loopback___p_d_m_a_2wm8978_8h.html" target="_top" xlink:title="The header file of wm8978 driver.">
<polygon fill="white" stroke="#666666" points="165.54,-76 105.29,-76 105.29,-56 165.54,-56 165.54,-76"/>
<text text-anchor="middle" x="135.42" y="-62.5" font-family="Helvetica,sans-Serif" font-size="10.00">wm8978.h</text>
</a>
</g>
</g>
<!-- Node1&#45;&gt;Node6 -->
<g id="edge7_Node000001_Node000006" class="edge">
<title>Node1&#45;&gt;Node6</title>
<g id="a_edge7_Node000001_Node000006"><a xlink:title=" ">
<path fill="none" stroke="#63b8ff" d="M135.42,-111.92C135.42,-103.72 135.42,-95.17 135.42,-87.75"/>
<polygon fill="#63b8ff" stroke="#63b8ff" points="138.92,-87.79 135.42,-77.79 131.92,-87.79 138.92,-87.79"/>
</a>
</g>
</g>
<!-- Node5&#45;&gt;Node2 -->
<g id="edge5_Node000005_Node000002" class="edge">
<title>Node5&#45;&gt;Node2</title>
<g id="a_edge5_Node000005_Node000002"><a xlink:title=" ">
<path fill="none" stroke="#63b8ff" d="M194.05,-55.59C183.77,-47.77 168.9,-36.46 156.71,-27.19"/>
<polygon fill="#63b8ff" stroke="#63b8ff" points="158.93,-24.48 148.85,-21.21 154.69,-30.05 158.93,-24.48"/>
</a>
</g>
</g>
<!-- Node5&#45;&gt;Node4 -->
<g id="edge6_Node000005_Node000004" class="edge">
<title>Node5&#45;&gt;Node4</title>
<g id="a_edge6_Node000005_Node000004"><a xlink:title=" ">
<path fill="none" stroke="#63b8ff" d="M212.51,-55.59C217.13,-48.47 223.63,-38.45 229.29,-29.72"/>
<polygon fill="#63b8ff" stroke="#63b8ff" points="232.07,-31.86 234.57,-21.57 226.19,-28.06 232.07,-31.86"/>
</a>
</g>
</g>
<!-- Node6&#45;&gt;Node2 -->
<g id="edge8_Node000006_Node000002" class="edge">
<title>Node6&#45;&gt;Node2</title>
<g id="a_edge8_Node000006_Node000002"><a xlink:title=" ">
<path fill="none" stroke="#63b8ff" d="M135.42,-55.59C135.42,-49.01 135.42,-39.96 135.42,-31.73"/>
<polygon fill="#63b8ff" stroke="#63b8ff" points="138.92,-31.81 135.42,-21.81 131.92,-31.81 138.92,-31.81"/>
</a>
</g>
</g>
</g>
</svg>
