<?xml version="1.0" encoding="UTF-8" standalone="no"?>
<!DOCTYPE svg PUBLIC "-//W3C//DTD SVG 1.1//EN"
 "http://www.w3.org/Graphics/SVG/1.1/DTD/svg11.dtd">
<!-- Generated by graphviz version 9.0.0 (20230911.1827)
 -->
<!-- Title: D:/Note_Database/Subject/MCETA Microcontroller Experiment TA/files/HT32_STD_5xxxx_FWLib_V1.5.1_7084b/example/I2C/EEPROM_Simulate/main.c Pages: 1 -->
<svg width="288pt" height="188pt"
 viewBox="0.00 0.00 287.75 188.00" xmlns="http://www.w3.org/2000/svg" xmlns:xlink="http://www.w3.org/1999/xlink">
<g id="graph0" class="graph" transform="scale(1 1) rotate(0) translate(4 184)">
<title>D:/Note_Database/Subject/MCETA Microcontroller Experiment TA/files/HT32_STD_5xxxx_FWLib_V1.5.1_7084b/example/I2C/EEPROM_Simulate/main.c</title>
<!-- Node1 -->
<g id="Node000001" class="node">
<title>Node1</title>
<g id="a_Node000001"><a xlink:title="Main program.">
<polygon fill="#999999" stroke="#666666" points="194.5,-180 0,-180 0,-112 194.5,-112 194.5,-180"/>
<text text-anchor="start" x="8" y="-166.5" font-family="Helvetica,sans-Serif" font-size="10.00">D:/Note_Database/Subject</text>
<text text-anchor="start" x="8" y="-154.5" font-family="Helvetica,sans-Serif" font-size="10.00">/MCETA Microcontroller</text>
<text text-anchor="start" x="8" y="-142.5" font-family="Helvetica,sans-Serif" font-size="10.00"> Experiment TA/files/HT32</text>
<text text-anchor="start" x="8" y="-130.5" font-family="Helvetica,sans-Serif" font-size="10.00">_STD_5xxxx_FWLib_V1.5.1_7084b</text>
<text text-anchor="middle" x="97.25" y="-118.5" font-family="Helvetica,sans-Serif" font-size="10.00">/example/I2C/EEPROM_Simulate/main.c</text>
</a>
</g>
</g>
<!-- Node2 -->
<g id="Node000002" class="node">
<title>Node2</title>
<g id="a_Node000002"><a xlink:title=" ">
<polygon fill="#e0e0e0" stroke="#999999" points="86.75,-20 43.75,-20 43.75,0 86.75,0 86.75,-20"/>
<text text-anchor="middle" x="65.25" y="-6.5" font-family="Helvetica,sans-Serif" font-size="10.00">ht32.h</text>
</a>
</g>
</g>
<!-- Node1&#45;&gt;Node2 -->
<g id="edge1_Node000001_Node000002" class="edge">
<title>Node1&#45;&gt;Node2</title>
<g id="a_edge1_Node000001_Node000002"><a xlink:title=" ">
<path fill="none" stroke="#63b8ff" d="M42.96,-111.62C31.37,-101.7 20.7,-89.74 14.25,-76 5.46,-57.26 22.78,-39 39.57,-26.63"/>
<polygon fill="#63b8ff" stroke="#63b8ff" points="41.15,-29.79 47.42,-21.25 37.19,-24.01 41.15,-29.79"/>
</a>
</g>
</g>
<!-- Node3 -->
<g id="Node000003" class="node">
<title>Node3</title>
<g id="a_Node000003"><a xlink:title=" ">
<polygon fill="#e0e0e0" stroke="#999999" points="95.38,-76 23.12,-76 23.12,-56 95.38,-56 95.38,-76"/>
<text text-anchor="middle" x="59.25" y="-62.5" font-family="Helvetica,sans-Serif" font-size="10.00">ht32_board.h</text>
</a>
</g>
</g>
<!-- Node1&#45;&gt;Node3 -->
<g id="edge2_Node000001_Node000003" class="edge">
<title>Node1&#45;&gt;Node3</title>
<g id="a_edge2_Node000001_Node000003"><a xlink:title=" ">
<path fill="none" stroke="#63b8ff" d="M81.13,-111.92C76.89,-103.22 72.46,-94.11 68.7,-86.39"/>
<polygon fill="#63b8ff" stroke="#63b8ff" points="71.96,-85.1 64.43,-77.64 65.67,-88.16 71.96,-85.1"/>
</a>
</g>
</g>
<!-- Node4 -->
<g id="Node000004" class="node">
<title>Node4</title>
<g id="a_Node000004"><a xlink:href="_i2_c_2_e_e_p_r_o_m___simulate_2i2cm_8h.html" target="_top" xlink:title="The header file of the I2C library.">
<polygon fill="white" stroke="#666666" points="158.88,-76 113.62,-76 113.62,-56 158.88,-56 158.88,-76"/>
<text text-anchor="middle" x="136.25" y="-62.5" font-family="Helvetica,sans-Serif" font-size="10.00">i2cm.h</text>
</a>
</g>
</g>
<!-- Node1&#45;&gt;Node4 -->
<g id="edge3_Node000001_Node000004" class="edge">
<title>Node1&#45;&gt;Node4</title>
<g id="a_edge3_Node000001_Node000004"><a xlink:title=" ">
<path fill="none" stroke="#63b8ff" d="M113.79,-111.92C118.14,-103.22 122.69,-94.11 126.56,-86.39"/>
<polygon fill="#63b8ff" stroke="#63b8ff" points="129.59,-88.14 130.93,-77.63 123.33,-85.01 129.59,-88.14"/>
</a>
</g>
</g>
<!-- Node5 -->
<g id="Node000005" class="node">
<title>Node5</title>
<g id="a_Node000005"><a xlink:href="_i2_c_2_e_e_p_r_o_m___simulate_2ht32__board__config_8h.html" target="_top" xlink:title="The header file of board configuration.">
<polygon fill="white" stroke="#666666" points="279.75,-76 176.75,-76 176.75,-56 279.75,-56 279.75,-76"/>
<text text-anchor="middle" x="228.25" y="-62.5" font-family="Helvetica,sans-Serif" font-size="10.00">ht32_board_config.h</text>
</a>
</g>
</g>
<!-- Node1&#45;&gt;Node5 -->
<g id="edge5_Node000001_Node000005" class="edge">
<title>Node1&#45;&gt;Node5</title>
<g id="a_edge5_Node000001_Node000005"><a xlink:title=" ">
<path fill="none" stroke="#63b8ff" d="M153.19,-111.69C170.53,-101.37 188.8,-90.49 202.96,-82.06"/>
<polygon fill="#63b8ff" stroke="#63b8ff" points="204.38,-85.29 211.18,-77.16 200.8,-79.27 204.38,-85.29"/>
</a>
</g>
</g>
<!-- Node4&#45;&gt;Node2 -->
<g id="edge4_Node000004_Node000002" class="edge">
<title>Node4&#45;&gt;Node2</title>
<g id="a_edge4_Node000004_Node000002"><a xlink:title=" ">
<path fill="none" stroke="#63b8ff" d="M123.88,-55.59C113.6,-47.77 98.73,-36.46 86.54,-27.19"/>
<polygon fill="#63b8ff" stroke="#63b8ff" points="88.76,-24.48 78.68,-21.21 84.52,-30.05 88.76,-24.48"/>
</a>
</g>
</g>
</g>
</svg>
