<?xml version="1.0" encoding="UTF-8" standalone="no"?>
<!DOCTYPE svg PUBLIC "-//W3C//DTD SVG 1.1//EN"
 "http://www.w3.org/Graphics/SVG/1.1/DTD/svg11.dtd">
<!-- Generated by graphviz version 9.0.0 (20230911.1827)
 -->
<!-- Title: D:/Note_Database/Subject/MCETA Microcontroller Experiment TA/files/HT32_STD_5xxxx_FWLib_V1.5.1_7084b/example/I2S/CodecLoopback_PDMA/ht32f5xxxx_01_it.c Pages: 1 -->
<svg width="197pt" height="200pt"
 viewBox="0.00 0.00 197.25 200.00" xmlns="http://www.w3.org/2000/svg" xmlns:xlink="http://www.w3.org/1999/xlink">
<g id="graph0" class="graph" transform="scale(1 1) rotate(0) translate(4 196)">
<title>D:/Note_Database/Subject/MCETA Microcontroller Experiment TA/files/HT32_STD_5xxxx_FWLib_V1.5.1_7084b/example/I2S/CodecLoopback_PDMA/ht32f5xxxx_01_it.c</title>
<!-- Node1 -->
<g id="Node000001" class="node">
<title>Node1</title>
<g id="a_Node000001"><a xlink:title="This file provides all interrupt service routine.">
<polygon fill="#999999" stroke="#666666" points="179.5,-192 0,-192 0,-112 179.5,-112 179.5,-192"/>
<text text-anchor="start" x="8" y="-178.5" font-family="Helvetica,sans-Serif" font-size="10.00">D:/Note_Database/Subject</text>
<text text-anchor="start" x="8" y="-166.5" font-family="Helvetica,sans-Serif" font-size="10.00">/MCETA Microcontroller</text>
<text text-anchor="start" x="8" y="-154.5" font-family="Helvetica,sans-Serif" font-size="10.00"> Experiment TA/files/HT32</text>
<text text-anchor="start" x="8" y="-142.5" font-family="Helvetica,sans-Serif" font-size="10.00">_STD_5xxxx_FWLib_V1.5.1_7084b</text>
<text text-anchor="start" x="8" y="-130.5" font-family="Helvetica,sans-Serif" font-size="10.00">/example/I2S/CodecLoopback_PDMA</text>
<text text-anchor="middle" x="89.75" y="-118.5" font-family="Helvetica,sans-Serif" font-size="10.00">/ht32f5xxxx_01_it.c</text>
</a>
</g>
</g>
<!-- Node2 -->
<g id="Node000002" class="node">
<title>Node2</title>
<g id="a_Node000002"><a xlink:title=" ">
<polygon fill="#e0e0e0" stroke="#999999" points="65.25,-20 22.25,-20 22.25,0 65.25,0 65.25,-20"/>
<text text-anchor="middle" x="43.75" y="-6.5" font-family="Helvetica,sans-Serif" font-size="10.00">ht32.h</text>
</a>
</g>
</g>
<!-- Node1&#45;&gt;Node2 -->
<g id="edge1_Node000001_Node000002" class="edge">
<title>Node1&#45;&gt;Node2</title>
<g id="a_edge1_Node000001_Node000002"><a xlink:title=" ">
<path fill="none" stroke="#63b8ff" d="M71.37,-111.83C66.48,-100.45 61.52,-87.87 57.75,-76 53.09,-61.33 49.48,-44.3 47.1,-31.35"/>
<polygon fill="#63b8ff" stroke="#63b8ff" points="50.62,-31.15 45.45,-21.89 43.72,-32.35 50.62,-31.15"/>
</a>
</g>
</g>
<!-- Node3 -->
<g id="Node000003" class="node">
<title>Node3</title>
<g id="a_Node000003"><a xlink:href="_i2_s_2_codec_loopback___p_d_m_a_2ht32__board__config_8h.html" target="_top" xlink:title="The header file of board configuration.">
<polygon fill="white" stroke="#666666" points="189.25,-20 86.25,-20 86.25,0 189.25,0 189.25,-20"/>
<text text-anchor="middle" x="137.75" y="-6.5" font-family="Helvetica,sans-Serif" font-size="10.00">ht32_board_config.h</text>
</a>
</g>
</g>
<!-- Node1&#45;&gt;Node3 -->
<g id="edge2_Node000001_Node000003" class="edge">
<title>Node1&#45;&gt;Node3</title>
<g id="a_edge2_Node000001_Node000003"><a xlink:title=" ">
<path fill="none" stroke="#63b8ff" d="M107.91,-111.76C112.79,-100.37 117.8,-87.82 121.75,-76 126.66,-61.3 130.8,-44.27 133.63,-31.33"/>
<polygon fill="#63b8ff" stroke="#63b8ff" points="136.99,-32.38 135.63,-21.87 130.14,-30.94 136.99,-32.38"/>
</a>
</g>
</g>
<!-- Node4 -->
<g id="Node000004" class="node">
<title>Node4</title>
<g id="a_Node000004"><a xlink:href="_i2_s_2_codec_loopback___p_d_m_a_2i2cm_8h.html" target="_top" xlink:title="The header file of I2C master driver.">
<polygon fill="white" stroke="#666666" points="112.38,-76 67.12,-76 67.12,-56 112.38,-56 112.38,-76"/>
<text text-anchor="middle" x="89.75" y="-62.5" font-family="Helvetica,sans-Serif" font-size="10.00">i2cm.h</text>
</a>
</g>
</g>
<!-- Node1&#45;&gt;Node4 -->
<g id="edge3_Node000001_Node000004" class="edge">
<title>Node1&#45;&gt;Node4</title>
<g id="a_edge3_Node000001_Node000004"><a xlink:title=" ">
<path fill="none" stroke="#63b8ff" d="M89.75,-111.95C89.75,-103.6 89.75,-95.09 89.75,-87.76"/>
<polygon fill="#63b8ff" stroke="#63b8ff" points="93.25,-87.95 89.75,-77.95 86.25,-87.95 93.25,-87.95"/>
</a>
</g>
</g>
<!-- Node4&#45;&gt;Node2 -->
<g id="edge4_Node000004_Node000002" class="edge">
<title>Node4&#45;&gt;Node2</title>
<g id="a_edge4_Node000004_Node000002"><a xlink:title=" ">
<path fill="none" stroke="#63b8ff" d="M81.74,-55.59C75.47,-48.24 66.58,-37.8 58.97,-28.87"/>
<polygon fill="#63b8ff" stroke="#63b8ff" points="61.8,-26.79 52.65,-21.45 56.47,-31.33 61.8,-26.79"/>
</a>
</g>
</g>
<!-- Node4&#45;&gt;Node3 -->
<g id="edge5_Node000004_Node000003" class="edge">
<title>Node4&#45;&gt;Node3</title>
<g id="a_edge5_Node000004_Node000003"><a xlink:title=" ">
<path fill="none" stroke="#63b8ff" d="M98.11,-55.59C104.65,-48.24 113.93,-37.8 121.87,-28.87"/>
<polygon fill="#63b8ff" stroke="#63b8ff" points="124.45,-31.23 128.48,-21.43 119.22,-26.58 124.45,-31.23"/>
</a>
</g>
</g>
</g>
</svg>
