<?xml version="1.0" encoding="UTF-8" standalone="no"?>
<!DOCTYPE svg PUBLIC "-//W3C//DTD SVG 1.1//EN"
 "http://www.w3.org/Graphics/SVG/1.1/DTD/svg11.dtd">
<!-- Generated by graphviz version 9.0.0 (20230911.1827)
 -->
<!-- Title: D:/Note_Database/Subject/MCETA Microcontroller Experiment TA/files/HT32_STD_5xxxx_FWLib_V1.5.1_7084b/example/I2S/CodecLoopback_PDMA/ht32_board_config.h Pages: 1 -->
<svg width="431pt" height="308pt"
 viewBox="0.00 0.00 430.62 308.00" xmlns="http://www.w3.org/2000/svg" xmlns:xlink="http://www.w3.org/1999/xlink">
<g id="graph0" class="graph" transform="scale(1 1) rotate(0) translate(4 304)">
<title>D:/Note_Database/Subject/MCETA Microcontroller Experiment TA/files/HT32_STD_5xxxx_FWLib_V1.5.1_7084b/example/I2S/CodecLoopback_PDMA/ht32_board_config.h</title>
<!-- Node1 -->
<g id="Node000001" class="node">
<title>Node1</title>
<g id="a_Node000001"><a xlink:title="The header file of board configuration.">
<polygon fill="#999999" stroke="#666666" points="286.5,-300 107,-300 107,-220 286.5,-220 286.5,-300"/>
<text text-anchor="start" x="115" y="-286.5" font-family="Helvetica,sans-Serif" font-size="10.00">D:/Note_Database/Subject</text>
<text text-anchor="start" x="115" y="-274.5" font-family="Helvetica,sans-Serif" font-size="10.00">/MCETA Microcontroller</text>
<text text-anchor="start" x="115" y="-262.5" font-family="Helvetica,sans-Serif" font-size="10.00"> Experiment TA/files/HT32</text>
<text text-anchor="start" x="115" y="-250.5" font-family="Helvetica,sans-Serif" font-size="10.00">_STD_5xxxx_FWLib_V1.5.1_7084b</text>
<text text-anchor="start" x="115" y="-238.5" font-family="Helvetica,sans-Serif" font-size="10.00">/example/I2S/CodecLoopback_PDMA</text>
<text text-anchor="middle" x="196.75" y="-226.5" font-family="Helvetica,sans-Serif" font-size="10.00">/ht32_board_config.h</text>
</a>
</g>
</g>
<!-- Node2 -->
<g id="Node000002" class="node">
<title>Node2</title>
<g id="a_Node000002"><a xlink:href="_i2_s_2_codec_loopback___p_d_m_a_2ht32f5xxxx__01__it_8c.html" target="_top" xlink:title="This file provides all interrupt service routine.">
<polygon fill="white" stroke="#666666" points="179.5,-80 0,-80 0,0 179.5,0 179.5,-80"/>
<text text-anchor="start" x="8" y="-66.5" font-family="Helvetica,sans-Serif" font-size="10.00">D:/Note_Database/Subject</text>
<text text-anchor="start" x="8" y="-54.5" font-family="Helvetica,sans-Serif" font-size="10.00">/MCETA Microcontroller</text>
<text text-anchor="start" x="8" y="-42.5" font-family="Helvetica,sans-Serif" font-size="10.00"> Experiment TA/files/HT32</text>
<text text-anchor="start" x="8" y="-30.5" font-family="Helvetica,sans-Serif" font-size="10.00">_STD_5xxxx_FWLib_V1.5.1_7084b</text>
<text text-anchor="start" x="8" y="-18.5" font-family="Helvetica,sans-Serif" font-size="10.00">/example/I2S/CodecLoopback_PDMA</text>
<text text-anchor="middle" x="89.75" y="-6.5" font-family="Helvetica,sans-Serif" font-size="10.00">/ht32f5xxxx_01_it.c</text>
</a>
</g>
</g>
<!-- Node1&#45;&gt;Node2 -->
<g id="edge1_Node000001_Node000002" class="edge">
<title>Node1&#45;&gt;Node2</title>
<g id="a_edge1_Node000001_Node000002"><a xlink:title=" ">
<path fill="none" stroke="#63b8ff" d="M104.92,-212.45C95.68,-204.2 87.57,-194.75 81.75,-184 64.58,-152.3 69.42,-110.63 76.86,-80.46"/>
<polygon fill="#63b8ff" stroke="#63b8ff" points="102.59,-215.06 112.53,-218.72 107.04,-209.66 102.59,-215.06"/>
</a>
</g>
</g>
<!-- Node3 -->
<g id="Node000003" class="node">
<title>Node3</title>
<g id="a_Node000003"><a xlink:href="_i2_s_2_codec_loopback___p_d_m_a_2i2cm_8h.html" target="_top" xlink:title="The header file of I2C master driver.">
<polygon fill="white" stroke="#666666" points="302.62,-184 90.88,-184 90.88,-116 302.62,-116 302.62,-184"/>
<text text-anchor="start" x="98.88" y="-170.5" font-family="Helvetica,sans-Serif" font-size="10.00">D:/Note_Database/Subject</text>
<text text-anchor="start" x="98.88" y="-158.5" font-family="Helvetica,sans-Serif" font-size="10.00">/MCETA Microcontroller</text>
<text text-anchor="start" x="98.88" y="-146.5" font-family="Helvetica,sans-Serif" font-size="10.00"> Experiment TA/files/HT32</text>
<text text-anchor="start" x="98.88" y="-134.5" font-family="Helvetica,sans-Serif" font-size="10.00">_STD_5xxxx_FWLib_V1.5.1_7084b</text>
<text text-anchor="middle" x="196.75" y="-122.5" font-family="Helvetica,sans-Serif" font-size="10.00">/example/I2S/CodecLoopback_PDMA/i2cm.h</text>
</a>
</g>
</g>
<!-- Node1&#45;&gt;Node3 -->
<g id="edge2_Node000001_Node000003" class="edge">
<title>Node1&#45;&gt;Node3</title>
<g id="a_edge2_Node000001_Node000003"><a xlink:title=" ">
<path fill="none" stroke="#63b8ff" d="M196.75,-208.35C196.75,-200.22 196.75,-191.99 196.75,-184.4"/>
<polygon fill="#63b8ff" stroke="#63b8ff" points="193.25,-208.19 196.75,-218.19 200.25,-208.19 193.25,-208.19"/>
</a>
</g>
</g>
<!-- Node4 -->
<g id="Node000004" class="node">
<title>Node4</title>
<g id="a_Node000004"><a xlink:href="_i2_s_2_codec_loopback___p_d_m_a_2main_8c.html" target="_top" xlink:title="Main program.">
<polygon fill="white" stroke="#666666" points="422.62,-74 210.88,-74 210.88,-6 422.62,-6 422.62,-74"/>
<text text-anchor="start" x="218.88" y="-60.5" font-family="Helvetica,sans-Serif" font-size="10.00">D:/Note_Database/Subject</text>
<text text-anchor="start" x="218.88" y="-48.5" font-family="Helvetica,sans-Serif" font-size="10.00">/MCETA Microcontroller</text>
<text text-anchor="start" x="218.88" y="-36.5" font-family="Helvetica,sans-Serif" font-size="10.00"> Experiment TA/files/HT32</text>
<text text-anchor="start" x="218.88" y="-24.5" font-family="Helvetica,sans-Serif" font-size="10.00">_STD_5xxxx_FWLib_V1.5.1_7084b</text>
<text text-anchor="middle" x="316.75" y="-12.5" font-family="Helvetica,sans-Serif" font-size="10.00">/example/I2S/CodecLoopback_PDMA/main.c</text>
</a>
</g>
</g>
<!-- Node1&#45;&gt;Node4 -->
<g id="edge5_Node000001_Node000004" class="edge">
<title>Node1&#45;&gt;Node4</title>
<g id="a_edge5_Node000001_Node000004"><a xlink:title=" ">
<path fill="none" stroke="#63b8ff" d="M288.01,-212.44C297.4,-204.18 305.69,-194.73 311.75,-184 330.74,-150.36 328.5,-104.83 323.82,-74.26"/>
<polygon fill="#63b8ff" stroke="#63b8ff" points="285.83,-209.7 280.29,-218.73 290.25,-215.12 285.83,-209.7"/>
</a>
</g>
</g>
<!-- Node3&#45;&gt;Node2 -->
<g id="edge3_Node000003_Node000002" class="edge">
<title>Node3&#45;&gt;Node2</title>
<g id="a_edge3_Node000003_Node000002"><a xlink:title=" ">
<path fill="none" stroke="#63b8ff" d="M155.8,-107.67C146.95,-98.73 137.6,-89.3 128.82,-80.43"/>
<polygon fill="#63b8ff" stroke="#63b8ff" points="153.18,-110 162.71,-114.64 158.16,-105.07 153.18,-110"/>
</a>
</g>
</g>
<!-- Node3&#45;&gt;Node4 -->
<g id="edge4_Node000003_Node000004" class="edge">
<title>Node3&#45;&gt;Node4</title>
<g id="a_edge4_Node000003_Node000004"><a xlink:title=" ">
<path fill="none" stroke="#63b8ff" d="M242.14,-108.15C254.54,-96.99 267.81,-85.04 279.68,-74.36"/>
<polygon fill="#63b8ff" stroke="#63b8ff" points="239.95,-105.41 234.86,-114.7 244.63,-110.61 239.95,-105.41"/>
</a>
</g>
</g>
</g>
</svg>
