<?xml version="1.0" encoding="UTF-8" standalone="no"?>
<!DOCTYPE svg PUBLIC "-//W3C//DTD SVG 1.1//EN"
 "http://www.w3.org/Graphics/SVG/1.1/DTD/svg11.dtd">
<!-- Generated by graphviz version 9.0.0 (20230911.1827)
 -->
<!-- Title: D:/Note_Database/Subject/MCETA Microcontroller Experiment TA/files/HT32_STD_5xxxx_FWLib_V1.5.1_7084b/library/CMSIS/Include/core_cm0plus.h Pages: 1 -->
<svg width="254pt" height="188pt"
 viewBox="0.00 0.00 253.62 188.00" xmlns="http://www.w3.org/2000/svg" xmlns:xlink="http://www.w3.org/1999/xlink">
<g id="graph0" class="graph" transform="scale(1 1) rotate(0) translate(4 184)">
<title>D:/Note_Database/Subject/MCETA Microcontroller Experiment TA/files/HT32_STD_5xxxx_FWLib_V1.5.1_7084b/library/CMSIS/Include/core_cm0plus.h</title>
<!-- Node1 -->
<g id="Node000001" class="node">
<title>Node1</title>
<g id="a_Node000001"><a xlink:title="CMSIS Cortex&#45;M0+ Core Peripheral Access Layer Header File.">
<polygon fill="#999999" stroke="#666666" points="184.75,-180 0,-180 0,-112 184.75,-112 184.75,-180"/>
<text text-anchor="start" x="8" y="-166.5" font-family="Helvetica,sans-Serif" font-size="10.00">D:/Note_Database/Subject</text>
<text text-anchor="start" x="8" y="-154.5" font-family="Helvetica,sans-Serif" font-size="10.00">/MCETA Microcontroller</text>
<text text-anchor="start" x="8" y="-142.5" font-family="Helvetica,sans-Serif" font-size="10.00"> Experiment TA/files/HT32</text>
<text text-anchor="start" x="8" y="-130.5" font-family="Helvetica,sans-Serif" font-size="10.00">_STD_5xxxx_FWLib_V1.5.1_7084b</text>
<text text-anchor="middle" x="92.38" y="-118.5" font-family="Helvetica,sans-Serif" font-size="10.00">/library/CMSIS/Include/core_cm0plus.h</text>
</a>
</g>
</g>
<!-- Node2 -->
<g id="Node000002" class="node">
<title>Node2</title>
<g id="a_Node000002"><a xlink:title=" ">
<polygon fill="#e0e0e0" stroke="#999999" points="134.5,-20 86.25,-20 86.25,0 134.5,0 134.5,-20"/>
<text text-anchor="middle" x="110.38" y="-6.5" font-family="Helvetica,sans-Serif" font-size="10.00">stdint.h</text>
</a>
</g>
</g>
<!-- Node1&#45;&gt;Node2 -->
<g id="edge1_Node000001_Node000002" class="edge">
<title>Node1&#45;&gt;Node2</title>
<g id="a_edge1_Node000001_Node000002"><a xlink:title=" ">
<path fill="none" stroke="#63b8ff" d="M54.87,-111.87C40.69,-95.24 30.17,-74.69 40.38,-56 48.04,-41.95 62.18,-31.64 75.75,-24.45"/>
<polygon fill="#63b8ff" stroke="#63b8ff" points="77.05,-27.71 84.54,-20.22 74.01,-21.41 77.05,-27.71"/>
</a>
</g>
</g>
<!-- Node3 -->
<g id="Node000003" class="node">
<title>Node3</title>
<g id="a_Node000003"><a xlink:href="_include_2cmsis__version_8h.html" target="_top" xlink:title="CMSIS Core(M) Version definitions.">
<polygon fill="white" stroke="#666666" points="135.25,-76 49.5,-76 49.5,-56 135.25,-56 135.25,-76"/>
<text text-anchor="middle" x="92.38" y="-62.5" font-family="Helvetica,sans-Serif" font-size="10.00">cmsis_version.h</text>
</a>
</g>
</g>
<!-- Node1&#45;&gt;Node3 -->
<g id="edge2_Node000001_Node000003" class="edge">
<title>Node1&#45;&gt;Node3</title>
<g id="a_edge2_Node000001_Node000003"><a xlink:title=" ">
<path fill="none" stroke="#63b8ff" d="M92.38,-111.92C92.38,-103.72 92.38,-95.17 92.38,-87.75"/>
<polygon fill="#63b8ff" stroke="#63b8ff" points="95.88,-87.79 92.38,-77.79 88.88,-87.79 95.88,-87.79"/>
</a>
</g>
</g>
<!-- Node4 -->
<g id="Node000004" class="node">
<title>Node4</title>
<g id="a_Node000004"><a xlink:href="_include_2cmsis__compiler_8h.html" target="_top" xlink:title="CMSIS compiler generic header file.">
<polygon fill="white" stroke="#666666" points="245.62,-76 153.12,-76 153.12,-56 245.62,-56 245.62,-76"/>
<text text-anchor="middle" x="199.38" y="-62.5" font-family="Helvetica,sans-Serif" font-size="10.00">cmsis_compiler.h</text>
</a>
</g>
</g>
<!-- Node1&#45;&gt;Node4 -->
<g id="edge3_Node000001_Node000004" class="edge">
<title>Node1&#45;&gt;Node4</title>
<g id="a_edge3_Node000001_Node000004"><a xlink:title=" ">
<path fill="none" stroke="#63b8ff" d="M138.06,-111.69C151.77,-101.7 166.18,-91.2 177.58,-82.89"/>
<polygon fill="#63b8ff" stroke="#63b8ff" points="179.49,-85.83 185.51,-77.11 175.36,-80.17 179.49,-85.83"/>
</a>
</g>
</g>
<!-- Node4&#45;&gt;Node2 -->
<g id="edge4_Node000004_Node000002" class="edge">
<title>Node4&#45;&gt;Node2</title>
<g id="a_edge4_Node000004_Node000002"><a xlink:title=" ">
<path fill="none" stroke="#63b8ff" d="M183.87,-55.59C170.55,-47.51 151.1,-35.71 135.55,-26.27"/>
<polygon fill="#63b8ff" stroke="#63b8ff" points="137.66,-23.46 127.29,-21.26 134.03,-29.44 137.66,-23.46"/>
</a>
</g>
</g>
</g>
</svg>
