<?xml version="1.0" encoding="UTF-8" standalone="no"?>
<!DOCTYPE svg PUBLIC "-//W3C//DTD SVG 1.1//EN"
 "http://www.w3.org/Graphics/SVG/1.1/DTD/svg11.dtd">
<!-- Generated by graphviz version 9.0.0 (20230911.1827)
 -->
<!-- Title: D:/Note_Database/Subject/MCETA Microcontroller Experiment TA/files/HT32_STD_5xxxx_FWLib_V1.5.1_7084b/example/USBD/Mass_Storage/usb_bulk_only_transport.c Pages: 1 -->
<svg width="369pt" height="256pt"
 viewBox="0.00 0.00 369.43 256.00" xmlns="http://www.w3.org/2000/svg" xmlns:xlink="http://www.w3.org/1999/xlink">
<g id="graph0" class="graph" transform="scale(1 1) rotate(0) translate(4 252)">
<title>D:/Note_Database/Subject/MCETA Microcontroller Experiment TA/files/HT32_STD_5xxxx_FWLib_V1.5.1_7084b/example/USBD/Mass_Storage/usb_bulk_only_transport.c</title>
<!-- Node1 -->
<g id="Node000001" class="node">
<title>Node1</title>
<g id="a_Node000001"><a xlink:title="The Bulk Only Transport (BOT).">
<polygon fill="#999999" stroke="#666666" points="242.2,-248 71.7,-248 71.7,-168 242.2,-168 242.2,-248"/>
<text text-anchor="start" x="79.7" y="-234.5" font-family="Helvetica,sans-Serif" font-size="10.00">D:/Note_Database/Subject</text>
<text text-anchor="start" x="79.7" y="-222.5" font-family="Helvetica,sans-Serif" font-size="10.00">/MCETA Microcontroller</text>
<text text-anchor="start" x="79.7" y="-210.5" font-family="Helvetica,sans-Serif" font-size="10.00"> Experiment TA/files/HT32</text>
<text text-anchor="start" x="79.7" y="-198.5" font-family="Helvetica,sans-Serif" font-size="10.00">_STD_5xxxx_FWLib_V1.5.1_7084b</text>
<text text-anchor="start" x="79.7" y="-186.5" font-family="Helvetica,sans-Serif" font-size="10.00">/example/USBD/Mass_Storage/usb</text>
<text text-anchor="middle" x="156.95" y="-174.5" font-family="Helvetica,sans-Serif" font-size="10.00">_bulk_only_transport.c</text>
</a>
</g>
</g>
<!-- Node2 -->
<g id="Node000002" class="node">
<title>Node2</title>
<g id="a_Node000002"><a xlink:title=" ">
<polygon fill="#e0e0e0" stroke="#999999" points="109.45,-76 66.45,-76 66.45,-56 109.45,-56 109.45,-76"/>
<text text-anchor="middle" x="87.95" y="-62.5" font-family="Helvetica,sans-Serif" font-size="10.00">ht32.h</text>
</a>
</g>
</g>
<!-- Node1&#45;&gt;Node2 -->
<g id="edge1_Node000001_Node000002" class="edge">
<title>Node1&#45;&gt;Node2</title>
<g id="a_edge1_Node000001_Node000002"><a xlink:title=" ">
<path fill="none" stroke="#63b8ff" d="M71.58,-184.67C45.31,-173.36 19.29,-156.6 3.95,-132 -11.78,-106.78 25.61,-87.55 55.46,-76.76"/>
<polygon fill="#63b8ff" stroke="#63b8ff" points="56.23,-80.2 64.57,-73.66 53.97,-73.57 56.23,-80.2"/>
</a>
</g>
</g>
<!-- Node3 -->
<g id="Node000003" class="node">
<title>Node3</title>
<g id="a_Node000003"><a xlink:title=" ">
<polygon fill="#e0e0e0" stroke="#999999" points="106.58,-132 13.33,-132 13.33,-112 106.58,-112 106.58,-132"/>
<text text-anchor="middle" x="59.95" y="-118.5" font-family="Helvetica,sans-Serif" font-size="10.00">ht32_usbd_core.h</text>
</a>
</g>
</g>
<!-- Node1&#45;&gt;Node3 -->
<g id="edge2_Node000001_Node000003" class="edge">
<title>Node1&#45;&gt;Node3</title>
<g id="a_edge2_Node000001_Node000003"><a xlink:title=" ">
<path fill="none" stroke="#63b8ff" d="M111.57,-167.71C100.18,-157.84 88.56,-147.78 79.24,-139.7"/>
<polygon fill="#63b8ff" stroke="#63b8ff" points="81.77,-137.26 71.92,-133.36 77.19,-142.56 81.77,-137.26"/>
</a>
</g>
</g>
<!-- Node4 -->
<g id="Node000004" class="node">
<title>Node4</title>
<g id="a_Node000004"><a xlink:href="_mass___storage_2usb__bulk__only__transport_8h.html" target="_top" xlink:title="The header file of Bulk Only Transport.">
<polygon fill="white" stroke="#666666" points="290.95,-76 160.95,-76 160.95,-56 290.95,-56 290.95,-76"/>
<text text-anchor="middle" x="225.95" y="-62.5" font-family="Helvetica,sans-Serif" font-size="10.00">usb_bulk_only_transport.h</text>
</a>
</g>
</g>
<!-- Node1&#45;&gt;Node4 -->
<g id="edge3_Node000001_Node000004" class="edge">
<title>Node1&#45;&gt;Node4</title>
<g id="a_edge3_Node000001_Node000004"><a xlink:title=" ">
<path fill="none" stroke="#63b8ff" d="M242.63,-197.25C284.12,-187.74 330.38,-168.97 355.95,-132 374.78,-104.78 340.19,-88.39 301.97,-78.88"/>
<polygon fill="#63b8ff" stroke="#63b8ff" points="303.14,-75.56 292.61,-76.71 301.57,-82.38 303.14,-75.56"/>
</a>
</g>
</g>
<!-- Node6 -->
<g id="Node000006" class="node">
<title>Node6</title>
<g id="a_Node000006"><a xlink:href="_mass___storage_2usb__scsi__block__command_8h.html" target="_top" xlink:title="The header file of SCSI Block Command (SBC&#45;3 &amp; SPC&#45;4).">
<polygon fill="white" stroke="#666666" points="346.83,-132 207.08,-132 207.08,-112 346.83,-112 346.83,-132"/>
<text text-anchor="middle" x="276.95" y="-118.5" font-family="Helvetica,sans-Serif" font-size="10.00">usb_scsi_block_command.h</text>
</a>
</g>
</g>
<!-- Node1&#45;&gt;Node6 -->
<g id="edge5_Node000001_Node000006" class="edge">
<title>Node1&#45;&gt;Node6</title>
<g id="a_edge5_Node000001_Node000006"><a xlink:title=" ">
<path fill="none" stroke="#63b8ff" d="M213.09,-167.71C227.62,-157.53 242.45,-147.15 254.16,-138.95"/>
<polygon fill="#63b8ff" stroke="#63b8ff" points="256.14,-141.84 262.32,-133.24 252.12,-136.11 256.14,-141.84"/>
</a>
</g>
</g>
<!-- Node7 -->
<g id="Node000007" class="node">
<title>Node7</title>
<g id="a_Node000007"><a xlink:href="_mass___storage_2ram__disk_8h.html" target="_top" xlink:title="The header file of RAM Disk.">
<polygon fill="white" stroke="#666666" points="188.95,-132 124.95,-132 124.95,-112 188.95,-112 188.95,-132"/>
<text text-anchor="middle" x="156.95" y="-118.5" font-family="Helvetica,sans-Serif" font-size="10.00">ram_disk.h</text>
</a>
</g>
</g>
<!-- Node1&#45;&gt;Node7 -->
<g id="edge6_Node000001_Node000007" class="edge">
<title>Node1&#45;&gt;Node7</title>
<g id="a_edge6_Node000001_Node000007"><a xlink:title=" ">
<path fill="none" stroke="#63b8ff" d="M156.95,-167.95C156.95,-159.6 156.95,-151.09 156.95,-143.76"/>
<polygon fill="#63b8ff" stroke="#63b8ff" points="160.45,-143.95 156.95,-133.95 153.45,-143.95 160.45,-143.95"/>
</a>
</g>
</g>
<!-- Node5 -->
<g id="Node000005" class="node">
<title>Node5</title>
<g id="a_Node000005"><a xlink:title=" ">
<polygon fill="#e0e0e0" stroke="#999999" points="262.08,-20 189.83,-20 189.83,0 262.08,0 262.08,-20"/>
<text text-anchor="middle" x="225.95" y="-6.5" font-family="Helvetica,sans-Serif" font-size="10.00">ht32_board.h</text>
</a>
</g>
</g>
<!-- Node4&#45;&gt;Node5 -->
<g id="edge4_Node000004_Node000005" class="edge">
<title>Node4&#45;&gt;Node5</title>
<g id="a_edge4_Node000004_Node000005"><a xlink:title=" ">
<path fill="none" stroke="#63b8ff" d="M225.95,-55.59C225.95,-49.01 225.95,-39.96 225.95,-31.73"/>
<polygon fill="#63b8ff" stroke="#63b8ff" points="229.45,-31.81 225.95,-21.81 222.45,-31.81 229.45,-31.81"/>
</a>
</g>
</g>
<!-- Node7&#45;&gt;Node2 -->
<g id="edge7_Node000007_Node000002" class="edge">
<title>Node7&#45;&gt;Node2</title>
<g id="a_edge7_Node000007_Node000002"><a xlink:title=" ">
<path fill="none" stroke="#63b8ff" d="M144.93,-111.59C134.94,-103.77 120.49,-92.46 108.64,-83.19"/>
<polygon fill="#63b8ff" stroke="#63b8ff" points="111.06,-80.64 101.02,-77.23 106.74,-86.15 111.06,-80.64"/>
</a>
</g>
</g>
<!-- Node7&#45;&gt;Node4 -->
<g id="edge8_Node000007_Node000004" class="edge">
<title>Node7&#45;&gt;Node4</title>
<g id="a_edge8_Node000007_Node000004"><a xlink:title=" ">
<path fill="none" stroke="#63b8ff" d="M168.97,-111.59C178.96,-103.77 193.41,-92.46 205.26,-83.19"/>
<polygon fill="#63b8ff" stroke="#63b8ff" points="207.16,-86.15 212.88,-77.23 202.85,-80.64 207.16,-86.15"/>
</a>
</g>
</g>
</g>
</svg>
