<?xml version="1.0" encoding="UTF-8" standalone="no"?>
<!DOCTYPE svg PUBLIC "-//W3C//DTD SVG 1.1//EN"
 "http://www.w3.org/Graphics/SVG/1.1/DTD/svg11.dtd">
<!-- Generated by graphviz version 9.0.0 (20230911.1827)
 -->
<!-- Title: D:/Note_Database/Subject/MCETA Microcontroller Experiment TA/files/HT32_STD_5xxxx_FWLib_V1.5.1_7084b/example/USBD/Mass_Storage/usb_bulk_only_transport.h Pages: 1 -->
<svg width="843pt" height="540pt"
 viewBox="0.00 0.00 843.00 540.00" xmlns="http://www.w3.org/2000/svg" xmlns:xlink="http://www.w3.org/1999/xlink">
<g id="graph0" class="graph" transform="scale(1 1) rotate(0) translate(4 536)">
<title>D:/Note_Database/Subject/MCETA Microcontroller Experiment TA/files/HT32_STD_5xxxx_FWLib_V1.5.1_7084b/example/USBD/Mass_Storage/usb_bulk_only_transport.h</title>
<!-- Node1 -->
<g id="Node000001" class="node">
<title>Node1</title>
<g id="a_Node000001"><a xlink:title="The header file of Bulk Only Transport.">
<polygon fill="#999999" stroke="#666666" points="507,-532 336.5,-532 336.5,-452 507,-452 507,-532"/>
<text text-anchor="start" x="344.5" y="-518.5" font-family="Helvetica,sans-Serif" font-size="10.00">D:/Note_Database/Subject</text>
<text text-anchor="start" x="344.5" y="-506.5" font-family="Helvetica,sans-Serif" font-size="10.00">/MCETA Microcontroller</text>
<text text-anchor="start" x="344.5" y="-494.5" font-family="Helvetica,sans-Serif" font-size="10.00"> Experiment TA/files/HT32</text>
<text text-anchor="start" x="344.5" y="-482.5" font-family="Helvetica,sans-Serif" font-size="10.00">_STD_5xxxx_FWLib_V1.5.1_7084b</text>
<text text-anchor="start" x="344.5" y="-470.5" font-family="Helvetica,sans-Serif" font-size="10.00">/example/USBD/Mass_Storage/usb</text>
<text text-anchor="middle" x="421.75" y="-458.5" font-family="Helvetica,sans-Serif" font-size="10.00">_bulk_only_transport.h</text>
</a>
</g>
</g>
<!-- Node2 -->
<g id="Node000002" class="node">
<title>Node2</title>
<g id="a_Node000002"><a xlink:href="_u_s_b_d_2_mass___storage_2ht32__usbd__class_8c.html" target="_top" xlink:title="The USB Device Class.">
<polygon fill="white" stroke="#666666" points="173.5,-416 0,-416 0,-336 173.5,-336 173.5,-416"/>
<text text-anchor="start" x="8" y="-402.5" font-family="Helvetica,sans-Serif" font-size="10.00">D:/Note_Database/Subject</text>
<text text-anchor="start" x="8" y="-390.5" font-family="Helvetica,sans-Serif" font-size="10.00">/MCETA Microcontroller</text>
<text text-anchor="start" x="8" y="-378.5" font-family="Helvetica,sans-Serif" font-size="10.00"> Experiment TA/files/HT32</text>
<text text-anchor="start" x="8" y="-366.5" font-family="Helvetica,sans-Serif" font-size="10.00">_STD_5xxxx_FWLib_V1.5.1_7084b</text>
<text text-anchor="start" x="8" y="-354.5" font-family="Helvetica,sans-Serif" font-size="10.00">/example/USBD/Mass_Storage/ht32</text>
<text text-anchor="middle" x="86.75" y="-342.5" font-family="Helvetica,sans-Serif" font-size="10.00">_usbd_class.c</text>
</a>
</g>
</g>
<!-- Node1&#45;&gt;Node2 -->
<g id="edge1_Node000001_Node000002" class="edge">
<title>Node1&#45;&gt;Node2</title>
<g id="a_edge1_Node000001_Node000002"><a xlink:title=" ">
<path fill="none" stroke="#63b8ff" d="M325.08,-462.63C281.34,-449.29 229.16,-432.68 182.75,-416 179.79,-414.94 176.78,-413.83 173.75,-412.71"/>
<polygon fill="#63b8ff" stroke="#63b8ff" points="323.98,-465.96 334.56,-465.51 326.01,-459.26 323.98,-465.96"/>
</a>
</g>
</g>
<!-- Node3 -->
<g id="Node000003" class="node">
<title>Node3</title>
<g id="a_Node000003"><a xlink:href="_mass___storage_2ram__disk_8h.html" target="_top" xlink:title="The header file of RAM Disk.">
<polygon fill="white" stroke="#666666" points="394.12,-410 191.38,-410 191.38,-342 394.12,-342 394.12,-410"/>
<text text-anchor="start" x="199.38" y="-396.5" font-family="Helvetica,sans-Serif" font-size="10.00">D:/Note_Database/Subject</text>
<text text-anchor="start" x="199.38" y="-384.5" font-family="Helvetica,sans-Serif" font-size="10.00">/MCETA Microcontroller</text>
<text text-anchor="start" x="199.38" y="-372.5" font-family="Helvetica,sans-Serif" font-size="10.00"> Experiment TA/files/HT32</text>
<text text-anchor="start" x="199.38" y="-360.5" font-family="Helvetica,sans-Serif" font-size="10.00">_STD_5xxxx_FWLib_V1.5.1_7084b</text>
<text text-anchor="middle" x="292.75" y="-348.5" font-family="Helvetica,sans-Serif" font-size="10.00">/example/USBD/Mass_Storage/ram_disk.h</text>
</a>
</g>
</g>
<!-- Node1&#45;&gt;Node3 -->
<g id="edge2_Node000001_Node000003" class="edge">
<title>Node1&#45;&gt;Node3</title>
<g id="a_edge2_Node000001_Node000003"><a xlink:title=" ">
<path fill="none" stroke="#63b8ff" d="M368.97,-444.35C356.02,-432.91 342.42,-420.9 330.36,-410.23"/>
<polygon fill="#63b8ff" stroke="#63b8ff" points="366.41,-446.77 376.22,-450.77 371.05,-441.52 366.41,-446.77"/>
</a>
</g>
</g>
<!-- Node7 -->
<g id="Node000007" class="node">
<title>Node7</title>
<g id="a_Node000007"><a xlink:href="_mass___storage_2usb__bulk__only__transport_8c.html" target="_top" xlink:title="The Bulk Only Transport (BOT).">
<polygon fill="white" stroke="#666666" points="431,-300 260.5,-300 260.5,-220 431,-220 431,-300"/>
<text text-anchor="start" x="268.5" y="-286.5" font-family="Helvetica,sans-Serif" font-size="10.00">D:/Note_Database/Subject</text>
<text text-anchor="start" x="268.5" y="-274.5" font-family="Helvetica,sans-Serif" font-size="10.00">/MCETA Microcontroller</text>
<text text-anchor="start" x="268.5" y="-262.5" font-family="Helvetica,sans-Serif" font-size="10.00"> Experiment TA/files/HT32</text>
<text text-anchor="start" x="268.5" y="-250.5" font-family="Helvetica,sans-Serif" font-size="10.00">_STD_5xxxx_FWLib_V1.5.1_7084b</text>
<text text-anchor="start" x="268.5" y="-238.5" font-family="Helvetica,sans-Serif" font-size="10.00">/example/USBD/Mass_Storage/usb</text>
<text text-anchor="middle" x="345.75" y="-226.5" font-family="Helvetica,sans-Serif" font-size="10.00">_bulk_only_transport.c</text>
</a>
</g>
</g>
<!-- Node1&#45;&gt;Node7 -->
<g id="edge11_Node000001_Node000007" class="edge">
<title>Node1&#45;&gt;Node7</title>
<g id="a_edge11_Node000001_Node000007"><a xlink:title=" ">
<path fill="none" stroke="#63b8ff" d="M422.17,-440.24C420.83,-409.13 416.19,-369.07 402.75,-336 397.64,-323.42 389.85,-311.12 381.66,-300.23"/>
<polygon fill="#63b8ff" stroke="#63b8ff" points="418.67,-440.29 422.48,-450.18 425.66,-440.07 418.67,-440.29"/>
</a>
</g>
</g>
<!-- Node8 -->
<g id="Node000008" class="node">
<title>Node8</title>
<g id="a_Node000008"><a xlink:href="sd__disk_8h.html" target="_top" xlink:title="The header file of SD Disk.">
<polygon fill="white" stroke="#666666" points="646.12,-410 449.38,-410 449.38,-342 646.12,-342 646.12,-410"/>
<text text-anchor="start" x="457.38" y="-396.5" font-family="Helvetica,sans-Serif" font-size="10.00">D:/Note_Database/Subject</text>
<text text-anchor="start" x="457.38" y="-384.5" font-family="Helvetica,sans-Serif" font-size="10.00">/MCETA Microcontroller</text>
<text text-anchor="start" x="457.38" y="-372.5" font-family="Helvetica,sans-Serif" font-size="10.00"> Experiment TA/files/HT32</text>
<text text-anchor="start" x="457.38" y="-360.5" font-family="Helvetica,sans-Serif" font-size="10.00">_STD_5xxxx_FWLib_V1.5.1_7084b</text>
<text text-anchor="middle" x="547.75" y="-348.5" font-family="Helvetica,sans-Serif" font-size="10.00">/example/USBD/Mass_Storage/sd_disk.h</text>
</a>
</g>
</g>
<!-- Node1&#45;&gt;Node8 -->
<g id="edge8_Node000001_Node000008" class="edge">
<title>Node1&#45;&gt;Node8</title>
<g id="a_edge8_Node000001_Node000008"><a xlink:title=" ">
<path fill="none" stroke="#63b8ff" d="M473.31,-444.35C485.95,-432.91 499.23,-420.9 511.02,-410.23"/>
<polygon fill="#63b8ff" stroke="#63b8ff" points="471.3,-441.45 466.23,-450.75 476,-446.64 471.3,-441.45"/>
</a>
</g>
</g>
<!-- Node10 -->
<g id="Node000010" class="node">
<title>Node10</title>
<g id="a_Node000010"><a xlink:href="_mass___storage_2usb__scsi__block__command_8c.html" target="_top" xlink:title="The SCSI Block Command (SBC&#45;3 &amp; SPC&#45;4).">
<polygon fill="white" stroke="#666666" points="835,-300 664.5,-300 664.5,-220 835,-220 835,-300"/>
<text text-anchor="start" x="672.5" y="-286.5" font-family="Helvetica,sans-Serif" font-size="10.00">D:/Note_Database/Subject</text>
<text text-anchor="start" x="672.5" y="-274.5" font-family="Helvetica,sans-Serif" font-size="10.00">/MCETA Microcontroller</text>
<text text-anchor="start" x="672.5" y="-262.5" font-family="Helvetica,sans-Serif" font-size="10.00"> Experiment TA/files/HT32</text>
<text text-anchor="start" x="672.5" y="-250.5" font-family="Helvetica,sans-Serif" font-size="10.00">_STD_5xxxx_FWLib_V1.5.1_7084b</text>
<text text-anchor="start" x="672.5" y="-238.5" font-family="Helvetica,sans-Serif" font-size="10.00">/example/USBD/Mass_Storage/usb</text>
<text text-anchor="middle" x="749.75" y="-226.5" font-family="Helvetica,sans-Serif" font-size="10.00">_scsi_block_command.c</text>
</a>
</g>
</g>
<!-- Node1&#45;&gt;Node10 -->
<g id="edge12_Node000001_Node000010" class="edge">
<title>Node1&#45;&gt;Node10</title>
<g id="a_edge12_Node000001_Node000010"><a xlink:title=" ">
<path fill="none" stroke="#63b8ff" d="M518.28,-475.94C563.34,-465.13 615.55,-446.81 654.75,-416 693.21,-385.77 719.92,-335.32 735.02,-300.22"/>
<polygon fill="#63b8ff" stroke="#63b8ff" points="517.73,-472.48 508.77,-478.13 519.3,-479.3 517.73,-472.48"/>
</a>
</g>
</g>
<!-- Node4 -->
<g id="Node000004" class="node">
<title>Node4</title>
<g id="a_Node000004"><a xlink:href="_mass___storage_2ram__disk_8c.html" target="_top" xlink:title="The RAM Disk related function.">
<polygon fill="white" stroke="#666666" points="242.12,-294 39.38,-294 39.38,-226 242.12,-226 242.12,-294"/>
<text text-anchor="start" x="47.38" y="-280.5" font-family="Helvetica,sans-Serif" font-size="10.00">D:/Note_Database/Subject</text>
<text text-anchor="start" x="47.38" y="-268.5" font-family="Helvetica,sans-Serif" font-size="10.00">/MCETA Microcontroller</text>
<text text-anchor="start" x="47.38" y="-256.5" font-family="Helvetica,sans-Serif" font-size="10.00"> Experiment TA/files/HT32</text>
<text text-anchor="start" x="47.38" y="-244.5" font-family="Helvetica,sans-Serif" font-size="10.00">_STD_5xxxx_FWLib_V1.5.1_7084b</text>
<text text-anchor="middle" x="140.75" y="-232.5" font-family="Helvetica,sans-Serif" font-size="10.00">/example/USBD/Mass_Storage/ram_disk.c</text>
</a>
</g>
</g>
<!-- Node3&#45;&gt;Node4 -->
<g id="edge3_Node000003_Node000004" class="edge">
<title>Node3&#45;&gt;Node4</title>
<g id="a_edge3_Node000003_Node000004"><a xlink:title=" ">
<path fill="none" stroke="#63b8ff" d="M239.31,-334.92C221.61,-321.65 202.12,-307.03 185.18,-294.32"/>
<polygon fill="#63b8ff" stroke="#63b8ff" points="237.07,-337.61 247.17,-340.81 241.27,-332.01 237.07,-337.61"/>
</a>
</g>
</g>
<!-- Node3&#45;&gt;Node7 -->
<g id="edge6_Node000003_Node000007" class="edge">
<title>Node3&#45;&gt;Node7</title>
<g id="a_edge6_Node000003_Node000007"><a xlink:title=" ">
<path fill="none" stroke="#63b8ff" d="M313.06,-331.32C317.83,-321.06 322.88,-310.2 327.54,-300.16"/>
<polygon fill="#63b8ff" stroke="#63b8ff" points="309.9,-329.8 308.86,-340.35 316.25,-332.76 309.9,-329.8"/>
</a>
</g>
</g>
<!-- Node5 -->
<g id="Node000005" class="node">
<title>Node5</title>
<g id="a_Node000005"><a xlink:href="_u_s_b_d_2_mass___storage_2__ht32__project__source_8h.html" target="_top" xlink:title="The project source code setting.">
<polygon fill="white" stroke="#666666" points="536.12,-184 357.38,-184 357.38,-104 536.12,-104 536.12,-184"/>
<text text-anchor="start" x="365.38" y="-170.5" font-family="Helvetica,sans-Serif" font-size="10.00">D:/Note_Database/Subject</text>
<text text-anchor="start" x="365.38" y="-158.5" font-family="Helvetica,sans-Serif" font-size="10.00">/MCETA Microcontroller</text>
<text text-anchor="start" x="365.38" y="-146.5" font-family="Helvetica,sans-Serif" font-size="10.00"> Experiment TA/files/HT32</text>
<text text-anchor="start" x="365.38" y="-134.5" font-family="Helvetica,sans-Serif" font-size="10.00">_STD_5xxxx_FWLib_V1.5.1_7084b</text>
<text text-anchor="start" x="365.38" y="-122.5" font-family="Helvetica,sans-Serif" font-size="10.00">/example/USBD/Mass_Storage/_ht32</text>
<text text-anchor="middle" x="446.75" y="-110.5" font-family="Helvetica,sans-Serif" font-size="10.00">_project_source.h</text>
</a>
</g>
</g>
<!-- Node4&#45;&gt;Node5 -->
<g id="edge4_Node000004_Node000005" class="edge">
<title>Node4&#45;&gt;Node5</title>
<g id="a_edge4_Node000004_Node000005"><a xlink:title=" ">
<path fill="none" stroke="#63b8ff" d="M240.91,-221.68C278.34,-207.74 320.58,-192 357.01,-178.43"/>
<polygon fill="#63b8ff" stroke="#63b8ff" points="240.06,-218.27 231.91,-225.04 242.5,-224.83 240.06,-218.27"/>
</a>
</g>
</g>
<!-- Node6 -->
<g id="Node000006" class="node">
<title>Node6</title>
<g id="a_Node000006"><a xlink:href="_u_s_b_d_2_mass___storage_2main_8c.html" target="_top" xlink:title="The main program of USB Device Mass Storage example.">
<polygon fill="white" stroke="#666666" points="538.75,-68 354.75,-68 354.75,0 538.75,0 538.75,-68"/>
<text text-anchor="start" x="362.75" y="-54.5" font-family="Helvetica,sans-Serif" font-size="10.00">D:/Note_Database/Subject</text>
<text text-anchor="start" x="362.75" y="-42.5" font-family="Helvetica,sans-Serif" font-size="10.00">/MCETA Microcontroller</text>
<text text-anchor="start" x="362.75" y="-30.5" font-family="Helvetica,sans-Serif" font-size="10.00"> Experiment TA/files/HT32</text>
<text text-anchor="start" x="362.75" y="-18.5" font-family="Helvetica,sans-Serif" font-size="10.00">_STD_5xxxx_FWLib_V1.5.1_7084b</text>
<text text-anchor="middle" x="446.75" y="-6.5" font-family="Helvetica,sans-Serif" font-size="10.00">/example/USBD/Mass_Storage/main.c</text>
</a>
</g>
</g>
<!-- Node5&#45;&gt;Node6 -->
<g id="edge5_Node000005_Node000006" class="edge">
<title>Node5&#45;&gt;Node6</title>
<g id="a_edge5_Node000005_Node000006"><a xlink:title=" ">
<path fill="none" stroke="#63b8ff" d="M446.75,-92.35C446.75,-84.22 446.75,-75.99 446.75,-68.4"/>
<polygon fill="#63b8ff" stroke="#63b8ff" points="443.25,-92.19 446.75,-102.19 450.25,-92.19 443.25,-92.19"/>
</a>
</g>
</g>
<!-- Node7&#45;&gt;Node5 -->
<g id="edge7_Node000007_Node000005" class="edge">
<title>Node7&#45;&gt;Node5</title>
<g id="a_edge7_Node000007_Node000005"><a xlink:title=" ">
<path fill="none" stroke="#63b8ff" d="M388.03,-211.28C395.99,-202.3 404.23,-193 411.93,-184.3"/>
<polygon fill="#63b8ff" stroke="#63b8ff" points="385.52,-208.83 381.51,-218.63 390.76,-213.47 385.52,-208.83"/>
</a>
</g>
</g>
<!-- Node9 -->
<g id="Node000009" class="node">
<title>Node9</title>
<g id="a_Node000009"><a xlink:href="sd__disk_8c.html" target="_top" xlink:title="The SD Disk related function.">
<polygon fill="white" stroke="#666666" points="646.12,-294 449.38,-294 449.38,-226 646.12,-226 646.12,-294"/>
<text text-anchor="start" x="457.38" y="-280.5" font-family="Helvetica,sans-Serif" font-size="10.00">D:/Note_Database/Subject</text>
<text text-anchor="start" x="457.38" y="-268.5" font-family="Helvetica,sans-Serif" font-size="10.00">/MCETA Microcontroller</text>
<text text-anchor="start" x="457.38" y="-256.5" font-family="Helvetica,sans-Serif" font-size="10.00"> Experiment TA/files/HT32</text>
<text text-anchor="start" x="457.38" y="-244.5" font-family="Helvetica,sans-Serif" font-size="10.00">_STD_5xxxx_FWLib_V1.5.1_7084b</text>
<text text-anchor="middle" x="547.75" y="-232.5" font-family="Helvetica,sans-Serif" font-size="10.00">/example/USBD/Mass_Storage/sd_disk.c</text>
</a>
</g>
</g>
<!-- Node8&#45;&gt;Node9 -->
<g id="edge9_Node000008_Node000009" class="edge">
<title>Node8&#45;&gt;Node9</title>
<g id="a_edge9_Node000008_Node000009"><a xlink:title=" ">
<path fill="none" stroke="#63b8ff" d="M547.75,-330.44C547.75,-318.35 547.75,-305.47 547.75,-294.12"/>
<polygon fill="#63b8ff" stroke="#63b8ff" points="544.25,-330.21 547.75,-340.21 551.25,-330.21 544.25,-330.21"/>
</a>
</g>
</g>
<!-- Node9&#45;&gt;Node5 -->
<g id="edge10_Node000009_Node000005" class="edge">
<title>Node9&#45;&gt;Node5</title>
<g id="a_edge10_Node000009_Node000005"><a xlink:title=" ">
<path fill="none" stroke="#63b8ff" d="M510.76,-217.25C501.18,-206.44 490.9,-194.83 481.44,-184.16"/>
<polygon fill="#63b8ff" stroke="#63b8ff" points="508.01,-219.42 517.26,-224.59 513.25,-214.78 508.01,-219.42"/>
</a>
</g>
</g>
<!-- Node10&#45;&gt;Node5 -->
<g id="edge13_Node000010_Node000005" class="edge">
<title>Node10&#45;&gt;Node5</title>
<g id="a_edge13_Node000010_Node000005"><a xlink:title=" ">
<path fill="none" stroke="#63b8ff" d="M653.52,-219.57C609.81,-202.82 570.47,-188.51 536.39,-176.36"/>
<polygon fill="#63b8ff" stroke="#63b8ff" points="652.11,-222.78 662.7,-223.1 654.62,-216.24 652.11,-222.78"/>
</a>
</g>
</g>
</g>
</svg>
