<?xml version="1.0" encoding="UTF-8" standalone="no"?>
<!DOCTYPE svg PUBLIC "-//W3C//DTD SVG 1.1//EN"
 "http://www.w3.org/Graphics/SVG/1.1/DTD/svg11.dtd">
<!-- Generated by graphviz version 9.0.0 (20230911.1827)
 -->
<!-- Title: D:/Note_Database/Subject/MCETA Microcontroller Experiment TA/files/HT32_STD_5xxxx_FWLib_V1.5.1_7084b/example/USBD/Mass_Storage/usb_scsi_block_command.c Pages: 1 -->
<svg width="550pt" height="200pt"
 viewBox="0.00 0.00 550.12 200.00" xmlns="http://www.w3.org/2000/svg" xmlns:xlink="http://www.w3.org/1999/xlink">
<g id="graph0" class="graph" transform="scale(1 1) rotate(0) translate(4 196)">
<title>D:/Note_Database/Subject/MCETA Microcontroller Experiment TA/files/HT32_STD_5xxxx_FWLib_V1.5.1_7084b/example/USBD/Mass_Storage/usb_scsi_block_command.c</title>
<!-- Node1 -->
<g id="Node000001" class="node">
<title>Node1</title>
<g id="a_Node000001"><a xlink:title="The SCSI Block Command (SBC&#45;3 &amp; SPC&#45;4).">
<polygon fill="#999999" stroke="#666666" points="322.75,-192 152.25,-192 152.25,-112 322.75,-112 322.75,-192"/>
<text text-anchor="start" x="160.25" y="-178.5" font-family="Helvetica,sans-Serif" font-size="10.00">D:/Note_Database/Subject</text>
<text text-anchor="start" x="160.25" y="-166.5" font-family="Helvetica,sans-Serif" font-size="10.00">/MCETA Microcontroller</text>
<text text-anchor="start" x="160.25" y="-154.5" font-family="Helvetica,sans-Serif" font-size="10.00"> Experiment TA/files/HT32</text>
<text text-anchor="start" x="160.25" y="-142.5" font-family="Helvetica,sans-Serif" font-size="10.00">_STD_5xxxx_FWLib_V1.5.1_7084b</text>
<text text-anchor="start" x="160.25" y="-130.5" font-family="Helvetica,sans-Serif" font-size="10.00">/example/USBD/Mass_Storage/usb</text>
<text text-anchor="middle" x="237.5" y="-118.5" font-family="Helvetica,sans-Serif" font-size="10.00">_scsi_block_command.c</text>
</a>
</g>
</g>
<!-- Node2 -->
<g id="Node000002" class="node">
<title>Node2</title>
<g id="a_Node000002"><a xlink:title=" ">
<polygon fill="#e0e0e0" stroke="#999999" points="43,-76 0,-76 0,-56 43,-56 43,-76"/>
<text text-anchor="middle" x="21.5" y="-62.5" font-family="Helvetica,sans-Serif" font-size="10.00">ht32.h</text>
</a>
</g>
</g>
<!-- Node1&#45;&gt;Node2 -->
<g id="edge1_Node000001_Node000002" class="edge">
<title>Node1&#45;&gt;Node2</title>
<g id="a_edge1_Node000001_Node000002"><a xlink:title=" ">
<path fill="none" stroke="#63b8ff" d="M151.82,-117.68C117.35,-104.27 79.7,-89.63 53.77,-79.55"/>
<polygon fill="#63b8ff" stroke="#63b8ff" points="55.08,-76.3 44.49,-75.94 52.54,-82.83 55.08,-76.3"/>
</a>
</g>
</g>
<!-- Node3 -->
<g id="Node000003" class="node">
<title>Node3</title>
<g id="a_Node000003"><a xlink:title=" ">
<polygon fill="#e0e0e0" stroke="#999999" points="154.12,-76 60.88,-76 60.88,-56 154.12,-56 154.12,-76"/>
<text text-anchor="middle" x="107.5" y="-62.5" font-family="Helvetica,sans-Serif" font-size="10.00">ht32_usbd_core.h</text>
</a>
</g>
</g>
<!-- Node1&#45;&gt;Node3 -->
<g id="edge2_Node000001_Node000003" class="edge">
<title>Node1&#45;&gt;Node3</title>
<g id="a_edge2_Node000001_Node000003"><a xlink:title=" ">
<path fill="none" stroke="#63b8ff" d="M176.69,-111.71C160.63,-101.33 144.22,-90.73 131.42,-82.46"/>
<polygon fill="#63b8ff" stroke="#63b8ff" points="133.57,-79.68 123.28,-77.19 129.78,-85.56 133.57,-79.68"/>
</a>
</g>
</g>
<!-- Node4 -->
<g id="Node000004" class="node">
<title>Node4</title>
<g id="a_Node000004"><a xlink:href="_mass___storage_2usb__bulk__only__transport_8h.html" target="_top" xlink:title="The header file of Bulk Only Transport.">
<polygon fill="white" stroke="#666666" points="302.5,-76 172.5,-76 172.5,-56 302.5,-56 302.5,-76"/>
<text text-anchor="middle" x="237.5" y="-62.5" font-family="Helvetica,sans-Serif" font-size="10.00">usb_bulk_only_transport.h</text>
</a>
</g>
</g>
<!-- Node1&#45;&gt;Node4 -->
<g id="edge3_Node000001_Node000004" class="edge">
<title>Node1&#45;&gt;Node4</title>
<g id="a_edge3_Node000001_Node000004"><a xlink:title=" ">
<path fill="none" stroke="#63b8ff" d="M237.5,-111.95C237.5,-103.6 237.5,-95.09 237.5,-87.76"/>
<polygon fill="#63b8ff" stroke="#63b8ff" points="241,-87.95 237.5,-77.95 234,-87.95 241,-87.95"/>
</a>
</g>
</g>
<!-- Node6 -->
<g id="Node000006" class="node">
<title>Node6</title>
<g id="a_Node000006"><a xlink:href="_mass___storage_2usb__scsi__block__command_8h.html" target="_top" xlink:title="The header file of SCSI Block Command (SBC&#45;3 &amp; SPC&#45;4).">
<polygon fill="white" stroke="#666666" points="460.38,-76 320.62,-76 320.62,-56 460.38,-56 460.38,-76"/>
<text text-anchor="middle" x="390.5" y="-62.5" font-family="Helvetica,sans-Serif" font-size="10.00">usb_scsi_block_command.h</text>
</a>
</g>
</g>
<!-- Node1&#45;&gt;Node6 -->
<g id="edge5_Node000001_Node000006" class="edge">
<title>Node1&#45;&gt;Node6</title>
<g id="a_edge5_Node000001_Node000006"><a xlink:title=" ">
<path fill="none" stroke="#63b8ff" d="M309.07,-111.71C328.54,-101.02 348.42,-90.1 363.67,-81.73"/>
<polygon fill="#63b8ff" stroke="#63b8ff" points="365.02,-84.98 372.1,-77.1 361.65,-78.85 365.02,-84.98"/>
</a>
</g>
</g>
<!-- Node7 -->
<g id="Node000007" class="node">
<title>Node7</title>
<g id="a_Node000007"><a xlink:href="_mass___storage_2usb__scsi_8h.html" target="_top" xlink:title="The header file of SCSI Block Command (SBC&#45;3 &amp; SPC&#45;4).">
<polygon fill="white" stroke="#666666" points="542.12,-76 478.88,-76 478.88,-56 542.12,-56 542.12,-76"/>
<text text-anchor="middle" x="510.5" y="-62.5" font-family="Helvetica,sans-Serif" font-size="10.00">usb_scsi.h</text>
</a>
</g>
</g>
<!-- Node1&#45;&gt;Node7 -->
<g id="edge6_Node000001_Node000007" class="edge">
<title>Node1&#45;&gt;Node7</title>
<g id="a_edge6_Node000001_Node000007"><a xlink:title=" ">
<path fill="none" stroke="#63b8ff" d="M323.13,-124.65C371.8,-109.68 430.55,-91.6 469.13,-79.73"/>
<polygon fill="#63b8ff" stroke="#63b8ff" points="469.96,-83.14 478.49,-76.85 467.9,-76.45 469.96,-83.14"/>
</a>
</g>
</g>
<!-- Node5 -->
<g id="Node000005" class="node">
<title>Node5</title>
<g id="a_Node000005"><a xlink:title=" ">
<polygon fill="#e0e0e0" stroke="#999999" points="273.62,-20 201.38,-20 201.38,0 273.62,0 273.62,-20"/>
<text text-anchor="middle" x="237.5" y="-6.5" font-family="Helvetica,sans-Serif" font-size="10.00">ht32_board.h</text>
</a>
</g>
</g>
<!-- Node4&#45;&gt;Node5 -->
<g id="edge4_Node000004_Node000005" class="edge">
<title>Node4&#45;&gt;Node5</title>
<g id="a_edge4_Node000004_Node000005"><a xlink:title=" ">
<path fill="none" stroke="#63b8ff" d="M237.5,-55.59C237.5,-49.01 237.5,-39.96 237.5,-31.73"/>
<polygon fill="#63b8ff" stroke="#63b8ff" points="241,-31.81 237.5,-21.81 234,-31.81 241,-31.81"/>
</a>
</g>
</g>
</g>
</svg>
