<?xml version="1.0" encoding="UTF-8" standalone="no"?>
<!DOCTYPE svg PUBLIC "-//W3C//DTD SVG 1.1//EN"
 "http://www.w3.org/Graphics/SVG/1.1/DTD/svg11.dtd">
<!-- Generated by graphviz version 9.0.0 (20230911.1827)
 -->
<!-- Title: D:/Note_Database/Subject/MCETA Microcontroller Experiment TA/files/HT32_STD_5xxxx_FWLib_V1.5.1_7084b/example/USBD/Mass_Storage/ram_disk.c Pages: 1 -->
<svg width="227pt" height="244pt"
 viewBox="0.00 0.00 227.38 244.00" xmlns="http://www.w3.org/2000/svg" xmlns:xlink="http://www.w3.org/1999/xlink">
<g id="graph0" class="graph" transform="scale(1 1) rotate(0) translate(4 240)">
<title>D:/Note_Database/Subject/MCETA Microcontroller Experiment TA/files/HT32_STD_5xxxx_FWLib_V1.5.1_7084b/example/USBD/Mass_Storage/ram_disk.c</title>
<!-- Node1 -->
<g id="Node000001" class="node">
<title>Node1</title>
<g id="a_Node000001"><a xlink:title="The RAM Disk related function.">
<polygon fill="#999999" stroke="#666666" points="202.75,-236 0,-236 0,-168 202.75,-168 202.75,-236"/>
<text text-anchor="start" x="8" y="-222.5" font-family="Helvetica,sans-Serif" font-size="10.00">D:/Note_Database/Subject</text>
<text text-anchor="start" x="8" y="-210.5" font-family="Helvetica,sans-Serif" font-size="10.00">/MCETA Microcontroller</text>
<text text-anchor="start" x="8" y="-198.5" font-family="Helvetica,sans-Serif" font-size="10.00"> Experiment TA/files/HT32</text>
<text text-anchor="start" x="8" y="-186.5" font-family="Helvetica,sans-Serif" font-size="10.00">_STD_5xxxx_FWLib_V1.5.1_7084b</text>
<text text-anchor="middle" x="101.38" y="-174.5" font-family="Helvetica,sans-Serif" font-size="10.00">/example/USBD/Mass_Storage/ram_disk.c</text>
</a>
</g>
</g>
<!-- Node2 -->
<g id="Node000002" class="node">
<title>Node2</title>
<g id="a_Node000002"><a xlink:href="_mass___storage_2ram__disk_8h.html" target="_top" xlink:title="The header file of RAM Disk.">
<polygon fill="white" stroke="#666666" points="133.38,-132 69.38,-132 69.38,-112 133.38,-112 133.38,-132"/>
<text text-anchor="middle" x="101.38" y="-118.5" font-family="Helvetica,sans-Serif" font-size="10.00">ram_disk.h</text>
</a>
</g>
</g>
<!-- Node1&#45;&gt;Node2 -->
<g id="edge1_Node000001_Node000002" class="edge">
<title>Node1&#45;&gt;Node2</title>
<g id="a_edge1_Node000001_Node000002"><a xlink:title=" ">
<path fill="none" stroke="#63b8ff" d="M101.38,-167.92C101.38,-159.72 101.38,-151.17 101.38,-143.75"/>
<polygon fill="#63b8ff" stroke="#63b8ff" points="104.88,-143.79 101.38,-133.79 97.88,-143.79 104.88,-143.79"/>
</a>
</g>
</g>
<!-- Node3 -->
<g id="Node000003" class="node">
<title>Node3</title>
<g id="a_Node000003"><a xlink:title=" ">
<polygon fill="#e0e0e0" stroke="#999999" points="70.88,-76 27.88,-76 27.88,-56 70.88,-56 70.88,-76"/>
<text text-anchor="middle" x="49.38" y="-62.5" font-family="Helvetica,sans-Serif" font-size="10.00">ht32.h</text>
</a>
</g>
</g>
<!-- Node2&#45;&gt;Node3 -->
<g id="edge2_Node000002_Node000003" class="edge">
<title>Node2&#45;&gt;Node3</title>
<g id="a_edge2_Node000002_Node000003"><a xlink:title=" ">
<path fill="none" stroke="#63b8ff" d="M92.32,-111.59C85.16,-104.16 74.97,-93.58 66.31,-84.58"/>
<polygon fill="#63b8ff" stroke="#63b8ff" points="68.84,-82.16 59.38,-77.39 63.79,-87.02 68.84,-82.16"/>
</a>
</g>
</g>
<!-- Node4 -->
<g id="Node000004" class="node">
<title>Node4</title>
<g id="a_Node000004"><a xlink:href="_mass___storage_2usb__bulk__only__transport_8h.html" target="_top" xlink:title="The header file of Bulk Only Transport.">
<polygon fill="white" stroke="#666666" points="219.38,-76 89.38,-76 89.38,-56 219.38,-56 219.38,-76"/>
<text text-anchor="middle" x="154.38" y="-62.5" font-family="Helvetica,sans-Serif" font-size="10.00">usb_bulk_only_transport.h</text>
</a>
</g>
</g>
<!-- Node2&#45;&gt;Node4 -->
<g id="edge3_Node000002_Node000004" class="edge">
<title>Node2&#45;&gt;Node4</title>
<g id="a_edge3_Node000002_Node000004"><a xlink:title=" ">
<path fill="none" stroke="#63b8ff" d="M110.61,-111.59C117.98,-104.08 128.51,-93.35 137.39,-84.3"/>
<polygon fill="#63b8ff" stroke="#63b8ff" points="139.68,-86.97 144.19,-77.38 134.69,-82.06 139.68,-86.97"/>
</a>
</g>
</g>
<!-- Node5 -->
<g id="Node000005" class="node">
<title>Node5</title>
<g id="a_Node000005"><a xlink:title=" ">
<polygon fill="#e0e0e0" stroke="#999999" points="190.5,-20 118.25,-20 118.25,0 190.5,0 190.5,-20"/>
<text text-anchor="middle" x="154.38" y="-6.5" font-family="Helvetica,sans-Serif" font-size="10.00">ht32_board.h</text>
</a>
</g>
</g>
<!-- Node4&#45;&gt;Node5 -->
<g id="edge4_Node000004_Node000005" class="edge">
<title>Node4&#45;&gt;Node5</title>
<g id="a_edge4_Node000004_Node000005"><a xlink:title=" ">
<path fill="none" stroke="#63b8ff" d="M154.38,-55.59C154.38,-49.01 154.38,-39.96 154.38,-31.73"/>
<polygon fill="#63b8ff" stroke="#63b8ff" points="157.88,-31.81 154.38,-21.81 150.88,-31.81 157.88,-31.81"/>
</a>
</g>
</g>
</g>
</svg>
