<?xml version="1.0" encoding="UTF-8" standalone="no"?>
<!DOCTYPE svg PUBLIC "-//W3C//DTD SVG 1.1//EN"
 "http://www.w3.org/Graphics/SVG/1.1/DTD/svg11.dtd">
<!-- Generated by graphviz version 9.0.0 (20230911.1827)
 -->
<!-- Title: D:/Note_Database/Subject/MCETA Microcontroller Experiment TA/files/HT32_STD_5xxxx_FWLib_V1.5.1_7084b/example/Mono_LCD/LCD_module/main.c Pages: 1 -->
<svg width="305pt" height="300pt"
 viewBox="0.00 0.00 305.36 300.00" xmlns="http://www.w3.org/2000/svg" xmlns:xlink="http://www.w3.org/1999/xlink">
<g id="graph0" class="graph" transform="scale(1 1) rotate(0) translate(4 296)">
<title>D:/Note_Database/Subject/MCETA Microcontroller Experiment TA/files/HT32_STD_5xxxx_FWLib_V1.5.1_7084b/example/Mono_LCD/LCD_module/main.c</title>
<!-- Node1 -->
<g id="Node000001" class="node">
<title>Node1</title>
<g id="a_Node000001"><a xlink:title="Main program.">
<polygon fill="#999999" stroke="#666666" points="208.99,-292 11.49,-292 11.49,-224 208.99,-224 208.99,-292"/>
<text text-anchor="start" x="19.49" y="-278.5" font-family="Helvetica,sans-Serif" font-size="10.00">D:/Note_Database/Subject</text>
<text text-anchor="start" x="19.49" y="-266.5" font-family="Helvetica,sans-Serif" font-size="10.00">/MCETA Microcontroller</text>
<text text-anchor="start" x="19.49" y="-254.5" font-family="Helvetica,sans-Serif" font-size="10.00"> Experiment TA/files/HT32</text>
<text text-anchor="start" x="19.49" y="-242.5" font-family="Helvetica,sans-Serif" font-size="10.00">_STD_5xxxx_FWLib_V1.5.1_7084b</text>
<text text-anchor="middle" x="110.24" y="-230.5" font-family="Helvetica,sans-Serif" font-size="10.00">/example/Mono_LCD/LCD_module/main.c</text>
</a>
</g>
</g>
<!-- Node2 -->
<g id="Node000002" class="node">
<title>Node2</title>
<g id="a_Node000002"><a xlink:title=" ">
<polygon fill="#e0e0e0" stroke="#999999" points="91.74,-20 48.74,-20 48.74,0 91.74,0 91.74,-20"/>
<text text-anchor="middle" x="70.24" y="-6.5" font-family="Helvetica,sans-Serif" font-size="10.00">ht32.h</text>
</a>
</g>
</g>
<!-- Node1&#45;&gt;Node2 -->
<g id="edge1_Node000001_Node000002" class="edge">
<title>Node1&#45;&gt;Node2</title>
<g id="a_edge1_Node000001_Node000002"><a xlink:title=" ">
<path fill="none" stroke="#63b8ff" d="M41.57,-223.61C28.58,-214 16.72,-202.18 9.24,-188 -19.76,-133.06 28.54,-61.49 54.89,-28.75"/>
<polygon fill="#63b8ff" stroke="#63b8ff" points="57.29,-31.34 60.98,-21.41 51.9,-26.87 57.29,-31.34"/>
</a>
</g>
</g>
<!-- Node3 -->
<g id="Node000003" class="node">
<title>Node3</title>
<g id="a_Node000003"><a xlink:href="_mono___l_c_d_2_l_c_d__module_2ht32__board__config_8h.html" target="_top" xlink:title="The header file of board configuration.">
<polygon fill="white" stroke="#666666" points="121.74,-188 18.74,-188 18.74,-168 121.74,-168 121.74,-188"/>
<text text-anchor="middle" x="70.24" y="-174.5" font-family="Helvetica,sans-Serif" font-size="10.00">ht32_board_config.h</text>
</a>
</g>
</g>
<!-- Node1&#45;&gt;Node3 -->
<g id="edge2_Node000001_Node000003" class="edge">
<title>Node1&#45;&gt;Node3</title>
<g id="a_edge2_Node000001_Node000003"><a xlink:title=" ">
<path fill="none" stroke="#63b8ff" d="M93.27,-223.92C88.81,-215.22 84.14,-206.11 80.18,-198.39"/>
<polygon fill="#63b8ff" stroke="#63b8ff" points="83.36,-196.93 75.69,-189.62 77.14,-200.12 83.36,-196.93"/>
</a>
</g>
</g>
<!-- Node4 -->
<g id="Node000004" class="node">
<title>Node4</title>
<g id="a_Node000004"><a xlink:href="_mono___l_c_d_2_l_c_d__module_2__ht32__project__source_8h.html" target="_top" xlink:title="The project source code setting.">
<polygon fill="white" stroke="#666666" points="295.86,-188 178.61,-188 178.61,-168 295.86,-168 295.86,-188"/>
<text text-anchor="middle" x="237.24" y="-174.5" font-family="Helvetica,sans-Serif" font-size="10.00">_ht32_project_source.h</text>
</a>
</g>
</g>
<!-- Node1&#45;&gt;Node4 -->
<g id="edge3_Node000001_Node000004" class="edge">
<title>Node1&#45;&gt;Node4</title>
<g id="a_edge3_Node000001_Node000004"><a xlink:title=" ">
<path fill="none" stroke="#63b8ff" d="M164.47,-223.69C181.12,-213.47 198.64,-202.7 212.32,-194.3"/>
<polygon fill="#63b8ff" stroke="#63b8ff" points="213.97,-197.4 220.66,-189.18 210.31,-191.43 213.97,-197.4"/>
</a>
</g>
</g>
<!-- Node8 -->
<g id="Node000008" class="node">
<title>Node8</title>
<g id="a_Node000008"><a xlink:href="lcd___e_s_k32___a3_a31_8h.html" target="_top" xlink:title="The header file of LCD_module.c.">
<polygon fill="white" stroke="#666666" points="188.99,-76 81.49,-76 81.49,-56 188.99,-56 188.99,-76"/>
<text text-anchor="middle" x="135.24" y="-62.5" font-family="Helvetica,sans-Serif" font-size="10.00">lcd_ESK32_A3A31.h</text>
</a>
</g>
</g>
<!-- Node1&#45;&gt;Node8 -->
<g id="edge9_Node000001_Node000008" class="edge">
<title>Node1&#45;&gt;Node8</title>
<g id="a_edge9_Node000001_Node000008"><a xlink:title=" ">
<path fill="none" stroke="#63b8ff" d="M121.65,-223.68C125.02,-212.47 128.31,-199.82 130.24,-188 135.92,-153.17 136.3,-112 135.89,-87.78"/>
<polygon fill="#63b8ff" stroke="#63b8ff" points="139.39,-87.92 135.65,-78 132.4,-88.09 139.39,-87.92"/>
</a>
</g>
</g>
<!-- Node5 -->
<g id="Node000005" class="node">
<title>Node5</title>
<g id="a_Node000005"><a xlink:href="lcd___e_s_k32___a3_a31_8c.html" target="_top" xlink:title="The file provides firmware functions to LCD.">
<polygon fill="white" stroke="#666666" points="290.99,-132 183.49,-132 183.49,-112 290.99,-112 290.99,-132"/>
<text text-anchor="middle" x="237.24" y="-118.5" font-family="Helvetica,sans-Serif" font-size="10.00">lcd_ESK32_A3A31.c</text>
</a>
</g>
</g>
<!-- Node4&#45;&gt;Node5 -->
<g id="edge4_Node000004_Node000005" class="edge">
<title>Node4&#45;&gt;Node5</title>
<g id="a_edge4_Node000004_Node000005"><a xlink:title=" ">
<path fill="none" stroke="#63b8ff" d="M237.24,-167.59C237.24,-161.01 237.24,-151.96 237.24,-143.73"/>
<polygon fill="#63b8ff" stroke="#63b8ff" points="240.74,-143.81 237.24,-133.81 233.74,-143.81 240.74,-143.81"/>
</a>
</g>
</g>
<!-- Node6 -->
<g id="Node000006" class="node">
<title>Node6</title>
<g id="a_Node000006"><a xlink:href="ht32__lcd__board_8h.html" target="_top" xlink:title="HT32 target board definition file.">
<polygon fill="white" stroke="#666666" points="297.36,-76 207.11,-76 207.11,-56 297.36,-56 297.36,-76"/>
<text text-anchor="middle" x="252.24" y="-62.5" font-family="Helvetica,sans-Serif" font-size="10.00">ht32_lcd_board.h</text>
</a>
</g>
</g>
<!-- Node5&#45;&gt;Node6 -->
<g id="edge5_Node000005_Node000006" class="edge">
<title>Node5&#45;&gt;Node6</title>
<g id="a_edge5_Node000005_Node000006"><a xlink:title=" ">
<path fill="none" stroke="#63b8ff" d="M239.85,-111.59C241.72,-104.86 244.31,-95.53 246.64,-87.15"/>
<polygon fill="#63b8ff" stroke="#63b8ff" points="249.95,-88.33 249.25,-77.76 243.2,-86.46 249.95,-88.33"/>
</a>
</g>
</g>
<!-- Node5&#45;&gt;Node8 -->
<g id="edge7_Node000005_Node000008" class="edge">
<title>Node5&#45;&gt;Node8</title>
<g id="a_edge7_Node000005_Node000008"><a xlink:title=" ">
<path fill="none" stroke="#63b8ff" d="M219.47,-111.59C203.92,-103.36 181.06,-91.26 163.08,-81.74"/>
<polygon fill="#63b8ff" stroke="#63b8ff" points="164.96,-78.77 154.48,-77.19 161.68,-84.96 164.96,-78.77"/>
</a>
</g>
</g>
<!-- Node7 -->
<g id="Node000007" class="node">
<title>Node7</title>
<g id="a_Node000007"><a xlink:title=" ">
<polygon fill="#e0e0e0" stroke="#999999" points="289.11,-20 215.36,-20 215.36,0 289.11,0 289.11,-20"/>
<text text-anchor="middle" x="252.24" y="-6.5" font-family="Helvetica,sans-Serif" font-size="10.00">ht32_config.h</text>
</a>
</g>
</g>
<!-- Node6&#45;&gt;Node7 -->
<g id="edge6_Node000006_Node000007" class="edge">
<title>Node6&#45;&gt;Node7</title>
<g id="a_edge6_Node000006_Node000007"><a xlink:title=" ">
<path fill="none" stroke="#63b8ff" d="M252.24,-55.59C252.24,-49.01 252.24,-39.96 252.24,-31.73"/>
<polygon fill="#63b8ff" stroke="#63b8ff" points="255.74,-31.81 252.24,-21.81 248.74,-31.81 255.74,-31.81"/>
</a>
</g>
</g>
<!-- Node8&#45;&gt;Node2 -->
<g id="edge8_Node000008_Node000002" class="edge">
<title>Node8&#45;&gt;Node2</title>
<g id="a_edge8_Node000008_Node000002"><a xlink:title=" ">
<path fill="none" stroke="#63b8ff" d="M123.92,-55.59C114.6,-47.85 101.16,-36.69 90.06,-27.47"/>
<polygon fill="#63b8ff" stroke="#63b8ff" points="92.52,-24.96 82.59,-21.27 88.05,-30.35 92.52,-24.96"/>
</a>
</g>
</g>
</g>
</svg>
