<?xml version="1.0" encoding="UTF-8" standalone="no"?>
<!DOCTYPE svg PUBLIC "-//W3C//DTD SVG 1.1//EN"
 "http://www.w3.org/Graphics/SVG/1.1/DTD/svg11.dtd">
<!-- Generated by graphviz version 9.0.0 (20230911.1827)
 -->
<!-- Title: D:/Note_Database/Subject/MCETA Microcontroller Experiment TA/files/HT32_STD_5xxxx_FWLib_V1.5.1_7084b/example/PWRCU/PowerDown_RTC/ht32f5xxxx_01_it.c Pages: 1 -->
<svg width="182pt" height="144pt"
 viewBox="0.00 0.00 181.50 144.00" xmlns="http://www.w3.org/2000/svg" xmlns:xlink="http://www.w3.org/1999/xlink">
<g id="graph0" class="graph" transform="scale(1 1) rotate(0) translate(4 140)">
<title>D:/Note_Database/Subject/MCETA Microcontroller Experiment TA/files/HT32_STD_5xxxx_FWLib_V1.5.1_7084b/example/PWRCU/PowerDown_RTC/ht32f5xxxx_01_it.c</title>
<!-- Node1 -->
<g id="Node000001" class="node">
<title>Node1</title>
<g id="a_Node000001"><a xlink:title="This file provides all interrupt service routine.">
<polygon fill="#999999" stroke="#666666" points="173.5,-136 0,-136 0,-56 173.5,-56 173.5,-136"/>
<text text-anchor="start" x="8" y="-122.5" font-family="Helvetica,sans-Serif" font-size="10.00">D:/Note_Database/Subject</text>
<text text-anchor="start" x="8" y="-110.5" font-family="Helvetica,sans-Serif" font-size="10.00">/MCETA Microcontroller</text>
<text text-anchor="start" x="8" y="-98.5" font-family="Helvetica,sans-Serif" font-size="10.00"> Experiment TA/files/HT32</text>
<text text-anchor="start" x="8" y="-86.5" font-family="Helvetica,sans-Serif" font-size="10.00">_STD_5xxxx_FWLib_V1.5.1_7084b</text>
<text text-anchor="start" x="8" y="-74.5" font-family="Helvetica,sans-Serif" font-size="10.00">/example/PWRCU/PowerDown_RTC</text>
<text text-anchor="middle" x="86.75" y="-62.5" font-family="Helvetica,sans-Serif" font-size="10.00">/ht32f5xxxx_01_it.c</text>
</a>
</g>
</g>
<!-- Node2 -->
<g id="Node000002" class="node">
<title>Node2</title>
<g id="a_Node000002"><a xlink:title=" ">
<polygon fill="#e0e0e0" stroke="#999999" points="70.25,-20 27.25,-20 27.25,0 70.25,0 70.25,-20"/>
<text text-anchor="middle" x="48.75" y="-6.5" font-family="Helvetica,sans-Serif" font-size="10.00">ht32.h</text>
</a>
</g>
</g>
<!-- Node1&#45;&gt;Node2 -->
<g id="edge1_Node000001_Node000002" class="edge">
<title>Node1&#45;&gt;Node2</title>
<g id="a_edge1_Node000001_Node000002"><a xlink:title=" ">
<path fill="none" stroke="#63b8ff" d="M69.08,-55.95C65.12,-47.19 61.08,-38.25 57.65,-30.68"/>
<polygon fill="#63b8ff" stroke="#63b8ff" points="60.95,-29.48 53.64,-21.82 54.58,-32.37 60.95,-29.48"/>
</a>
</g>
</g>
<!-- Node3 -->
<g id="Node000003" class="node">
<title>Node3</title>
<g id="a_Node000003"><a xlink:title=" ">
<polygon fill="#e0e0e0" stroke="#999999" points="160.88,-20 88.62,-20 88.62,0 160.88,0 160.88,-20"/>
<text text-anchor="middle" x="124.75" y="-6.5" font-family="Helvetica,sans-Serif" font-size="10.00">ht32_board.h</text>
</a>
</g>
</g>
<!-- Node1&#45;&gt;Node3 -->
<g id="edge2_Node000001_Node000003" class="edge">
<title>Node1&#45;&gt;Node3</title>
<g id="a_edge2_Node000001_Node000003"><a xlink:title=" ">
<path fill="none" stroke="#63b8ff" d="M104.42,-55.95C108.38,-47.19 112.42,-38.25 115.85,-30.68"/>
<polygon fill="#63b8ff" stroke="#63b8ff" points="118.92,-32.37 119.86,-21.82 112.55,-29.48 118.92,-32.37"/>
</a>
</g>
</g>
</g>
</svg>
