<?xml version="1.0" encoding="UTF-8" standalone="no"?>
<!DOCTYPE svg PUBLIC "-//W3C//DTD SVG 1.1//EN"
 "http://www.w3.org/Graphics/SVG/1.1/DTD/svg11.dtd">
<!-- Generated by graphviz version 9.0.0 (20230911.1827)
 -->
<!-- Title: D:/Note_Database/Subject/MCETA Microcontroller Experiment TA/files/HT32_STD_5xxxx_FWLib_V1.5.1_7084b/example/PWRCU/PowerDown_WAKEUPPin/main.c Pages: 1 -->
<svg width="253pt" height="132pt"
 viewBox="0.00 0.00 252.75 132.00" xmlns="http://www.w3.org/2000/svg" xmlns:xlink="http://www.w3.org/1999/xlink">
<g id="graph0" class="graph" transform="scale(1 1) rotate(0) translate(4 128)">
<title>D:/Note_Database/Subject/MCETA Microcontroller Experiment TA/files/HT32_STD_5xxxx_FWLib_V1.5.1_7084b/example/PWRCU/PowerDown_WAKEUPPin/main.c</title>
<!-- Node1 -->
<g id="Node000001" class="node">
<title>Node1</title>
<g id="a_Node000001"><a xlink:title="Main program.">
<polygon fill="#999999" stroke="#666666" points="244.75,-124 0,-124 0,-56 244.75,-56 244.75,-124"/>
<text text-anchor="start" x="8" y="-110.5" font-family="Helvetica,sans-Serif" font-size="10.00">D:/Note_Database/Subject</text>
<text text-anchor="start" x="8" y="-98.5" font-family="Helvetica,sans-Serif" font-size="10.00">/MCETA Microcontroller</text>
<text text-anchor="start" x="8" y="-86.5" font-family="Helvetica,sans-Serif" font-size="10.00"> Experiment TA/files/HT32</text>
<text text-anchor="start" x="8" y="-74.5" font-family="Helvetica,sans-Serif" font-size="10.00">_STD_5xxxx_FWLib_V1.5.1_7084b</text>
<text text-anchor="middle" x="122.38" y="-62.5" font-family="Helvetica,sans-Serif" font-size="10.00">/example/PWRCU/PowerDown_WAKEUPPin/main.c</text>
</a>
</g>
</g>
<!-- Node2 -->
<g id="Node000002" class="node">
<title>Node2</title>
<g id="a_Node000002"><a xlink:title=" ">
<polygon fill="#e0e0e0" stroke="#999999" points="105.88,-20 62.88,-20 62.88,0 105.88,0 105.88,-20"/>
<text text-anchor="middle" x="84.38" y="-6.5" font-family="Helvetica,sans-Serif" font-size="10.00">ht32.h</text>
</a>
</g>
</g>
<!-- Node1&#45;&gt;Node2 -->
<g id="edge1_Node000001_Node000002" class="edge">
<title>Node1&#45;&gt;Node2</title>
<g id="a_edge1_Node000001_Node000002"><a xlink:title=" ">
<path fill="none" stroke="#63b8ff" d="M106.26,-55.92C102.02,-47.22 97.58,-38.11 93.82,-30.39"/>
<polygon fill="#63b8ff" stroke="#63b8ff" points="97.08,-29.1 89.56,-21.64 90.79,-32.16 97.08,-29.1"/>
</a>
</g>
</g>
<!-- Node3 -->
<g id="Node000003" class="node">
<title>Node3</title>
<g id="a_Node000003"><a xlink:title=" ">
<polygon fill="#e0e0e0" stroke="#999999" points="196.5,-20 124.25,-20 124.25,0 196.5,0 196.5,-20"/>
<text text-anchor="middle" x="160.38" y="-6.5" font-family="Helvetica,sans-Serif" font-size="10.00">ht32_board.h</text>
</a>
</g>
</g>
<!-- Node1&#45;&gt;Node3 -->
<g id="edge2_Node000001_Node000003" class="edge">
<title>Node1&#45;&gt;Node3</title>
<g id="a_edge2_Node000001_Node000003"><a xlink:title=" ">
<path fill="none" stroke="#63b8ff" d="M138.49,-55.92C142.73,-47.22 147.17,-38.11 150.93,-30.39"/>
<polygon fill="#63b8ff" stroke="#63b8ff" points="153.96,-32.16 155.19,-21.64 147.67,-29.1 153.96,-32.16"/>
</a>
</g>
</g>
</g>
</svg>
