<?xml version="1.0" encoding="UTF-8" standalone="no"?>
<!DOCTYPE svg PUBLIC "-//W3C//DTD SVG 1.1//EN"
 "http://www.w3.org/Graphics/SVG/1.1/DTD/svg11.dtd">
<!-- Generated by graphviz version 9.0.0 (20230911.1827)
 -->
<!-- Title: D:/Note_Database/Subject/MCETA Microcontroller Experiment TA/files/HT32_STD_5xxxx_FWLib_V1.5.1_7084b/example/PWRCU/DeepSleepMode1/main.c Pages: 1 -->
<svg width="269pt" height="188pt"
 viewBox="0.00 0.00 269.12 188.00" xmlns="http://www.w3.org/2000/svg" xmlns:xlink="http://www.w3.org/1999/xlink">
<g id="graph0" class="graph" transform="scale(1 1) rotate(0) translate(4 184)">
<title>D:/Note_Database/Subject/MCETA Microcontroller Experiment TA/files/HT32_STD_5xxxx_FWLib_V1.5.1_7084b/example/PWRCU/DeepSleepMode1/main.c</title>
<!-- Node1 -->
<g id="Node000001" class="node">
<title>Node1</title>
<g id="a_Node000001"><a xlink:title="Main program.">
<polygon fill="#999999" stroke="#666666" points="207.25,-180 0,-180 0,-112 207.25,-112 207.25,-180"/>
<text text-anchor="start" x="8" y="-166.5" font-family="Helvetica,sans-Serif" font-size="10.00">D:/Note_Database/Subject</text>
<text text-anchor="start" x="8" y="-154.5" font-family="Helvetica,sans-Serif" font-size="10.00">/MCETA Microcontroller</text>
<text text-anchor="start" x="8" y="-142.5" font-family="Helvetica,sans-Serif" font-size="10.00"> Experiment TA/files/HT32</text>
<text text-anchor="start" x="8" y="-130.5" font-family="Helvetica,sans-Serif" font-size="10.00">_STD_5xxxx_FWLib_V1.5.1_7084b</text>
<text text-anchor="middle" x="103.63" y="-118.5" font-family="Helvetica,sans-Serif" font-size="10.00">/example/PWRCU/DeepSleepMode1/main.c</text>
</a>
</g>
</g>
<!-- Node2 -->
<g id="Node000002" class="node">
<title>Node2</title>
<g id="a_Node000002"><a xlink:title=" ">
<polygon fill="#e0e0e0" stroke="#999999" points="146.12,-20 103.13,-20 103.13,0 146.12,0 146.12,-20"/>
<text text-anchor="middle" x="124.63" y="-6.5" font-family="Helvetica,sans-Serif" font-size="10.00">ht32.h</text>
</a>
</g>
</g>
<!-- Node1&#45;&gt;Node2 -->
<g id="edge1_Node000001_Node000002" class="edge">
<title>Node1&#45;&gt;Node2</title>
<g id="a_edge1_Node000001_Node000002"><a xlink:title=" ">
<path fill="none" stroke="#63b8ff" d="M70.8,-111.89C58.2,-95.07 48.92,-74.37 58.63,-56 65.94,-42.16 79.63,-31.78 92.65,-24.5"/>
<polygon fill="#63b8ff" stroke="#63b8ff" points="94.15,-27.66 101.47,-20 90.97,-21.43 94.15,-27.66"/>
</a>
</g>
</g>
<!-- Node3 -->
<g id="Node000003" class="node">
<title>Node3</title>
<g id="a_Node000003"><a xlink:title=" ">
<polygon fill="#e0e0e0" stroke="#999999" points="139.75,-76 67.5,-76 67.5,-56 139.75,-56 139.75,-76"/>
<text text-anchor="middle" x="103.63" y="-62.5" font-family="Helvetica,sans-Serif" font-size="10.00">ht32_board.h</text>
</a>
</g>
</g>
<!-- Node1&#45;&gt;Node3 -->
<g id="edge2_Node000001_Node000003" class="edge">
<title>Node1&#45;&gt;Node3</title>
<g id="a_edge2_Node000001_Node000003"><a xlink:title=" ">
<path fill="none" stroke="#63b8ff" d="M103.63,-111.92C103.63,-103.72 103.63,-95.17 103.63,-87.75"/>
<polygon fill="#63b8ff" stroke="#63b8ff" points="107.13,-87.79 103.63,-77.79 100.13,-87.79 107.13,-87.79"/>
</a>
</g>
</g>
<!-- Node4 -->
<g id="Node000004" class="node">
<title>Node4</title>
<g id="a_Node000004"><a xlink:href="_p_w_r_c_u_2_deep_sleep_mode1_2ht32__board__config_8h.html" target="_top" xlink:title="The header file of board configuration.">
<polygon fill="white" stroke="#666666" points="261.12,-76 158.12,-76 158.12,-56 261.12,-56 261.12,-76"/>
<text text-anchor="middle" x="209.62" y="-62.5" font-family="Helvetica,sans-Serif" font-size="10.00">ht32_board_config.h</text>
</a>
</g>
</g>
<!-- Node1&#45;&gt;Node4 -->
<g id="edge3_Node000001_Node000004" class="edge">
<title>Node1&#45;&gt;Node4</title>
<g id="a_edge3_Node000001_Node000004"><a xlink:title=" ">
<path fill="none" stroke="#63b8ff" d="M148.89,-111.69C162.46,-101.7 176.74,-91.2 188.03,-82.89"/>
<polygon fill="#63b8ff" stroke="#63b8ff" points="189.9,-85.86 195.88,-77.11 185.75,-80.22 189.9,-85.86"/>
</a>
</g>
</g>
<!-- Node4&#45;&gt;Node2 -->
<g id="edge4_Node000004_Node000002" class="edge">
<title>Node4&#45;&gt;Node2</title>
<g id="a_edge4_Node000004_Node000002"><a xlink:title=" ">
<path fill="none" stroke="#63b8ff" d="M194.82,-55.59C182.22,-47.59 163.87,-35.93 149.09,-26.54"/>
<polygon fill="#63b8ff" stroke="#63b8ff" points="151.14,-23.7 140.82,-21.29 147.39,-29.61 151.14,-23.7"/>
</a>
</g>
</g>
</g>
</svg>
