<?xml version="1.0" encoding="UTF-8" standalone="no"?>
<!DOCTYPE svg PUBLIC "-//W3C//DTD SVG 1.1//EN"
 "http://www.w3.org/Graphics/SVG/1.1/DTD/svg11.dtd">
<!-- Generated by graphviz version 9.0.0 (20230911.1827)
 -->
<!-- Title: D:/Note_Database/Subject/MCETA Microcontroller Experiment TA/files/HT32_STD_5xxxx_FWLib_V1.5.1_7084b/example/SYSTICK/DelayMicrosecond/main.c Pages: 1 -->
<svg width="273pt" height="132pt"
 viewBox="0.00 0.00 273.25 132.00" xmlns="http://www.w3.org/2000/svg" xmlns:xlink="http://www.w3.org/1999/xlink">
<g id="graph0" class="graph" transform="scale(1 1) rotate(0) translate(4 128)">
<title>D:/Note_Database/Subject/MCETA Microcontroller Experiment TA/files/HT32_STD_5xxxx_FWLib_V1.5.1_7084b/example/SYSTICK/DelayMicrosecond/main.c</title>
<!-- Node1 -->
<g id="Node000001" class="node">
<title>Node1</title>
<g id="a_Node000001"><a xlink:title="Main program.">
<polygon fill="#999999" stroke="#666666" points="215.5,-124 0,-124 0,-56 215.5,-56 215.5,-124"/>
<text text-anchor="start" x="8" y="-110.5" font-family="Helvetica,sans-Serif" font-size="10.00">D:/Note_Database/Subject</text>
<text text-anchor="start" x="8" y="-98.5" font-family="Helvetica,sans-Serif" font-size="10.00">/MCETA Microcontroller</text>
<text text-anchor="start" x="8" y="-86.5" font-family="Helvetica,sans-Serif" font-size="10.00"> Experiment TA/files/HT32</text>
<text text-anchor="start" x="8" y="-74.5" font-family="Helvetica,sans-Serif" font-size="10.00">_STD_5xxxx_FWLib_V1.5.1_7084b</text>
<text text-anchor="middle" x="107.75" y="-62.5" font-family="Helvetica,sans-Serif" font-size="10.00">/example/SYSTICK/DelayMicrosecond/main.c</text>
</a>
</g>
</g>
<!-- Node2 -->
<g id="Node000002" class="node">
<title>Node2</title>
<g id="a_Node000002"><a xlink:title=" ">
<polygon fill="#e0e0e0" stroke="#999999" points="53.25,-20 10.25,-20 10.25,0 53.25,0 53.25,-20"/>
<text text-anchor="middle" x="31.75" y="-6.5" font-family="Helvetica,sans-Serif" font-size="10.00">ht32.h</text>
</a>
</g>
</g>
<!-- Node1&#45;&gt;Node2 -->
<g id="edge1_Node000001_Node000002" class="edge">
<title>Node1&#45;&gt;Node2</title>
<g id="a_edge1_Node000001_Node000002"><a xlink:title=" ">
<path fill="none" stroke="#63b8ff" d="M75.52,-55.92C66.25,-46.41 56.51,-36.41 48.58,-28.27"/>
<polygon fill="#63b8ff" stroke="#63b8ff" points="51.33,-26.08 41.85,-21.36 46.32,-30.97 51.33,-26.08"/>
</a>
</g>
</g>
<!-- Node3 -->
<g id="Node000003" class="node">
<title>Node3</title>
<g id="a_Node000003"><a xlink:title=" ">
<polygon fill="#e0e0e0" stroke="#999999" points="143.88,-20 71.62,-20 71.62,0 143.88,0 143.88,-20"/>
<text text-anchor="middle" x="107.75" y="-6.5" font-family="Helvetica,sans-Serif" font-size="10.00">ht32_board.h</text>
</a>
</g>
</g>
<!-- Node1&#45;&gt;Node3 -->
<g id="edge2_Node000001_Node000003" class="edge">
<title>Node1&#45;&gt;Node3</title>
<g id="a_edge2_Node000001_Node000003"><a xlink:title=" ">
<path fill="none" stroke="#63b8ff" d="M107.75,-55.92C107.75,-47.72 107.75,-39.17 107.75,-31.75"/>
<polygon fill="#63b8ff" stroke="#63b8ff" points="111.25,-31.79 107.75,-21.79 104.25,-31.79 111.25,-31.79"/>
</a>
</g>
</g>
<!-- Node4 -->
<g id="Node000004" class="node">
<title>Node4</title>
<g id="a_Node000004"><a xlink:href="_s_y_s_t_i_c_k_2_delay_microsecond_2ht32__board__config_8h.html" target="_top" xlink:title=" ">
<polygon fill="white" stroke="#666666" points="265.25,-20 162.25,-20 162.25,0 265.25,0 265.25,-20"/>
<text text-anchor="middle" x="213.75" y="-6.5" font-family="Helvetica,sans-Serif" font-size="10.00">ht32_board_config.h</text>
</a>
</g>
</g>
<!-- Node1&#45;&gt;Node4 -->
<g id="edge3_Node000001_Node000004" class="edge">
<title>Node1&#45;&gt;Node4</title>
<g id="a_edge3_Node000001_Node000004"><a xlink:title=" ">
<path fill="none" stroke="#63b8ff" d="M153.01,-55.69C166.59,-45.7 180.86,-35.2 192.16,-26.89"/>
<polygon fill="#63b8ff" stroke="#63b8ff" points="194.02,-29.86 200,-21.11 189.88,-24.22 194.02,-29.86"/>
</a>
</g>
</g>
</g>
</svg>
