<?xml version="1.0" encoding="UTF-8" standalone="no"?>
<!DOCTYPE svg PUBLIC "-//W3C//DTD SVG 1.1//EN"
 "http://www.w3.org/Graphics/SVG/1.1/DTD/svg11.dtd">
<!-- Generated by graphviz version 9.0.0 (20230911.1827)
 -->
<!-- Title: D:/Note_Database/Subject/MCETA Microcontroller Experiment TA/files/HT32_STD_5xxxx_FWLib_V1.5.1_7084b/example/TM/PWM/ht32_board_config.h Pages: 1 -->
<svg width="368pt" height="284pt"
 viewBox="0.00 0.00 367.50 284.00" xmlns="http://www.w3.org/2000/svg" xmlns:xlink="http://www.w3.org/1999/xlink">
<g id="graph0" class="graph" transform="scale(1 1) rotate(0) translate(4 280)">
<title>D:/Note_Database/Subject/MCETA Microcontroller Experiment TA/files/HT32_STD_5xxxx_FWLib_V1.5.1_7084b/example/TM/PWM/ht32_board_config.h</title>
<!-- Node1 -->
<g id="Node000001" class="node">
<title>Node1</title>
<g id="a_Node000001"><a xlink:title="The header file of board configuration.">
<polygon fill="#999999" stroke="#666666" points="236.25,-276 46.25,-276 46.25,-208 236.25,-208 236.25,-276"/>
<text text-anchor="start" x="54.25" y="-262.5" font-family="Helvetica,sans-Serif" font-size="10.00">D:/Note_Database/Subject</text>
<text text-anchor="start" x="54.25" y="-250.5" font-family="Helvetica,sans-Serif" font-size="10.00">/MCETA Microcontroller</text>
<text text-anchor="start" x="54.25" y="-238.5" font-family="Helvetica,sans-Serif" font-size="10.00"> Experiment TA/files/HT32</text>
<text text-anchor="start" x="54.25" y="-226.5" font-family="Helvetica,sans-Serif" font-size="10.00">_STD_5xxxx_FWLib_V1.5.1_7084b</text>
<text text-anchor="middle" x="141.25" y="-214.5" font-family="Helvetica,sans-Serif" font-size="10.00">/example/TM/PWM/ht32_board_config.h</text>
</a>
</g>
</g>
<!-- Node2 -->
<g id="Node000002" class="node">
<title>Node2</title>
<g id="a_Node000002"><a xlink:href="pwm_8c.html" target="_top" xlink:title="The PWM functions.">
<polygon fill="white" stroke="#666666" points="170.5,-68 0,-68 0,0 170.5,0 170.5,-68"/>
<text text-anchor="start" x="8" y="-54.5" font-family="Helvetica,sans-Serif" font-size="10.00">D:/Note_Database/Subject</text>
<text text-anchor="start" x="8" y="-42.5" font-family="Helvetica,sans-Serif" font-size="10.00">/MCETA Microcontroller</text>
<text text-anchor="start" x="8" y="-30.5" font-family="Helvetica,sans-Serif" font-size="10.00"> Experiment TA/files/HT32</text>
<text text-anchor="start" x="8" y="-18.5" font-family="Helvetica,sans-Serif" font-size="10.00">_STD_5xxxx_FWLib_V1.5.1_7084b</text>
<text text-anchor="middle" x="85.25" y="-6.5" font-family="Helvetica,sans-Serif" font-size="10.00">/example/TM/PWM/pwm.c</text>
</a>
</g>
</g>
<!-- Node1&#45;&gt;Node2 -->
<g id="edge1_Node000001_Node000002" class="edge">
<title>Node1&#45;&gt;Node2</title>
<g id="a_edge1_Node000001_Node000002"><a xlink:title=" ">
<path fill="none" stroke="#63b8ff" d="M114.97,-197.52C110.85,-189.27 107.03,-180.54 104.25,-172 93.09,-137.75 88.49,-96.6 86.59,-68.4"/>
<polygon fill="#63b8ff" stroke="#63b8ff" points="111.85,-199.11 119.6,-206.33 118.05,-195.85 111.85,-199.11"/>
</a>
</g>
</g>
<!-- Node3 -->
<g id="Node000003" class="node">
<title>Node3</title>
<g id="a_Node000003"><a xlink:href="pwm_8h.html" target="_top" xlink:title="The header file of PWM.">
<polygon fill="white" stroke="#666666" points="283.5,-172 113,-172 113,-104 283.5,-104 283.5,-172"/>
<text text-anchor="start" x="121" y="-158.5" font-family="Helvetica,sans-Serif" font-size="10.00">D:/Note_Database/Subject</text>
<text text-anchor="start" x="121" y="-146.5" font-family="Helvetica,sans-Serif" font-size="10.00">/MCETA Microcontroller</text>
<text text-anchor="start" x="121" y="-134.5" font-family="Helvetica,sans-Serif" font-size="10.00"> Experiment TA/files/HT32</text>
<text text-anchor="start" x="121" y="-122.5" font-family="Helvetica,sans-Serif" font-size="10.00">_STD_5xxxx_FWLib_V1.5.1_7084b</text>
<text text-anchor="middle" x="198.25" y="-110.5" font-family="Helvetica,sans-Serif" font-size="10.00">/example/TM/PWM/pwm.h</text>
</a>
</g>
</g>
<!-- Node1&#45;&gt;Node3 -->
<g id="edge2_Node000001_Node000003" class="edge">
<title>Node1&#45;&gt;Node3</title>
<g id="a_edge2_Node000001_Node000003"><a xlink:title=" ">
<path fill="none" stroke="#63b8ff" d="M165.52,-197.56C170.22,-189.17 175.06,-180.49 179.54,-172.47"/>
<polygon fill="#63b8ff" stroke="#63b8ff" points="162.48,-195.84 160.65,-206.28 168.59,-199.26 162.48,-195.84"/>
</a>
</g>
</g>
<!-- Node3&#45;&gt;Node2 -->
<g id="edge4_Node000003_Node000002" class="edge">
<title>Node3&#45;&gt;Node2</title>
<g id="a_edge4_Node000003_Node000002"><a xlink:title=" ">
<path fill="none" stroke="#63b8ff" d="M152.88,-96.04C142.73,-86.89 132.09,-77.28 122.33,-68.47"/>
<polygon fill="#63b8ff" stroke="#63b8ff" points="150.36,-98.48 160.13,-102.59 155.05,-93.29 150.36,-98.48"/>
</a>
</g>
</g>
<!-- Node4 -->
<g id="Node000004" class="node">
<title>Node4</title>
<g id="a_Node000004"><a xlink:href="_t_m_2_p_w_m_2main_8c.html" target="_top" xlink:title="Main program.">
<polygon fill="white" stroke="#666666" points="359.5,-68 189,-68 189,0 359.5,0 359.5,-68"/>
<text text-anchor="start" x="197" y="-54.5" font-family="Helvetica,sans-Serif" font-size="10.00">D:/Note_Database/Subject</text>
<text text-anchor="start" x="197" y="-42.5" font-family="Helvetica,sans-Serif" font-size="10.00">/MCETA Microcontroller</text>
<text text-anchor="start" x="197" y="-30.5" font-family="Helvetica,sans-Serif" font-size="10.00"> Experiment TA/files/HT32</text>
<text text-anchor="start" x="197" y="-18.5" font-family="Helvetica,sans-Serif" font-size="10.00">_STD_5xxxx_FWLib_V1.5.1_7084b</text>
<text text-anchor="middle" x="274.25" y="-6.5" font-family="Helvetica,sans-Serif" font-size="10.00">/example/TM/PWM/main.c</text>
</a>
</g>
</g>
<!-- Node3&#45;&gt;Node4 -->
<g id="edge3_Node000003_Node000004" class="edge">
<title>Node3&#45;&gt;Node4</title>
<g id="a_edge3_Node000003_Node000004"><a xlink:title=" ">
<path fill="none" stroke="#63b8ff" d="M230,-94.39C236.44,-85.74 243.14,-76.76 249.31,-68.47"/>
<polygon fill="#63b8ff" stroke="#63b8ff" points="227.21,-92.28 224.04,-102.39 232.82,-96.46 227.21,-92.28"/>
</a>
</g>
</g>
</g>
</svg>
