<?xml version="1.0" encoding="UTF-8" standalone="no"?>
<!DOCTYPE svg PUBLIC "-//W3C//DTD SVG 1.1//EN"
 "http://www.w3.org/Graphics/SVG/1.1/DTD/svg11.dtd">
<!-- Generated by graphviz version 9.0.0 (20230911.1827)
 -->
<!-- Title: D:/Note_Database/Subject/MCETA Microcontroller Experiment TA/files/HT32_STD_5xxxx_FWLib_V1.5.1_7084b/example/TM/InternalTrigger/ht32f5xxxx_01_it.c Pages: 1 -->
<svg width="229pt" height="132pt"
 viewBox="0.00 0.00 228.75 132.00" xmlns="http://www.w3.org/2000/svg" xmlns:xlink="http://www.w3.org/1999/xlink">
<g id="graph0" class="graph" transform="scale(1 1) rotate(0) translate(4 128)">
<title>D:/Note_Database/Subject/MCETA Microcontroller Experiment TA/files/HT32_STD_5xxxx_FWLib_V1.5.1_7084b/example/TM/InternalTrigger/ht32f5xxxx_01_it.c</title>
<!-- Node1 -->
<g id="Node000001" class="node">
<title>Node1</title>
<g id="a_Node000001"><a xlink:title="This file provides all interrupt service routine.">
<polygon fill="#999999" stroke="#666666" points="220.75,-124 0,-124 0,-56 220.75,-56 220.75,-124"/>
<text text-anchor="start" x="8" y="-110.5" font-family="Helvetica,sans-Serif" font-size="10.00">D:/Note_Database/Subject</text>
<text text-anchor="start" x="8" y="-98.5" font-family="Helvetica,sans-Serif" font-size="10.00">/MCETA Microcontroller</text>
<text text-anchor="start" x="8" y="-86.5" font-family="Helvetica,sans-Serif" font-size="10.00"> Experiment TA/files/HT32</text>
<text text-anchor="start" x="8" y="-74.5" font-family="Helvetica,sans-Serif" font-size="10.00">_STD_5xxxx_FWLib_V1.5.1_7084b</text>
<text text-anchor="middle" x="110.38" y="-62.5" font-family="Helvetica,sans-Serif" font-size="10.00">/example/TM/InternalTrigger/ht32f5xxxx_01_it.c</text>
</a>
</g>
</g>
<!-- Node2 -->
<g id="Node000002" class="node">
<title>Node2</title>
<g id="a_Node000002"><a xlink:title=" ">
<polygon fill="#e0e0e0" stroke="#999999" points="86.88,-20 43.88,-20 43.88,0 86.88,0 86.88,-20"/>
<text text-anchor="middle" x="65.38" y="-6.5" font-family="Helvetica,sans-Serif" font-size="10.00">ht32.h</text>
</a>
</g>
</g>
<!-- Node1&#45;&gt;Node2 -->
<g id="edge1_Node000001_Node000002" class="edge">
<title>Node1&#45;&gt;Node2</title>
<g id="a_edge1_Node000001_Node000002"><a xlink:title=" ">
<path fill="none" stroke="#63b8ff" d="M91.29,-55.92C86.21,-47.12 80.89,-37.9 76.41,-30.12"/>
<polygon fill="#63b8ff" stroke="#63b8ff" points="79.51,-28.5 71.48,-21.59 73.45,-32 79.51,-28.5"/>
</a>
</g>
</g>
<!-- Node3 -->
<g id="Node000003" class="node">
<title>Node3</title>
<g id="a_Node000003"><a xlink:href="_t_m_2_internal_trigger_2ht32__board__config_8h.html" target="_top" xlink:title="The header file of board configuration.">
<polygon fill="white" stroke="#666666" points="207.88,-20 104.88,-20 104.88,0 207.88,0 207.88,-20"/>
<text text-anchor="middle" x="156.38" y="-6.5" font-family="Helvetica,sans-Serif" font-size="10.00">ht32_board_config.h</text>
</a>
</g>
</g>
<!-- Node1&#45;&gt;Node3 -->
<g id="edge2_Node000001_Node000003" class="edge">
<title>Node1&#45;&gt;Node3</title>
<g id="a_edge2_Node000001_Node000003"><a xlink:title=" ">
<path fill="none" stroke="#63b8ff" d="M129.88,-55.92C135.08,-47.12 140.51,-37.9 145.1,-30.12"/>
<polygon fill="#63b8ff" stroke="#63b8ff" points="148.07,-31.97 150.13,-21.58 142.04,-28.42 148.07,-31.97"/>
</a>
</g>
</g>
</g>
</svg>
