<?xml version="1.0" encoding="UTF-8" standalone="no"?>
<!DOCTYPE svg PUBLIC "-//W3C//DTD SVG 1.1//EN"
 "http://www.w3.org/Graphics/SVG/1.1/DTD/svg11.dtd">
<!-- Generated by graphviz version 9.0.0 (20230911.1827)
 -->
<!-- Title: D:/Note_Database/Subject/MCETA Microcontroller Experiment TA/files/HT32_STD_5xxxx_FWLib_V1.5.1_7084b/example/TM/PWM_Buzzer/main.c Pages: 1 -->
<svg width="313pt" height="188pt"
 viewBox="0.00 0.00 313.10 188.00" xmlns="http://www.w3.org/2000/svg" xmlns:xlink="http://www.w3.org/1999/xlink">
<g id="graph0" class="graph" transform="scale(1 1) rotate(0) translate(4 184)">
<title>D:/Note_Database/Subject/MCETA Microcontroller Experiment TA/files/HT32_STD_5xxxx_FWLib_V1.5.1_7084b/example/TM/PWM_Buzzer/main.c</title>
<!-- Node1 -->
<g id="Node000001" class="node">
<title>Node1</title>
<g id="a_Node000001"><a xlink:title="Main program.">
<polygon fill="#999999" stroke="#666666" points="188.85,-180 18.35,-180 18.35,-112 188.85,-112 188.85,-180"/>
<text text-anchor="start" x="26.35" y="-166.5" font-family="Helvetica,sans-Serif" font-size="10.00">D:/Note_Database/Subject</text>
<text text-anchor="start" x="26.35" y="-154.5" font-family="Helvetica,sans-Serif" font-size="10.00">/MCETA Microcontroller</text>
<text text-anchor="start" x="26.35" y="-142.5" font-family="Helvetica,sans-Serif" font-size="10.00"> Experiment TA/files/HT32</text>
<text text-anchor="start" x="26.35" y="-130.5" font-family="Helvetica,sans-Serif" font-size="10.00">_STD_5xxxx_FWLib_V1.5.1_7084b</text>
<text text-anchor="middle" x="103.6" y="-118.5" font-family="Helvetica,sans-Serif" font-size="10.00">/example/TM/PWM_Buzzer/main.c</text>
</a>
</g>
</g>
<!-- Node2 -->
<g id="Node000002" class="node">
<title>Node2</title>
<g id="a_Node000002"><a xlink:title=" ">
<polygon fill="#e0e0e0" stroke="#999999" points="147.1,-20 104.1,-20 104.1,0 147.1,0 147.1,-20"/>
<text text-anchor="middle" x="125.6" y="-6.5" font-family="Helvetica,sans-Serif" font-size="10.00">ht32.h</text>
</a>
</g>
</g>
<!-- Node1&#45;&gt;Node2 -->
<g id="edge1_Node000001_Node000002" class="edge">
<title>Node1&#45;&gt;Node2</title>
<g id="a_edge1_Node000001_Node000002"><a xlink:title=" ">
<path fill="none" stroke="#63b8ff" d="M30.6,-111.66C7.42,-96.31 -8.86,-76.87 5.6,-56 25.01,-28 64.13,-17.39 92.44,-13.39"/>
<polygon fill="#63b8ff" stroke="#63b8ff" points="92.8,-16.88 102.32,-12.23 91.98,-9.92 92.8,-16.88"/>
</a>
</g>
</g>
<!-- Node3 -->
<g id="Node000003" class="node">
<title>Node3</title>
<g id="a_Node000003"><a xlink:title=" ">
<polygon fill="#e0e0e0" stroke="#999999" points="86.73,-76 14.48,-76 14.48,-56 86.73,-56 86.73,-76"/>
<text text-anchor="middle" x="50.6" y="-62.5" font-family="Helvetica,sans-Serif" font-size="10.00">ht32_board.h</text>
</a>
</g>
</g>
<!-- Node1&#45;&gt;Node3 -->
<g id="edge2_Node000001_Node000003" class="edge">
<title>Node1&#45;&gt;Node3</title>
<g id="a_edge2_Node000001_Node000003"><a xlink:title=" ">
<path fill="none" stroke="#63b8ff" d="M81.13,-111.92C75.01,-102.91 68.59,-93.47 63.23,-85.59"/>
<polygon fill="#63b8ff" stroke="#63b8ff" points="66.27,-83.83 57.76,-77.53 60.48,-87.77 66.27,-83.83"/>
</a>
</g>
</g>
<!-- Node4 -->
<g id="Node000004" class="node">
<title>Node4</title>
<g id="a_Node000004"><a xlink:href="_t_m_2_p_w_m___buzzer_2ht32__board__config_8h.html" target="_top" xlink:title="The header file of board configuration.">
<polygon fill="white" stroke="#666666" points="208.1,-76 105.1,-76 105.1,-56 208.1,-56 208.1,-76"/>
<text text-anchor="middle" x="156.6" y="-62.5" font-family="Helvetica,sans-Serif" font-size="10.00">ht32_board_config.h</text>
</a>
</g>
</g>
<!-- Node1&#45;&gt;Node4 -->
<g id="edge3_Node000001_Node000004" class="edge">
<title>Node1&#45;&gt;Node4</title>
<g id="a_edge3_Node000001_Node000004"><a xlink:title=" ">
<path fill="none" stroke="#63b8ff" d="M126.08,-111.92C132.2,-102.91 138.61,-93.47 143.97,-85.59"/>
<polygon fill="#63b8ff" stroke="#63b8ff" points="146.72,-87.77 149.45,-77.53 140.93,-83.83 146.72,-87.77"/>
</a>
</g>
</g>
<!-- Node5 -->
<g id="Node000005" class="node">
<title>Node5</title>
<g id="a_Node000005"><a xlink:href="buzzer__pwm_8h.html" target="_top" xlink:title="The header file of buzzer function.">
<polygon fill="white" stroke="#666666" points="305.1,-76 226.1,-76 226.1,-56 305.1,-56 305.1,-76"/>
<text text-anchor="middle" x="265.6" y="-62.5" font-family="Helvetica,sans-Serif" font-size="10.00">buzzer_pwm.h</text>
</a>
</g>
</g>
<!-- Node1&#45;&gt;Node5 -->
<g id="edge4_Node000001_Node000005" class="edge">
<title>Node1&#45;&gt;Node5</title>
<g id="a_edge4_Node000001_Node000005"><a xlink:title=" ">
<path fill="none" stroke="#63b8ff" d="M172.77,-111.69C194.85,-101.06 218.13,-89.86 235.85,-81.33"/>
<polygon fill="#63b8ff" stroke="#63b8ff" points="237.25,-84.54 244.74,-77.04 234.21,-78.23 237.25,-84.54"/>
</a>
</g>
</g>
<!-- Node5&#45;&gt;Node2 -->
<g id="edge5_Node000005_Node000002" class="edge">
<title>Node5&#45;&gt;Node2</title>
<g id="a_edge5_Node000005_Node000002"><a xlink:title=" ">
<path fill="none" stroke="#63b8ff" d="M241.22,-55.59C218.15,-46.7 183.38,-33.29 158,-23.49"/>
<polygon fill="#63b8ff" stroke="#63b8ff" points="159.41,-20.29 148.82,-19.96 156.89,-26.82 159.41,-20.29"/>
</a>
</g>
</g>
</g>
</svg>
