<?xml version="1.0" encoding="UTF-8" standalone="no"?>
<!DOCTYPE svg PUBLIC "-//W3C//DTD SVG 1.1//EN"
 "http://www.w3.org/Graphics/SVG/1.1/DTD/svg11.dtd">
<!-- Generated by graphviz version 9.0.0 (20230911.1827)
 -->
<!-- Title: D:/Note_Database/Subject/MCETA Microcontroller Experiment TA/files/HT32_STD_5xxxx_FWLib_V1.5.1_7084b/example/TM/TriggerCounter_FrequencyMeasure/main.c Pages: 1 -->
<svg width="295pt" height="132pt"
 viewBox="0.00 0.00 295.00 132.00" xmlns="http://www.w3.org/2000/svg" xmlns:xlink="http://www.w3.org/1999/xlink">
<g id="graph0" class="graph" transform="scale(1 1) rotate(0) translate(4 128)">
<title>D:/Note_Database/Subject/MCETA Microcontroller Experiment TA/files/HT32_STD_5xxxx_FWLib_V1.5.1_7084b/example/TM/TriggerCounter_FrequencyMeasure/main.c</title>
<!-- Node1 -->
<g id="Node000001" class="node">
<title>Node1</title>
<g id="a_Node000001"><a xlink:title="Main program.">
<polygon fill="#999999" stroke="#666666" points="259,-124 0,-124 0,-56 259,-56 259,-124"/>
<text text-anchor="start" x="8" y="-110.5" font-family="Helvetica,sans-Serif" font-size="10.00">D:/Note_Database/Subject</text>
<text text-anchor="start" x="8" y="-98.5" font-family="Helvetica,sans-Serif" font-size="10.00">/MCETA Microcontroller</text>
<text text-anchor="start" x="8" y="-86.5" font-family="Helvetica,sans-Serif" font-size="10.00"> Experiment TA/files/HT32</text>
<text text-anchor="start" x="8" y="-74.5" font-family="Helvetica,sans-Serif" font-size="10.00">_STD_5xxxx_FWLib_V1.5.1_7084b</text>
<text text-anchor="middle" x="129.5" y="-62.5" font-family="Helvetica,sans-Serif" font-size="10.00">/example/TM/TriggerCounter_FrequencyMeasure/main.c</text>
</a>
</g>
</g>
<!-- Node2 -->
<g id="Node000002" class="node">
<title>Node2</title>
<g id="a_Node000002"><a xlink:title=" ">
<polygon fill="#e0e0e0" stroke="#999999" points="75,-20 32,-20 32,0 75,0 75,-20"/>
<text text-anchor="middle" x="53.5" y="-6.5" font-family="Helvetica,sans-Serif" font-size="10.00">ht32.h</text>
</a>
</g>
</g>
<!-- Node1&#45;&gt;Node2 -->
<g id="edge1_Node000001_Node000002" class="edge">
<title>Node1&#45;&gt;Node2</title>
<g id="a_edge1_Node000001_Node000002"><a xlink:title=" ">
<path fill="none" stroke="#63b8ff" d="M97.27,-55.92C88,-46.41 78.26,-36.41 70.33,-28.27"/>
<polygon fill="#63b8ff" stroke="#63b8ff" points="73.08,-26.08 63.6,-21.36 68.07,-30.97 73.08,-26.08"/>
</a>
</g>
</g>
<!-- Node3 -->
<g id="Node000003" class="node">
<title>Node3</title>
<g id="a_Node000003"><a xlink:title=" ">
<polygon fill="#e0e0e0" stroke="#999999" points="165.62,-20 93.38,-20 93.38,0 165.62,0 165.62,-20"/>
<text text-anchor="middle" x="129.5" y="-6.5" font-family="Helvetica,sans-Serif" font-size="10.00">ht32_board.h</text>
</a>
</g>
</g>
<!-- Node1&#45;&gt;Node3 -->
<g id="edge2_Node000001_Node000003" class="edge">
<title>Node1&#45;&gt;Node3</title>
<g id="a_edge2_Node000001_Node000003"><a xlink:title=" ">
<path fill="none" stroke="#63b8ff" d="M129.5,-55.92C129.5,-47.72 129.5,-39.17 129.5,-31.75"/>
<polygon fill="#63b8ff" stroke="#63b8ff" points="133,-31.79 129.5,-21.79 126,-31.79 133,-31.79"/>
</a>
</g>
</g>
<!-- Node4 -->
<g id="Node000004" class="node">
<title>Node4</title>
<g id="a_Node000004"><a xlink:href="_t_m_2_trigger_counter___frequency_measure_2ht32__board__config_8h.html" target="_top" xlink:title="The header file of board configuration.">
<polygon fill="white" stroke="#666666" points="287,-20 184,-20 184,0 287,0 287,-20"/>
<text text-anchor="middle" x="235.5" y="-6.5" font-family="Helvetica,sans-Serif" font-size="10.00">ht32_board_config.h</text>
</a>
</g>
</g>
<!-- Node1&#45;&gt;Node4 -->
<g id="edge3_Node000001_Node000004" class="edge">
<title>Node1&#45;&gt;Node4</title>
<g id="a_edge3_Node000001_Node000004"><a xlink:title=" ">
<path fill="none" stroke="#63b8ff" d="M174.76,-55.69C188.34,-45.7 202.61,-35.2 213.91,-26.89"/>
<polygon fill="#63b8ff" stroke="#63b8ff" points="215.77,-29.86 221.75,-21.11 211.63,-24.22 215.77,-29.86"/>
</a>
</g>
</g>
</g>
</svg>
