<?xml version="1.0" encoding="UTF-8" standalone="no"?>
<!DOCTYPE svg PUBLIC "-//W3C//DTD SVG 1.1//EN"
 "http://www.w3.org/Graphics/SVG/1.1/DTD/svg11.dtd">
<!-- Generated by graphviz version 9.0.0 (20230911.1827)
 -->
<!-- Title: D:/Note_Database/Subject/MCETA Microcontroller Experiment TA/files/HT32_STD_5xxxx_FWLib_V1.5.1_7084b/example/USBD/HID_Keyboard_Mass_Storage/ht32_usbd_class.c Pages: 1 -->
<svg width="450pt" height="212pt"
 viewBox="0.00 0.00 449.62 212.00" xmlns="http://www.w3.org/2000/svg" xmlns:xlink="http://www.w3.org/1999/xlink">
<g id="graph0" class="graph" transform="scale(1 1) rotate(0) translate(4 208)">
<title>D:/Note_Database/Subject/MCETA Microcontroller Experiment TA/files/HT32_STD_5xxxx_FWLib_V1.5.1_7084b/example/USBD/HID_Keyboard_Mass_Storage/ht32_usbd_class.c</title>
<!-- Node1 -->
<g id="Node000001" class="node">
<title>Node1</title>
<g id="a_Node000001"><a xlink:title="The USB Device Class.">
<polygon fill="#999999" stroke="#666666" points="236.62,-204 56.38,-204 56.38,-124 236.62,-124 236.62,-204"/>
<text text-anchor="start" x="64.38" y="-190.5" font-family="Helvetica,sans-Serif" font-size="10.00">D:/Note_Database/Subject</text>
<text text-anchor="start" x="64.38" y="-178.5" font-family="Helvetica,sans-Serif" font-size="10.00">/MCETA Microcontroller</text>
<text text-anchor="start" x="64.38" y="-166.5" font-family="Helvetica,sans-Serif" font-size="10.00"> Experiment TA/files/HT32</text>
<text text-anchor="start" x="64.38" y="-154.5" font-family="Helvetica,sans-Serif" font-size="10.00">_STD_5xxxx_FWLib_V1.5.1_7084b</text>
<text text-anchor="start" x="64.38" y="-142.5" font-family="Helvetica,sans-Serif" font-size="10.00">/example/USBD/HID_Keyboard_Mass</text>
<text text-anchor="middle" x="146.5" y="-130.5" font-family="Helvetica,sans-Serif" font-size="10.00">_Storage/ht32_usbd_class.c</text>
</a>
</g>
</g>
<!-- Node2 -->
<g id="Node000002" class="node">
<title>Node2</title>
<g id="a_Node000002"><a xlink:title=" ">
<polygon fill="#e0e0e0" stroke="#999999" points="43,-82 0,-82 0,-62 43,-62 43,-82"/>
<text text-anchor="middle" x="21.5" y="-68.5" font-family="Helvetica,sans-Serif" font-size="10.00">ht32.h</text>
</a>
</g>
</g>
<!-- Node1&#45;&gt;Node2 -->
<g id="edge1_Node000001_Node000002" class="edge">
<title>Node1&#45;&gt;Node2</title>
<g id="a_edge1_Node000001_Node000002"><a xlink:title=" ">
<path fill="none" stroke="#63b8ff" d="M91.67,-123.52C74.84,-111.41 57.26,-98.74 43.9,-89.13"/>
<polygon fill="#63b8ff" stroke="#63b8ff" points="45.98,-86.31 35.82,-83.31 41.89,-91.99 45.98,-86.31"/>
</a>
</g>
</g>
<!-- Node3 -->
<g id="Node000003" class="node">
<title>Node3</title>
<g id="a_Node000003"><a xlink:title=" ">
<polygon fill="#e0e0e0" stroke="#999999" points="263.62,-20 191.38,-20 191.38,0 263.62,0 263.62,-20"/>
<text text-anchor="middle" x="227.5" y="-6.5" font-family="Helvetica,sans-Serif" font-size="10.00">ht32_board.h</text>
</a>
</g>
</g>
<!-- Node1&#45;&gt;Node3 -->
<g id="edge2_Node000001_Node000003" class="edge">
<title>Node1&#45;&gt;Node3</title>
<g id="a_edge2_Node000001_Node000003"><a xlink:title=" ">
<path fill="none" stroke="#63b8ff" d="M104.82,-123.54C87.81,-102.61 75.31,-76.97 90.5,-56 110.68,-28.13 148.68,-17.22 179.55,-13.08"/>
<polygon fill="#63b8ff" stroke="#63b8ff" points="179.92,-16.56 189.48,-11.98 179.15,-9.61 179.92,-16.56"/>
</a>
</g>
</g>
<!-- Node4 -->
<g id="Node000004" class="node">
<title>Node4</title>
<g id="a_Node000004"><a xlink:title=" ">
<polygon fill="#e0e0e0" stroke="#999999" points="193.12,-82 99.88,-82 99.88,-62 193.12,-62 193.12,-82"/>
<text text-anchor="middle" x="146.5" y="-68.5" font-family="Helvetica,sans-Serif" font-size="10.00">ht32_usbd_core.h</text>
</a>
</g>
</g>
<!-- Node1&#45;&gt;Node4 -->
<g id="edge3_Node000001_Node000004" class="edge">
<title>Node1&#45;&gt;Node4</title>
<g id="a_edge3_Node000001_Node000004"><a xlink:title=" ">
<path fill="none" stroke="#63b8ff" d="M146.5,-123.52C146.5,-113.24 146.5,-102.57 146.5,-93.7"/>
<polygon fill="#63b8ff" stroke="#63b8ff" points="150,-93.76 146.5,-83.76 143,-93.76 150,-93.76"/>
</a>
</g>
</g>
<!-- Node5 -->
<g id="Node000005" class="node">
<title>Node5</title>
<g id="a_Node000005"><a xlink:href="_u_s_b_d_2_h_i_d___keyboard___mass___storage_2ht32__usbd__class_8h.html" target="_top" xlink:title="The header file of USB Device Class.">
<polygon fill="white" stroke="#666666" points="309.38,-82 211.62,-82 211.62,-62 309.38,-62 309.38,-82"/>
<text text-anchor="middle" x="260.5" y="-68.5" font-family="Helvetica,sans-Serif" font-size="10.00">ht32_usbd_class.h</text>
</a>
</g>
</g>
<!-- Node1&#45;&gt;Node5 -->
<g id="edge4_Node000001_Node000005" class="edge">
<title>Node1&#45;&gt;Node5</title>
<g id="a_edge4_Node000001_Node000005"><a xlink:title=" ">
<path fill="none" stroke="#63b8ff" d="M196.5,-123.52C211.8,-111.45 227.77,-98.84 239.94,-89.23"/>
<polygon fill="#63b8ff" stroke="#63b8ff" points="241.92,-92.13 247.6,-83.18 237.59,-86.63 241.92,-92.13"/>
</a>
</g>
</g>
<!-- Node6 -->
<g id="Node000006" class="node">
<title>Node6</title>
<g id="a_Node000006"><a xlink:href="_h_i_d___keyboard___mass___storage_2_src___mass_storage_2usb__bulk__only__transport_8h.html" target="_top" xlink:title="The header file of Bulk Only Transport.">
<polygon fill="white" stroke="#666666" points="441.62,-88 327.38,-88 327.38,-56 441.62,-56 441.62,-88"/>
<text text-anchor="start" x="335.38" y="-74.5" font-family="Helvetica,sans-Serif" font-size="10.00">Src_MassStorage/usb</text>
<text text-anchor="middle" x="384.5" y="-62.5" font-family="Helvetica,sans-Serif" font-size="10.00">_bulk_only_transport.h</text>
</a>
</g>
</g>
<!-- Node1&#45;&gt;Node6 -->
<g id="edge5_Node000001_Node000006" class="edge">
<title>Node1&#45;&gt;Node6</title>
<g id="a_edge5_Node000001_Node000006"><a xlink:title=" ">
<path fill="none" stroke="#63b8ff" d="M236.82,-128.85C269.32,-116.55 304.86,-103.11 332.93,-92.5"/>
<polygon fill="#63b8ff" stroke="#63b8ff" points="334.16,-95.78 342.28,-88.97 331.68,-89.23 334.16,-95.78"/>
</a>
</g>
</g>
<!-- Node6&#45;&gt;Node3 -->
<g id="edge6_Node000006_Node000003" class="edge">
<title>Node6&#45;&gt;Node3</title>
<g id="a_edge6_Node000006_Node000003"><a xlink:title=" ">
<path fill="none" stroke="#63b8ff" d="M344.07,-55.55C318.86,-45.91 286.73,-33.64 262.59,-24.41"/>
<polygon fill="#63b8ff" stroke="#63b8ff" points="264.12,-21.25 253.53,-20.95 261.62,-27.79 264.12,-21.25"/>
</a>
</g>
</g>
</g>
</svg>
