<?xml version="1.0" encoding="UTF-8" standalone="no"?>
<!DOCTYPE svg PUBLIC "-//W3C//DTD SVG 1.1//EN"
 "http://www.w3.org/Graphics/SVG/1.1/DTD/svg11.dtd">
<!-- Generated by graphviz version 9.0.0 (20230911.1827)
 -->
<!-- Title: D:/Note_Database/Subject/MCETA Microcontroller Experiment TA/files/HT32_STD_5xxxx_FWLib_V1.5.1_7084b/example/USBD/USB_UAC_Sound_RateControl/ht32f5xxxx_01_it.c Pages: 1 -->
<svg width="398pt" height="200pt"
 viewBox="0.00 0.00 397.62 200.00" xmlns="http://www.w3.org/2000/svg" xmlns:xlink="http://www.w3.org/1999/xlink">
<g id="graph0" class="graph" transform="scale(1 1) rotate(0) translate(4 196)">
<title>D:/Note_Database/Subject/MCETA Microcontroller Experiment TA/files/HT32_STD_5xxxx_FWLib_V1.5.1_7084b/example/USBD/USB_UAC_Sound_RateControl/ht32f5xxxx_01_it.c</title>
<!-- Node1 -->
<g id="Node000001" class="node">
<title>Node1</title>
<g id="a_Node000001"><a xlink:title="This file provides all interrupt service routine.">
<polygon fill="#999999" stroke="#666666" points="331.87,-192 108.12,-192 108.12,-112 331.87,-112 331.87,-192"/>
<text text-anchor="start" x="116.12" y="-178.5" font-family="Helvetica,sans-Serif" font-size="10.00">D:/Note_Database/Subject</text>
<text text-anchor="start" x="116.12" y="-166.5" font-family="Helvetica,sans-Serif" font-size="10.00">/MCETA Microcontroller</text>
<text text-anchor="start" x="116.12" y="-154.5" font-family="Helvetica,sans-Serif" font-size="10.00"> Experiment TA/files/HT32</text>
<text text-anchor="start" x="116.12" y="-142.5" font-family="Helvetica,sans-Serif" font-size="10.00">_STD_5xxxx_FWLib_V1.5.1_7084b</text>
<text text-anchor="start" x="116.12" y="-130.5" font-family="Helvetica,sans-Serif" font-size="10.00">/example/USBD/USB_UAC_Sound_RateControl</text>
<text text-anchor="middle" x="219.99" y="-118.5" font-family="Helvetica,sans-Serif" font-size="10.00">/ht32f5xxxx_01_it.c</text>
</a>
</g>
</g>
<!-- Node2 -->
<g id="Node000002" class="node">
<title>Node2</title>
<g id="a_Node000002"><a xlink:title=" ">
<polygon fill="#e0e0e0" stroke="#999999" points="127.49,-20 84.49,-20 84.49,0 127.49,0 127.49,-20"/>
<text text-anchor="middle" x="105.99" y="-6.5" font-family="Helvetica,sans-Serif" font-size="10.00">ht32.h</text>
</a>
</g>
</g>
<!-- Node1&#45;&gt;Node2 -->
<g id="edge1_Node000001_Node000002" class="edge">
<title>Node1&#45;&gt;Node2</title>
<g id="a_edge1_Node000001_Node000002"><a xlink:title=" ">
<path fill="none" stroke="#63b8ff" d="M107.79,-138.53C68.75,-128.18 28.8,-109.52 4.99,-76 -15.69,-46.88 36.52,-27.63 73.33,-18.08"/>
<polygon fill="#63b8ff" stroke="#63b8ff" points="73.82,-21.56 82.7,-15.78 72.15,-14.76 73.82,-21.56"/>
</a>
</g>
</g>
<!-- Node3 -->
<g id="Node000003" class="node">
<title>Node3</title>
<g id="a_Node000003"><a xlink:title=" ">
<polygon fill="#e0e0e0" stroke="#999999" points="107.62,-76 14.37,-76 14.37,-56 107.62,-56 107.62,-76"/>
<text text-anchor="middle" x="60.99" y="-62.5" font-family="Helvetica,sans-Serif" font-size="10.00">ht32_usbd_core.h</text>
</a>
</g>
</g>
<!-- Node1&#45;&gt;Node3 -->
<g id="edge2_Node000001_Node000003" class="edge">
<title>Node1&#45;&gt;Node3</title>
<g id="a_edge2_Node000001_Node000003"><a xlink:title=" ">
<path fill="none" stroke="#63b8ff" d="M145.61,-111.71C125.39,-101.02 104.72,-90.1 88.87,-81.73"/>
<polygon fill="#63b8ff" stroke="#63b8ff" points="90.55,-78.66 80.07,-77.08 87.28,-84.85 90.55,-78.66"/>
</a>
</g>
</g>
<!-- Node4 -->
<g id="Node000004" class="node">
<title>Node4</title>
<g id="a_Node000004"><a xlink:href="_u_s_b_d_2_u_s_b___u_a_c___sound___rate_control_2ht32__usbd__class_8h.html" target="_top" xlink:title="The header file of USB Device Class.">
<polygon fill="white" stroke="#666666" points="223.87,-76 126.12,-76 126.12,-56 223.87,-56 223.87,-76"/>
<text text-anchor="middle" x="174.99" y="-62.5" font-family="Helvetica,sans-Serif" font-size="10.00">ht32_usbd_class.h</text>
</a>
</g>
</g>
<!-- Node1&#45;&gt;Node4 -->
<g id="edge3_Node000001_Node000004" class="edge">
<title>Node1&#45;&gt;Node4</title>
<g id="a_edge3_Node000001_Node000004"><a xlink:title=" ">
<path fill="none" stroke="#63b8ff" d="M199.07,-111.95C194.32,-103.08 189.48,-94.04 185.39,-86.42"/>
<polygon fill="#63b8ff" stroke="#63b8ff" points="188.57,-84.93 180.76,-77.77 182.4,-88.24 188.57,-84.93"/>
</a>
</g>
</g>
<!-- Node5 -->
<g id="Node000005" class="node">
<title>Node5</title>
<g id="a_Node000005"><a xlink:href="_u_s_b_d_2_u_s_b___u_a_c___sound___rate_control_2ht32__board__config_8h.html" target="_top" xlink:title="The header file of board configuration.">
<polygon fill="white" stroke="#666666" points="367.49,-20 264.49,-20 264.49,0 367.49,0 367.49,-20"/>
<text text-anchor="middle" x="315.99" y="-6.5" font-family="Helvetica,sans-Serif" font-size="10.00">ht32_board_config.h</text>
</a>
</g>
</g>
<!-- Node1&#45;&gt;Node5 -->
<g id="edge4_Node000001_Node000005" class="edge">
<title>Node1&#45;&gt;Node5</title>
<g id="a_edge4_Node000001_Node000005"><a xlink:title=" ">
<path fill="none" stroke="#63b8ff" d="M268.22,-111.54C278.89,-100.92 289.3,-88.79 296.99,-76 305.17,-62.41 310,-45.09 312.75,-31.75"/>
<polygon fill="#63b8ff" stroke="#63b8ff" points="316.19,-32.38 314.51,-21.92 309.3,-31.14 316.19,-32.38"/>
</a>
</g>
</g>
<!-- Node6 -->
<g id="Node000006" class="node">
<title>Node6</title>
<g id="a_Node000006"><a xlink:href="main_8h.html" target="_top" xlink:title="The API between application and HT32FXXXX Firmware Library.">
<polygon fill="white" stroke="#666666" points="287.62,-76 242.37,-76 242.37,-56 287.62,-56 287.62,-76"/>
<text text-anchor="middle" x="264.99" y="-62.5" font-family="Helvetica,sans-Serif" font-size="10.00">main.h</text>
</a>
</g>
</g>
<!-- Node1&#45;&gt;Node6 -->
<g id="edge5_Node000001_Node000006" class="edge">
<title>Node1&#45;&gt;Node6</title>
<g id="a_edge5_Node000001_Node000006"><a xlink:title=" ">
<path fill="none" stroke="#63b8ff" d="M240.91,-111.95C245.66,-103.08 250.5,-94.04 254.59,-86.42"/>
<polygon fill="#63b8ff" stroke="#63b8ff" points="257.58,-88.24 259.22,-77.77 251.41,-84.93 257.58,-88.24"/>
</a>
</g>
</g>
<!-- Node7 -->
<g id="Node000007" class="node">
<title>Node7</title>
<g id="a_Node000007"><a xlink:href="_u_s_b_d_2_u_s_b___u_a_c___sound___rate_control_2i2cm_8h.html" target="_top" xlink:title="The header file of I2C master driver.">
<polygon fill="white" stroke="#666666" points="389.62,-76 344.37,-76 344.37,-56 389.62,-56 389.62,-76"/>
<text text-anchor="middle" x="366.99" y="-62.5" font-family="Helvetica,sans-Serif" font-size="10.00">i2cm.h</text>
</a>
</g>
</g>
<!-- Node1&#45;&gt;Node7 -->
<g id="edge8_Node000001_Node000007" class="edge">
<title>Node1&#45;&gt;Node7</title>
<g id="a_edge8_Node000001_Node000007"><a xlink:title=" ">
<path fill="none" stroke="#63b8ff" d="M288.76,-111.71C307.28,-101.12 326.2,-90.31 340.79,-81.97"/>
<polygon fill="#63b8ff" stroke="#63b8ff" points="342.33,-85.12 349.28,-77.12 338.86,-79.05 342.33,-85.12"/>
</a>
</g>
</g>
<!-- Node6&#45;&gt;Node2 -->
<g id="edge6_Node000006_Node000002" class="edge">
<title>Node6&#45;&gt;Node2</title>
<g id="a_edge6_Node000006_Node000002"><a xlink:title=" ">
<path fill="none" stroke="#63b8ff" d="M241.87,-57.15C214.64,-47.9 169.22,-32.48 138.47,-22.03"/>
<polygon fill="#63b8ff" stroke="#63b8ff" points="139.89,-18.82 129.29,-18.91 137.64,-25.44 139.89,-18.82"/>
</a>
</g>
</g>
<!-- Node6&#45;&gt;Node5 -->
<g id="edge7_Node000006_Node000005" class="edge">
<title>Node6&#45;&gt;Node5</title>
<g id="a_edge7_Node000006_Node000005"><a xlink:title=" ">
<path fill="none" stroke="#63b8ff" d="M273.87,-55.59C280.9,-48.16 290.89,-37.58 299.38,-28.58"/>
<polygon fill="#63b8ff" stroke="#63b8ff" points="301.85,-31.07 306.17,-21.4 296.76,-26.27 301.85,-31.07"/>
</a>
</g>
</g>
<!-- Node7&#45;&gt;Node5 -->
<g id="edge9_Node000007_Node000005" class="edge">
<title>Node7&#45;&gt;Node5</title>
<g id="a_edge9_Node000007_Node000005"><a xlink:title=" ">
<path fill="none" stroke="#63b8ff" d="M358.11,-55.59C351.09,-48.16 341.09,-37.58 332.6,-28.58"/>
<polygon fill="#63b8ff" stroke="#63b8ff" points="335.22,-26.27 325.81,-21.4 330.13,-31.07 335.22,-26.27"/>
</a>
</g>
</g>
</g>
</svg>
