<?xml version="1.0" encoding="UTF-8" standalone="no"?>
<!DOCTYPE svg PUBLIC "-//W3C//DTD SVG 1.1//EN"
 "http://www.w3.org/Graphics/SVG/1.1/DTD/svg11.dtd">
<!-- Generated by graphviz version 9.0.0 (20230911.1827)
 -->
<!-- Title: D:/Note_Database/Subject/MCETA Microcontroller Experiment TA/files/HT32_STD_5xxxx_FWLib_V1.5.1_7084b/example/USART/RS485_NMM_Slave/ht32f5xxxx_01_it.c Pages: 1 -->
<svg width="330pt" height="144pt"
 viewBox="0.00 0.00 329.62 144.00" xmlns="http://www.w3.org/2000/svg" xmlns:xlink="http://www.w3.org/1999/xlink">
<g id="graph0" class="graph" transform="scale(1 1) rotate(0) translate(4 140)">
<title>D:/Note_Database/Subject/MCETA Microcontroller Experiment TA/files/HT32_STD_5xxxx_FWLib_V1.5.1_7084b/example/USART/RS485_NMM_Slave/ht32f5xxxx_01_it.c</title>
<!-- Node1 -->
<g id="Node000001" class="node">
<title>Node1</title>
<g id="a_Node000001"><a xlink:title="This file provides all interrupt service routine.">
<polygon fill="#999999" stroke="#666666" points="240.62,-136 60.38,-136 60.38,-56 240.62,-56 240.62,-136"/>
<text text-anchor="start" x="68.38" y="-122.5" font-family="Helvetica,sans-Serif" font-size="10.00">D:/Note_Database/Subject</text>
<text text-anchor="start" x="68.38" y="-110.5" font-family="Helvetica,sans-Serif" font-size="10.00">/MCETA Microcontroller</text>
<text text-anchor="start" x="68.38" y="-98.5" font-family="Helvetica,sans-Serif" font-size="10.00"> Experiment TA/files/HT32</text>
<text text-anchor="start" x="68.38" y="-86.5" font-family="Helvetica,sans-Serif" font-size="10.00">_STD_5xxxx_FWLib_V1.5.1_7084b</text>
<text text-anchor="start" x="68.38" y="-74.5" font-family="Helvetica,sans-Serif" font-size="10.00">/example/USART/RS485_NMM_Slave</text>
<text text-anchor="middle" x="150.5" y="-62.5" font-family="Helvetica,sans-Serif" font-size="10.00">/ht32f5xxxx_01_it.c</text>
</a>
</g>
</g>
<!-- Node2 -->
<g id="Node000002" class="node">
<title>Node2</title>
<g id="a_Node000002"><a xlink:title=" ">
<polygon fill="#e0e0e0" stroke="#999999" points="43,-20 0,-20 0,0 43,0 43,-20"/>
<text text-anchor="middle" x="21.5" y="-6.5" font-family="Helvetica,sans-Serif" font-size="10.00">ht32.h</text>
</a>
</g>
</g>
<!-- Node1&#45;&gt;Node2 -->
<g id="edge1_Node000001_Node000002" class="edge">
<title>Node1&#45;&gt;Node2</title>
<g id="a_edge1_Node000001_Node000002"><a xlink:title=" ">
<path fill="none" stroke="#63b8ff" d="M90.15,-55.71C74.22,-45.33 57.94,-34.73 45.24,-26.46"/>
<polygon fill="#63b8ff" stroke="#63b8ff" points="47.45,-23.72 37.16,-21.2 43.63,-29.59 47.45,-23.72"/>
</a>
</g>
</g>
<!-- Node3 -->
<g id="Node000003" class="node">
<title>Node3</title>
<g id="a_Node000003"><a xlink:title=" ">
<polygon fill="#e0e0e0" stroke="#999999" points="133.62,-20 61.38,-20 61.38,0 133.62,0 133.62,-20"/>
<text text-anchor="middle" x="97.5" y="-6.5" font-family="Helvetica,sans-Serif" font-size="10.00">ht32_board.h</text>
</a>
</g>
</g>
<!-- Node1&#45;&gt;Node3 -->
<g id="edge2_Node000001_Node000003" class="edge">
<title>Node1&#45;&gt;Node3</title>
<g id="a_edge2_Node000001_Node000003"><a xlink:title=" ">
<path fill="none" stroke="#63b8ff" d="M125.86,-55.95C120.2,-46.98 114.43,-37.83 109.58,-30.15"/>
<polygon fill="#63b8ff" stroke="#63b8ff" points="112.56,-28.31 104.26,-21.72 106.64,-32.04 112.56,-28.31"/>
</a>
</g>
</g>
<!-- Node4 -->
<g id="Node000004" class="node">
<title>Node4</title>
<g id="a_Node000004"><a xlink:href="_u_s_a_r_t_2_r_s485___n_m_m___slave_2ht32__board__config_8h.html" target="_top" xlink:title="The header file of board configuration.">
<polygon fill="white" stroke="#666666" points="255,-20 152,-20 152,0 255,0 255,-20"/>
<text text-anchor="middle" x="203.5" y="-6.5" font-family="Helvetica,sans-Serif" font-size="10.00">ht32_board_config.h</text>
</a>
</g>
</g>
<!-- Node1&#45;&gt;Node4 -->
<g id="edge3_Node000001_Node000004" class="edge">
<title>Node1&#45;&gt;Node4</title>
<g id="a_edge3_Node000001_Node000004"><a xlink:title=" ">
<path fill="none" stroke="#63b8ff" d="M175.14,-55.95C180.8,-46.98 186.57,-37.83 191.42,-30.15"/>
<polygon fill="#63b8ff" stroke="#63b8ff" points="194.36,-32.04 196.74,-21.72 188.44,-28.31 194.36,-32.04"/>
</a>
</g>
</g>
<!-- Node5 -->
<g id="Node000005" class="node">
<title>Node5</title>
<g id="a_Node000005"><a xlink:href="rs485_8h.html" target="_top" xlink:title="The header file of RS485 function.">
<polygon fill="white" stroke="#666666" points="321.62,-20 273.38,-20 273.38,0 321.62,0 321.62,-20"/>
<text text-anchor="middle" x="297.5" y="-6.5" font-family="Helvetica,sans-Serif" font-size="10.00">rs485.h</text>
</a>
</g>
</g>
<!-- Node1&#45;&gt;Node5 -->
<g id="edge4_Node000001_Node000005" class="edge">
<title>Node1&#45;&gt;Node5</title>
<g id="a_edge4_Node000001_Node000005"><a xlink:title=" ">
<path fill="none" stroke="#63b8ff" d="M219.27,-55.71C237.79,-45.12 256.71,-34.31 271.3,-25.97"/>
<polygon fill="#63b8ff" stroke="#63b8ff" points="272.84,-29.12 279.78,-21.12 269.37,-23.05 272.84,-29.12"/>
</a>
</g>
</g>
</g>
</svg>
