<?xml version="1.0" encoding="UTF-8" standalone="no"?>
<!DOCTYPE svg PUBLIC "-//W3C//DTD SVG 1.1//EN"
 "http://www.w3.org/Graphics/SVG/1.1/DTD/svg11.dtd">
<!-- Generated by graphviz version 9.0.0 (20230911.1827)
 -->
<!-- Title: D:/Note_Database/Subject/MCETA Microcontroller Experiment TA/files/HT32_STD_5xxxx_FWLib_V1.5.1_7084b/example/USBD/HID_Keyboard_Mass_Storage/_ht32_project_source.h Pages: 1 -->
<svg width="579pt" height="324pt"
 viewBox="0.00 0.00 579.41 324.00" xmlns="http://www.w3.org/2000/svg" xmlns:xlink="http://www.w3.org/1999/xlink">
<g id="graph0" class="graph" transform="scale(1 1) rotate(0) translate(4 320)">
<title>D:/Note_Database/Subject/MCETA Microcontroller Experiment TA/files/HT32_STD_5xxxx_FWLib_V1.5.1_7084b/example/USBD/HID_Keyboard_Mass_Storage/_ht32_project_source.h</title>
<!-- Node1 -->
<g id="Node000001" class="node">
<title>Node1</title>
<g id="a_Node000001"><a xlink:title="The project source code setting.">
<polygon fill="#999999" stroke="#666666" points="278.88,-316 98.62,-316 98.62,-236 278.88,-236 278.88,-316"/>
<text text-anchor="start" x="106.62" y="-302.5" font-family="Helvetica,sans-Serif" font-size="10.00">D:/Note_Database/Subject</text>
<text text-anchor="start" x="106.62" y="-290.5" font-family="Helvetica,sans-Serif" font-size="10.00">/MCETA Microcontroller</text>
<text text-anchor="start" x="106.62" y="-278.5" font-family="Helvetica,sans-Serif" font-size="10.00"> Experiment TA/files/HT32</text>
<text text-anchor="start" x="106.62" y="-266.5" font-family="Helvetica,sans-Serif" font-size="10.00">_STD_5xxxx_FWLib_V1.5.1_7084b</text>
<text text-anchor="start" x="106.62" y="-254.5" font-family="Helvetica,sans-Serif" font-size="10.00">/example/USBD/HID_Keyboard_Mass</text>
<text text-anchor="middle" x="188.75" y="-242.5" font-family="Helvetica,sans-Serif" font-size="10.00">_Storage/_ht32_project_source.h</text>
</a>
</g>
</g>
<!-- Node2 -->
<g id="Node000002" class="node">
<title>Node2</title>
<g id="a_Node000002"><a xlink:href="_h_i_d___keyboard___mass___storage_2_src___mass_storage_2ram__disk_8c.html" target="_top" xlink:title="The RAM Disk related function.">
<polygon fill="white" stroke="#666666" points="113.5,-200 0,-200 0,-168 113.5,-168 113.5,-200"/>
<text text-anchor="start" x="8" y="-186.5" font-family="Helvetica,sans-Serif" font-size="10.00">Src_MassStorage\ram</text>
<text text-anchor="middle" x="56.75" y="-174.5" font-family="Helvetica,sans-Serif" font-size="10.00">_disk.c</text>
</a>
</g>
</g>
<!-- Node1&#45;&gt;Node2 -->
<g id="edge1_Node000001_Node000002" class="edge">
<title>Node1&#45;&gt;Node2</title>
<g id="a_edge1_Node000001_Node000002"><a xlink:title=" ">
<path fill="none" stroke="#63b8ff" d="M130.85,-235.52C116.28,-225.59 101.17,-215.29 88.43,-206.6"/>
<polygon fill="#63b8ff" stroke="#63b8ff" points="90.68,-203.9 80.44,-201.15 86.73,-209.68 90.68,-203.9"/>
</a>
</g>
</g>
<!-- Node7 -->
<g id="Node000007" class="node">
<title>Node7</title>
<g id="a_Node000007"><a xlink:href="_h_i_d___keyboard___mass___storage_2_src___mass_storage_2usb__bulk__only__transport_8c.html" target="_top" xlink:title="The Bulk Only Transport (BOT).">
<polygon fill="white" stroke="#666666" points="245.88,-200 131.62,-200 131.62,-168 245.88,-168 245.88,-200"/>
<text text-anchor="start" x="139.62" y="-186.5" font-family="Helvetica,sans-Serif" font-size="10.00">Src_MassStorage\usb</text>
<text text-anchor="middle" x="188.75" y="-174.5" font-family="Helvetica,sans-Serif" font-size="10.00">_bulk_only_transport.c</text>
</a>
</g>
</g>
<!-- Node1&#45;&gt;Node7 -->
<g id="edge6_Node000001_Node000007" class="edge">
<title>Node1&#45;&gt;Node7</title>
<g id="a_edge6_Node000001_Node000007"><a xlink:title=" ">
<path fill="none" stroke="#63b8ff" d="M188.75,-235.52C188.75,-227.44 188.75,-219.11 188.75,-211.61"/>
<polygon fill="#63b8ff" stroke="#63b8ff" points="192.25,-211.82 188.75,-201.82 185.25,-211.82 192.25,-211.82"/>
</a>
</g>
</g>
<!-- Node10 -->
<g id="Node000010" class="node">
<title>Node10</title>
<g id="a_Node000010"><a xlink:href="_h_i_d___keyboard___mass___storage_2_src___mass_storage_2usb__scsi__block__command_8c.html" target="_top" xlink:title="The SCSI Block Command (SBC&#45;3 &amp; SPC&#45;4).">
<polygon fill="white" stroke="#666666" points="486.75,-200 362.75,-200 362.75,-168 486.75,-168 486.75,-200"/>
<text text-anchor="start" x="370.75" y="-186.5" font-family="Helvetica,sans-Serif" font-size="10.00">Src_MassStorage\usb</text>
<text text-anchor="middle" x="424.75" y="-174.5" font-family="Helvetica,sans-Serif" font-size="10.00">_scsi_block_command.c</text>
</a>
</g>
</g>
<!-- Node1&#45;&gt;Node10 -->
<g id="edge12_Node000001_Node000010" class="edge">
<title>Node1&#45;&gt;Node10</title>
<g id="a_edge12_Node000001_Node000010"><a xlink:title=" ">
<path fill="none" stroke="#63b8ff" d="M279.32,-240.46C311.34,-228.25 346.2,-214.95 373.77,-204.44"/>
<polygon fill="#63b8ff" stroke="#63b8ff" points="374.83,-207.78 382.93,-200.95 372.33,-201.24 374.83,-207.78"/>
</a>
</g>
</g>
<!-- Node3 -->
<g id="Node000003" class="node">
<title>Node3</title>
<g id="a_Node000003"><a xlink:href="_h_i_d___keyboard___mass___storage_2_src___mass_storage_2ram__disk_8h.html" target="_top" xlink:title="The header file of RAM Disk.">
<polygon fill="white" stroke="#666666" points="88.75,-132 24.75,-132 24.75,-112 88.75,-112 88.75,-132"/>
<text text-anchor="middle" x="56.75" y="-118.5" font-family="Helvetica,sans-Serif" font-size="10.00">ram_disk.h</text>
</a>
</g>
</g>
<!-- Node2&#45;&gt;Node3 -->
<g id="edge2_Node000002_Node000003" class="edge">
<title>Node2&#45;&gt;Node3</title>
<g id="a_edge2_Node000002_Node000003"><a xlink:title=" ">
<path fill="none" stroke="#63b8ff" d="M56.75,-167.55C56.75,-160.34 56.75,-151.66 56.75,-143.88"/>
<polygon fill="#63b8ff" stroke="#63b8ff" points="60.25,-143.92 56.75,-133.92 53.25,-143.92 60.25,-143.92"/>
</a>
</g>
</g>
<!-- Node4 -->
<g id="Node000004" class="node">
<title>Node4</title>
<g id="a_Node000004"><a xlink:title=" ">
<polygon fill="#e0e0e0" stroke="#999999" points="213.25,-76 170.25,-76 170.25,-56 213.25,-56 213.25,-76"/>
<text text-anchor="middle" x="191.75" y="-62.5" font-family="Helvetica,sans-Serif" font-size="10.00">ht32.h</text>
</a>
</g>
</g>
<!-- Node3&#45;&gt;Node4 -->
<g id="edge3_Node000003_Node000004" class="edge">
<title>Node3&#45;&gt;Node4</title>
<g id="a_edge3_Node000003_Node000004"><a xlink:title=" ">
<path fill="none" stroke="#63b8ff" d="M80.27,-111.59C102.15,-102.84 134.95,-89.72 159.31,-79.97"/>
<polygon fill="#63b8ff" stroke="#63b8ff" points="160.45,-83.29 168.44,-76.32 157.85,-76.79 160.45,-83.29"/>
</a>
</g>
</g>
<!-- Node5 -->
<g id="Node000005" class="node">
<title>Node5</title>
<g id="a_Node000005"><a xlink:href="_h_i_d___keyboard___mass___storage_2_src___mass_storage_2usb__bulk__only__transport_8h.html" target="_top" xlink:title="The header file of Bulk Only Transport.">
<polygon fill="white" stroke="#666666" points="151.75,-76 21.75,-76 21.75,-56 151.75,-56 151.75,-76"/>
<text text-anchor="middle" x="86.75" y="-62.5" font-family="Helvetica,sans-Serif" font-size="10.00">usb_bulk_only_transport.h</text>
</a>
</g>
</g>
<!-- Node3&#45;&gt;Node5 -->
<g id="edge4_Node000003_Node000005" class="edge">
<title>Node3&#45;&gt;Node5</title>
<g id="a_edge4_Node000003_Node000005"><a xlink:title=" ">
<path fill="none" stroke="#63b8ff" d="M61.98,-111.59C65.85,-104.63 71.26,-94.89 76.03,-86.29"/>
<polygon fill="#63b8ff" stroke="#63b8ff" points="79.05,-88.06 80.85,-77.62 72.93,-84.66 79.05,-88.06"/>
</a>
</g>
</g>
<!-- Node6 -->
<g id="Node000006" class="node">
<title>Node6</title>
<g id="a_Node000006"><a xlink:title=" ">
<polygon fill="#e0e0e0" stroke="#999999" points="122.88,-20 50.62,-20 50.62,0 122.88,0 122.88,-20"/>
<text text-anchor="middle" x="86.75" y="-6.5" font-family="Helvetica,sans-Serif" font-size="10.00">ht32_board.h</text>
</a>
</g>
</g>
<!-- Node5&#45;&gt;Node6 -->
<g id="edge5_Node000005_Node000006" class="edge">
<title>Node5&#45;&gt;Node6</title>
<g id="a_edge5_Node000005_Node000006"><a xlink:title=" ">
<path fill="none" stroke="#63b8ff" d="M86.75,-55.59C86.75,-49.01 86.75,-39.96 86.75,-31.73"/>
<polygon fill="#63b8ff" stroke="#63b8ff" points="90.25,-31.81 86.75,-21.81 83.25,-31.81 90.25,-31.81"/>
</a>
</g>
</g>
<!-- Node7&#45;&gt;Node3 -->
<g id="edge11_Node000007_Node000003" class="edge">
<title>Node7&#45;&gt;Node3</title>
<g id="a_edge11_Node000007_Node000003"><a xlink:title=" ">
<path fill="none" stroke="#63b8ff" d="M154.76,-167.55C134.13,-158.17 108.01,-146.3 87.91,-137.17"/>
<polygon fill="#63b8ff" stroke="#63b8ff" points="89.38,-133.99 78.83,-133.03 86.48,-140.36 89.38,-133.99"/>
</a>
</g>
</g>
<!-- Node7&#45;&gt;Node4 -->
<g id="edge7_Node000007_Node000004" class="edge">
<title>Node7&#45;&gt;Node4</title>
<g id="a_edge7_Node000007_Node000004"><a xlink:title=" ">
<path fill="none" stroke="#63b8ff" d="M181.86,-167.52C176.34,-153.16 170.06,-131.18 173.75,-112 175.4,-103.44 178.66,-94.44 181.96,-86.76"/>
<polygon fill="#63b8ff" stroke="#63b8ff" points="185.12,-88.25 186.16,-77.71 178.77,-85.31 185.12,-88.25"/>
</a>
</g>
</g>
<!-- Node7&#45;&gt;Node5 -->
<g id="edge9_Node000007_Node000005" class="edge">
<title>Node7&#45;&gt;Node5</title>
<g id="a_edge9_Node000007_Node000005"><a xlink:title=" ">
<path fill="none" stroke="#63b8ff" d="M175.42,-167.84C156.62,-146.46 122.41,-107.55 102.42,-84.82"/>
<polygon fill="#63b8ff" stroke="#63b8ff" points="105.28,-82.77 96.05,-77.57 100.02,-87.39 105.28,-82.77"/>
</a>
</g>
</g>
<!-- Node8 -->
<g id="Node000008" class="node">
<title>Node8</title>
<g id="a_Node000008"><a xlink:title=" ">
<polygon fill="#e0e0e0" stroke="#999999" points="434.38,-132 341.12,-132 341.12,-112 434.38,-112 434.38,-132"/>
<text text-anchor="middle" x="387.75" y="-118.5" font-family="Helvetica,sans-Serif" font-size="10.00">ht32_usbd_core.h</text>
</a>
</g>
</g>
<!-- Node7&#45;&gt;Node8 -->
<g id="edge8_Node000007_Node000008" class="edge">
<title>Node7&#45;&gt;Node8</title>
<g id="a_edge8_Node000007_Node000008"><a xlink:title=" ">
<path fill="none" stroke="#63b8ff" d="M240,-167.55C272.72,-157.68 314.62,-145.05 345.44,-135.76"/>
<polygon fill="#63b8ff" stroke="#63b8ff" points="346.24,-139.17 354.8,-132.93 344.22,-132.47 346.24,-139.17"/>
</a>
</g>
</g>
<!-- Node9 -->
<g id="Node000009" class="node">
<title>Node9</title>
<g id="a_Node000009"><a xlink:href="_h_i_d___keyboard___mass___storage_2_src___mass_storage_2usb__scsi__block__command_8h.html" target="_top" xlink:title="The header file of SCSI Block Command (SBC&#45;3 &amp; SPC&#45;4).">
<polygon fill="white" stroke="#666666" points="322.62,-132 182.88,-132 182.88,-112 322.62,-112 322.62,-132"/>
<text text-anchor="middle" x="252.75" y="-118.5" font-family="Helvetica,sans-Serif" font-size="10.00">usb_scsi_block_command.h</text>
</a>
</g>
</g>
<!-- Node7&#45;&gt;Node9 -->
<g id="edge10_Node000007_Node000009" class="edge">
<title>Node7&#45;&gt;Node9</title>
<g id="a_edge10_Node000007_Node000009"><a xlink:title=" ">
<path fill="none" stroke="#63b8ff" d="M205.23,-167.55C214.21,-159.13 225.35,-148.69 234.58,-140.04"/>
<polygon fill="#63b8ff" stroke="#63b8ff" points="236.71,-142.84 241.61,-133.44 231.92,-137.73 236.71,-142.84"/>
</a>
</g>
</g>
<!-- Node10&#45;&gt;Node4 -->
<g id="edge13_Node000010_Node000004" class="edge">
<title>Node10&#45;&gt;Node4</title>
<g id="a_edge13_Node000010_Node000004"><a xlink:title=" ">
<path fill="none" stroke="#63b8ff" d="M487.03,-172.94C535.87,-162.45 591.34,-143.13 563.75,-112 541.42,-86.8 311.95,-72.93 224.95,-68.54"/>
<polygon fill="#63b8ff" stroke="#63b8ff" points="225.33,-65.06 215.17,-68.06 224.98,-72.05 225.33,-65.06"/>
</a>
</g>
</g>
<!-- Node10&#45;&gt;Node5 -->
<g id="edge15_Node000010_Node000005" class="edge">
<title>Node10&#45;&gt;Node5</title>
<g id="a_edge15_Node000010_Node000005"><a xlink:title=" ">
<path fill="none" stroke="#63b8ff" d="M436.08,-167.58C446.18,-151.82 457.42,-127.5 443.75,-112 442.59,-110.69 267.62,-89.1 163.09,-76.31"/>
<polygon fill="#63b8ff" stroke="#63b8ff" points="163.81,-72.87 153.46,-75.13 162.96,-79.82 163.81,-72.87"/>
</a>
</g>
</g>
<!-- Node10&#45;&gt;Node8 -->
<g id="edge14_Node000010_Node000008" class="edge">
<title>Node10&#45;&gt;Node8</title>
<g id="a_edge14_Node000010_Node000008"><a xlink:title=" ">
<path fill="none" stroke="#63b8ff" d="M415.22,-167.55C410.4,-159.74 404.52,-150.19 399.43,-141.94"/>
<polygon fill="#63b8ff" stroke="#63b8ff" points="402.57,-140.37 394.35,-133.7 396.62,-144.05 402.57,-140.37"/>
</a>
</g>
</g>
<!-- Node10&#45;&gt;Node9 -->
<g id="edge16_Node000010_Node000009" class="edge">
<title>Node10&#45;&gt;Node9</title>
<g id="a_edge16_Node000010_Node000009"><a xlink:title=" ">
<path fill="none" stroke="#63b8ff" d="M380.46,-167.55C352.67,-157.86 317.23,-145.49 290.73,-136.25"/>
<polygon fill="#63b8ff" stroke="#63b8ff" points="292,-132.98 281.4,-132.99 289.69,-139.59 292,-132.98"/>
</a>
</g>
</g>
<!-- Node11 -->
<g id="Node000011" class="node">
<title>Node11</title>
<g id="a_Node000011"><a xlink:href="_h_i_d___keyboard___mass___storage_2_src___mass_storage_2usb__scsi_8h.html" target="_top" xlink:title="The header file of SCSI Block Command (SBC&#45;3 &amp; SPC&#45;4).">
<polygon fill="white" stroke="#666666" points="554.38,-132 491.12,-132 491.12,-112 554.38,-112 554.38,-132"/>
<text text-anchor="middle" x="522.75" y="-118.5" font-family="Helvetica,sans-Serif" font-size="10.00">usb_scsi.h</text>
</a>
</g>
</g>
<!-- Node10&#45;&gt;Node11 -->
<g id="edge17_Node000010_Node000011" class="edge">
<title>Node10&#45;&gt;Node11</title>
<g id="a_edge17_Node000010_Node000011"><a xlink:title=" ">
<path fill="none" stroke="#63b8ff" d="M449.99,-167.55C464.73,-158.52 483.27,-147.17 497.94,-138.19"/>
<polygon fill="#63b8ff" stroke="#63b8ff" points="499.39,-141.4 506.09,-133.2 495.74,-135.43 499.39,-141.4"/>
</a>
</g>
</g>
</g>
</svg>
