<?xml version="1.0" encoding="UTF-8" standalone="no"?>
<!DOCTYPE svg PUBLIC "-//W3C//DTD SVG 1.1//EN"
 "http://www.w3.org/Graphics/SVG/1.1/DTD/svg11.dtd">
<!-- Generated by graphviz version 9.0.0 (20230911.1827)
 -->
<!-- Title: D:/Note_Database/Subject/MCETA Microcontroller Experiment TA/files/HT32_STD_5xxxx_FWLib_V1.5.1_7084b/example/USBD/Virtual_COM/ht32f5xxxx_01_it.c Pages: 1 -->
<svg width="237pt" height="132pt"
 viewBox="0.00 0.00 237.00 132.00" xmlns="http://www.w3.org/2000/svg" xmlns:xlink="http://www.w3.org/1999/xlink">
<g id="graph0" class="graph" transform="scale(1 1) rotate(0) translate(4 128)">
<title>D:/Note_Database/Subject/MCETA Microcontroller Experiment TA/files/HT32_STD_5xxxx_FWLib_V1.5.1_7084b/example/USBD/Virtual_COM/ht32f5xxxx_01_it.c</title>
<!-- Node1 -->
<g id="Node000001" class="node">
<title>Node1</title>
<g id="a_Node000001"><a xlink:title="This file provides all interrupt service routine.">
<polygon fill="#999999" stroke="#666666" points="229,-124 0,-124 0,-56 229,-56 229,-124"/>
<text text-anchor="start" x="8" y="-110.5" font-family="Helvetica,sans-Serif" font-size="10.00">D:/Note_Database/Subject</text>
<text text-anchor="start" x="8" y="-98.5" font-family="Helvetica,sans-Serif" font-size="10.00">/MCETA Microcontroller</text>
<text text-anchor="start" x="8" y="-86.5" font-family="Helvetica,sans-Serif" font-size="10.00"> Experiment TA/files/HT32</text>
<text text-anchor="start" x="8" y="-74.5" font-family="Helvetica,sans-Serif" font-size="10.00">_STD_5xxxx_FWLib_V1.5.1_7084b</text>
<text text-anchor="middle" x="114.5" y="-62.5" font-family="Helvetica,sans-Serif" font-size="10.00">/example/USBD/Virtual_COM/ht32f5xxxx_01_it.c</text>
</a>
</g>
</g>
<!-- Node2 -->
<g id="Node000002" class="node">
<title>Node2</title>
<g id="a_Node000002"><a xlink:title=" ">
<polygon fill="#e0e0e0" stroke="#999999" points="93,-20 50,-20 50,0 93,0 93,-20"/>
<text text-anchor="middle" x="71.5" y="-6.5" font-family="Helvetica,sans-Serif" font-size="10.00">ht32.h</text>
</a>
</g>
</g>
<!-- Node1&#45;&gt;Node2 -->
<g id="edge1_Node000001_Node000002" class="edge">
<title>Node1&#45;&gt;Node2</title>
<g id="a_edge1_Node000001_Node000002"><a xlink:title=" ">
<path fill="none" stroke="#63b8ff" d="M96.26,-55.92C91.41,-47.12 86.33,-37.9 82.04,-30.12"/>
<polygon fill="#63b8ff" stroke="#63b8ff" points="85.24,-28.67 77.35,-21.6 79.11,-32.05 85.24,-28.67"/>
</a>
</g>
</g>
<!-- Node3 -->
<g id="Node000003" class="node">
<title>Node3</title>
<g id="a_Node000003"><a xlink:title=" ">
<polygon fill="#e0e0e0" stroke="#999999" points="204.12,-20 110.88,-20 110.88,0 204.12,0 204.12,-20"/>
<text text-anchor="middle" x="157.5" y="-6.5" font-family="Helvetica,sans-Serif" font-size="10.00">ht32_usbd_core.h</text>
</a>
</g>
</g>
<!-- Node1&#45;&gt;Node3 -->
<g id="edge2_Node000001_Node000003" class="edge">
<title>Node1&#45;&gt;Node3</title>
<g id="a_edge2_Node000001_Node000003"><a xlink:title=" ">
<path fill="none" stroke="#63b8ff" d="M132.74,-55.92C137.59,-47.12 142.67,-37.9 146.96,-30.12"/>
<polygon fill="#63b8ff" stroke="#63b8ff" points="149.89,-32.05 151.65,-21.6 143.76,-28.67 149.89,-32.05"/>
</a>
</g>
</g>
</g>
</svg>
