<?xml version="1.0" encoding="UTF-8" standalone="no"?>
<!DOCTYPE svg PUBLIC "-//W3C//DTD SVG 1.1//EN"
 "http://www.w3.org/Graphics/SVG/1.1/DTD/svg11.dtd">
<!-- Generated by graphviz version 9.0.0 (20230911.1827)
 -->
<!-- Title: D:/Note_Database/Subject/MCETA Microcontroller Experiment TA/files/HT32_STD_5xxxx_FWLib_V1.5.1_7084b/example/USBD/Mass_Storage/ht32_usbd_class.c Pages: 1 -->
<svg width="466pt" height="200pt"
 viewBox="0.00 0.00 465.50 200.00" xmlns="http://www.w3.org/2000/svg" xmlns:xlink="http://www.w3.org/1999/xlink">
<g id="graph0" class="graph" transform="scale(1 1) rotate(0) translate(4 196)">
<title>D:/Note_Database/Subject/MCETA Microcontroller Experiment TA/files/HT32_STD_5xxxx_FWLib_V1.5.1_7084b/example/USBD/Mass_Storage/ht32_usbd_class.c</title>
<!-- Node1 -->
<g id="Node000001" class="node">
<title>Node1</title>
<g id="a_Node000001"><a xlink:title="The USB Device Class.">
<polygon fill="#999999" stroke="#666666" points="233.25,-192 59.75,-192 59.75,-112 233.25,-112 233.25,-192"/>
<text text-anchor="start" x="67.75" y="-178.5" font-family="Helvetica,sans-Serif" font-size="10.00">D:/Note_Database/Subject</text>
<text text-anchor="start" x="67.75" y="-166.5" font-family="Helvetica,sans-Serif" font-size="10.00">/MCETA Microcontroller</text>
<text text-anchor="start" x="67.75" y="-154.5" font-family="Helvetica,sans-Serif" font-size="10.00"> Experiment TA/files/HT32</text>
<text text-anchor="start" x="67.75" y="-142.5" font-family="Helvetica,sans-Serif" font-size="10.00">_STD_5xxxx_FWLib_V1.5.1_7084b</text>
<text text-anchor="start" x="67.75" y="-130.5" font-family="Helvetica,sans-Serif" font-size="10.00">/example/USBD/Mass_Storage/ht32</text>
<text text-anchor="middle" x="146.5" y="-118.5" font-family="Helvetica,sans-Serif" font-size="10.00">_usbd_class.c</text>
</a>
</g>
</g>
<!-- Node2 -->
<g id="Node000002" class="node">
<title>Node2</title>
<g id="a_Node000002"><a xlink:title=" ">
<polygon fill="#e0e0e0" stroke="#999999" points="43,-76 0,-76 0,-56 43,-56 43,-76"/>
<text text-anchor="middle" x="21.5" y="-62.5" font-family="Helvetica,sans-Serif" font-size="10.00">ht32.h</text>
</a>
</g>
</g>
<!-- Node1&#45;&gt;Node2 -->
<g id="edge1_Node000001_Node000002" class="edge">
<title>Node1&#45;&gt;Node2</title>
<g id="a_edge1_Node000001_Node000002"><a xlink:title=" ">
<path fill="none" stroke="#63b8ff" d="M88.03,-111.71C72.74,-101.43 57.12,-90.94 44.87,-82.7"/>
<polygon fill="#63b8ff" stroke="#63b8ff" points="46.96,-79.89 36.7,-77.22 43.05,-85.7 46.96,-79.89"/>
</a>
</g>
</g>
<!-- Node3 -->
<g id="Node000003" class="node">
<title>Node3</title>
<g id="a_Node000003"><a xlink:title=" ">
<polygon fill="#e0e0e0" stroke="#999999" points="267.62,-20 195.38,-20 195.38,0 267.62,0 267.62,-20"/>
<text text-anchor="middle" x="231.5" y="-6.5" font-family="Helvetica,sans-Serif" font-size="10.00">ht32_board.h</text>
</a>
</g>
</g>
<!-- Node1&#45;&gt;Node3 -->
<g id="edge2_Node000001_Node000003" class="edge">
<title>Node1&#45;&gt;Node3</title>
<g id="a_edge2_Node000001_Node000003"><a xlink:title=" ">
<path fill="none" stroke="#63b8ff" d="M101.65,-111.54C87.15,-94.03 77.74,-73.47 90.5,-56 111.63,-27.08 151.55,-16.31 183.53,-12.5"/>
<polygon fill="#63b8ff" stroke="#63b8ff" points="183.79,-15.99 193.4,-11.54 183.11,-9.03 183.79,-15.99"/>
</a>
</g>
</g>
<!-- Node4 -->
<g id="Node000004" class="node">
<title>Node4</title>
<g id="a_Node000004"><a xlink:title=" ">
<polygon fill="#e0e0e0" stroke="#999999" points="193.12,-76 99.88,-76 99.88,-56 193.12,-56 193.12,-76"/>
<text text-anchor="middle" x="146.5" y="-62.5" font-family="Helvetica,sans-Serif" font-size="10.00">ht32_usbd_core.h</text>
</a>
</g>
</g>
<!-- Node1&#45;&gt;Node4 -->
<g id="edge3_Node000001_Node000004" class="edge">
<title>Node1&#45;&gt;Node4</title>
<g id="a_edge3_Node000001_Node000004"><a xlink:title=" ">
<path fill="none" stroke="#63b8ff" d="M146.5,-111.95C146.5,-103.6 146.5,-95.09 146.5,-87.76"/>
<polygon fill="#63b8ff" stroke="#63b8ff" points="150,-87.95 146.5,-77.95 143,-87.95 150,-87.95"/>
</a>
</g>
</g>
<!-- Node5 -->
<g id="Node000005" class="node">
<title>Node5</title>
<g id="a_Node000005"><a xlink:href="_u_s_b_d_2_mass___storage_2ht32__usbd__class_8h.html" target="_top" xlink:title="The header file of USB Device Class.">
<polygon fill="white" stroke="#666666" points="309.38,-76 211.62,-76 211.62,-56 309.38,-56 309.38,-76"/>
<text text-anchor="middle" x="260.5" y="-62.5" font-family="Helvetica,sans-Serif" font-size="10.00">ht32_usbd_class.h</text>
</a>
</g>
</g>
<!-- Node1&#45;&gt;Node5 -->
<g id="edge4_Node000001_Node000005" class="edge">
<title>Node1&#45;&gt;Node5</title>
<g id="a_edge4_Node000001_Node000005"><a xlink:title=" ">
<path fill="none" stroke="#63b8ff" d="M199.83,-111.71C213.49,-101.64 227.44,-91.36 238.51,-83.2"/>
<polygon fill="#63b8ff" stroke="#63b8ff" points="240.59,-86.02 246.56,-77.27 236.44,-80.38 240.59,-86.02"/>
</a>
</g>
</g>
<!-- Node6 -->
<g id="Node000006" class="node">
<title>Node6</title>
<g id="a_Node000006"><a xlink:href="_mass___storage_2usb__bulk__only__transport_8h.html" target="_top" xlink:title="The header file of Bulk Only Transport.">
<polygon fill="white" stroke="#666666" points="457.5,-76 327.5,-76 327.5,-56 457.5,-56 457.5,-76"/>
<text text-anchor="middle" x="392.5" y="-62.5" font-family="Helvetica,sans-Serif" font-size="10.00">usb_bulk_only_transport.h</text>
</a>
</g>
</g>
<!-- Node1&#45;&gt;Node6 -->
<g id="edge5_Node000001_Node000006" class="edge">
<title>Node1&#45;&gt;Node6</title>
<g id="a_edge5_Node000001_Node000006"><a xlink:title=" ">
<path fill="none" stroke="#63b8ff" d="M233.58,-121.27C274.75,-107.21 321.81,-91.14 353.97,-80.16"/>
<polygon fill="#63b8ff" stroke="#63b8ff" points="354.92,-83.53 363.25,-76.99 352.66,-76.91 354.92,-83.53"/>
</a>
</g>
</g>
<!-- Node6&#45;&gt;Node3 -->
<g id="edge6_Node000006_Node000003" class="edge">
<title>Node6&#45;&gt;Node3</title>
<g id="a_edge6_Node000006_Node000003"><a xlink:title=" ">
<path fill="none" stroke="#63b8ff" d="M364.46,-55.59C338.41,-46.86 299.4,-33.77 270.36,-24.03"/>
<polygon fill="#63b8ff" stroke="#63b8ff" points="271.79,-20.82 261.2,-20.96 269.57,-27.46 271.79,-20.82"/>
</a>
</g>
</g>
</g>
</svg>
