<?xml version="1.0" encoding="UTF-8" standalone="no"?>
<!DOCTYPE svg PUBLIC "-//W3C//DTD SVG 1.1//EN"
 "http://www.w3.org/Graphics/SVG/1.1/DTD/svg11.dtd">
<!-- Generated by graphviz version 9.0.0 (20230911.1827)
 -->
<!-- Title: D:/Note_Database/Subject/MCETA Microcontroller Experiment TA/files/HT32_STD_5xxxx_FWLib_V1.5.1_7084b/example/USBD/USB_UAC_Sound_RateControl/ht32_board_config.h Pages: 1 -->
<svg width="748pt" height="308pt"
 viewBox="0.00 0.00 747.88 308.00" xmlns="http://www.w3.org/2000/svg" xmlns:xlink="http://www.w3.org/1999/xlink">
<g id="graph0" class="graph" transform="scale(1 1) rotate(0) translate(4 304)">
<title>D:/Note_Database/Subject/MCETA Microcontroller Experiment TA/files/HT32_STD_5xxxx_FWLib_V1.5.1_7084b/example/USBD/USB_UAC_Sound_RateControl/ht32_board_config.h</title>
<!-- Node1 -->
<g id="Node000001" class="node">
<title>Node1</title>
<g id="a_Node000001"><a xlink:title="The header file of board configuration.">
<polygon fill="#999999" stroke="#666666" points="543.75,-300 320,-300 320,-220 543.75,-220 543.75,-300"/>
<text text-anchor="start" x="328" y="-286.5" font-family="Helvetica,sans-Serif" font-size="10.00">D:/Note_Database/Subject</text>
<text text-anchor="start" x="328" y="-274.5" font-family="Helvetica,sans-Serif" font-size="10.00">/MCETA Microcontroller</text>
<text text-anchor="start" x="328" y="-262.5" font-family="Helvetica,sans-Serif" font-size="10.00"> Experiment TA/files/HT32</text>
<text text-anchor="start" x="328" y="-250.5" font-family="Helvetica,sans-Serif" font-size="10.00">_STD_5xxxx_FWLib_V1.5.1_7084b</text>
<text text-anchor="start" x="328" y="-238.5" font-family="Helvetica,sans-Serif" font-size="10.00">/example/USBD/USB_UAC_Sound_RateControl</text>
<text text-anchor="middle" x="431.88" y="-226.5" font-family="Helvetica,sans-Serif" font-size="10.00">/ht32_board_config.h</text>
</a>
</g>
</g>
<!-- Node2 -->
<g id="Node000002" class="node">
<title>Node2</title>
<g id="a_Node000002"><a xlink:href="_u_s_b_d_2_u_s_b___u_a_c___sound___rate_control_2ht32f5xxxx__01__it_8c.html" target="_top" xlink:title="This file provides all interrupt service routine.">
<polygon fill="white" stroke="#666666" points="465.75,-80 242,-80 242,0 465.75,0 465.75,-80"/>
<text text-anchor="start" x="250" y="-66.5" font-family="Helvetica,sans-Serif" font-size="10.00">D:/Note_Database/Subject</text>
<text text-anchor="start" x="250" y="-54.5" font-family="Helvetica,sans-Serif" font-size="10.00">/MCETA Microcontroller</text>
<text text-anchor="start" x="250" y="-42.5" font-family="Helvetica,sans-Serif" font-size="10.00"> Experiment TA/files/HT32</text>
<text text-anchor="start" x="250" y="-30.5" font-family="Helvetica,sans-Serif" font-size="10.00">_STD_5xxxx_FWLib_V1.5.1_7084b</text>
<text text-anchor="start" x="250" y="-18.5" font-family="Helvetica,sans-Serif" font-size="10.00">/example/USBD/USB_UAC_Sound_RateControl</text>
<text text-anchor="middle" x="353.88" y="-6.5" font-family="Helvetica,sans-Serif" font-size="10.00">/ht32f5xxxx_01_it.c</text>
</a>
</g>
</g>
<!-- Node1&#45;&gt;Node2 -->
<g id="edge1_Node000001_Node000002" class="edge">
<title>Node1&#45;&gt;Node2</title>
<g id="a_edge1_Node000001_Node000002"><a xlink:title=" ">
<path fill="none" stroke="#63b8ff" d="M387.75,-210.36C381.96,-202.02 376.71,-193.09 372.88,-184 358.9,-150.89 354.62,-109.97 353.56,-80.39"/>
<polygon fill="#63b8ff" stroke="#63b8ff" points="384.84,-212.3 393.58,-218.28 390.48,-208.15 384.84,-212.3"/>
</a>
</g>
</g>
<!-- Node3 -->
<g id="Node000003" class="node">
<title>Node3</title>
<g id="a_Node000003"><a xlink:href="_u_s_b_d_2_u_s_b___u_a_c___sound___rate_control_2i2cm_8h.html" target="_top" xlink:title="The header file of I2C master driver.">
<polygon fill="white" stroke="#666666" points="637.88,-184 381.88,-184 381.88,-116 637.88,-116 637.88,-184"/>
<text text-anchor="start" x="389.88" y="-170.5" font-family="Helvetica,sans-Serif" font-size="10.00">D:/Note_Database/Subject</text>
<text text-anchor="start" x="389.88" y="-158.5" font-family="Helvetica,sans-Serif" font-size="10.00">/MCETA Microcontroller</text>
<text text-anchor="start" x="389.88" y="-146.5" font-family="Helvetica,sans-Serif" font-size="10.00"> Experiment TA/files/HT32</text>
<text text-anchor="start" x="389.88" y="-134.5" font-family="Helvetica,sans-Serif" font-size="10.00">_STD_5xxxx_FWLib_V1.5.1_7084b</text>
<text text-anchor="middle" x="509.88" y="-122.5" font-family="Helvetica,sans-Serif" font-size="10.00">/example/USBD/USB_UAC_Sound_RateControl/i2cm.h</text>
</a>
</g>
</g>
<!-- Node1&#45;&gt;Node3 -->
<g id="edge2_Node000001_Node000003" class="edge">
<title>Node1&#45;&gt;Node3</title>
<g id="a_edge2_Node000001_Node000003"><a xlink:title=" ">
<path fill="none" stroke="#63b8ff" d="M466.84,-210.59C473.23,-201.74 479.77,-192.69 485.76,-184.4"/>
<polygon fill="#63b8ff" stroke="#63b8ff" points="464.16,-208.32 461.14,-218.48 469.83,-212.42 464.16,-208.32"/>
</a>
</g>
</g>
<!-- Node4 -->
<g id="Node000004" class="node">
<title>Node4</title>
<g id="a_Node000004"><a xlink:href="_u_s_b_d_2_u_s_b___u_a_c___sound___rate_control_2main_8c.html" target="_top" xlink:title="The main program of USB Device Audio example.">
<polygon fill="white" stroke="#666666" points="739.88,-74 483.88,-74 483.88,-6 739.88,-6 739.88,-74"/>
<text text-anchor="start" x="491.88" y="-60.5" font-family="Helvetica,sans-Serif" font-size="10.00">D:/Note_Database/Subject</text>
<text text-anchor="start" x="491.88" y="-48.5" font-family="Helvetica,sans-Serif" font-size="10.00">/MCETA Microcontroller</text>
<text text-anchor="start" x="491.88" y="-36.5" font-family="Helvetica,sans-Serif" font-size="10.00"> Experiment TA/files/HT32</text>
<text text-anchor="start" x="491.88" y="-24.5" font-family="Helvetica,sans-Serif" font-size="10.00">_STD_5xxxx_FWLib_V1.5.1_7084b</text>
<text text-anchor="middle" x="611.88" y="-12.5" font-family="Helvetica,sans-Serif" font-size="10.00">/example/USBD/USB_UAC_Sound_RateControl/main.c</text>
</a>
</g>
</g>
<!-- Node1&#45;&gt;Node4 -->
<g id="edge5_Node000001_Node000004" class="edge">
<title>Node1&#45;&gt;Node4</title>
<g id="a_edge5_Node000001_Node000004"><a xlink:title=" ">
<path fill="none" stroke="#63b8ff" d="M555.07,-243.39C590.47,-232.55 625.3,-214.38 646.88,-184 670.04,-151.39 651.8,-105.21 634.12,-74.24"/>
<polygon fill="#63b8ff" stroke="#63b8ff" points="554.19,-240 545.53,-246.11 556.11,-246.74 554.19,-240"/>
</a>
</g>
</g>
<!-- Node5 -->
<g id="Node000005" class="node">
<title>Node5</title>
<g id="a_Node000005"><a xlink:href="main_8h.html" target="_top" xlink:title="The API between application and HT32FXXXX Firmware Library.">
<polygon fill="white" stroke="#666666" points="325.88,-184 69.88,-184 69.88,-116 325.88,-116 325.88,-184"/>
<text text-anchor="start" x="77.88" y="-170.5" font-family="Helvetica,sans-Serif" font-size="10.00">D:/Note_Database/Subject</text>
<text text-anchor="start" x="77.88" y="-158.5" font-family="Helvetica,sans-Serif" font-size="10.00">/MCETA Microcontroller</text>
<text text-anchor="start" x="77.88" y="-146.5" font-family="Helvetica,sans-Serif" font-size="10.00"> Experiment TA/files/HT32</text>
<text text-anchor="start" x="77.88" y="-134.5" font-family="Helvetica,sans-Serif" font-size="10.00">_STD_5xxxx_FWLib_V1.5.1_7084b</text>
<text text-anchor="middle" x="197.88" y="-122.5" font-family="Helvetica,sans-Serif" font-size="10.00">/example/USBD/USB_UAC_Sound_RateControl/main.h</text>
</a>
</g>
</g>
<!-- Node1&#45;&gt;Node5 -->
<g id="edge6_Node000001_Node000005" class="edge">
<title>Node1&#45;&gt;Node5</title>
<g id="a_edge6_Node000001_Node000005"><a xlink:title=" ">
<path fill="none" stroke="#63b8ff" d="M336.07,-214.78C314.14,-204.66 291.18,-194.06 270.41,-184.48"/>
<polygon fill="#63b8ff" stroke="#63b8ff" points="334.48,-217.9 345.03,-218.92 337.42,-211.55 334.48,-217.9"/>
</a>
</g>
</g>
<!-- Node3&#45;&gt;Node2 -->
<g id="edge3_Node000003_Node000002" class="edge">
<title>Node3&#45;&gt;Node2</title>
<g id="a_edge3_Node000003_Node000002"><a xlink:title=" ">
<path fill="none" stroke="#63b8ff" d="M452.54,-109.31C438.94,-99.89 424.42,-89.84 410.83,-80.43"/>
<polygon fill="#63b8ff" stroke="#63b8ff" points="450.34,-112.04 460.55,-114.85 454.32,-106.28 450.34,-112.04"/>
</a>
</g>
</g>
<!-- Node3&#45;&gt;Node4 -->
<g id="edge4_Node000003_Node000004" class="edge">
<title>Node3&#45;&gt;Node4</title>
<g id="a_edge4_Node000003_Node000004"><a xlink:title=" ">
<path fill="none" stroke="#63b8ff" d="M549.07,-107.5C559.43,-96.53 570.47,-84.84 580.37,-74.36"/>
<polygon fill="#63b8ff" stroke="#63b8ff" points="546.67,-104.94 542.35,-114.61 551.76,-109.75 546.67,-104.94"/>
</a>
</g>
</g>
<!-- Node5&#45;&gt;Node2 -->
<g id="edge8_Node000005_Node000002" class="edge">
<title>Node5&#45;&gt;Node2</title>
<g id="a_edge8_Node000005_Node000002"><a xlink:title=" ">
<path fill="none" stroke="#63b8ff" d="M255.21,-109.31C268.81,-99.89 283.33,-89.84 296.92,-80.43"/>
<polygon fill="#63b8ff" stroke="#63b8ff" points="253.43,-106.28 247.2,-114.85 257.41,-112.04 253.43,-106.28"/>
</a>
</g>
</g>
<!-- Node5&#45;&gt;Node4 -->
<g id="edge9_Node000005_Node000004" class="edge">
<title>Node5&#45;&gt;Node4</title>
<g id="a_edge9_Node000005_Node000004"><a xlink:title=" ">
<path fill="none" stroke="#63b8ff" d="M337.45,-115.19C381.49,-104.27 430.29,-91.9 474.88,-80 481.57,-78.21 488.43,-76.35 495.35,-74.45"/>
<polygon fill="#63b8ff" stroke="#63b8ff" points="336.69,-111.77 327.83,-117.57 338.38,-118.57 336.69,-111.77"/>
</a>
</g>
</g>
<!-- Node6 -->
<g id="Node000006" class="node">
<title>Node6</title>
<g id="a_Node000006"><a xlink:href="_u_s_b_d_2_u_s_b___u_a_c___sound___rate_control_2ht32__usbd__class_8c.html" target="_top" xlink:title="The USB Device Class.">
<polygon fill="white" stroke="#666666" points="223.75,-80 0,-80 0,0 223.75,0 223.75,-80"/>
<text text-anchor="start" x="8" y="-66.5" font-family="Helvetica,sans-Serif" font-size="10.00">D:/Note_Database/Subject</text>
<text text-anchor="start" x="8" y="-54.5" font-family="Helvetica,sans-Serif" font-size="10.00">/MCETA Microcontroller</text>
<text text-anchor="start" x="8" y="-42.5" font-family="Helvetica,sans-Serif" font-size="10.00"> Experiment TA/files/HT32</text>
<text text-anchor="start" x="8" y="-30.5" font-family="Helvetica,sans-Serif" font-size="10.00">_STD_5xxxx_FWLib_V1.5.1_7084b</text>
<text text-anchor="start" x="8" y="-18.5" font-family="Helvetica,sans-Serif" font-size="10.00">/example/USBD/USB_UAC_Sound_RateControl</text>
<text text-anchor="middle" x="111.88" y="-6.5" font-family="Helvetica,sans-Serif" font-size="10.00">/ht32_usbd_class.c</text>
</a>
</g>
</g>
<!-- Node5&#45;&gt;Node6 -->
<g id="edge7_Node000005_Node000006" class="edge">
<title>Node5&#45;&gt;Node6</title>
<g id="a_edge7_Node000005_Node000006"><a xlink:title=" ">
<path fill="none" stroke="#63b8ff" d="M164.31,-106.85C157.39,-98.15 150.12,-89.03 143.27,-80.43"/>
<polygon fill="#63b8ff" stroke="#63b8ff" points="161.46,-108.89 170.43,-114.53 166.94,-104.53 161.46,-108.89"/>
</a>
</g>
</g>
</g>
</svg>
