<?xml version="1.0" encoding="UTF-8" standalone="no"?>
<!DOCTYPE svg PUBLIC "-//W3C//DTD SVG 1.1//EN"
 "http://www.w3.org/Graphics/SVG/1.1/DTD/svg11.dtd">
<!-- Generated by graphviz version 9.0.0 (20230911.1827)
 -->
<!-- Title: D:/Note_Database/Subject/MCETA Microcontroller Experiment TA/files/HT32_STD_5xxxx_FWLib_V1.5.1_7084b/example/USBD/HID_Keyboard_Virtual_COM/ht32_usbd_class.c Pages: 1 -->
<svg width="623pt" height="144pt"
 viewBox="0.00 0.00 623.00 144.00" xmlns="http://www.w3.org/2000/svg" xmlns:xlink="http://www.w3.org/1999/xlink">
<g id="graph0" class="graph" transform="scale(1 1) rotate(0) translate(4 140)">
<title>D:/Note_Database/Subject/MCETA Microcontroller Experiment TA/files/HT32_STD_5xxxx_FWLib_V1.5.1_7084b/example/USBD/HID_Keyboard_Virtual_COM/ht32_usbd_class.c</title>
<!-- Node1 -->
<g id="Node000001" class="node">
<title>Node1</title>
<g id="a_Node000001"><a xlink:title="The USB Device Class.">
<polygon fill="#999999" stroke="#666666" points="347.5,-136 163.5,-136 163.5,-56 347.5,-56 347.5,-136"/>
<text text-anchor="start" x="171.5" y="-122.5" font-family="Helvetica,sans-Serif" font-size="10.00">D:/Note_Database/Subject</text>
<text text-anchor="start" x="171.5" y="-110.5" font-family="Helvetica,sans-Serif" font-size="10.00">/MCETA Microcontroller</text>
<text text-anchor="start" x="171.5" y="-98.5" font-family="Helvetica,sans-Serif" font-size="10.00"> Experiment TA/files/HT32</text>
<text text-anchor="start" x="171.5" y="-86.5" font-family="Helvetica,sans-Serif" font-size="10.00">_STD_5xxxx_FWLib_V1.5.1_7084b</text>
<text text-anchor="start" x="171.5" y="-74.5" font-family="Helvetica,sans-Serif" font-size="10.00">/example/USBD/HID_Keyboard_Virtual</text>
<text text-anchor="middle" x="255.5" y="-62.5" font-family="Helvetica,sans-Serif" font-size="10.00">_COM/ht32_usbd_class.c</text>
</a>
</g>
</g>
<!-- Node2 -->
<g id="Node000002" class="node">
<title>Node2</title>
<g id="a_Node000002"><a xlink:title=" ">
<polygon fill="#e0e0e0" stroke="#999999" points="43,-20 0,-20 0,0 43,0 43,-20"/>
<text text-anchor="middle" x="21.5" y="-6.5" font-family="Helvetica,sans-Serif" font-size="10.00">ht32.h</text>
</a>
</g>
</g>
<!-- Node1&#45;&gt;Node2 -->
<g id="edge1_Node000001_Node000002" class="edge">
<title>Node1&#45;&gt;Node2</title>
<g id="a_edge1_Node000001_Node000002"><a xlink:title=" ">
<path fill="none" stroke="#63b8ff" d="M163.02,-61.8C124.62,-48.02 82.53,-32.91 54.32,-22.78"/>
<polygon fill="#63b8ff" stroke="#63b8ff" points="55.51,-19.49 44.92,-19.41 53.15,-26.08 55.51,-19.49"/>
</a>
</g>
</g>
<!-- Node3 -->
<g id="Node000003" class="node">
<title>Node3</title>
<g id="a_Node000003"><a xlink:title=" ">
<polygon fill="#e0e0e0" stroke="#999999" points="133.62,-20 61.38,-20 61.38,0 133.62,0 133.62,-20"/>
<text text-anchor="middle" x="97.5" y="-6.5" font-family="Helvetica,sans-Serif" font-size="10.00">ht32_board.h</text>
</a>
</g>
</g>
<!-- Node1&#45;&gt;Node3 -->
<g id="edge2_Node000001_Node000003" class="edge">
<title>Node1&#45;&gt;Node3</title>
<g id="a_edge2_Node000001_Node000003"><a xlink:title=" ">
<path fill="none" stroke="#63b8ff" d="M181.59,-55.71C161.49,-45.02 140.95,-34.1 125.2,-25.73"/>
<polygon fill="#63b8ff" stroke="#63b8ff" points="126.94,-22.69 116.47,-21.08 123.65,-28.87 126.94,-22.69"/>
</a>
</g>
</g>
<!-- Node4 -->
<g id="Node000004" class="node">
<title>Node4</title>
<g id="a_Node000004"><a xlink:title=" ">
<polygon fill="#e0e0e0" stroke="#999999" points="245.12,-20 151.88,-20 151.88,0 245.12,0 245.12,-20"/>
<text text-anchor="middle" x="198.5" y="-6.5" font-family="Helvetica,sans-Serif" font-size="10.00">ht32_usbd_core.h</text>
</a>
</g>
</g>
<!-- Node1&#45;&gt;Node4 -->
<g id="edge3_Node000001_Node000004" class="edge">
<title>Node1&#45;&gt;Node4</title>
<g id="a_edge3_Node000001_Node000004"><a xlink:title=" ">
<path fill="none" stroke="#63b8ff" d="M229,-55.95C222.85,-46.88 216.56,-37.62 211.31,-29.89"/>
<polygon fill="#63b8ff" stroke="#63b8ff" points="214.26,-28 205.75,-21.69 208.47,-31.93 214.26,-28"/>
</a>
</g>
</g>
<!-- Node5 -->
<g id="Node000005" class="node">
<title>Node5</title>
<g id="a_Node000005"><a xlink:href="_u_s_b_d_2_h_i_d___keyboard___virtual___c_o_m_2ht32__usbd__class_8h.html" target="_top" xlink:title="The header file of USB Device Class.">
<polygon fill="white" stroke="#666666" points="361.38,-20 263.62,-20 263.62,0 361.38,0 361.38,-20"/>
<text text-anchor="middle" x="312.5" y="-6.5" font-family="Helvetica,sans-Serif" font-size="10.00">ht32_usbd_class.h</text>
</a>
</g>
</g>
<!-- Node1&#45;&gt;Node5 -->
<g id="edge4_Node000001_Node000005" class="edge">
<title>Node1&#45;&gt;Node5</title>
<g id="a_edge4_Node000001_Node000005"><a xlink:title=" ">
<path fill="none" stroke="#63b8ff" d="M282,-55.95C288.15,-46.88 294.44,-37.62 299.69,-29.89"/>
<polygon fill="#63b8ff" stroke="#63b8ff" points="302.53,-31.93 305.25,-21.69 296.74,-28 302.53,-31.93"/>
</a>
</g>
</g>
<!-- Node6 -->
<g id="Node000006" class="node">
<title>Node6</title>
<g id="a_Node000006"><a xlink:title=" ">
<polygon fill="#e0e0e0" stroke="#999999" points="488,-20 379,-20 379,0 488,0 488,-20"/>
<text text-anchor="middle" x="433.5" y="-6.5" font-family="Helvetica,sans-Serif" font-size="10.00">common/ring_buffer.h</text>
</a>
</g>
</g>
<!-- Node1&#45;&gt;Node6 -->
<g id="edge5_Node000001_Node000006" class="edge">
<title>Node1&#45;&gt;Node6</title>
<g id="a_edge5_Node000001_Node000006"><a xlink:title=" ">
<path fill="none" stroke="#63b8ff" d="M339.03,-55.58C362.07,-44.71 385.6,-33.61 403.41,-25.2"/>
<polygon fill="#63b8ff" stroke="#63b8ff" points="404.79,-28.42 412.34,-20.99 401.8,-22.09 404.79,-28.42"/>
</a>
</g>
</g>
<!-- Node7 -->
<g id="Node000007" class="node">
<title>Node7</title>
<g id="a_Node000007"><a xlink:title=" ">
<polygon fill="#e0e0e0" stroke="#999999" points="615,-20 506,-20 506,0 615,0 615,-20"/>
<text text-anchor="middle" x="560.5" y="-6.5" font-family="Helvetica,sans-Serif" font-size="10.00">common/ring_buffer.c</text>
</a>
</g>
</g>
<!-- Node1&#45;&gt;Node7 -->
<g id="edge6_Node000001_Node000007" class="edge">
<title>Node1&#45;&gt;Node7</title>
<g id="a_edge6_Node000001_Node000007"><a xlink:title=" ">
<path fill="none" stroke="#63b8ff" d="M347.84,-69.57C403.32,-54.29 471.46,-35.52 515.41,-23.42"/>
<polygon fill="#63b8ff" stroke="#63b8ff" points="516.15,-26.85 524.86,-20.82 514.29,-20.1 516.15,-26.85"/>
</a>
</g>
</g>
</g>
</svg>
