<?xml version="1.0" encoding="UTF-8" standalone="no"?>
<!DOCTYPE svg PUBLIC "-//W3C//DTD SVG 1.1//EN"
 "http://www.w3.org/Graphics/SVG/1.1/DTD/svg11.dtd">
<!-- Generated by graphviz version 9.0.0 (20230911.1827)
 -->
<!-- Title: D:/Note_Database/Subject/MCETA Microcontroller Experiment TA/files/HT32_STD_5xxxx_FWLib_V1.5.1_7084b/example/USBD/USB_UAC_Sound/main.c Pages: 1 -->
<svg width="835pt" height="132pt"
 viewBox="0.00 0.00 834.75 132.00" xmlns="http://www.w3.org/2000/svg" xmlns:xlink="http://www.w3.org/1999/xlink">
<g id="graph0" class="graph" transform="scale(1 1) rotate(0) translate(4 128)">
<title>D:/Note_Database/Subject/MCETA Microcontroller Experiment TA/files/HT32_STD_5xxxx_FWLib_V1.5.1_7084b/example/USBD/USB_UAC_Sound/main.c</title>
<!-- Node1 -->
<g id="Node000001" class="node">
<title>Node1</title>
<g id="a_Node000001"><a xlink:title="The main program of USB Device Audio example.">
<polygon fill="#999999" stroke="#666666" points="462,-124 262.25,-124 262.25,-56 462,-56 462,-124"/>
<text text-anchor="start" x="270.25" y="-110.5" font-family="Helvetica,sans-Serif" font-size="10.00">D:/Note_Database/Subject</text>
<text text-anchor="start" x="270.25" y="-98.5" font-family="Helvetica,sans-Serif" font-size="10.00">/MCETA Microcontroller</text>
<text text-anchor="start" x="270.25" y="-86.5" font-family="Helvetica,sans-Serif" font-size="10.00"> Experiment TA/files/HT32</text>
<text text-anchor="start" x="270.25" y="-74.5" font-family="Helvetica,sans-Serif" font-size="10.00">_STD_5xxxx_FWLib_V1.5.1_7084b</text>
<text text-anchor="middle" x="362.12" y="-62.5" font-family="Helvetica,sans-Serif" font-size="10.00">/example/USBD/USB_UAC_Sound/main.c</text>
</a>
</g>
</g>
<!-- Node2 -->
<g id="Node000002" class="node">
<title>Node2</title>
<g id="a_Node000002"><a xlink:title=" ">
<polygon fill="#e0e0e0" stroke="#999999" points="48.25,-20 0,-20 0,0 48.25,0 48.25,-20"/>
<text text-anchor="middle" x="24.12" y="-6.5" font-family="Helvetica,sans-Serif" font-size="10.00">string.h</text>
</a>
</g>
</g>
<!-- Node1&#45;&gt;Node2 -->
<g id="edge1_Node000001_Node000002" class="edge">
<title>Node1&#45;&gt;Node2</title>
<g id="a_edge1_Node000001_Node000002"><a xlink:title=" ">
<path fill="none" stroke="#63b8ff" d="M261.93,-67.49C205.09,-55.01 132.4,-38.6 59.38,-20.49"/>
<polygon fill="#63b8ff" stroke="#63b8ff" points="60.62,-17.19 50.07,-18.17 58.93,-23.98 60.62,-17.19"/>
</a>
</g>
</g>
<!-- Node3 -->
<g id="Node000003" class="node">
<title>Node3</title>
<g id="a_Node000003"><a xlink:title=" ">
<polygon fill="#e0e0e0" stroke="#999999" points="109.62,-20 66.62,-20 66.62,0 109.62,0 109.62,-20"/>
<text text-anchor="middle" x="88.12" y="-6.5" font-family="Helvetica,sans-Serif" font-size="10.00">ht32.h</text>
</a>
</g>
</g>
<!-- Node1&#45;&gt;Node3 -->
<g id="edge2_Node000001_Node000003" class="edge">
<title>Node1&#45;&gt;Node3</title>
<g id="a_edge2_Node000001_Node000003"><a xlink:title=" ">
<path fill="none" stroke="#63b8ff" d="M261.89,-60.68C220.87,-49.06 172.69,-35.36 120.62,-20.42"/>
<polygon fill="#63b8ff" stroke="#63b8ff" points="121.83,-17.12 111.26,-17.73 119.9,-23.85 121.83,-17.12"/>
</a>
</g>
</g>
<!-- Node4 -->
<g id="Node000004" class="node">
<title>Node4</title>
<g id="a_Node000004"><a xlink:title=" ">
<polygon fill="#e0e0e0" stroke="#999999" points="200.25,-20 128,-20 128,0 200.25,0 200.25,-20"/>
<text text-anchor="middle" x="164.12" y="-6.5" font-family="Helvetica,sans-Serif" font-size="10.00">ht32_board.h</text>
</a>
</g>
</g>
<!-- Node1&#45;&gt;Node4 -->
<g id="edge3_Node000001_Node000004" class="edge">
<title>Node1&#45;&gt;Node4</title>
<g id="a_edge3_Node000001_Node000004"><a xlink:title=" ">
<path fill="none" stroke="#63b8ff" d="M277.29,-55.58C249.59,-44.67 220.36,-33.16 198.56,-24.56"/>
<polygon fill="#63b8ff" stroke="#63b8ff" points="199.87,-21.32 189.29,-20.91 197.31,-27.83 199.87,-21.32"/>
</a>
</g>
</g>
<!-- Node5 -->
<g id="Node000005" class="node">
<title>Node5</title>
<g id="a_Node000005"><a xlink:href="_u_s_b_d_2_u_s_b___u_a_c___sound_2ht32__board__config_8h.html" target="_top" xlink:title="The header file of board configuration.">
<polygon fill="white" stroke="#666666" points="321.62,-20 218.62,-20 218.62,0 321.62,0 321.62,-20"/>
<text text-anchor="middle" x="270.12" y="-6.5" font-family="Helvetica,sans-Serif" font-size="10.00">ht32_board_config.h</text>
</a>
</g>
</g>
<!-- Node1&#45;&gt;Node5 -->
<g id="edge4_Node000001_Node000005" class="edge">
<title>Node1&#45;&gt;Node5</title>
<g id="a_edge4_Node000001_Node000005"><a xlink:title=" ">
<path fill="none" stroke="#63b8ff" d="M322.84,-55.69C311.41,-46.01 299.42,-35.84 289.77,-27.65"/>
<polygon fill="#63b8ff" stroke="#63b8ff" points="292.04,-24.99 282.15,-21.2 287.52,-30.33 292.04,-24.99"/>
</a>
</g>
</g>
<!-- Node6 -->
<g id="Node000006" class="node">
<title>Node6</title>
<g id="a_Node000006"><a xlink:href="_u_s_b_d_2_u_s_b___u_a_c___sound_2i2cm_8h.html" target="_top" xlink:title="The header file of I2C master driver.">
<polygon fill="white" stroke="#666666" points="384.75,-20 339.5,-20 339.5,0 384.75,0 384.75,-20"/>
<text text-anchor="middle" x="362.12" y="-6.5" font-family="Helvetica,sans-Serif" font-size="10.00">i2cm.h</text>
</a>
</g>
</g>
<!-- Node1&#45;&gt;Node6 -->
<g id="edge5_Node000001_Node000006" class="edge">
<title>Node1&#45;&gt;Node6</title>
<g id="a_edge5_Node000001_Node000006"><a xlink:title=" ">
<path fill="none" stroke="#63b8ff" d="M362.12,-55.92C362.12,-47.72 362.12,-39.17 362.12,-31.75"/>
<polygon fill="#63b8ff" stroke="#63b8ff" points="365.63,-31.79 362.13,-21.79 358.63,-31.79 365.63,-31.79"/>
</a>
</g>
</g>
<!-- Node7 -->
<g id="Node000007" class="node">
<title>Node7</title>
<g id="a_Node000007"><a xlink:href="_u_s_b_d_2_u_s_b___u_a_c___sound_2wm8978_8h.html" target="_top" xlink:title="The header file of wm8978 driver.">
<polygon fill="white" stroke="#666666" points="463.25,-20 403,-20 403,0 463.25,0 463.25,-20"/>
<text text-anchor="middle" x="433.12" y="-6.5" font-family="Helvetica,sans-Serif" font-size="10.00">wm8978.h</text>
</a>
</g>
</g>
<!-- Node1&#45;&gt;Node7 -->
<g id="edge6_Node000001_Node000007" class="edge">
<title>Node1&#45;&gt;Node7</title>
<g id="a_edge6_Node000001_Node000007"><a xlink:title=" ">
<path fill="none" stroke="#63b8ff" d="M392.24,-55.92C400.8,-46.51 409.8,-36.63 417.17,-28.53"/>
<polygon fill="#63b8ff" stroke="#63b8ff" points="419.52,-31.15 423.66,-21.4 414.34,-26.44 419.52,-31.15"/>
</a>
</g>
</g>
<!-- Node8 -->
<g id="Node000008" class="node">
<title>Node8</title>
<g id="a_Node000008"><a xlink:title=" ">
<polygon fill="#e0e0e0" stroke="#999999" points="574.75,-20 481.5,-20 481.5,0 574.75,0 574.75,-20"/>
<text text-anchor="middle" x="528.12" y="-6.5" font-family="Helvetica,sans-Serif" font-size="10.00">ht32_usbd_core.h</text>
</a>
</g>
</g>
<!-- Node1&#45;&gt;Node8 -->
<g id="edge7_Node000001_Node000008" class="edge">
<title>Node1&#45;&gt;Node8</title>
<g id="a_edge7_Node000001_Node000008"><a xlink:title=" ">
<path fill="none" stroke="#63b8ff" d="M433.01,-55.69C455.73,-45.01 479.7,-33.75 497.89,-25.21"/>
<polygon fill="#63b8ff" stroke="#63b8ff" points="499.21,-28.45 506.78,-21.03 496.24,-22.12 499.21,-28.45"/>
</a>
</g>
</g>
<!-- Node9 -->
<g id="Node000009" class="node">
<title>Node9</title>
<g id="a_Node000009"><a xlink:href="_u_s_b_d_2_u_s_b___u_a_c___sound_2ht32__usbd__class_8h.html" target="_top" xlink:title="The header file of USB Device Class.">
<polygon fill="white" stroke="#666666" points="691,-20 593.25,-20 593.25,0 691,0 691,-20"/>
<text text-anchor="middle" x="642.12" y="-6.5" font-family="Helvetica,sans-Serif" font-size="10.00">ht32_usbd_class.h</text>
</a>
</g>
</g>
<!-- Node1&#45;&gt;Node9 -->
<g id="edge8_Node000001_Node000009" class="edge">
<title>Node1&#45;&gt;Node9</title>
<g id="a_edge8_Node000001_Node000009"><a xlink:title=" ">
<path fill="none" stroke="#63b8ff" d="M462.42,-61.06C508.64,-48.19 561.15,-33.56 597.42,-23.45"/>
<polygon fill="#63b8ff" stroke="#63b8ff" points="597.98,-26.93 606.67,-20.88 596.1,-20.19 597.98,-26.93"/>
</a>
</g>
</g>
<!-- Node10 -->
<g id="Node000010" class="node">
<title>Node10</title>
<g id="a_Node000010"><a xlink:href="_u_s_b_d_2_u_s_b___u_a_c___sound_2ht32__usbd__descriptor_8h.html" target="_top" xlink:title="The USB descriptor.">
<polygon fill="white" stroke="#666666" points="826.75,-20 709.5,-20 709.5,0 826.75,0 826.75,-20"/>
<text text-anchor="middle" x="768.12" y="-6.5" font-family="Helvetica,sans-Serif" font-size="10.00">ht32_usbd_descriptor.h</text>
</a>
</g>
</g>
<!-- Node1&#45;&gt;Node10 -->
<g id="edge9_Node000001_Node000010" class="edge">
<title>Node1&#45;&gt;Node10</title>
<g id="a_edge9_Node000001_Node000010"><a xlink:title=" ">
<path fill="none" stroke="#63b8ff" d="M462.48,-69.72C539.35,-54.95 642.86,-35.06 707.53,-22.64"/>
<polygon fill="#63b8ff" stroke="#63b8ff" points="708.1,-26.1 717.26,-20.77 706.78,-19.22 708.1,-26.1"/>
</a>
</g>
</g>
</g>
</svg>
