<?xml version="1.0" encoding="UTF-8" standalone="no"?>
<!DOCTYPE svg PUBLIC "-//W3C//DTD SVG 1.1//EN"
 "http://www.w3.org/Graphics/SVG/1.1/DTD/svg11.dtd">
<!-- Generated by graphviz version 9.0.0 (20230911.1827)
 -->
<!-- Title: D:/Note_Database/Subject/MCETA Microcontroller Experiment TA/files/HT32_STD_5xxxx_FWLib_V1.5.1_7084b/example/USBD/USB_UAC_Sound_RateControl/main.c Pages: 1 -->
<svg width="792pt" height="188pt"
 viewBox="0.00 0.00 791.75 188.00" xmlns="http://www.w3.org/2000/svg" xmlns:xlink="http://www.w3.org/1999/xlink">
<g id="graph0" class="graph" transform="scale(1 1) rotate(0) translate(4 184)">
<title>D:/Note_Database/Subject/MCETA Microcontroller Experiment TA/files/HT32_STD_5xxxx_FWLib_V1.5.1_7084b/example/USBD/USB_UAC_Sound_RateControl/main.c</title>
<!-- Node1 -->
<g id="Node000001" class="node">
<title>Node1</title>
<g id="a_Node000001"><a xlink:title="The main program of USB Device Audio example.">
<polygon fill="#999999" stroke="#666666" points="421.12,-180 165.12,-180 165.12,-112 421.12,-112 421.12,-180"/>
<text text-anchor="start" x="173.12" y="-166.5" font-family="Helvetica,sans-Serif" font-size="10.00">D:/Note_Database/Subject</text>
<text text-anchor="start" x="173.12" y="-154.5" font-family="Helvetica,sans-Serif" font-size="10.00">/MCETA Microcontroller</text>
<text text-anchor="start" x="173.12" y="-142.5" font-family="Helvetica,sans-Serif" font-size="10.00"> Experiment TA/files/HT32</text>
<text text-anchor="start" x="173.12" y="-130.5" font-family="Helvetica,sans-Serif" font-size="10.00">_STD_5xxxx_FWLib_V1.5.1_7084b</text>
<text text-anchor="middle" x="293.12" y="-118.5" font-family="Helvetica,sans-Serif" font-size="10.00">/example/USBD/USB_UAC_Sound_RateControl/main.c</text>
</a>
</g>
</g>
<!-- Node2 -->
<g id="Node000002" class="node">
<title>Node2</title>
<g id="a_Node000002"><a xlink:title=" ">
<polygon fill="#e0e0e0" stroke="#999999" points="48.25,-76 0,-76 0,-56 48.25,-56 48.25,-76"/>
<text text-anchor="middle" x="24.12" y="-62.5" font-family="Helvetica,sans-Serif" font-size="10.00">string.h</text>
</a>
</g>
</g>
<!-- Node1&#45;&gt;Node2 -->
<g id="edge1_Node000001_Node000002" class="edge">
<title>Node1&#45;&gt;Node2</title>
<g id="a_edge1_Node000001_Node000002"><a xlink:title=" ">
<path fill="none" stroke="#63b8ff" d="M177.87,-111.58C135.14,-99.19 89.75,-86.03 59.46,-77.25"/>
<polygon fill="#63b8ff" stroke="#63b8ff" points="60.66,-73.95 50.08,-74.53 58.71,-80.67 60.66,-73.95"/>
</a>
</g>
</g>
<!-- Node3 -->
<g id="Node000003" class="node">
<title>Node3</title>
<g id="a_Node000003"><a xlink:title=" ">
<polygon fill="#e0e0e0" stroke="#999999" points="148.62,-20 105.62,-20 105.62,0 148.62,0 148.62,-20"/>
<text text-anchor="middle" x="127.12" y="-6.5" font-family="Helvetica,sans-Serif" font-size="10.00">ht32.h</text>
</a>
</g>
</g>
<!-- Node1&#45;&gt;Node3 -->
<g id="edge2_Node000001_Node000003" class="edge">
<title>Node1&#45;&gt;Node3</title>
<g id="a_edge2_Node000001_Node000003"><a xlink:title=" ">
<path fill="none" stroke="#63b8ff" d="M164.71,-125.57C137.49,-115.28 111.94,-99.67 95.12,-76 84.49,-61.03 96.4,-41.99 108.59,-28.39"/>
<polygon fill="#63b8ff" stroke="#63b8ff" points="110.9,-31.04 115.36,-21.43 105.88,-26.16 110.9,-31.04"/>
</a>
</g>
</g>
<!-- Node4 -->
<g id="Node000004" class="node">
<title>Node4</title>
<g id="a_Node000004"><a xlink:title=" ">
<polygon fill="#e0e0e0" stroke="#999999" points="176.25,-76 104,-76 104,-56 176.25,-56 176.25,-76"/>
<text text-anchor="middle" x="140.12" y="-62.5" font-family="Helvetica,sans-Serif" font-size="10.00">ht32_board.h</text>
</a>
</g>
</g>
<!-- Node1&#45;&gt;Node4 -->
<g id="edge3_Node000001_Node000004" class="edge">
<title>Node1&#45;&gt;Node4</title>
<g id="a_edge3_Node000001_Node000004"><a xlink:title=" ">
<path fill="none" stroke="#63b8ff" d="M227.8,-111.69C207.14,-101.17 185.38,-90.07 168.7,-81.57"/>
<polygon fill="#63b8ff" stroke="#63b8ff" points="170.39,-78.5 159.89,-77.07 167.21,-84.73 170.39,-78.5"/>
</a>
</g>
</g>
<!-- Node5 -->
<g id="Node000005" class="node">
<title>Node5</title>
<g id="a_Node000005"><a xlink:href="_u_s_b_d_2_u_s_b___u_a_c___sound___rate_control_2ht32__board__config_8h.html" target="_top" xlink:title="The header file of board configuration.">
<polygon fill="white" stroke="#666666" points="319.62,-20 216.62,-20 216.62,0 319.62,0 319.62,-20"/>
<text text-anchor="middle" x="268.12" y="-6.5" font-family="Helvetica,sans-Serif" font-size="10.00">ht32_board_config.h</text>
</a>
</g>
</g>
<!-- Node1&#45;&gt;Node5 -->
<g id="edge4_Node000001_Node000005" class="edge">
<title>Node1&#45;&gt;Node5</title>
<g id="a_edge4_Node000001_Node000005"><a xlink:title=" ">
<path fill="none" stroke="#63b8ff" d="M286.88,-111.53C282.19,-86.38 275.91,-52.73 271.94,-31.45"/>
<polygon fill="#63b8ff" stroke="#63b8ff" points="275.4,-30.93 270.13,-21.74 268.52,-32.21 275.4,-30.93"/>
</a>
</g>
</g>
<!-- Node6 -->
<g id="Node000006" class="node">
<title>Node6</title>
<g id="a_Node000006"><a xlink:href="main_8h.html" target="_top" xlink:title="The API between application and HT32FXXXX Firmware Library.">
<polygon fill="white" stroke="#666666" points="239.75,-76 194.5,-76 194.5,-56 239.75,-56 239.75,-76"/>
<text text-anchor="middle" x="217.12" y="-62.5" font-family="Helvetica,sans-Serif" font-size="10.00">main.h</text>
</a>
</g>
</g>
<!-- Node1&#45;&gt;Node6 -->
<g id="edge5_Node000001_Node000006" class="edge">
<title>Node1&#45;&gt;Node6</title>
<g id="a_edge5_Node000001_Node000006"><a xlink:title=" ">
<path fill="none" stroke="#63b8ff" d="M260.89,-111.92C251.62,-102.41 241.89,-92.41 233.95,-84.27"/>
<polygon fill="#63b8ff" stroke="#63b8ff" points="236.71,-82.08 227.22,-77.36 231.69,-86.97 236.71,-82.08"/>
</a>
</g>
</g>
<!-- Node7 -->
<g id="Node000007" class="node">
<title>Node7</title>
<g id="a_Node000007"><a xlink:href="_u_s_b_d_2_u_s_b___u_a_c___sound___rate_control_2i2cm_8h.html" target="_top" xlink:title="The header file of I2C master driver.">
<polygon fill="white" stroke="#666666" points="341.75,-76 296.5,-76 296.5,-56 341.75,-56 341.75,-76"/>
<text text-anchor="middle" x="319.12" y="-62.5" font-family="Helvetica,sans-Serif" font-size="10.00">i2cm.h</text>
</a>
</g>
</g>
<!-- Node1&#45;&gt;Node7 -->
<g id="edge8_Node000001_Node000007" class="edge">
<title>Node1&#45;&gt;Node7</title>
<g id="a_edge8_Node000001_Node000007"><a xlink:title=" ">
<path fill="none" stroke="#63b8ff" d="M304.15,-111.92C306.99,-103.42 309.95,-94.53 312.48,-86.93"/>
<polygon fill="#63b8ff" stroke="#63b8ff" points="315.71,-88.31 315.55,-77.71 309.07,-86.09 315.71,-88.31"/>
</a>
</g>
</g>
<!-- Node8 -->
<g id="Node000008" class="node">
<title>Node8</title>
<g id="a_Node000008"><a xlink:href="_u_s_b_d_2_u_s_b___u_a_c___sound___rate_control_2wm8978_8h.html" target="_top" xlink:title="The header file of wm8978 driver.">
<polygon fill="white" stroke="#666666" points="420.25,-76 360,-76 360,-56 420.25,-56 420.25,-76"/>
<text text-anchor="middle" x="390.12" y="-62.5" font-family="Helvetica,sans-Serif" font-size="10.00">wm8978.h</text>
</a>
</g>
</g>
<!-- Node1&#45;&gt;Node8 -->
<g id="edge10_Node000001_Node000008" class="edge">
<title>Node1&#45;&gt;Node8</title>
<g id="a_edge10_Node000001_Node000008"><a xlink:title=" ">
<path fill="none" stroke="#63b8ff" d="M334.54,-111.69C346.72,-101.9 359.5,-91.63 369.73,-83.4"/>
<polygon fill="#63b8ff" stroke="#63b8ff" points="371.88,-86.16 377.48,-77.17 367.5,-80.71 371.88,-86.16"/>
</a>
</g>
</g>
<!-- Node9 -->
<g id="Node000009" class="node">
<title>Node9</title>
<g id="a_Node000009"><a xlink:title=" ">
<polygon fill="#e0e0e0" stroke="#999999" points="531.75,-76 438.5,-76 438.5,-56 531.75,-56 531.75,-76"/>
<text text-anchor="middle" x="485.12" y="-62.5" font-family="Helvetica,sans-Serif" font-size="10.00">ht32_usbd_core.h</text>
</a>
</g>
</g>
<!-- Node1&#45;&gt;Node9 -->
<g id="edge11_Node000001_Node000009" class="edge">
<title>Node1&#45;&gt;Node9</title>
<g id="a_edge11_Node000001_Node000009"><a xlink:title=" ">
<path fill="none" stroke="#63b8ff" d="M375.39,-111.58C402.13,-100.72 430.33,-89.26 451.44,-80.68"/>
<polygon fill="#63b8ff" stroke="#63b8ff" points="452.74,-83.93 460.69,-76.93 450.11,-77.45 452.74,-83.93"/>
</a>
</g>
</g>
<!-- Node10 -->
<g id="Node000010" class="node">
<title>Node10</title>
<g id="a_Node000010"><a xlink:href="_u_s_b_d_2_u_s_b___u_a_c___sound___rate_control_2ht32__usbd__class_8h.html" target="_top" xlink:title="The header file of USB Device Class.">
<polygon fill="white" stroke="#666666" points="648,-76 550.25,-76 550.25,-56 648,-56 648,-76"/>
<text text-anchor="middle" x="599.12" y="-62.5" font-family="Helvetica,sans-Serif" font-size="10.00">ht32_usbd_class.h</text>
</a>
</g>
</g>
<!-- Node1&#45;&gt;Node10 -->
<g id="edge12_Node000001_Node000010" class="edge">
<title>Node1&#45;&gt;Node10</title>
<g id="a_edge12_Node000001_Node000010"><a xlink:title=" ">
<path fill="none" stroke="#63b8ff" d="M421.57,-112.26C467.46,-100.56 516.39,-88.09 551.24,-79.21"/>
<polygon fill="#63b8ff" stroke="#63b8ff" points="551.74,-82.69 560.57,-76.83 550.01,-75.91 551.74,-82.69"/>
</a>
</g>
</g>
<!-- Node11 -->
<g id="Node000011" class="node">
<title>Node11</title>
<g id="a_Node000011"><a xlink:href="_u_s_b_d_2_u_s_b___u_a_c___sound___rate_control_2ht32__usbd__descriptor_8h.html" target="_top" xlink:title="The USB descriptor.">
<polygon fill="white" stroke="#666666" points="783.75,-76 666.5,-76 666.5,-56 783.75,-56 783.75,-76"/>
<text text-anchor="middle" x="725.12" y="-62.5" font-family="Helvetica,sans-Serif" font-size="10.00">ht32_usbd_descriptor.h</text>
</a>
</g>
</g>
<!-- Node1&#45;&gt;Node11 -->
<g id="edge13_Node000001_Node000011" class="edge">
<title>Node1&#45;&gt;Node11</title>
<g id="a_edge13_Node000001_Node000011"><a xlink:title=" ">
<path fill="none" stroke="#63b8ff" d="M421.57,-121.81C500.59,-107.54 598.44,-89.87 661.31,-78.52"/>
<polygon fill="#63b8ff" stroke="#63b8ff" points="661.92,-81.97 671.14,-76.75 660.68,-75.08 661.92,-81.97"/>
</a>
</g>
</g>
<!-- Node6&#45;&gt;Node3 -->
<g id="edge6_Node000006_Node000003" class="edge">
<title>Node6&#45;&gt;Node3</title>
<g id="a_edge6_Node000006_Node000003"><a xlink:title=" ">
<path fill="none" stroke="#63b8ff" d="M201.45,-55.59C187.98,-47.51 168.31,-35.71 152.58,-26.27"/>
<polygon fill="#63b8ff" stroke="#63b8ff" points="154.6,-23.4 144.22,-21.26 151,-29.4 154.6,-23.4"/>
</a>
</g>
</g>
<!-- Node6&#45;&gt;Node5 -->
<g id="edge7_Node000006_Node000005" class="edge">
<title>Node6&#45;&gt;Node5</title>
<g id="a_edge7_Node000006_Node000005"><a xlink:title=" ">
<path fill="none" stroke="#63b8ff" d="M226.01,-55.59C233.03,-48.16 243.03,-37.58 251.52,-28.58"/>
<polygon fill="#63b8ff" stroke="#63b8ff" points="253.98,-31.07 258.3,-21.4 248.89,-26.27 253.98,-31.07"/>
</a>
</g>
</g>
<!-- Node7&#45;&gt;Node5 -->
<g id="edge9_Node000007_Node000005" class="edge">
<title>Node7&#45;&gt;Node5</title>
<g id="a_edge9_Node000007_Node000005"><a xlink:title=" ">
<path fill="none" stroke="#63b8ff" d="M310.24,-55.59C303.22,-48.16 293.22,-37.58 284.73,-28.58"/>
<polygon fill="#63b8ff" stroke="#63b8ff" points="287.36,-26.27 277.95,-21.4 282.27,-31.07 287.36,-26.27"/>
</a>
</g>
</g>
</g>
</svg>
