<?xml version="1.0" encoding="UTF-8" standalone="no"?>
<!DOCTYPE svg PUBLIC "-//W3C//DTD SVG 1.1//EN"
 "http://www.w3.org/Graphics/SVG/1.1/DTD/svg11.dtd">
<!-- Generated by graphviz version 9.0.0 (20230911.1827)
 -->
<!-- Title: D:/Note_Database/Subject/MCETA Microcontroller Experiment TA/files/HT32_STD_5xxxx_FWLib_V1.5.1_7084b/example/USBD/Mass_Storage/main.c Pages: 1 -->
<svg width="864pt" height="356pt"
 viewBox="0.00 0.00 864.00 356.00" xmlns="http://www.w3.org/2000/svg" xmlns:xlink="http://www.w3.org/1999/xlink">
<g id="graph0" class="graph" transform="scale(1 1) rotate(0) translate(4 352)">
<title>D:/Note_Database/Subject/MCETA Microcontroller Experiment TA/files/HT32_STD_5xxxx_FWLib_V1.5.1_7084b/example/USBD/Mass_Storage/main.c</title>
<!-- Node1 -->
<g id="Node000001" class="node">
<title>Node1</title>
<g id="a_Node000001"><a xlink:title="The main program of USB Device Mass Storage example.">
<polygon fill="#999999" stroke="#666666" points="255,-348 71,-348 71,-280 255,-280 255,-348"/>
<text text-anchor="start" x="79" y="-334.5" font-family="Helvetica,sans-Serif" font-size="10.00">D:/Note_Database/Subject</text>
<text text-anchor="start" x="79" y="-322.5" font-family="Helvetica,sans-Serif" font-size="10.00">/MCETA Microcontroller</text>
<text text-anchor="start" x="79" y="-310.5" font-family="Helvetica,sans-Serif" font-size="10.00"> Experiment TA/files/HT32</text>
<text text-anchor="start" x="79" y="-298.5" font-family="Helvetica,sans-Serif" font-size="10.00">_STD_5xxxx_FWLib_V1.5.1_7084b</text>
<text text-anchor="middle" x="163" y="-286.5" font-family="Helvetica,sans-Serif" font-size="10.00">/example/USBD/Mass_Storage/main.c</text>
</a>
</g>
</g>
<!-- Node2 -->
<g id="Node000002" class="node">
<title>Node2</title>
<g id="a_Node000002"><a xlink:title=" ">
<polygon fill="#e0e0e0" stroke="#999999" points="288.5,-76 245.5,-76 245.5,-56 288.5,-56 288.5,-76"/>
<text text-anchor="middle" x="267" y="-62.5" font-family="Helvetica,sans-Serif" font-size="10.00">ht32.h</text>
</a>
</g>
</g>
<!-- Node1&#45;&gt;Node2 -->
<g id="edge1_Node000001_Node000002" class="edge">
<title>Node1&#45;&gt;Node2</title>
<g id="a_edge1_Node000001_Node000002"><a xlink:title=" ">
<path fill="none" stroke="#63b8ff" d="M120.12,-279.83C109.96,-269.56 100.49,-257.38 95,-244 78.33,-203.33 68.45,-170.49 124,-112 139.19,-96.01 196.93,-81.47 234.24,-73.47"/>
<polygon fill="#63b8ff" stroke="#63b8ff" points="234.53,-76.98 243.61,-71.51 233.1,-70.13 234.53,-76.98"/>
</a>
</g>
</g>
<!-- Node3 -->
<g id="Node000003" class="node">
<title>Node3</title>
<g id="a_Node000003"><a xlink:title=" ">
<polygon fill="#e0e0e0" stroke="#999999" points="245.12,-20 172.88,-20 172.88,0 245.12,0 245.12,-20"/>
<text text-anchor="middle" x="209" y="-6.5" font-family="Helvetica,sans-Serif" font-size="10.00">ht32_board.h</text>
</a>
</g>
</g>
<!-- Node1&#45;&gt;Node3 -->
<g id="edge2_Node000001_Node000003" class="edge">
<title>Node1&#45;&gt;Node3</title>
<g id="a_edge2_Node000001_Node000003"><a xlink:title=" ">
<path fill="none" stroke="#63b8ff" d="M78.64,-279.62C38.86,-257.81 0,-224.79 0,-179 0,-179 0,-179 0,-121 0,-48.58 99.48,-23.73 161.17,-15.28"/>
<polygon fill="#63b8ff" stroke="#63b8ff" points="161.61,-18.75 171.09,-14.03 160.73,-11.81 161.61,-18.75"/>
</a>
</g>
</g>
<!-- Node4 -->
<g id="Node000004" class="node">
<title>Node4</title>
<g id="a_Node000004"><a xlink:href="_u_s_b_d_2_mass___storage_2ht32__board__config_8h.html" target="_top" xlink:title="The header file of board configuration.">
<polygon fill="white" stroke="#666666" points="192.5,-76 89.5,-76 89.5,-56 192.5,-56 192.5,-76"/>
<text text-anchor="middle" x="141" y="-62.5" font-family="Helvetica,sans-Serif" font-size="10.00">ht32_board_config.h</text>
</a>
</g>
</g>
<!-- Node1&#45;&gt;Node4 -->
<g id="edge3_Node000001_Node000004" class="edge">
<title>Node1&#45;&gt;Node4</title>
<g id="a_edge3_Node000001_Node000004"><a xlink:title=" ">
<path fill="none" stroke="#63b8ff" d="M94.34,-279.61C81.34,-270 69.49,-258.18 62,-244 34.61,-192.12 32.52,-162.72 62,-112 70.17,-97.94 84.55,-87.91 98.83,-80.95"/>
<polygon fill="#63b8ff" stroke="#63b8ff" points="100,-84.26 107.73,-77.01 97.17,-77.85 100,-84.26"/>
</a>
</g>
</g>
<!-- Node5 -->
<g id="Node000005" class="node">
<title>Node5</title>
<g id="a_Node000005"><a xlink:title=" ">
<polygon fill="#e0e0e0" stroke="#999999" points="539.62,-132 446.38,-132 446.38,-112 539.62,-112 539.62,-132"/>
<text text-anchor="middle" x="493" y="-118.5" font-family="Helvetica,sans-Serif" font-size="10.00">ht32_usbd_core.h</text>
</a>
</g>
</g>
<!-- Node1&#45;&gt;Node5 -->
<g id="edge4_Node000001_Node000005" class="edge">
<title>Node1&#45;&gt;Node5</title>
<g id="a_edge4_Node000001_Node000005"><a xlink:title=" ">
<path fill="none" stroke="#63b8ff" d="M255.16,-305.2C338.79,-296.06 453.43,-277.69 483,-244 507.37,-216.24 503.06,-169.78 497.92,-143.24"/>
<polygon fill="#63b8ff" stroke="#63b8ff" points="501.4,-142.78 495.84,-133.76 494.56,-144.27 501.4,-142.78"/>
</a>
</g>
</g>
<!-- Node6 -->
<g id="Node000006" class="node">
<title>Node6</title>
<g id="a_Node000006"><a xlink:href="_u_s_b_d_2_mass___storage_2ht32__usbd__class_8h.html" target="_top" xlink:title="The header file of USB Device Class.">
<polygon fill="white" stroke="#666666" points="337.88,-244 240.12,-244 240.12,-224 337.88,-224 337.88,-244"/>
<text text-anchor="middle" x="289" y="-230.5" font-family="Helvetica,sans-Serif" font-size="10.00">ht32_usbd_class.h</text>
</a>
</g>
</g>
<!-- Node1&#45;&gt;Node6 -->
<g id="edge5_Node000001_Node000006" class="edge">
<title>Node1&#45;&gt;Node6</title>
<g id="a_edge5_Node000001_Node000006"><a xlink:title=" ">
<path fill="none" stroke="#63b8ff" d="M216.8,-279.69C233.32,-269.47 250.71,-258.7 264.28,-250.3"/>
<polygon fill="#63b8ff" stroke="#63b8ff" points="265.89,-253.42 272.55,-245.18 262.2,-247.47 265.89,-253.42"/>
</a>
</g>
</g>
<!-- Node7 -->
<g id="Node000007" class="node">
<title>Node7</title>
<g id="a_Node000007"><a xlink:href="_u_s_b_d_2_mass___storage_2ht32__usbd__descriptor_8h.html" target="_top" xlink:title="The USB descriptor.">
<polygon fill="white" stroke="#666666" points="473.62,-244 356.38,-244 356.38,-224 473.62,-224 473.62,-244"/>
<text text-anchor="middle" x="415" y="-230.5" font-family="Helvetica,sans-Serif" font-size="10.00">ht32_usbd_descriptor.h</text>
</a>
</g>
</g>
<!-- Node1&#45;&gt;Node7 -->
<g id="edge6_Node000001_Node000007" class="edge">
<title>Node1&#45;&gt;Node7</title>
<g id="a_edge6_Node000001_Node000007"><a xlink:title=" ">
<path fill="none" stroke="#63b8ff" d="M255.4,-284.4C295.99,-271.84 341.59,-257.72 373.63,-247.81"/>
<polygon fill="#63b8ff" stroke="#63b8ff" points="374.4,-251.23 382.92,-244.93 372.33,-244.54 374.4,-251.23"/>
</a>
</g>
</g>
<!-- Node8 -->
<g id="Node000008" class="node">
<title>Node8</title>
<g id="a_Node000008"><a xlink:href="_u_s_b_d_2_mass___storage_2__ht32__project__source_8h.html" target="_top" xlink:title="The project source code setting.">
<polygon fill="white" stroke="#666666" points="221.62,-244 104.38,-244 104.38,-224 221.62,-224 221.62,-244"/>
<text text-anchor="middle" x="163" y="-230.5" font-family="Helvetica,sans-Serif" font-size="10.00">_ht32_project_source.h</text>
</a>
</g>
</g>
<!-- Node1&#45;&gt;Node8 -->
<g id="edge7_Node000001_Node000008" class="edge">
<title>Node1&#45;&gt;Node8</title>
<g id="a_edge7_Node000001_Node000008"><a xlink:title=" ">
<path fill="none" stroke="#63b8ff" d="M163,-279.92C163,-271.72 163,-263.17 163,-255.75"/>
<polygon fill="#63b8ff" stroke="#63b8ff" points="166.5,-255.79 163,-245.79 159.5,-255.79 166.5,-255.79"/>
</a>
</g>
</g>
<!-- Node9 -->
<g id="Node000009" class="node">
<title>Node9</title>
<g id="a_Node000009"><a xlink:href="_mass___storage_2ram__disk_8c.html" target="_top" xlink:title="The RAM Disk related function.">
<polygon fill="white" stroke="#666666" points="835,-188 771,-188 771,-168 835,-168 835,-188"/>
<text text-anchor="middle" x="803" y="-174.5" font-family="Helvetica,sans-Serif" font-size="10.00">ram_disk.c</text>
</a>
</g>
</g>
<!-- Node8&#45;&gt;Node9 -->
<g id="edge8_Node000008_Node000009" class="edge">
<title>Node8&#45;&gt;Node9</title>
<g id="a_edge8_Node000008_Node000009"><a xlink:title=" ">
<path fill="none" stroke="#63b8ff" d="M221.95,-224.98C225.01,-224.63 228.04,-224.3 231,-224 448.66,-201.64 504.12,-208.09 722,-188 734.17,-186.88 747.35,-185.49 759.48,-184.14"/>
<polygon fill="#63b8ff" stroke="#63b8ff" points="759.66,-187.64 769.2,-183.04 758.87,-180.69 759.66,-187.64"/>
</a>
</g>
</g>
<!-- Node12 -->
<g id="Node000012" class="node">
<title>Node12</title>
<g id="a_Node000012"><a xlink:href="sd__disk_8c.html" target="_top" xlink:title="The SD Disk related function.">
<polygon fill="white" stroke="#666666" points="249,-188 191,-188 191,-168 249,-168 249,-188"/>
<text text-anchor="middle" x="220" y="-174.5" font-family="Helvetica,sans-Serif" font-size="10.00">sd_disk.c</text>
</a>
</g>
</g>
<!-- Node8&#45;&gt;Node12 -->
<g id="edge13_Node000008_Node000012" class="edge">
<title>Node8&#45;&gt;Node12</title>
<g id="a_edge13_Node000008_Node000012"><a xlink:title=" ">
<path fill="none" stroke="#63b8ff" d="M172.93,-223.59C180.94,-216.01 192.42,-205.13 202.03,-196.02"/>
<polygon fill="#63b8ff" stroke="#63b8ff" points="204.23,-198.76 209.09,-189.34 199.42,-193.68 204.23,-198.76"/>
</a>
</g>
</g>
<!-- Node15 -->
<g id="Node000015" class="node">
<title>Node15</title>
<g id="a_Node000015"><a xlink:href="spi__sd_8c.html" target="_top" xlink:title="The SD Memory card driver. Supports both SD and SDHC.">
<polygon fill="white" stroke="#666666" points="173.38,-188 120.62,-188 120.62,-168 173.38,-168 173.38,-188"/>
<text text-anchor="middle" x="147" y="-174.5" font-family="Helvetica,sans-Serif" font-size="10.00">spi_sd.c</text>
</a>
</g>
</g>
<!-- Node8&#45;&gt;Node15 -->
<g id="edge19_Node000008_Node000015" class="edge">
<title>Node8&#45;&gt;Node15</title>
<g id="a_edge19_Node000008_Node000015"><a xlink:title=" ">
<path fill="none" stroke="#63b8ff" d="M160.21,-223.59C158.22,-216.86 155.45,-207.53 152.97,-199.15"/>
<polygon fill="#63b8ff" stroke="#63b8ff" points="156.38,-198.34 150.19,-189.75 149.67,-200.33 156.38,-198.34"/>
</a>
</g>
</g>
<!-- Node16 -->
<g id="Node000016" class="node">
<title>Node16</title>
<g id="a_Node000016"><a xlink:href="_mass___storage_2usb__bulk__only__transport_8c.html" target="_top" xlink:title="The Bulk Only Transport (BOT).">
<polygon fill="white" stroke="#666666" points="713,-188 583,-188 583,-168 713,-168 713,-188"/>
<text text-anchor="middle" x="648" y="-174.5" font-family="Helvetica,sans-Serif" font-size="10.00">usb_bulk_only_transport.c</text>
</a>
</g>
</g>
<!-- Node8&#45;&gt;Node16 -->
<g id="edge22_Node000008_Node000016" class="edge">
<title>Node8&#45;&gt;Node16</title>
<g id="a_edge22_Node000008_Node000016"><a xlink:title=" ">
<path fill="none" stroke="#63b8ff" d="M221.96,-225.11C225.02,-224.73 228.04,-224.36 231,-224 349.59,-209.76 487.41,-195.29 571.13,-186.73"/>
<polygon fill="#63b8ff" stroke="#63b8ff" points="571.48,-190.22 581.07,-185.72 570.77,-183.25 571.48,-190.22"/>
</a>
</g>
</g>
<!-- Node18 -->
<g id="Node000018" class="node">
<title>Node18</title>
<g id="a_Node000018"><a xlink:href="_mass___storage_2usb__scsi__block__command_8c.html" target="_top" xlink:title="The SCSI Block Command (SBC&#45;3 &amp; SPC&#45;4).">
<polygon fill="white" stroke="#666666" points="450.88,-188 311.12,-188 311.12,-168 450.88,-168 450.88,-188"/>
<text text-anchor="middle" x="381" y="-174.5" font-family="Helvetica,sans-Serif" font-size="10.00">usb_scsi_block_command.c</text>
</a>
</g>
</g>
<!-- Node8&#45;&gt;Node18 -->
<g id="edge28_Node000008_Node000018" class="edge">
<title>Node8&#45;&gt;Node18</title>
<g id="a_edge28_Node000008_Node000018"><a xlink:title=" ">
<path fill="none" stroke="#63b8ff" d="M201.22,-223.53C237.53,-214.54 292.3,-200.97 331.85,-191.18"/>
<polygon fill="#63b8ff" stroke="#63b8ff" points="332.49,-194.62 341.35,-188.82 330.8,-187.83 332.49,-194.62"/>
</a>
</g>
</g>
<!-- Node10 -->
<g id="Node000010" class="node">
<title>Node10</title>
<g id="a_Node000010"><a xlink:href="_mass___storage_2ram__disk_8h.html" target="_top" xlink:title="The header file of RAM Disk.">
<polygon fill="white" stroke="#666666" points="856,-132 792,-132 792,-112 856,-112 856,-132"/>
<text text-anchor="middle" x="824" y="-118.5" font-family="Helvetica,sans-Serif" font-size="10.00">ram_disk.h</text>
</a>
</g>
</g>
<!-- Node9&#45;&gt;Node10 -->
<g id="edge9_Node000009_Node000010" class="edge">
<title>Node9&#45;&gt;Node10</title>
<g id="a_edge9_Node000009_Node000010"><a xlink:title=" ">
<path fill="none" stroke="#63b8ff" d="M806.66,-167.59C809.31,-160.78 812.99,-151.32 816.28,-142.86"/>
<polygon fill="#63b8ff" stroke="#63b8ff" points="819.47,-144.3 819.84,-133.71 812.95,-141.76 819.47,-144.3"/>
</a>
</g>
</g>
<!-- Node10&#45;&gt;Node2 -->
<g id="edge10_Node000010_Node000002" class="edge">
<title>Node10&#45;&gt;Node2</title>
<g id="a_edge10_Node000010_Node000002"><a xlink:title=" ">
<path fill="none" stroke="#63b8ff" d="M791.7,-117.42C776.09,-115.72 757.08,-113.69 740,-112 564.13,-94.59 519.78,-94.26 344,-76 329.61,-74.5 313.72,-72.68 300.14,-71.06"/>
<polygon fill="#63b8ff" stroke="#63b8ff" points="300.74,-67.61 290.39,-69.89 299.9,-74.56 300.74,-67.61"/>
</a>
</g>
</g>
<!-- Node11 -->
<g id="Node000011" class="node">
<title>Node11</title>
<g id="a_Node000011"><a xlink:href="_mass___storage_2usb__bulk__only__transport_8h.html" target="_top" xlink:title="The header file of Bulk Only Transport.">
<polygon fill="white" stroke="#666666" points="483,-76 353,-76 353,-56 483,-56 483,-76"/>
<text text-anchor="middle" x="418" y="-62.5" font-family="Helvetica,sans-Serif" font-size="10.00">usb_bulk_only_transport.h</text>
</a>
</g>
</g>
<!-- Node10&#45;&gt;Node11 -->
<g id="edge11_Node000010_Node000011" class="edge">
<title>Node10&#45;&gt;Node11</title>
<g id="a_edge11_Node000010_Node000011"><a xlink:title=" ">
<path fill="none" stroke="#63b8ff" d="M791.88,-114.42C787.23,-113.56 782.5,-112.72 778,-112 680.59,-96.4 567.62,-83.05 494.6,-75.03"/>
<polygon fill="#63b8ff" stroke="#63b8ff" points="495.05,-71.56 484.73,-73.95 494.29,-78.52 495.05,-71.56"/>
</a>
</g>
</g>
<!-- Node11&#45;&gt;Node3 -->
<g id="edge12_Node000011_Node000003" class="edge">
<title>Node11&#45;&gt;Node3</title>
<g id="a_edge12_Node000011_Node000003"><a xlink:title=" ">
<path fill="none" stroke="#63b8ff" d="M381.59,-55.59C346.79,-46.6 294.13,-32.99 256.13,-23.18"/>
<polygon fill="#63b8ff" stroke="#63b8ff" points="257.36,-19.88 246.8,-20.77 255.61,-26.66 257.36,-19.88"/>
</a>
</g>
</g>
<!-- Node13 -->
<g id="Node000013" class="node">
<title>Node13</title>
<g id="a_Node000013"><a xlink:href="sd__disk_8h.html" target="_top" xlink:title="The header file of SD Disk.">
<polygon fill="white" stroke="#666666" points="270,-132 212,-132 212,-112 270,-112 270,-132"/>
<text text-anchor="middle" x="241" y="-118.5" font-family="Helvetica,sans-Serif" font-size="10.00">sd_disk.h</text>
</a>
</g>
</g>
<!-- Node12&#45;&gt;Node13 -->
<g id="edge14_Node000012_Node000013" class="edge">
<title>Node12&#45;&gt;Node13</title>
<g id="a_edge14_Node000012_Node000013"><a xlink:title=" ">
<path fill="none" stroke="#63b8ff" d="M223.66,-167.59C226.31,-160.78 229.99,-151.32 233.28,-142.86"/>
<polygon fill="#63b8ff" stroke="#63b8ff" points="236.47,-144.3 236.84,-133.71 229.95,-141.76 236.47,-144.3"/>
</a>
</g>
</g>
<!-- Node14 -->
<g id="Node000014" class="node">
<title>Node14</title>
<g id="a_Node000014"><a xlink:href="spi__sd_8h.html" target="_top" xlink:title="The header file of SD Memory card driver.">
<polygon fill="white" stroke="#666666" points="194.38,-132 141.62,-132 141.62,-112 194.38,-112 194.38,-132"/>
<text text-anchor="middle" x="168" y="-118.5" font-family="Helvetica,sans-Serif" font-size="10.00">spi_sd.h</text>
</a>
</g>
</g>
<!-- Node12&#45;&gt;Node14 -->
<g id="edge17_Node000012_Node000014" class="edge">
<title>Node12&#45;&gt;Node14</title>
<g id="a_edge17_Node000012_Node000014"><a xlink:title=" ">
<path fill="none" stroke="#63b8ff" d="M210.94,-167.59C203.78,-160.16 193.59,-149.58 184.93,-140.58"/>
<polygon fill="#63b8ff" stroke="#63b8ff" points="187.46,-138.16 178,-133.39 182.42,-143.02 187.46,-138.16"/>
</a>
</g>
</g>
<!-- Node13&#45;&gt;Node2 -->
<g id="edge15_Node000013_Node000002" class="edge">
<title>Node13&#45;&gt;Node2</title>
<g id="a_edge15_Node000013_Node000002"><a xlink:title=" ">
<path fill="none" stroke="#63b8ff" d="M245.53,-111.59C248.85,-104.7 253.47,-95.1 257.58,-86.57"/>
<polygon fill="#63b8ff" stroke="#63b8ff" points="260.68,-88.19 261.87,-77.66 254.37,-85.15 260.68,-88.19"/>
</a>
</g>
</g>
<!-- Node13&#45;&gt;Node11 -->
<g id="edge16_Node000013_Node000011" class="edge">
<title>Node13&#45;&gt;Node11</title>
<g id="a_edge16_Node000013_Node000011"><a xlink:title=" ">
<path fill="none" stroke="#63b8ff" d="M270.23,-112.08C299.04,-103.29 343.36,-89.77 375.95,-79.83"/>
<polygon fill="#63b8ff" stroke="#63b8ff" points="376.95,-83.18 385.49,-76.92 374.91,-76.49 376.95,-83.18"/>
</a>
</g>
</g>
<!-- Node14&#45;&gt;Node4 -->
<g id="edge18_Node000014_Node000004" class="edge">
<title>Node14&#45;&gt;Node4</title>
<g id="a_edge18_Node000014_Node000004"><a xlink:title=" ">
<path fill="none" stroke="#63b8ff" d="M163.3,-111.59C159.85,-104.7 155.05,-95.1 150.79,-86.57"/>
<polygon fill="#63b8ff" stroke="#63b8ff" points="153.93,-85.03 146.33,-77.65 147.67,-88.16 153.93,-85.03"/>
</a>
</g>
</g>
<!-- Node15&#45;&gt;Node2 -->
<g id="edge20_Node000015_Node000002" class="edge">
<title>Node15&#45;&gt;Node2</title>
<g id="a_edge20_Node000015_Node000002"><a xlink:title=" ">
<path fill="none" stroke="#63b8ff" d="M140.82,-167.68C132.72,-154.15 120.87,-128.87 133,-112 144.99,-95.32 198.59,-81.22 234.26,-73.45"/>
<polygon fill="#63b8ff" stroke="#63b8ff" points="234.59,-76.96 243.65,-71.47 233.14,-70.11 234.59,-76.96"/>
</a>
</g>
</g>
<!-- Node15&#45;&gt;Node14 -->
<g id="edge21_Node000015_Node000014" class="edge">
<title>Node15&#45;&gt;Node14</title>
<g id="a_edge21_Node000015_Node000014"><a xlink:title=" ">
<path fill="none" stroke="#63b8ff" d="M150.66,-167.59C153.31,-160.78 156.99,-151.32 160.28,-142.86"/>
<polygon fill="#63b8ff" stroke="#63b8ff" points="163.47,-144.3 163.84,-133.71 156.95,-141.76 163.47,-144.3"/>
</a>
</g>
</g>
<!-- Node16&#45;&gt;Node2 -->
<g id="edge23_Node000016_Node000002" class="edge">
<title>Node16&#45;&gt;Node2</title>
<g id="a_edge23_Node000016_Node000002"><a xlink:title=" ">
<path fill="none" stroke="#63b8ff" d="M667.36,-167.53C690.76,-154.88 724.9,-131.77 707,-112 679.79,-81.96 384.3,-80.35 344,-76 329.61,-74.45 313.73,-72.61 300.15,-71"/>
<polygon fill="#63b8ff" stroke="#63b8ff" points="300.74,-67.55 290.4,-69.84 299.91,-74.5 300.74,-67.55"/>
</a>
</g>
</g>
<!-- Node16&#45;&gt;Node5 -->
<g id="edge24_Node000016_Node000005" class="edge">
<title>Node16&#45;&gt;Node5</title>
<g id="a_edge24_Node000016_Node000005"><a xlink:title=" ">
<path fill="none" stroke="#63b8ff" d="M621,-167.59C596.04,-158.9 558.7,-145.89 530.78,-136.16"/>
<polygon fill="#63b8ff" stroke="#63b8ff" points="532.23,-132.96 521.64,-132.98 529.93,-139.57 532.23,-132.96"/>
</a>
</g>
</g>
<!-- Node16&#45;&gt;Node10 -->
<g id="edge27_Node000016_Node000010" class="edge">
<title>Node16&#45;&gt;Node10</title>
<g id="a_edge27_Node000016_Node000010"><a xlink:title=" ">
<path fill="none" stroke="#63b8ff" d="M678.66,-167.59C707.38,-158.78 750.53,-145.54 782.36,-135.78"/>
<polygon fill="#63b8ff" stroke="#63b8ff" points="783.12,-139.2 791.66,-132.92 781.07,-132.51 783.12,-139.2"/>
</a>
</g>
</g>
<!-- Node16&#45;&gt;Node11 -->
<g id="edge25_Node000016_Node000011" class="edge">
<title>Node16&#45;&gt;Node11</title>
<g id="a_edge25_Node000016_Node000011"><a xlink:title=" ">
<path fill="none" stroke="#63b8ff" d="M682.33,-167.53C716.57,-156.43 761.24,-136.42 740,-112 708.87,-76.22 579.89,-68.02 494.92,-66.61"/>
<polygon fill="#63b8ff" stroke="#63b8ff" points="495.05,-63.12 485,-66.48 494.96,-70.12 495.05,-63.12"/>
</a>
</g>
</g>
<!-- Node17 -->
<g id="Node000017" class="node">
<title>Node17</title>
<g id="a_Node000017"><a xlink:href="_mass___storage_2usb__scsi__block__command_8h.html" target="_top" xlink:title="The header file of SCSI Block Command (SBC&#45;3 &amp; SPC&#45;4).">
<polygon fill="white" stroke="#666666" points="697.88,-132 558.12,-132 558.12,-112 697.88,-112 697.88,-132"/>
<text text-anchor="middle" x="628" y="-118.5" font-family="Helvetica,sans-Serif" font-size="10.00">usb_scsi_block_command.h</text>
</a>
</g>
</g>
<!-- Node16&#45;&gt;Node17 -->
<g id="edge26_Node000016_Node000017" class="edge">
<title>Node16&#45;&gt;Node17</title>
<g id="a_edge26_Node000016_Node000017"><a xlink:title=" ">
<path fill="none" stroke="#63b8ff" d="M644.52,-167.59C641.99,-160.78 638.49,-151.32 635.36,-142.86"/>
<polygon fill="#63b8ff" stroke="#63b8ff" points="638.72,-141.88 631.97,-133.72 632.16,-144.31 638.72,-141.88"/>
</a>
</g>
</g>
<!-- Node18&#45;&gt;Node2 -->
<g id="edge29_Node000018_Node000002" class="edge">
<title>Node18&#45;&gt;Node2</title>
<g id="a_edge29_Node000018_Node000002"><a xlink:title=" ">
<path fill="none" stroke="#63b8ff" d="M365.01,-167.66C351.42,-159.3 331.81,-146.19 317,-132 302.25,-117.87 288.34,-99.17 278.95,-85.46"/>
<polygon fill="#63b8ff" stroke="#63b8ff" points="282.01,-83.74 273.55,-77.36 276.18,-87.62 282.01,-83.74"/>
</a>
</g>
</g>
<!-- Node18&#45;&gt;Node5 -->
<g id="edge30_Node000018_Node000005" class="edge">
<title>Node18&#45;&gt;Node5</title>
<g id="a_edge30_Node000018_Node000005"><a xlink:title=" ">
<path fill="none" stroke="#63b8ff" d="M400.51,-167.59C417.75,-159.28 443.16,-147.03 462.99,-137.47"/>
<polygon fill="#63b8ff" stroke="#63b8ff" points="464.49,-140.63 471.98,-133.14 461.45,-134.33 464.49,-140.63"/>
</a>
</g>
</g>
<!-- Node18&#45;&gt;Node11 -->
<g id="edge31_Node000018_Node000011" class="edge">
<title>Node18&#45;&gt;Node11</title>
<g id="a_edge31_Node000018_Node000011"><a xlink:title=" ">
<path fill="none" stroke="#63b8ff" d="M384.99,-167.79C388.82,-158.76 394.66,-144.57 399,-132 404.12,-117.18 409.06,-100.16 412.62,-87.25"/>
<polygon fill="#63b8ff" stroke="#63b8ff" points="415.94,-88.37 415.18,-77.81 409.19,-86.55 415.94,-88.37"/>
</a>
</g>
</g>
<!-- Node18&#45;&gt;Node17 -->
<g id="edge32_Node000018_Node000017" class="edge">
<title>Node18&#45;&gt;Node17</title>
<g id="a_edge32_Node000018_Node000017"><a xlink:title=" ">
<path fill="none" stroke="#63b8ff" d="M424.31,-167.53C465.89,-158.44 528.83,-144.68 573.74,-134.86"/>
<polygon fill="#63b8ff" stroke="#63b8ff" points="574.24,-138.34 583.26,-132.78 572.75,-131.5 574.24,-138.34"/>
</a>
</g>
</g>
<!-- Node19 -->
<g id="Node000019" class="node">
<title>Node19</title>
<g id="a_Node000019"><a xlink:href="_mass___storage_2usb__scsi_8h.html" target="_top" xlink:title="The header file of SCSI Block Command (SBC&#45;3 &amp; SPC&#45;4).">
<polygon fill="white" stroke="#666666" points="389.62,-132 326.38,-132 326.38,-112 389.62,-112 389.62,-132"/>
<text text-anchor="middle" x="358" y="-118.5" font-family="Helvetica,sans-Serif" font-size="10.00">usb_scsi.h</text>
</a>
</g>
</g>
<!-- Node18&#45;&gt;Node19 -->
<g id="edge33_Node000018_Node000019" class="edge">
<title>Node18&#45;&gt;Node19</title>
<g id="a_edge33_Node000018_Node000019"><a xlink:title=" ">
<path fill="none" stroke="#63b8ff" d="M376.99,-167.59C374.09,-160.78 370.06,-151.32 366.46,-142.86"/>
<polygon fill="#63b8ff" stroke="#63b8ff" points="369.69,-141.52 362.55,-133.69 363.25,-144.26 369.69,-141.52"/>
</a>
</g>
</g>
</g>
</svg>
