<?xml version="1.0" encoding="UTF-8" standalone="no"?>
<!DOCTYPE svg PUBLIC "-//W3C//DTD SVG 1.1//EN"
 "http://www.w3.org/Graphics/SVG/1.1/DTD/svg11.dtd">
<!-- Generated by graphviz version 9.0.0 (20230911.1827)
 -->
<!-- Title: D:/Note_Database/Subject/MCETA Microcontroller Experiment TA/files/HT32_STD_5xxxx_FWLib_V1.5.1_7084b/example/USART/PDMA/ht32f5xxxx_01_it.c Pages: 1 -->
<svg width="215pt" height="132pt"
 viewBox="0.00 0.00 215.25 132.00" xmlns="http://www.w3.org/2000/svg" xmlns:xlink="http://www.w3.org/1999/xlink">
<g id="graph0" class="graph" transform="scale(1 1) rotate(0) translate(4 128)">
<title>D:/Note_Database/Subject/MCETA Microcontroller Experiment TA/files/HT32_STD_5xxxx_FWLib_V1.5.1_7084b/example/USART/PDMA/ht32f5xxxx_01_it.c</title>
<!-- Node1 -->
<g id="Node000001" class="node">
<title>Node1</title>
<g id="a_Node000001"><a xlink:title="This file provides all interrupt service routine.">
<polygon fill="#999999" stroke="#666666" points="207.25,-124 0,-124 0,-56 207.25,-56 207.25,-124"/>
<text text-anchor="start" x="8" y="-110.5" font-family="Helvetica,sans-Serif" font-size="10.00">D:/Note_Database/Subject</text>
<text text-anchor="start" x="8" y="-98.5" font-family="Helvetica,sans-Serif" font-size="10.00">/MCETA Microcontroller</text>
<text text-anchor="start" x="8" y="-86.5" font-family="Helvetica,sans-Serif" font-size="10.00"> Experiment TA/files/HT32</text>
<text text-anchor="start" x="8" y="-74.5" font-family="Helvetica,sans-Serif" font-size="10.00">_STD_5xxxx_FWLib_V1.5.1_7084b</text>
<text text-anchor="middle" x="103.63" y="-62.5" font-family="Helvetica,sans-Serif" font-size="10.00">/example/USART/PDMA/ht32f5xxxx_01_it.c</text>
</a>
</g>
</g>
<!-- Node2 -->
<g id="Node000002" class="node">
<title>Node2</title>
<g id="a_Node000002"><a xlink:title=" ">
<polygon fill="#e0e0e0" stroke="#999999" points="80.13,-20 37.13,-20 37.13,0 80.13,0 80.13,-20"/>
<text text-anchor="middle" x="58.63" y="-6.5" font-family="Helvetica,sans-Serif" font-size="10.00">ht32.h</text>
</a>
</g>
</g>
<!-- Node1&#45;&gt;Node2 -->
<g id="edge1_Node000001_Node000002" class="edge">
<title>Node1&#45;&gt;Node2</title>
<g id="a_edge1_Node000001_Node000002"><a xlink:title=" ">
<path fill="none" stroke="#63b8ff" d="M84.54,-55.92C79.46,-47.12 74.14,-37.9 69.66,-30.12"/>
<polygon fill="#63b8ff" stroke="#63b8ff" points="72.76,-28.5 64.73,-21.59 66.7,-32 72.76,-28.5"/>
</a>
</g>
</g>
<!-- Node3 -->
<g id="Node000003" class="node">
<title>Node3</title>
<g id="a_Node000003"><a xlink:href="_u_s_a_r_t_2_p_d_m_a_2ht32__board__config_8h.html" target="_top" xlink:title="The header file of board configuration.">
<polygon fill="white" stroke="#666666" points="201.12,-20 98.12,-20 98.12,0 201.12,0 201.12,-20"/>
<text text-anchor="middle" x="149.62" y="-6.5" font-family="Helvetica,sans-Serif" font-size="10.00">ht32_board_config.h</text>
</a>
</g>
</g>
<!-- Node1&#45;&gt;Node3 -->
<g id="edge2_Node000001_Node000003" class="edge">
<title>Node1&#45;&gt;Node3</title>
<g id="a_edge2_Node000001_Node000003"><a xlink:title=" ">
<path fill="none" stroke="#63b8ff" d="M123.13,-55.92C128.33,-47.12 133.76,-37.9 138.35,-30.12"/>
<polygon fill="#63b8ff" stroke="#63b8ff" points="141.32,-31.97 143.38,-21.58 135.29,-28.42 141.32,-31.97"/>
</a>
</g>
</g>
</g>
</svg>
