<?xml version="1.0" encoding="UTF-8" standalone="no"?>
<!DOCTYPE svg PUBLIC "-//W3C//DTD SVG 1.1//EN"
 "http://www.w3.org/Graphics/SVG/1.1/DTD/svg11.dtd">
<!-- Generated by graphviz version 9.0.0 (20230911.1827)
 -->
<!-- Title: D:/Note_Database/Subject/MCETA Microcontroller Experiment TA/files/HT32_STD_5xxxx_FWLib_V1.5.1_7084b/example/USBD/HID_Demo/ht32_usbd_descriptor.c Pages: 1 -->
<svg width="414pt" height="144pt"
 viewBox="0.00 0.00 414.12 144.00" xmlns="http://www.w3.org/2000/svg" xmlns:xlink="http://www.w3.org/1999/xlink">
<g id="graph0" class="graph" transform="scale(1 1) rotate(0) translate(4 140)">
<title>D:/Note_Database/Subject/MCETA Microcontroller Experiment TA/files/HT32_STD_5xxxx_FWLib_V1.5.1_7084b/example/USBD/HID_Demo/ht32_usbd_descriptor.c</title>
<!-- Node1 -->
<g id="Node000001" class="node">
<title>Node1</title>
<g id="a_Node000001"><a xlink:title="The USB Descriptor.">
<polygon fill="#999999" stroke="#666666" points="256.12,-136 72.88,-136 72.88,-56 256.12,-56 256.12,-136"/>
<text text-anchor="start" x="80.88" y="-122.5" font-family="Helvetica,sans-Serif" font-size="10.00">D:/Note_Database/Subject</text>
<text text-anchor="start" x="80.88" y="-110.5" font-family="Helvetica,sans-Serif" font-size="10.00">/MCETA Microcontroller</text>
<text text-anchor="start" x="80.88" y="-98.5" font-family="Helvetica,sans-Serif" font-size="10.00"> Experiment TA/files/HT32</text>
<text text-anchor="start" x="80.88" y="-86.5" font-family="Helvetica,sans-Serif" font-size="10.00">_STD_5xxxx_FWLib_V1.5.1_7084b</text>
<text text-anchor="start" x="80.88" y="-74.5" font-family="Helvetica,sans-Serif" font-size="10.00">/example/USBD/HID_Demo/ht32_usbd</text>
<text text-anchor="middle" x="164.5" y="-62.5" font-family="Helvetica,sans-Serif" font-size="10.00">_descriptor.c</text>
</a>
</g>
</g>
<!-- Node2 -->
<g id="Node000002" class="node">
<title>Node2</title>
<g id="a_Node000002"><a xlink:title=" ">
<polygon fill="#e0e0e0" stroke="#999999" points="43,-20 0,-20 0,0 43,0 43,-20"/>
<text text-anchor="middle" x="21.5" y="-6.5" font-family="Helvetica,sans-Serif" font-size="10.00">ht32.h</text>
</a>
</g>
</g>
<!-- Node1&#45;&gt;Node2 -->
<g id="edge1_Node000001_Node000002" class="edge">
<title>Node1&#45;&gt;Node2</title>
<g id="a_edge1_Node000001_Node000002"><a xlink:title=" ">
<path fill="none" stroke="#63b8ff" d="M97.61,-55.71C79.59,-45.12 61.18,-34.31 46.98,-25.97"/>
<polygon fill="#63b8ff" stroke="#63b8ff" points="49.16,-23.19 38.76,-21.14 45.61,-29.22 49.16,-23.19"/>
</a>
</g>
</g>
<!-- Node3 -->
<g id="Node000003" class="node">
<title>Node3</title>
<g id="a_Node000003"><a xlink:title=" ">
<polygon fill="#e0e0e0" stroke="#999999" points="154.12,-20 60.88,-20 60.88,0 154.12,0 154.12,-20"/>
<text text-anchor="middle" x="107.5" y="-6.5" font-family="Helvetica,sans-Serif" font-size="10.00">ht32_usbd_core.h</text>
</a>
</g>
</g>
<!-- Node1&#45;&gt;Node3 -->
<g id="edge2_Node000001_Node000003" class="edge">
<title>Node1&#45;&gt;Node3</title>
<g id="a_edge2_Node000001_Node000003"><a xlink:title=" ">
<path fill="none" stroke="#63b8ff" d="M138,-55.95C131.85,-46.88 125.56,-37.62 120.31,-29.89"/>
<polygon fill="#63b8ff" stroke="#63b8ff" points="123.26,-28 114.75,-21.69 117.47,-31.93 123.26,-28"/>
</a>
</g>
</g>
<!-- Node4 -->
<g id="Node000004" class="node">
<title>Node4</title>
<g id="a_Node000004"><a xlink:href="_u_s_b_d_2_h_i_d___demo_2ht32__usbd__class_8h.html" target="_top" xlink:title="The header file of USB Device Class.">
<polygon fill="white" stroke="#666666" points="270.38,-20 172.62,-20 172.62,0 270.38,0 270.38,-20"/>
<text text-anchor="middle" x="221.5" y="-6.5" font-family="Helvetica,sans-Serif" font-size="10.00">ht32_usbd_class.h</text>
</a>
</g>
</g>
<!-- Node1&#45;&gt;Node4 -->
<g id="edge3_Node000001_Node000004" class="edge">
<title>Node1&#45;&gt;Node4</title>
<g id="a_edge3_Node000001_Node000004"><a xlink:title=" ">
<path fill="none" stroke="#63b8ff" d="M191,-55.95C197.15,-46.88 203.44,-37.62 208.69,-29.89"/>
<polygon fill="#63b8ff" stroke="#63b8ff" points="211.53,-31.93 214.25,-21.69 205.74,-28 211.53,-31.93"/>
</a>
</g>
</g>
<!-- Node5 -->
<g id="Node000005" class="node">
<title>Node5</title>
<g id="a_Node000005"><a xlink:href="_u_s_b_d_2_h_i_d___demo_2ht32__usbd__descriptor_8h.html" target="_top" xlink:title="The USB descriptor.">
<polygon fill="white" stroke="#666666" points="406.12,-20 288.88,-20 288.88,0 406.12,0 406.12,-20"/>
<text text-anchor="middle" x="347.5" y="-6.5" font-family="Helvetica,sans-Serif" font-size="10.00">ht32_usbd_descriptor.h</text>
</a>
</g>
</g>
<!-- Node1&#45;&gt;Node5 -->
<g id="edge4_Node000001_Node000005" class="edge">
<title>Node1&#45;&gt;Node5</title>
<g id="a_edge4_Node000001_Node000005"><a xlink:title=" ">
<path fill="none" stroke="#63b8ff" d="M250.37,-55.58C274.17,-44.66 298.48,-33.5 316.82,-25.08"/>
<polygon fill="#63b8ff" stroke="#63b8ff" points="318.15,-28.32 325.78,-20.97 315.23,-21.96 318.15,-28.32"/>
</a>
</g>
</g>
</g>
</svg>
