<?xml version="1.0" encoding="UTF-8" standalone="no"?>
<!DOCTYPE svg PUBLIC "-//W3C//DTD SVG 1.1//EN"
 "http://www.w3.org/Graphics/SVG/1.1/DTD/svg11.dtd">
<!-- Generated by graphviz version 9.0.0 (20230911.1827)
 -->
<!-- Title: D:/Note_Database/Subject/MCETA Microcontroller Experiment TA/files/HT32_STD_5xxxx_FWLib_V1.5.1_7084b/example/USBD/USB_Video/ht32_usbd_class.c Pages: 1 -->
<svg width="219pt" height="200pt"
 viewBox="0.00 0.00 219.12 200.00" xmlns="http://www.w3.org/2000/svg" xmlns:xlink="http://www.w3.org/1999/xlink">
<g id="graph0" class="graph" transform="scale(1 1) rotate(0) translate(4 196)">
<title>D:/Note_Database/Subject/MCETA Microcontroller Experiment TA/files/HT32_STD_5xxxx_FWLib_V1.5.1_7084b/example/USBD/USB_Video/ht32_usbd_class.c</title>
<!-- Node1 -->
<g id="Node000001" class="node">
<title>Node1</title>
<g id="a_Node000001"><a xlink:title="The USB Device Class.">
<polygon fill="#999999" stroke="#666666" points="170.5,-192 0,-192 0,-112 170.5,-112 170.5,-192"/>
<text text-anchor="start" x="8" y="-178.5" font-family="Helvetica,sans-Serif" font-size="10.00">D:/Note_Database/Subject</text>
<text text-anchor="start" x="8" y="-166.5" font-family="Helvetica,sans-Serif" font-size="10.00">/MCETA Microcontroller</text>
<text text-anchor="start" x="8" y="-154.5" font-family="Helvetica,sans-Serif" font-size="10.00"> Experiment TA/files/HT32</text>
<text text-anchor="start" x="8" y="-142.5" font-family="Helvetica,sans-Serif" font-size="10.00">_STD_5xxxx_FWLib_V1.5.1_7084b</text>
<text text-anchor="start" x="8" y="-130.5" font-family="Helvetica,sans-Serif" font-size="10.00">/example/USBD/USB_Video/ht32</text>
<text text-anchor="middle" x="85.25" y="-118.5" font-family="Helvetica,sans-Serif" font-size="10.00">_usbd_class.c</text>
</a>
</g>
</g>
<!-- Node2 -->
<g id="Node000002" class="node">
<title>Node2</title>
<g id="a_Node000002"><a xlink:title=" ">
<polygon fill="#e0e0e0" stroke="#999999" points="56.75,-76 13.75,-76 13.75,-56 56.75,-56 56.75,-76"/>
<text text-anchor="middle" x="35.25" y="-62.5" font-family="Helvetica,sans-Serif" font-size="10.00">ht32.h</text>
</a>
</g>
</g>
<!-- Node1&#45;&gt;Node2 -->
<g id="edge1_Node000001_Node000002" class="edge">
<title>Node1&#45;&gt;Node2</title>
<g id="a_edge1_Node000001_Node000002"><a xlink:title=" ">
<path fill="none" stroke="#63b8ff" d="M62.01,-111.95C56.67,-102.98 51.22,-93.83 46.65,-86.15"/>
<polygon fill="#63b8ff" stroke="#63b8ff" points="49.76,-84.54 41.64,-77.74 43.75,-88.12 49.76,-84.54"/>
</a>
</g>
</g>
<!-- Node3 -->
<g id="Node000003" class="node">
<title>Node3</title>
<g id="a_Node000003"><a xlink:title=" ">
<polygon fill="#e0e0e0" stroke="#999999" points="169.88,-20 76.62,-20 76.62,0 169.88,0 169.88,-20"/>
<text text-anchor="middle" x="123.25" y="-6.5" font-family="Helvetica,sans-Serif" font-size="10.00">ht32_usbd_core.h</text>
</a>
</g>
</g>
<!-- Node1&#45;&gt;Node3 -->
<g id="edge2_Node000001_Node000003" class="edge">
<title>Node1&#45;&gt;Node3</title>
<g id="a_edge2_Node000001_Node000003"><a xlink:title=" ">
<path fill="none" stroke="#63b8ff" d="M91.26,-111.73C94.38,-94.44 98.71,-74.01 104.25,-56 106.86,-47.5 110.52,-38.42 113.93,-30.66"/>
<polygon fill="#63b8ff" stroke="#63b8ff" points="117,-32.37 117.97,-21.82 110.63,-29.46 117,-32.37"/>
</a>
</g>
</g>
<!-- Node4 -->
<g id="Node000004" class="node">
<title>Node4</title>
<g id="a_Node000004"><a xlink:href="_u_s_b_d_2_u_s_b___video_2ht32__usbd__class_8h.html" target="_top" xlink:title="The header file of USB Device Class.">
<polygon fill="white" stroke="#666666" points="211.12,-76 113.38,-76 113.38,-56 211.12,-56 211.12,-76"/>
<text text-anchor="middle" x="162.25" y="-62.5" font-family="Helvetica,sans-Serif" font-size="10.00">ht32_usbd_class.h</text>
</a>
</g>
</g>
<!-- Node1&#45;&gt;Node4 -->
<g id="edge3_Node000001_Node000004" class="edge">
<title>Node1&#45;&gt;Node4</title>
<g id="a_edge3_Node000001_Node000004"><a xlink:title=" ">
<path fill="none" stroke="#63b8ff" d="M121.04,-111.95C129.74,-102.47 138.62,-92.78 145.9,-84.84"/>
<polygon fill="#63b8ff" stroke="#63b8ff" points="148.4,-87.29 152.58,-77.55 143.24,-82.56 148.4,-87.29"/>
</a>
</g>
</g>
<!-- Node4&#45;&gt;Node3 -->
<g id="edge4_Node000004_Node000003" class="edge">
<title>Node4&#45;&gt;Node3</title>
<g id="a_edge4_Node000004_Node000003"><a xlink:title=" ">
<path fill="none" stroke="#63b8ff" d="M155.46,-55.59C150.26,-48.39 142.92,-38.23 136.56,-29.43"/>
<polygon fill="#63b8ff" stroke="#63b8ff" points="139.54,-27.58 130.85,-21.53 133.87,-31.68 139.54,-27.58"/>
</a>
</g>
</g>
</g>
</svg>
