<?xml version="1.0" encoding="UTF-8" standalone="no"?>
<!DOCTYPE svg PUBLIC "-//W3C//DTD SVG 1.1//EN"
 "http://www.w3.org/Graphics/SVG/1.1/DTD/svg11.dtd">
<!-- Generated by graphviz version 9.0.0 (20230911.1827)
 -->
<!-- Title: D:/Note_Database/Subject/MCETA Microcontroller Experiment TA/files/HT32_STD_5xxxx_FWLib_V1.5.1_7084b/example/USBD/Virtual_COM/main.c Pages: 1 -->
<svg width="353pt" height="244pt"
 viewBox="0.00 0.00 353.12 244.00" xmlns="http://www.w3.org/2000/svg" xmlns:xlink="http://www.w3.org/1999/xlink">
<g id="graph0" class="graph" transform="scale(1 1) rotate(0) translate(4 240)">
<title>D:/Note_Database/Subject/MCETA Microcontroller Experiment TA/files/HT32_STD_5xxxx_FWLib_V1.5.1_7084b/example/USBD/Virtual_COM/main.c</title>
<!-- Node1 -->
<g id="Node000001" class="node">
<title>Node1</title>
<g id="a_Node000001"><a xlink:title="The main program of USB Device Virtual COM example.">
<polygon fill="#999999" stroke="#666666" points="249.75,-236 73.25,-236 73.25,-168 249.75,-168 249.75,-236"/>
<text text-anchor="start" x="81.25" y="-222.5" font-family="Helvetica,sans-Serif" font-size="10.00">D:/Note_Database/Subject</text>
<text text-anchor="start" x="81.25" y="-210.5" font-family="Helvetica,sans-Serif" font-size="10.00">/MCETA Microcontroller</text>
<text text-anchor="start" x="81.25" y="-198.5" font-family="Helvetica,sans-Serif" font-size="10.00"> Experiment TA/files/HT32</text>
<text text-anchor="start" x="81.25" y="-186.5" font-family="Helvetica,sans-Serif" font-size="10.00">_STD_5xxxx_FWLib_V1.5.1_7084b</text>
<text text-anchor="middle" x="161.5" y="-174.5" font-family="Helvetica,sans-Serif" font-size="10.00">/example/USBD/Virtual_COM/main.c</text>
</a>
</g>
</g>
<!-- Node2 -->
<g id="Node000002" class="node">
<title>Node2</title>
<g id="a_Node000002"><a xlink:title=" ">
<polygon fill="#e0e0e0" stroke="#999999" points="43,-132 0,-132 0,-112 43,-112 43,-132"/>
<text text-anchor="middle" x="21.5" y="-118.5" font-family="Helvetica,sans-Serif" font-size="10.00">ht32.h</text>
</a>
</g>
</g>
<!-- Node1&#45;&gt;Node2 -->
<g id="edge1_Node000001_Node000002" class="edge">
<title>Node1&#45;&gt;Node2</title>
<g id="a_edge1_Node000001_Node000002"><a xlink:title=" ">
<path fill="none" stroke="#63b8ff" d="M101.72,-167.69C83,-157.27 63.29,-146.28 48.08,-137.81"/>
<polygon fill="#63b8ff" stroke="#63b8ff" points="50.11,-134.93 39.67,-133.12 46.7,-141.05 50.11,-134.93"/>
</a>
</g>
</g>
<!-- Node3 -->
<g id="Node000003" class="node">
<title>Node3</title>
<g id="a_Node000003"><a xlink:title=" ">
<polygon fill="#e0e0e0" stroke="#999999" points="133.62,-132 61.38,-132 61.38,-112 133.62,-112 133.62,-132"/>
<text text-anchor="middle" x="97.5" y="-118.5" font-family="Helvetica,sans-Serif" font-size="10.00">ht32_board.h</text>
</a>
</g>
</g>
<!-- Node1&#45;&gt;Node3 -->
<g id="edge2_Node000001_Node000003" class="edge">
<title>Node1&#45;&gt;Node3</title>
<g id="a_edge2_Node000001_Node000003"><a xlink:title=" ">
<path fill="none" stroke="#63b8ff" d="M134.36,-167.92C126.8,-158.71 118.87,-149.05 112.32,-141.06"/>
<polygon fill="#63b8ff" stroke="#63b8ff" points="115.12,-138.96 106.07,-133.45 109.71,-143.4 115.12,-138.96"/>
</a>
</g>
</g>
<!-- Node4 -->
<g id="Node000004" class="node">
<title>Node4</title>
<g id="a_Node000004"><a xlink:title=" ">
<polygon fill="#e0e0e0" stroke="#999999" points="246.12,-20 152.88,-20 152.88,0 246.12,0 246.12,-20"/>
<text text-anchor="middle" x="199.5" y="-6.5" font-family="Helvetica,sans-Serif" font-size="10.00">ht32_usbd_core.h</text>
</a>
</g>
</g>
<!-- Node1&#45;&gt;Node4 -->
<g id="edge3_Node000001_Node000004" class="edge">
<title>Node1&#45;&gt;Node4</title>
<g id="a_edge3_Node000001_Node000004"><a xlink:title=" ">
<path fill="none" stroke="#63b8ff" d="M163.31,-167.68C165.53,-137.96 170.33,-93.49 180.5,-56 182.83,-47.42 186.43,-38.32 189.88,-30.57"/>
<polygon fill="#63b8ff" stroke="#63b8ff" points="192.94,-32.3 194.01,-21.76 186.6,-29.33 192.94,-32.3"/>
</a>
</g>
</g>
<!-- Node5 -->
<g id="Node000005" class="node">
<title>Node5</title>
<g id="a_Node000005"><a xlink:href="_u_s_b_d_2_virtual___c_o_m_2ht32__usbd__class_8h.html" target="_top" xlink:title="The header file of USB Device Class.">
<polygon fill="white" stroke="#666666" points="287.38,-76 189.62,-76 189.62,-56 287.38,-56 287.38,-76"/>
<text text-anchor="middle" x="238.5" y="-62.5" font-family="Helvetica,sans-Serif" font-size="10.00">ht32_usbd_class.h</text>
</a>
</g>
</g>
<!-- Node1&#45;&gt;Node5 -->
<g id="edge4_Node000001_Node000005" class="edge">
<title>Node1&#45;&gt;Node5</title>
<g id="a_edge4_Node000001_Node000005"><a xlink:title=" ">
<path fill="none" stroke="#63b8ff" d="M180.73,-167.53C195.53,-141.79 215.43,-107.14 227.6,-85.98"/>
<polygon fill="#63b8ff" stroke="#63b8ff" points="230.48,-87.98 232.43,-77.57 224.41,-84.49 230.48,-87.98"/>
</a>
</g>
</g>
<!-- Node6 -->
<g id="Node000006" class="node">
<title>Node6</title>
<g id="a_Node000006"><a xlink:href="_u_s_b_d_2_virtual___c_o_m_2ht32__usbd__descriptor_8h.html" target="_top" xlink:title="The USB descriptor.">
<polygon fill="white" stroke="#666666" points="345.12,-132 227.88,-132 227.88,-112 345.12,-112 345.12,-132"/>
<text text-anchor="middle" x="286.5" y="-118.5" font-family="Helvetica,sans-Serif" font-size="10.00">ht32_usbd_descriptor.h</text>
</a>
</g>
</g>
<!-- Node1&#45;&gt;Node6 -->
<g id="edge6_Node000001_Node000006" class="edge">
<title>Node1&#45;&gt;Node6</title>
<g id="a_edge6_Node000001_Node000006"><a xlink:title=" ">
<path fill="none" stroke="#63b8ff" d="M214.87,-167.69C231.27,-157.47 248.51,-146.7 261.98,-138.3"/>
<polygon fill="#63b8ff" stroke="#63b8ff" points="263.54,-141.45 270.17,-133.19 259.84,-135.51 263.54,-141.45"/>
</a>
</g>
</g>
<!-- Node5&#45;&gt;Node4 -->
<g id="edge5_Node000005_Node000004" class="edge">
<title>Node5&#45;&gt;Node4</title>
<g id="a_edge5_Node000005_Node000004"><a xlink:title=" ">
<path fill="none" stroke="#63b8ff" d="M231.71,-55.59C226.51,-48.39 219.17,-38.23 212.81,-29.43"/>
<polygon fill="#63b8ff" stroke="#63b8ff" points="215.79,-27.58 207.1,-21.53 210.12,-31.68 215.79,-27.58"/>
</a>
</g>
</g>
<!-- Node6&#45;&gt;Node5 -->
<g id="edge7_Node000006_Node000005" class="edge">
<title>Node6&#45;&gt;Node5</title>
<g id="a_edge7_Node000006_Node000005"><a xlink:title=" ">
<path fill="none" stroke="#63b8ff" d="M278.14,-111.59C271.6,-104.24 262.32,-93.8 254.38,-84.87"/>
<polygon fill="#63b8ff" stroke="#63b8ff" points="257.03,-82.58 247.77,-77.43 251.8,-87.23 257.03,-82.58"/>
</a>
</g>
</g>
</g>
</svg>
