<?xml version="1.0" encoding="UTF-8" standalone="no"?>
<!DOCTYPE svg PUBLIC "-//W3C//DTD SVG 1.1//EN"
 "http://www.w3.org/Graphics/SVG/1.1/DTD/svg11.dtd">
<!-- Generated by graphviz version 9.0.0 (20230911.1827)
 -->
<!-- Title: D:/Note_Database/Subject/MCETA Microcontroller Experiment TA/files/HT32_STD_5xxxx_FWLib_V1.5.1_7084b/example/USBD/Virtual_COM/ht32_usbd_class.c Pages: 1 -->
<svg width="459pt" height="200pt"
 viewBox="0.00 0.00 459.00 200.00" xmlns="http://www.w3.org/2000/svg" xmlns:xlink="http://www.w3.org/1999/xlink">
<g id="graph0" class="graph" transform="scale(1 1) rotate(0) translate(4 196)">
<title>D:/Note_Database/Subject/MCETA Microcontroller Experiment TA/files/HT32_STD_5xxxx_FWLib_V1.5.1_7084b/example/USBD/Virtual_COM/ht32_usbd_class.c</title>
<!-- Node1 -->
<g id="Node000001" class="node">
<title>Node1</title>
<g id="a_Node000001"><a xlink:title="The USB Device Class.">
<polygon fill="#999999" stroke="#666666" points="233.75,-192 63.25,-192 63.25,-112 233.75,-112 233.75,-192"/>
<text text-anchor="start" x="71.25" y="-178.5" font-family="Helvetica,sans-Serif" font-size="10.00">D:/Note_Database/Subject</text>
<text text-anchor="start" x="71.25" y="-166.5" font-family="Helvetica,sans-Serif" font-size="10.00">/MCETA Microcontroller</text>
<text text-anchor="start" x="71.25" y="-154.5" font-family="Helvetica,sans-Serif" font-size="10.00"> Experiment TA/files/HT32</text>
<text text-anchor="start" x="71.25" y="-142.5" font-family="Helvetica,sans-Serif" font-size="10.00">_STD_5xxxx_FWLib_V1.5.1_7084b</text>
<text text-anchor="start" x="71.25" y="-130.5" font-family="Helvetica,sans-Serif" font-size="10.00">/example/USBD/Virtual_COM/ht32</text>
<text text-anchor="middle" x="148.5" y="-118.5" font-family="Helvetica,sans-Serif" font-size="10.00">_usbd_class.c</text>
</a>
</g>
</g>
<!-- Node2 -->
<g id="Node000002" class="node">
<title>Node2</title>
<g id="a_Node000002"><a xlink:title=" ">
<polygon fill="#e0e0e0" stroke="#999999" points="43,-76 0,-76 0,-56 43,-56 43,-76"/>
<text text-anchor="middle" x="21.5" y="-62.5" font-family="Helvetica,sans-Serif" font-size="10.00">ht32.h</text>
</a>
</g>
</g>
<!-- Node1&#45;&gt;Node2 -->
<g id="edge1_Node000001_Node000002" class="edge">
<title>Node1&#45;&gt;Node2</title>
<g id="a_edge1_Node000001_Node000002"><a xlink:title=" ">
<path fill="none" stroke="#63b8ff" d="M89.09,-111.71C73.56,-101.43 57.69,-90.94 45.24,-82.7"/>
<polygon fill="#63b8ff" stroke="#63b8ff" points="47.2,-79.8 36.93,-77.21 43.34,-85.64 47.2,-79.8"/>
</a>
</g>
</g>
<!-- Node3 -->
<g id="Node000003" class="node">
<title>Node3</title>
<g id="a_Node000003"><a xlink:title=" ">
<polygon fill="#e0e0e0" stroke="#999999" points="156.12,-20 62.88,-20 62.88,0 156.12,0 156.12,-20"/>
<text text-anchor="middle" x="109.5" y="-6.5" font-family="Helvetica,sans-Serif" font-size="10.00">ht32_usbd_core.h</text>
</a>
</g>
</g>
<!-- Node1&#45;&gt;Node3 -->
<g id="edge2_Node000001_Node000003" class="edge">
<title>Node1&#45;&gt;Node3</title>
<g id="a_edge2_Node000001_Node000003"><a xlink:title=" ">
<path fill="none" stroke="#63b8ff" d="M110.59,-111.86C102.38,-101.06 94.86,-88.77 90.5,-76 85.27,-60.7 91.14,-43.09 97.7,-30.05"/>
<polygon fill="#63b8ff" stroke="#63b8ff" points="100.57,-32.1 102.39,-21.66 94.46,-28.68 100.57,-32.1"/>
</a>
</g>
</g>
<!-- Node4 -->
<g id="Node000004" class="node">
<title>Node4</title>
<g id="a_Node000004"><a xlink:href="_u_s_b_d_2_virtual___c_o_m_2ht32__usbd__class_8h.html" target="_top" xlink:title="The header file of USB Device Class.">
<polygon fill="white" stroke="#666666" points="197.38,-76 99.62,-76 99.62,-56 197.38,-56 197.38,-76"/>
<text text-anchor="middle" x="148.5" y="-62.5" font-family="Helvetica,sans-Serif" font-size="10.00">ht32_usbd_class.h</text>
</a>
</g>
</g>
<!-- Node1&#45;&gt;Node4 -->
<g id="edge3_Node000001_Node000004" class="edge">
<title>Node1&#45;&gt;Node4</title>
<g id="a_edge3_Node000001_Node000004"><a xlink:title=" ">
<path fill="none" stroke="#63b8ff" d="M148.5,-111.95C148.5,-103.6 148.5,-95.09 148.5,-87.76"/>
<polygon fill="#63b8ff" stroke="#63b8ff" points="152,-87.95 148.5,-77.95 145,-87.95 152,-87.95"/>
</a>
</g>
</g>
<!-- Node5 -->
<g id="Node000005" class="node">
<title>Node5</title>
<g id="a_Node000005"><a xlink:title=" ">
<polygon fill="#e0e0e0" stroke="#999999" points="324,-76 215,-76 215,-56 324,-56 324,-76"/>
<text text-anchor="middle" x="269.5" y="-62.5" font-family="Helvetica,sans-Serif" font-size="10.00">common/ring_buffer.h</text>
</a>
</g>
</g>
<!-- Node1&#45;&gt;Node5 -->
<g id="edge5_Node000001_Node000005" class="edge">
<title>Node1&#45;&gt;Node5</title>
<g id="a_edge5_Node000001_Node000005"><a xlink:title=" ">
<path fill="none" stroke="#63b8ff" d="M205.1,-111.71C219.9,-101.43 235.02,-90.94 246.88,-82.7"/>
<polygon fill="#63b8ff" stroke="#63b8ff" points="248.54,-85.81 254.76,-77.24 244.55,-80.06 248.54,-85.81"/>
</a>
</g>
</g>
<!-- Node6 -->
<g id="Node000006" class="node">
<title>Node6</title>
<g id="a_Node000006"><a xlink:title=" ">
<polygon fill="#e0e0e0" stroke="#999999" points="451,-76 342,-76 342,-56 451,-56 451,-76"/>
<text text-anchor="middle" x="396.5" y="-62.5" font-family="Helvetica,sans-Serif" font-size="10.00">common/ring_buffer.c</text>
</a>
</g>
</g>
<!-- Node1&#45;&gt;Node6 -->
<g id="edge6_Node000001_Node000006" class="edge">
<title>Node1&#45;&gt;Node6</title>
<g id="a_edge6_Node000001_Node000006"><a xlink:title=" ">
<path fill="none" stroke="#63b8ff" d="M234.19,-121.97C276.33,-107.7 325.02,-91.21 357.99,-80.04"/>
<polygon fill="#63b8ff" stroke="#63b8ff" points="358.75,-83.48 367.1,-76.96 356.51,-76.85 358.75,-83.48"/>
</a>
</g>
</g>
<!-- Node4&#45;&gt;Node3 -->
<g id="edge4_Node000004_Node000003" class="edge">
<title>Node4&#45;&gt;Node3</title>
<g id="a_edge4_Node000004_Node000003"><a xlink:title=" ">
<path fill="none" stroke="#63b8ff" d="M141.71,-55.59C136.51,-48.39 129.17,-38.23 122.81,-29.43"/>
<polygon fill="#63b8ff" stroke="#63b8ff" points="125.79,-27.58 117.1,-21.53 120.12,-31.68 125.79,-27.58"/>
</a>
</g>
</g>
</g>
</svg>
