<?xml version="1.0" encoding="UTF-8" standalone="no"?>
<!DOCTYPE svg PUBLIC "-//W3C//DTD SVG 1.1//EN"
 "http://www.w3.org/Graphics/SVG/1.1/DTD/svg11.dtd">
<!-- Generated by graphviz version 9.0.0 (20230911.1827)
 -->
<!-- Title: D:/Note_Database/Subject/MCETA Microcontroller Experiment TA/files/HT32_STD_5xxxx_FWLib_V1.5.1_7084b/example/USBD/Mass_Storage/_ht32_project_source.h Pages: 1 -->
<svg width="764pt" height="312pt"
 viewBox="0.00 0.00 764.46 312.00" xmlns="http://www.w3.org/2000/svg" xmlns:xlink="http://www.w3.org/1999/xlink">
<g id="graph0" class="graph" transform="scale(1 1) rotate(0) translate(4 308)">
<title>D:/Note_Database/Subject/MCETA Microcontroller Experiment TA/files/HT32_STD_5xxxx_FWLib_V1.5.1_7084b/example/USBD/Mass_Storage/_ht32_project_source.h</title>
<!-- Node1 -->
<g id="Node000001" class="node">
<title>Node1</title>
<g id="a_Node000001"><a xlink:title="The project source code setting.">
<polygon fill="#999999" stroke="#666666" points="577.34,-304 398.59,-304 398.59,-224 577.34,-224 577.34,-304"/>
<text text-anchor="start" x="406.59" y="-290.5" font-family="Helvetica,sans-Serif" font-size="10.00">D:/Note_Database/Subject</text>
<text text-anchor="start" x="406.59" y="-278.5" font-family="Helvetica,sans-Serif" font-size="10.00">/MCETA Microcontroller</text>
<text text-anchor="start" x="406.59" y="-266.5" font-family="Helvetica,sans-Serif" font-size="10.00"> Experiment TA/files/HT32</text>
<text text-anchor="start" x="406.59" y="-254.5" font-family="Helvetica,sans-Serif" font-size="10.00">_STD_5xxxx_FWLib_V1.5.1_7084b</text>
<text text-anchor="start" x="406.59" y="-242.5" font-family="Helvetica,sans-Serif" font-size="10.00">/example/USBD/Mass_Storage/_ht32</text>
<text text-anchor="middle" x="487.96" y="-230.5" font-family="Helvetica,sans-Serif" font-size="10.00">_project_source.h</text>
</a>
</g>
</g>
<!-- Node2 -->
<g id="Node000002" class="node">
<title>Node2</title>
<g id="a_Node000002"><a xlink:href="_mass___storage_2ram__disk_8c.html" target="_top" xlink:title="The RAM Disk related function.">
<polygon fill="white" stroke="#666666" points="519.96,-188 455.96,-188 455.96,-168 519.96,-168 519.96,-188"/>
<text text-anchor="middle" x="487.96" y="-174.5" font-family="Helvetica,sans-Serif" font-size="10.00">ram_disk.c</text>
</a>
</g>
</g>
<!-- Node1&#45;&gt;Node2 -->
<g id="edge1_Node000001_Node000002" class="edge">
<title>Node1&#45;&gt;Node2</title>
<g id="a_edge1_Node000001_Node000002"><a xlink:title=" ">
<path fill="none" stroke="#63b8ff" d="M487.96,-223.95C487.96,-215.6 487.96,-207.09 487.96,-199.76"/>
<polygon fill="#63b8ff" stroke="#63b8ff" points="491.46,-199.95 487.96,-189.95 484.46,-199.95 491.46,-199.95"/>
</a>
</g>
</g>
<!-- Node7 -->
<g id="Node000007" class="node">
<title>Node7</title>
<g id="a_Node000007"><a xlink:href="sd__disk_8c.html" target="_top" xlink:title="The SD Disk related function.">
<polygon fill="white" stroke="#666666" points="595.96,-188 537.96,-188 537.96,-168 595.96,-168 595.96,-188"/>
<text text-anchor="middle" x="566.96" y="-174.5" font-family="Helvetica,sans-Serif" font-size="10.00">sd_disk.c</text>
</a>
</g>
</g>
<!-- Node1&#45;&gt;Node7 -->
<g id="edge6_Node000001_Node000007" class="edge">
<title>Node1&#45;&gt;Node7</title>
<g id="a_edge6_Node000001_Node000007"><a xlink:title=" ">
<path fill="none" stroke="#63b8ff" d="M524.69,-223.95C533.7,-214.36 542.91,-204.57 550.43,-196.58"/>
<polygon fill="#63b8ff" stroke="#63b8ff" points="552.75,-199.22 557.05,-189.54 547.65,-194.43 552.75,-199.22"/>
</a>
</g>
</g>
<!-- Node11 -->
<g id="Node000011" class="node">
<title>Node11</title>
<g id="a_Node000011"><a xlink:href="spi__sd_8c.html" target="_top" xlink:title="The SD Memory card driver. Supports both SD and SDHC.">
<polygon fill="white" stroke="#666666" points="677.34,-188 624.59,-188 624.59,-168 677.34,-168 677.34,-188"/>
<text text-anchor="middle" x="650.96" y="-174.5" font-family="Helvetica,sans-Serif" font-size="10.00">spi_sd.c</text>
</a>
</g>
</g>
<!-- Node1&#45;&gt;Node11 -->
<g id="edge12_Node000001_Node000011" class="edge">
<title>Node1&#45;&gt;Node11</title>
<g id="a_edge12_Node000001_Node000011"><a xlink:title=" ">
<path fill="none" stroke="#63b8ff" d="M564.21,-223.71C585.15,-212.92 606.54,-201.89 622.85,-193.49"/>
<polygon fill="#63b8ff" stroke="#63b8ff" points="624.14,-196.76 631.43,-189.07 620.94,-190.54 624.14,-196.76"/>
</a>
</g>
</g>
<!-- Node12 -->
<g id="Node000012" class="node">
<title>Node12</title>
<g id="a_Node000012"><a xlink:href="_mass___storage_2usb__bulk__only__transport_8c.html" target="_top" xlink:title="The Bulk Only Transport (BOT).">
<polygon fill="white" stroke="#666666" points="437.96,-188 307.96,-188 307.96,-168 437.96,-168 437.96,-188"/>
<text text-anchor="middle" x="372.96" y="-174.5" font-family="Helvetica,sans-Serif" font-size="10.00">usb_bulk_only_transport.c</text>
</a>
</g>
</g>
<!-- Node1&#45;&gt;Node12 -->
<g id="edge15_Node000001_Node000012" class="edge">
<title>Node1&#45;&gt;Node12</title>
<g id="a_edge15_Node000001_Node000012"><a xlink:title=" ">
<path fill="none" stroke="#63b8ff" d="M434.17,-223.71C420.24,-213.53 406.02,-203.15 394.8,-194.95"/>
<polygon fill="#63b8ff" stroke="#63b8ff" points="397.16,-192.34 387.02,-189.27 393.03,-197.99 397.16,-192.34"/>
</a>
</g>
</g>
<!-- Node15 -->
<g id="Node000015" class="node">
<title>Node15</title>
<g id="a_Node000015"><a xlink:href="_mass___storage_2usb__scsi__block__command_8c.html" target="_top" xlink:title="The SCSI Block Command (SBC&#45;3 &amp; SPC&#45;4).">
<polygon fill="white" stroke="#666666" points="227.84,-188 88.09,-188 88.09,-168 227.84,-168 227.84,-188"/>
<text text-anchor="middle" x="157.96" y="-174.5" font-family="Helvetica,sans-Serif" font-size="10.00">usb_scsi_block_command.c</text>
</a>
</g>
</g>
<!-- Node1&#45;&gt;Node15 -->
<g id="edge21_Node000001_Node000015" class="edge">
<title>Node1&#45;&gt;Node15</title>
<g id="a_edge21_Node000001_Node000015"><a xlink:title=" ">
<path fill="none" stroke="#63b8ff" d="M398.22,-240.16C336.3,-224.39 256.37,-204.05 206.13,-191.26"/>
<polygon fill="#63b8ff" stroke="#63b8ff" points="207.28,-187.94 196.72,-188.87 205.55,-194.73 207.28,-187.94"/>
</a>
</g>
</g>
<!-- Node3 -->
<g id="Node000003" class="node">
<title>Node3</title>
<g id="a_Node000003"><a xlink:href="_mass___storage_2ram__disk_8h.html" target="_top" xlink:title="The header file of RAM Disk.">
<polygon fill="white" stroke="#666666" points="508.96,-132 444.96,-132 444.96,-112 508.96,-112 508.96,-132"/>
<text text-anchor="middle" x="476.96" y="-118.5" font-family="Helvetica,sans-Serif" font-size="10.00">ram_disk.h</text>
</a>
</g>
</g>
<!-- Node2&#45;&gt;Node3 -->
<g id="edge2_Node000002_Node000003" class="edge">
<title>Node2&#45;&gt;Node3</title>
<g id="a_edge2_Node000002_Node000003"><a xlink:title=" ">
<path fill="none" stroke="#63b8ff" d="M486.05,-167.59C484.69,-160.93 482.82,-151.75 481.13,-143.44"/>
<polygon fill="#63b8ff" stroke="#63b8ff" points="484.58,-142.88 479.16,-133.78 477.72,-144.28 484.58,-142.88"/>
</a>
</g>
</g>
<!-- Node4 -->
<g id="Node000004" class="node">
<title>Node4</title>
<g id="a_Node000004"><a xlink:title=" ">
<polygon fill="#e0e0e0" stroke="#999999" points="577.46,-76 534.46,-76 534.46,-56 577.46,-56 577.46,-76"/>
<text text-anchor="middle" x="555.96" y="-62.5" font-family="Helvetica,sans-Serif" font-size="10.00">ht32.h</text>
</a>
</g>
</g>
<!-- Node3&#45;&gt;Node4 -->
<g id="edge3_Node000003_Node000004" class="edge">
<title>Node3&#45;&gt;Node4</title>
<g id="a_edge3_Node000003_Node000004"><a xlink:title=" ">
<path fill="none" stroke="#63b8ff" d="M490.72,-111.59C502.32,-103.67 519.16,-92.16 532.82,-82.82"/>
<polygon fill="#63b8ff" stroke="#63b8ff" points="534.56,-85.87 540.84,-77.33 530.61,-80.09 534.56,-85.87"/>
</a>
</g>
</g>
<!-- Node5 -->
<g id="Node000005" class="node">
<title>Node5</title>
<g id="a_Node000005"><a xlink:href="_mass___storage_2usb__bulk__only__transport_8h.html" target="_top" xlink:title="The header file of Bulk Only Transport.">
<polygon fill="white" stroke="#666666" points="498.96,-76 368.96,-76 368.96,-56 498.96,-56 498.96,-76"/>
<text text-anchor="middle" x="433.96" y="-62.5" font-family="Helvetica,sans-Serif" font-size="10.00">usb_bulk_only_transport.h</text>
</a>
</g>
</g>
<!-- Node3&#45;&gt;Node5 -->
<g id="edge4_Node000003_Node000005" class="edge">
<title>Node3&#45;&gt;Node5</title>
<g id="a_edge4_Node000003_Node000005"><a xlink:title=" ">
<path fill="none" stroke="#63b8ff" d="M469.47,-111.59C463.68,-104.32 455.47,-94.02 448.41,-85.15"/>
<polygon fill="#63b8ff" stroke="#63b8ff" points="451.28,-83.12 442.31,-77.48 445.8,-87.49 451.28,-83.12"/>
</a>
</g>
</g>
<!-- Node6 -->
<g id="Node000006" class="node">
<title>Node6</title>
<g id="a_Node000006"><a xlink:title=" ">
<polygon fill="#e0e0e0" stroke="#999999" points="470.09,-20 397.84,-20 397.84,0 470.09,0 470.09,-20"/>
<text text-anchor="middle" x="433.96" y="-6.5" font-family="Helvetica,sans-Serif" font-size="10.00">ht32_board.h</text>
</a>
</g>
</g>
<!-- Node5&#45;&gt;Node6 -->
<g id="edge5_Node000005_Node000006" class="edge">
<title>Node5&#45;&gt;Node6</title>
<g id="a_edge5_Node000005_Node000006"><a xlink:title=" ">
<path fill="none" stroke="#63b8ff" d="M433.96,-55.59C433.96,-49.01 433.96,-39.96 433.96,-31.73"/>
<polygon fill="#63b8ff" stroke="#63b8ff" points="437.46,-31.81 433.96,-21.81 430.46,-31.81 437.46,-31.81"/>
</a>
</g>
</g>
<!-- Node8 -->
<g id="Node000008" class="node">
<title>Node8</title>
<g id="a_Node000008"><a xlink:href="sd__disk_8h.html" target="_top" xlink:title="The header file of SD Disk.">
<polygon fill="white" stroke="#666666" points="584.96,-132 526.96,-132 526.96,-112 584.96,-112 584.96,-132"/>
<text text-anchor="middle" x="555.96" y="-118.5" font-family="Helvetica,sans-Serif" font-size="10.00">sd_disk.h</text>
</a>
</g>
</g>
<!-- Node7&#45;&gt;Node8 -->
<g id="edge7_Node000007_Node000008" class="edge">
<title>Node7&#45;&gt;Node8</title>
<g id="a_edge7_Node000007_Node000008"><a xlink:title=" ">
<path fill="none" stroke="#63b8ff" d="M565.05,-167.59C563.69,-160.93 561.82,-151.75 560.13,-143.44"/>
<polygon fill="#63b8ff" stroke="#63b8ff" points="563.58,-142.88 558.16,-133.78 556.72,-144.28 563.58,-142.88"/>
</a>
</g>
</g>
<!-- Node9 -->
<g id="Node000009" class="node">
<title>Node9</title>
<g id="a_Node000009"><a xlink:href="spi__sd_8h.html" target="_top" xlink:title="The header file of SD Memory card driver.">
<polygon fill="white" stroke="#666666" points="731.34,-132 678.59,-132 678.59,-112 731.34,-112 731.34,-132"/>
<text text-anchor="middle" x="704.96" y="-118.5" font-family="Helvetica,sans-Serif" font-size="10.00">spi_sd.h</text>
</a>
</g>
</g>
<!-- Node7&#45;&gt;Node9 -->
<g id="edge10_Node000007_Node000009" class="edge">
<title>Node7&#45;&gt;Node9</title>
<g id="a_edge10_Node000007_Node000009"><a xlink:title=" ">
<path fill="none" stroke="#63b8ff" d="M591,-167.59C612.93,-159.01 645.59,-146.23 670.33,-136.55"/>
<polygon fill="#63b8ff" stroke="#63b8ff" points="671.29,-139.93 679.33,-133.03 668.74,-133.42 671.29,-139.93"/>
</a>
</g>
</g>
<!-- Node8&#45;&gt;Node4 -->
<g id="edge8_Node000008_Node000004" class="edge">
<title>Node8&#45;&gt;Node4</title>
<g id="a_edge8_Node000008_Node000004"><a xlink:title=" ">
<path fill="none" stroke="#63b8ff" d="M555.96,-111.59C555.96,-105.01 555.96,-95.96 555.96,-87.73"/>
<polygon fill="#63b8ff" stroke="#63b8ff" points="559.46,-87.81 555.96,-77.81 552.46,-87.81 559.46,-87.81"/>
</a>
</g>
</g>
<!-- Node8&#45;&gt;Node5 -->
<g id="edge9_Node000008_Node000005" class="edge">
<title>Node8&#45;&gt;Node5</title>
<g id="a_edge9_Node000008_Node000005"><a xlink:title=" ">
<path fill="none" stroke="#63b8ff" d="M534.71,-111.59C515.67,-103.17 487.48,-90.69 465.76,-81.07"/>
<polygon fill="#63b8ff" stroke="#63b8ff" points="467.32,-77.94 456.76,-77.09 464.49,-84.34 467.32,-77.94"/>
</a>
</g>
</g>
<!-- Node10 -->
<g id="Node000010" class="node">
<title>Node10</title>
<g id="a_Node000010"><a xlink:href="_u_s_b_d_2_mass___storage_2ht32__board__config_8h.html" target="_top" xlink:title="The header file of board configuration.">
<polygon fill="white" stroke="#666666" points="756.46,-76 653.46,-76 653.46,-56 756.46,-56 756.46,-76"/>
<text text-anchor="middle" x="704.96" y="-62.5" font-family="Helvetica,sans-Serif" font-size="10.00">ht32_board_config.h</text>
</a>
</g>
</g>
<!-- Node9&#45;&gt;Node10 -->
<g id="edge11_Node000009_Node000010" class="edge">
<title>Node9&#45;&gt;Node10</title>
<g id="a_edge11_Node000009_Node000010"><a xlink:title=" ">
<path fill="none" stroke="#63b8ff" d="M704.96,-111.59C704.96,-105.01 704.96,-95.96 704.96,-87.73"/>
<polygon fill="#63b8ff" stroke="#63b8ff" points="708.46,-87.81 704.96,-77.81 701.46,-87.81 708.46,-87.81"/>
</a>
</g>
</g>
<!-- Node11&#45;&gt;Node4 -->
<g id="edge13_Node000011_Node000004" class="edge">
<title>Node11&#45;&gt;Node4</title>
<g id="a_edge13_Node000011_Node000004"><a xlink:title=" ">
<path fill="none" stroke="#63b8ff" d="M649.47,-167.67C646.91,-154.13 640.57,-128.84 626.96,-112 616.58,-99.16 601.51,-88.88 587.91,-81.4"/>
<polygon fill="#63b8ff" stroke="#63b8ff" points="589.75,-78.41 579.26,-76.93 586.54,-84.63 589.75,-78.41"/>
</a>
</g>
</g>
<!-- Node11&#45;&gt;Node9 -->
<g id="edge14_Node000011_Node000009" class="edge">
<title>Node11&#45;&gt;Node9</title>
<g id="a_edge14_Node000011_Node000009"><a xlink:title=" ">
<path fill="none" stroke="#63b8ff" d="M660.37,-167.59C667.88,-160.08 678.61,-149.35 687.66,-140.3"/>
<polygon fill="#63b8ff" stroke="#63b8ff" points="690,-142.91 694.59,-133.37 685.05,-137.96 690,-142.91"/>
</a>
</g>
</g>
<!-- Node12&#45;&gt;Node3 -->
<g id="edge20_Node000012_Node000003" class="edge">
<title>Node12&#45;&gt;Node3</title>
<g id="a_edge20_Node000012_Node000003"><a xlink:title=" ">
<path fill="none" stroke="#63b8ff" d="M391.08,-167.59C406.94,-159.36 430.24,-147.26 448.58,-137.74"/>
<polygon fill="#63b8ff" stroke="#63b8ff" points="450.1,-140.89 457.36,-133.18 446.87,-134.68 450.1,-140.89"/>
</a>
</g>
</g>
<!-- Node12&#45;&gt;Node4 -->
<g id="edge16_Node000012_Node000004" class="edge">
<title>Node12&#45;&gt;Node4</title>
<g id="a_edge16_Node000012_Node000004"><a xlink:title=" ">
<path fill="none" stroke="#63b8ff" d="M438.42,-167.92C499.94,-158.72 584.04,-144.15 593.96,-132 606.27,-116.94 591.43,-97.42 576.85,-83.72"/>
<polygon fill="#63b8ff" stroke="#63b8ff" points="579.46,-81.36 569.63,-77.4 574.85,-86.63 579.46,-81.36"/>
</a>
</g>
</g>
<!-- Node12&#45;&gt;Node5 -->
<g id="edge18_Node000012_Node000005" class="edge">
<title>Node12&#45;&gt;Node5</title>
<g id="a_edge18_Node000012_Node000005"><a xlink:title=" ">
<path fill="none" stroke="#63b8ff" d="M378.14,-167.69C383.19,-158.6 391.11,-144.35 397.96,-132 406.48,-116.64 416.12,-99.24 423.28,-86.31"/>
<polygon fill="#63b8ff" stroke="#63b8ff" points="426.33,-88.03 428.11,-77.58 420.2,-84.64 426.33,-88.03"/>
</a>
</g>
</g>
<!-- Node13 -->
<g id="Node000013" class="node">
<title>Node13</title>
<g id="a_Node000013"><a xlink:title=" ">
<polygon fill="#e0e0e0" stroke="#999999" points="388.59,-132 295.34,-132 295.34,-112 388.59,-112 388.59,-132"/>
<text text-anchor="middle" x="341.96" y="-118.5" font-family="Helvetica,sans-Serif" font-size="10.00">ht32_usbd_core.h</text>
</a>
</g>
</g>
<!-- Node12&#45;&gt;Node13 -->
<g id="edge17_Node000012_Node000013" class="edge">
<title>Node12&#45;&gt;Node13</title>
<g id="a_edge17_Node000012_Node000013"><a xlink:title=" ">
<path fill="none" stroke="#63b8ff" d="M367.56,-167.59C363.52,-160.55 357.85,-150.67 352.87,-142"/>
<polygon fill="#63b8ff" stroke="#63b8ff" points="356.07,-140.54 348.05,-133.61 350,-144.03 356.07,-140.54"/>
</a>
</g>
</g>
<!-- Node14 -->
<g id="Node000014" class="node">
<title>Node14</title>
<g id="a_Node000014"><a xlink:href="_mass___storage_2usb__scsi__block__command_8h.html" target="_top" xlink:title="The header file of SCSI Block Command (SBC&#45;3 &amp; SPC&#45;4).">
<polygon fill="white" stroke="#666666" points="276.84,-132 137.09,-132 137.09,-112 276.84,-112 276.84,-132"/>
<text text-anchor="middle" x="206.96" y="-118.5" font-family="Helvetica,sans-Serif" font-size="10.00">usb_scsi_block_command.h</text>
</a>
</g>
</g>
<!-- Node12&#45;&gt;Node14 -->
<g id="edge19_Node000012_Node000014" class="edge">
<title>Node12&#45;&gt;Node14</title>
<g id="a_edge19_Node000012_Node000014"><a xlink:title=" ">
<path fill="none" stroke="#63b8ff" d="M344.05,-167.59C317.2,-158.86 276.97,-145.77 247.03,-136.03"/>
<polygon fill="#63b8ff" stroke="#63b8ff" points="248.13,-132.71 237.54,-132.95 245.97,-139.37 248.13,-132.71"/>
</a>
</g>
</g>
<!-- Node15&#45;&gt;Node4 -->
<g id="edge22_Node000015_Node000004" class="edge">
<title>Node15&#45;&gt;Node4</title>
<g id="a_edge22_Node000015_Node000004"><a xlink:title=" ">
<path fill="none" stroke="#63b8ff" d="M147.62,-167.59C133.86,-153.96 112.91,-128.55 127.96,-112 156.5,-80.63 465.97,-81.91 507.96,-76 512.78,-75.32 517.85,-74.5 522.81,-73.62"/>
<polygon fill="#63b8ff" stroke="#63b8ff" points="523.36,-77.08 532.56,-71.82 522.09,-70.2 523.36,-77.08"/>
</a>
</g>
</g>
<!-- Node15&#45;&gt;Node5 -->
<g id="edge24_Node000015_Node000005" class="edge">
<title>Node15&#45;&gt;Node5</title>
<g id="a_edge24_Node000015_Node000005"><a xlink:title=" ">
<path fill="none" stroke="#63b8ff" d="M87.72,-169.12C36.07,-160.58 -20.56,-143.7 7.96,-112 30.86,-86.55 241.18,-74.43 357.48,-69.63"/>
<polygon fill="#63b8ff" stroke="#63b8ff" points="357.41,-73.14 367.26,-69.24 357.13,-66.14 357.41,-73.14"/>
</a>
</g>
</g>
<!-- Node15&#45;&gt;Node13 -->
<g id="edge23_Node000015_Node000013" class="edge">
<title>Node15&#45;&gt;Node13</title>
<g id="a_edge23_Node000015_Node000013"><a xlink:title=" ">
<path fill="none" stroke="#63b8ff" d="M190.01,-167.59C220.17,-158.74 265.55,-145.43 298.86,-135.65"/>
<polygon fill="#63b8ff" stroke="#63b8ff" points="299.6,-139.08 308.21,-132.91 297.63,-132.36 299.6,-139.08"/>
</a>
</g>
</g>
<!-- Node15&#45;&gt;Node14 -->
<g id="edge25_Node000015_Node000014" class="edge">
<title>Node15&#45;&gt;Node14</title>
<g id="a_edge25_Node000015_Node000014"><a xlink:title=" ">
<path fill="none" stroke="#63b8ff" d="M166.5,-167.59C173.24,-160.16 182.85,-149.58 191.01,-140.58"/>
<polygon fill="#63b8ff" stroke="#63b8ff" points="193.38,-143.18 197.51,-133.42 188.2,-138.47 193.38,-143.18"/>
</a>
</g>
</g>
<!-- Node16 -->
<g id="Node000016" class="node">
<title>Node16</title>
<g id="a_Node000016"><a xlink:href="_mass___storage_2usb__scsi_8h.html" target="_top" xlink:title="The header file of SCSI Block Command (SBC&#45;3 &amp; SPC&#45;4).">
<polygon fill="white" stroke="#666666" points="80.59,-132 17.34,-132 17.34,-112 80.59,-112 80.59,-132"/>
<text text-anchor="middle" x="48.96" y="-118.5" font-family="Helvetica,sans-Serif" font-size="10.00">usb_scsi.h</text>
</a>
</g>
</g>
<!-- Node15&#45;&gt;Node16 -->
<g id="edge26_Node000015_Node000016" class="edge">
<title>Node15&#45;&gt;Node16</title>
<g id="a_edge26_Node000015_Node000016"><a xlink:title=" ">
<path fill="none" stroke="#63b8ff" d="M138.98,-167.59C122.2,-159.28 97.47,-147.03 78.17,-137.47"/>
<polygon fill="#63b8ff" stroke="#63b8ff" points="79.97,-134.45 69.45,-133.15 76.86,-140.73 79.97,-134.45"/>
</a>
</g>
</g>
</g>
</svg>
