<?xml version="1.0" encoding="UTF-8" standalone="no"?>
<!DOCTYPE svg PUBLIC "-//W3C//DTD SVG 1.1//EN"
 "http://www.w3.org/Graphics/SVG/1.1/DTD/svg11.dtd">
<!-- Generated by graphviz version 9.0.0 (20230911.1827)
 -->
<!-- Title: D:/Note_Database/Subject/MCETA Microcontroller Experiment TA/files/HT32_STD_5xxxx_FWLib_V1.5.1_7084b/example/USBD/Mass_Storage/ht32_board_config.h Pages: 1 -->
<svg width="471pt" height="516pt"
 viewBox="0.00 0.00 470.75 516.00" xmlns="http://www.w3.org/2000/svg" xmlns:xlink="http://www.w3.org/1999/xlink">
<g id="graph0" class="graph" transform="scale(1 1) rotate(0) translate(4 512)">
<title>D:/Note_Database/Subject/MCETA Microcontroller Experiment TA/files/HT32_STD_5xxxx_FWLib_V1.5.1_7084b/example/USBD/Mass_Storage/ht32_board_config.h</title>
<!-- Node1 -->
<g id="Node000001" class="node">
<title>Node1</title>
<g id="a_Node000001"><a xlink:title="The header file of board configuration.">
<polygon fill="#999999" stroke="#666666" points="178.75,-508 5.25,-508 5.25,-428 178.75,-428 178.75,-508"/>
<text text-anchor="start" x="13.25" y="-494.5" font-family="Helvetica,sans-Serif" font-size="10.00">D:/Note_Database/Subject</text>
<text text-anchor="start" x="13.25" y="-482.5" font-family="Helvetica,sans-Serif" font-size="10.00">/MCETA Microcontroller</text>
<text text-anchor="start" x="13.25" y="-470.5" font-family="Helvetica,sans-Serif" font-size="10.00"> Experiment TA/files/HT32</text>
<text text-anchor="start" x="13.25" y="-458.5" font-family="Helvetica,sans-Serif" font-size="10.00">_STD_5xxxx_FWLib_V1.5.1_7084b</text>
<text text-anchor="start" x="13.25" y="-446.5" font-family="Helvetica,sans-Serif" font-size="10.00">/example/USBD/Mass_Storage/ht32</text>
<text text-anchor="middle" x="92" y="-434.5" font-family="Helvetica,sans-Serif" font-size="10.00">_board_config.h</text>
</a>
</g>
</g>
<!-- Node2 -->
<g id="Node000002" class="node">
<title>Node2</title>
<g id="a_Node000002"><a xlink:href="_u_s_b_d_2_mass___storage_2main_8c.html" target="_top" xlink:title="The main program of USB Device Mass Storage example.">
<polygon fill="white" stroke="#666666" points="184,-68 0,-68 0,0 184,0 184,-68"/>
<text text-anchor="start" x="8" y="-54.5" font-family="Helvetica,sans-Serif" font-size="10.00">D:/Note_Database/Subject</text>
<text text-anchor="start" x="8" y="-42.5" font-family="Helvetica,sans-Serif" font-size="10.00">/MCETA Microcontroller</text>
<text text-anchor="start" x="8" y="-30.5" font-family="Helvetica,sans-Serif" font-size="10.00"> Experiment TA/files/HT32</text>
<text text-anchor="start" x="8" y="-18.5" font-family="Helvetica,sans-Serif" font-size="10.00">_STD_5xxxx_FWLib_V1.5.1_7084b</text>
<text text-anchor="middle" x="92" y="-6.5" font-family="Helvetica,sans-Serif" font-size="10.00">/example/USBD/Mass_Storage/main.c</text>
</a>
</g>
</g>
<!-- Node1&#45;&gt;Node2 -->
<g id="edge1_Node000001_Node000002" class="edge">
<title>Node1&#45;&gt;Node2</title>
<g id="a_edge1_Node000001_Node000002"><a xlink:title=" ">
<path fill="none" stroke="#63b8ff" d="M59.91,-417.53C55.87,-409.28 52.33,-400.61 50,-392 16.48,-268.43 22.43,-227.28 57,-104 60.41,-91.84 66.03,-79.31 71.79,-68.32"/>
<polygon fill="#63b8ff" stroke="#63b8ff" points="56.81,-419.14 64.56,-426.36 63,-415.88 56.81,-419.14"/>
</a>
</g>
</g>
<!-- Node3 -->
<g id="Node000003" class="node">
<title>Node3</title>
<g id="a_Node000003"><a xlink:href="spi__sd_8h.html" target="_top" xlink:title="The header file of SD Memory card driver.">
<polygon fill="white" stroke="#666666" points="250.75,-392 59.25,-392 59.25,-324 250.75,-324 250.75,-392"/>
<text text-anchor="start" x="67.25" y="-378.5" font-family="Helvetica,sans-Serif" font-size="10.00">D:/Note_Database/Subject</text>
<text text-anchor="start" x="67.25" y="-366.5" font-family="Helvetica,sans-Serif" font-size="10.00">/MCETA Microcontroller</text>
<text text-anchor="start" x="67.25" y="-354.5" font-family="Helvetica,sans-Serif" font-size="10.00"> Experiment TA/files/HT32</text>
<text text-anchor="start" x="67.25" y="-342.5" font-family="Helvetica,sans-Serif" font-size="10.00">_STD_5xxxx_FWLib_V1.5.1_7084b</text>
<text text-anchor="middle" x="155" y="-330.5" font-family="Helvetica,sans-Serif" font-size="10.00">/example/USBD/Mass_Storage/spi_sd.h</text>
</a>
</g>
</g>
<!-- Node1&#45;&gt;Node3 -->
<g id="edge2_Node000001_Node000003" class="edge">
<title>Node1&#45;&gt;Node3</title>
<g id="a_edge2_Node000001_Node000003"><a xlink:title=" ">
<path fill="none" stroke="#63b8ff" d="M120.56,-418.03C125.62,-409.36 130.78,-400.51 135.52,-392.4"/>
<polygon fill="#63b8ff" stroke="#63b8ff" points="117.7,-416 115.69,-426.4 123.75,-419.52 117.7,-416"/>
</a>
</g>
</g>
<!-- Node4 -->
<g id="Node000004" class="node">
<title>Node4</title>
<g id="a_Node000004"><a xlink:href="sd__disk_8c.html" target="_top" xlink:title="The SD Disk related function.">
<polygon fill="white" stroke="#666666" points="253.38,-288 56.62,-288 56.62,-220 253.38,-220 253.38,-288"/>
<text text-anchor="start" x="64.62" y="-274.5" font-family="Helvetica,sans-Serif" font-size="10.00">D:/Note_Database/Subject</text>
<text text-anchor="start" x="64.62" y="-262.5" font-family="Helvetica,sans-Serif" font-size="10.00">/MCETA Microcontroller</text>
<text text-anchor="start" x="64.62" y="-250.5" font-family="Helvetica,sans-Serif" font-size="10.00"> Experiment TA/files/HT32</text>
<text text-anchor="start" x="64.62" y="-238.5" font-family="Helvetica,sans-Serif" font-size="10.00">_STD_5xxxx_FWLib_V1.5.1_7084b</text>
<text text-anchor="middle" x="155" y="-226.5" font-family="Helvetica,sans-Serif" font-size="10.00">/example/USBD/Mass_Storage/sd_disk.c</text>
</a>
</g>
</g>
<!-- Node3&#45;&gt;Node4 -->
<g id="edge3_Node000003_Node000004" class="edge">
<title>Node3&#45;&gt;Node4</title>
<g id="a_edge3_Node000003_Node000004"><a xlink:title=" ">
<path fill="none" stroke="#63b8ff" d="M155,-312.18C155,-304.22 155,-296.05 155,-288.47"/>
<polygon fill="#63b8ff" stroke="#63b8ff" points="151.5,-312.09 155,-322.09 158.5,-312.09 151.5,-312.09"/>
</a>
</g>
</g>
<!-- Node6 -->
<g id="Node000006" class="node">
<title>Node6</title>
<g id="a_Node000006"><a xlink:href="spi__sd_8c.html" target="_top" xlink:title="The SD Memory card driver. Supports both SD and SDHC.">
<polygon fill="white" stroke="#666666" points="462.75,-288 271.25,-288 271.25,-220 462.75,-220 462.75,-288"/>
<text text-anchor="start" x="279.25" y="-274.5" font-family="Helvetica,sans-Serif" font-size="10.00">D:/Note_Database/Subject</text>
<text text-anchor="start" x="279.25" y="-262.5" font-family="Helvetica,sans-Serif" font-size="10.00">/MCETA Microcontroller</text>
<text text-anchor="start" x="279.25" y="-250.5" font-family="Helvetica,sans-Serif" font-size="10.00"> Experiment TA/files/HT32</text>
<text text-anchor="start" x="279.25" y="-238.5" font-family="Helvetica,sans-Serif" font-size="10.00">_STD_5xxxx_FWLib_V1.5.1_7084b</text>
<text text-anchor="middle" x="367" y="-226.5" font-family="Helvetica,sans-Serif" font-size="10.00">/example/USBD/Mass_Storage/spi_sd.c</text>
</a>
</g>
</g>
<!-- Node3&#45;&gt;Node6 -->
<g id="edge6_Node000003_Node000006" class="edge">
<title>Node3&#45;&gt;Node6</title>
<g id="a_edge6_Node000003_Node000006"><a xlink:title=" ">
<path fill="none" stroke="#63b8ff" d="M234.73,-318.64C255.34,-308.72 277.38,-298.12 297.43,-288.47"/>
<polygon fill="#63b8ff" stroke="#63b8ff" points="233.27,-315.46 225.78,-322.95 236.31,-321.76 233.27,-315.46"/>
</a>
</g>
</g>
<!-- Node5 -->
<g id="Node000005" class="node">
<title>Node5</title>
<g id="a_Node000005"><a xlink:href="_u_s_b_d_2_mass___storage_2__ht32__project__source_8h.html" target="_top" xlink:title="The project source code setting.">
<polygon fill="white" stroke="#666666" points="244.38,-184 65.62,-184 65.62,-104 244.38,-104 244.38,-184"/>
<text text-anchor="start" x="73.62" y="-170.5" font-family="Helvetica,sans-Serif" font-size="10.00">D:/Note_Database/Subject</text>
<text text-anchor="start" x="73.62" y="-158.5" font-family="Helvetica,sans-Serif" font-size="10.00">/MCETA Microcontroller</text>
<text text-anchor="start" x="73.62" y="-146.5" font-family="Helvetica,sans-Serif" font-size="10.00"> Experiment TA/files/HT32</text>
<text text-anchor="start" x="73.62" y="-134.5" font-family="Helvetica,sans-Serif" font-size="10.00">_STD_5xxxx_FWLib_V1.5.1_7084b</text>
<text text-anchor="start" x="73.62" y="-122.5" font-family="Helvetica,sans-Serif" font-size="10.00">/example/USBD/Mass_Storage/_ht32</text>
<text text-anchor="middle" x="155" y="-110.5" font-family="Helvetica,sans-Serif" font-size="10.00">_project_source.h</text>
</a>
</g>
</g>
<!-- Node4&#45;&gt;Node5 -->
<g id="edge4_Node000004_Node000005" class="edge">
<title>Node4&#45;&gt;Node5</title>
<g id="a_edge4_Node000004_Node000005"><a xlink:title=" ">
<path fill="none" stroke="#63b8ff" d="M155,-208.37C155,-200.43 155,-192.21 155,-184.43"/>
<polygon fill="#63b8ff" stroke="#63b8ff" points="151.5,-208.2 155,-218.2 158.5,-208.2 151.5,-208.2"/>
</a>
</g>
</g>
<!-- Node5&#45;&gt;Node2 -->
<g id="edge5_Node000005_Node000002" class="edge">
<title>Node5&#45;&gt;Node2</title>
<g id="a_edge5_Node000005_Node000002"><a xlink:title=" ">
<path fill="none" stroke="#63b8ff" d="M126.44,-94.03C121.38,-85.36 116.22,-76.51 111.48,-68.4"/>
<polygon fill="#63b8ff" stroke="#63b8ff" points="123.25,-95.52 131.31,-102.4 129.3,-92 123.25,-95.52"/>
</a>
</g>
</g>
<!-- Node6&#45;&gt;Node5 -->
<g id="edge7_Node000006_Node000005" class="edge">
<title>Node6&#45;&gt;Node5</title>
<g id="a_edge7_Node000006_Node000005"><a xlink:title=" ">
<path fill="none" stroke="#63b8ff" d="M291.2,-214.38C272.04,-204.62 251.44,-194.13 232.21,-184.33"/>
<polygon fill="#63b8ff" stroke="#63b8ff" points="289.53,-217.46 300.03,-218.88 292.7,-211.22 289.53,-217.46"/>
</a>
</g>
</g>
</g>
</svg>
