<?xml version="1.0" encoding="UTF-8" standalone="no"?>
<!DOCTYPE svg PUBLIC "-//W3C//DTD SVG 1.1//EN"
 "http://www.w3.org/Graphics/SVG/1.1/DTD/svg11.dtd">
<!-- Generated by graphviz version 9.0.0 (20230911.1827)
 -->
<!-- Title: D:/Note_Database/Subject/MCETA Microcontroller Experiment TA/files/HT32_STD_5xxxx_FWLib_V1.5.1_7084b/example/USBD/USB_Video/ht32f5xxxx_01_it.c Pages: 1 -->
<svg width="232pt" height="132pt"
 viewBox="0.00 0.00 231.75 132.00" xmlns="http://www.w3.org/2000/svg" xmlns:xlink="http://www.w3.org/1999/xlink">
<g id="graph0" class="graph" transform="scale(1 1) rotate(0) translate(4 128)">
<title>D:/Note_Database/Subject/MCETA Microcontroller Experiment TA/files/HT32_STD_5xxxx_FWLib_V1.5.1_7084b/example/USBD/USB_Video/ht32f5xxxx_01_it.c</title>
<!-- Node1 -->
<g id="Node000001" class="node">
<title>Node1</title>
<g id="a_Node000001"><a xlink:title="This file provides all interrupt service routine.">
<polygon fill="#999999" stroke="#666666" points="223.75,-124 0,-124 0,-56 223.75,-56 223.75,-124"/>
<text text-anchor="start" x="8" y="-110.5" font-family="Helvetica,sans-Serif" font-size="10.00">D:/Note_Database/Subject</text>
<text text-anchor="start" x="8" y="-98.5" font-family="Helvetica,sans-Serif" font-size="10.00">/MCETA Microcontroller</text>
<text text-anchor="start" x="8" y="-86.5" font-family="Helvetica,sans-Serif" font-size="10.00"> Experiment TA/files/HT32</text>
<text text-anchor="start" x="8" y="-74.5" font-family="Helvetica,sans-Serif" font-size="10.00">_STD_5xxxx_FWLib_V1.5.1_7084b</text>
<text text-anchor="middle" x="111.88" y="-62.5" font-family="Helvetica,sans-Serif" font-size="10.00">/example/USBD/USB_Video/ht32f5xxxx_01_it.c</text>
</a>
</g>
</g>
<!-- Node2 -->
<g id="Node000002" class="node">
<title>Node2</title>
<g id="a_Node000002"><a xlink:title=" ">
<polygon fill="#e0e0e0" stroke="#999999" points="90.38,-20 47.38,-20 47.38,0 90.38,0 90.38,-20"/>
<text text-anchor="middle" x="68.88" y="-6.5" font-family="Helvetica,sans-Serif" font-size="10.00">ht32.h</text>
</a>
</g>
</g>
<!-- Node1&#45;&gt;Node2 -->
<g id="edge1_Node000001_Node000002" class="edge">
<title>Node1&#45;&gt;Node2</title>
<g id="a_edge1_Node000001_Node000002"><a xlink:title=" ">
<path fill="none" stroke="#63b8ff" d="M93.64,-55.92C88.79,-47.12 83.7,-37.9 79.42,-30.12"/>
<polygon fill="#63b8ff" stroke="#63b8ff" points="82.61,-28.67 74.72,-21.6 76.48,-32.05 82.61,-28.67"/>
</a>
</g>
</g>
<!-- Node3 -->
<g id="Node000003" class="node">
<title>Node3</title>
<g id="a_Node000003"><a xlink:title=" ">
<polygon fill="#e0e0e0" stroke="#999999" points="201.5,-20 108.25,-20 108.25,0 201.5,0 201.5,-20"/>
<text text-anchor="middle" x="154.88" y="-6.5" font-family="Helvetica,sans-Serif" font-size="10.00">ht32_usbd_core.h</text>
</a>
</g>
</g>
<!-- Node1&#45;&gt;Node3 -->
<g id="edge2_Node000001_Node000003" class="edge">
<title>Node1&#45;&gt;Node3</title>
<g id="a_edge2_Node000001_Node000003"><a xlink:title=" ">
<path fill="none" stroke="#63b8ff" d="M130.11,-55.92C134.96,-47.12 140.05,-37.9 144.33,-30.12"/>
<polygon fill="#63b8ff" stroke="#63b8ff" points="147.27,-32.05 149.03,-21.6 141.14,-28.67 147.27,-32.05"/>
</a>
</g>
</g>
</g>
</svg>
