<?xml version="1.0" encoding="UTF-8" standalone="no"?>
<!DOCTYPE svg PUBLIC "-//W3C//DTD SVG 1.1//EN"
 "http://www.w3.org/Graphics/SVG/1.1/DTD/svg11.dtd">
<!-- Generated by graphviz version 9.0.0 (20230911.1827)
 -->
<!-- Title: D:/Note_Database/Subject/MCETA Microcontroller Experiment TA/files/HT32_STD_5xxxx_FWLib_V1.5.1_7084b/example/USBD/Virtual_COM/ht32_usbd_descriptor.c Pages: 1 -->
<svg width="263pt" height="256pt"
 viewBox="0.00 0.00 263.12 256.00" xmlns="http://www.w3.org/2000/svg" xmlns:xlink="http://www.w3.org/1999/xlink">
<g id="graph0" class="graph" transform="scale(1 1) rotate(0) translate(4 252)">
<title>D:/Note_Database/Subject/MCETA Microcontroller Experiment TA/files/HT32_STD_5xxxx_FWLib_V1.5.1_7084b/example/USBD/Virtual_COM/ht32_usbd_descriptor.c</title>
<!-- Node1 -->
<g id="Node000001" class="node">
<title>Node1</title>
<g id="a_Node000001"><a xlink:title="The USB Descriptor.">
<polygon fill="#999999" stroke="#666666" points="175.75,-248 5.25,-248 5.25,-168 175.75,-168 175.75,-248"/>
<text text-anchor="start" x="13.25" y="-234.5" font-family="Helvetica,sans-Serif" font-size="10.00">D:/Note_Database/Subject</text>
<text text-anchor="start" x="13.25" y="-222.5" font-family="Helvetica,sans-Serif" font-size="10.00">/MCETA Microcontroller</text>
<text text-anchor="start" x="13.25" y="-210.5" font-family="Helvetica,sans-Serif" font-size="10.00"> Experiment TA/files/HT32</text>
<text text-anchor="start" x="13.25" y="-198.5" font-family="Helvetica,sans-Serif" font-size="10.00">_STD_5xxxx_FWLib_V1.5.1_7084b</text>
<text text-anchor="start" x="13.25" y="-186.5" font-family="Helvetica,sans-Serif" font-size="10.00">/example/USBD/Virtual_COM/ht32</text>
<text text-anchor="middle" x="90.5" y="-174.5" font-family="Helvetica,sans-Serif" font-size="10.00">_usbd_descriptor.c</text>
</a>
</g>
</g>
<!-- Node2 -->
<g id="Node000002" class="node">
<title>Node2</title>
<g id="a_Node000002"><a xlink:title=" ">
<polygon fill="#e0e0e0" stroke="#999999" points="43,-132 0,-132 0,-112 43,-112 43,-132"/>
<text text-anchor="middle" x="21.5" y="-118.5" font-family="Helvetica,sans-Serif" font-size="10.00">ht32.h</text>
</a>
</g>
</g>
<!-- Node1&#45;&gt;Node2 -->
<g id="edge1_Node000001_Node000002" class="edge">
<title>Node1&#45;&gt;Node2</title>
<g id="a_edge1_Node000001_Node000002"><a xlink:title=" ">
<path fill="none" stroke="#63b8ff" d="M58.42,-167.95C50.72,-158.57 42.85,-148.99 36.37,-141.1"/>
<polygon fill="#63b8ff" stroke="#63b8ff" points="39.26,-139.11 30.21,-133.61 33.86,-143.56 39.26,-139.11"/>
</a>
</g>
</g>
<!-- Node3 -->
<g id="Node000003" class="node">
<title>Node3</title>
<g id="a_Node000003"><a xlink:title=" ">
<polygon fill="#e0e0e0" stroke="#999999" points="156.12,-20 62.88,-20 62.88,0 156.12,0 156.12,-20"/>
<text text-anchor="middle" x="109.5" y="-6.5" font-family="Helvetica,sans-Serif" font-size="10.00">ht32_usbd_core.h</text>
</a>
</g>
</g>
<!-- Node1&#45;&gt;Node3 -->
<g id="edge2_Node000001_Node000003" class="edge">
<title>Node1&#45;&gt;Node3</title>
<g id="a_edge2_Node000001_Node000003"><a xlink:title=" ">
<path fill="none" stroke="#63b8ff" d="M86.27,-167.78C83.97,-137.05 82.93,-93.38 90.5,-56 92.26,-47.29 95.77,-38.17 99.29,-30.43"/>
<polygon fill="#63b8ff" stroke="#63b8ff" points="102.33,-32.18 103.6,-21.66 96.05,-29.09 102.33,-32.18"/>
</a>
</g>
</g>
<!-- Node4 -->
<g id="Node000004" class="node">
<title>Node4</title>
<g id="a_Node000004"><a xlink:href="_u_s_b_d_2_virtual___c_o_m_2ht32__usbd__class_8h.html" target="_top" xlink:title="The header file of USB Device Class.">
<polygon fill="white" stroke="#666666" points="197.38,-76 99.62,-76 99.62,-56 197.38,-56 197.38,-76"/>
<text text-anchor="middle" x="148.5" y="-62.5" font-family="Helvetica,sans-Serif" font-size="10.00">ht32_usbd_class.h</text>
</a>
</g>
</g>
<!-- Node1&#45;&gt;Node4 -->
<g id="edge3_Node000001_Node000004" class="edge">
<title>Node1&#45;&gt;Node4</title>
<g id="a_edge3_Node000001_Node000004"><a xlink:title=" ">
<path fill="none" stroke="#63b8ff" d="M105.88,-167.58C112.67,-150.44 120.83,-130.17 128.5,-112 132.03,-103.64 136.07,-94.47 139.59,-86.61"/>
<polygon fill="#63b8ff" stroke="#63b8ff" points="142.72,-88.2 143.64,-77.64 136.33,-85.32 142.72,-88.2"/>
</a>
</g>
</g>
<!-- Node5 -->
<g id="Node000005" class="node">
<title>Node5</title>
<g id="a_Node000005"><a xlink:href="_u_s_b_d_2_virtual___c_o_m_2ht32__usbd__descriptor_8h.html" target="_top" xlink:title="The USB descriptor.">
<polygon fill="white" stroke="#666666" points="255.12,-132 137.88,-132 137.88,-112 255.12,-112 255.12,-132"/>
<text text-anchor="middle" x="196.5" y="-118.5" font-family="Helvetica,sans-Serif" font-size="10.00">ht32_usbd_descriptor.h</text>
</a>
</g>
</g>
<!-- Node1&#45;&gt;Node5 -->
<g id="edge5_Node000001_Node000005" class="edge">
<title>Node1&#45;&gt;Node5</title>
<g id="a_edge5_Node000001_Node000005"><a xlink:title=" ">
<path fill="none" stroke="#63b8ff" d="M140.09,-167.71C152.66,-157.74 165.5,-147.57 175.74,-139.45"/>
<polygon fill="#63b8ff" stroke="#63b8ff" points="177.82,-142.27 183.49,-133.31 173.48,-136.78 177.82,-142.27"/>
</a>
</g>
</g>
<!-- Node4&#45;&gt;Node3 -->
<g id="edge4_Node000004_Node000003" class="edge">
<title>Node4&#45;&gt;Node3</title>
<g id="a_edge4_Node000004_Node000003"><a xlink:title=" ">
<path fill="none" stroke="#63b8ff" d="M141.71,-55.59C136.51,-48.39 129.17,-38.23 122.81,-29.43"/>
<polygon fill="#63b8ff" stroke="#63b8ff" points="125.79,-27.58 117.1,-21.53 120.12,-31.68 125.79,-27.58"/>
</a>
</g>
</g>
<!-- Node5&#45;&gt;Node4 -->
<g id="edge6_Node000005_Node000004" class="edge">
<title>Node5&#45;&gt;Node4</title>
<g id="a_edge6_Node000005_Node000004"><a xlink:title=" ">
<path fill="none" stroke="#63b8ff" d="M188.14,-111.59C181.6,-104.24 172.32,-93.8 164.38,-84.87"/>
<polygon fill="#63b8ff" stroke="#63b8ff" points="167.03,-82.58 157.77,-77.43 161.8,-87.23 167.03,-82.58"/>
</a>
</g>
</g>
</g>
</svg>
