<?xml version="1.0" encoding="UTF-8" standalone="no"?>
<!DOCTYPE svg PUBLIC "-//W3C//DTD SVG 1.1//EN"
 "http://www.w3.org/Graphics/SVG/1.1/DTD/svg11.dtd">
<!-- Generated by graphviz version 9.0.0 (20230911.1827)
 -->
<!-- Title: D:/Note_Database/Subject/MCETA Microcontroller Experiment TA/files/HT32_STD_5xxxx_FWLib_V1.5.1_7084b/example/USBD/HID_Keyboard_Mass_Storage/main.c Pages: 1 -->
<svg width="628pt" height="380pt"
 viewBox="0.00 0.00 628.40 380.00" xmlns="http://www.w3.org/2000/svg" xmlns:xlink="http://www.w3.org/1999/xlink">
<g id="graph0" class="graph" transform="scale(1 1) rotate(0) translate(4 376)">
<title>D:/Note_Database/Subject/MCETA Microcontroller Experiment TA/files/HT32_STD_5xxxx_FWLib_V1.5.1_7084b/example/USBD/HID_Keyboard_Mass_Storage/main.c</title>
<!-- Node1 -->
<g id="Node000001" class="node">
<title>Node1</title>
<g id="a_Node000001"><a xlink:title="The main program of USB Device HID Keyboard + Mass Storage example.">
<polygon fill="#999999" stroke="#666666" points="415.52,-372 235.27,-372 235.27,-292 415.52,-292 415.52,-372"/>
<text text-anchor="start" x="243.27" y="-358.5" font-family="Helvetica,sans-Serif" font-size="10.00">D:/Note_Database/Subject</text>
<text text-anchor="start" x="243.27" y="-346.5" font-family="Helvetica,sans-Serif" font-size="10.00">/MCETA Microcontroller</text>
<text text-anchor="start" x="243.27" y="-334.5" font-family="Helvetica,sans-Serif" font-size="10.00"> Experiment TA/files/HT32</text>
<text text-anchor="start" x="243.27" y="-322.5" font-family="Helvetica,sans-Serif" font-size="10.00">_STD_5xxxx_FWLib_V1.5.1_7084b</text>
<text text-anchor="start" x="243.27" y="-310.5" font-family="Helvetica,sans-Serif" font-size="10.00">/example/USBD/HID_Keyboard_Mass</text>
<text text-anchor="middle" x="325.4" y="-298.5" font-family="Helvetica,sans-Serif" font-size="10.00">_Storage/main.c</text>
</a>
</g>
</g>
<!-- Node2 -->
<g id="Node000002" class="node">
<title>Node2</title>
<g id="a_Node000002"><a xlink:title=" ">
<polygon fill="#e0e0e0" stroke="#999999" points="107.9,-76 64.9,-76 64.9,-56 107.9,-56 107.9,-76"/>
<text text-anchor="middle" x="86.4" y="-62.5" font-family="Helvetica,sans-Serif" font-size="10.00">ht32.h</text>
</a>
</g>
</g>
<!-- Node1&#45;&gt;Node2 -->
<g id="edge1_Node000001_Node000002" class="edge">
<title>Node1&#45;&gt;Node2</title>
<g id="a_edge1_Node000001_Node000002"><a xlink:title=" ">
<path fill="none" stroke="#63b8ff" d="M234.81,-321.81C158.48,-308.71 53.88,-276.95 3.4,-200 -8.04,-182.57 13.91,-114.14 15.4,-112 24.97,-98.26 40.23,-87.8 54.15,-80.43"/>
<polygon fill="#63b8ff" stroke="#63b8ff" points="55.62,-83.61 63.06,-76.07 52.54,-77.32 55.62,-83.61"/>
</a>
</g>
</g>
<!-- Node3 -->
<g id="Node000003" class="node">
<title>Node3</title>
<g id="a_Node000003"><a xlink:title=" ">
<polygon fill="#e0e0e0" stroke="#999999" points="519.52,-20 447.27,-20 447.27,0 519.52,0 519.52,-20"/>
<text text-anchor="middle" x="483.4" y="-6.5" font-family="Helvetica,sans-Serif" font-size="10.00">ht32_board.h</text>
</a>
</g>
</g>
<!-- Node1&#45;&gt;Node3 -->
<g id="edge2_Node000001_Node000003" class="edge">
<title>Node1&#45;&gt;Node3</title>
<g id="a_edge2_Node000001_Node000003"><a xlink:title=" ">
<path fill="none" stroke="#63b8ff" d="M415.91,-323.79C502.63,-311.35 620.4,-277.43 620.4,-185 620.4,-185 620.4,-185 620.4,-121 620.4,-71.4 565.13,-40.44 524.8,-24.44"/>
<polygon fill="#63b8ff" stroke="#63b8ff" points="526.15,-21.21 515.56,-20.95 523.68,-27.75 526.15,-21.21"/>
</a>
</g>
</g>
<!-- Node4 -->
<g id="Node000004" class="node">
<title>Node4</title>
<g id="a_Node000004"><a xlink:title=" ">
<polygon fill="#e0e0e0" stroke="#999999" points="276.02,-132 182.77,-132 182.77,-112 276.02,-112 276.02,-132"/>
<text text-anchor="middle" x="229.4" y="-118.5" font-family="Helvetica,sans-Serif" font-size="10.00">ht32_usbd_core.h</text>
</a>
</g>
</g>
<!-- Node1&#45;&gt;Node4 -->
<g id="edge3_Node000001_Node000004" class="edge">
<title>Node1&#45;&gt;Node4</title>
<g id="a_edge3_Node000001_Node000004"><a xlink:title=" ">
<path fill="none" stroke="#63b8ff" d="M315.72,-291.75C306.33,-257.63 290.14,-207.59 267.4,-168 261.76,-158.19 253.89,-148.45 246.78,-140.55"/>
<polygon fill="#63b8ff" stroke="#63b8ff" points="249.39,-138.22 239.99,-133.34 244.29,-143.02 249.39,-138.22"/>
</a>
</g>
</g>
<!-- Node5 -->
<g id="Node000005" class="node">
<title>Node5</title>
<g id="a_Node000005"><a xlink:href="_u_s_b_d_2_h_i_d___keyboard___mass___storage_2ht32__usbd__class_8h.html" target="_top" xlink:title="The header file of USB Device Class.">
<polygon fill="white" stroke="#666666" points="413.27,-256 315.52,-256 315.52,-236 413.27,-236 413.27,-256"/>
<text text-anchor="middle" x="364.4" y="-242.5" font-family="Helvetica,sans-Serif" font-size="10.00">ht32_usbd_class.h</text>
</a>
</g>
</g>
<!-- Node1&#45;&gt;Node5 -->
<g id="edge4_Node000001_Node000005" class="edge">
<title>Node1&#45;&gt;Node5</title>
<g id="a_edge4_Node000001_Node000005"><a xlink:title=" ">
<path fill="none" stroke="#63b8ff" d="M343.53,-291.95C347.59,-283.19 351.74,-274.25 355.26,-266.68"/>
<polygon fill="#63b8ff" stroke="#63b8ff" points="358.34,-268.35 359.38,-257.81 351.99,-265.41 358.34,-268.35"/>
</a>
</g>
</g>
<!-- Node6 -->
<g id="Node000006" class="node">
<title>Node6</title>
<g id="a_Node000006"><a xlink:href="_u_s_b_d_2_h_i_d___keyboard___mass___storage_2ht32__usbd__descriptor_8h.html" target="_top" xlink:title="The USB descriptor.">
<polygon fill="white" stroke="#666666" points="549.02,-256 431.77,-256 431.77,-236 549.02,-236 549.02,-256"/>
<text text-anchor="middle" x="490.4" y="-242.5" font-family="Helvetica,sans-Serif" font-size="10.00">ht32_usbd_descriptor.h</text>
</a>
</g>
</g>
<!-- Node1&#45;&gt;Node6 -->
<g id="edge5_Node000001_Node000006" class="edge">
<title>Node1&#45;&gt;Node6</title>
<g id="a_edge5_Node000001_Node000006"><a xlink:title=" ">
<path fill="none" stroke="#63b8ff" d="M402.58,-291.71C423.77,-280.92 445.43,-269.89 461.94,-261.49"/>
<polygon fill="#63b8ff" stroke="#63b8ff" points="463.31,-264.71 470.64,-257.06 460.14,-258.48 463.31,-264.71"/>
</a>
</g>
</g>
<!-- Node7 -->
<g id="Node000007" class="node">
<title>Node7</title>
<g id="a_Node000007"><a xlink:href="_u_s_b_d_2_h_i_d___keyboard___mass___storage_2__ht32__project__source_8h.html" target="_top" xlink:title="The project source code setting.">
<polygon fill="white" stroke="#666666" points="259.02,-256 141.77,-256 141.77,-236 259.02,-236 259.02,-256"/>
<text text-anchor="middle" x="200.4" y="-242.5" font-family="Helvetica,sans-Serif" font-size="10.00">_ht32_project_source.h</text>
</a>
</g>
</g>
<!-- Node1&#45;&gt;Node7 -->
<g id="edge6_Node000001_Node000007" class="edge">
<title>Node1&#45;&gt;Node7</title>
<g id="a_edge6_Node000001_Node000007"><a xlink:title=" ">
<path fill="none" stroke="#63b8ff" d="M266.92,-291.71C251.63,-281.43 236.02,-270.94 223.77,-262.7"/>
<polygon fill="#63b8ff" stroke="#63b8ff" points="225.85,-259.89 215.6,-257.22 221.95,-265.7 225.85,-259.89"/>
</a>
</g>
</g>
<!-- Node8 -->
<g id="Node000008" class="node">
<title>Node8</title>
<g id="a_Node000008"><a xlink:href="_h_i_d___keyboard___mass___storage_2_src___mass_storage_2ram__disk_8c.html" target="_top" xlink:title="The RAM Disk related function.">
<polygon fill="white" stroke="#666666" points="126.15,-200 12.65,-200 12.65,-168 126.15,-168 126.15,-200"/>
<text text-anchor="start" x="20.65" y="-186.5" font-family="Helvetica,sans-Serif" font-size="10.00">Src_MassStorage\ram</text>
<text text-anchor="middle" x="69.4" y="-174.5" font-family="Helvetica,sans-Serif" font-size="10.00">_disk.c</text>
</a>
</g>
</g>
<!-- Node7&#45;&gt;Node8 -->
<g id="edge7_Node000007_Node000008" class="edge">
<title>Node7&#45;&gt;Node8</title>
<g id="a_edge7_Node000007_Node000008"><a xlink:title=" ">
<path fill="none" stroke="#63b8ff" d="M179.93,-235.62C162.22,-227.52 136.01,-215.51 113.55,-205.23"/>
<polygon fill="#63b8ff" stroke="#63b8ff" points="115.14,-202.1 104.59,-201.12 112.23,-208.47 115.14,-202.1"/>
</a>
</g>
</g>
<!-- Node11 -->
<g id="Node000011" class="node">
<title>Node11</title>
<g id="a_Node000011"><a xlink:href="_h_i_d___keyboard___mass___storage_2_src___mass_storage_2usb__bulk__only__transport_8c.html" target="_top" xlink:title="The Bulk Only Transport (BOT).">
<polygon fill="white" stroke="#666666" points="258.52,-200 144.27,-200 144.27,-168 258.52,-168 258.52,-200"/>
<text text-anchor="start" x="152.27" y="-186.5" font-family="Helvetica,sans-Serif" font-size="10.00">Src_MassStorage\usb</text>
<text text-anchor="middle" x="201.4" y="-174.5" font-family="Helvetica,sans-Serif" font-size="10.00">_bulk_only_transport.c</text>
</a>
</g>
</g>
<!-- Node7&#45;&gt;Node11 -->
<g id="edge12_Node000007_Node000011" class="edge">
<title>Node7&#45;&gt;Node11</title>
<g id="a_edge12_Node000007_Node000011"><a xlink:title=" ">
<path fill="none" stroke="#63b8ff" d="M200.55,-235.62C200.66,-229.1 200.81,-220.05 200.96,-211.4"/>
<polygon fill="#63b8ff" stroke="#63b8ff" points="204.45,-211.71 201.12,-201.65 197.45,-211.59 204.45,-211.71"/>
</a>
</g>
</g>
<!-- Node13 -->
<g id="Node000013" class="node">
<title>Node13</title>
<g id="a_Node000013"><a xlink:href="_h_i_d___keyboard___mass___storage_2_src___mass_storage_2usb__scsi__block__command_8c.html" target="_top" xlink:title="The SCSI Block Command (SBC&#45;3 &amp; SPC&#45;4).">
<polygon fill="white" stroke="#666666" points="488.4,-200 364.4,-200 364.4,-168 488.4,-168 488.4,-200"/>
<text text-anchor="start" x="372.4" y="-186.5" font-family="Helvetica,sans-Serif" font-size="10.00">Src_MassStorage\usb</text>
<text text-anchor="middle" x="426.4" y="-174.5" font-family="Helvetica,sans-Serif" font-size="10.00">_scsi_block_command.c</text>
</a>
</g>
</g>
<!-- Node7&#45;&gt;Node13 -->
<g id="edge18_Node000007_Node000013" class="edge">
<title>Node7&#45;&gt;Node13</title>
<g id="a_edge18_Node000007_Node000013"><a xlink:title=" ">
<path fill="none" stroke="#63b8ff" d="M235.96,-235.56C268.34,-226.96 317.07,-214.02 357.13,-203.39"/>
<polygon fill="#63b8ff" stroke="#63b8ff" points="357.95,-206.79 366.72,-200.84 356.15,-200.03 357.95,-206.79"/>
</a>
</g>
</g>
<!-- Node9 -->
<g id="Node000009" class="node">
<title>Node9</title>
<g id="a_Node000009"><a xlink:href="_h_i_d___keyboard___mass___storage_2_src___mass_storage_2ram__disk_8h.html" target="_top" xlink:title="The header file of RAM Disk.">
<polygon fill="white" stroke="#666666" points="88.4,-132 24.4,-132 24.4,-112 88.4,-112 88.4,-132"/>
<text text-anchor="middle" x="56.4" y="-118.5" font-family="Helvetica,sans-Serif" font-size="10.00">ram_disk.h</text>
</a>
</g>
</g>
<!-- Node8&#45;&gt;Node9 -->
<g id="edge8_Node000008_Node000009" class="edge">
<title>Node8&#45;&gt;Node9</title>
<g id="a_edge8_Node000008_Node000009"><a xlink:title=" ">
<path fill="none" stroke="#63b8ff" d="M66.05,-167.55C64.47,-160.26 62.56,-151.45 60.86,-143.6"/>
<polygon fill="#63b8ff" stroke="#63b8ff" points="64.29,-142.92 58.76,-133.89 57.45,-144.4 64.29,-142.92"/>
</a>
</g>
</g>
<!-- Node9&#45;&gt;Node2 -->
<g id="edge9_Node000009_Node000002" class="edge">
<title>Node9&#45;&gt;Node2</title>
<g id="a_edge9_Node000009_Node000002"><a xlink:title=" ">
<path fill="none" stroke="#63b8ff" d="M61.62,-111.59C65.49,-104.63 70.9,-94.89 75.68,-86.29"/>
<polygon fill="#63b8ff" stroke="#63b8ff" points="78.7,-88.06 80.5,-77.62 72.58,-84.66 78.7,-88.06"/>
</a>
</g>
</g>
<!-- Node10 -->
<g id="Node000010" class="node">
<title>Node10</title>
<g id="a_Node000010"><a xlink:href="_h_i_d___keyboard___mass___storage_2_src___mass_storage_2usb__bulk__only__transport_8h.html" target="_top" xlink:title="The header file of Bulk Only Transport.">
<polygon fill="white" stroke="#666666" points="411.4,-76 281.4,-76 281.4,-56 411.4,-56 411.4,-76"/>
<text text-anchor="middle" x="346.4" y="-62.5" font-family="Helvetica,sans-Serif" font-size="10.00">usb_bulk_only_transport.h</text>
</a>
</g>
</g>
<!-- Node9&#45;&gt;Node10 -->
<g id="edge10_Node000009_Node000010" class="edge">
<title>Node9&#45;&gt;Node10</title>
<g id="a_edge10_Node000009_Node000010"><a xlink:title=" ">
<path fill="none" stroke="#63b8ff" d="M88.82,-114.96C135.96,-106.18 224.32,-89.73 284.26,-78.57"/>
<polygon fill="#63b8ff" stroke="#63b8ff" points="284.79,-82.03 293.98,-76.76 283.51,-75.15 284.79,-82.03"/>
</a>
</g>
</g>
<!-- Node10&#45;&gt;Node3 -->
<g id="edge11_Node000010_Node000003" class="edge">
<title>Node10&#45;&gt;Node3</title>
<g id="a_edge11_Node000010_Node000003"><a xlink:title=" ">
<path fill="none" stroke="#63b8ff" d="M370.26,-55.59C391.93,-47.05 424.16,-34.35 448.69,-24.68"/>
<polygon fill="#63b8ff" stroke="#63b8ff" points="449.92,-27.96 457.94,-21.03 447.35,-21.45 449.92,-27.96"/>
</a>
</g>
</g>
<!-- Node11&#45;&gt;Node2 -->
<g id="edge13_Node000011_Node000002" class="edge">
<title>Node11&#45;&gt;Node2</title>
<g id="a_edge13_Node000011_Node000002"><a xlink:title=" ">
<path fill="none" stroke="#63b8ff" d="M181.1,-167.56C168.84,-157.86 153.16,-144.81 140.4,-132 125.56,-117.12 110.42,-98.54 99.96,-85.06"/>
<polygon fill="#63b8ff" stroke="#63b8ff" points="103.02,-83.3 94.17,-77.48 97.46,-87.55 103.02,-83.3"/>
</a>
</g>
</g>
<!-- Node11&#45;&gt;Node4 -->
<g id="edge14_Node000011_Node000004" class="edge">
<title>Node11&#45;&gt;Node4</title>
<g id="a_edge14_Node000011_Node000004"><a xlink:title=" ">
<path fill="none" stroke="#63b8ff" d="M208.61,-167.55C212.13,-160 216.41,-150.82 220.17,-142.77"/>
<polygon fill="#63b8ff" stroke="#63b8ff" points="223.31,-144.32 224.37,-133.78 216.97,-141.36 223.31,-144.32"/>
</a>
</g>
</g>
<!-- Node11&#45;&gt;Node9 -->
<g id="edge17_Node000011_Node000009" class="edge">
<title>Node11&#45;&gt;Node9</title>
<g id="a_edge17_Node000011_Node000009"><a xlink:title=" ">
<path fill="none" stroke="#63b8ff" d="M164.06,-167.55C141.08,-158.04 111.9,-145.97 89.71,-136.79"/>
<polygon fill="#63b8ff" stroke="#63b8ff" points="91.11,-133.58 80.53,-132.99 88.43,-140.04 91.11,-133.58"/>
</a>
</g>
</g>
<!-- Node11&#45;&gt;Node10 -->
<g id="edge15_Node000011_Node000010" class="edge">
<title>Node11&#45;&gt;Node10</title>
<g id="a_edge15_Node000011_Node000010"><a xlink:title=" ">
<path fill="none" stroke="#63b8ff" d="M187.07,-167.61C174.61,-152.31 160.43,-128.77 173.4,-112 185.63,-96.18 229.39,-84.88 269.84,-77.56"/>
<polygon fill="#63b8ff" stroke="#63b8ff" points="270.38,-81.02 279.64,-75.86 269.19,-74.13 270.38,-81.02"/>
</a>
</g>
</g>
<!-- Node12 -->
<g id="Node000012" class="node">
<title>Node12</title>
<g id="a_Node000012"><a xlink:href="_h_i_d___keyboard___mass___storage_2_src___mass_storage_2usb__scsi__block__command_8h.html" target="_top" xlink:title="The header file of SCSI Block Command (SBC&#45;3 &amp; SPC&#45;4).">
<polygon fill="white" stroke="#666666" points="434.27,-132 294.52,-132 294.52,-112 434.27,-112 434.27,-132"/>
<text text-anchor="middle" x="364.4" y="-118.5" font-family="Helvetica,sans-Serif" font-size="10.00">usb_scsi_block_command.h</text>
</a>
</g>
</g>
<!-- Node11&#45;&gt;Node12 -->
<g id="edge16_Node000011_Node000012" class="edge">
<title>Node11&#45;&gt;Node12</title>
<g id="a_edge16_Node000011_Node000012"><a xlink:title=" ">
<path fill="none" stroke="#63b8ff" d="M243.37,-167.55C269.67,-157.87 303.2,-145.53 328.3,-136.29"/>
<polygon fill="#63b8ff" stroke="#63b8ff" points="329.24,-139.67 337.42,-132.93 326.82,-133.1 329.24,-139.67"/>
</a>
</g>
</g>
<!-- Node13&#45;&gt;Node2 -->
<g id="edge19_Node000013_Node000002" class="edge">
<title>Node13&#45;&gt;Node2</title>
<g id="a_edge19_Node000013_Node000002"><a xlink:title=" ">
<path fill="none" stroke="#63b8ff" d="M437.08,-167.54C446.56,-151.74 456.98,-127.4 443.4,-112 422.13,-87.89 204.18,-73.45 119.65,-68.73"/>
<polygon fill="#63b8ff" stroke="#63b8ff" points="119.87,-65.23 109.7,-68.18 119.49,-72.22 119.87,-65.23"/>
</a>
</g>
</g>
<!-- Node13&#45;&gt;Node4 -->
<g id="edge20_Node000013_Node000004" class="edge">
<title>Node13&#45;&gt;Node4</title>
<g id="a_edge20_Node000013_Node000004"><a xlink:title=" ">
<path fill="none" stroke="#63b8ff" d="M375.66,-167.55C343.27,-157.68 301.79,-145.05 271.28,-135.76"/>
<polygon fill="#63b8ff" stroke="#63b8ff" points="272.61,-132.5 262.02,-132.94 270.57,-139.2 272.61,-132.5"/>
</a>
</g>
</g>
<!-- Node13&#45;&gt;Node10 -->
<g id="edge21_Node000013_Node000010" class="edge">
<title>Node13&#45;&gt;Node10</title>
<g id="a_edge21_Node000013_Node000010"><a xlink:title=" ">
<path fill="none" stroke="#63b8ff" d="M449.57,-167.73C468.49,-153.33 490.04,-131.16 476.4,-112 463.71,-94.19 443.48,-83.36 422.71,-76.8"/>
<polygon fill="#63b8ff" stroke="#63b8ff" points="423.88,-73.49 413.3,-74.16 421.98,-80.23 423.88,-73.49"/>
</a>
</g>
</g>
<!-- Node13&#45;&gt;Node12 -->
<g id="edge22_Node000013_Node000012" class="edge">
<title>Node13&#45;&gt;Node12</title>
<g id="a_edge22_Node000013_Node000012"><a xlink:title=" ">
<path fill="none" stroke="#63b8ff" d="M410.43,-167.55C401.82,-159.22 391.17,-148.91 382.28,-140.3"/>
<polygon fill="#63b8ff" stroke="#63b8ff" points="384.83,-137.9 375.21,-133.46 379.96,-142.93 384.83,-137.9"/>
</a>
</g>
</g>
<!-- Node14 -->
<g id="Node000014" class="node">
<title>Node14</title>
<g id="a_Node000014"><a xlink:href="_h_i_d___keyboard___mass___storage_2_src___mass_storage_2usb__scsi_8h.html" target="_top" xlink:title="The header file of SCSI Block Command (SBC&#45;3 &amp; SPC&#45;4).">
<polygon fill="white" stroke="#666666" points="592.02,-132 528.77,-132 528.77,-112 592.02,-112 592.02,-132"/>
<text text-anchor="middle" x="560.4" y="-118.5" font-family="Helvetica,sans-Serif" font-size="10.00">usb_scsi.h</text>
</a>
</g>
</g>
<!-- Node13&#45;&gt;Node14 -->
<g id="edge23_Node000013_Node000014" class="edge">
<title>Node13&#45;&gt;Node14</title>
<g id="a_edge23_Node000013_Node000014"><a xlink:title=" ">
<path fill="none" stroke="#63b8ff" d="M460.9,-167.55C481.94,-158.13 508.61,-146.19 529.04,-137.04"/>
<polygon fill="#63b8ff" stroke="#63b8ff" points="530.31,-140.31 538,-133.03 527.45,-133.92 530.31,-140.31"/>
</a>
</g>
</g>
</g>
</svg>
