<?xml version="1.0" encoding="UTF-8" standalone="no"?>
<!DOCTYPE svg PUBLIC "-//W3C//DTD SVG 1.1//EN"
 "http://www.w3.org/Graphics/SVG/1.1/DTD/svg11.dtd">
<!-- Generated by graphviz version 9.0.0 (20230911.1827)
 -->
<!-- Title: D:/Note_Database/Subject/MCETA Microcontroller Experiment TA/files/HT32_STD_5xxxx_FWLib_V1.5.1_7084b/example/USBD/USB_UAC_Sound_RateControl/ht32_usbd_class.c Pages: 1 -->
<svg width="414pt" height="200pt"
 viewBox="0.00 0.00 414.01 200.00" xmlns="http://www.w3.org/2000/svg" xmlns:xlink="http://www.w3.org/1999/xlink">
<g id="graph0" class="graph" transform="scale(1 1) rotate(0) translate(4 196)">
<title>D:/Note_Database/Subject/MCETA Microcontroller Experiment TA/files/HT32_STD_5xxxx_FWLib_V1.5.1_7084b/example/USBD/USB_UAC_Sound_RateControl/ht32_usbd_class.c</title>
<!-- Node1 -->
<g id="Node000001" class="node">
<title>Node1</title>
<g id="a_Node000001"><a xlink:title="The USB Device Class.">
<polygon fill="#999999" stroke="#666666" points="262.39,-192 38.64,-192 38.64,-112 262.39,-112 262.39,-192"/>
<text text-anchor="start" x="46.64" y="-178.5" font-family="Helvetica,sans-Serif" font-size="10.00">D:/Note_Database/Subject</text>
<text text-anchor="start" x="46.64" y="-166.5" font-family="Helvetica,sans-Serif" font-size="10.00">/MCETA Microcontroller</text>
<text text-anchor="start" x="46.64" y="-154.5" font-family="Helvetica,sans-Serif" font-size="10.00"> Experiment TA/files/HT32</text>
<text text-anchor="start" x="46.64" y="-142.5" font-family="Helvetica,sans-Serif" font-size="10.00">_STD_5xxxx_FWLib_V1.5.1_7084b</text>
<text text-anchor="start" x="46.64" y="-130.5" font-family="Helvetica,sans-Serif" font-size="10.00">/example/USBD/USB_UAC_Sound_RateControl</text>
<text text-anchor="middle" x="150.51" y="-118.5" font-family="Helvetica,sans-Serif" font-size="10.00">/ht32_usbd_class.c</text>
</a>
</g>
</g>
<!-- Node2 -->
<g id="Node000002" class="node">
<title>Node2</title>
<g id="a_Node000002"><a xlink:title=" ">
<polygon fill="#e0e0e0" stroke="#999999" points="146.01,-20 103.01,-20 103.01,0 146.01,0 146.01,-20"/>
<text text-anchor="middle" x="124.51" y="-6.5" font-family="Helvetica,sans-Serif" font-size="10.00">ht32.h</text>
</a>
</g>
</g>
<!-- Node1&#45;&gt;Node2 -->
<g id="edge1_Node000001_Node000002" class="edge">
<title>Node1&#45;&gt;Node2</title>
<g id="a_edge1_Node000001_Node000002"><a xlink:title=" ">
<path fill="none" stroke="#63b8ff" d="M39.77,-111.61C25.75,-102.07 13.27,-90.35 4.51,-76 -17.38,-40.14 48.64,-22.77 91.28,-15.48"/>
<polygon fill="#63b8ff" stroke="#63b8ff" points="91.77,-18.95 101.1,-13.92 90.67,-12.04 91.77,-18.95"/>
</a>
</g>
</g>
<!-- Node3 -->
<g id="Node000003" class="node">
<title>Node3</title>
<g id="a_Node000003"><a xlink:title=" ">
<polygon fill="#e0e0e0" stroke="#999999" points="85.64,-76 13.39,-76 13.39,-56 85.64,-56 85.64,-76"/>
<text text-anchor="middle" x="49.51" y="-62.5" font-family="Helvetica,sans-Serif" font-size="10.00">ht32_board.h</text>
</a>
</g>
</g>
<!-- Node1&#45;&gt;Node3 -->
<g id="edge2_Node000001_Node000003" class="edge">
<title>Node1&#45;&gt;Node3</title>
<g id="a_edge2_Node000001_Node000003"><a xlink:title=" ">
<path fill="none" stroke="#63b8ff" d="M103.27,-111.71C91.41,-101.84 79.31,-91.78 69.6,-83.7"/>
<polygon fill="#63b8ff" stroke="#63b8ff" points="71.87,-81.04 61.95,-77.34 67.4,-86.43 71.87,-81.04"/>
</a>
</g>
</g>
<!-- Node4 -->
<g id="Node000004" class="node">
<title>Node4</title>
<g id="a_Node000004"><a xlink:title=" ">
<polygon fill="#e0e0e0" stroke="#999999" points="197.14,-76 103.89,-76 103.89,-56 197.14,-56 197.14,-76"/>
<text text-anchor="middle" x="150.51" y="-62.5" font-family="Helvetica,sans-Serif" font-size="10.00">ht32_usbd_core.h</text>
</a>
</g>
</g>
<!-- Node1&#45;&gt;Node4 -->
<g id="edge3_Node000001_Node000004" class="edge">
<title>Node1&#45;&gt;Node4</title>
<g id="a_edge3_Node000001_Node000004"><a xlink:title=" ">
<path fill="none" stroke="#63b8ff" d="M150.51,-111.95C150.51,-103.6 150.51,-95.09 150.51,-87.76"/>
<polygon fill="#63b8ff" stroke="#63b8ff" points="154.01,-87.95 150.51,-77.95 147.01,-87.95 154.01,-87.95"/>
</a>
</g>
</g>
<!-- Node5 -->
<g id="Node000005" class="node">
<title>Node5</title>
<g id="a_Node000005"><a xlink:href="_u_s_b_d_2_u_s_b___u_a_c___sound___rate_control_2ht32__usbd__class_8h.html" target="_top" xlink:title="The header file of USB Device Class.">
<polygon fill="white" stroke="#666666" points="313.39,-76 215.64,-76 215.64,-56 313.39,-56 313.39,-76"/>
<text text-anchor="middle" x="264.51" y="-62.5" font-family="Helvetica,sans-Serif" font-size="10.00">ht32_usbd_class.h</text>
</a>
</g>
</g>
<!-- Node1&#45;&gt;Node5 -->
<g id="edge4_Node000001_Node000005" class="edge">
<title>Node1&#45;&gt;Node5</title>
<g id="a_edge4_Node000001_Node000005"><a xlink:title=" ">
<path fill="none" stroke="#63b8ff" d="M203.84,-111.71C217.51,-101.64 231.45,-91.36 242.53,-83.2"/>
<polygon fill="#63b8ff" stroke="#63b8ff" points="244.6,-86.02 250.58,-77.27 240.45,-80.38 244.6,-86.02"/>
</a>
</g>
</g>
<!-- Node6 -->
<g id="Node000006" class="node">
<title>Node6</title>
<g id="a_Node000006"><a xlink:href="main_8h.html" target="_top" xlink:title="The API between application and HT32FXXXX Firmware Library.">
<polygon fill="white" stroke="#666666" points="377.14,-76 331.89,-76 331.89,-56 377.14,-56 377.14,-76"/>
<text text-anchor="middle" x="354.51" y="-62.5" font-family="Helvetica,sans-Serif" font-size="10.00">main.h</text>
</a>
</g>
</g>
<!-- Node1&#45;&gt;Node6 -->
<g id="edge5_Node000001_Node000006" class="edge">
<title>Node1&#45;&gt;Node6</title>
<g id="a_edge5_Node000001_Node000006"><a xlink:title=" ">
<path fill="none" stroke="#63b8ff" d="M246.24,-111.58C273.27,-100.45 300.88,-89.08 321.46,-80.61"/>
<polygon fill="#63b8ff" stroke="#63b8ff" points="322.52,-83.96 330.43,-76.92 319.85,-77.49 322.52,-83.96"/>
</a>
</g>
</g>
<!-- Node6&#45;&gt;Node2 -->
<g id="edge6_Node000006_Node000002" class="edge">
<title>Node6&#45;&gt;Node2</title>
<g id="a_edge6_Node000006_Node000002"><a xlink:title=" ">
<path fill="none" stroke="#63b8ff" d="M331.48,-58.37C328.47,-57.55 325.42,-56.74 322.51,-56 264.64,-41.3 196.67,-26.35 157.3,-17.92"/>
<polygon fill="#63b8ff" stroke="#63b8ff" points="158.27,-14.55 147.76,-15.88 156.81,-21.39 158.27,-14.55"/>
</a>
</g>
</g>
<!-- Node7 -->
<g id="Node000007" class="node">
<title>Node7</title>
<g id="a_Node000007"><a xlink:href="_u_s_b_d_2_u_s_b___u_a_c___sound___rate_control_2ht32__board__config_8h.html" target="_top" xlink:title="The header file of board configuration.">
<polygon fill="white" stroke="#666666" points="406.01,-20 303.01,-20 303.01,0 406.01,0 406.01,-20"/>
<text text-anchor="middle" x="354.51" y="-6.5" font-family="Helvetica,sans-Serif" font-size="10.00">ht32_board_config.h</text>
</a>
</g>
</g>
<!-- Node6&#45;&gt;Node7 -->
<g id="edge7_Node000006_Node000007" class="edge">
<title>Node6&#45;&gt;Node7</title>
<g id="a_edge7_Node000006_Node000007"><a xlink:title=" ">
<path fill="none" stroke="#63b8ff" d="M354.51,-55.59C354.51,-49.01 354.51,-39.96 354.51,-31.73"/>
<polygon fill="#63b8ff" stroke="#63b8ff" points="358.01,-31.81 354.51,-21.81 351.01,-31.81 358.01,-31.81"/>
</a>
</g>
</g>
</g>
</svg>
