<?xml version="1.0" encoding="UTF-8" standalone="no"?>
<!DOCTYPE svg PUBLIC "-//W3C//DTD SVG 1.1//EN"
 "http://www.w3.org/Graphics/SVG/1.1/DTD/svg11.dtd">
<!-- Generated by graphviz version 9.0.0 (20230911.1827)
 -->
<!-- Title: D:/Note_Database/Subject/MCETA Microcontroller Experiment TA/files/HT32_STD_5xxxx_FWLib_V1.5.1_7084b/library/CMSIS/Core/Include/core_cm4.h Pages: 1 -->
<svg width="256pt" height="188pt"
 viewBox="0.00 0.00 256.25 188.00" xmlns="http://www.w3.org/2000/svg" xmlns:xlink="http://www.w3.org/1999/xlink">
<g id="graph0" class="graph" transform="scale(1 1) rotate(0) translate(4 184)">
<title>D:/Note_Database/Subject/MCETA Microcontroller Experiment TA/files/HT32_STD_5xxxx_FWLib_V1.5.1_7084b/library/CMSIS/Core/Include/core_cm4.h</title>
<!-- Node1 -->
<g id="Node000001" class="node">
<title>Node1</title>
<g id="a_Node000001"><a xlink:title="CMSIS Cortex&#45;M4 Core Peripheral Access Layer Header File.">
<polygon fill="#999999" stroke="#666666" points="190,-180 0,-180 0,-112 190,-112 190,-180"/>
<text text-anchor="start" x="8" y="-166.5" font-family="Helvetica,sans-Serif" font-size="10.00">D:/Note_Database/Subject</text>
<text text-anchor="start" x="8" y="-154.5" font-family="Helvetica,sans-Serif" font-size="10.00">/MCETA Microcontroller</text>
<text text-anchor="start" x="8" y="-142.5" font-family="Helvetica,sans-Serif" font-size="10.00"> Experiment TA/files/HT32</text>
<text text-anchor="start" x="8" y="-130.5" font-family="Helvetica,sans-Serif" font-size="10.00">_STD_5xxxx_FWLib_V1.5.1_7084b</text>
<text text-anchor="middle" x="95" y="-118.5" font-family="Helvetica,sans-Serif" font-size="10.00">/library/CMSIS/Core/Include/core_cm4.h</text>
</a>
</g>
</g>
<!-- Node2 -->
<g id="Node000002" class="node">
<title>Node2</title>
<g id="a_Node000002"><a xlink:title=" ">
<polygon fill="#e0e0e0" stroke="#999999" points="137.12,-20 88.88,-20 88.88,0 137.12,0 137.12,-20"/>
<text text-anchor="middle" x="113" y="-6.5" font-family="Helvetica,sans-Serif" font-size="10.00">stdint.h</text>
</a>
</g>
</g>
<!-- Node1&#45;&gt;Node2 -->
<g id="edge1_Node000001_Node000002" class="edge">
<title>Node1&#45;&gt;Node2</title>
<g id="a_edge1_Node000001_Node000002"><a xlink:title=" ">
<path fill="none" stroke="#63b8ff" d="M57.49,-111.87C43.31,-95.24 32.8,-74.69 43,-56 50.67,-41.95 64.81,-31.64 78.38,-24.45"/>
<polygon fill="#63b8ff" stroke="#63b8ff" points="79.68,-27.71 87.17,-20.22 76.64,-21.41 79.68,-27.71"/>
</a>
</g>
</g>
<!-- Node3 -->
<g id="Node000003" class="node">
<title>Node3</title>
<g id="a_Node000003"><a xlink:href="_core_2_include_2cmsis__version_8h.html" target="_top" xlink:title="CMSIS Core(M) Version definitions.">
<polygon fill="white" stroke="#666666" points="137.88,-76 52.12,-76 52.12,-56 137.88,-56 137.88,-76"/>
<text text-anchor="middle" x="95" y="-62.5" font-family="Helvetica,sans-Serif" font-size="10.00">cmsis_version.h</text>
</a>
</g>
</g>
<!-- Node1&#45;&gt;Node3 -->
<g id="edge2_Node000001_Node000003" class="edge">
<title>Node1&#45;&gt;Node3</title>
<g id="a_edge2_Node000001_Node000003"><a xlink:title=" ">
<path fill="none" stroke="#63b8ff" d="M95,-111.92C95,-103.72 95,-95.17 95,-87.75"/>
<polygon fill="#63b8ff" stroke="#63b8ff" points="98.5,-87.79 95,-77.79 91.5,-87.79 98.5,-87.79"/>
</a>
</g>
</g>
<!-- Node4 -->
<g id="Node000004" class="node">
<title>Node4</title>
<g id="a_Node000004"><a xlink:href="_core_2_include_2cmsis__compiler_8h.html" target="_top" xlink:title="CMSIS compiler generic header file.">
<polygon fill="white" stroke="#666666" points="248.25,-76 155.75,-76 155.75,-56 248.25,-56 248.25,-76"/>
<text text-anchor="middle" x="202" y="-62.5" font-family="Helvetica,sans-Serif" font-size="10.00">cmsis_compiler.h</text>
</a>
</g>
</g>
<!-- Node1&#45;&gt;Node4 -->
<g id="edge3_Node000001_Node000004" class="edge">
<title>Node1&#45;&gt;Node4</title>
<g id="a_edge3_Node000001_Node000004"><a xlink:title=" ">
<path fill="none" stroke="#63b8ff" d="M140.69,-111.69C154.39,-101.7 168.8,-91.2 180.2,-82.89"/>
<polygon fill="#63b8ff" stroke="#63b8ff" points="182.11,-85.83 188.13,-77.11 177.99,-80.17 182.11,-85.83"/>
</a>
</g>
</g>
<!-- Node4&#45;&gt;Node2 -->
<g id="edge4_Node000004_Node000002" class="edge">
<title>Node4&#45;&gt;Node2</title>
<g id="a_edge4_Node000004_Node000002"><a xlink:title=" ">
<path fill="none" stroke="#63b8ff" d="M186.5,-55.59C173.18,-47.51 153.72,-35.71 138.17,-26.27"/>
<polygon fill="#63b8ff" stroke="#63b8ff" points="140.28,-23.46 129.92,-21.26 136.65,-29.44 140.28,-23.46"/>
</a>
</g>
</g>
</g>
</svg>
