<?xml version="1.0" encoding="UTF-8" standalone="no"?>
<!DOCTYPE svg PUBLIC "-//W3C//DTD SVG 1.1//EN"
 "http://www.w3.org/Graphics/SVG/1.1/DTD/svg11.dtd">
<!-- Generated by graphviz version 9.0.0 (20230911.1827)
 -->
<!-- Title: D:/Note_Database/Subject/MCETA Microcontroller Experiment TA/files/HT32_STD_5xxxx_FWLib_V1.5.1_7084b/library/CMSIS/Core/Include/core_sc000.h Pages: 1 -->
<svg width="260pt" height="188pt"
 viewBox="0.00 0.00 260.00 188.00" xmlns="http://www.w3.org/2000/svg" xmlns:xlink="http://www.w3.org/1999/xlink">
<g id="graph0" class="graph" transform="scale(1 1) rotate(0) translate(4 184)">
<title>D:/Note_Database/Subject/MCETA Microcontroller Experiment TA/files/HT32_STD_5xxxx_FWLib_V1.5.1_7084b/library/CMSIS/Core/Include/core_sc000.h</title>
<!-- Node1 -->
<g id="Node000001" class="node">
<title>Node1</title>
<g id="a_Node000001"><a xlink:title="CMSIS SC000 Core Peripheral Access Layer Header File.">
<polygon fill="#999999" stroke="#666666" points="197.5,-180 0,-180 0,-112 197.5,-112 197.5,-180"/>
<text text-anchor="start" x="8" y="-166.5" font-family="Helvetica,sans-Serif" font-size="10.00">D:/Note_Database/Subject</text>
<text text-anchor="start" x="8" y="-154.5" font-family="Helvetica,sans-Serif" font-size="10.00">/MCETA Microcontroller</text>
<text text-anchor="start" x="8" y="-142.5" font-family="Helvetica,sans-Serif" font-size="10.00"> Experiment TA/files/HT32</text>
<text text-anchor="start" x="8" y="-130.5" font-family="Helvetica,sans-Serif" font-size="10.00">_STD_5xxxx_FWLib_V1.5.1_7084b</text>
<text text-anchor="middle" x="98.75" y="-118.5" font-family="Helvetica,sans-Serif" font-size="10.00">/library/CMSIS/Core/Include/core_sc000.h</text>
</a>
</g>
</g>
<!-- Node2 -->
<g id="Node000002" class="node">
<title>Node2</title>
<g id="a_Node000002"><a xlink:title=" ">
<polygon fill="#e0e0e0" stroke="#999999" points="140.88,-20 92.62,-20 92.62,0 140.88,0 140.88,-20"/>
<text text-anchor="middle" x="116.75" y="-6.5" font-family="Helvetica,sans-Serif" font-size="10.00">stdint.h</text>
</a>
</g>
</g>
<!-- Node1&#45;&gt;Node2 -->
<g id="edge1_Node000001_Node000002" class="edge">
<title>Node1&#45;&gt;Node2</title>
<g id="a_edge1_Node000001_Node000002"><a xlink:title=" ">
<path fill="none" stroke="#63b8ff" d="M61.24,-111.87C47.06,-95.24 36.55,-74.69 46.75,-56 54.42,-41.95 68.56,-31.64 82.13,-24.45"/>
<polygon fill="#63b8ff" stroke="#63b8ff" points="83.43,-27.71 90.92,-20.22 80.39,-21.41 83.43,-27.71"/>
</a>
</g>
</g>
<!-- Node3 -->
<g id="Node000003" class="node">
<title>Node3</title>
<g id="a_Node000003"><a xlink:href="_core_2_include_2cmsis__version_8h.html" target="_top" xlink:title="CMSIS Core(M) Version definitions.">
<polygon fill="white" stroke="#666666" points="141.62,-76 55.88,-76 55.88,-56 141.62,-56 141.62,-76"/>
<text text-anchor="middle" x="98.75" y="-62.5" font-family="Helvetica,sans-Serif" font-size="10.00">cmsis_version.h</text>
</a>
</g>
</g>
<!-- Node1&#45;&gt;Node3 -->
<g id="edge2_Node000001_Node000003" class="edge">
<title>Node1&#45;&gt;Node3</title>
<g id="a_edge2_Node000001_Node000003"><a xlink:title=" ">
<path fill="none" stroke="#63b8ff" d="M98.75,-111.92C98.75,-103.72 98.75,-95.17 98.75,-87.75"/>
<polygon fill="#63b8ff" stroke="#63b8ff" points="102.25,-87.79 98.75,-77.79 95.25,-87.79 102.25,-87.79"/>
</a>
</g>
</g>
<!-- Node4 -->
<g id="Node000004" class="node">
<title>Node4</title>
<g id="a_Node000004"><a xlink:href="_core_2_include_2cmsis__compiler_8h.html" target="_top" xlink:title="CMSIS compiler generic header file.">
<polygon fill="white" stroke="#666666" points="252,-76 159.5,-76 159.5,-56 252,-56 252,-76"/>
<text text-anchor="middle" x="205.75" y="-62.5" font-family="Helvetica,sans-Serif" font-size="10.00">cmsis_compiler.h</text>
</a>
</g>
</g>
<!-- Node1&#45;&gt;Node4 -->
<g id="edge3_Node000001_Node000004" class="edge">
<title>Node1&#45;&gt;Node4</title>
<g id="a_edge3_Node000001_Node000004"><a xlink:title=" ">
<path fill="none" stroke="#63b8ff" d="M144.44,-111.69C158.14,-101.7 172.55,-91.2 183.95,-82.89"/>
<polygon fill="#63b8ff" stroke="#63b8ff" points="185.86,-85.83 191.88,-77.11 181.74,-80.17 185.86,-85.83"/>
</a>
</g>
</g>
<!-- Node4&#45;&gt;Node2 -->
<g id="edge4_Node000004_Node000002" class="edge">
<title>Node4&#45;&gt;Node2</title>
<g id="a_edge4_Node000004_Node000002"><a xlink:title=" ">
<path fill="none" stroke="#63b8ff" d="M190.25,-55.59C176.93,-47.51 157.47,-35.71 141.92,-26.27"/>
<polygon fill="#63b8ff" stroke="#63b8ff" points="144.03,-23.46 133.67,-21.26 140.4,-29.44 144.03,-23.46"/>
</a>
</g>
</g>
</g>
</svg>
