<?xml version="1.0" encoding="UTF-8" standalone="no"?>
<!DOCTYPE svg PUBLIC "-//W3C//DTD SVG 1.1//EN"
 "http://www.w3.org/Graphics/SVG/1.1/DTD/svg11.dtd">
<!-- Generated by graphviz version 9.0.0 (20230911.1827)
 -->
<!-- Title: D:/Note_Database/Subject/MCETA Microcontroller Experiment TA/files/HT32_STD_5xxxx_FWLib_V1.5.1_7084b/library/CMSIS/Core/Include/core_cm35p.h Pages: 1 -->
<svg width="262pt" height="188pt"
 viewBox="0.00 0.00 261.50 188.00" xmlns="http://www.w3.org/2000/svg" xmlns:xlink="http://www.w3.org/1999/xlink">
<g id="graph0" class="graph" transform="scale(1 1) rotate(0) translate(4 184)">
<title>D:/Note_Database/Subject/MCETA Microcontroller Experiment TA/files/HT32_STD_5xxxx_FWLib_V1.5.1_7084b/library/CMSIS/Core/Include/core_cm35p.h</title>
<!-- Node1 -->
<g id="Node000001" class="node">
<title>Node1</title>
<g id="a_Node000001"><a xlink:title="CMSIS Cortex&#45;M35P Core Peripheral Access Layer Header File.">
<polygon fill="#999999" stroke="#666666" points="200.5,-180 0,-180 0,-112 200.5,-112 200.5,-180"/>
<text text-anchor="start" x="8" y="-166.5" font-family="Helvetica,sans-Serif" font-size="10.00">D:/Note_Database/Subject</text>
<text text-anchor="start" x="8" y="-154.5" font-family="Helvetica,sans-Serif" font-size="10.00">/MCETA Microcontroller</text>
<text text-anchor="start" x="8" y="-142.5" font-family="Helvetica,sans-Serif" font-size="10.00"> Experiment TA/files/HT32</text>
<text text-anchor="start" x="8" y="-130.5" font-family="Helvetica,sans-Serif" font-size="10.00">_STD_5xxxx_FWLib_V1.5.1_7084b</text>
<text text-anchor="middle" x="100.25" y="-118.5" font-family="Helvetica,sans-Serif" font-size="10.00">/library/CMSIS/Core/Include/core_cm35p.h</text>
</a>
</g>
</g>
<!-- Node2 -->
<g id="Node000002" class="node">
<title>Node2</title>
<g id="a_Node000002"><a xlink:title=" ">
<polygon fill="#e0e0e0" stroke="#999999" points="142.38,-20 94.12,-20 94.12,0 142.38,0 142.38,-20"/>
<text text-anchor="middle" x="118.25" y="-6.5" font-family="Helvetica,sans-Serif" font-size="10.00">stdint.h</text>
</a>
</g>
</g>
<!-- Node1&#45;&gt;Node2 -->
<g id="edge1_Node000001_Node000002" class="edge">
<title>Node1&#45;&gt;Node2</title>
<g id="a_edge1_Node000001_Node000002"><a xlink:title=" ">
<path fill="none" stroke="#63b8ff" d="M62.74,-111.87C48.56,-95.24 38.05,-74.69 48.25,-56 55.92,-41.95 70.06,-31.64 83.63,-24.45"/>
<polygon fill="#63b8ff" stroke="#63b8ff" points="84.93,-27.71 92.42,-20.22 81.89,-21.41 84.93,-27.71"/>
</a>
</g>
</g>
<!-- Node3 -->
<g id="Node000003" class="node">
<title>Node3</title>
<g id="a_Node000003"><a xlink:href="_core_2_include_2cmsis__version_8h.html" target="_top" xlink:title="CMSIS Core(M) Version definitions.">
<polygon fill="white" stroke="#666666" points="143.12,-76 57.38,-76 57.38,-56 143.12,-56 143.12,-76"/>
<text text-anchor="middle" x="100.25" y="-62.5" font-family="Helvetica,sans-Serif" font-size="10.00">cmsis_version.h</text>
</a>
</g>
</g>
<!-- Node1&#45;&gt;Node3 -->
<g id="edge2_Node000001_Node000003" class="edge">
<title>Node1&#45;&gt;Node3</title>
<g id="a_edge2_Node000001_Node000003"><a xlink:title=" ">
<path fill="none" stroke="#63b8ff" d="M100.25,-111.92C100.25,-103.72 100.25,-95.17 100.25,-87.75"/>
<polygon fill="#63b8ff" stroke="#63b8ff" points="103.75,-87.79 100.25,-77.79 96.75,-87.79 103.75,-87.79"/>
</a>
</g>
</g>
<!-- Node4 -->
<g id="Node000004" class="node">
<title>Node4</title>
<g id="a_Node000004"><a xlink:href="_core_2_include_2cmsis__compiler_8h.html" target="_top" xlink:title="CMSIS compiler generic header file.">
<polygon fill="white" stroke="#666666" points="253.5,-76 161,-76 161,-56 253.5,-56 253.5,-76"/>
<text text-anchor="middle" x="207.25" y="-62.5" font-family="Helvetica,sans-Serif" font-size="10.00">cmsis_compiler.h</text>
</a>
</g>
</g>
<!-- Node1&#45;&gt;Node4 -->
<g id="edge3_Node000001_Node000004" class="edge">
<title>Node1&#45;&gt;Node4</title>
<g id="a_edge3_Node000001_Node000004"><a xlink:title=" ">
<path fill="none" stroke="#63b8ff" d="M145.94,-111.69C159.64,-101.7 174.05,-91.2 185.45,-82.89"/>
<polygon fill="#63b8ff" stroke="#63b8ff" points="187.36,-85.83 193.38,-77.11 183.24,-80.17 187.36,-85.83"/>
</a>
</g>
</g>
<!-- Node4&#45;&gt;Node2 -->
<g id="edge4_Node000004_Node000002" class="edge">
<title>Node4&#45;&gt;Node2</title>
<g id="a_edge4_Node000004_Node000002"><a xlink:title=" ">
<path fill="none" stroke="#63b8ff" d="M191.75,-55.59C178.43,-47.51 158.97,-35.71 143.42,-26.27"/>
<polygon fill="#63b8ff" stroke="#63b8ff" points="145.53,-23.46 135.17,-21.26 141.9,-29.44 145.53,-23.46"/>
</a>
</g>
</g>
</g>
</svg>
