<?xml version="1.0" encoding="UTF-8" standalone="no"?>
<!DOCTYPE svg PUBLIC "-//W3C//DTD SVG 1.1//EN"
 "http://www.w3.org/Graphics/SVG/1.1/DTD/svg11.dtd">
<!-- Generated by graphviz version 9.0.0 (20230911.1827)
 -->
<!-- Title: D:/Note_Database/Subject/MCETA Microcontroller Experiment TA/files/HT32_STD_5xxxx_FWLib_V1.5.1_7084b/library/CMSIS/Core/Include/core_armv8mbl.h Pages: 1 -->
<svg width="247pt" height="200pt"
 viewBox="0.00 0.00 246.50 200.00" xmlns="http://www.w3.org/2000/svg" xmlns:xlink="http://www.w3.org/1999/xlink">
<g id="graph0" class="graph" transform="scale(1 1) rotate(0) translate(4 196)">
<title>D:/Note_Database/Subject/MCETA Microcontroller Experiment TA/files/HT32_STD_5xxxx_FWLib_V1.5.1_7084b/library/CMSIS/Core/Include/core_armv8mbl.h</title>
<!-- Node1 -->
<g id="Node000001" class="node">
<title>Node1</title>
<g id="a_Node000001"><a xlink:title="CMSIS Armv8&#45;M Baseline Core Peripheral Access Layer Header File.">
<polygon fill="#999999" stroke="#666666" points="170.5,-192 0,-192 0,-112 170.5,-112 170.5,-192"/>
<text text-anchor="start" x="8" y="-178.5" font-family="Helvetica,sans-Serif" font-size="10.00">D:/Note_Database/Subject</text>
<text text-anchor="start" x="8" y="-166.5" font-family="Helvetica,sans-Serif" font-size="10.00">/MCETA Microcontroller</text>
<text text-anchor="start" x="8" y="-154.5" font-family="Helvetica,sans-Serif" font-size="10.00"> Experiment TA/files/HT32</text>
<text text-anchor="start" x="8" y="-142.5" font-family="Helvetica,sans-Serif" font-size="10.00">_STD_5xxxx_FWLib_V1.5.1_7084b</text>
<text text-anchor="start" x="8" y="-130.5" font-family="Helvetica,sans-Serif" font-size="10.00">/library/CMSIS/Core/Include/core</text>
<text text-anchor="middle" x="85.25" y="-118.5" font-family="Helvetica,sans-Serif" font-size="10.00">_armv8mbl.h</text>
</a>
</g>
</g>
<!-- Node2 -->
<g id="Node000002" class="node">
<title>Node2</title>
<g id="a_Node000002"><a xlink:title=" ">
<polygon fill="#e0e0e0" stroke="#999999" points="127.38,-20 79.12,-20 79.12,0 127.38,0 127.38,-20"/>
<text text-anchor="middle" x="103.25" y="-6.5" font-family="Helvetica,sans-Serif" font-size="10.00">stdint.h</text>
</a>
</g>
</g>
<!-- Node1&#45;&gt;Node2 -->
<g id="edge1_Node000001_Node000002" class="edge">
<title>Node1&#45;&gt;Node2</title>
<g id="a_edge1_Node000001_Node000002"><a xlink:title=" ">
<path fill="none" stroke="#63b8ff" d="M44.48,-111.72C31.7,-94.61 23.25,-74.32 33.25,-56 40.92,-41.95 55.06,-31.64 68.63,-24.45"/>
<polygon fill="#63b8ff" stroke="#63b8ff" points="69.93,-27.71 77.42,-20.22 66.89,-21.41 69.93,-27.71"/>
</a>
</g>
</g>
<!-- Node3 -->
<g id="Node000003" class="node">
<title>Node3</title>
<g id="a_Node000003"><a xlink:href="_core_2_include_2cmsis__version_8h.html" target="_top" xlink:title="CMSIS Core(M) Version definitions.">
<polygon fill="white" stroke="#666666" points="128.12,-76 42.38,-76 42.38,-56 128.12,-56 128.12,-76"/>
<text text-anchor="middle" x="85.25" y="-62.5" font-family="Helvetica,sans-Serif" font-size="10.00">cmsis_version.h</text>
</a>
</g>
</g>
<!-- Node1&#45;&gt;Node3 -->
<g id="edge2_Node000001_Node000003" class="edge">
<title>Node1&#45;&gt;Node3</title>
<g id="a_edge2_Node000001_Node000003"><a xlink:title=" ">
<path fill="none" stroke="#63b8ff" d="M85.25,-111.95C85.25,-103.6 85.25,-95.09 85.25,-87.76"/>
<polygon fill="#63b8ff" stroke="#63b8ff" points="88.75,-87.95 85.25,-77.95 81.75,-87.95 88.75,-87.95"/>
</a>
</g>
</g>
<!-- Node4 -->
<g id="Node000004" class="node">
<title>Node4</title>
<g id="a_Node000004"><a xlink:href="_core_2_include_2cmsis__compiler_8h.html" target="_top" xlink:title="CMSIS compiler generic header file.">
<polygon fill="white" stroke="#666666" points="238.5,-76 146,-76 146,-56 238.5,-56 238.5,-76"/>
<text text-anchor="middle" x="192.25" y="-62.5" font-family="Helvetica,sans-Serif" font-size="10.00">cmsis_compiler.h</text>
</a>
</g>
</g>
<!-- Node1&#45;&gt;Node4 -->
<g id="edge3_Node000001_Node000004" class="edge">
<title>Node1&#45;&gt;Node4</title>
<g id="a_edge3_Node000001_Node000004"><a xlink:title=" ">
<path fill="none" stroke="#63b8ff" d="M135.3,-111.71C148,-101.74 160.95,-91.57 171.29,-83.45"/>
<polygon fill="#63b8ff" stroke="#63b8ff" points="173.42,-86.23 179.12,-77.31 169.09,-80.73 173.42,-86.23"/>
</a>
</g>
</g>
<!-- Node4&#45;&gt;Node2 -->
<g id="edge4_Node000004_Node000002" class="edge">
<title>Node4&#45;&gt;Node2</title>
<g id="a_edge4_Node000004_Node000002"><a xlink:title=" ">
<path fill="none" stroke="#63b8ff" d="M176.75,-55.59C163.43,-47.51 143.97,-35.71 128.42,-26.27"/>
<polygon fill="#63b8ff" stroke="#63b8ff" points="130.53,-23.46 120.17,-21.26 126.9,-29.44 130.53,-23.46"/>
</a>
</g>
</g>
</g>
</svg>
