<?xml version="1.0" encoding="UTF-8" standalone="no"?>
<!DOCTYPE svg PUBLIC "-//W3C//DTD SVG 1.1//EN"
 "http://www.w3.org/Graphics/SVG/1.1/DTD/svg11.dtd">
<!-- Generated by graphviz version 9.0.0 (20230911.1827)
 -->
<!-- Title: D:/Note_Database/Subject/MCETA Microcontroller Experiment TA/files/HT32_STD_5xxxx_FWLib_V1.5.1_7084b/example/ADC_24bit/Convert_Interrupt/delta_sigma_adc.c Pages: 1 -->
<svg width="309pt" height="144pt"
 viewBox="0.00 0.00 308.50 144.00" xmlns="http://www.w3.org/2000/svg" xmlns:xlink="http://www.w3.org/1999/xlink">
<g id="graph0" class="graph" transform="scale(1 1) rotate(0) translate(4 140)">
<title>D:/Note_Database/Subject/MCETA Microcontroller Experiment TA/files/HT32_STD_5xxxx_FWLib_V1.5.1_7084b/example/ADC_24bit/Convert_Interrupt/delta_sigma_adc.c</title>
<!-- Node1 -->
<g id="Node000001" class="node">
<title>Node1</title>
<g id="a_Node000001"><a xlink:title="The delta sigma ADC driver.">
<polygon fill="#999999" stroke="#666666" points="200,-136 19,-136 19,-56 200,-56 200,-136"/>
<text text-anchor="start" x="27" y="-122.5" font-family="Helvetica,sans-Serif" font-size="10.00">D:/Note_Database/Subject</text>
<text text-anchor="start" x="27" y="-110.5" font-family="Helvetica,sans-Serif" font-size="10.00">/MCETA Microcontroller</text>
<text text-anchor="start" x="27" y="-98.5" font-family="Helvetica,sans-Serif" font-size="10.00"> Experiment TA/files/HT32</text>
<text text-anchor="start" x="27" y="-86.5" font-family="Helvetica,sans-Serif" font-size="10.00">_STD_5xxxx_FWLib_V1.5.1_7084b</text>
<text text-anchor="start" x="27" y="-74.5" font-family="Helvetica,sans-Serif" font-size="10.00">/example/ADC_24bit/Convert_Interrupt</text>
<text text-anchor="middle" x="109.5" y="-62.5" font-family="Helvetica,sans-Serif" font-size="10.00">/delta_sigma_adc.c</text>
</a>
</g>
</g>
<!-- Node2 -->
<g id="Node000002" class="node">
<title>Node2</title>
<g id="a_Node000002"><a xlink:title=" ">
<polygon fill="#e0e0e0" stroke="#999999" points="43,-20 0,-20 0,0 43,0 43,-20"/>
<text text-anchor="middle" x="21.5" y="-6.5" font-family="Helvetica,sans-Serif" font-size="10.00">ht32.h</text>
</a>
</g>
</g>
<!-- Node1&#45;&gt;Node2 -->
<g id="edge1_Node000001_Node000002" class="edge">
<title>Node1&#45;&gt;Node2</title>
<g id="a_edge1_Node000001_Node000002"><a xlink:title=" ">
<path fill="none" stroke="#63b8ff" d="M68.33,-55.71C58.22,-46.05 47.9,-36.2 39.53,-28.21"/>
<polygon fill="#63b8ff" stroke="#63b8ff" points="42.06,-25.79 32.41,-21.42 37.23,-30.85 42.06,-25.79"/>
</a>
</g>
</g>
<!-- Node3 -->
<g id="Node000003" class="node">
<title>Node3</title>
<g id="a_Node000003"><a xlink:href="delta__sigma__adc_8h.html" target="_top" xlink:title="The header file of delta sigma ADC driver.">
<polygon fill="white" stroke="#666666" points="158.38,-20 60.62,-20 60.62,0 158.38,0 158.38,-20"/>
<text text-anchor="middle" x="109.5" y="-6.5" font-family="Helvetica,sans-Serif" font-size="10.00">delta_sigma_adc.h</text>
</a>
</g>
</g>
<!-- Node1&#45;&gt;Node3 -->
<g id="edge2_Node000001_Node000003" class="edge">
<title>Node1&#45;&gt;Node3</title>
<g id="a_edge2_Node000001_Node000003"><a xlink:title=" ">
<path fill="none" stroke="#63b8ff" d="M109.5,-55.95C109.5,-47.6 109.5,-39.09 109.5,-31.76"/>
<polygon fill="#63b8ff" stroke="#63b8ff" points="113,-31.95 109.5,-21.95 106,-31.95 113,-31.95"/>
</a>
</g>
</g>
<!-- Node4 -->
<g id="Node000004" class="node">
<title>Node4</title>
<g id="a_Node000004"><a xlink:title=" ">
<polygon fill="#e0e0e0" stroke="#999999" points="300.5,-20 176.5,-20 176.5,0 300.5,0 300.5,-20"/>
<text text-anchor="middle" x="238.5" y="-6.5" font-family="Helvetica,sans-Serif" font-size="10.00">middleware\i2c_master.h</text>
</a>
</g>
</g>
<!-- Node1&#45;&gt;Node4 -->
<g id="edge3_Node000001_Node000004" class="edge">
<title>Node1&#45;&gt;Node4</title>
<g id="a_edge3_Node000001_Node000004"><a xlink:title=" ">
<path fill="none" stroke="#63b8ff" d="M169.85,-55.71C185.78,-45.33 202.06,-34.73 214.76,-26.46"/>
<polygon fill="#63b8ff" stroke="#63b8ff" points="216.37,-29.59 222.84,-21.2 212.55,-23.72 216.37,-29.59"/>
</a>
</g>
</g>
</g>
</svg>
