<?xml version="1.0" encoding="UTF-8" standalone="no"?>
<!DOCTYPE svg PUBLIC "-//W3C//DTD SVG 1.1//EN"
 "http://www.w3.org/Graphics/SVG/1.1/DTD/svg11.dtd">
<!-- Generated by graphviz version 9.0.0 (20230911.1827)
 -->
<!-- Title: D:/Note_Database/Subject/MCETA Microcontroller Experiment TA/files/HT32_STD_5xxxx_FWLib_V1.5.1_7084b/utilities/common/ebi_lcd.c Pages: 1 -->
<svg width="354pt" height="244pt"
 viewBox="0.00 0.00 353.62 244.00" xmlns="http://www.w3.org/2000/svg" xmlns:xlink="http://www.w3.org/1999/xlink">
<g id="graph0" class="graph" transform="scale(1 1) rotate(0) translate(4 240)">
<title>D:/Note_Database/Subject/MCETA Microcontroller Experiment TA/files/HT32_STD_5xxxx_FWLib_V1.5.1_7084b/utilities/common/ebi_lcd.c</title>
<!-- Node1 -->
<g id="Node000001" class="node">
<title>Node1</title>
<g id="a_Node000001"><a xlink:title="This file provides a set of functions needed to manage the communication between EBI peripheral and L...">
<polygon fill="#999999" stroke="#666666" points="321.75,-236 151.25,-236 151.25,-168 321.75,-168 321.75,-236"/>
<text text-anchor="start" x="159.25" y="-222.5" font-family="Helvetica,sans-Serif" font-size="10.00">D:/Note_Database/Subject</text>
<text text-anchor="start" x="159.25" y="-210.5" font-family="Helvetica,sans-Serif" font-size="10.00">/MCETA Microcontroller</text>
<text text-anchor="start" x="159.25" y="-198.5" font-family="Helvetica,sans-Serif" font-size="10.00"> Experiment TA/files/HT32</text>
<text text-anchor="start" x="159.25" y="-186.5" font-family="Helvetica,sans-Serif" font-size="10.00">_STD_5xxxx_FWLib_V1.5.1_7084b</text>
<text text-anchor="middle" x="236.5" y="-174.5" font-family="Helvetica,sans-Serif" font-size="10.00">/utilities/common/ebi_lcd.c</text>
</a>
</g>
</g>
<!-- Node2 -->
<g id="Node000002" class="node">
<title>Node2</title>
<g id="a_Node000002"><a xlink:href="ht32_8h.html" target="_top" xlink:title="The API between application and HT32FXXXX Firmware Library.">
<polygon fill="white" stroke="#666666" points="185,-132 142,-132 142,-112 185,-112 185,-132"/>
<text text-anchor="middle" x="163.5" y="-118.5" font-family="Helvetica,sans-Serif" font-size="10.00">ht32.h</text>
</a>
</g>
</g>
<!-- Node1&#45;&gt;Node2 -->
<g id="edge1_Node000001_Node000002" class="edge">
<title>Node1&#45;&gt;Node2</title>
<g id="a_edge1_Node000001_Node000002"><a xlink:title=" ">
<path fill="none" stroke="#63b8ff" d="M205.54,-167.92C196.73,-158.51 187.48,-148.63 179.91,-140.53"/>
<polygon fill="#63b8ff" stroke="#63b8ff" points="182.61,-138.29 173.22,-133.38 177.5,-143.08 182.61,-138.29"/>
</a>
</g>
</g>
<!-- Node7 -->
<g id="Node000007" class="node">
<title>Node7</title>
<g id="a_Node000007"><a xlink:href="ebi__lcd_8h.html" target="_top" xlink:title="The header file of ebi_lcd.c module.">
<polygon fill="white" stroke="#666666" points="264,-132 209,-132 209,-112 264,-112 264,-132"/>
<text text-anchor="middle" x="236.5" y="-118.5" font-family="Helvetica,sans-Serif" font-size="10.00">ebi_lcd.h</text>
</a>
</g>
</g>
<!-- Node1&#45;&gt;Node7 -->
<g id="edge6_Node000001_Node000007" class="edge">
<title>Node1&#45;&gt;Node7</title>
<g id="a_edge6_Node000001_Node000007"><a xlink:title=" ">
<path fill="none" stroke="#63b8ff" d="M236.5,-167.92C236.5,-159.72 236.5,-151.17 236.5,-143.75"/>
<polygon fill="#63b8ff" stroke="#63b8ff" points="240,-143.79 236.5,-133.79 233,-143.79 240,-143.79"/>
</a>
</g>
</g>
<!-- Node10 -->
<g id="Node000010" class="node">
<title>Node10</title>
<g id="a_Node000010"><a xlink:href="font_8h.html" target="_top" xlink:title="This file contains the font information.">
<polygon fill="white" stroke="#666666" points="322.5,-132 282.5,-132 282.5,-112 322.5,-112 322.5,-132"/>
<text text-anchor="middle" x="302.5" y="-118.5" font-family="Helvetica,sans-Serif" font-size="10.00">font.h</text>
</a>
</g>
</g>
<!-- Node1&#45;&gt;Node10 -->
<g id="edge10_Node000001_Node000010" class="edge">
<title>Node1&#45;&gt;Node10</title>
<g id="a_edge10_Node000001_Node000010"><a xlink:title=" ">
<path fill="none" stroke="#63b8ff" d="M264.49,-167.92C272.28,-158.71 280.46,-149.05 287.22,-141.06"/>
<polygon fill="#63b8ff" stroke="#63b8ff" points="289.88,-143.33 293.67,-133.43 284.54,-138.81 289.88,-143.33"/>
</a>
</g>
</g>
<!-- Node3 -->
<g id="Node000003" class="node">
<title>Node3</title>
<g id="a_Node000003"><a xlink:href="ht32f5xxxx__01_8h.html" target="_top" xlink:title="CMSIS Cortex&#45;M0+ Device Peripheral Access Layer Header File.">
<polygon fill="white" stroke="#666666" points="200.12,-76 112.88,-76 112.88,-56 200.12,-56 200.12,-76"/>
<text text-anchor="middle" x="156.5" y="-62.5" font-family="Helvetica,sans-Serif" font-size="10.00">ht32f5xxxx_01.h</text>
</a>
</g>
</g>
<!-- Node2&#45;&gt;Node3 -->
<g id="edge2_Node000002_Node000003" class="edge">
<title>Node2&#45;&gt;Node3</title>
<g id="a_edge2_Node000002_Node000003"><a xlink:title=" ">
<path fill="none" stroke="#63b8ff" d="M162.28,-111.59C161.42,-104.93 160.23,-95.75 159.15,-87.44"/>
<polygon fill="#63b8ff" stroke="#63b8ff" points="162.66,-87.27 157.9,-77.8 155.71,-88.17 162.66,-87.27"/>
</a>
</g>
</g>
<!-- Node4 -->
<g id="Node000004" class="node">
<title>Node4</title>
<g id="a_Node000004"><a xlink:href="ht32__config_8h.html" target="_top" xlink:title="Configuration file of HT32.">
<polygon fill="white" stroke="#666666" points="337.38,-20 263.62,-20 263.62,0 337.38,0 337.38,-20"/>
<text text-anchor="middle" x="300.5" y="-6.5" font-family="Helvetica,sans-Serif" font-size="10.00">ht32_config.h</text>
</a>
</g>
</g>
<!-- Node3&#45;&gt;Node4 -->
<g id="edge3_Node000003_Node000004" class="edge">
<title>Node3&#45;&gt;Node4</title>
<g id="a_edge3_Node000003_Node000004"><a xlink:title=" ">
<path fill="none" stroke="#63b8ff" d="M181.58,-55.59C204.57,-46.97 238.85,-34.12 264.71,-24.42"/>
<polygon fill="#63b8ff" stroke="#63b8ff" points="265.67,-27.8 273.8,-21.01 263.21,-21.25 265.67,-27.8"/>
</a>
</g>
</g>
<!-- Node5 -->
<g id="Node000005" class="node">
<title>Node5</title>
<g id="a_Node000005"><a xlink:title=" ">
<polygon fill="#e0e0e0" stroke="#999999" points="85,-20 0,-20 0,0 85,0 85,-20"/>
<text text-anchor="middle" x="42.5" y="-6.5" font-family="Helvetica,sans-Serif" font-size="10.00">core_cm0plus.h</text>
</a>
</g>
</g>
<!-- Node3&#45;&gt;Node5 -->
<g id="edge4_Node000003_Node000005" class="edge">
<title>Node3&#45;&gt;Node5</title>
<g id="a_edge4_Node000003_Node000005"><a xlink:title=" ">
<path fill="none" stroke="#63b8ff" d="M136.64,-55.59C119.01,-47.24 92.99,-34.92 72.77,-25.34"/>
<polygon fill="#63b8ff" stroke="#63b8ff" points="74.42,-22.25 63.88,-21.13 71.42,-28.57 74.42,-22.25"/>
</a>
</g>
</g>
<!-- Node6 -->
<g id="Node000006" class="node">
<title>Node6</title>
<g id="a_Node000006"><a xlink:href="system__ht32f5xxxx__01_8h.html" target="_top" xlink:title="CMSIS Cortex&#45;M0+ Device Peripheral Access Layer System Header File for the Holtek HT32F5xxxx Device S...">
<polygon fill="white" stroke="#666666" points="227.88,-20 103.12,-20 103.12,0 227.88,0 227.88,-20"/>
<text text-anchor="middle" x="165.5" y="-6.5" font-family="Helvetica,sans-Serif" font-size="10.00">system_ht32f5xxxx_01.h</text>
</a>
</g>
</g>
<!-- Node3&#45;&gt;Node6 -->
<g id="edge5_Node000003_Node000006" class="edge">
<title>Node3&#45;&gt;Node6</title>
<g id="a_edge5_Node000003_Node000006"><a xlink:title=" ">
<path fill="none" stroke="#63b8ff" d="M158.07,-55.59C159.18,-48.93 160.71,-39.75 162.09,-31.44"/>
<polygon fill="#63b8ff" stroke="#63b8ff" points="165.51,-32.23 163.7,-21.79 158.61,-31.08 165.51,-32.23"/>
</a>
</g>
</g>
<!-- Node8 -->
<g id="Node000008" class="node">
<title>Node8</title>
<g id="a_Node000008"><a xlink:href="ht32__board_8h.html" target="_top" xlink:title="HT32 target board definition file.">
<polygon fill="white" stroke="#666666" points="345.62,-76 273.38,-76 273.38,-56 345.62,-56 345.62,-76"/>
<text text-anchor="middle" x="309.5" y="-62.5" font-family="Helvetica,sans-Serif" font-size="10.00">ht32_board.h</text>
</a>
</g>
</g>
<!-- Node7&#45;&gt;Node8 -->
<g id="edge7_Node000007_Node000008" class="edge">
<title>Node7&#45;&gt;Node8</title>
<g id="a_edge7_Node000007_Node000008"><a xlink:title=" ">
<path fill="none" stroke="#63b8ff" d="M249.22,-111.59C259.89,-103.7 275.38,-92.24 287.98,-82.92"/>
<polygon fill="#63b8ff" stroke="#63b8ff" points="289.76,-85.96 295.71,-77.2 285.59,-80.33 289.76,-85.96"/>
</a>
</g>
</g>
<!-- Node9 -->
<g id="Node000009" class="node">
<title>Node9</title>
<g id="a_Node000009"><a xlink:href="lcd_8h.html" target="_top" xlink:title="The header file of lcd module.">
<polygon fill="white" stroke="#666666" points="255,-76 218,-76 218,-56 255,-56 255,-76"/>
<text text-anchor="middle" x="236.5" y="-62.5" font-family="Helvetica,sans-Serif" font-size="10.00">lcd.h</text>
</a>
</g>
</g>
<!-- Node7&#45;&gt;Node9 -->
<g id="edge9_Node000007_Node000009" class="edge">
<title>Node7&#45;&gt;Node9</title>
<g id="a_edge9_Node000007_Node000009"><a xlink:title=" ">
<path fill="none" stroke="#63b8ff" d="M236.5,-111.59C236.5,-105.01 236.5,-95.96 236.5,-87.73"/>
<polygon fill="#63b8ff" stroke="#63b8ff" points="240,-87.81 236.5,-77.81 233,-87.81 240,-87.81"/>
</a>
</g>
</g>
<!-- Node8&#45;&gt;Node4 -->
<g id="edge8_Node000008_Node000004" class="edge">
<title>Node8&#45;&gt;Node4</title>
<g id="a_edge8_Node000008_Node000004"><a xlink:title=" ">
<path fill="none" stroke="#63b8ff" d="M307.93,-55.59C306.82,-48.93 305.29,-39.75 303.91,-31.44"/>
<polygon fill="#63b8ff" stroke="#63b8ff" points="307.39,-31.08 302.3,-21.79 300.49,-32.23 307.39,-31.08"/>
</a>
</g>
</g>
</g>
</svg>
