<?xml version="1.0" encoding="UTF-8" standalone="no"?>
<!DOCTYPE svg PUBLIC "-//W3C//DTD SVG 1.1//EN"
 "http://www.w3.org/Graphics/SVG/1.1/DTD/svg11.dtd">
<!-- Generated by graphviz version 9.0.0 (20230911.1827)
 -->
<!-- Title: D:/Note_Database/Subject/MCETA Microcontroller Experiment TA/files/HT32_STD_5xxxx_FWLib_V1.5.1_7084b/utilities/common/ebi_lcd.h Pages: 1 -->
<svg width="2558pt" height="180pt"
 viewBox="0.00 0.00 2557.75 180.00" xmlns="http://www.w3.org/2000/svg" xmlns:xlink="http://www.w3.org/1999/xlink">
<g id="graph0" class="graph" transform="scale(1 1) rotate(0) translate(4 176)">
<title>D:/Note_Database/Subject/MCETA Microcontroller Experiment TA/files/HT32_STD_5xxxx_FWLib_V1.5.1_7084b/utilities/common/ebi_lcd.h</title>
<!-- Node1 -->
<g id="Node000001" class="node">
<title>Node1</title>
<g id="a_Node000001"><a xlink:title="The header file of ebi_lcd.c module.">
<polygon fill="#999999" stroke="#666666" points="1370.75,-172 1200.25,-172 1200.25,-104 1370.75,-104 1370.75,-172"/>
<text text-anchor="start" x="1208.25" y="-158.5" font-family="Helvetica,sans-Serif" font-size="10.00">D:/Note_Database/Subject</text>
<text text-anchor="start" x="1208.25" y="-146.5" font-family="Helvetica,sans-Serif" font-size="10.00">/MCETA Microcontroller</text>
<text text-anchor="start" x="1208.25" y="-134.5" font-family="Helvetica,sans-Serif" font-size="10.00"> Experiment TA/files/HT32</text>
<text text-anchor="start" x="1208.25" y="-122.5" font-family="Helvetica,sans-Serif" font-size="10.00">_STD_5xxxx_FWLib_V1.5.1_7084b</text>
<text text-anchor="middle" x="1285.5" y="-110.5" font-family="Helvetica,sans-Serif" font-size="10.00">/utilities/common/ebi_lcd.h</text>
</a>
</g>
</g>
<!-- Node2 -->
<g id="Node000002" class="node">
<title>Node2</title>
<g id="a_Node000002"><a xlink:href="bm53a367a__dvb_8h.html" target="_top" xlink:title="The header file of BM53A367A Development Board.">
<polygon fill="white" stroke="#666666" points="187,-68 0,-68 0,0 187,0 187,-68"/>
<text text-anchor="start" x="8" y="-54.5" font-family="Helvetica,sans-Serif" font-size="10.00">D:/Note_Database/Subject</text>
<text text-anchor="start" x="8" y="-42.5" font-family="Helvetica,sans-Serif" font-size="10.00">/MCETA Microcontroller</text>
<text text-anchor="start" x="8" y="-30.5" font-family="Helvetica,sans-Serif" font-size="10.00"> Experiment TA/files/HT32</text>
<text text-anchor="start" x="8" y="-18.5" font-family="Helvetica,sans-Serif" font-size="10.00">_STD_5xxxx_FWLib_V1.5.1_7084b</text>
<text text-anchor="middle" x="93.5" y="-6.5" font-family="Helvetica,sans-Serif" font-size="10.00">/utilities/HT32_Board/bm53a367a_dvb.h</text>
</a>
</g>
</g>
<!-- Node1&#45;&gt;Node2 -->
<g id="edge1_Node000001_Node000002" class="edge">
<title>Node1&#45;&gt;Node2</title>
<g id="a_edge1_Node000001_Node000002"><a xlink:title=" ">
<path fill="none" stroke="#63b8ff" d="M1188.5,-133.92C958.51,-126.12 385.28,-103.65 196.5,-68 193.46,-67.43 190.38,-66.79 187.28,-66.1"/>
<polygon fill="#63b8ff" stroke="#63b8ff" points="1188.23,-137.41 1198.34,-134.25 1188.46,-130.42 1188.23,-137.41"/>
</a>
</g>
</g>
<!-- Node3 -->
<g id="Node000003" class="node">
<title>Node3</title>
<g id="a_Node000003"><a xlink:href="ht32f50441__sk_8h.html" target="_top" xlink:title="The header file of HT32F50441 Starter kit (temporary file, not finish/support yet).">
<polygon fill="white" stroke="#666666" points="385.62,-68 205.38,-68 205.38,0 385.62,0 385.62,-68"/>
<text text-anchor="start" x="213.38" y="-54.5" font-family="Helvetica,sans-Serif" font-size="10.00">D:/Note_Database/Subject</text>
<text text-anchor="start" x="213.38" y="-42.5" font-family="Helvetica,sans-Serif" font-size="10.00">/MCETA Microcontroller</text>
<text text-anchor="start" x="213.38" y="-30.5" font-family="Helvetica,sans-Serif" font-size="10.00"> Experiment TA/files/HT32</text>
<text text-anchor="start" x="213.38" y="-18.5" font-family="Helvetica,sans-Serif" font-size="10.00">_STD_5xxxx_FWLib_V1.5.1_7084b</text>
<text text-anchor="middle" x="295.5" y="-6.5" font-family="Helvetica,sans-Serif" font-size="10.00">/utilities/HT32_Board/ht32f50441_sk.h</text>
</a>
</g>
</g>
<!-- Node1&#45;&gt;Node3 -->
<g id="edge2_Node000001_Node000003" class="edge">
<title>Node1&#45;&gt;Node3</title>
<g id="a_edge2_Node000001_Node000003"><a xlink:title=" ">
<path fill="none" stroke="#63b8ff" d="M1188.71,-137.2C1023.95,-135.84 679.18,-125.56 394.5,-68 391.66,-67.43 388.79,-66.79 385.9,-66.11"/>
<polygon fill="#63b8ff" stroke="#63b8ff" points="1188.24,-140.7 1198.27,-137.27 1188.29,-133.7 1188.24,-140.7"/>
</a>
</g>
</g>
<!-- Node4 -->
<g id="Node000004" class="node">
<title>Node4</title>
<g id="a_Node000004"><a xlink:href="ht32f50452__sk_8h.html" target="_top" xlink:title="The header file of HT32F50452 Starter kit (temporary file, not finish/support yet).">
<polygon fill="white" stroke="#666666" points="583.62,-68 403.38,-68 403.38,0 583.62,0 583.62,-68"/>
<text text-anchor="start" x="411.38" y="-54.5" font-family="Helvetica,sans-Serif" font-size="10.00">D:/Note_Database/Subject</text>
<text text-anchor="start" x="411.38" y="-42.5" font-family="Helvetica,sans-Serif" font-size="10.00">/MCETA Microcontroller</text>
<text text-anchor="start" x="411.38" y="-30.5" font-family="Helvetica,sans-Serif" font-size="10.00"> Experiment TA/files/HT32</text>
<text text-anchor="start" x="411.38" y="-18.5" font-family="Helvetica,sans-Serif" font-size="10.00">_STD_5xxxx_FWLib_V1.5.1_7084b</text>
<text text-anchor="middle" x="493.5" y="-6.5" font-family="Helvetica,sans-Serif" font-size="10.00">/utilities/HT32_Board/ht32f50452_sk.h</text>
</a>
</g>
</g>
<!-- Node1&#45;&gt;Node4 -->
<g id="edge3_Node000001_Node000004" class="edge">
<title>Node1&#45;&gt;Node4</title>
<g id="a_edge3_Node000001_Node000004"><a xlink:title=" ">
<path fill="none" stroke="#63b8ff" d="M1188.52,-134.14C1053.55,-128.62 802.03,-112.77 592.5,-68 589.67,-67.39 586.8,-66.74 583.91,-66.03"/>
<polygon fill="#63b8ff" stroke="#63b8ff" points="1188.38,-137.63 1198.51,-134.53 1188.65,-130.64 1188.38,-137.63"/>
</a>
</g>
</g>
<!-- Node5 -->
<g id="Node000005" class="node">
<title>Node5</title>
<g id="a_Node000005"><a xlink:href="ht32f52352__sk_8h.html" target="_top" xlink:title="The header file of HT32F52352 Starter kit.">
<polygon fill="white" stroke="#666666" points="781.62,-68 601.38,-68 601.38,0 781.62,0 781.62,-68"/>
<text text-anchor="start" x="609.38" y="-54.5" font-family="Helvetica,sans-Serif" font-size="10.00">D:/Note_Database/Subject</text>
<text text-anchor="start" x="609.38" y="-42.5" font-family="Helvetica,sans-Serif" font-size="10.00">/MCETA Microcontroller</text>
<text text-anchor="start" x="609.38" y="-30.5" font-family="Helvetica,sans-Serif" font-size="10.00"> Experiment TA/files/HT32</text>
<text text-anchor="start" x="609.38" y="-18.5" font-family="Helvetica,sans-Serif" font-size="10.00">_STD_5xxxx_FWLib_V1.5.1_7084b</text>
<text text-anchor="middle" x="691.5" y="-6.5" font-family="Helvetica,sans-Serif" font-size="10.00">/utilities/HT32_Board/ht32f52352_sk.h</text>
</a>
</g>
</g>
<!-- Node1&#45;&gt;Node5 -->
<g id="edge4_Node000001_Node000005" class="edge">
<title>Node1&#45;&gt;Node5</title>
<g id="a_edge4_Node000001_Node000005"><a xlink:title=" ">
<path fill="none" stroke="#63b8ff" d="M1188.77,-128.81C1088.28,-119.07 926.96,-99.97 790.5,-68 787.68,-67.34 784.82,-66.63 781.95,-65.89"/>
<polygon fill="#63b8ff" stroke="#63b8ff" points="1188.31,-132.28 1198.6,-129.75 1188.98,-125.31 1188.31,-132.28"/>
</a>
</g>
</g>
<!-- Node6 -->
<g id="Node000006" class="node">
<title>Node6</title>
<g id="a_Node000006"><a xlink:href="ht32f52354__sk_8h.html" target="_top" xlink:title="The header file of HT32F52354 Starter kit.">
<polygon fill="white" stroke="#666666" points="979.62,-68 799.38,-68 799.38,0 979.62,0 979.62,-68"/>
<text text-anchor="start" x="807.38" y="-54.5" font-family="Helvetica,sans-Serif" font-size="10.00">D:/Note_Database/Subject</text>
<text text-anchor="start" x="807.38" y="-42.5" font-family="Helvetica,sans-Serif" font-size="10.00">/MCETA Microcontroller</text>
<text text-anchor="start" x="807.38" y="-30.5" font-family="Helvetica,sans-Serif" font-size="10.00"> Experiment TA/files/HT32</text>
<text text-anchor="start" x="807.38" y="-18.5" font-family="Helvetica,sans-Serif" font-size="10.00">_STD_5xxxx_FWLib_V1.5.1_7084b</text>
<text text-anchor="middle" x="889.5" y="-6.5" font-family="Helvetica,sans-Serif" font-size="10.00">/utilities/HT32_Board/ht32f52354_sk.h</text>
</a>
</g>
</g>
<!-- Node1&#45;&gt;Node6 -->
<g id="edge5_Node000001_Node000006" class="edge">
<title>Node1&#45;&gt;Node6</title>
<g id="a_edge5_Node000001_Node000006"><a xlink:title=" ">
<path fill="none" stroke="#63b8ff" d="M1188.77,-116.92C1130.42,-104.22 1054.79,-86.7 988.5,-68 985.71,-67.21 982.88,-66.4 980.03,-65.55"/>
<polygon fill="#63b8ff" stroke="#63b8ff" points="1187.83,-120.3 1198.35,-119 1189.31,-113.46 1187.83,-120.3"/>
</a>
</g>
</g>
<!-- Node7 -->
<g id="Node000007" class="node">
<title>Node7</title>
<g id="a_Node000007"><a xlink:href="ht32f52367__sk_8h.html" target="_top" xlink:title="The header file of HT32F52367 Starter kit.">
<polygon fill="white" stroke="#666666" points="1177.62,-68 997.38,-68 997.38,0 1177.62,0 1177.62,-68"/>
<text text-anchor="start" x="1005.38" y="-54.5" font-family="Helvetica,sans-Serif" font-size="10.00">D:/Note_Database/Subject</text>
<text text-anchor="start" x="1005.38" y="-42.5" font-family="Helvetica,sans-Serif" font-size="10.00">/MCETA Microcontroller</text>
<text text-anchor="start" x="1005.38" y="-30.5" font-family="Helvetica,sans-Serif" font-size="10.00"> Experiment TA/files/HT32</text>
<text text-anchor="start" x="1005.38" y="-18.5" font-family="Helvetica,sans-Serif" font-size="10.00">_STD_5xxxx_FWLib_V1.5.1_7084b</text>
<text text-anchor="middle" x="1087.5" y="-6.5" font-family="Helvetica,sans-Serif" font-size="10.00">/utilities/HT32_Board/ht32f52367_sk.h</text>
</a>
</g>
</g>
<!-- Node1&#45;&gt;Node7 -->
<g id="edge6_Node000001_Node000007" class="edge">
<title>Node1&#45;&gt;Node7</title>
<g id="a_edge6_Node000001_Node000007"><a xlink:title=" ">
<path fill="none" stroke="#63b8ff" d="M1210.51,-98.37C1191.41,-88.53 1171.03,-78.03 1152.48,-68.47"/>
<polygon fill="#63b8ff" stroke="#63b8ff" points="1208.83,-101.44 1219.32,-102.91 1212.04,-95.22 1208.83,-101.44"/>
</a>
</g>
</g>
<!-- Node8 -->
<g id="Node000008" class="node">
<title>Node8</title>
<g id="a_Node000008"><a xlink:href="ht32f53241__sk_8h.html" target="_top" xlink:title="The header file of HT32F53241 Starter kit (temporary file, not finish/support yet).">
<polygon fill="white" stroke="#666666" points="1375.62,-68 1195.38,-68 1195.38,0 1375.62,0 1375.62,-68"/>
<text text-anchor="start" x="1203.38" y="-54.5" font-family="Helvetica,sans-Serif" font-size="10.00">D:/Note_Database/Subject</text>
<text text-anchor="start" x="1203.38" y="-42.5" font-family="Helvetica,sans-Serif" font-size="10.00">/MCETA Microcontroller</text>
<text text-anchor="start" x="1203.38" y="-30.5" font-family="Helvetica,sans-Serif" font-size="10.00"> Experiment TA/files/HT32</text>
<text text-anchor="start" x="1203.38" y="-18.5" font-family="Helvetica,sans-Serif" font-size="10.00">_STD_5xxxx_FWLib_V1.5.1_7084b</text>
<text text-anchor="middle" x="1285.5" y="-6.5" font-family="Helvetica,sans-Serif" font-size="10.00">/utilities/HT32_Board/ht32f53241_sk.h</text>
</a>
</g>
</g>
<!-- Node1&#45;&gt;Node8 -->
<g id="edge7_Node000001_Node000008" class="edge">
<title>Node1&#45;&gt;Node8</title>
<g id="a_edge7_Node000001_Node000008"><a xlink:title=" ">
<path fill="none" stroke="#63b8ff" d="M1285.5,-92.18C1285.5,-84.22 1285.5,-76.05 1285.5,-68.47"/>
<polygon fill="#63b8ff" stroke="#63b8ff" points="1282,-92.09 1285.5,-102.09 1289,-92.09 1282,-92.09"/>
</a>
</g>
</g>
<!-- Node9 -->
<g id="Node000009" class="node">
<title>Node9</title>
<g id="a_Node000009"><a xlink:href="ht32f53252__sk_8h.html" target="_top" xlink:title="The header file of HT32F53252 Starter kit (temporary file, not finish/support yet).">
<polygon fill="white" stroke="#666666" points="1573.62,-68 1393.38,-68 1393.38,0 1573.62,0 1573.62,-68"/>
<text text-anchor="start" x="1401.38" y="-54.5" font-family="Helvetica,sans-Serif" font-size="10.00">D:/Note_Database/Subject</text>
<text text-anchor="start" x="1401.38" y="-42.5" font-family="Helvetica,sans-Serif" font-size="10.00">/MCETA Microcontroller</text>
<text text-anchor="start" x="1401.38" y="-30.5" font-family="Helvetica,sans-Serif" font-size="10.00"> Experiment TA/files/HT32</text>
<text text-anchor="start" x="1401.38" y="-18.5" font-family="Helvetica,sans-Serif" font-size="10.00">_STD_5xxxx_FWLib_V1.5.1_7084b</text>
<text text-anchor="middle" x="1483.5" y="-6.5" font-family="Helvetica,sans-Serif" font-size="10.00">/utilities/HT32_Board/ht32f53252_sk.h</text>
</a>
</g>
</g>
<!-- Node1&#45;&gt;Node9 -->
<g id="edge8_Node000001_Node000009" class="edge">
<title>Node1&#45;&gt;Node9</title>
<g id="a_edge8_Node000001_Node000009"><a xlink:title=" ">
<path fill="none" stroke="#63b8ff" d="M1360.49,-98.37C1379.59,-88.53 1399.97,-78.03 1418.52,-68.47"/>
<polygon fill="#63b8ff" stroke="#63b8ff" points="1358.96,-95.22 1351.68,-102.91 1362.17,-101.44 1358.96,-95.22"/>
</a>
</g>
</g>
<!-- Node10 -->
<g id="Node000010" class="node">
<title>Node10</title>
<g id="a_Node000010"><a xlink:href="ht32f5826__sk_8h.html" target="_top" xlink:title=" ">
<polygon fill="white" stroke="#666666" points="1767,-68 1592,-68 1592,0 1767,0 1767,-68"/>
<text text-anchor="start" x="1600" y="-54.5" font-family="Helvetica,sans-Serif" font-size="10.00">D:/Note_Database/Subject</text>
<text text-anchor="start" x="1600" y="-42.5" font-family="Helvetica,sans-Serif" font-size="10.00">/MCETA Microcontroller</text>
<text text-anchor="start" x="1600" y="-30.5" font-family="Helvetica,sans-Serif" font-size="10.00"> Experiment TA/files/HT32</text>
<text text-anchor="start" x="1600" y="-18.5" font-family="Helvetica,sans-Serif" font-size="10.00">_STD_5xxxx_FWLib_V1.5.1_7084b</text>
<text text-anchor="middle" x="1679.5" y="-6.5" font-family="Helvetica,sans-Serif" font-size="10.00">/utilities/HT32_Board/ht32f5826_sk.h</text>
</a>
</g>
</g>
<!-- Node1&#45;&gt;Node10 -->
<g id="edge9_Node000001_Node000010" class="edge">
<title>Node1&#45;&gt;Node10</title>
<g id="a_edge9_Node000001_Node000010"><a xlink:title=" ">
<path fill="none" stroke="#63b8ff" d="M1382.28,-117.07C1440.64,-104.42 1516.27,-86.91 1582.5,-68 1585.49,-67.15 1588.53,-66.25 1591.59,-65.33"/>
<polygon fill="#63b8ff" stroke="#63b8ff" points="1381.73,-113.61 1372.69,-119.14 1383.21,-120.45 1381.73,-113.61"/>
</a>
</g>
</g>
<!-- Node11 -->
<g id="Node000011" class="node">
<title>Node11</title>
<g id="a_Node000011"><a xlink:href="ht32f61355__sk_8h.html" target="_top" xlink:title="The header file of HT32F61355 Starter kit.">
<polygon fill="white" stroke="#666666" points="1965.62,-68 1785.38,-68 1785.38,0 1965.62,0 1965.62,-68"/>
<text text-anchor="start" x="1793.38" y="-54.5" font-family="Helvetica,sans-Serif" font-size="10.00">D:/Note_Database/Subject</text>
<text text-anchor="start" x="1793.38" y="-42.5" font-family="Helvetica,sans-Serif" font-size="10.00">/MCETA Microcontroller</text>
<text text-anchor="start" x="1793.38" y="-30.5" font-family="Helvetica,sans-Serif" font-size="10.00"> Experiment TA/files/HT32</text>
<text text-anchor="start" x="1793.38" y="-18.5" font-family="Helvetica,sans-Serif" font-size="10.00">_STD_5xxxx_FWLib_V1.5.1_7084b</text>
<text text-anchor="middle" x="1875.5" y="-6.5" font-family="Helvetica,sans-Serif" font-size="10.00">/utilities/HT32_Board/ht32f61355_sk.h</text>
</a>
</g>
</g>
<!-- Node1&#45;&gt;Node11 -->
<g id="edge10_Node000001_Node000011" class="edge">
<title>Node1&#45;&gt;Node11</title>
<g id="a_edge10_Node000001_Node000011"><a xlink:title=" ">
<path fill="none" stroke="#63b8ff" d="M1382.34,-128.65C1482.08,-118.82 1641.54,-99.7 1776.5,-68 1779.32,-67.34 1782.18,-66.63 1785.05,-65.88"/>
<polygon fill="#63b8ff" stroke="#63b8ff" points="1382.2,-125.14 1372.59,-129.59 1382.88,-132.11 1382.2,-125.14"/>
</a>
</g>
</g>
<!-- Node12 -->
<g id="Node000012" class="node">
<title>Node12</title>
<g id="a_Node000012"><a xlink:href="ht32f61356__sk_8h.html" target="_top" xlink:title="The header file of HT32F61356 Starter kit.">
<polygon fill="white" stroke="#666666" points="2163.62,-68 1983.38,-68 1983.38,0 2163.62,0 2163.62,-68"/>
<text text-anchor="start" x="1991.38" y="-54.5" font-family="Helvetica,sans-Serif" font-size="10.00">D:/Note_Database/Subject</text>
<text text-anchor="start" x="1991.38" y="-42.5" font-family="Helvetica,sans-Serif" font-size="10.00">/MCETA Microcontroller</text>
<text text-anchor="start" x="1991.38" y="-30.5" font-family="Helvetica,sans-Serif" font-size="10.00"> Experiment TA/files/HT32</text>
<text text-anchor="start" x="1991.38" y="-18.5" font-family="Helvetica,sans-Serif" font-size="10.00">_STD_5xxxx_FWLib_V1.5.1_7084b</text>
<text text-anchor="middle" x="2073.5" y="-6.5" font-family="Helvetica,sans-Serif" font-size="10.00">/utilities/HT32_Board/ht32f61356_sk.h</text>
</a>
</g>
</g>
<!-- Node1&#45;&gt;Node12 -->
<g id="edge11_Node000001_Node000012" class="edge">
<title>Node1&#45;&gt;Node12</title>
<g id="a_edge11_Node000001_Node000012"><a xlink:title=" ">
<path fill="none" stroke="#63b8ff" d="M1382.47,-134.06C1516.8,-128.46 1766.46,-112.51 1974.5,-68 1977.33,-67.39 1980.2,-66.73 1983.09,-66.03"/>
<polygon fill="#63b8ff" stroke="#63b8ff" points="1382.39,-130.56 1372.54,-134.46 1382.67,-137.55 1382.39,-130.56"/>
</a>
</g>
</g>
<!-- Node13 -->
<g id="Node000013" class="node">
<title>Node13</title>
<g id="a_Node000013"><a xlink:href="ht32f61357__sk_8h.html" target="_top" xlink:title="The header file of HT32F61357 Starter kit.">
<polygon fill="white" stroke="#666666" points="2361.62,-68 2181.38,-68 2181.38,0 2361.62,0 2361.62,-68"/>
<text text-anchor="start" x="2189.38" y="-54.5" font-family="Helvetica,sans-Serif" font-size="10.00">D:/Note_Database/Subject</text>
<text text-anchor="start" x="2189.38" y="-42.5" font-family="Helvetica,sans-Serif" font-size="10.00">/MCETA Microcontroller</text>
<text text-anchor="start" x="2189.38" y="-30.5" font-family="Helvetica,sans-Serif" font-size="10.00"> Experiment TA/files/HT32</text>
<text text-anchor="start" x="2189.38" y="-18.5" font-family="Helvetica,sans-Serif" font-size="10.00">_STD_5xxxx_FWLib_V1.5.1_7084b</text>
<text text-anchor="middle" x="2271.5" y="-6.5" font-family="Helvetica,sans-Serif" font-size="10.00">/utilities/HT32_Board/ht32f61357_sk.h</text>
</a>
</g>
</g>
<!-- Node1&#45;&gt;Node13 -->
<g id="edge12_Node000001_Node000013" class="edge">
<title>Node1&#45;&gt;Node13</title>
<g id="a_edge12_Node000001_Node000013"><a xlink:title=" ">
<path fill="none" stroke="#63b8ff" d="M1382.18,-137.15C1546.32,-135.71 1889.29,-125.32 2172.5,-68 2175.34,-67.42 2178.21,-66.79 2181.1,-66.11"/>
<polygon fill="#63b8ff" stroke="#63b8ff" points="1382.64,-133.65 1372.66,-137.23 1382.69,-140.65 1382.64,-133.65"/>
</a>
</g>
</g>
<!-- Node14 -->
<g id="Node000014" class="node">
<title>Node14</title>
<g id="a_Node000014"><a xlink:href="ebi__lcd_8c.html" target="_top" xlink:title="This file provides a set of functions needed to manage the communication between EBI peripheral and L...">
<polygon fill="white" stroke="#666666" points="2549.75,-68 2379.25,-68 2379.25,0 2549.75,0 2549.75,-68"/>
<text text-anchor="start" x="2387.25" y="-54.5" font-family="Helvetica,sans-Serif" font-size="10.00">D:/Note_Database/Subject</text>
<text text-anchor="start" x="2387.25" y="-42.5" font-family="Helvetica,sans-Serif" font-size="10.00">/MCETA Microcontroller</text>
<text text-anchor="start" x="2387.25" y="-30.5" font-family="Helvetica,sans-Serif" font-size="10.00"> Experiment TA/files/HT32</text>
<text text-anchor="start" x="2387.25" y="-18.5" font-family="Helvetica,sans-Serif" font-size="10.00">_STD_5xxxx_FWLib_V1.5.1_7084b</text>
<text text-anchor="middle" x="2464.5" y="-6.5" font-family="Helvetica,sans-Serif" font-size="10.00">/utilities/common/ebi_lcd.c</text>
</a>
</g>
</g>
<!-- Node1&#45;&gt;Node14 -->
<g id="edge13_Node000001_Node000014" class="edge">
<title>Node1&#45;&gt;Node14</title>
<g id="a_edge13_Node000001_Node000014"><a xlink:title=" ">
<path fill="none" stroke="#63b8ff" d="M1382.21,-134.24C1611.5,-127.15 2182.92,-106.13 2370.5,-68 2373.3,-67.43 2376.12,-66.8 2378.96,-66.11"/>
<polygon fill="#63b8ff" stroke="#63b8ff" points="1382.29,-130.74 1372.4,-134.54 1382.51,-137.73 1382.29,-130.74"/>
</a>
</g>
</g>
</g>
</svg>
