<?xml version="1.0" encoding="UTF-8" standalone="no"?>
<!DOCTYPE svg PUBLIC "-//W3C//DTD SVG 1.1//EN"
 "http://www.w3.org/Graphics/SVG/1.1/DTD/svg11.dtd">
<!-- Generated by graphviz version 9.0.0 (20230911.1827)
 -->
<!-- Title: D:/Note_Database/Subject/MCETA Microcontroller Experiment TA/files/HT32_STD_5xxxx_FWLib_V1.5.1_7084b/example/USBD/USB_Video/ht32_usbd_class.h Pages: 1 -->
<svg width="508pt" height="320pt"
 viewBox="0.00 0.00 507.88 320.00" xmlns="http://www.w3.org/2000/svg" xmlns:xlink="http://www.w3.org/1999/xlink">
<g id="graph0" class="graph" transform="scale(1 1) rotate(0) translate(4 316)">
<title>D:/Note_Database/Subject/MCETA Microcontroller Experiment TA/files/HT32_STD_5xxxx_FWLib_V1.5.1_7084b/example/USBD/USB_Video/ht32_usbd_class.h</title>
<!-- Node1 -->
<g id="Node000001" class="node">
<title>Node1</title>
<g id="a_Node000001"><a xlink:title="The header file of USB Device Class.">
<polygon fill="#999999" stroke="#666666" points="339.5,-312 169,-312 169,-232 339.5,-232 339.5,-312"/>
<text text-anchor="start" x="177" y="-298.5" font-family="Helvetica,sans-Serif" font-size="10.00">D:/Note_Database/Subject</text>
<text text-anchor="start" x="177" y="-286.5" font-family="Helvetica,sans-Serif" font-size="10.00">/MCETA Microcontroller</text>
<text text-anchor="start" x="177" y="-274.5" font-family="Helvetica,sans-Serif" font-size="10.00"> Experiment TA/files/HT32</text>
<text text-anchor="start" x="177" y="-262.5" font-family="Helvetica,sans-Serif" font-size="10.00">_STD_5xxxx_FWLib_V1.5.1_7084b</text>
<text text-anchor="start" x="177" y="-250.5" font-family="Helvetica,sans-Serif" font-size="10.00">/example/USBD/USB_Video/ht32</text>
<text text-anchor="middle" x="254.25" y="-238.5" font-family="Helvetica,sans-Serif" font-size="10.00">_usbd_class.h</text>
</a>
</g>
</g>
<!-- Node2 -->
<g id="Node000002" class="node">
<title>Node2</title>
<g id="a_Node000002"><a xlink:href="example_2_u_s_b_d_2_u_s_b___video_2ht32__usbd__class_8c.html" target="_top" xlink:title="The USB Device Class.">
<polygon fill="white" stroke="#666666" points="170.5,-196 0,-196 0,-116 170.5,-116 170.5,-196"/>
<text text-anchor="start" x="8" y="-182.5" font-family="Helvetica,sans-Serif" font-size="10.00">D:/Note_Database/Subject</text>
<text text-anchor="start" x="8" y="-170.5" font-family="Helvetica,sans-Serif" font-size="10.00">/MCETA Microcontroller</text>
<text text-anchor="start" x="8" y="-158.5" font-family="Helvetica,sans-Serif" font-size="10.00"> Experiment TA/files/HT32</text>
<text text-anchor="start" x="8" y="-146.5" font-family="Helvetica,sans-Serif" font-size="10.00">_STD_5xxxx_FWLib_V1.5.1_7084b</text>
<text text-anchor="start" x="8" y="-134.5" font-family="Helvetica,sans-Serif" font-size="10.00">/example/USBD/USB_Video/ht32</text>
<text text-anchor="middle" x="85.25" y="-122.5" font-family="Helvetica,sans-Serif" font-size="10.00">_usbd_class.c</text>
</a>
</g>
</g>
<!-- Node1&#45;&gt;Node2 -->
<g id="edge1_Node000001_Node000002" class="edge">
<title>Node1&#45;&gt;Node2</title>
<g id="a_edge1_Node000001_Node000002"><a xlink:title=" ">
<path fill="none" stroke="#63b8ff" d="M186.85,-225.53C172.6,-215.93 157.69,-205.86 143.8,-196.5"/>
<polygon fill="#63b8ff" stroke="#63b8ff" points="184.59,-228.23 194.84,-230.92 188.5,-222.43 184.59,-228.23"/>
</a>
</g>
</g>
<!-- Node3 -->
<g id="Node000003" class="node">
<title>Node3</title>
<g id="a_Node000003"><a xlink:href="example_2_u_s_b_d_2_u_s_b___video_2ht32__usbd__descriptor_8c.html" target="_top" xlink:title="The USB Descriptor.">
<polygon fill="white" stroke="#666666" points="301.5,-80 131,-80 131,0 301.5,0 301.5,-80"/>
<text text-anchor="start" x="139" y="-66.5" font-family="Helvetica,sans-Serif" font-size="10.00">D:/Note_Database/Subject</text>
<text text-anchor="start" x="139" y="-54.5" font-family="Helvetica,sans-Serif" font-size="10.00">/MCETA Microcontroller</text>
<text text-anchor="start" x="139" y="-42.5" font-family="Helvetica,sans-Serif" font-size="10.00"> Experiment TA/files/HT32</text>
<text text-anchor="start" x="139" y="-30.5" font-family="Helvetica,sans-Serif" font-size="10.00">_STD_5xxxx_FWLib_V1.5.1_7084b</text>
<text text-anchor="start" x="139" y="-18.5" font-family="Helvetica,sans-Serif" font-size="10.00">/example/USBD/USB_Video/ht32</text>
<text text-anchor="middle" x="216.25" y="-6.5" font-family="Helvetica,sans-Serif" font-size="10.00">_usbd_descriptor.c</text>
</a>
</g>
</g>
<!-- Node1&#45;&gt;Node3 -->
<g id="edge2_Node000001_Node000003" class="edge">
<title>Node1&#45;&gt;Node3</title>
<g id="a_edge2_Node000001_Node000003"><a xlink:title=" ">
<path fill="none" stroke="#63b8ff" d="M226.01,-221.53C222.4,-213.24 219.27,-204.54 217.25,-196 208.14,-157.51 209.16,-112.11 211.68,-80.43"/>
<polygon fill="#63b8ff" stroke="#63b8ff" points="222.75,-222.82 230.14,-230.41 229.09,-219.86 222.75,-222.82"/>
</a>
</g>
</g>
<!-- Node4 -->
<g id="Node000004" class="node">
<title>Node4</title>
<g id="a_Node000004"><a xlink:href="example_2_u_s_b_d_2_u_s_b___video_2ht32__usbd__descriptor_8h.html" target="_top" xlink:title="The USB descriptor.">
<polygon fill="white" stroke="#666666" points="396.5,-196 226,-196 226,-116 396.5,-116 396.5,-196"/>
<text text-anchor="start" x="234" y="-182.5" font-family="Helvetica,sans-Serif" font-size="10.00">D:/Note_Database/Subject</text>
<text text-anchor="start" x="234" y="-170.5" font-family="Helvetica,sans-Serif" font-size="10.00">/MCETA Microcontroller</text>
<text text-anchor="start" x="234" y="-158.5" font-family="Helvetica,sans-Serif" font-size="10.00"> Experiment TA/files/HT32</text>
<text text-anchor="start" x="234" y="-146.5" font-family="Helvetica,sans-Serif" font-size="10.00">_STD_5xxxx_FWLib_V1.5.1_7084b</text>
<text text-anchor="start" x="234" y="-134.5" font-family="Helvetica,sans-Serif" font-size="10.00">/example/USBD/USB_Video/ht32</text>
<text text-anchor="middle" x="311.25" y="-122.5" font-family="Helvetica,sans-Serif" font-size="10.00">_usbd_descriptor.h</text>
</a>
</g>
</g>
<!-- Node1&#45;&gt;Node4 -->
<g id="edge3_Node000001_Node000004" class="edge">
<title>Node1&#45;&gt;Node4</title>
<g id="a_edge3_Node000001_Node000004"><a xlink:title=" ">
<path fill="none" stroke="#63b8ff" d="M278.94,-221.61C283.18,-213.15 287.52,-204.46 291.6,-196.3"/>
<polygon fill="#63b8ff" stroke="#63b8ff" points="275.88,-219.9 274.54,-230.41 282.15,-223.03 275.88,-219.9"/>
</a>
</g>
</g>
<!-- Node5 -->
<g id="Node000005" class="node">
<title>Node5</title>
<g id="a_Node000005"><a xlink:href="example_2_u_s_b_d_2_u_s_b___video_2main_8c.html" target="_top" xlink:title="The main program of USB Device UVC example.">
<polygon fill="white" stroke="#666666" points="499.88,-74 328.62,-74 328.62,-6 499.88,-6 499.88,-74"/>
<text text-anchor="start" x="336.62" y="-60.5" font-family="Helvetica,sans-Serif" font-size="10.00">D:/Note_Database/Subject</text>
<text text-anchor="start" x="336.62" y="-48.5" font-family="Helvetica,sans-Serif" font-size="10.00">/MCETA Microcontroller</text>
<text text-anchor="start" x="336.62" y="-36.5" font-family="Helvetica,sans-Serif" font-size="10.00"> Experiment TA/files/HT32</text>
<text text-anchor="start" x="336.62" y="-24.5" font-family="Helvetica,sans-Serif" font-size="10.00">_STD_5xxxx_FWLib_V1.5.1_7084b</text>
<text text-anchor="middle" x="414.25" y="-12.5" font-family="Helvetica,sans-Serif" font-size="10.00">/example/USBD/USB_Video/main.c</text>
</a>
</g>
</g>
<!-- Node1&#45;&gt;Node5 -->
<g id="edge6_Node000001_Node000005" class="edge">
<title>Node1&#45;&gt;Node5</title>
<g id="a_edge6_Node000001_Node000005"><a xlink:title=" ">
<path fill="none" stroke="#63b8ff" d="M350.01,-242.09C371.55,-231.08 391.95,-216.13 405.25,-196 429.17,-159.79 426.57,-107.82 421.34,-74.23"/>
<polygon fill="#63b8ff" stroke="#63b8ff" points="348.58,-238.89 341.08,-246.37 351.61,-245.2 348.58,-238.89"/>
</a>
</g>
</g>
<!-- Node4&#45;&gt;Node3 -->
<g id="edge4_Node000004_Node000003" class="edge">
<title>Node4&#45;&gt;Node3</title>
<g id="a_edge4_Node000004_Node000003"><a xlink:title=" ">
<path fill="none" stroke="#63b8ff" d="M271.25,-107C263.84,-98.1 256.17,-88.91 249,-80.3"/>
<polygon fill="#63b8ff" stroke="#63b8ff" points="268.5,-109.16 277.59,-114.6 273.87,-104.68 268.5,-109.16"/>
</a>
</g>
</g>
<!-- Node4&#45;&gt;Node5 -->
<g id="edge5_Node000004_Node000005" class="edge">
<title>Node4&#45;&gt;Node5</title>
<g id="a_edge5_Node000004_Node000005"><a xlink:title=" ">
<path fill="none" stroke="#63b8ff" d="M354.28,-107.37C364.35,-96.23 374.86,-84.59 384.22,-74.23"/>
<polygon fill="#63b8ff" stroke="#63b8ff" points="351.82,-104.88 347.71,-114.64 357.01,-109.57 351.82,-104.88"/>
</a>
</g>
</g>
</g>
</svg>
