<?xml version="1.0" encoding="UTF-8" standalone="no"?>
<!DOCTYPE svg PUBLIC "-//W3C//DTD SVG 1.1//EN"
 "http://www.w3.org/Graphics/SVG/1.1/DTD/svg11.dtd">
<!-- Generated by graphviz version 9.0.0 (20230911.1827)
 -->
<!-- Title: D:/Note_Database/Subject/MCETA Microcontroller Experiment TA/files/HT32_STD_5xxxx_FWLib_V1.5.1_7084b/example/USBD/Mass_Storage/ht32_usbd_class.c Pages: 1 -->
<svg width="610pt" height="256pt"
 viewBox="0.00 0.00 609.50 256.00" xmlns="http://www.w3.org/2000/svg" xmlns:xlink="http://www.w3.org/1999/xlink">
<g id="graph0" class="graph" transform="scale(1 1) rotate(0) translate(4 252)">
<title>D:/Note_Database/Subject/MCETA Microcontroller Experiment TA/files/HT32_STD_5xxxx_FWLib_V1.5.1_7084b/example/USBD/Mass_Storage/ht32_usbd_class.c</title>
<!-- Node1 -->
<g id="Node000001" class="node">
<title>Node1</title>
<g id="a_Node000001"><a xlink:title="The USB Device Class.">
<polygon fill="#999999" stroke="#666666" points="377.25,-248 203.75,-248 203.75,-168 377.25,-168 377.25,-248"/>
<text text-anchor="start" x="211.75" y="-234.5" font-family="Helvetica,sans-Serif" font-size="10.00">D:/Note_Database/Subject</text>
<text text-anchor="start" x="211.75" y="-222.5" font-family="Helvetica,sans-Serif" font-size="10.00">/MCETA Microcontroller</text>
<text text-anchor="start" x="211.75" y="-210.5" font-family="Helvetica,sans-Serif" font-size="10.00"> Experiment TA/files/HT32</text>
<text text-anchor="start" x="211.75" y="-198.5" font-family="Helvetica,sans-Serif" font-size="10.00">_STD_5xxxx_FWLib_V1.5.1_7084b</text>
<text text-anchor="start" x="211.75" y="-186.5" font-family="Helvetica,sans-Serif" font-size="10.00">/example/USBD/Mass_Storage/ht32</text>
<text text-anchor="middle" x="290.5" y="-174.5" font-family="Helvetica,sans-Serif" font-size="10.00">_usbd_class.c</text>
</a>
</g>
</g>
<!-- Node2 -->
<g id="Node000002" class="node">
<title>Node2</title>
<g id="a_Node000002"><a xlink:href="ht32_8h.html" target="_top" xlink:title="The API between application and HT32FXXXX Firmware Library.">
<polygon fill="white" stroke="#666666" points="187,-132 144,-132 144,-112 187,-112 187,-132"/>
<text text-anchor="middle" x="165.5" y="-118.5" font-family="Helvetica,sans-Serif" font-size="10.00">ht32.h</text>
</a>
</g>
</g>
<!-- Node1&#45;&gt;Node2 -->
<g id="edge1_Node000001_Node000002" class="edge">
<title>Node1&#45;&gt;Node2</title>
<g id="a_edge1_Node000001_Node000002"><a xlink:title=" ">
<path fill="none" stroke="#63b8ff" d="M232.03,-167.71C216.74,-157.43 201.12,-146.94 188.87,-138.7"/>
<polygon fill="#63b8ff" stroke="#63b8ff" points="190.96,-135.89 180.7,-133.22 187.05,-141.7 190.96,-135.89"/>
</a>
</g>
</g>
<!-- Node7 -->
<g id="Node000007" class="node">
<title>Node7</title>
<g id="a_Node000007"><a xlink:href="ht32__board_8h.html" target="_top" xlink:title="HT32 target board definition file.">
<polygon fill="white" stroke="#666666" points="318.62,-76 246.38,-76 246.38,-56 318.62,-56 318.62,-76"/>
<text text-anchor="middle" x="282.5" y="-62.5" font-family="Helvetica,sans-Serif" font-size="10.00">ht32_board.h</text>
</a>
</g>
</g>
<!-- Node1&#45;&gt;Node7 -->
<g id="edge6_Node000001_Node000007" class="edge">
<title>Node1&#45;&gt;Node7</title>
<g id="a_edge6_Node000001_Node000007"><a xlink:title=" ">
<path fill="none" stroke="#63b8ff" d="M253.88,-167.68C245.96,-156.89 238.7,-144.65 234.5,-132 231.7,-123.56 230.97,-120.16 234.5,-112 239.47,-100.52 248.97,-90.63 258.22,-83.07"/>
<polygon fill="#63b8ff" stroke="#63b8ff" points="260.11,-86.03 265.99,-77.22 255.9,-80.43 260.11,-86.03"/>
</a>
</g>
</g>
<!-- Node8 -->
<g id="Node000008" class="node">
<title>Node8</title>
<g id="a_Node000008"><a xlink:href="ht32__usbd__core_8h.html" target="_top" xlink:title="The header file of standard protocol related function for HT32 USB Device Library.">
<polygon fill="white" stroke="#666666" points="337.12,-132 243.88,-132 243.88,-112 337.12,-112 337.12,-132"/>
<text text-anchor="middle" x="290.5" y="-118.5" font-family="Helvetica,sans-Serif" font-size="10.00">ht32_usbd_core.h</text>
</a>
</g>
</g>
<!-- Node1&#45;&gt;Node8 -->
<g id="edge8_Node000001_Node000008" class="edge">
<title>Node1&#45;&gt;Node8</title>
<g id="a_edge8_Node000001_Node000008"><a xlink:title=" ">
<path fill="none" stroke="#63b8ff" d="M290.5,-167.95C290.5,-159.6 290.5,-151.09 290.5,-143.76"/>
<polygon fill="#63b8ff" stroke="#63b8ff" points="294,-143.95 290.5,-133.95 287,-143.95 294,-143.95"/>
</a>
</g>
</g>
<!-- Node9 -->
<g id="Node000009" class="node">
<title>Node9</title>
<g id="a_Node000009"><a xlink:href="example_2_u_s_b_d_2_mass___storage_2ht32__usbd__class_8h.html" target="_top" xlink:title="The header file of USB Device Class.">
<polygon fill="white" stroke="#666666" points="453.38,-132 355.62,-132 355.62,-112 453.38,-112 453.38,-132"/>
<text text-anchor="middle" x="404.5" y="-118.5" font-family="Helvetica,sans-Serif" font-size="10.00">ht32_usbd_class.h</text>
</a>
</g>
</g>
<!-- Node1&#45;&gt;Node9 -->
<g id="edge9_Node000001_Node000009" class="edge">
<title>Node1&#45;&gt;Node9</title>
<g id="a_edge9_Node000001_Node000009"><a xlink:title=" ">
<path fill="none" stroke="#63b8ff" d="M343.83,-167.71C357.49,-157.64 371.44,-147.36 382.51,-139.2"/>
<polygon fill="#63b8ff" stroke="#63b8ff" points="384.59,-142.02 390.56,-133.27 380.44,-136.38 384.59,-142.02"/>
</a>
</g>
</g>
<!-- Node10 -->
<g id="Node000010" class="node">
<title>Node10</title>
<g id="a_Node000010"><a xlink:href="_mass___storage_2usb__bulk__only__transport_8h.html" target="_top" xlink:title="The header file of Bulk Only Transport.">
<polygon fill="white" stroke="#666666" points="601.5,-132 471.5,-132 471.5,-112 601.5,-112 601.5,-132"/>
<text text-anchor="middle" x="536.5" y="-118.5" font-family="Helvetica,sans-Serif" font-size="10.00">usb_bulk_only_transport.h</text>
</a>
</g>
</g>
<!-- Node1&#45;&gt;Node10 -->
<g id="edge10_Node000001_Node000010" class="edge">
<title>Node1&#45;&gt;Node10</title>
<g id="a_edge10_Node000001_Node000010"><a xlink:title=" ">
<path fill="none" stroke="#63b8ff" d="M377.58,-177.27C418.75,-163.21 465.81,-147.14 497.97,-136.16"/>
<polygon fill="#63b8ff" stroke="#63b8ff" points="498.92,-139.53 507.25,-132.99 496.66,-132.91 498.92,-139.53"/>
</a>
</g>
</g>
<!-- Node3 -->
<g id="Node000003" class="node">
<title>Node3</title>
<g id="a_Node000003"><a xlink:href="ht32f5xxxx__01_8h.html" target="_top" xlink:title="CMSIS Cortex&#45;M0+ Device Peripheral Access Layer Header File.">
<polygon fill="white" stroke="#666666" points="209.12,-76 121.88,-76 121.88,-56 209.12,-56 209.12,-76"/>
<text text-anchor="middle" x="165.5" y="-62.5" font-family="Helvetica,sans-Serif" font-size="10.00">ht32f5xxxx_01.h</text>
</a>
</g>
</g>
<!-- Node2&#45;&gt;Node3 -->
<g id="edge2_Node000002_Node000003" class="edge">
<title>Node2&#45;&gt;Node3</title>
<g id="a_edge2_Node000002_Node000003"><a xlink:title=" ">
<path fill="none" stroke="#63b8ff" d="M165.5,-111.59C165.5,-105.01 165.5,-95.96 165.5,-87.73"/>
<polygon fill="#63b8ff" stroke="#63b8ff" points="169,-87.81 165.5,-77.81 162,-87.81 169,-87.81"/>
</a>
</g>
</g>
<!-- Node4 -->
<g id="Node000004" class="node">
<title>Node4</title>
<g id="a_Node000004"><a xlink:href="ht32__config_8h.html" target="_top" xlink:title="Configuration file of HT32.">
<polygon fill="white" stroke="#666666" points="319.38,-20 245.62,-20 245.62,0 319.38,0 319.38,-20"/>
<text text-anchor="middle" x="282.5" y="-6.5" font-family="Helvetica,sans-Serif" font-size="10.00">ht32_config.h</text>
</a>
</g>
</g>
<!-- Node3&#45;&gt;Node4 -->
<g id="edge3_Node000003_Node000004" class="edge">
<title>Node3&#45;&gt;Node4</title>
<g id="a_edge3_Node000003_Node000004"><a xlink:title=" ">
<path fill="none" stroke="#63b8ff" d="M185.88,-55.59C204.06,-47.21 230.93,-34.8 251.72,-25.21"/>
<polygon fill="#63b8ff" stroke="#63b8ff" points="252.97,-28.48 260.59,-21.11 250.04,-22.13 252.97,-28.48"/>
</a>
</g>
</g>
<!-- Node5 -->
<g id="Node000005" class="node">
<title>Node5</title>
<g id="a_Node000005"><a xlink:title=" ">
<polygon fill="#e0e0e0" stroke="#999999" points="85,-20 0,-20 0,0 85,0 85,-20"/>
<text text-anchor="middle" x="42.5" y="-6.5" font-family="Helvetica,sans-Serif" font-size="10.00">core_cm0plus.h</text>
</a>
</g>
</g>
<!-- Node3&#45;&gt;Node5 -->
<g id="edge4_Node000003_Node000005" class="edge">
<title>Node3&#45;&gt;Node5</title>
<g id="a_edge4_Node000003_Node000005"><a xlink:title=" ">
<path fill="none" stroke="#63b8ff" d="M144.08,-55.59C124.88,-47.17 96.46,-34.69 74.56,-25.07"/>
<polygon fill="#63b8ff" stroke="#63b8ff" points="76.04,-21.9 65.48,-21.09 73.23,-28.31 76.04,-21.9"/>
</a>
</g>
</g>
<!-- Node6 -->
<g id="Node000006" class="node">
<title>Node6</title>
<g id="a_Node000006"><a xlink:href="system__ht32f5xxxx__01_8h.html" target="_top" xlink:title="CMSIS Cortex&#45;M0+ Device Peripheral Access Layer System Header File for the Holtek HT32F5xxxx Device S...">
<polygon fill="white" stroke="#666666" points="227.88,-20 103.12,-20 103.12,0 227.88,0 227.88,-20"/>
<text text-anchor="middle" x="165.5" y="-6.5" font-family="Helvetica,sans-Serif" font-size="10.00">system_ht32f5xxxx_01.h</text>
</a>
</g>
</g>
<!-- Node3&#45;&gt;Node6 -->
<g id="edge5_Node000003_Node000006" class="edge">
<title>Node3&#45;&gt;Node6</title>
<g id="a_edge5_Node000003_Node000006"><a xlink:title=" ">
<path fill="none" stroke="#63b8ff" d="M165.5,-55.59C165.5,-49.01 165.5,-39.96 165.5,-31.73"/>
<polygon fill="#63b8ff" stroke="#63b8ff" points="169,-31.81 165.5,-21.81 162,-31.81 169,-31.81"/>
</a>
</g>
</g>
<!-- Node7&#45;&gt;Node4 -->
<g id="edge7_Node000007_Node000004" class="edge">
<title>Node7&#45;&gt;Node4</title>
<g id="a_edge7_Node000007_Node000004"><a xlink:title=" ">
<path fill="none" stroke="#63b8ff" d="M282.5,-55.59C282.5,-49.01 282.5,-39.96 282.5,-31.73"/>
<polygon fill="#63b8ff" stroke="#63b8ff" points="286,-31.81 282.5,-21.81 279,-31.81 286,-31.81"/>
</a>
</g>
</g>
<!-- Node10&#45;&gt;Node7 -->
<g id="edge11_Node000010_Node000007" class="edge">
<title>Node10&#45;&gt;Node7</title>
<g id="a_edge11_Node000010_Node000007"><a xlink:title=" ">
<path fill="none" stroke="#63b8ff" d="M491.97,-111.53C446.49,-101.86 376.15,-86.91 329.72,-77.04"/>
<polygon fill="#63b8ff" stroke="#63b8ff" points="330.74,-73.68 320.23,-75.02 329.29,-80.53 330.74,-73.68"/>
</a>
</g>
</g>
</g>
</svg>
