<?xml version="1.0" encoding="UTF-8" standalone="no"?>
<!DOCTYPE svg PUBLIC "-//W3C//DTD SVG 1.1//EN"
 "http://www.w3.org/Graphics/SVG/1.1/DTD/svg11.dtd">
<!-- Generated by graphviz version 9.0.0 (20230911.1827)
 -->
<!-- Title: D:/Note_Database/Subject/MCETA Microcontroller Experiment TA/files/HT32_STD_5xxxx_FWLib_V1.5.1_7084b/example/USBD/HID_Keyboard_Mass_Storage/main.c Pages: 1 -->
<svg width="643pt" height="436pt"
 viewBox="0.00 0.00 642.55 436.00" xmlns="http://www.w3.org/2000/svg" xmlns:xlink="http://www.w3.org/1999/xlink">
<g id="graph0" class="graph" transform="scale(1 1) rotate(0) translate(4 432)">
<title>D:/Note_Database/Subject/MCETA Microcontroller Experiment TA/files/HT32_STD_5xxxx_FWLib_V1.5.1_7084b/example/USBD/HID_Keyboard_Mass_Storage/main.c</title>
<!-- Node1 -->
<g id="Node000001" class="node">
<title>Node1</title>
<g id="a_Node000001"><a xlink:title="The main program of USB Device HID Keyboard + Mass Storage example.">
<polygon fill="#999999" stroke="#666666" points="460.12,-428 279.88,-428 279.88,-348 460.12,-348 460.12,-428"/>
<text text-anchor="start" x="287.88" y="-414.5" font-family="Helvetica,sans-Serif" font-size="10.00">D:/Note_Database/Subject</text>
<text text-anchor="start" x="287.88" y="-402.5" font-family="Helvetica,sans-Serif" font-size="10.00">/MCETA Microcontroller</text>
<text text-anchor="start" x="287.88" y="-390.5" font-family="Helvetica,sans-Serif" font-size="10.00"> Experiment TA/files/HT32</text>
<text text-anchor="start" x="287.88" y="-378.5" font-family="Helvetica,sans-Serif" font-size="10.00">_STD_5xxxx_FWLib_V1.5.1_7084b</text>
<text text-anchor="start" x="287.88" y="-366.5" font-family="Helvetica,sans-Serif" font-size="10.00">/example/USBD/HID_Keyboard_Mass</text>
<text text-anchor="middle" x="370" y="-354.5" font-family="Helvetica,sans-Serif" font-size="10.00">_Storage/main.c</text>
</a>
</g>
</g>
<!-- Node2 -->
<g id="Node000002" class="node">
<title>Node2</title>
<g id="a_Node000002"><a xlink:href="ht32_8h.html" target="_top" xlink:title="The API between application and HT32FXXXX Firmware Library.">
<polygon fill="white" stroke="#666666" points="227.5,-132 184.5,-132 184.5,-112 227.5,-112 227.5,-132"/>
<text text-anchor="middle" x="206" y="-118.5" font-family="Helvetica,sans-Serif" font-size="10.00">ht32.h</text>
</a>
</g>
</g>
<!-- Node1&#45;&gt;Node2 -->
<g id="edge1_Node000001_Node000002" class="edge">
<title>Node1&#45;&gt;Node2</title>
<g id="a_edge1_Node000001_Node000002"><a xlink:title=" ">
<path fill="none" stroke="#63b8ff" d="M460.45,-382.55C511,-374.89 570.23,-356.21 603,-312 641.11,-260.58 647.65,-215.73 605,-168 580.75,-140.86 330.45,-128.05 239.12,-124.25"/>
<polygon fill="#63b8ff" stroke="#63b8ff" points="239.46,-120.76 229.33,-123.86 239.18,-127.76 239.46,-120.76"/>
</a>
</g>
</g>
<!-- Node7 -->
<g id="Node000007" class="node">
<title>Node7</title>
<g id="a_Node000007"><a xlink:href="ht32__board_8h.html" target="_top" xlink:title="HT32 target board definition file.">
<polygon fill="white" stroke="#666666" points="125.12,-76 52.88,-76 52.88,-56 125.12,-56 125.12,-76"/>
<text text-anchor="middle" x="89" y="-62.5" font-family="Helvetica,sans-Serif" font-size="10.00">ht32_board.h</text>
</a>
</g>
</g>
<!-- Node1&#45;&gt;Node7 -->
<g id="edge6_Node000001_Node000007" class="edge">
<title>Node1&#45;&gt;Node7</title>
<g id="a_edge6_Node000001_Node000007"><a xlink:title=" ">
<path fill="none" stroke="#63b8ff" d="M279.49,-369.95C169.95,-346.67 0,-300.91 0,-241 0,-241 0,-241 0,-177 0,-146.64 2.64,-136.18 21,-112 30.52,-99.46 44.61,-89.31 57.5,-81.86"/>
<polygon fill="#63b8ff" stroke="#63b8ff" points="59.01,-85.02 66.14,-77.18 55.68,-78.87 59.01,-85.02"/>
</a>
</g>
</g>
<!-- Node8 -->
<g id="Node000008" class="node">
<title>Node8</title>
<g id="a_Node000008"><a xlink:href="ht32__usbd__core_8h.html" target="_top" xlink:title="The header file of standard protocol related function for HT32 USB Device Library.">
<polygon fill="white" stroke="#666666" points="437.62,-188 344.38,-188 344.38,-168 437.62,-168 437.62,-188"/>
<text text-anchor="middle" x="391" y="-174.5" font-family="Helvetica,sans-Serif" font-size="10.00">ht32_usbd_core.h</text>
</a>
</g>
</g>
<!-- Node1&#45;&gt;Node8 -->
<g id="edge8_Node000001_Node000008" class="edge">
<title>Node1&#45;&gt;Node8</title>
<g id="a_edge8_Node000001_Node000008"><a xlink:title=" ">
<path fill="none" stroke="#63b8ff" d="M358.08,-347.65C355.16,-336.26 352.46,-323.73 351,-312 345.8,-270.32 366.2,-223.77 379.77,-198.29"/>
<polygon fill="#63b8ff" stroke="#63b8ff" points="382.71,-200.2 384.5,-189.76 376.59,-196.8 382.71,-200.2"/>
</a>
</g>
</g>
<!-- Node9 -->
<g id="Node000009" class="node">
<title>Node9</title>
<g id="a_Node000009"><a xlink:href="example_2_u_s_b_d_2_h_i_d___keyboard___mass___storage_2ht32__usbd__class_8h.html" target="_top" xlink:title="The header file of USB Device Class.">
<polygon fill="white" stroke="#666666" points="457.88,-312 360.12,-312 360.12,-292 457.88,-292 457.88,-312"/>
<text text-anchor="middle" x="409" y="-298.5" font-family="Helvetica,sans-Serif" font-size="10.00">ht32_usbd_class.h</text>
</a>
</g>
</g>
<!-- Node1&#45;&gt;Node9 -->
<g id="edge9_Node000001_Node000009" class="edge">
<title>Node1&#45;&gt;Node9</title>
<g id="a_edge9_Node000001_Node000009"><a xlink:title=" ">
<path fill="none" stroke="#63b8ff" d="M388.13,-347.95C392.2,-339.19 396.35,-330.25 399.86,-322.68"/>
<polygon fill="#63b8ff" stroke="#63b8ff" points="402.94,-324.35 403.98,-313.81 396.6,-321.41 402.94,-324.35"/>
</a>
</g>
</g>
<!-- Node10 -->
<g id="Node000010" class="node">
<title>Node10</title>
<g id="a_Node000010"><a xlink:href="example_2_u_s_b_d_2_h_i_d___keyboard___mass___storage_2ht32__usbd__descriptor_8h.html" target="_top" xlink:title="The USB descriptor.">
<polygon fill="white" stroke="#666666" points="593.62,-312 476.38,-312 476.38,-292 593.62,-292 593.62,-312"/>
<text text-anchor="middle" x="535" y="-298.5" font-family="Helvetica,sans-Serif" font-size="10.00">ht32_usbd_descriptor.h</text>
</a>
</g>
</g>
<!-- Node1&#45;&gt;Node10 -->
<g id="edge10_Node000001_Node000010" class="edge">
<title>Node1&#45;&gt;Node10</title>
<g id="a_edge10_Node000001_Node000010"><a xlink:title=" ">
<path fill="none" stroke="#63b8ff" d="M447.19,-347.71C468.38,-336.92 490.04,-325.89 506.54,-317.49"/>
<polygon fill="#63b8ff" stroke="#63b8ff" points="507.92,-320.71 515.24,-313.06 504.74,-314.48 507.92,-320.71"/>
</a>
</g>
</g>
<!-- Node11 -->
<g id="Node000011" class="node">
<title>Node11</title>
<g id="a_Node000011"><a xlink:href="_u_s_b_d_2_h_i_d___keyboard___mass___storage_2__ht32__project__source_8h.html" target="_top" xlink:title="The project source code setting.">
<polygon fill="white" stroke="#666666" points="295.62,-312 178.38,-312 178.38,-292 295.62,-292 295.62,-312"/>
<text text-anchor="middle" x="237" y="-298.5" font-family="Helvetica,sans-Serif" font-size="10.00">_ht32_project_source.h</text>
</a>
</g>
</g>
<!-- Node1&#45;&gt;Node11 -->
<g id="edge11_Node000001_Node000011" class="edge">
<title>Node1&#45;&gt;Node11</title>
<g id="a_edge11_Node000001_Node000011"><a xlink:title=" ">
<path fill="none" stroke="#63b8ff" d="M307.78,-347.71C291.35,-337.33 274.57,-326.73 261.48,-318.46"/>
<polygon fill="#63b8ff" stroke="#63b8ff" points="263.44,-315.56 253.12,-313.18 259.71,-321.48 263.44,-315.56"/>
</a>
</g>
</g>
<!-- Node3 -->
<g id="Node000003" class="node">
<title>Node3</title>
<g id="a_Node000003"><a xlink:href="ht32f5xxxx__01_8h.html" target="_top" xlink:title="CMSIS Cortex&#45;M0+ Device Peripheral Access Layer Header File.">
<polygon fill="white" stroke="#666666" points="249.62,-76 162.38,-76 162.38,-56 249.62,-56 249.62,-76"/>
<text text-anchor="middle" x="206" y="-62.5" font-family="Helvetica,sans-Serif" font-size="10.00">ht32f5xxxx_01.h</text>
</a>
</g>
</g>
<!-- Node2&#45;&gt;Node3 -->
<g id="edge2_Node000002_Node000003" class="edge">
<title>Node2&#45;&gt;Node3</title>
<g id="a_edge2_Node000002_Node000003"><a xlink:title=" ">
<path fill="none" stroke="#63b8ff" d="M206,-111.59C206,-105.01 206,-95.96 206,-87.73"/>
<polygon fill="#63b8ff" stroke="#63b8ff" points="209.5,-87.81 206,-77.81 202.5,-87.81 209.5,-87.81"/>
</a>
</g>
</g>
<!-- Node4 -->
<g id="Node000004" class="node">
<title>Node4</title>
<g id="a_Node000004"><a xlink:href="ht32__config_8h.html" target="_top" xlink:title="Configuration file of HT32.">
<polygon fill="white" stroke="#666666" points="125.88,-20 52.12,-20 52.12,0 125.88,0 125.88,-20"/>
<text text-anchor="middle" x="89" y="-6.5" font-family="Helvetica,sans-Serif" font-size="10.00">ht32_config.h</text>
</a>
</g>
</g>
<!-- Node3&#45;&gt;Node4 -->
<g id="edge3_Node000003_Node000004" class="edge">
<title>Node3&#45;&gt;Node4</title>
<g id="a_edge3_Node000003_Node000004"><a xlink:title=" ">
<path fill="none" stroke="#63b8ff" d="M185.62,-55.59C167.44,-47.21 140.57,-34.8 119.78,-25.21"/>
<polygon fill="#63b8ff" stroke="#63b8ff" points="121.46,-22.13 110.91,-21.11 118.53,-28.48 121.46,-22.13"/>
</a>
</g>
</g>
<!-- Node5 -->
<g id="Node000005" class="node">
<title>Node5</title>
<g id="a_Node000005"><a xlink:title=" ">
<polygon fill="#e0e0e0" stroke="#999999" points="371.5,-20 286.5,-20 286.5,0 371.5,0 371.5,-20"/>
<text text-anchor="middle" x="329" y="-6.5" font-family="Helvetica,sans-Serif" font-size="10.00">core_cm0plus.h</text>
</a>
</g>
</g>
<!-- Node3&#45;&gt;Node5 -->
<g id="edge4_Node000003_Node000005" class="edge">
<title>Node3&#45;&gt;Node5</title>
<g id="a_edge4_Node000003_Node000005"><a xlink:title=" ">
<path fill="none" stroke="#63b8ff" d="M227.42,-55.59C246.62,-47.17 275.04,-34.69 296.94,-25.07"/>
<polygon fill="#63b8ff" stroke="#63b8ff" points="298.27,-28.31 306.02,-21.09 295.46,-21.9 298.27,-28.31"/>
</a>
</g>
</g>
<!-- Node6 -->
<g id="Node000006" class="node">
<title>Node6</title>
<g id="a_Node000006"><a xlink:href="system__ht32f5xxxx__01_8h.html" target="_top" xlink:title="CMSIS Cortex&#45;M0+ Device Peripheral Access Layer System Header File for the Holtek HT32F5xxxx Device S...">
<polygon fill="white" stroke="#666666" points="268.38,-20 143.62,-20 143.62,0 268.38,0 268.38,-20"/>
<text text-anchor="middle" x="206" y="-6.5" font-family="Helvetica,sans-Serif" font-size="10.00">system_ht32f5xxxx_01.h</text>
</a>
</g>
</g>
<!-- Node3&#45;&gt;Node6 -->
<g id="edge5_Node000003_Node000006" class="edge">
<title>Node3&#45;&gt;Node6</title>
<g id="a_edge5_Node000003_Node000006"><a xlink:title=" ">
<path fill="none" stroke="#63b8ff" d="M206,-55.59C206,-49.01 206,-39.96 206,-31.73"/>
<polygon fill="#63b8ff" stroke="#63b8ff" points="209.5,-31.81 206,-21.81 202.5,-31.81 209.5,-31.81"/>
</a>
</g>
</g>
<!-- Node7&#45;&gt;Node4 -->
<g id="edge7_Node000007_Node000004" class="edge">
<title>Node7&#45;&gt;Node4</title>
<g id="a_edge7_Node000007_Node000004"><a xlink:title=" ">
<path fill="none" stroke="#63b8ff" d="M89,-55.59C89,-49.01 89,-39.96 89,-31.73"/>
<polygon fill="#63b8ff" stroke="#63b8ff" points="92.5,-31.81 89,-21.81 85.5,-31.81 92.5,-31.81"/>
</a>
</g>
</g>
<!-- Node12 -->
<g id="Node000012" class="node">
<title>Node12</title>
<g id="a_Node000012"><a xlink:href="_h_i_d___keyboard___mass___storage_2_src___mass_storage_2ram__disk_8c.html" target="_top" xlink:title="The RAM Disk related function.">
<polygon fill="white" stroke="#666666" points="156.75,-256 43.25,-256 43.25,-224 156.75,-224 156.75,-256"/>
<text text-anchor="start" x="51.25" y="-242.5" font-family="Helvetica,sans-Serif" font-size="10.00">Src_MassStorage\ram</text>
<text text-anchor="middle" x="100" y="-230.5" font-family="Helvetica,sans-Serif" font-size="10.00">_disk.c</text>
</a>
</g>
</g>
<!-- Node11&#45;&gt;Node12 -->
<g id="edge12_Node000011_Node000012" class="edge">
<title>Node11&#45;&gt;Node12</title>
<g id="a_edge12_Node000011_Node000012"><a xlink:title=" ">
<path fill="none" stroke="#63b8ff" d="M215.59,-291.62C196.99,-283.48 169.42,-271.4 145.86,-261.09"/>
<polygon fill="#63b8ff" stroke="#63b8ff" points="147.32,-257.9 136.76,-257.1 144.51,-264.32 147.32,-257.9"/>
</a>
</g>
</g>
<!-- Node15 -->
<g id="Node000015" class="node">
<title>Node15</title>
<g id="a_Node000015"><a xlink:href="_h_i_d___keyboard___mass___storage_2_src___mass_storage_2usb__bulk__only__transport_8c.html" target="_top" xlink:title="The Bulk Only Transport (BOT).">
<polygon fill="white" stroke="#666666" points="293.12,-256 178.88,-256 178.88,-224 293.12,-224 293.12,-256"/>
<text text-anchor="start" x="186.88" y="-242.5" font-family="Helvetica,sans-Serif" font-size="10.00">Src_MassStorage\usb</text>
<text text-anchor="middle" x="236" y="-230.5" font-family="Helvetica,sans-Serif" font-size="10.00">_bulk_only_transport.c</text>
</a>
</g>
</g>
<!-- Node11&#45;&gt;Node15 -->
<g id="edge17_Node000011_Node000015" class="edge">
<title>Node11&#45;&gt;Node15</title>
<g id="a_edge17_Node000011_Node000015"><a xlink:title=" ">
<path fill="none" stroke="#63b8ff" d="M236.84,-291.62C236.73,-285.1 236.58,-276.05 236.44,-267.4"/>
<polygon fill="#63b8ff" stroke="#63b8ff" points="239.94,-267.59 236.28,-257.65 232.94,-267.71 239.94,-267.59"/>
</a>
</g>
</g>
<!-- Node17 -->
<g id="Node000017" class="node">
<title>Node17</title>
<g id="a_Node000017"><a xlink:href="_h_i_d___keyboard___mass___storage_2_src___mass_storage_2usb__scsi__block__command_8c.html" target="_top" xlink:title="The SCSI Block Command (SBC&#45;3 &amp; SPC&#45;4).">
<polygon fill="white" stroke="#666666" points="505,-256 381,-256 381,-224 505,-224 505,-256"/>
<text text-anchor="start" x="389" y="-242.5" font-family="Helvetica,sans-Serif" font-size="10.00">Src_MassStorage\usb</text>
<text text-anchor="middle" x="443" y="-230.5" font-family="Helvetica,sans-Serif" font-size="10.00">_scsi_block_command.c</text>
</a>
</g>
</g>
<!-- Node11&#45;&gt;Node17 -->
<g id="edge23_Node000011_Node000017" class="edge">
<title>Node11&#45;&gt;Node17</title>
<g id="a_edge23_Node000011_Node000017"><a xlink:title=" ">
<path fill="none" stroke="#63b8ff" d="M269.19,-291.62C298.41,-283.11 342.38,-270.31 378.79,-259.7"/>
<polygon fill="#63b8ff" stroke="#63b8ff" points="379.74,-263.07 388.36,-256.91 377.78,-256.35 379.74,-263.07"/>
</a>
</g>
</g>
<!-- Node13 -->
<g id="Node000013" class="node">
<title>Node13</title>
<g id="a_Node000013"><a xlink:href="_h_i_d___keyboard___mass___storage_2_src___mass_storage_2ram__disk_8h.html" target="_top" xlink:title="The header file of RAM Disk.">
<polygon fill="white" stroke="#666666" points="130,-188 66,-188 66,-168 130,-168 130,-188"/>
<text text-anchor="middle" x="98" y="-174.5" font-family="Helvetica,sans-Serif" font-size="10.00">ram_disk.h</text>
</a>
</g>
</g>
<!-- Node12&#45;&gt;Node13 -->
<g id="edge13_Node000012_Node000013" class="edge">
<title>Node12&#45;&gt;Node13</title>
<g id="a_edge13_Node000012_Node000013"><a xlink:title=" ">
<path fill="none" stroke="#63b8ff" d="M99.48,-223.55C99.24,-216.34 98.96,-207.66 98.7,-199.88"/>
<polygon fill="#63b8ff" stroke="#63b8ff" points="102.2,-199.8 98.36,-189.92 95.2,-200.03 102.2,-199.8"/>
</a>
</g>
</g>
<!-- Node13&#45;&gt;Node2 -->
<g id="edge14_Node000013_Node000002" class="edge">
<title>Node13&#45;&gt;Node2</title>
<g id="a_edge14_Node000013_Node000002"><a xlink:title=" ">
<path fill="none" stroke="#63b8ff" d="M116.81,-167.59C133.36,-159.32 157.71,-147.14 176.79,-137.6"/>
<polygon fill="#63b8ff" stroke="#63b8ff" points="178.31,-140.76 185.69,-133.16 175.18,-134.5 178.31,-140.76"/>
</a>
</g>
</g>
<!-- Node14 -->
<g id="Node000014" class="node">
<title>Node14</title>
<g id="a_Node000014"><a xlink:href="_h_i_d___keyboard___mass___storage_2_src___mass_storage_2usb__bulk__only__transport_8h.html" target="_top" xlink:title="The header file of Bulk Only Transport.">
<polygon fill="white" stroke="#666666" points="160,-132 30,-132 30,-112 160,-112 160,-132"/>
<text text-anchor="middle" x="95" y="-118.5" font-family="Helvetica,sans-Serif" font-size="10.00">usb_bulk_only_transport.h</text>
</a>
</g>
</g>
<!-- Node13&#45;&gt;Node14 -->
<g id="edge15_Node000013_Node000014" class="edge">
<title>Node13&#45;&gt;Node14</title>
<g id="a_edge15_Node000013_Node000014"><a xlink:title=" ">
<path fill="none" stroke="#63b8ff" d="M97.48,-167.59C97.11,-161.01 96.61,-151.96 96.15,-143.73"/>
<polygon fill="#63b8ff" stroke="#63b8ff" points="99.65,-143.6 95.6,-133.81 92.66,-143.99 99.65,-143.6"/>
</a>
</g>
</g>
<!-- Node14&#45;&gt;Node7 -->
<g id="edge16_Node000014_Node000007" class="edge">
<title>Node14&#45;&gt;Node7</title>
<g id="a_edge16_Node000014_Node000007"><a xlink:title=" ">
<path fill="none" stroke="#63b8ff" d="M93.95,-111.59C93.22,-105.01 92.22,-95.96 91.3,-87.73"/>
<polygon fill="#63b8ff" stroke="#63b8ff" points="94.78,-87.35 90.2,-77.8 87.83,-88.13 94.78,-87.35"/>
</a>
</g>
</g>
<!-- Node15&#45;&gt;Node2 -->
<g id="edge18_Node000015_Node000002" class="edge">
<title>Node15&#45;&gt;Node2</title>
<g id="a_edge18_Node000015_Node000002"><a xlink:title=" ">
<path fill="none" stroke="#63b8ff" d="M209.46,-223.62C197.14,-214.9 183.76,-202.78 177,-188 169.72,-172.09 179.37,-153.89 189.45,-140.8"/>
<polygon fill="#63b8ff" stroke="#63b8ff" points="191.88,-143.34 195.65,-133.44 186.53,-138.83 191.88,-143.34"/>
</a>
</g>
</g>
<!-- Node15&#45;&gt;Node8 -->
<g id="edge19_Node000015_Node000008" class="edge">
<title>Node15&#45;&gt;Node8</title>
<g id="a_edge19_Node000015_Node000008"><a xlink:title=" ">
<path fill="none" stroke="#63b8ff" d="M275.92,-223.55C300.7,-213.96 332.24,-201.75 356.03,-192.54"/>
<polygon fill="#63b8ff" stroke="#63b8ff" points="357.22,-195.83 365.28,-188.95 354.7,-189.3 357.22,-195.83"/>
</a>
</g>
</g>
<!-- Node15&#45;&gt;Node13 -->
<g id="edge22_Node000015_Node000013" class="edge">
<title>Node15&#45;&gt;Node13</title>
<g id="a_edge22_Node000015_Node000013"><a xlink:title=" ">
<path fill="none" stroke="#63b8ff" d="M200.46,-223.55C178.7,-214.09 151.08,-202.08 130,-192.91"/>
<polygon fill="#63b8ff" stroke="#63b8ff" points="131.59,-189.79 121.03,-189.01 128.8,-196.21 131.59,-189.79"/>
</a>
</g>
</g>
<!-- Node15&#45;&gt;Node14 -->
<g id="edge20_Node000015_Node000014" class="edge">
<title>Node15&#45;&gt;Node14</title>
<g id="a_edge20_Node000015_Node000014"><a xlink:title=" ">
<path fill="none" stroke="#63b8ff" d="M178.4,-226.23C128.99,-214.69 64.57,-198.03 57,-188 45.46,-172.71 59.59,-153.62 73.78,-140.09"/>
<polygon fill="#63b8ff" stroke="#63b8ff" points="76.09,-142.72 81.26,-133.48 71.45,-137.48 76.09,-142.72"/>
</a>
</g>
</g>
<!-- Node16 -->
<g id="Node000016" class="node">
<title>Node16</title>
<g id="a_Node000016"><a xlink:href="_h_i_d___keyboard___mass___storage_2_src___mass_storage_2usb__scsi__block__command_8h.html" target="_top" xlink:title="The header file of SCSI Block Command (SBC&#45;3 &amp; SPC&#45;4).">
<polygon fill="white" stroke="#666666" points="325.88,-188 186.12,-188 186.12,-168 325.88,-168 325.88,-188"/>
<text text-anchor="middle" x="256" y="-174.5" font-family="Helvetica,sans-Serif" font-size="10.00">usb_scsi_block_command.h</text>
</a>
</g>
</g>
<!-- Node15&#45;&gt;Node16 -->
<g id="edge21_Node000015_Node000016" class="edge">
<title>Node15&#45;&gt;Node16</title>
<g id="a_edge21_Node000015_Node000016"><a xlink:title=" ">
<path fill="none" stroke="#63b8ff" d="M241.15,-223.55C243.61,-216.17 246.59,-207.24 249.23,-199.32"/>
<polygon fill="#63b8ff" stroke="#63b8ff" points="252.54,-200.44 252.39,-189.84 245.9,-198.22 252.54,-200.44"/>
</a>
</g>
</g>
<!-- Node17&#45;&gt;Node2 -->
<g id="edge24_Node000017_Node000002" class="edge">
<title>Node17&#45;&gt;Node2</title>
<g id="a_edge24_Node000017_Node000002"><a xlink:title=" ">
<path fill="none" stroke="#63b8ff" d="M460.78,-223.69C476.34,-208.45 494.4,-184.95 480,-168 449.45,-132.02 305.33,-124.76 239.25,-123.33"/>
<polygon fill="#63b8ff" stroke="#63b8ff" points="239.44,-119.83 229.38,-123.15 239.31,-126.83 239.44,-119.83"/>
</a>
</g>
</g>
<!-- Node17&#45;&gt;Node8 -->
<g id="edge25_Node000017_Node000008" class="edge">
<title>Node17&#45;&gt;Node8</title>
<g id="a_edge25_Node000017_Node000008"><a xlink:title=" ">
<path fill="none" stroke="#63b8ff" d="M429.61,-223.55C422.54,-215.39 413.82,-205.33 406.46,-196.84"/>
<polygon fill="#63b8ff" stroke="#63b8ff" points="409.34,-194.82 400.14,-189.55 404.05,-199.4 409.34,-194.82"/>
</a>
</g>
</g>
<!-- Node17&#45;&gt;Node14 -->
<g id="edge26_Node000017_Node000014" class="edge">
<title>Node17&#45;&gt;Node14</title>
<g id="a_edge26_Node000017_Node000014"><a xlink:title=" ">
<path fill="none" stroke="#63b8ff" d="M449.46,-223.68C455.04,-207.76 460.3,-183.11 447,-168 442.46,-162.85 273.47,-143.04 171.32,-131.49"/>
<polygon fill="#63b8ff" stroke="#63b8ff" points="171.96,-128.04 161.63,-130.4 171.17,-135 171.96,-128.04"/>
</a>
</g>
</g>
<!-- Node17&#45;&gt;Node16 -->
<g id="edge27_Node000017_Node000016" class="edge">
<title>Node17&#45;&gt;Node16</title>
<g id="a_edge27_Node000017_Node000016"><a xlink:title=" ">
<path fill="none" stroke="#63b8ff" d="M394.84,-223.55C364.37,-213.77 325.41,-201.27 296.52,-192"/>
<polygon fill="#63b8ff" stroke="#63b8ff" points="297.63,-188.68 287.04,-188.96 295.49,-195.35 297.63,-188.68"/>
</a>
</g>
</g>
<!-- Node18 -->
<g id="Node000018" class="node">
<title>Node18</title>
<g id="a_Node000018"><a xlink:href="_h_i_d___keyboard___mass___storage_2_src___mass_storage_2usb__scsi_8h.html" target="_top" xlink:title="The header file of SCSI Block Command (SBC&#45;3 &amp; SPC&#45;4).">
<polygon fill="white" stroke="#666666" points="595.62,-188 532.38,-188 532.38,-168 595.62,-168 595.62,-188"/>
<text text-anchor="middle" x="564" y="-174.5" font-family="Helvetica,sans-Serif" font-size="10.00">usb_scsi.h</text>
</a>
</g>
</g>
<!-- Node17&#45;&gt;Node18 -->
<g id="edge28_Node000017_Node000018" class="edge">
<title>Node17&#45;&gt;Node18</title>
<g id="a_edge28_Node000017_Node000018"><a xlink:title=" ">
<path fill="none" stroke="#63b8ff" d="M474.16,-223.55C492.89,-214.26 516.57,-202.52 534.92,-193.42"/>
<polygon fill="#63b8ff" stroke="#63b8ff" points="536.27,-196.66 543.67,-189.08 533.16,-190.39 536.27,-196.66"/>
</a>
</g>
</g>
</g>
</svg>
