<?xml version="1.0" encoding="UTF-8" standalone="no"?>
<!DOCTYPE svg PUBLIC "-//W3C//DTD SVG 1.1//EN"
 "http://www.w3.org/Graphics/SVG/1.1/DTD/svg11.dtd">
<!-- Generated by graphviz version 9.0.0 (20230911.1827)
 -->
<!-- Title: D:/Note_Database/Subject/MCETA Microcontroller Experiment TA/files/HT32_STD_5xxxx_FWLib_V1.5.1_7084b/example/TM/PWM/main.c Pages: 1 -->
<svg width="327pt" height="356pt"
 viewBox="0.00 0.00 327.38 356.00" xmlns="http://www.w3.org/2000/svg" xmlns:xlink="http://www.w3.org/1999/xlink">
<g id="graph0" class="graph" transform="scale(1 1) rotate(0) translate(4 352)">
<title>D:/Note_Database/Subject/MCETA Microcontroller Experiment TA/files/HT32_STD_5xxxx_FWLib_V1.5.1_7084b/example/TM/PWM/main.c</title>
<!-- Node1 -->
<g id="Node000001" class="node">
<title>Node1</title>
<g id="a_Node000001"><a xlink:title="Main program.">
<polygon fill="#999999" stroke="#666666" points="228.12,-348 57.62,-348 57.62,-280 228.12,-280 228.12,-348"/>
<text text-anchor="start" x="65.62" y="-334.5" font-family="Helvetica,sans-Serif" font-size="10.00">D:/Note_Database/Subject</text>
<text text-anchor="start" x="65.62" y="-322.5" font-family="Helvetica,sans-Serif" font-size="10.00">/MCETA Microcontroller</text>
<text text-anchor="start" x="65.62" y="-310.5" font-family="Helvetica,sans-Serif" font-size="10.00"> Experiment TA/files/HT32</text>
<text text-anchor="start" x="65.62" y="-298.5" font-family="Helvetica,sans-Serif" font-size="10.00">_STD_5xxxx_FWLib_V1.5.1_7084b</text>
<text text-anchor="middle" x="142.88" y="-286.5" font-family="Helvetica,sans-Serif" font-size="10.00">/example/TM/PWM/main.c</text>
</a>
</g>
</g>
<!-- Node2 -->
<g id="Node000002" class="node">
<title>Node2</title>
<g id="a_Node000002"><a xlink:href="ht32_8h.html" target="_top" xlink:title="The API between application and HT32FXXXX Firmware Library.">
<polygon fill="white" stroke="#666666" points="175.38,-132 132.38,-132 132.38,-112 175.38,-112 175.38,-132"/>
<text text-anchor="middle" x="153.88" y="-118.5" font-family="Helvetica,sans-Serif" font-size="10.00">ht32.h</text>
</a>
</g>
</g>
<!-- Node1&#45;&gt;Node2 -->
<g id="edge1_Node000001_Node000002" class="edge">
<title>Node1&#45;&gt;Node2</title>
<g id="a_edge1_Node000001_Node000002"><a xlink:title=" ">
<path fill="none" stroke="#63b8ff" d="M164.41,-279.55C178.74,-255.24 196.27,-220.94 203.88,-188 205.88,-179.34 207.49,-176.12 203.88,-168 198.74,-156.48 189.04,-146.67 179.54,-139.18"/>
<polygon fill="#63b8ff" stroke="#63b8ff" points="181.66,-136.39 171.51,-133.37 177.56,-142.07 181.66,-136.39"/>
</a>
</g>
</g>
<!-- Node7 -->
<g id="Node000007" class="node">
<title>Node7</title>
<g id="a_Node000007"><a xlink:href="ht32__board_8h.html" target="_top" xlink:title="HT32 target board definition file.">
<polygon fill="white" stroke="#666666" points="73,-188 0.75,-188 0.75,-168 73,-168 73,-188"/>
<text text-anchor="middle" x="36.88" y="-174.5" font-family="Helvetica,sans-Serif" font-size="10.00">ht32_board.h</text>
</a>
</g>
</g>
<!-- Node1&#45;&gt;Node7 -->
<g id="edge6_Node000001_Node000007" class="edge">
<title>Node1&#45;&gt;Node7</title>
<g id="a_edge6_Node000001_Node000007"><a xlink:title=" ">
<path fill="none" stroke="#63b8ff" d="M116.4,-279.53C95.75,-253.43 67.87,-218.19 51.2,-197.11"/>
<polygon fill="#63b8ff" stroke="#63b8ff" points="54.08,-195.11 45.13,-189.44 48.59,-199.46 54.08,-195.11"/>
</a>
</g>
</g>
<!-- Node8 -->
<g id="Node000008" class="node">
<title>Node8</title>
<g id="a_Node000008"><a xlink:href="pwm_8h.html" target="_top" xlink:title="The header file of PWM.">
<polygon fill="white" stroke="#666666" points="165.12,-244 120.62,-244 120.62,-224 165.12,-224 165.12,-244"/>
<text text-anchor="middle" x="142.88" y="-230.5" font-family="Helvetica,sans-Serif" font-size="10.00">pwm.h</text>
</a>
</g>
</g>
<!-- Node1&#45;&gt;Node8 -->
<g id="edge8_Node000001_Node000008" class="edge">
<title>Node1&#45;&gt;Node8</title>
<g id="a_edge8_Node000001_Node000008"><a xlink:title=" ">
<path fill="none" stroke="#63b8ff" d="M142.88,-279.92C142.88,-271.72 142.88,-263.17 142.88,-255.75"/>
<polygon fill="#63b8ff" stroke="#63b8ff" points="146.38,-255.79 142.88,-245.79 139.38,-255.79 146.38,-255.79"/>
</a>
</g>
</g>
<!-- Node3 -->
<g id="Node000003" class="node">
<title>Node3</title>
<g id="a_Node000003"><a xlink:href="ht32f5xxxx__01_8h.html" target="_top" xlink:title="CMSIS Cortex&#45;M0+ Device Peripheral Access Layer Header File.">
<polygon fill="white" stroke="#666666" points="197.5,-76 110.25,-76 110.25,-56 197.5,-56 197.5,-76"/>
<text text-anchor="middle" x="153.88" y="-62.5" font-family="Helvetica,sans-Serif" font-size="10.00">ht32f5xxxx_01.h</text>
</a>
</g>
</g>
<!-- Node2&#45;&gt;Node3 -->
<g id="edge2_Node000002_Node000003" class="edge">
<title>Node2&#45;&gt;Node3</title>
<g id="a_edge2_Node000002_Node000003"><a xlink:title=" ">
<path fill="none" stroke="#63b8ff" d="M153.88,-111.59C153.88,-105.01 153.88,-95.96 153.88,-87.73"/>
<polygon fill="#63b8ff" stroke="#63b8ff" points="157.38,-87.81 153.88,-77.81 150.38,-87.81 157.38,-87.81"/>
</a>
</g>
</g>
<!-- Node4 -->
<g id="Node000004" class="node">
<title>Node4</title>
<g id="a_Node000004"><a xlink:href="ht32__config_8h.html" target="_top" xlink:title="Configuration file of HT32.">
<polygon fill="white" stroke="#666666" points="73.75,-20 0,-20 0,0 73.75,0 73.75,-20"/>
<text text-anchor="middle" x="36.88" y="-6.5" font-family="Helvetica,sans-Serif" font-size="10.00">ht32_config.h</text>
</a>
</g>
</g>
<!-- Node3&#45;&gt;Node4 -->
<g id="edge3_Node000003_Node000004" class="edge">
<title>Node3&#45;&gt;Node4</title>
<g id="a_edge3_Node000003_Node000004"><a xlink:title=" ">
<path fill="none" stroke="#63b8ff" d="M133.5,-55.59C115.32,-47.21 88.45,-34.8 67.66,-25.21"/>
<polygon fill="#63b8ff" stroke="#63b8ff" points="69.33,-22.13 58.79,-21.11 66.4,-28.48 69.33,-22.13"/>
</a>
</g>
</g>
<!-- Node5 -->
<g id="Node000005" class="node">
<title>Node5</title>
<g id="a_Node000005"><a xlink:title=" ">
<polygon fill="#e0e0e0" stroke="#999999" points="319.38,-20 234.38,-20 234.38,0 319.38,0 319.38,-20"/>
<text text-anchor="middle" x="276.88" y="-6.5" font-family="Helvetica,sans-Serif" font-size="10.00">core_cm0plus.h</text>
</a>
</g>
</g>
<!-- Node3&#45;&gt;Node5 -->
<g id="edge4_Node000003_Node000005" class="edge">
<title>Node3&#45;&gt;Node5</title>
<g id="a_edge4_Node000003_Node000005"><a xlink:title=" ">
<path fill="none" stroke="#63b8ff" d="M175.3,-55.59C194.5,-47.17 222.92,-34.69 244.82,-25.07"/>
<polygon fill="#63b8ff" stroke="#63b8ff" points="246.15,-28.31 253.9,-21.09 243.33,-21.9 246.15,-28.31"/>
</a>
</g>
</g>
<!-- Node6 -->
<g id="Node000006" class="node">
<title>Node6</title>
<g id="a_Node000006"><a xlink:href="system__ht32f5xxxx__01_8h.html" target="_top" xlink:title="CMSIS Cortex&#45;M0+ Device Peripheral Access Layer System Header File for the Holtek HT32F5xxxx Device S...">
<polygon fill="white" stroke="#666666" points="216.25,-20 91.5,-20 91.5,0 216.25,0 216.25,-20"/>
<text text-anchor="middle" x="153.88" y="-6.5" font-family="Helvetica,sans-Serif" font-size="10.00">system_ht32f5xxxx_01.h</text>
</a>
</g>
</g>
<!-- Node3&#45;&gt;Node6 -->
<g id="edge5_Node000003_Node000006" class="edge">
<title>Node3&#45;&gt;Node6</title>
<g id="a_edge5_Node000003_Node000006"><a xlink:title=" ">
<path fill="none" stroke="#63b8ff" d="M153.88,-55.59C153.88,-49.01 153.88,-39.96 153.88,-31.73"/>
<polygon fill="#63b8ff" stroke="#63b8ff" points="157.38,-31.81 153.88,-21.81 150.38,-31.81 157.38,-31.81"/>
</a>
</g>
</g>
<!-- Node7&#45;&gt;Node4 -->
<g id="edge7_Node000007_Node000004" class="edge">
<title>Node7&#45;&gt;Node4</title>
<g id="a_edge7_Node000007_Node000004"><a xlink:title=" ">
<path fill="none" stroke="#63b8ff" d="M36.88,-167.6C36.88,-141.46 36.88,-67.48 36.88,-31.36"/>
<polygon fill="#63b8ff" stroke="#63b8ff" points="40.38,-31.81 36.88,-21.81 33.38,-31.81 40.38,-31.81"/>
</a>
</g>
</g>
<!-- Node9 -->
<g id="Node000009" class="node">
<title>Node9</title>
<g id="a_Node000009"><a xlink:href="_t_m_2_p_w_m_2ht32__board__config_8h.html" target="_top" xlink:title="The header file of board configuration.">
<polygon fill="white" stroke="#666666" points="194.38,-188 91.38,-188 91.38,-168 194.38,-168 194.38,-188"/>
<text text-anchor="middle" x="142.88" y="-174.5" font-family="Helvetica,sans-Serif" font-size="10.00">ht32_board_config.h</text>
</a>
</g>
</g>
<!-- Node8&#45;&gt;Node9 -->
<g id="edge9_Node000008_Node000009" class="edge">
<title>Node8&#45;&gt;Node9</title>
<g id="a_edge9_Node000008_Node000009"><a xlink:title=" ">
<path fill="none" stroke="#63b8ff" d="M142.88,-223.59C142.88,-217.01 142.88,-207.96 142.88,-199.73"/>
<polygon fill="#63b8ff" stroke="#63b8ff" points="146.38,-199.81 142.88,-189.81 139.38,-199.81 146.38,-199.81"/>
</a>
</g>
</g>
<!-- Node9&#45;&gt;Node2 -->
<g id="edge10_Node000009_Node000002" class="edge">
<title>Node9&#45;&gt;Node2</title>
<g id="a_edge10_Node000009_Node000002"><a xlink:title=" ">
<path fill="none" stroke="#63b8ff" d="M144.79,-167.59C146.15,-160.93 148.02,-151.75 149.71,-143.44"/>
<polygon fill="#63b8ff" stroke="#63b8ff" points="153.11,-144.28 151.68,-133.78 146.25,-142.88 153.11,-144.28"/>
</a>
</g>
</g>
</g>
</svg>
