<?xml version="1.0" encoding="UTF-8" standalone="no"?>
<!DOCTYPE svg PUBLIC "-//W3C//DTD SVG 1.1//EN"
 "http://www.w3.org/Graphics/SVG/1.1/DTD/svg11.dtd">
<!-- Generated by graphviz version 9.0.0 (20230911.1827)
 -->
<!-- Title: D:/Note_Database/Subject/MCETA Microcontroller Experiment TA/files/HT32_STD_5xxxx_FWLib_V1.5.1_7084b/example/USBD/HID_Mouse/main.c Pages: 1 -->
<svg width="516pt" height="244pt"
 viewBox="0.00 0.00 515.50 244.00" xmlns="http://www.w3.org/2000/svg" xmlns:xlink="http://www.w3.org/1999/xlink">
<g id="graph0" class="graph" transform="scale(1 1) rotate(0) translate(4 240)">
<title>D:/Note_Database/Subject/MCETA Microcontroller Experiment TA/files/HT32_STD_5xxxx_FWLib_V1.5.1_7084b/example/USBD/HID_Mouse/main.c</title>
<!-- Node1 -->
<g id="Node000001" class="node">
<title>Node1</title>
<g id="a_Node000001"><a xlink:title="The main program of USB Device HID Mouse example.">
<polygon fill="#999999" stroke="#666666" points="294.5,-236 123.25,-236 123.25,-168 294.5,-168 294.5,-236"/>
<text text-anchor="start" x="131.25" y="-222.5" font-family="Helvetica,sans-Serif" font-size="10.00">D:/Note_Database/Subject</text>
<text text-anchor="start" x="131.25" y="-210.5" font-family="Helvetica,sans-Serif" font-size="10.00">/MCETA Microcontroller</text>
<text text-anchor="start" x="131.25" y="-198.5" font-family="Helvetica,sans-Serif" font-size="10.00"> Experiment TA/files/HT32</text>
<text text-anchor="start" x="131.25" y="-186.5" font-family="Helvetica,sans-Serif" font-size="10.00">_STD_5xxxx_FWLib_V1.5.1_7084b</text>
<text text-anchor="middle" x="208.88" y="-174.5" font-family="Helvetica,sans-Serif" font-size="10.00">/example/USBD/HID_Mouse/main.c</text>
</a>
</g>
</g>
<!-- Node2 -->
<g id="Node000002" class="node">
<title>Node2</title>
<g id="a_Node000002"><a xlink:href="ht32_8h.html" target="_top" xlink:title="The API between application and HT32FXXXX Firmware Library.">
<polygon fill="white" stroke="#666666" points="144.38,-132 101.38,-132 101.38,-112 144.38,-112 144.38,-132"/>
<text text-anchor="middle" x="122.88" y="-118.5" font-family="Helvetica,sans-Serif" font-size="10.00">ht32.h</text>
</a>
</g>
</g>
<!-- Node1&#45;&gt;Node2 -->
<g id="edge1_Node000001_Node000002" class="edge">
<title>Node1&#45;&gt;Node2</title>
<g id="a_edge1_Node000001_Node000002"><a xlink:title=" ">
<path fill="none" stroke="#63b8ff" d="M172.4,-167.92C161.69,-158.2 150.42,-147.99 141.35,-139.76"/>
<polygon fill="#63b8ff" stroke="#63b8ff" points="143.98,-137.42 134.23,-133.29 139.28,-142.61 143.98,-137.42"/>
</a>
</g>
</g>
<!-- Node7 -->
<g id="Node000007" class="node">
<title>Node7</title>
<g id="a_Node000007"><a xlink:href="ht32__board_8h.html" target="_top" xlink:title="HT32 target board definition file.">
<polygon fill="white" stroke="#666666" points="73,-76 0.75,-76 0.75,-56 73,-56 73,-76"/>
<text text-anchor="middle" x="36.88" y="-62.5" font-family="Helvetica,sans-Serif" font-size="10.00">ht32_board.h</text>
</a>
</g>
</g>
<!-- Node1&#45;&gt;Node7 -->
<g id="edge6_Node000001_Node000007" class="edge">
<title>Node1&#45;&gt;Node7</title>
<g id="a_edge6_Node000001_Node000007"><a xlink:title=" ">
<path fill="none" stroke="#63b8ff" d="M143.43,-167.61C125.88,-157.29 107.47,-145.15 91.88,-132 75.51,-118.2 60.06,-99.2 49.72,-85.31"/>
<polygon fill="#63b8ff" stroke="#63b8ff" points="52.75,-83.52 44.05,-77.47 47.08,-87.63 52.75,-83.52"/>
</a>
</g>
</g>
<!-- Node8 -->
<g id="Node000008" class="node">
<title>Node8</title>
<g id="a_Node000008"><a xlink:href="ht32__usbd__core_8h.html" target="_top" xlink:title="The header file of standard protocol related function for HT32 USB Device Library.">
<polygon fill="white" stroke="#666666" points="255.5,-132 162.25,-132 162.25,-112 255.5,-112 255.5,-132"/>
<text text-anchor="middle" x="208.88" y="-118.5" font-family="Helvetica,sans-Serif" font-size="10.00">ht32_usbd_core.h</text>
</a>
</g>
</g>
<!-- Node1&#45;&gt;Node8 -->
<g id="edge8_Node000001_Node000008" class="edge">
<title>Node1&#45;&gt;Node8</title>
<g id="a_edge8_Node000001_Node000008"><a xlink:title=" ">
<path fill="none" stroke="#63b8ff" d="M208.88,-167.92C208.88,-159.72 208.88,-151.17 208.88,-143.75"/>
<polygon fill="#63b8ff" stroke="#63b8ff" points="212.38,-143.79 208.88,-133.79 205.38,-143.79 212.38,-143.79"/>
</a>
</g>
</g>
<!-- Node9 -->
<g id="Node000009" class="node">
<title>Node9</title>
<g id="a_Node000009"><a xlink:href="example_2_u_s_b_d_2_h_i_d___mouse_2ht32__usbd__class_8h.html" target="_top" xlink:title="The header file of USB Device Class.">
<polygon fill="white" stroke="#666666" points="371.75,-132 274,-132 274,-112 371.75,-112 371.75,-132"/>
<text text-anchor="middle" x="322.88" y="-118.5" font-family="Helvetica,sans-Serif" font-size="10.00">ht32_usbd_class.h</text>
</a>
</g>
</g>
<!-- Node1&#45;&gt;Node9 -->
<g id="edge9_Node000001_Node000009" class="edge">
<title>Node1&#45;&gt;Node9</title>
<g id="a_edge9_Node000001_Node000009"><a xlink:title=" ">
<path fill="none" stroke="#63b8ff" d="M257.55,-167.69C272.3,-157.6 287.81,-146.99 300.02,-138.64"/>
<polygon fill="#63b8ff" stroke="#63b8ff" points="301.88,-141.61 308.15,-133.07 297.92,-135.83 301.88,-141.61"/>
</a>
</g>
</g>
<!-- Node10 -->
<g id="Node000010" class="node">
<title>Node10</title>
<g id="a_Node000010"><a xlink:href="example_2_u_s_b_d_2_h_i_d___mouse_2ht32__usbd__descriptor_8h.html" target="_top" xlink:title="The USB descriptor.">
<polygon fill="white" stroke="#666666" points="507.5,-132 390.25,-132 390.25,-112 507.5,-112 507.5,-132"/>
<text text-anchor="middle" x="448.88" y="-118.5" font-family="Helvetica,sans-Serif" font-size="10.00">ht32_usbd_descriptor.h</text>
</a>
</g>
</g>
<!-- Node1&#45;&gt;Node10 -->
<g id="edge10_Node000001_Node000010" class="edge">
<title>Node1&#45;&gt;Node10</title>
<g id="a_edge10_Node000001_Node000010"><a xlink:title=" ">
<path fill="none" stroke="#63b8ff" d="M294.84,-173.06C333.77,-160.41 377.92,-146.06 408.94,-135.98"/>
<polygon fill="#63b8ff" stroke="#63b8ff" points="409.87,-139.36 418.3,-132.94 407.7,-132.7 409.87,-139.36"/>
</a>
</g>
</g>
<!-- Node3 -->
<g id="Node000003" class="node">
<title>Node3</title>
<g id="a_Node000003"><a xlink:href="ht32f5xxxx__01_8h.html" target="_top" xlink:title="CMSIS Cortex&#45;M0+ Device Peripheral Access Layer Header File.">
<polygon fill="white" stroke="#666666" points="178.5,-76 91.25,-76 91.25,-56 178.5,-56 178.5,-76"/>
<text text-anchor="middle" x="134.88" y="-62.5" font-family="Helvetica,sans-Serif" font-size="10.00">ht32f5xxxx_01.h</text>
</a>
</g>
</g>
<!-- Node2&#45;&gt;Node3 -->
<g id="edge2_Node000002_Node000003" class="edge">
<title>Node2&#45;&gt;Node3</title>
<g id="a_edge2_Node000002_Node000003"><a xlink:title=" ">
<path fill="none" stroke="#63b8ff" d="M124.97,-111.59C126.45,-104.93 128.49,-95.75 130.33,-87.44"/>
<polygon fill="#63b8ff" stroke="#63b8ff" points="133.73,-88.3 132.48,-77.78 126.89,-86.78 133.73,-88.3"/>
</a>
</g>
</g>
<!-- Node4 -->
<g id="Node000004" class="node">
<title>Node4</title>
<g id="a_Node000004"><a xlink:href="ht32__config_8h.html" target="_top" xlink:title="Configuration file of HT32.">
<polygon fill="white" stroke="#666666" points="73.75,-20 0,-20 0,0 73.75,0 73.75,-20"/>
<text text-anchor="middle" x="36.88" y="-6.5" font-family="Helvetica,sans-Serif" font-size="10.00">ht32_config.h</text>
</a>
</g>
</g>
<!-- Node3&#45;&gt;Node4 -->
<g id="edge3_Node000003_Node000004" class="edge">
<title>Node3&#45;&gt;Node4</title>
<g id="a_edge3_Node000003_Node000004"><a xlink:title=" ">
<path fill="none" stroke="#63b8ff" d="M117.8,-55.59C103,-47.44 81.31,-35.48 64.11,-26"/>
<polygon fill="#63b8ff" stroke="#63b8ff" points="65.85,-22.97 55.4,-21.21 62.47,-29.1 65.85,-22.97"/>
</a>
</g>
</g>
<!-- Node5 -->
<g id="Node000005" class="node">
<title>Node5</title>
<g id="a_Node000005"><a xlink:title=" ">
<polygon fill="#e0e0e0" stroke="#999999" points="176.38,-20 91.38,-20 91.38,0 176.38,0 176.38,-20"/>
<text text-anchor="middle" x="133.88" y="-6.5" font-family="Helvetica,sans-Serif" font-size="10.00">core_cm0plus.h</text>
</a>
</g>
</g>
<!-- Node3&#45;&gt;Node5 -->
<g id="edge4_Node000003_Node000005" class="edge">
<title>Node3&#45;&gt;Node5</title>
<g id="a_edge4_Node000003_Node000005"><a xlink:title=" ">
<path fill="none" stroke="#63b8ff" d="M134.7,-55.59C134.58,-49.01 134.41,-39.96 134.26,-31.73"/>
<polygon fill="#63b8ff" stroke="#63b8ff" points="137.76,-31.75 134.08,-21.81 130.76,-31.87 137.76,-31.75"/>
</a>
</g>
</g>
<!-- Node6 -->
<g id="Node000006" class="node">
<title>Node6</title>
<g id="a_Node000006"><a xlink:href="system__ht32f5xxxx__01_8h.html" target="_top" xlink:title="CMSIS Cortex&#45;M0+ Device Peripheral Access Layer System Header File for the Holtek HT32F5xxxx Device S...">
<polygon fill="white" stroke="#666666" points="319.25,-20 194.5,-20 194.5,0 319.25,0 319.25,-20"/>
<text text-anchor="middle" x="256.88" y="-6.5" font-family="Helvetica,sans-Serif" font-size="10.00">system_ht32f5xxxx_01.h</text>
</a>
</g>
</g>
<!-- Node3&#45;&gt;Node6 -->
<g id="edge5_Node000003_Node000006" class="edge">
<title>Node3&#45;&gt;Node6</title>
<g id="a_edge5_Node000003_Node000006"><a xlink:title=" ">
<path fill="none" stroke="#63b8ff" d="M156.13,-55.59C175.16,-47.17 203.35,-34.69 225.08,-25.07"/>
<polygon fill="#63b8ff" stroke="#63b8ff" points="226.35,-28.34 234.07,-21.09 223.51,-21.94 226.35,-28.34"/>
</a>
</g>
</g>
<!-- Node7&#45;&gt;Node4 -->
<g id="edge7_Node000007_Node000004" class="edge">
<title>Node7&#45;&gt;Node4</title>
<g id="a_edge7_Node000007_Node000004"><a xlink:title=" ">
<path fill="none" stroke="#63b8ff" d="M36.88,-55.59C36.88,-49.01 36.88,-39.96 36.88,-31.73"/>
<polygon fill="#63b8ff" stroke="#63b8ff" points="40.38,-31.81 36.88,-21.81 33.38,-31.81 40.38,-31.81"/>
</a>
</g>
</g>
</g>
</svg>
