<?xml version="1.0" encoding="UTF-8" standalone="no"?>
<!DOCTYPE svg PUBLIC "-//W3C//DTD SVG 1.1//EN"
 "http://www.w3.org/Graphics/SVG/1.1/DTD/svg11.dtd">
<!-- Generated by graphviz version 9.0.0 (20230911.1827)
 -->
<!-- Title: D:/Note_Database/Subject/MCETA Microcontroller Experiment TA/files/HT32_STD_5xxxx_FWLib_V1.5.1_7084b/example/I2C/EEPROM_Simulate/main.c Pages: 1 -->
<svg width="418pt" height="300pt"
 viewBox="0.00 0.00 418.00 300.00" xmlns="http://www.w3.org/2000/svg" xmlns:xlink="http://www.w3.org/1999/xlink">
<g id="graph0" class="graph" transform="scale(1 1) rotate(0) translate(4 296)">
<title>D:/Note_Database/Subject/MCETA Microcontroller Experiment TA/files/HT32_STD_5xxxx_FWLib_V1.5.1_7084b/example/I2C/EEPROM_Simulate/main.c</title>
<!-- Node1 -->
<g id="Node000001" class="node">
<title>Node1</title>
<g id="a_Node000001"><a xlink:title="Main program.">
<polygon fill="#999999" stroke="#666666" points="349.75,-292 155.25,-292 155.25,-224 349.75,-224 349.75,-292"/>
<text text-anchor="start" x="163.25" y="-278.5" font-family="Helvetica,sans-Serif" font-size="10.00">D:/Note_Database/Subject</text>
<text text-anchor="start" x="163.25" y="-266.5" font-family="Helvetica,sans-Serif" font-size="10.00">/MCETA Microcontroller</text>
<text text-anchor="start" x="163.25" y="-254.5" font-family="Helvetica,sans-Serif" font-size="10.00"> Experiment TA/files/HT32</text>
<text text-anchor="start" x="163.25" y="-242.5" font-family="Helvetica,sans-Serif" font-size="10.00">_STD_5xxxx_FWLib_V1.5.1_7084b</text>
<text text-anchor="middle" x="252.5" y="-230.5" font-family="Helvetica,sans-Serif" font-size="10.00">/example/I2C/EEPROM_Simulate/main.c</text>
</a>
</g>
</g>
<!-- Node2 -->
<g id="Node000002" class="node">
<title>Node2</title>
<g id="a_Node000002"><a xlink:href="ht32_8h.html" target="_top" xlink:title="The API between application and HT32FXXXX Firmware Library.">
<polygon fill="white" stroke="#666666" points="198,-132 155,-132 155,-112 198,-112 198,-132"/>
<text text-anchor="middle" x="176.5" y="-118.5" font-family="Helvetica,sans-Serif" font-size="10.00">ht32.h</text>
</a>
</g>
</g>
<!-- Node1&#45;&gt;Node2 -->
<g id="edge1_Node000001_Node000002" class="edge">
<title>Node1&#45;&gt;Node2</title>
<g id="a_edge1_Node000001_Node000002"><a xlink:title=" ">
<path fill="none" stroke="#63b8ff" d="M220.24,-223.53C211.24,-212.82 202.12,-200.49 195.5,-188 188.07,-173.99 183.2,-156.7 180.25,-143.47"/>
<polygon fill="#63b8ff" stroke="#63b8ff" points="183.7,-142.87 178.29,-133.76 176.83,-144.25 183.7,-142.87"/>
</a>
</g>
</g>
<!-- Node7 -->
<g id="Node000007" class="node">
<title>Node7</title>
<g id="a_Node000007"><a xlink:href="ht32__board_8h.html" target="_top" xlink:title="HT32 target board definition file.">
<polygon fill="white" stroke="#666666" points="315.62,-132 243.38,-132 243.38,-112 315.62,-112 315.62,-132"/>
<text text-anchor="middle" x="279.5" y="-118.5" font-family="Helvetica,sans-Serif" font-size="10.00">ht32_board.h</text>
</a>
</g>
</g>
<!-- Node1&#45;&gt;Node7 -->
<g id="edge6_Node000001_Node000007" class="edge">
<title>Node1&#45;&gt;Node7</title>
<g id="a_edge6_Node000001_Node000007"><a xlink:title=" ">
<path fill="none" stroke="#63b8ff" d="M259.24,-223.53C264.31,-198.38 271.09,-164.73 275.38,-143.45"/>
<polygon fill="#63b8ff" stroke="#63b8ff" points="278.79,-144.23 277.34,-133.74 271.93,-142.85 278.79,-144.23"/>
</a>
</g>
</g>
<!-- Node8 -->
<g id="Node000008" class="node">
<title>Node8</title>
<g id="a_Node000008"><a xlink:href="_i2_c_2_e_e_p_r_o_m___simulate_2i2cm_8h.html" target="_top" xlink:title="The header file of the I2C library.">
<polygon fill="white" stroke="#666666" points="250.12,-188 204.88,-188 204.88,-168 250.12,-168 250.12,-188"/>
<text text-anchor="middle" x="227.5" y="-174.5" font-family="Helvetica,sans-Serif" font-size="10.00">i2cm.h</text>
</a>
</g>
</g>
<!-- Node1&#45;&gt;Node8 -->
<g id="edge8_Node000001_Node000008" class="edge">
<title>Node1&#45;&gt;Node8</title>
<g id="a_edge8_Node000001_Node000008"><a xlink:title=" ">
<path fill="none" stroke="#63b8ff" d="M241.9,-223.92C239.21,-215.52 236.39,-206.75 233.98,-199.2"/>
<polygon fill="#63b8ff" stroke="#63b8ff" points="237.32,-198.17 230.94,-189.72 230.65,-200.31 237.32,-198.17"/>
</a>
</g>
</g>
<!-- Node9 -->
<g id="Node000009" class="node">
<title>Node9</title>
<g id="a_Node000009"><a xlink:href="_i2_c_2_e_e_p_r_o_m___simulate_2ht32__board__config_8h.html" target="_top" xlink:title="The header file of board configuration.">
<polygon fill="white" stroke="#666666" points="410,-188 307,-188 307,-168 410,-168 410,-188"/>
<text text-anchor="middle" x="358.5" y="-174.5" font-family="Helvetica,sans-Serif" font-size="10.00">ht32_board_config.h</text>
</a>
</g>
</g>
<!-- Node1&#45;&gt;Node9 -->
<g id="edge10_Node000001_Node000009" class="edge">
<title>Node1&#45;&gt;Node9</title>
<g id="a_edge10_Node000001_Node000009"><a xlink:title=" ">
<path fill="none" stroke="#63b8ff" d="M297.76,-223.69C311.34,-213.7 325.61,-203.2 336.91,-194.89"/>
<polygon fill="#63b8ff" stroke="#63b8ff" points="338.77,-197.86 344.75,-189.11 334.63,-192.22 338.77,-197.86"/>
</a>
</g>
</g>
<!-- Node3 -->
<g id="Node000003" class="node">
<title>Node3</title>
<g id="a_Node000003"><a xlink:href="ht32f5xxxx__01_8h.html" target="_top" xlink:title="CMSIS Cortex&#45;M0+ Device Peripheral Access Layer Header File.">
<polygon fill="white" stroke="#666666" points="213.12,-76 125.88,-76 125.88,-56 213.12,-56 213.12,-76"/>
<text text-anchor="middle" x="169.5" y="-62.5" font-family="Helvetica,sans-Serif" font-size="10.00">ht32f5xxxx_01.h</text>
</a>
</g>
</g>
<!-- Node2&#45;&gt;Node3 -->
<g id="edge2_Node000002_Node000003" class="edge">
<title>Node2&#45;&gt;Node3</title>
<g id="a_edge2_Node000002_Node000003"><a xlink:title=" ">
<path fill="none" stroke="#63b8ff" d="M175.28,-111.59C174.42,-104.93 173.23,-95.75 172.15,-87.44"/>
<polygon fill="#63b8ff" stroke="#63b8ff" points="175.66,-87.27 170.9,-77.8 168.71,-88.17 175.66,-87.27"/>
</a>
</g>
</g>
<!-- Node4 -->
<g id="Node000004" class="node">
<title>Node4</title>
<g id="a_Node000004"><a xlink:href="ht32__config_8h.html" target="_top" xlink:title="Configuration file of HT32.">
<polygon fill="white" stroke="#666666" points="319.38,-20 245.62,-20 245.62,0 319.38,0 319.38,-20"/>
<text text-anchor="middle" x="282.5" y="-6.5" font-family="Helvetica,sans-Serif" font-size="10.00">ht32_config.h</text>
</a>
</g>
</g>
<!-- Node3&#45;&gt;Node4 -->
<g id="edge3_Node000003_Node000004" class="edge">
<title>Node3&#45;&gt;Node4</title>
<g id="a_edge3_Node000003_Node000004"><a xlink:title=" ">
<path fill="none" stroke="#63b8ff" d="M189.18,-55.59C206.66,-47.24 232.45,-34.92 252.5,-25.34"/>
<polygon fill="#63b8ff" stroke="#63b8ff" points="253.78,-28.6 261.3,-21.13 250.77,-22.29 253.78,-28.6"/>
</a>
</g>
</g>
<!-- Node5 -->
<g id="Node000005" class="node">
<title>Node5</title>
<g id="a_Node000005"><a xlink:title=" ">
<polygon fill="#e0e0e0" stroke="#999999" points="85,-20 0,-20 0,0 85,0 85,-20"/>
<text text-anchor="middle" x="42.5" y="-6.5" font-family="Helvetica,sans-Serif" font-size="10.00">core_cm0plus.h</text>
</a>
</g>
</g>
<!-- Node3&#45;&gt;Node5 -->
<g id="edge4_Node000003_Node000005" class="edge">
<title>Node3&#45;&gt;Node5</title>
<g id="a_edge4_Node000003_Node000005"><a xlink:title=" ">
<path fill="none" stroke="#63b8ff" d="M147.38,-55.59C127.47,-47.13 97.95,-34.58 75.29,-24.94"/>
<polygon fill="#63b8ff" stroke="#63b8ff" points="76.76,-21.76 66.19,-21.07 74.02,-28.21 76.76,-21.76"/>
</a>
</g>
</g>
<!-- Node6 -->
<g id="Node000006" class="node">
<title>Node6</title>
<g id="a_Node000006"><a xlink:href="system__ht32f5xxxx__01_8h.html" target="_top" xlink:title="CMSIS Cortex&#45;M0+ Device Peripheral Access Layer System Header File for the Holtek HT32F5xxxx Device S...">
<polygon fill="white" stroke="#666666" points="227.88,-20 103.12,-20 103.12,0 227.88,0 227.88,-20"/>
<text text-anchor="middle" x="165.5" y="-6.5" font-family="Helvetica,sans-Serif" font-size="10.00">system_ht32f5xxxx_01.h</text>
</a>
</g>
</g>
<!-- Node3&#45;&gt;Node6 -->
<g id="edge5_Node000003_Node000006" class="edge">
<title>Node3&#45;&gt;Node6</title>
<g id="a_edge5_Node000003_Node000006"><a xlink:title=" ">
<path fill="none" stroke="#63b8ff" d="M168.8,-55.59C168.32,-49.01 167.65,-39.96 167.04,-31.73"/>
<polygon fill="#63b8ff" stroke="#63b8ff" points="170.53,-31.52 166.3,-21.81 163.55,-32.04 170.53,-31.52"/>
</a>
</g>
</g>
<!-- Node7&#45;&gt;Node4 -->
<g id="edge7_Node000007_Node000004" class="edge">
<title>Node7&#45;&gt;Node4</title>
<g id="a_edge7_Node000007_Node000004"><a xlink:title=" ">
<path fill="none" stroke="#63b8ff" d="M279.76,-111.62C280.24,-94.01 281.28,-55.59 281.94,-31.65"/>
<polygon fill="#63b8ff" stroke="#63b8ff" points="285.43,-31.96 282.2,-21.87 278.43,-31.77 285.43,-31.96"/>
</a>
</g>
</g>
<!-- Node8&#45;&gt;Node2 -->
<g id="edge9_Node000008_Node000002" class="edge">
<title>Node8&#45;&gt;Node2</title>
<g id="a_edge9_Node000008_Node000002"><a xlink:title=" ">
<path fill="none" stroke="#63b8ff" d="M218.62,-167.59C211.6,-160.16 201.6,-149.58 193.11,-140.58"/>
<polygon fill="#63b8ff" stroke="#63b8ff" points="195.73,-138.27 186.32,-133.4 190.64,-143.07 195.73,-138.27"/>
</a>
</g>
</g>
</g>
</svg>
