<?xml version="1.0" encoding="UTF-8" standalone="no"?>
<!DOCTYPE svg PUBLIC "-//W3C//DTD SVG 1.1//EN"
 "http://www.w3.org/Graphics/SVG/1.1/DTD/svg11.dtd">
<!-- Generated by graphviz version 9.0.0 (20230911.1827)
 -->
<!-- Title: D:/Note_Database/Subject/MCETA Microcontroller Experiment TA/files/HT32_STD_5xxxx_FWLib_V1.5.1_7084b/example/RSTCU/Peripheral_Reset_Function/main.c Pages: 1 -->
<svg width="327pt" height="256pt"
 viewBox="0.00 0.00 327.25 256.00" xmlns="http://www.w3.org/2000/svg" xmlns:xlink="http://www.w3.org/1999/xlink">
<g id="graph0" class="graph" transform="scale(1 1) rotate(0) translate(4 252)">
<title>D:/Note_Database/Subject/MCETA Microcontroller Experiment TA/files/HT32_STD_5xxxx_FWLib_V1.5.1_7084b/example/RSTCU/Peripheral_Reset_Function/main.c</title>
<!-- Node1 -->
<g id="Node000001" class="node">
<title>Node1</title>
<g id="a_Node000001"><a xlink:title="Main program.">
<polygon fill="#999999" stroke="#666666" points="208.12,-248 37.62,-248 37.62,-168 208.12,-168 208.12,-248"/>
<text text-anchor="start" x="45.62" y="-234.5" font-family="Helvetica,sans-Serif" font-size="10.00">D:/Note_Database/Subject</text>
<text text-anchor="start" x="45.62" y="-222.5" font-family="Helvetica,sans-Serif" font-size="10.00">/MCETA Microcontroller</text>
<text text-anchor="start" x="45.62" y="-210.5" font-family="Helvetica,sans-Serif" font-size="10.00"> Experiment TA/files/HT32</text>
<text text-anchor="start" x="45.62" y="-198.5" font-family="Helvetica,sans-Serif" font-size="10.00">_STD_5xxxx_FWLib_V1.5.1_7084b</text>
<text text-anchor="start" x="45.62" y="-186.5" font-family="Helvetica,sans-Serif" font-size="10.00">/example/RSTCU/Peripheral_Reset</text>
<text text-anchor="middle" x="122.88" y="-174.5" font-family="Helvetica,sans-Serif" font-size="10.00">_Function/main.c</text>
</a>
</g>
</g>
<!-- Node2 -->
<g id="Node000002" class="node">
<title>Node2</title>
<g id="a_Node000002"><a xlink:href="ht32_8h.html" target="_top" xlink:title="The API between application and HT32FXXXX Firmware Library.">
<polygon fill="white" stroke="#666666" points="144.38,-132 101.38,-132 101.38,-112 144.38,-112 144.38,-132"/>
<text text-anchor="middle" x="122.88" y="-118.5" font-family="Helvetica,sans-Serif" font-size="10.00">ht32.h</text>
</a>
</g>
</g>
<!-- Node1&#45;&gt;Node2 -->
<g id="edge1_Node000001_Node000002" class="edge">
<title>Node1&#45;&gt;Node2</title>
<g id="a_edge1_Node000001_Node000002"><a xlink:title=" ">
<path fill="none" stroke="#63b8ff" d="M122.88,-167.95C122.88,-159.6 122.88,-151.09 122.88,-143.76"/>
<polygon fill="#63b8ff" stroke="#63b8ff" points="126.38,-143.95 122.88,-133.95 119.38,-143.95 126.38,-143.95"/>
</a>
</g>
</g>
<!-- Node7 -->
<g id="Node000007" class="node">
<title>Node7</title>
<g id="a_Node000007"><a xlink:href="ht32__board_8h.html" target="_top" xlink:title="HT32 target board definition file.">
<polygon fill="white" stroke="#666666" points="73,-76 0.75,-76 0.75,-56 73,-56 73,-76"/>
<text text-anchor="middle" x="36.88" y="-62.5" font-family="Helvetica,sans-Serif" font-size="10.00">ht32_board.h</text>
</a>
</g>
</g>
<!-- Node1&#45;&gt;Node7 -->
<g id="edge6_Node000001_Node000007" class="edge">
<title>Node1&#45;&gt;Node7</title>
<g id="a_edge6_Node000001_Node000007"><a xlink:title=" ">
<path fill="none" stroke="#63b8ff" d="M98.69,-167.63C82.28,-140.91 61.3,-106.77 48.49,-85.91"/>
<polygon fill="#63b8ff" stroke="#63b8ff" points="51.61,-84.3 43.4,-77.62 45.65,-87.97 51.61,-84.3"/>
</a>
</g>
</g>
<!-- Node8 -->
<g id="Node000008" class="node">
<title>Node8</title>
<g id="a_Node000008"><a xlink:href="_r_s_t_c_u_2_peripheral___reset___function_2ht32__board__config_8h.html" target="_top" xlink:title="The header file of board configuration.">
<polygon fill="white" stroke="#666666" points="265.38,-132 162.38,-132 162.38,-112 265.38,-112 265.38,-132"/>
<text text-anchor="middle" x="213.88" y="-118.5" font-family="Helvetica,sans-Serif" font-size="10.00">ht32_board_config.h</text>
</a>
</g>
</g>
<!-- Node1&#45;&gt;Node8 -->
<g id="edge8_Node000001_Node000008" class="edge">
<title>Node1&#45;&gt;Node8</title>
<g id="a_edge8_Node000001_Node000008"><a xlink:title=" ">
<path fill="none" stroke="#63b8ff" d="M165.44,-167.71C176.02,-157.94 186.8,-147.99 195.51,-139.96"/>
<polygon fill="#63b8ff" stroke="#63b8ff" points="197.64,-142.75 202.61,-133.4 192.89,-137.61 197.64,-142.75"/>
</a>
</g>
</g>
<!-- Node3 -->
<g id="Node000003" class="node">
<title>Node3</title>
<g id="a_Node000003"><a xlink:href="ht32f5xxxx__01_8h.html" target="_top" xlink:title="CMSIS Cortex&#45;M0+ Device Peripheral Access Layer Header File.">
<polygon fill="white" stroke="#666666" points="178.5,-76 91.25,-76 91.25,-56 178.5,-56 178.5,-76"/>
<text text-anchor="middle" x="134.88" y="-62.5" font-family="Helvetica,sans-Serif" font-size="10.00">ht32f5xxxx_01.h</text>
</a>
</g>
</g>
<!-- Node2&#45;&gt;Node3 -->
<g id="edge2_Node000002_Node000003" class="edge">
<title>Node2&#45;&gt;Node3</title>
<g id="a_edge2_Node000002_Node000003"><a xlink:title=" ">
<path fill="none" stroke="#63b8ff" d="M124.97,-111.59C126.45,-104.93 128.49,-95.75 130.33,-87.44"/>
<polygon fill="#63b8ff" stroke="#63b8ff" points="133.73,-88.3 132.48,-77.78 126.89,-86.78 133.73,-88.3"/>
</a>
</g>
</g>
<!-- Node4 -->
<g id="Node000004" class="node">
<title>Node4</title>
<g id="a_Node000004"><a xlink:href="ht32__config_8h.html" target="_top" xlink:title="Configuration file of HT32.">
<polygon fill="white" stroke="#666666" points="73.75,-20 0,-20 0,0 73.75,0 73.75,-20"/>
<text text-anchor="middle" x="36.88" y="-6.5" font-family="Helvetica,sans-Serif" font-size="10.00">ht32_config.h</text>
</a>
</g>
</g>
<!-- Node3&#45;&gt;Node4 -->
<g id="edge3_Node000003_Node000004" class="edge">
<title>Node3&#45;&gt;Node4</title>
<g id="a_edge3_Node000003_Node000004"><a xlink:title=" ">
<path fill="none" stroke="#63b8ff" d="M117.8,-55.59C103,-47.44 81.31,-35.48 64.11,-26"/>
<polygon fill="#63b8ff" stroke="#63b8ff" points="65.85,-22.97 55.4,-21.21 62.47,-29.1 65.85,-22.97"/>
</a>
</g>
</g>
<!-- Node5 -->
<g id="Node000005" class="node">
<title>Node5</title>
<g id="a_Node000005"><a xlink:title=" ">
<polygon fill="#e0e0e0" stroke="#999999" points="176.38,-20 91.38,-20 91.38,0 176.38,0 176.38,-20"/>
<text text-anchor="middle" x="133.88" y="-6.5" font-family="Helvetica,sans-Serif" font-size="10.00">core_cm0plus.h</text>
</a>
</g>
</g>
<!-- Node3&#45;&gt;Node5 -->
<g id="edge4_Node000003_Node000005" class="edge">
<title>Node3&#45;&gt;Node5</title>
<g id="a_edge4_Node000003_Node000005"><a xlink:title=" ">
<path fill="none" stroke="#63b8ff" d="M134.7,-55.59C134.58,-49.01 134.41,-39.96 134.26,-31.73"/>
<polygon fill="#63b8ff" stroke="#63b8ff" points="137.76,-31.75 134.08,-21.81 130.76,-31.87 137.76,-31.75"/>
</a>
</g>
</g>
<!-- Node6 -->
<g id="Node000006" class="node">
<title>Node6</title>
<g id="a_Node000006"><a xlink:href="system__ht32f5xxxx__01_8h.html" target="_top" xlink:title="CMSIS Cortex&#45;M0+ Device Peripheral Access Layer System Header File for the Holtek HT32F5xxxx Device S...">
<polygon fill="white" stroke="#666666" points="319.25,-20 194.5,-20 194.5,0 319.25,0 319.25,-20"/>
<text text-anchor="middle" x="256.88" y="-6.5" font-family="Helvetica,sans-Serif" font-size="10.00">system_ht32f5xxxx_01.h</text>
</a>
</g>
</g>
<!-- Node3&#45;&gt;Node6 -->
<g id="edge5_Node000003_Node000006" class="edge">
<title>Node3&#45;&gt;Node6</title>
<g id="a_edge5_Node000003_Node000006"><a xlink:title=" ">
<path fill="none" stroke="#63b8ff" d="M156.13,-55.59C175.16,-47.17 203.35,-34.69 225.08,-25.07"/>
<polygon fill="#63b8ff" stroke="#63b8ff" points="226.35,-28.34 234.07,-21.09 223.51,-21.94 226.35,-28.34"/>
</a>
</g>
</g>
<!-- Node7&#45;&gt;Node4 -->
<g id="edge7_Node000007_Node000004" class="edge">
<title>Node7&#45;&gt;Node4</title>
<g id="a_edge7_Node000007_Node000004"><a xlink:title=" ">
<path fill="none" stroke="#63b8ff" d="M36.88,-55.59C36.88,-49.01 36.88,-39.96 36.88,-31.73"/>
<polygon fill="#63b8ff" stroke="#63b8ff" points="40.38,-31.81 36.88,-21.81 33.38,-31.81 40.38,-31.81"/>
</a>
</g>
</g>
</g>
</svg>
