<?xml version="1.0" encoding="UTF-8" standalone="no"?>
<!DOCTYPE svg PUBLIC "-//W3C//DTD SVG 1.1//EN"
 "http://www.w3.org/Graphics/SVG/1.1/DTD/svg11.dtd">
<!-- Generated by graphviz version 9.0.0 (20230911.1827)
 -->
<!-- Title: D:/Note_Database/Subject/MCETA Microcontroller Experiment TA/files/HT32_STD_5xxxx_FWLib_V1.5.1_7084b/example/NVIC/Disable_Interrupt/main.c Pages: 1 -->
<svg width="336pt" height="244pt"
 viewBox="0.00 0.00 336.00 244.00" xmlns="http://www.w3.org/2000/svg" xmlns:xlink="http://www.w3.org/1999/xlink">
<g id="graph0" class="graph" transform="scale(1 1) rotate(0) translate(4 240)">
<title>D:/Note_Database/Subject/MCETA Microcontroller Experiment TA/files/HT32_STD_5xxxx_FWLib_V1.5.1_7084b/example/NVIC/Disable_Interrupt/main.c</title>
<!-- Node1 -->
<g id="Node000001" class="node">
<title>Node1</title>
<g id="a_Node000001"><a xlink:title="Main program.">
<polygon fill="#999999" stroke="#666666" points="189.25,-236 0,-236 0,-168 189.25,-168 189.25,-236"/>
<text text-anchor="start" x="8" y="-222.5" font-family="Helvetica,sans-Serif" font-size="10.00">D:/Note_Database/Subject</text>
<text text-anchor="start" x="8" y="-210.5" font-family="Helvetica,sans-Serif" font-size="10.00">/MCETA Microcontroller</text>
<text text-anchor="start" x="8" y="-198.5" font-family="Helvetica,sans-Serif" font-size="10.00"> Experiment TA/files/HT32</text>
<text text-anchor="start" x="8" y="-186.5" font-family="Helvetica,sans-Serif" font-size="10.00">_STD_5xxxx_FWLib_V1.5.1_7084b</text>
<text text-anchor="middle" x="94.62" y="-174.5" font-family="Helvetica,sans-Serif" font-size="10.00">/example/NVIC/Disable_Interrupt/main.c</text>
</a>
</g>
</g>
<!-- Node2 -->
<g id="Node000002" class="node">
<title>Node2</title>
<g id="a_Node000002"><a xlink:href="ht32_8h.html" target="_top" xlink:title="The API between application and HT32FXXXX Firmware Library.">
<polygon fill="white" stroke="#666666" points="153.12,-132 110.12,-132 110.12,-112 153.12,-112 153.12,-132"/>
<text text-anchor="middle" x="131.62" y="-118.5" font-family="Helvetica,sans-Serif" font-size="10.00">ht32.h</text>
</a>
</g>
</g>
<!-- Node1&#45;&gt;Node2 -->
<g id="edge1_Node000001_Node000002" class="edge">
<title>Node1&#45;&gt;Node2</title>
<g id="a_edge1_Node000001_Node000002"><a xlink:title=" ">
<path fill="none" stroke="#63b8ff" d="M110.32,-167.92C114.4,-159.32 118.66,-150.32 122.3,-142.66"/>
<polygon fill="#63b8ff" stroke="#63b8ff" points="125.45,-144.18 126.58,-133.65 119.13,-141.18 125.45,-144.18"/>
</a>
</g>
</g>
<!-- Node7 -->
<g id="Node000007" class="node">
<title>Node7</title>
<g id="a_Node000007"><a xlink:href="ht32__board_8h.html" target="_top" xlink:title="HT32 target board definition file.">
<polygon fill="white" stroke="#666666" points="81.75,-76 9.5,-76 9.5,-56 81.75,-56 81.75,-76"/>
<text text-anchor="middle" x="45.62" y="-62.5" font-family="Helvetica,sans-Serif" font-size="10.00">ht32_board.h</text>
</a>
</g>
</g>
<!-- Node1&#45;&gt;Node7 -->
<g id="edge6_Node000001_Node000007" class="edge">
<title>Node1&#45;&gt;Node7</title>
<g id="a_edge6_Node000001_Node000007"><a xlink:title=" ">
<path fill="none" stroke="#63b8ff" d="M82.39,-167.53C73.1,-142.14 60.65,-108.09 52.89,-86.86"/>
<polygon fill="#63b8ff" stroke="#63b8ff" points="56.25,-85.87 49.53,-77.68 49.68,-88.27 56.25,-85.87"/>
</a>
</g>
</g>
<!-- Node3 -->
<g id="Node000003" class="node">
<title>Node3</title>
<g id="a_Node000003"><a xlink:href="ht32f5xxxx__01_8h.html" target="_top" xlink:title="CMSIS Cortex&#45;M0+ Device Peripheral Access Layer Header File.">
<polygon fill="white" stroke="#666666" points="187.25,-76 100,-76 100,-56 187.25,-56 187.25,-76"/>
<text text-anchor="middle" x="143.62" y="-62.5" font-family="Helvetica,sans-Serif" font-size="10.00">ht32f5xxxx_01.h</text>
</a>
</g>
</g>
<!-- Node2&#45;&gt;Node3 -->
<g id="edge2_Node000002_Node000003" class="edge">
<title>Node2&#45;&gt;Node3</title>
<g id="a_edge2_Node000002_Node000003"><a xlink:title=" ">
<path fill="none" stroke="#63b8ff" d="M133.72,-111.59C135.2,-104.93 137.24,-95.75 139.08,-87.44"/>
<polygon fill="#63b8ff" stroke="#63b8ff" points="142.48,-88.3 141.23,-77.78 135.64,-86.78 142.48,-88.3"/>
</a>
</g>
</g>
<!-- Node4 -->
<g id="Node000004" class="node">
<title>Node4</title>
<g id="a_Node000004"><a xlink:href="ht32__config_8h.html" target="_top" xlink:title="Configuration file of HT32.">
<polygon fill="white" stroke="#666666" points="82.5,-20 8.75,-20 8.75,0 82.5,0 82.5,-20"/>
<text text-anchor="middle" x="45.62" y="-6.5" font-family="Helvetica,sans-Serif" font-size="10.00">ht32_config.h</text>
</a>
</g>
</g>
<!-- Node3&#45;&gt;Node4 -->
<g id="edge3_Node000003_Node000004" class="edge">
<title>Node3&#45;&gt;Node4</title>
<g id="a_edge3_Node000003_Node000004"><a xlink:title=" ">
<path fill="none" stroke="#63b8ff" d="M126.55,-55.59C111.75,-47.44 90.06,-35.48 72.86,-26"/>
<polygon fill="#63b8ff" stroke="#63b8ff" points="74.6,-22.97 64.15,-21.21 71.22,-29.1 74.6,-22.97"/>
</a>
</g>
</g>
<!-- Node5 -->
<g id="Node000005" class="node">
<title>Node5</title>
<g id="a_Node000005"><a xlink:title=" ">
<polygon fill="#e0e0e0" stroke="#999999" points="185.12,-20 100.12,-20 100.12,0 185.12,0 185.12,-20"/>
<text text-anchor="middle" x="142.62" y="-6.5" font-family="Helvetica,sans-Serif" font-size="10.00">core_cm0plus.h</text>
</a>
</g>
</g>
<!-- Node3&#45;&gt;Node5 -->
<g id="edge4_Node000003_Node000005" class="edge">
<title>Node3&#45;&gt;Node5</title>
<g id="a_edge4_Node000003_Node000005"><a xlink:title=" ">
<path fill="none" stroke="#63b8ff" d="M143.45,-55.59C143.33,-49.01 143.16,-39.96 143.01,-31.73"/>
<polygon fill="#63b8ff" stroke="#63b8ff" points="146.51,-31.75 142.83,-21.81 139.51,-31.87 146.51,-31.75"/>
</a>
</g>
</g>
<!-- Node6 -->
<g id="Node000006" class="node">
<title>Node6</title>
<g id="a_Node000006"><a xlink:href="system__ht32f5xxxx__01_8h.html" target="_top" xlink:title="CMSIS Cortex&#45;M0+ Device Peripheral Access Layer System Header File for the Holtek HT32F5xxxx Device S...">
<polygon fill="white" stroke="#666666" points="328,-20 203.25,-20 203.25,0 328,0 328,-20"/>
<text text-anchor="middle" x="265.62" y="-6.5" font-family="Helvetica,sans-Serif" font-size="10.00">system_ht32f5xxxx_01.h</text>
</a>
</g>
</g>
<!-- Node3&#45;&gt;Node6 -->
<g id="edge5_Node000003_Node000006" class="edge">
<title>Node3&#45;&gt;Node6</title>
<g id="a_edge5_Node000003_Node000006"><a xlink:title=" ">
<path fill="none" stroke="#63b8ff" d="M164.88,-55.59C183.91,-47.17 212.1,-34.69 233.83,-25.07"/>
<polygon fill="#63b8ff" stroke="#63b8ff" points="235.1,-28.34 242.82,-21.09 232.26,-21.94 235.1,-28.34"/>
</a>
</g>
</g>
<!-- Node7&#45;&gt;Node4 -->
<g id="edge7_Node000007_Node000004" class="edge">
<title>Node7&#45;&gt;Node4</title>
<g id="a_edge7_Node000007_Node000004"><a xlink:title=" ">
<path fill="none" stroke="#63b8ff" d="M45.62,-55.59C45.62,-49.01 45.62,-39.96 45.62,-31.73"/>
<polygon fill="#63b8ff" stroke="#63b8ff" points="49.13,-31.81 45.63,-21.81 42.13,-31.81 49.13,-31.81"/>
</a>
</g>
</g>
</g>
</svg>
