<?xml version="1.0" encoding="UTF-8" standalone="no"?>
<!DOCTYPE svg PUBLIC "-//W3C//DTD SVG 1.1//EN"
 "http://www.w3.org/Graphics/SVG/1.1/DTD/svg11.dtd">
<!-- Generated by graphviz version 9.0.0 (20230911.1827)
 -->
<!-- Title: D:/Note_Database/Subject/MCETA Microcontroller Experiment TA/files/HT32_STD_5xxxx_FWLib_V1.5.1_7084b/example/USBD/Mass_Storage/main.c Pages: 1 -->
<svg width="841pt" height="412pt"
 viewBox="0.00 0.00 840.63 412.00" xmlns="http://www.w3.org/2000/svg" xmlns:xlink="http://www.w3.org/1999/xlink">
<g id="graph0" class="graph" transform="scale(1 1) rotate(0) translate(4 408)">
<title>D:/Note_Database/Subject/MCETA Microcontroller Experiment TA/files/HT32_STD_5xxxx_FWLib_V1.5.1_7084b/example/USBD/Mass_Storage/main.c</title>
<!-- Node1 -->
<g id="Node000001" class="node">
<title>Node1</title>
<g id="a_Node000001"><a xlink:title="The main program of USB Device Mass Storage example.">
<polygon fill="#999999" stroke="#666666" points="620.72,-404 436.72,-404 436.72,-336 620.72,-336 620.72,-404"/>
<text text-anchor="start" x="444.72" y="-390.5" font-family="Helvetica,sans-Serif" font-size="10.00">D:/Note_Database/Subject</text>
<text text-anchor="start" x="444.72" y="-378.5" font-family="Helvetica,sans-Serif" font-size="10.00">/MCETA Microcontroller</text>
<text text-anchor="start" x="444.72" y="-366.5" font-family="Helvetica,sans-Serif" font-size="10.00"> Experiment TA/files/HT32</text>
<text text-anchor="start" x="444.72" y="-354.5" font-family="Helvetica,sans-Serif" font-size="10.00">_STD_5xxxx_FWLib_V1.5.1_7084b</text>
<text text-anchor="middle" x="528.72" y="-342.5" font-family="Helvetica,sans-Serif" font-size="10.00">/example/USBD/Mass_Storage/main.c</text>
</a>
</g>
</g>
<!-- Node2 -->
<g id="Node000002" class="node">
<title>Node2</title>
<g id="a_Node000002"><a xlink:href="ht32_8h.html" target="_top" xlink:title="The API between application and HT32FXXXX Firmware Library.">
<polygon fill="white" stroke="#666666" points="342.22,-132 299.22,-132 299.22,-112 342.22,-112 342.22,-132"/>
<text text-anchor="middle" x="320.72" y="-118.5" font-family="Helvetica,sans-Serif" font-size="10.00">ht32.h</text>
</a>
</g>
</g>
<!-- Node1&#45;&gt;Node2 -->
<g id="edge1_Node000001_Node000002" class="edge">
<title>Node1&#45;&gt;Node2</title>
<g id="a_edge1_Node000001_Node000002"><a xlink:title=" ">
<path fill="none" stroke="#63b8ff" d="M621.19,-357.18C690.39,-346.28 776.88,-327.57 799.72,-300 837.21,-254.76 846.3,-211.41 806.72,-168 776.25,-134.57 458.45,-125.6 353.88,-123.54"/>
<polygon fill="#63b8ff" stroke="#63b8ff" points="354.07,-120.05 344,-123.36 353.93,-127.05 354.07,-120.05"/>
</a>
</g>
</g>
<!-- Node7 -->
<g id="Node000007" class="node">
<title>Node7</title>
<g id="a_Node000007"><a xlink:href="ht32__board_8h.html" target="_top" xlink:title="HT32 target board definition file.">
<polygon fill="white" stroke="#666666" points="251.85,-76 179.6,-76 179.6,-56 251.85,-56 251.85,-76"/>
<text text-anchor="middle" x="215.72" y="-62.5" font-family="Helvetica,sans-Serif" font-size="10.00">ht32_board.h</text>
</a>
</g>
</g>
<!-- Node1&#45;&gt;Node7 -->
<g id="edge6_Node000001_Node000007" class="edge">
<title>Node1&#45;&gt;Node7</title>
<g id="a_edge6_Node000001_Node000007"><a xlink:title=" ">
<path fill="none" stroke="#63b8ff" d="M436.45,-364.46C285.1,-354.45 0.72,-323.84 0.72,-235 0.72,-235 0.72,-235 0.72,-177 0.72,-146.9 -2.17,-132.65 19.72,-112 40.82,-92.11 117.02,-79.09 167.96,-72.4"/>
<polygon fill="#63b8ff" stroke="#63b8ff" points="168.39,-75.87 177.86,-71.14 167.5,-68.93 168.39,-75.87"/>
</a>
</g>
</g>
<!-- Node8 -->
<g id="Node000008" class="node">
<title>Node8</title>
<g id="a_Node000008"><a xlink:href="_u_s_b_d_2_mass___storage_2ht32__board__config_8h.html" target="_top" xlink:title="The header file of board configuration.">
<polygon fill="white" stroke="#666666" points="132.22,-132 29.22,-132 29.22,-112 132.22,-112 132.22,-132"/>
<text text-anchor="middle" x="80.72" y="-118.5" font-family="Helvetica,sans-Serif" font-size="10.00">ht32_board_config.h</text>
</a>
</g>
</g>
<!-- Node1&#45;&gt;Node8 -->
<g id="edge8_Node000001_Node000008" class="edge">
<title>Node1&#45;&gt;Node8</title>
<g id="a_edge8_Node000001_Node000008"><a xlink:title=" ">
<path fill="none" stroke="#63b8ff" d="M436.37,-348.95C354.11,-328.99 231.93,-294.07 133.72,-244 96.35,-224.94 76.65,-225.45 57.72,-188 50.07,-172.85 57.96,-154.53 66.51,-141.21"/>
<polygon fill="#63b8ff" stroke="#63b8ff" points="69.15,-143.55 72.07,-133.36 63.43,-139.5 69.15,-143.55"/>
</a>
</g>
</g>
<!-- Node9 -->
<g id="Node000009" class="node">
<title>Node9</title>
<g id="a_Node000009"><a xlink:href="ht32__usbd__core_8h.html" target="_top" xlink:title="The header file of standard protocol related function for HT32 USB Device Library.">
<polygon fill="white" stroke="#666666" points="660.35,-188 567.1,-188 567.1,-168 660.35,-168 660.35,-188"/>
<text text-anchor="middle" x="613.72" y="-174.5" font-family="Helvetica,sans-Serif" font-size="10.00">ht32_usbd_core.h</text>
</a>
</g>
</g>
<!-- Node1&#45;&gt;Node9 -->
<g id="edge9_Node000001_Node000009" class="edge">
<title>Node1&#45;&gt;Node9</title>
<g id="a_edge9_Node000001_Node000009"><a xlink:title=" ">
<path fill="none" stroke="#63b8ff" d="M533.42,-335.79C536.42,-318.77 541.03,-297.91 547.72,-280 557.69,-253.36 563.06,-247.74 578.72,-224 584.77,-214.84 592.15,-205.17 598.57,-197.15"/>
<polygon fill="#63b8ff" stroke="#63b8ff" points="601.19,-199.47 604.81,-189.51 595.77,-195.04 601.19,-199.47"/>
</a>
</g>
</g>
<!-- Node10 -->
<g id="Node000010" class="node">
<title>Node10</title>
<g id="a_Node000010"><a xlink:href="example_2_u_s_b_d_2_mass___storage_2ht32__usbd__class_8h.html" target="_top" xlink:title="The header file of USB Device Class.">
<polygon fill="white" stroke="#666666" points="654.6,-300 556.85,-300 556.85,-280 654.6,-280 654.6,-300"/>
<text text-anchor="middle" x="605.72" y="-286.5" font-family="Helvetica,sans-Serif" font-size="10.00">ht32_usbd_class.h</text>
</a>
</g>
</g>
<!-- Node1&#45;&gt;Node10 -->
<g id="edge10_Node000001_Node000010" class="edge">
<title>Node1&#45;&gt;Node10</title>
<g id="a_edge10_Node000001_Node000010"><a xlink:title=" ">
<path fill="none" stroke="#63b8ff" d="M561.38,-335.92C570.77,-326.41 580.64,-316.41 588.67,-308.27"/>
<polygon fill="#63b8ff" stroke="#63b8ff" points="590.97,-310.93 595.5,-301.36 585.99,-306.01 590.97,-310.93"/>
</a>
</g>
</g>
<!-- Node11 -->
<g id="Node000011" class="node">
<title>Node11</title>
<g id="a_Node000011"><a xlink:href="example_2_u_s_b_d_2_mass___storage_2ht32__usbd__descriptor_8h.html" target="_top" xlink:title="The USB descriptor.">
<polygon fill="white" stroke="#666666" points="790.35,-300 673.1,-300 673.1,-280 790.35,-280 790.35,-300"/>
<text text-anchor="middle" x="731.72" y="-286.5" font-family="Helvetica,sans-Serif" font-size="10.00">ht32_usbd_descriptor.h</text>
</a>
</g>
</g>
<!-- Node1&#45;&gt;Node11 -->
<g id="edge11_Node000001_Node000011" class="edge">
<title>Node1&#45;&gt;Node11</title>
<g id="a_edge11_Node000001_Node000011"><a xlink:title=" ">
<path fill="none" stroke="#63b8ff" d="M615.7,-335.58C644.24,-324.62 674.34,-313.05 696.73,-304.45"/>
<polygon fill="#63b8ff" stroke="#63b8ff" points="697.88,-307.75 705.96,-300.9 695.37,-301.22 697.88,-307.75"/>
</a>
</g>
</g>
<!-- Node12 -->
<g id="Node000012" class="node">
<title>Node12</title>
<g id="a_Node000012"><a xlink:href="_u_s_b_d_2_mass___storage_2__ht32__project__source_8h.html" target="_top" xlink:title="The project source code setting.">
<polygon fill="white" stroke="#666666" points="436.35,-300 319.1,-300 319.1,-280 436.35,-280 436.35,-300"/>
<text text-anchor="middle" x="377.72" y="-286.5" font-family="Helvetica,sans-Serif" font-size="10.00">_ht32_project_source.h</text>
</a>
</g>
</g>
<!-- Node1&#45;&gt;Node12 -->
<g id="edge12_Node000001_Node000012" class="edge">
<title>Node1&#45;&gt;Node12</title>
<g id="a_edge12_Node000001_Node000012"><a xlink:title=" ">
<path fill="none" stroke="#63b8ff" d="M464.25,-335.69C443.86,-325.17 422.38,-314.07 405.93,-305.57"/>
<polygon fill="#63b8ff" stroke="#63b8ff" points="407.73,-302.56 397.24,-301.08 404.52,-308.78 407.73,-302.56"/>
</a>
</g>
</g>
<!-- Node3 -->
<g id="Node000003" class="node">
<title>Node3</title>
<g id="a_Node000003"><a xlink:href="ht32f5xxxx__01_8h.html" target="_top" xlink:title="CMSIS Cortex&#45;M0+ Device Peripheral Access Layer Header File.">
<polygon fill="white" stroke="#666666" points="360.35,-76 273.1,-76 273.1,-56 360.35,-56 360.35,-76"/>
<text text-anchor="middle" x="316.72" y="-62.5" font-family="Helvetica,sans-Serif" font-size="10.00">ht32f5xxxx_01.h</text>
</a>
</g>
</g>
<!-- Node2&#45;&gt;Node3 -->
<g id="edge2_Node000002_Node000003" class="edge">
<title>Node2&#45;&gt;Node3</title>
<g id="a_edge2_Node000002_Node000003"><a xlink:title=" ">
<path fill="none" stroke="#63b8ff" d="M320.03,-111.59C319.54,-105.01 318.87,-95.96 318.26,-87.73"/>
<polygon fill="#63b8ff" stroke="#63b8ff" points="321.75,-87.52 317.53,-77.81 314.77,-88.04 321.75,-87.52"/>
</a>
</g>
</g>
<!-- Node4 -->
<g id="Node000004" class="node">
<title>Node4</title>
<g id="a_Node000004"><a xlink:href="ht32__config_8h.html" target="_top" xlink:title="Configuration file of HT32.">
<polygon fill="white" stroke="#666666" points="252.6,-20 178.85,-20 178.85,0 252.6,0 252.6,-20"/>
<text text-anchor="middle" x="215.72" y="-6.5" font-family="Helvetica,sans-Serif" font-size="10.00">ht32_config.h</text>
</a>
</g>
</g>
<!-- Node3&#45;&gt;Node4 -->
<g id="edge3_Node000003_Node000004" class="edge">
<title>Node3&#45;&gt;Node4</title>
<g id="a_edge3_Node000003_Node000004"><a xlink:title=" ">
<path fill="none" stroke="#63b8ff" d="M299.13,-55.59C283.8,-47.4 261.31,-35.37 243.54,-25.87"/>
<polygon fill="#63b8ff" stroke="#63b8ff" points="245.26,-22.82 234.79,-21.19 241.96,-28.99 245.26,-22.82"/>
</a>
</g>
</g>
<!-- Node5 -->
<g id="Node000005" class="node">
<title>Node5</title>
<g id="a_Node000005"><a xlink:title=" ">
<polygon fill="#e0e0e0" stroke="#999999" points="355.22,-20 270.22,-20 270.22,0 355.22,0 355.22,-20"/>
<text text-anchor="middle" x="312.72" y="-6.5" font-family="Helvetica,sans-Serif" font-size="10.00">core_cm0plus.h</text>
</a>
</g>
</g>
<!-- Node3&#45;&gt;Node5 -->
<g id="edge4_Node000003_Node000005" class="edge">
<title>Node3&#45;&gt;Node5</title>
<g id="a_edge4_Node000003_Node000005"><a xlink:title=" ">
<path fill="none" stroke="#63b8ff" d="M316.03,-55.59C315.54,-49.01 314.87,-39.96 314.26,-31.73"/>
<polygon fill="#63b8ff" stroke="#63b8ff" points="317.75,-31.52 313.53,-21.81 310.77,-32.04 317.75,-31.52"/>
</a>
</g>
</g>
<!-- Node6 -->
<g id="Node000006" class="node">
<title>Node6</title>
<g id="a_Node000006"><a xlink:href="system__ht32f5xxxx__01_8h.html" target="_top" xlink:title="CMSIS Cortex&#45;M0+ Device Peripheral Access Layer System Header File for the Holtek HT32F5xxxx Device S...">
<polygon fill="white" stroke="#666666" points="498.1,-20 373.35,-20 373.35,0 498.1,0 498.1,-20"/>
<text text-anchor="middle" x="435.72" y="-6.5" font-family="Helvetica,sans-Serif" font-size="10.00">system_ht32f5xxxx_01.h</text>
</a>
</g>
</g>
<!-- Node3&#45;&gt;Node6 -->
<g id="edge5_Node000003_Node000006" class="edge">
<title>Node3&#45;&gt;Node6</title>
<g id="a_edge5_Node000003_Node000006"><a xlink:title=" ">
<path fill="none" stroke="#63b8ff" d="M337.45,-55.59C355.94,-47.21 383.27,-34.8 404.42,-25.21"/>
<polygon fill="#63b8ff" stroke="#63b8ff" points="405.8,-28.42 413.46,-21.1 402.9,-22.05 405.8,-28.42"/>
</a>
</g>
</g>
<!-- Node7&#45;&gt;Node4 -->
<g id="edge7_Node000007_Node000004" class="edge">
<title>Node7&#45;&gt;Node4</title>
<g id="a_edge7_Node000007_Node000004"><a xlink:title=" ">
<path fill="none" stroke="#63b8ff" d="M215.72,-55.59C215.72,-49.01 215.72,-39.96 215.72,-31.73"/>
<polygon fill="#63b8ff" stroke="#63b8ff" points="219.22,-31.81 215.72,-21.81 212.22,-31.81 219.22,-31.81"/>
</a>
</g>
</g>
<!-- Node13 -->
<g id="Node000013" class="node">
<title>Node13</title>
<g id="a_Node000013"><a xlink:href="_mass___storage_2ram__disk_8c.html" target="_top" xlink:title="The RAM Disk related function.">
<polygon fill="white" stroke="#666666" points="352.72,-244 288.72,-244 288.72,-224 352.72,-224 352.72,-244"/>
<text text-anchor="middle" x="320.72" y="-230.5" font-family="Helvetica,sans-Serif" font-size="10.00">ram_disk.c</text>
</a>
</g>
</g>
<!-- Node12&#45;&gt;Node13 -->
<g id="edge13_Node000012_Node000013" class="edge">
<title>Node12&#45;&gt;Node13</title>
<g id="a_edge13_Node000012_Node000013"><a xlink:title=" ">
<path fill="none" stroke="#63b8ff" d="M367.8,-279.59C359.79,-272.01 348.31,-261.13 338.69,-252.02"/>
<polygon fill="#63b8ff" stroke="#63b8ff" points="341.3,-249.68 331.64,-245.34 336.49,-254.76 341.3,-249.68"/>
</a>
</g>
</g>
<!-- Node16 -->
<g id="Node000016" class="node">
<title>Node16</title>
<g id="a_Node000016"><a xlink:href="sd__disk_8c.html" target="_top" xlink:title="The SD Disk related function.">
<polygon fill="white" stroke="#666666" points="200.72,-244 142.72,-244 142.72,-224 200.72,-224 200.72,-244"/>
<text text-anchor="middle" x="171.72" y="-230.5" font-family="Helvetica,sans-Serif" font-size="10.00">sd_disk.c</text>
</a>
</g>
</g>
<!-- Node12&#45;&gt;Node16 -->
<g id="edge18_Node000012_Node000016" class="edge">
<title>Node12&#45;&gt;Node16</title>
<g id="a_edge18_Node000012_Node000016"><a xlink:title=" ">
<path fill="none" stroke="#63b8ff" d="M341.84,-279.59C305.7,-270.12 250.02,-255.52 212.29,-245.63"/>
<polygon fill="#63b8ff" stroke="#63b8ff" points="213.22,-242.26 202.66,-243.11 211.45,-249.03 213.22,-242.26"/>
</a>
</g>
</g>
<!-- Node19 -->
<g id="Node000019" class="node">
<title>Node19</title>
<g id="a_Node000019"><a xlink:href="spi__sd_8c.html" target="_top" xlink:title="The SD Memory card driver. Supports both SD and SDHC.">
<polygon fill="white" stroke="#666666" points="271.1,-244 218.35,-244 218.35,-224 271.1,-224 271.1,-244"/>
<text text-anchor="middle" x="244.72" y="-230.5" font-family="Helvetica,sans-Serif" font-size="10.00">spi_sd.c</text>
</a>
</g>
</g>
<!-- Node12&#45;&gt;Node19 -->
<g id="edge24_Node000012_Node000019" class="edge">
<title>Node12&#45;&gt;Node19</title>
<g id="a_edge24_Node000012_Node000019"><a xlink:title=" ">
<path fill="none" stroke="#63b8ff" d="M354.56,-279.59C333.52,-271.05 302.23,-258.35 278.42,-248.68"/>
<polygon fill="#63b8ff" stroke="#63b8ff" points="280.06,-245.57 269.47,-245.05 277.42,-252.05 280.06,-245.57"/>
</a>
</g>
</g>
<!-- Node20 -->
<g id="Node000020" class="node">
<title>Node20</title>
<g id="a_Node000020"><a xlink:href="_mass___storage_2usb__bulk__only__transport_8c.html" target="_top" xlink:title="The Bulk Only Transport (BOT).">
<polygon fill="white" stroke="#666666" points="500.72,-244 370.72,-244 370.72,-224 500.72,-224 500.72,-244"/>
<text text-anchor="middle" x="435.72" y="-230.5" font-family="Helvetica,sans-Serif" font-size="10.00">usb_bulk_only_transport.c</text>
</a>
</g>
</g>
<!-- Node12&#45;&gt;Node20 -->
<g id="edge27_Node000012_Node000020" class="edge">
<title>Node12&#45;&gt;Node20</title>
<g id="a_edge27_Node000012_Node000020"><a xlink:title=" ">
<path fill="none" stroke="#63b8ff" d="M387.83,-279.59C395.98,-272.01 407.66,-261.13 417.44,-252.02"/>
<polygon fill="#63b8ff" stroke="#63b8ff" points="419.7,-254.71 424.63,-245.33 414.93,-249.58 419.7,-254.71"/>
</a>
</g>
</g>
<!-- Node22 -->
<g id="Node000022" class="node">
<title>Node22</title>
<g id="a_Node000022"><a xlink:href="_mass___storage_2usb__scsi__block__command_8c.html" target="_top" xlink:title="The SCSI Block Command (SBC&#45;3 &amp; SPC&#45;4).">
<polygon fill="white" stroke="#666666" points="727.6,-244 587.85,-244 587.85,-224 727.6,-224 727.6,-244"/>
<text text-anchor="middle" x="657.72" y="-230.5" font-family="Helvetica,sans-Serif" font-size="10.00">usb_scsi_block_command.c</text>
</a>
</g>
</g>
<!-- Node12&#45;&gt;Node22 -->
<g id="edge33_Node000012_Node000022" class="edge">
<title>Node12&#45;&gt;Node22</title>
<g id="a_edge33_Node000012_Node000022"><a xlink:title=" ">
<path fill="none" stroke="#63b8ff" d="M426.82,-279.53C474.35,-270.36 546.52,-256.45 597.5,-246.61"/>
<polygon fill="#63b8ff" stroke="#63b8ff" points="598.05,-250.07 607.2,-244.74 596.72,-243.2 598.05,-250.07"/>
</a>
</g>
</g>
<!-- Node14 -->
<g id="Node000014" class="node">
<title>Node14</title>
<g id="a_Node000014"><a xlink:href="_mass___storage_2ram__disk_8h.html" target="_top" xlink:title="The header file of RAM Disk.">
<polygon fill="white" stroke="#666666" points="352.72,-188 288.72,-188 288.72,-168 352.72,-168 352.72,-188"/>
<text text-anchor="middle" x="320.72" y="-174.5" font-family="Helvetica,sans-Serif" font-size="10.00">ram_disk.h</text>
</a>
</g>
</g>
<!-- Node13&#45;&gt;Node14 -->
<g id="edge14_Node000013_Node000014" class="edge">
<title>Node13&#45;&gt;Node14</title>
<g id="a_edge14_Node000013_Node000014"><a xlink:title=" ">
<path fill="none" stroke="#63b8ff" d="M320.72,-223.59C320.72,-217.01 320.72,-207.96 320.72,-199.73"/>
<polygon fill="#63b8ff" stroke="#63b8ff" points="324.22,-199.81 320.72,-189.81 317.22,-199.81 324.22,-199.81"/>
</a>
</g>
</g>
<!-- Node14&#45;&gt;Node2 -->
<g id="edge15_Node000014_Node000002" class="edge">
<title>Node14&#45;&gt;Node2</title>
<g id="a_edge15_Node000014_Node000002"><a xlink:title=" ">
<path fill="none" stroke="#63b8ff" d="M320.72,-167.59C320.72,-161.01 320.72,-151.96 320.72,-143.73"/>
<polygon fill="#63b8ff" stroke="#63b8ff" points="324.22,-143.81 320.72,-133.81 317.22,-143.81 324.22,-143.81"/>
</a>
</g>
</g>
<!-- Node15 -->
<g id="Node000015" class="node">
<title>Node15</title>
<g id="a_Node000015"><a xlink:href="_mass___storage_2usb__bulk__only__transport_8h.html" target="_top" xlink:title="The header file of Bulk Only Transport.">
<polygon fill="white" stroke="#666666" points="280.72,-132 150.72,-132 150.72,-112 280.72,-112 280.72,-132"/>
<text text-anchor="middle" x="215.72" y="-118.5" font-family="Helvetica,sans-Serif" font-size="10.00">usb_bulk_only_transport.h</text>
</a>
</g>
</g>
<!-- Node14&#45;&gt;Node15 -->
<g id="edge16_Node000014_Node000015" class="edge">
<title>Node14&#45;&gt;Node15</title>
<g id="a_edge16_Node000014_Node000015"><a xlink:title=" ">
<path fill="none" stroke="#63b8ff" d="M302.43,-167.59C286.42,-159.36 262.89,-147.26 244.38,-137.74"/>
<polygon fill="#63b8ff" stroke="#63b8ff" points="246,-134.63 235.5,-133.17 242.79,-140.86 246,-134.63"/>
</a>
</g>
</g>
<!-- Node15&#45;&gt;Node7 -->
<g id="edge17_Node000015_Node000007" class="edge">
<title>Node15&#45;&gt;Node7</title>
<g id="a_edge17_Node000015_Node000007"><a xlink:title=" ">
<path fill="none" stroke="#63b8ff" d="M215.72,-111.59C215.72,-105.01 215.72,-95.96 215.72,-87.73"/>
<polygon fill="#63b8ff" stroke="#63b8ff" points="219.22,-87.81 215.72,-77.81 212.22,-87.81 219.22,-87.81"/>
</a>
</g>
</g>
<!-- Node17 -->
<g id="Node000017" class="node">
<title>Node17</title>
<g id="a_Node000017"><a xlink:href="sd__disk_8h.html" target="_top" xlink:title="The header file of SD Disk.">
<polygon fill="white" stroke="#666666" points="232.72,-188 174.72,-188 174.72,-168 232.72,-168 232.72,-188"/>
<text text-anchor="middle" x="203.72" y="-174.5" font-family="Helvetica,sans-Serif" font-size="10.00">sd_disk.h</text>
</a>
</g>
</g>
<!-- Node16&#45;&gt;Node17 -->
<g id="edge19_Node000016_Node000017" class="edge">
<title>Node16&#45;&gt;Node17</title>
<g id="a_edge19_Node000016_Node000017"><a xlink:title=" ">
<path fill="none" stroke="#63b8ff" d="M177.3,-223.59C181.47,-216.55 187.33,-206.67 192.46,-198"/>
<polygon fill="#63b8ff" stroke="#63b8ff" points="195.36,-199.99 197.44,-189.6 189.33,-196.42 195.36,-199.99"/>
</a>
</g>
</g>
<!-- Node18 -->
<g id="Node000018" class="node">
<title>Node18</title>
<g id="a_Node000018"><a xlink:href="spi__sd_8h.html" target="_top" xlink:title="The header file of SD Memory card driver.">
<polygon fill="white" stroke="#666666" points="119.1,-188 66.35,-188 66.35,-168 119.1,-168 119.1,-188"/>
<text text-anchor="middle" x="92.72" y="-174.5" font-family="Helvetica,sans-Serif" font-size="10.00">spi_sd.h</text>
</a>
</g>
</g>
<!-- Node16&#45;&gt;Node18 -->
<g id="edge22_Node000016_Node000018" class="edge">
<title>Node16&#45;&gt;Node18</title>
<g id="a_edge22_Node000016_Node000018"><a xlink:title=" ">
<path fill="none" stroke="#63b8ff" d="M157.96,-223.59C146.37,-215.67 129.53,-204.16 115.86,-194.82"/>
<polygon fill="#63b8ff" stroke="#63b8ff" points="118.07,-192.09 107.84,-189.33 114.12,-197.87 118.07,-192.09"/>
</a>
</g>
</g>
<!-- Node17&#45;&gt;Node2 -->
<g id="edge20_Node000017_Node000002" class="edge">
<title>Node17&#45;&gt;Node2</title>
<g id="a_edge20_Node000017_Node000002"><a xlink:title=" ">
<path fill="none" stroke="#63b8ff" d="M224.1,-167.59C242.28,-159.21 269.15,-146.8 289.94,-137.21"/>
<polygon fill="#63b8ff" stroke="#63b8ff" points="291.2,-140.48 298.81,-133.11 288.27,-134.13 291.2,-140.48"/>
</a>
</g>
</g>
<!-- Node17&#45;&gt;Node15 -->
<g id="edge21_Node000017_Node000015" class="edge">
<title>Node17&#45;&gt;Node15</title>
<g id="a_edge21_Node000017_Node000015"><a xlink:title=" ">
<path fill="none" stroke="#63b8ff" d="M205.81,-167.59C207.29,-160.93 209.34,-151.75 211.18,-143.44"/>
<polygon fill="#63b8ff" stroke="#63b8ff" points="214.58,-144.3 213.33,-133.78 207.74,-142.78 214.58,-144.3"/>
</a>
</g>
</g>
<!-- Node18&#45;&gt;Node8 -->
<g id="edge23_Node000018_Node000008" class="edge">
<title>Node18&#45;&gt;Node8</title>
<g id="a_edge23_Node000018_Node000008"><a xlink:title=" ">
<path fill="none" stroke="#63b8ff" d="M90.63,-167.59C89.15,-160.93 87.11,-151.75 85.27,-143.44"/>
<polygon fill="#63b8ff" stroke="#63b8ff" points="88.71,-142.78 83.12,-133.78 81.87,-144.3 88.71,-142.78"/>
</a>
</g>
</g>
<!-- Node19&#45;&gt;Node2 -->
<g id="edge25_Node000019_Node000002" class="edge">
<title>Node19&#45;&gt;Node2</title>
<g id="a_edge25_Node000019_Node000002"><a xlink:title=" ">
<path fill="none" stroke="#63b8ff" d="M248.82,-223.76C254.77,-210.77 266.54,-186.61 279.72,-168 286.56,-158.35 295.25,-148.54 302.87,-140.55"/>
<polygon fill="#63b8ff" stroke="#63b8ff" points="305.3,-143.08 309.81,-133.49 300.3,-138.18 305.3,-143.08"/>
</a>
</g>
</g>
<!-- Node19&#45;&gt;Node18 -->
<g id="edge26_Node000019_Node000018" class="edge">
<title>Node19&#45;&gt;Node18</title>
<g id="a_edge26_Node000019_Node000018"><a xlink:title=" ">
<path fill="none" stroke="#63b8ff" d="M218.25,-223.59C193.88,-214.94 157.47,-202 130.14,-192.29"/>
<polygon fill="#63b8ff" stroke="#63b8ff" points="131.43,-189.04 120.83,-188.99 129.08,-195.63 131.43,-189.04"/>
</a>
</g>
</g>
<!-- Node20&#45;&gt;Node2 -->
<g id="edge28_Node000020_Node000002" class="edge">
<title>Node20&#45;&gt;Node2</title>
<g id="a_edge28_Node000020_Node000002"><a xlink:title=" ">
<path fill="none" stroke="#63b8ff" d="M425.92,-223.62C406.57,-205.11 363.22,-163.65 338.63,-140.13"/>
<polygon fill="#63b8ff" stroke="#63b8ff" points="341.24,-137.78 331.6,-133.4 336.41,-142.84 341.24,-137.78"/>
</a>
</g>
</g>
<!-- Node20&#45;&gt;Node9 -->
<g id="edge29_Node000020_Node000009" class="edge">
<title>Node20&#45;&gt;Node9</title>
<g id="a_edge29_Node000020_Node000009"><a xlink:title=" ">
<path fill="none" stroke="#63b8ff" d="M466.73,-223.59C495.78,-214.78 539.42,-201.54 571.61,-191.78"/>
<polygon fill="#63b8ff" stroke="#63b8ff" points="572.48,-195.17 581.03,-188.92 570.44,-188.47 572.48,-195.17"/>
</a>
</g>
</g>
<!-- Node20&#45;&gt;Node14 -->
<g id="edge32_Node000020_Node000014" class="edge">
<title>Node20&#45;&gt;Node14</title>
<g id="a_edge32_Node000020_Node000014"><a xlink:title=" ">
<path fill="none" stroke="#63b8ff" d="M415.69,-223.59C397.91,-215.24 371.66,-202.92 351.26,-193.34"/>
<polygon fill="#63b8ff" stroke="#63b8ff" points="352.82,-190.21 342.28,-189.12 349.85,-196.54 352.82,-190.21"/>
</a>
</g>
</g>
<!-- Node20&#45;&gt;Node15 -->
<g id="edge30_Node000020_Node000015" class="edge">
<title>Node20&#45;&gt;Node15</title>
<g id="a_edge30_Node000020_Node000015"><a xlink:title=" ">
<path fill="none" stroke="#63b8ff" d="M370.4,-224.26C292.64,-213.53 172.35,-195.82 165.72,-188 151.93,-171.72 171.43,-152.22 189.96,-138.86"/>
<polygon fill="#63b8ff" stroke="#63b8ff" points="191.81,-141.83 198.13,-133.32 187.89,-136.03 191.81,-141.83"/>
</a>
</g>
</g>
<!-- Node21 -->
<g id="Node000021" class="node">
<title>Node21</title>
<g id="a_Node000021"><a xlink:href="_mass___storage_2usb__scsi__block__command_8h.html" target="_top" xlink:title="The header file of SCSI Block Command (SBC&#45;3 &amp; SPC&#45;4).">
<polygon fill="white" stroke="#666666" points="548.6,-188 408.85,-188 408.85,-168 548.6,-168 548.6,-188"/>
<text text-anchor="middle" x="478.72" y="-174.5" font-family="Helvetica,sans-Serif" font-size="10.00">usb_scsi_block_command.h</text>
</a>
</g>
</g>
<!-- Node20&#45;&gt;Node21 -->
<g id="edge31_Node000020_Node000021" class="edge">
<title>Node20&#45;&gt;Node21</title>
<g id="a_edge31_Node000020_Node000021"><a xlink:title=" ">
<path fill="none" stroke="#63b8ff" d="M443.21,-223.59C449.01,-216.32 457.21,-206.02 464.27,-197.15"/>
<polygon fill="#63b8ff" stroke="#63b8ff" points="466.89,-199.49 470.38,-189.48 461.41,-195.12 466.89,-199.49"/>
</a>
</g>
</g>
<!-- Node22&#45;&gt;Node2 -->
<g id="edge34_Node000022_Node000002" class="edge">
<title>Node22&#45;&gt;Node2</title>
<g id="a_edge34_Node000022_Node000002"><a xlink:title=" ">
<path fill="none" stroke="#63b8ff" d="M719.22,-223.57C765.08,-214.03 815.66,-196.55 789.72,-168 760.49,-135.82 456.33,-126.05 354.06,-123.67"/>
<polygon fill="#63b8ff" stroke="#63b8ff" points="354.21,-120.17 344.13,-123.45 354.05,-127.17 354.21,-120.17"/>
</a>
</g>
</g>
<!-- Node22&#45;&gt;Node9 -->
<g id="edge35_Node000022_Node000009" class="edge">
<title>Node22&#45;&gt;Node9</title>
<g id="a_edge35_Node000022_Node000009"><a xlink:title=" ">
<path fill="none" stroke="#63b8ff" d="M650.06,-223.59C644.13,-216.32 635.74,-206.02 628.51,-197.15"/>
<polygon fill="#63b8ff" stroke="#63b8ff" points="631.29,-195.01 622.26,-189.47 625.86,-199.43 631.29,-195.01"/>
</a>
</g>
</g>
<!-- Node22&#45;&gt;Node15 -->
<g id="edge36_Node000022_Node000015" class="edge">
<title>Node22&#45;&gt;Node15</title>
<g id="a_edge36_Node000022_Node000015"><a xlink:title=" ">
<path fill="none" stroke="#63b8ff" d="M663.68,-223.72C671.78,-209.79 683.78,-183.45 669.72,-168 642.87,-138.48 366.83,-136.64 292.31,-131.85"/>
<polygon fill="#63b8ff" stroke="#63b8ff" points="292.92,-128.39 282.67,-131.07 292.35,-135.37 292.92,-128.39"/>
</a>
</g>
</g>
<!-- Node22&#45;&gt;Node21 -->
<g id="edge37_Node000022_Node000021" class="edge">
<title>Node22&#45;&gt;Node21</title>
<g id="a_edge37_Node000022_Node000021"><a xlink:title=" ">
<path fill="none" stroke="#63b8ff" d="M626.55,-223.59C597.34,-214.78 553.45,-201.54 521.07,-191.78"/>
<polygon fill="#63b8ff" stroke="#63b8ff" points="522.18,-188.45 511.6,-188.92 520.16,-195.16 522.18,-188.45"/>
</a>
</g>
</g>
<!-- Node23 -->
<g id="Node000023" class="node">
<title>Node23</title>
<g id="a_Node000023"><a xlink:href="_mass___storage_2usb__scsi_8h.html" target="_top" xlink:title="The header file of SCSI Block Command (SBC&#45;3 &amp; SPC&#45;4).">
<polygon fill="white" stroke="#666666" points="780.35,-188 717.1,-188 717.1,-168 780.35,-168 780.35,-188"/>
<text text-anchor="middle" x="748.72" y="-174.5" font-family="Helvetica,sans-Serif" font-size="10.00">usb_scsi.h</text>
</a>
</g>
</g>
<!-- Node22&#45;&gt;Node23 -->
<g id="edge38_Node000022_Node000023" class="edge">
<title>Node22&#45;&gt;Node23</title>
<g id="a_edge38_Node000022_Node000023"><a xlink:title=" ">
<path fill="none" stroke="#63b8ff" d="M673.58,-223.59C687.19,-215.51 707.09,-203.71 722.99,-194.27"/>
<polygon fill="#63b8ff" stroke="#63b8ff" points="724.63,-197.37 731.45,-189.25 721.06,-191.35 724.63,-197.37"/>
</a>
</g>
</g>
</g>
</svg>
