<?xml version="1.0" encoding="UTF-8" standalone="no"?>
<!DOCTYPE svg PUBLIC "-//W3C//DTD SVG 1.1//EN"
 "http://www.w3.org/Graphics/SVG/1.1/DTD/svg11.dtd">
<!-- Generated by graphviz version 9.0.0 (20230911.1827)
 -->
<!-- Title: D:/Note_Database/Subject/MCETA Microcontroller Experiment TA/files/HT32_STD_5xxxx_FWLib_V1.5.1_7084b/example/USBD/USB_UAC_Sound/main.c Pages: 1 -->
<svg width="782pt" height="244pt"
 viewBox="0.00 0.00 781.75 244.00" xmlns="http://www.w3.org/2000/svg" xmlns:xlink="http://www.w3.org/1999/xlink">
<g id="graph0" class="graph" transform="scale(1 1) rotate(0) translate(4 240)">
<title>D:/Note_Database/Subject/MCETA Microcontroller Experiment TA/files/HT32_STD_5xxxx_FWLib_V1.5.1_7084b/example/USBD/USB_UAC_Sound/main.c</title>
<!-- Node1 -->
<g id="Node000001" class="node">
<title>Node1</title>
<g id="a_Node000001"><a xlink:title="The main program of USB Device Audio example.">
<polygon fill="#999999" stroke="#666666" points="409,-236 209.25,-236 209.25,-168 409,-168 409,-236"/>
<text text-anchor="start" x="217.25" y="-222.5" font-family="Helvetica,sans-Serif" font-size="10.00">D:/Note_Database/Subject</text>
<text text-anchor="start" x="217.25" y="-210.5" font-family="Helvetica,sans-Serif" font-size="10.00">/MCETA Microcontroller</text>
<text text-anchor="start" x="217.25" y="-198.5" font-family="Helvetica,sans-Serif" font-size="10.00"> Experiment TA/files/HT32</text>
<text text-anchor="start" x="217.25" y="-186.5" font-family="Helvetica,sans-Serif" font-size="10.00">_STD_5xxxx_FWLib_V1.5.1_7084b</text>
<text text-anchor="middle" x="309.12" y="-174.5" font-family="Helvetica,sans-Serif" font-size="10.00">/example/USBD/USB_UAC_Sound/main.c</text>
</a>
</g>
</g>
<!-- Node2 -->
<g id="Node000002" class="node">
<title>Node2</title>
<g id="a_Node000002"><a xlink:title=" ">
<polygon fill="#e0e0e0" stroke="#999999" points="48.25,-132 0,-132 0,-112 48.25,-112 48.25,-132"/>
<text text-anchor="middle" x="24.12" y="-118.5" font-family="Helvetica,sans-Serif" font-size="10.00">string.h</text>
</a>
</g>
</g>
<!-- Node1&#45;&gt;Node2 -->
<g id="edge1_Node000001_Node000002" class="edge">
<title>Node1&#45;&gt;Node2</title>
<g id="a_edge1_Node000001_Node000002"><a xlink:title=" ">
<path fill="none" stroke="#63b8ff" d="M209.05,-173.61C157.01,-159.37 96.67,-142.85 59.44,-132.67"/>
<polygon fill="#63b8ff" stroke="#63b8ff" points="60.69,-129.38 50.13,-130.12 58.85,-136.13 60.69,-129.38"/>
</a>
</g>
</g>
<!-- Node3 -->
<g id="Node000003" class="node">
<title>Node3</title>
<g id="a_Node000003"><a xlink:href="ht32_8h.html" target="_top" xlink:title="The API between application and HT32FXXXX Firmware Library.">
<polygon fill="white" stroke="#666666" points="147.62,-132 104.62,-132 104.62,-112 147.62,-112 147.62,-132"/>
<text text-anchor="middle" x="126.12" y="-118.5" font-family="Helvetica,sans-Serif" font-size="10.00">ht32.h</text>
</a>
</g>
</g>
<!-- Node1&#45;&gt;Node3 -->
<g id="edge2_Node000001_Node000003" class="edge">
<title>Node1&#45;&gt;Node3</title>
<g id="a_edge2_Node000001_Node000003"><a xlink:title=" ">
<path fill="none" stroke="#63b8ff" d="M230.72,-167.58C205.35,-156.77 178.6,-145.37 158.51,-136.8"/>
<polygon fill="#63b8ff" stroke="#63b8ff" points="160.04,-133.65 149.47,-132.95 157.3,-140.09 160.04,-133.65"/>
</a>
</g>
</g>
<!-- Node8 -->
<g id="Node000008" class="node">
<title>Node8</title>
<g id="a_Node000008"><a xlink:href="ht32__board_8h.html" target="_top" xlink:title="HT32 target board definition file.">
<polygon fill="white" stroke="#666666" points="88.25,-76 16,-76 16,-56 88.25,-56 88.25,-76"/>
<text text-anchor="middle" x="52.12" y="-62.5" font-family="Helvetica,sans-Serif" font-size="10.00">ht32_board.h</text>
</a>
</g>
</g>
<!-- Node1&#45;&gt;Node8 -->
<g id="edge7_Node000001_Node000008" class="edge">
<title>Node1&#45;&gt;Node8</title>
<g id="a_edge7_Node000001_Node000008"><a xlink:title=" ">
<path fill="none" stroke="#63b8ff" d="M208.76,-183.46C170.44,-173.14 128.09,-157.01 95.12,-132 79.65,-120.25 68,-101.23 60.76,-86.79"/>
<polygon fill="#63b8ff" stroke="#63b8ff" points="63.96,-85.37 56.55,-77.79 57.62,-88.33 63.96,-85.37"/>
</a>
</g>
</g>
<!-- Node9 -->
<g id="Node000009" class="node">
<title>Node9</title>
<g id="a_Node000009"><a xlink:href="_u_s_b_d_2_u_s_b___u_a_c___sound_2ht32__board__config_8h.html" target="_top" xlink:title="The header file of board configuration.">
<polygon fill="white" stroke="#666666" points="268.62,-132 165.62,-132 165.62,-112 268.62,-112 268.62,-132"/>
<text text-anchor="middle" x="217.12" y="-118.5" font-family="Helvetica,sans-Serif" font-size="10.00">ht32_board_config.h</text>
</a>
</g>
</g>
<!-- Node1&#45;&gt;Node9 -->
<g id="edge9_Node000001_Node000009" class="edge">
<title>Node1&#45;&gt;Node9</title>
<g id="a_edge9_Node000001_Node000009"><a xlink:title=" ">
<path fill="none" stroke="#63b8ff" d="M269.84,-167.69C258.41,-158.01 246.42,-147.84 236.77,-139.65"/>
<polygon fill="#63b8ff" stroke="#63b8ff" points="239.04,-136.99 229.15,-133.2 234.52,-142.33 239.04,-136.99"/>
</a>
</g>
</g>
<!-- Node10 -->
<g id="Node000010" class="node">
<title>Node10</title>
<g id="a_Node000010"><a xlink:href="_u_s_b_d_2_u_s_b___u_a_c___sound_2i2cm_8h.html" target="_top" xlink:title="The header file of I2C master driver.">
<polygon fill="white" stroke="#666666" points="331.75,-132 286.5,-132 286.5,-112 331.75,-112 331.75,-132"/>
<text text-anchor="middle" x="309.12" y="-118.5" font-family="Helvetica,sans-Serif" font-size="10.00">i2cm.h</text>
</a>
</g>
</g>
<!-- Node1&#45;&gt;Node10 -->
<g id="edge10_Node000001_Node000010" class="edge">
<title>Node1&#45;&gt;Node10</title>
<g id="a_edge10_Node000001_Node000010"><a xlink:title=" ">
<path fill="none" stroke="#63b8ff" d="M309.12,-167.92C309.12,-159.72 309.12,-151.17 309.12,-143.75"/>
<polygon fill="#63b8ff" stroke="#63b8ff" points="312.63,-143.79 309.13,-133.79 305.63,-143.79 312.63,-143.79"/>
</a>
</g>
</g>
<!-- Node11 -->
<g id="Node000011" class="node">
<title>Node11</title>
<g id="a_Node000011"><a xlink:href="_u_s_b_d_2_u_s_b___u_a_c___sound_2wm8978_8h.html" target="_top" xlink:title="The header file of wm8978 driver.">
<polygon fill="white" stroke="#666666" points="410.25,-132 350,-132 350,-112 410.25,-112 410.25,-132"/>
<text text-anchor="middle" x="380.12" y="-118.5" font-family="Helvetica,sans-Serif" font-size="10.00">wm8978.h</text>
</a>
</g>
</g>
<!-- Node1&#45;&gt;Node11 -->
<g id="edge11_Node000001_Node000011" class="edge">
<title>Node1&#45;&gt;Node11</title>
<g id="a_edge11_Node000001_Node000011"><a xlink:title=" ">
<path fill="none" stroke="#63b8ff" d="M339.24,-167.92C347.8,-158.51 356.8,-148.63 364.17,-140.53"/>
<polygon fill="#63b8ff" stroke="#63b8ff" points="366.52,-143.15 370.66,-133.4 361.34,-138.44 366.52,-143.15"/>
</a>
</g>
</g>
<!-- Node12 -->
<g id="Node000012" class="node">
<title>Node12</title>
<g id="a_Node000012"><a xlink:href="ht32__usbd__core_8h.html" target="_top" xlink:title="The header file of standard protocol related function for HT32 USB Device Library.">
<polygon fill="white" stroke="#666666" points="521.75,-132 428.5,-132 428.5,-112 521.75,-112 521.75,-132"/>
<text text-anchor="middle" x="475.12" y="-118.5" font-family="Helvetica,sans-Serif" font-size="10.00">ht32_usbd_core.h</text>
</a>
</g>
</g>
<!-- Node1&#45;&gt;Node12 -->
<g id="edge12_Node000001_Node000012" class="edge">
<title>Node1&#45;&gt;Node12</title>
<g id="a_edge12_Node000001_Node000012"><a xlink:title=" ">
<path fill="none" stroke="#63b8ff" d="M380.01,-167.69C402.73,-157.01 426.7,-145.75 444.89,-137.21"/>
<polygon fill="#63b8ff" stroke="#63b8ff" points="446.21,-140.45 453.78,-133.03 443.24,-134.12 446.21,-140.45"/>
</a>
</g>
</g>
<!-- Node13 -->
<g id="Node000013" class="node">
<title>Node13</title>
<g id="a_Node000013"><a xlink:href="example_2_u_s_b_d_2_u_s_b___u_a_c___sound_2ht32__usbd__class_8h.html" target="_top" xlink:title="The header file of USB Device Class.">
<polygon fill="white" stroke="#666666" points="638,-132 540.25,-132 540.25,-112 638,-112 638,-132"/>
<text text-anchor="middle" x="589.12" y="-118.5" font-family="Helvetica,sans-Serif" font-size="10.00">ht32_usbd_class.h</text>
</a>
</g>
</g>
<!-- Node1&#45;&gt;Node13 -->
<g id="edge13_Node000001_Node000013" class="edge">
<title>Node1&#45;&gt;Node13</title>
<g id="a_edge13_Node000001_Node000013"><a xlink:title=" ">
<path fill="none" stroke="#63b8ff" d="M409.42,-173.06C455.64,-160.19 508.15,-145.56 544.42,-135.45"/>
<polygon fill="#63b8ff" stroke="#63b8ff" points="544.98,-138.93 553.67,-132.88 543.1,-132.19 544.98,-138.93"/>
</a>
</g>
</g>
<!-- Node14 -->
<g id="Node000014" class="node">
<title>Node14</title>
<g id="a_Node000014"><a xlink:href="example_2_u_s_b_d_2_u_s_b___u_a_c___sound_2ht32__usbd__descriptor_8h.html" target="_top" xlink:title="The USB descriptor.">
<polygon fill="white" stroke="#666666" points="773.75,-132 656.5,-132 656.5,-112 773.75,-112 773.75,-132"/>
<text text-anchor="middle" x="715.12" y="-118.5" font-family="Helvetica,sans-Serif" font-size="10.00">ht32_usbd_descriptor.h</text>
</a>
</g>
</g>
<!-- Node1&#45;&gt;Node14 -->
<g id="edge14_Node000001_Node000014" class="edge">
<title>Node1&#45;&gt;Node14</title>
<g id="a_edge14_Node000001_Node000014"><a xlink:title=" ">
<path fill="none" stroke="#63b8ff" d="M409.48,-181.72C486.35,-166.95 589.86,-147.06 654.53,-134.64"/>
<polygon fill="#63b8ff" stroke="#63b8ff" points="655.1,-138.1 664.26,-132.77 653.78,-131.22 655.1,-138.1"/>
</a>
</g>
</g>
<!-- Node4 -->
<g id="Node000004" class="node">
<title>Node4</title>
<g id="a_Node000004"><a xlink:href="ht32f5xxxx__01_8h.html" target="_top" xlink:title="CMSIS Cortex&#45;M0+ Device Peripheral Access Layer Header File.">
<polygon fill="white" stroke="#666666" points="193.75,-76 106.5,-76 106.5,-56 193.75,-56 193.75,-76"/>
<text text-anchor="middle" x="150.12" y="-62.5" font-family="Helvetica,sans-Serif" font-size="10.00">ht32f5xxxx_01.h</text>
</a>
</g>
</g>
<!-- Node3&#45;&gt;Node4 -->
<g id="edge3_Node000003_Node000004" class="edge">
<title>Node3&#45;&gt;Node4</title>
<g id="a_edge3_Node000003_Node000004"><a xlink:title=" ">
<path fill="none" stroke="#63b8ff" d="M130.31,-111.59C133.37,-104.7 137.64,-95.1 141.43,-86.57"/>
<polygon fill="#63b8ff" stroke="#63b8ff" points="144.51,-88.24 145.38,-77.68 138.12,-85.4 144.51,-88.24"/>
</a>
</g>
</g>
<!-- Node5 -->
<g id="Node000005" class="node">
<title>Node5</title>
<g id="a_Node000005"><a xlink:href="ht32__config_8h.html" target="_top" xlink:title="Configuration file of HT32.">
<polygon fill="white" stroke="#666666" points="89,-20 15.25,-20 15.25,0 89,0 89,-20"/>
<text text-anchor="middle" x="52.12" y="-6.5" font-family="Helvetica,sans-Serif" font-size="10.00">ht32_config.h</text>
</a>
</g>
</g>
<!-- Node4&#45;&gt;Node5 -->
<g id="edge4_Node000004_Node000005" class="edge">
<title>Node4&#45;&gt;Node5</title>
<g id="a_edge4_Node000004_Node000005"><a xlink:title=" ">
<path fill="none" stroke="#63b8ff" d="M133.05,-55.59C118.25,-47.44 96.56,-35.48 79.36,-26"/>
<polygon fill="#63b8ff" stroke="#63b8ff" points="81.1,-22.97 70.65,-21.21 77.72,-29.1 81.1,-22.97"/>
</a>
</g>
</g>
<!-- Node6 -->
<g id="Node000006" class="node">
<title>Node6</title>
<g id="a_Node000006"><a xlink:title=" ">
<polygon fill="#e0e0e0" stroke="#999999" points="191.62,-20 106.62,-20 106.62,0 191.62,0 191.62,-20"/>
<text text-anchor="middle" x="149.12" y="-6.5" font-family="Helvetica,sans-Serif" font-size="10.00">core_cm0plus.h</text>
</a>
</g>
</g>
<!-- Node4&#45;&gt;Node6 -->
<g id="edge5_Node000004_Node000006" class="edge">
<title>Node4&#45;&gt;Node6</title>
<g id="a_edge5_Node000004_Node000006"><a xlink:title=" ">
<path fill="none" stroke="#63b8ff" d="M149.95,-55.59C149.83,-49.01 149.66,-39.96 149.51,-31.73"/>
<polygon fill="#63b8ff" stroke="#63b8ff" points="153.01,-31.75 149.33,-21.81 146.01,-31.87 153.01,-31.75"/>
</a>
</g>
</g>
<!-- Node7 -->
<g id="Node000007" class="node">
<title>Node7</title>
<g id="a_Node000007"><a xlink:href="system__ht32f5xxxx__01_8h.html" target="_top" xlink:title="CMSIS Cortex&#45;M0+ Device Peripheral Access Layer System Header File for the Holtek HT32F5xxxx Device S...">
<polygon fill="white" stroke="#666666" points="334.5,-20 209.75,-20 209.75,0 334.5,0 334.5,-20"/>
<text text-anchor="middle" x="272.12" y="-6.5" font-family="Helvetica,sans-Serif" font-size="10.00">system_ht32f5xxxx_01.h</text>
</a>
</g>
</g>
<!-- Node4&#45;&gt;Node7 -->
<g id="edge6_Node000004_Node000007" class="edge">
<title>Node4&#45;&gt;Node7</title>
<g id="a_edge6_Node000004_Node000007"><a xlink:title=" ">
<path fill="none" stroke="#63b8ff" d="M171.38,-55.59C190.41,-47.17 218.6,-34.69 240.33,-25.07"/>
<polygon fill="#63b8ff" stroke="#63b8ff" points="241.6,-28.34 249.32,-21.09 238.76,-21.94 241.6,-28.34"/>
</a>
</g>
</g>
<!-- Node8&#45;&gt;Node5 -->
<g id="edge8_Node000008_Node000005" class="edge">
<title>Node8&#45;&gt;Node5</title>
<g id="a_edge8_Node000008_Node000005"><a xlink:title=" ">
<path fill="none" stroke="#63b8ff" d="M52.12,-55.59C52.12,-49.01 52.12,-39.96 52.12,-31.73"/>
<polygon fill="#63b8ff" stroke="#63b8ff" points="55.63,-31.81 52.13,-21.81 48.63,-31.81 55.63,-31.81"/>
</a>
</g>
</g>
</g>
</svg>
