<?xml version="1.0" encoding="UTF-8" standalone="no"?>
<!DOCTYPE svg PUBLIC "-//W3C//DTD SVG 1.1//EN"
 "http://www.w3.org/Graphics/SVG/1.1/DTD/svg11.dtd">
<!-- Generated by graphviz version 9.0.0 (20230911.1827)
 -->
<!-- Title: D:/Note_Database/Subject/MCETA Microcontroller Experiment TA/files/HT32_STD_5xxxx_FWLib_V1.5.1_7084b/example/Mono_LCD/LCD_module/main.c Pages: 1 -->
<svg width="414pt" height="412pt"
 viewBox="0.00 0.00 414.12 412.00" xmlns="http://www.w3.org/2000/svg" xmlns:xlink="http://www.w3.org/1999/xlink">
<g id="graph0" class="graph" transform="scale(1 1) rotate(0) translate(4 408)">
<title>D:/Note_Database/Subject/MCETA Microcontroller Experiment TA/files/HT32_STD_5xxxx_FWLib_V1.5.1_7084b/example/Mono_LCD/LCD_module/main.c</title>
<!-- Node1 -->
<g id="Node000001" class="node">
<title>Node1</title>
<g id="a_Node000001"><a xlink:title="Main program.">
<polygon fill="#999999" stroke="#666666" points="325.38,-404 127.88,-404 127.88,-336 325.38,-336 325.38,-404"/>
<text text-anchor="start" x="135.88" y="-390.5" font-family="Helvetica,sans-Serif" font-size="10.00">D:/Note_Database/Subject</text>
<text text-anchor="start" x="135.88" y="-378.5" font-family="Helvetica,sans-Serif" font-size="10.00">/MCETA Microcontroller</text>
<text text-anchor="start" x="135.88" y="-366.5" font-family="Helvetica,sans-Serif" font-size="10.00"> Experiment TA/files/HT32</text>
<text text-anchor="start" x="135.88" y="-354.5" font-family="Helvetica,sans-Serif" font-size="10.00">_STD_5xxxx_FWLib_V1.5.1_7084b</text>
<text text-anchor="middle" x="226.62" y="-342.5" font-family="Helvetica,sans-Serif" font-size="10.00">/example/Mono_LCD/LCD_module/main.c</text>
</a>
</g>
</g>
<!-- Node2 -->
<g id="Node000002" class="node">
<title>Node2</title>
<g id="a_Node000002"><a xlink:href="ht32_8h.html" target="_top" xlink:title="The API between application and HT32FXXXX Firmware Library.">
<polygon fill="white" stroke="#666666" points="262.12,-132 219.12,-132 219.12,-112 262.12,-112 262.12,-132"/>
<text text-anchor="middle" x="240.62" y="-118.5" font-family="Helvetica,sans-Serif" font-size="10.00">ht32.h</text>
</a>
</g>
</g>
<!-- Node1&#45;&gt;Node2 -->
<g id="edge1_Node000001_Node000002" class="edge">
<title>Node1&#45;&gt;Node2</title>
<g id="a_edge1_Node000001_Node000002"><a xlink:title=" ">
<path fill="none" stroke="#63b8ff" d="M245.69,-335.73C251.45,-324.63 257.37,-312.03 261.62,-300 278.61,-252.01 280.26,-238.62 285.62,-188 286.56,-179.16 289.03,-176.21 285.62,-168 280.98,-156.79 272.04,-146.91 263.34,-139.29"/>
<polygon fill="#63b8ff" stroke="#63b8ff" points="265.71,-136.71 255.73,-133.15 261.32,-142.16 265.71,-136.71"/>
</a>
</g>
</g>
<!-- Node7 -->
<g id="Node000007" class="node">
<title>Node7</title>
<g id="a_Node000007"><a xlink:href="_mono___l_c_d_2_l_c_d__module_2ht32__board__config_8h.html" target="_top" xlink:title="The header file of board configuration.">
<polygon fill="white" stroke="#666666" points="238.12,-300 135.12,-300 135.12,-280 238.12,-280 238.12,-300"/>
<text text-anchor="middle" x="186.62" y="-286.5" font-family="Helvetica,sans-Serif" font-size="10.00">ht32_board_config.h</text>
</a>
</g>
</g>
<!-- Node1&#45;&gt;Node7 -->
<g id="edge6_Node000001_Node000007" class="edge">
<title>Node1&#45;&gt;Node7</title>
<g id="a_edge6_Node000001_Node000007"><a xlink:title=" ">
<path fill="none" stroke="#63b8ff" d="M209.66,-335.92C205.2,-327.22 200.53,-318.11 196.57,-310.39"/>
<polygon fill="#63b8ff" stroke="#63b8ff" points="199.75,-308.93 192.07,-301.62 193.52,-312.12 199.75,-308.93"/>
</a>
</g>
</g>
<!-- Node8 -->
<g id="Node000008" class="node">
<title>Node8</title>
<g id="a_Node000008"><a xlink:href="_mono___l_c_d_2_l_c_d__module_2__ht32__project__source_8h.html" target="_top" xlink:title="The project source code setting.">
<polygon fill="white" stroke="#666666" points="117.25,-300 0,-300 0,-280 117.25,-280 117.25,-300"/>
<text text-anchor="middle" x="58.62" y="-286.5" font-family="Helvetica,sans-Serif" font-size="10.00">_ht32_project_source.h</text>
</a>
</g>
</g>
<!-- Node1&#45;&gt;Node8 -->
<g id="edge7_Node000001_Node000008" class="edge">
<title>Node1&#45;&gt;Node8</title>
<g id="a_edge7_Node000001_Node000008"><a xlink:title=" ">
<path fill="none" stroke="#63b8ff" d="M154.89,-335.69C131.89,-325.01 107.63,-313.75 89.22,-305.21"/>
<polygon fill="#63b8ff" stroke="#63b8ff" points="90.76,-302.06 80.22,-301.02 87.81,-308.41 90.76,-302.06"/>
</a>
</g>
</g>
<!-- Node11 -->
<g id="Node000011" class="node">
<title>Node11</title>
<g id="a_Node000011"><a xlink:href="lcd___e_s_k32___a3_a31_8h.html" target="_top" xlink:title="The header file of LCD_module.c.">
<polygon fill="white" stroke="#666666" points="276.38,-188 168.88,-188 168.88,-168 276.38,-168 276.38,-188"/>
<text text-anchor="middle" x="222.62" y="-174.5" font-family="Helvetica,sans-Serif" font-size="10.00">lcd_ESK32_A3A31.h</text>
</a>
</g>
</g>
<!-- Node1&#45;&gt;Node11 -->
<g id="edge13_Node000001_Node000011" class="edge">
<title>Node1&#45;&gt;Node11</title>
<g id="a_edge13_Node000001_Node000011"><a xlink:title=" ">
<path fill="none" stroke="#63b8ff" d="M238.91,-335.77C242.46,-324.57 245.86,-311.89 247.62,-300 252.97,-264.06 240.3,-222.71 231.11,-198.84"/>
<polygon fill="#63b8ff" stroke="#63b8ff" points="234.43,-197.7 227.42,-189.75 227.94,-200.33 234.43,-197.7"/>
</a>
</g>
</g>
<!-- Node3 -->
<g id="Node000003" class="node">
<title>Node3</title>
<g id="a_Node000003"><a xlink:href="ht32f5xxxx__01_8h.html" target="_top" xlink:title="CMSIS Cortex&#45;M0+ Device Peripheral Access Layer Header File.">
<polygon fill="white" stroke="#666666" points="284.25,-76 197,-76 197,-56 284.25,-56 284.25,-76"/>
<text text-anchor="middle" x="240.62" y="-62.5" font-family="Helvetica,sans-Serif" font-size="10.00">ht32f5xxxx_01.h</text>
</a>
</g>
</g>
<!-- Node2&#45;&gt;Node3 -->
<g id="edge2_Node000002_Node000003" class="edge">
<title>Node2&#45;&gt;Node3</title>
<g id="a_edge2_Node000002_Node000003"><a xlink:title=" ">
<path fill="none" stroke="#63b8ff" d="M240.62,-111.59C240.62,-105.01 240.62,-95.96 240.62,-87.73"/>
<polygon fill="#63b8ff" stroke="#63b8ff" points="244.13,-87.81 240.63,-77.81 237.13,-87.81 244.13,-87.81"/>
</a>
</g>
</g>
<!-- Node4 -->
<g id="Node000004" class="node">
<title>Node4</title>
<g id="a_Node000004"><a xlink:href="ht32__config_8h.html" target="_top" xlink:title="Configuration file of HT32.">
<polygon fill="white" stroke="#666666" points="160.5,-20 86.75,-20 86.75,0 160.5,0 160.5,-20"/>
<text text-anchor="middle" x="123.62" y="-6.5" font-family="Helvetica,sans-Serif" font-size="10.00">ht32_config.h</text>
</a>
</g>
</g>
<!-- Node3&#45;&gt;Node4 -->
<g id="edge3_Node000003_Node000004" class="edge">
<title>Node3&#45;&gt;Node4</title>
<g id="a_edge3_Node000003_Node000004"><a xlink:title=" ">
<path fill="none" stroke="#63b8ff" d="M220.25,-55.59C202.07,-47.21 175.2,-34.8 154.41,-25.21"/>
<polygon fill="#63b8ff" stroke="#63b8ff" points="156.08,-22.13 145.54,-21.11 153.15,-28.48 156.08,-22.13"/>
</a>
</g>
</g>
<!-- Node5 -->
<g id="Node000005" class="node">
<title>Node5</title>
<g id="a_Node000005"><a xlink:title=" ">
<polygon fill="#e0e0e0" stroke="#999999" points="406.12,-20 321.12,-20 321.12,0 406.12,0 406.12,-20"/>
<text text-anchor="middle" x="363.62" y="-6.5" font-family="Helvetica,sans-Serif" font-size="10.00">core_cm0plus.h</text>
</a>
</g>
</g>
<!-- Node3&#45;&gt;Node5 -->
<g id="edge4_Node000003_Node000005" class="edge">
<title>Node3&#45;&gt;Node5</title>
<g id="a_edge4_Node000003_Node000005"><a xlink:title=" ">
<path fill="none" stroke="#63b8ff" d="M262.05,-55.59C281.25,-47.17 309.67,-34.69 331.57,-25.07"/>
<polygon fill="#63b8ff" stroke="#63b8ff" points="332.9,-28.31 340.65,-21.09 330.08,-21.9 332.9,-28.31"/>
</a>
</g>
</g>
<!-- Node6 -->
<g id="Node000006" class="node">
<title>Node6</title>
<g id="a_Node000006"><a xlink:href="system__ht32f5xxxx__01_8h.html" target="_top" xlink:title="CMSIS Cortex&#45;M0+ Device Peripheral Access Layer System Header File for the Holtek HT32F5xxxx Device S...">
<polygon fill="white" stroke="#666666" points="303,-20 178.25,-20 178.25,0 303,0 303,-20"/>
<text text-anchor="middle" x="240.62" y="-6.5" font-family="Helvetica,sans-Serif" font-size="10.00">system_ht32f5xxxx_01.h</text>
</a>
</g>
</g>
<!-- Node3&#45;&gt;Node6 -->
<g id="edge5_Node000003_Node000006" class="edge">
<title>Node3&#45;&gt;Node6</title>
<g id="a_edge5_Node000003_Node000006"><a xlink:title=" ">
<path fill="none" stroke="#63b8ff" d="M240.62,-55.59C240.62,-49.01 240.62,-39.96 240.62,-31.73"/>
<polygon fill="#63b8ff" stroke="#63b8ff" points="244.13,-31.81 240.63,-21.81 237.13,-31.81 244.13,-31.81"/>
</a>
</g>
</g>
<!-- Node9 -->
<g id="Node000009" class="node">
<title>Node9</title>
<g id="a_Node000009"><a xlink:href="lcd___e_s_k32___a3_a31_8c.html" target="_top" xlink:title="The file provides firmware functions to LCD.">
<polygon fill="white" stroke="#666666" points="177.38,-244 69.88,-244 69.88,-224 177.38,-224 177.38,-244"/>
<text text-anchor="middle" x="123.62" y="-230.5" font-family="Helvetica,sans-Serif" font-size="10.00">lcd_ESK32_A3A31.c</text>
</a>
</g>
</g>
<!-- Node8&#45;&gt;Node9 -->
<g id="edge8_Node000008_Node000009" class="edge">
<title>Node8&#45;&gt;Node9</title>
<g id="a_edge8_Node000008_Node000009"><a xlink:title=" ">
<path fill="none" stroke="#63b8ff" d="M69.95,-279.59C79.27,-271.85 92.7,-260.69 103.8,-251.47"/>
<polygon fill="#63b8ff" stroke="#63b8ff" points="105.81,-254.35 111.27,-245.27 101.34,-248.96 105.81,-254.35"/>
</a>
</g>
</g>
<!-- Node10 -->
<g id="Node000010" class="node">
<title>Node10</title>
<g id="a_Node000010"><a xlink:href="ht32__lcd__board_8h.html" target="_top" xlink:title="HT32 target board definition file.">
<polygon fill="white" stroke="#666666" points="168.75,-132 78.5,-132 78.5,-112 168.75,-112 168.75,-132"/>
<text text-anchor="middle" x="123.62" y="-118.5" font-family="Helvetica,sans-Serif" font-size="10.00">ht32_lcd_board.h</text>
</a>
</g>
</g>
<!-- Node9&#45;&gt;Node10 -->
<g id="edge9_Node000009_Node000010" class="edge">
<title>Node9&#45;&gt;Node10</title>
<g id="a_edge9_Node000009_Node000010"><a xlink:title=" ">
<path fill="none" stroke="#63b8ff" d="M123.62,-223.62C123.62,-206.01 123.62,-167.59 123.62,-143.65"/>
<polygon fill="#63b8ff" stroke="#63b8ff" points="127.13,-143.87 123.63,-133.87 120.13,-143.87 127.13,-143.87"/>
</a>
</g>
</g>
<!-- Node9&#45;&gt;Node11 -->
<g id="edge11_Node000009_Node000011" class="edge">
<title>Node9&#45;&gt;Node11</title>
<g id="a_edge11_Node000009_Node000011"><a xlink:title=" ">
<path fill="none" stroke="#63b8ff" d="M140.87,-223.59C155.97,-215.36 178.15,-203.26 195.61,-193.74"/>
<polygon fill="#63b8ff" stroke="#63b8ff" points="196.81,-197.07 203.92,-189.2 193.46,-190.92 196.81,-197.07"/>
</a>
</g>
</g>
<!-- Node10&#45;&gt;Node4 -->
<g id="edge10_Node000010_Node000004" class="edge">
<title>Node10&#45;&gt;Node4</title>
<g id="a_edge10_Node000010_Node000004"><a xlink:title=" ">
<path fill="none" stroke="#63b8ff" d="M123.62,-111.62C123.62,-94.01 123.62,-55.59 123.62,-31.65"/>
<polygon fill="#63b8ff" stroke="#63b8ff" points="127.13,-31.87 123.63,-21.87 120.13,-31.87 127.13,-31.87"/>
</a>
</g>
</g>
<!-- Node11&#45;&gt;Node2 -->
<g id="edge12_Node000011_Node000002" class="edge">
<title>Node11&#45;&gt;Node2</title>
<g id="a_edge12_Node000011_Node000002"><a xlink:title=" ">
<path fill="none" stroke="#63b8ff" d="M225.76,-167.59C228.01,-160.86 231.11,-151.53 233.91,-143.15"/>
<polygon fill="#63b8ff" stroke="#63b8ff" points="237.2,-144.33 237.05,-133.73 230.56,-142.11 237.2,-144.33"/>
</a>
</g>
</g>
</g>
</svg>
