<?xml version="1.0" encoding="UTF-8" standalone="no"?>
<!DOCTYPE svg PUBLIC "-//W3C//DTD SVG 1.1//EN"
 "http://www.w3.org/Graphics/SVG/1.1/DTD/svg11.dtd">
<!-- Generated by graphviz version 9.0.0 (20230911.1827)
 -->
<!-- Title: D:/Note_Database/Subject/MCETA Microcontroller Experiment TA/files/HT32_STD_5xxxx_FWLib_V1.5.1_7084b/example/I2S/CodecLoopback_PDMA/main.c Pages: 1 -->
<svg width="327pt" height="300pt"
 viewBox="0.00 0.00 327.25 300.00" xmlns="http://www.w3.org/2000/svg" xmlns:xlink="http://www.w3.org/1999/xlink">
<g id="graph0" class="graph" transform="scale(1 1) rotate(0) translate(4 296)">
<title>D:/Note_Database/Subject/MCETA Microcontroller Experiment TA/files/HT32_STD_5xxxx_FWLib_V1.5.1_7084b/example/I2S/CodecLoopback_PDMA/main.c</title>
<!-- Node1 -->
<g id="Node000001" class="node">
<title>Node1</title>
<g id="a_Node000001"><a xlink:title="Main program.">
<polygon fill="#999999" stroke="#666666" points="239.75,-292 28,-292 28,-224 239.75,-224 239.75,-292"/>
<text text-anchor="start" x="36" y="-278.5" font-family="Helvetica,sans-Serif" font-size="10.00">D:/Note_Database/Subject</text>
<text text-anchor="start" x="36" y="-266.5" font-family="Helvetica,sans-Serif" font-size="10.00">/MCETA Microcontroller</text>
<text text-anchor="start" x="36" y="-254.5" font-family="Helvetica,sans-Serif" font-size="10.00"> Experiment TA/files/HT32</text>
<text text-anchor="start" x="36" y="-242.5" font-family="Helvetica,sans-Serif" font-size="10.00">_STD_5xxxx_FWLib_V1.5.1_7084b</text>
<text text-anchor="middle" x="133.88" y="-230.5" font-family="Helvetica,sans-Serif" font-size="10.00">/example/I2S/CodecLoopback_PDMA/main.c</text>
</a>
</g>
</g>
<!-- Node2 -->
<g id="Node000002" class="node">
<title>Node2</title>
<g id="a_Node000002"><a xlink:href="ht32_8h.html" target="_top" xlink:title="The API between application and HT32FXXXX Firmware Library.">
<polygon fill="white" stroke="#666666" points="155.38,-132 112.38,-132 112.38,-112 155.38,-112 155.38,-132"/>
<text text-anchor="middle" x="133.88" y="-118.5" font-family="Helvetica,sans-Serif" font-size="10.00">ht32.h</text>
</a>
</g>
</g>
<!-- Node1&#45;&gt;Node2 -->
<g id="edge1_Node000001_Node000002" class="edge">
<title>Node1&#45;&gt;Node2</title>
<g id="a_edge1_Node000001_Node000002"><a xlink:title=" ">
<path fill="none" stroke="#63b8ff" d="M106.03,-223.55C95.66,-207.02 87.92,-186.65 94.88,-168 98.86,-157.33 106.63,-147.51 114.2,-139.79"/>
<polygon fill="#63b8ff" stroke="#63b8ff" points="116.17,-142.73 121.04,-133.32 111.37,-137.65 116.17,-142.73"/>
</a>
</g>
</g>
<!-- Node7 -->
<g id="Node000007" class="node">
<title>Node7</title>
<g id="a_Node000007"><a xlink:href="ht32__board_8h.html" target="_top" xlink:title="HT32 target board definition file.">
<polygon fill="white" stroke="#666666" points="73,-76 0.75,-76 0.75,-56 73,-56 73,-76"/>
<text text-anchor="middle" x="36.88" y="-62.5" font-family="Helvetica,sans-Serif" font-size="10.00">ht32_board.h</text>
</a>
</g>
</g>
<!-- Node1&#45;&gt;Node7 -->
<g id="edge6_Node000001_Node000007" class="edge">
<title>Node1&#45;&gt;Node7</title>
<g id="a_edge6_Node000001_Node000007"><a xlink:title=" ">
<path fill="none" stroke="#63b8ff" d="M110.48,-223.66C103.14,-212.57 95.29,-199.98 88.88,-188 70.49,-153.69 53.56,-111.5 44.28,-87.09"/>
<polygon fill="#63b8ff" stroke="#63b8ff" points="47.58,-85.91 40.8,-77.78 41.03,-88.37 47.58,-85.91"/>
</a>
</g>
</g>
<!-- Node8 -->
<g id="Node000008" class="node">
<title>Node8</title>
<g id="a_Node000008"><a xlink:href="_i2_s_2_codec_loopback___p_d_m_a_2ht32__board__config_8h.html" target="_top" xlink:title="The header file of board configuration.">
<polygon fill="white" stroke="#666666" points="291.38,-132 188.38,-132 188.38,-112 291.38,-112 291.38,-132"/>
<text text-anchor="middle" x="239.88" y="-118.5" font-family="Helvetica,sans-Serif" font-size="10.00">ht32_board_config.h</text>
</a>
</g>
</g>
<!-- Node1&#45;&gt;Node8 -->
<g id="edge8_Node000001_Node000008" class="edge">
<title>Node1&#45;&gt;Node8</title>
<g id="a_edge8_Node000001_Node000008"><a xlink:title=" ">
<path fill="none" stroke="#63b8ff" d="M203.38,-223.58C216.66,-213.96 228.89,-202.16 236.88,-188 244.52,-174.44 244.8,-156.64 243.44,-143.1"/>
<polygon fill="#63b8ff" stroke="#63b8ff" points="246.96,-143.01 242.09,-133.6 240.03,-143.99 246.96,-143.01"/>
</a>
</g>
</g>
<!-- Node9 -->
<g id="Node000009" class="node">
<title>Node9</title>
<g id="a_Node000009"><a xlink:href="_i2_s_2_codec_loopback___p_d_m_a_2i2cm_8h.html" target="_top" xlink:title="The header file of I2C master driver.">
<polygon fill="white" stroke="#666666" points="227.5,-188 182.25,-188 182.25,-168 227.5,-168 227.5,-188"/>
<text text-anchor="middle" x="204.88" y="-174.5" font-family="Helvetica,sans-Serif" font-size="10.00">i2cm.h</text>
</a>
</g>
</g>
<!-- Node1&#45;&gt;Node9 -->
<g id="edge9_Node000001_Node000009" class="edge">
<title>Node1&#45;&gt;Node9</title>
<g id="a_edge9_Node000001_Node000009"><a xlink:title=" ">
<path fill="none" stroke="#63b8ff" d="M163.99,-223.92C172.55,-214.51 181.55,-204.63 188.92,-196.53"/>
<polygon fill="#63b8ff" stroke="#63b8ff" points="191.27,-199.15 195.41,-189.4 186.09,-194.44 191.27,-199.15"/>
</a>
</g>
</g>
<!-- Node10 -->
<g id="Node000010" class="node">
<title>Node10</title>
<g id="a_Node000010"><a xlink:href="_i2_s_2_codec_loopback___p_d_m_a_2wm8978_8h.html" target="_top" xlink:title="The header file of wm8978 driver.">
<polygon fill="white" stroke="#666666" points="164,-188 103.75,-188 103.75,-168 164,-168 164,-188"/>
<text text-anchor="middle" x="133.88" y="-174.5" font-family="Helvetica,sans-Serif" font-size="10.00">wm8978.h</text>
</a>
</g>
</g>
<!-- Node1&#45;&gt;Node10 -->
<g id="edge12_Node000001_Node000010" class="edge">
<title>Node1&#45;&gt;Node10</title>
<g id="a_edge12_Node000001_Node000010"><a xlink:title=" ">
<path fill="none" stroke="#63b8ff" d="M133.88,-223.92C133.88,-215.72 133.88,-207.17 133.88,-199.75"/>
<polygon fill="#63b8ff" stroke="#63b8ff" points="137.38,-199.79 133.88,-189.79 130.38,-199.79 137.38,-199.79"/>
</a>
</g>
</g>
<!-- Node3 -->
<g id="Node000003" class="node">
<title>Node3</title>
<g id="a_Node000003"><a xlink:href="ht32f5xxxx__01_8h.html" target="_top" xlink:title="CMSIS Cortex&#45;M0+ Device Peripheral Access Layer Header File.">
<polygon fill="white" stroke="#666666" points="178.5,-76 91.25,-76 91.25,-56 178.5,-56 178.5,-76"/>
<text text-anchor="middle" x="134.88" y="-62.5" font-family="Helvetica,sans-Serif" font-size="10.00">ht32f5xxxx_01.h</text>
</a>
</g>
</g>
<!-- Node2&#45;&gt;Node3 -->
<g id="edge2_Node000002_Node000003" class="edge">
<title>Node2&#45;&gt;Node3</title>
<g id="a_edge2_Node000002_Node000003"><a xlink:title=" ">
<path fill="none" stroke="#63b8ff" d="M134.05,-111.59C134.17,-105.01 134.34,-95.96 134.49,-87.73"/>
<polygon fill="#63b8ff" stroke="#63b8ff" points="137.99,-87.87 134.67,-77.81 130.99,-87.75 137.99,-87.87"/>
</a>
</g>
</g>
<!-- Node4 -->
<g id="Node000004" class="node">
<title>Node4</title>
<g id="a_Node000004"><a xlink:href="ht32__config_8h.html" target="_top" xlink:title="Configuration file of HT32.">
<polygon fill="white" stroke="#666666" points="73.75,-20 0,-20 0,0 73.75,0 73.75,-20"/>
<text text-anchor="middle" x="36.88" y="-6.5" font-family="Helvetica,sans-Serif" font-size="10.00">ht32_config.h</text>
</a>
</g>
</g>
<!-- Node3&#45;&gt;Node4 -->
<g id="edge3_Node000003_Node000004" class="edge">
<title>Node3&#45;&gt;Node4</title>
<g id="a_edge3_Node000003_Node000004"><a xlink:title=" ">
<path fill="none" stroke="#63b8ff" d="M117.8,-55.59C103,-47.44 81.31,-35.48 64.11,-26"/>
<polygon fill="#63b8ff" stroke="#63b8ff" points="65.85,-22.97 55.4,-21.21 62.47,-29.1 65.85,-22.97"/>
</a>
</g>
</g>
<!-- Node5 -->
<g id="Node000005" class="node">
<title>Node5</title>
<g id="a_Node000005"><a xlink:title=" ">
<polygon fill="#e0e0e0" stroke="#999999" points="176.38,-20 91.38,-20 91.38,0 176.38,0 176.38,-20"/>
<text text-anchor="middle" x="133.88" y="-6.5" font-family="Helvetica,sans-Serif" font-size="10.00">core_cm0plus.h</text>
</a>
</g>
</g>
<!-- Node3&#45;&gt;Node5 -->
<g id="edge4_Node000003_Node000005" class="edge">
<title>Node3&#45;&gt;Node5</title>
<g id="a_edge4_Node000003_Node000005"><a xlink:title=" ">
<path fill="none" stroke="#63b8ff" d="M134.7,-55.59C134.58,-49.01 134.41,-39.96 134.26,-31.73"/>
<polygon fill="#63b8ff" stroke="#63b8ff" points="137.76,-31.75 134.08,-21.81 130.76,-31.87 137.76,-31.75"/>
</a>
</g>
</g>
<!-- Node6 -->
<g id="Node000006" class="node">
<title>Node6</title>
<g id="a_Node000006"><a xlink:href="system__ht32f5xxxx__01_8h.html" target="_top" xlink:title="CMSIS Cortex&#45;M0+ Device Peripheral Access Layer System Header File for the Holtek HT32F5xxxx Device S...">
<polygon fill="white" stroke="#666666" points="319.25,-20 194.5,-20 194.5,0 319.25,0 319.25,-20"/>
<text text-anchor="middle" x="256.88" y="-6.5" font-family="Helvetica,sans-Serif" font-size="10.00">system_ht32f5xxxx_01.h</text>
</a>
</g>
</g>
<!-- Node3&#45;&gt;Node6 -->
<g id="edge5_Node000003_Node000006" class="edge">
<title>Node3&#45;&gt;Node6</title>
<g id="a_edge5_Node000003_Node000006"><a xlink:title=" ">
<path fill="none" stroke="#63b8ff" d="M156.13,-55.59C175.16,-47.17 203.35,-34.69 225.08,-25.07"/>
<polygon fill="#63b8ff" stroke="#63b8ff" points="226.35,-28.34 234.07,-21.09 223.51,-21.94 226.35,-28.34"/>
</a>
</g>
</g>
<!-- Node7&#45;&gt;Node4 -->
<g id="edge7_Node000007_Node000004" class="edge">
<title>Node7&#45;&gt;Node4</title>
<g id="a_edge7_Node000007_Node000004"><a xlink:title=" ">
<path fill="none" stroke="#63b8ff" d="M36.88,-55.59C36.88,-49.01 36.88,-39.96 36.88,-31.73"/>
<polygon fill="#63b8ff" stroke="#63b8ff" points="40.38,-31.81 36.88,-21.81 33.38,-31.81 40.38,-31.81"/>
</a>
</g>
</g>
<!-- Node9&#45;&gt;Node2 -->
<g id="edge10_Node000009_Node000002" class="edge">
<title>Node9&#45;&gt;Node2</title>
<g id="a_edge10_Node000009_Node000002"><a xlink:title=" ">
<path fill="none" stroke="#63b8ff" d="M192.51,-167.59C182.23,-159.77 167.36,-148.46 155.16,-139.19"/>
<polygon fill="#63b8ff" stroke="#63b8ff" points="157.38,-136.48 147.31,-133.21 153.15,-142.05 157.38,-136.48"/>
</a>
</g>
</g>
<!-- Node9&#45;&gt;Node8 -->
<g id="edge11_Node000009_Node000008" class="edge">
<title>Node9&#45;&gt;Node8</title>
<g id="a_edge11_Node000009_Node000008"><a xlink:title=" ">
<path fill="none" stroke="#63b8ff" d="M210.97,-167.59C215.59,-160.47 222.08,-150.45 227.74,-141.72"/>
<polygon fill="#63b8ff" stroke="#63b8ff" points="230.52,-143.86 233.03,-133.57 224.65,-140.06 230.52,-143.86"/>
</a>
</g>
</g>
<!-- Node10&#45;&gt;Node2 -->
<g id="edge13_Node000010_Node000002" class="edge">
<title>Node10&#45;&gt;Node2</title>
<g id="a_edge13_Node000010_Node000002"><a xlink:title=" ">
<path fill="none" stroke="#63b8ff" d="M133.88,-167.59C133.88,-161.01 133.88,-151.96 133.88,-143.73"/>
<polygon fill="#63b8ff" stroke="#63b8ff" points="137.38,-143.81 133.88,-133.81 130.38,-143.81 137.38,-143.81"/>
</a>
</g>
</g>
</g>
</svg>
