<?xml version="1.0" encoding="UTF-8" standalone="no"?>
<!DOCTYPE svg PUBLIC "-//W3C//DTD SVG 1.1//EN"
 "http://www.w3.org/Graphics/SVG/1.1/DTD/svg11.dtd">
<!-- Generated by graphviz version 9.0.0 (20230911.1827)
 -->
<!-- Title: D:/Note_Database/Subject/MCETA Microcontroller Experiment TA/files/HT32_STD_5xxxx_FWLib_V1.5.1_7084b/example/USBD/HID_Keyboard_Virtual_COM/ht32_usbd_class.c Pages: 1 -->
<svg width="529pt" height="368pt"
 viewBox="0.00 0.00 528.62 368.00" xmlns="http://www.w3.org/2000/svg" xmlns:xlink="http://www.w3.org/1999/xlink">
<g id="graph0" class="graph" transform="scale(1 1) rotate(0) translate(4 364)">
<title>D:/Note_Database/Subject/MCETA Microcontroller Experiment TA/files/HT32_STD_5xxxx_FWLib_V1.5.1_7084b/example/USBD/HID_Keyboard_Virtual_COM/ht32_usbd_class.c</title>
<!-- Node1 -->
<g id="Node000001" class="node">
<title>Node1</title>
<g id="a_Node000001"><a xlink:title="The USB Device Class.">
<polygon fill="#999999" stroke="#666666" points="383.12,-360 199.12,-360 199.12,-280 383.12,-280 383.12,-360"/>
<text text-anchor="start" x="207.12" y="-346.5" font-family="Helvetica,sans-Serif" font-size="10.00">D:/Note_Database/Subject</text>
<text text-anchor="start" x="207.12" y="-334.5" font-family="Helvetica,sans-Serif" font-size="10.00">/MCETA Microcontroller</text>
<text text-anchor="start" x="207.12" y="-322.5" font-family="Helvetica,sans-Serif" font-size="10.00"> Experiment TA/files/HT32</text>
<text text-anchor="start" x="207.12" y="-310.5" font-family="Helvetica,sans-Serif" font-size="10.00">_STD_5xxxx_FWLib_V1.5.1_7084b</text>
<text text-anchor="start" x="207.12" y="-298.5" font-family="Helvetica,sans-Serif" font-size="10.00">/example/USBD/HID_Keyboard_Virtual</text>
<text text-anchor="middle" x="291.12" y="-286.5" font-family="Helvetica,sans-Serif" font-size="10.00">_COM/ht32_usbd_class.c</text>
</a>
</g>
</g>
<!-- Node2 -->
<g id="Node000002" class="node">
<title>Node2</title>
<g id="a_Node000002"><a xlink:href="ht32_8h.html" target="_top" xlink:title="The API between application and HT32FXXXX Firmware Library.">
<polygon fill="white" stroke="#666666" points="387.62,-132 344.62,-132 344.62,-112 387.62,-112 387.62,-132"/>
<text text-anchor="middle" x="366.12" y="-118.5" font-family="Helvetica,sans-Serif" font-size="10.00">ht32.h</text>
</a>
</g>
</g>
<!-- Node1&#45;&gt;Node2 -->
<g id="edge1_Node000001_Node000002" class="edge">
<title>Node1&#45;&gt;Node2</title>
<g id="a_edge1_Node000001_Node000002"><a xlink:title=" ">
<path fill="none" stroke="#63b8ff" d="M383.53,-279.78C398,-270 411.37,-258.16 421.12,-244 440.43,-215.99 445.8,-198.19 430.12,-168 423.23,-154.72 410.42,-144.54 398.06,-137.25"/>
<polygon fill="#63b8ff" stroke="#63b8ff" points="399.72,-134.17 389.26,-132.51 396.41,-140.33 399.72,-134.17"/>
</a>
</g>
</g>
<!-- Node7 -->
<g id="Node000007" class="node">
<title>Node7</title>
<g id="a_Node000007"><a xlink:href="ht32__board_8h.html" target="_top" xlink:title="HT32 target board definition file.">
<polygon fill="white" stroke="#666666" points="72.25,-188 0,-188 0,-168 72.25,-168 72.25,-188"/>
<text text-anchor="middle" x="36.12" y="-174.5" font-family="Helvetica,sans-Serif" font-size="10.00">ht32_board.h</text>
</a>
</g>
</g>
<!-- Node1&#45;&gt;Node7 -->
<g id="edge6_Node000001_Node000007" class="edge">
<title>Node1&#45;&gt;Node7</title>
<g id="a_edge6_Node000001_Node000007"><a xlink:title=" ">
<path fill="none" stroke="#63b8ff" d="M198.72,-312.09C148.4,-303.51 88.88,-284.74 51.12,-244 40.04,-232.04 36.61,-213.58 35.77,-199.39"/>
<polygon fill="#63b8ff" stroke="#63b8ff" points="39.28,-199.73 35.6,-189.79 32.28,-199.85 39.28,-199.73"/>
</a>
</g>
</g>
<!-- Node8 -->
<g id="Node000008" class="node">
<title>Node8</title>
<g id="a_Node000008"><a xlink:href="ht32__usbd__core_8h.html" target="_top" xlink:title="The header file of standard protocol related function for HT32 USB Device Library.">
<polygon fill="white" stroke="#666666" points="280.75,-244 187.5,-244 187.5,-224 280.75,-224 280.75,-244"/>
<text text-anchor="middle" x="234.12" y="-230.5" font-family="Helvetica,sans-Serif" font-size="10.00">ht32_usbd_core.h</text>
</a>
</g>
</g>
<!-- Node1&#45;&gt;Node8 -->
<g id="edge8_Node000001_Node000008" class="edge">
<title>Node1&#45;&gt;Node8</title>
<g id="a_edge8_Node000001_Node000008"><a xlink:title=" ">
<path fill="none" stroke="#63b8ff" d="M264.63,-279.95C258.47,-270.88 252.19,-261.62 246.94,-253.89"/>
<polygon fill="#63b8ff" stroke="#63b8ff" points="249.89,-252 241.38,-245.69 244.1,-255.93 249.89,-252"/>
</a>
</g>
</g>
<!-- Node9 -->
<g id="Node000009" class="node">
<title>Node9</title>
<g id="a_Node000009"><a xlink:href="example_2_u_s_b_d_2_h_i_d___keyboard___virtual___c_o_m_2ht32__usbd__class_8h.html" target="_top" xlink:title="The header file of USB Device Class.">
<polygon fill="white" stroke="#666666" points="397,-244 299.25,-244 299.25,-224 397,-224 397,-244"/>
<text text-anchor="middle" x="348.12" y="-230.5" font-family="Helvetica,sans-Serif" font-size="10.00">ht32_usbd_class.h</text>
</a>
</g>
</g>
<!-- Node1&#45;&gt;Node9 -->
<g id="edge9_Node000001_Node000009" class="edge">
<title>Node1&#45;&gt;Node9</title>
<g id="a_edge9_Node000001_Node000009"><a xlink:title=" ">
<path fill="none" stroke="#63b8ff" d="M317.62,-279.95C323.78,-270.88 330.06,-261.62 335.31,-253.89"/>
<polygon fill="#63b8ff" stroke="#63b8ff" points="338.15,-255.93 340.87,-245.69 332.36,-252 338.15,-255.93"/>
</a>
</g>
</g>
<!-- Node10 -->
<g id="Node000010" class="node">
<title>Node10</title>
<g id="a_Node000010"><a xlink:href="ring__buffer_8h.html" target="_top" xlink:title="The header file of ring buffer.">
<polygon fill="white" stroke="#666666" points="420.62,-188 311.62,-188 311.62,-168 420.62,-168 420.62,-188"/>
<text text-anchor="middle" x="366.12" y="-174.5" font-family="Helvetica,sans-Serif" font-size="10.00">common/ring_buffer.h</text>
</a>
</g>
</g>
<!-- Node1&#45;&gt;Node10 -->
<g id="edge10_Node000001_Node000010" class="edge">
<title>Node1&#45;&gt;Node10</title>
<g id="a_edge10_Node000001_Node000010"><a xlink:title=" ">
<path fill="none" stroke="#63b8ff" d="M374.18,-279.68C387.02,-269.87 398.52,-258.04 406.12,-244 415.22,-227.21 401.4,-208.73 387.59,-195.78"/>
<polygon fill="#63b8ff" stroke="#63b8ff" points="390.18,-193.39 380.33,-189.49 385.59,-198.68 390.18,-193.39"/>
</a>
</g>
</g>
<!-- Node11 -->
<g id="Node000011" class="node">
<title>Node11</title>
<g id="a_Node000011"><a xlink:href="ring__buffer_8c.html" target="_top" xlink:title="Ring buffer related functions.">
<polygon fill="white" stroke="#666666" points="169.62,-244 60.62,-244 60.62,-224 169.62,-224 169.62,-244"/>
<text text-anchor="middle" x="115.12" y="-230.5" font-family="Helvetica,sans-Serif" font-size="10.00">common/ring_buffer.c</text>
</a>
</g>
</g>
<!-- Node1&#45;&gt;Node11 -->
<g id="edge12_Node000001_Node000011" class="edge">
<title>Node1&#45;&gt;Node11</title>
<g id="a_edge12_Node000001_Node000011"><a xlink:title=" ">
<path fill="none" stroke="#63b8ff" d="M208.54,-279.58C185.76,-268.71 162.49,-257.61 144.88,-249.2"/>
<polygon fill="#63b8ff" stroke="#63b8ff" points="146.59,-246.14 136.06,-244.99 143.58,-252.46 146.59,-246.14"/>
</a>
</g>
</g>
<!-- Node3 -->
<g id="Node000003" class="node">
<title>Node3</title>
<g id="a_Node000003"><a xlink:href="ht32f5xxxx__01_8h.html" target="_top" xlink:title="CMSIS Cortex&#45;M0+ Device Peripheral Access Layer Header File.">
<polygon fill="white" stroke="#666666" points="402.75,-76 315.5,-76 315.5,-56 402.75,-56 402.75,-76"/>
<text text-anchor="middle" x="359.12" y="-62.5" font-family="Helvetica,sans-Serif" font-size="10.00">ht32f5xxxx_01.h</text>
</a>
</g>
</g>
<!-- Node2&#45;&gt;Node3 -->
<g id="edge2_Node000002_Node000003" class="edge">
<title>Node2&#45;&gt;Node3</title>
<g id="a_edge2_Node000002_Node000003"><a xlink:title=" ">
<path fill="none" stroke="#63b8ff" d="M364.91,-111.59C364.04,-104.93 362.85,-95.75 361.77,-87.44"/>
<polygon fill="#63b8ff" stroke="#63b8ff" points="365.28,-87.27 360.52,-77.8 358.34,-88.17 365.28,-87.27"/>
</a>
</g>
</g>
<!-- Node4 -->
<g id="Node000004" class="node">
<title>Node4</title>
<g id="a_Node000004"><a xlink:href="ht32__config_8h.html" target="_top" xlink:title="Configuration file of HT32.">
<polygon fill="white" stroke="#666666" points="246,-20 172.25,-20 172.25,0 246,0 246,-20"/>
<text text-anchor="middle" x="209.12" y="-6.5" font-family="Helvetica,sans-Serif" font-size="10.00">ht32_config.h</text>
</a>
</g>
</g>
<!-- Node3&#45;&gt;Node4 -->
<g id="edge3_Node000003_Node000004" class="edge">
<title>Node3&#45;&gt;Node4</title>
<g id="a_edge3_Node000003_Node000004"><a xlink:title=" ">
<path fill="none" stroke="#63b8ff" d="M333,-55.59C308.95,-46.94 273.02,-34 246.04,-24.29"/>
<polygon fill="#63b8ff" stroke="#63b8ff" points="247.48,-21.09 236.88,-20.99 245.1,-27.67 247.48,-21.09"/>
</a>
</g>
</g>
<!-- Node5 -->
<g id="Node000005" class="node">
<title>Node5</title>
<g id="a_Node000005"><a xlink:title=" ">
<polygon fill="#e0e0e0" stroke="#999999" points="520.62,-20 435.62,-20 435.62,0 520.62,0 520.62,-20"/>
<text text-anchor="middle" x="478.12" y="-6.5" font-family="Helvetica,sans-Serif" font-size="10.00">core_cm0plus.h</text>
</a>
</g>
</g>
<!-- Node3&#45;&gt;Node5 -->
<g id="edge4_Node000003_Node000005" class="edge">
<title>Node3&#45;&gt;Node5</title>
<g id="a_edge4_Node000003_Node000005"><a xlink:title=" ">
<path fill="none" stroke="#63b8ff" d="M379.85,-55.59C398.34,-47.21 425.67,-34.8 446.82,-25.21"/>
<polygon fill="#63b8ff" stroke="#63b8ff" points="448.2,-28.42 455.86,-21.1 445.3,-22.05 448.2,-28.42"/>
</a>
</g>
</g>
<!-- Node6 -->
<g id="Node000006" class="node">
<title>Node6</title>
<g id="a_Node000006"><a xlink:href="system__ht32f5xxxx__01_8h.html" target="_top" xlink:title="CMSIS Cortex&#45;M0+ Device Peripheral Access Layer System Header File for the Holtek HT32F5xxxx Device S...">
<polygon fill="white" stroke="#666666" points="417.5,-20 292.75,-20 292.75,0 417.5,0 417.5,-20"/>
<text text-anchor="middle" x="355.12" y="-6.5" font-family="Helvetica,sans-Serif" font-size="10.00">system_ht32f5xxxx_01.h</text>
</a>
</g>
</g>
<!-- Node3&#45;&gt;Node6 -->
<g id="edge5_Node000003_Node000006" class="edge">
<title>Node3&#45;&gt;Node6</title>
<g id="a_edge5_Node000003_Node000006"><a xlink:title=" ">
<path fill="none" stroke="#63b8ff" d="M358.43,-55.59C357.94,-49.01 357.27,-39.96 356.66,-31.73"/>
<polygon fill="#63b8ff" stroke="#63b8ff" points="360.15,-31.52 355.93,-21.81 353.17,-32.04 360.15,-31.52"/>
</a>
</g>
</g>
<!-- Node7&#45;&gt;Node4 -->
<g id="edge7_Node000007_Node000004" class="edge">
<title>Node7&#45;&gt;Node4</title>
<g id="a_edge7_Node000007_Node000004"><a xlink:title=" ">
<path fill="none" stroke="#63b8ff" d="M45.92,-167.6C73.99,-140.66 155.02,-62.92 191.25,-28.15"/>
<polygon fill="#63b8ff" stroke="#63b8ff" points="193.55,-30.79 198.34,-21.35 188.7,-25.74 193.55,-30.79"/>
</a>
</g>
</g>
<!-- Node10&#45;&gt;Node2 -->
<g id="edge11_Node000010_Node000002" class="edge">
<title>Node10&#45;&gt;Node2</title>
<g id="a_edge11_Node000010_Node000002"><a xlink:title=" ">
<path fill="none" stroke="#63b8ff" d="M366.12,-167.59C366.12,-161.01 366.12,-151.96 366.12,-143.73"/>
<polygon fill="#63b8ff" stroke="#63b8ff" points="369.63,-143.81 366.13,-133.81 362.63,-143.81 369.63,-143.81"/>
</a>
</g>
</g>
<!-- Node11&#45;&gt;Node10 -->
<g id="edge13_Node000011_Node000010" class="edge">
<title>Node11&#45;&gt;Node10</title>
<g id="a_edge13_Node000011_Node000010"><a xlink:title=" ">
<path fill="none" stroke="#63b8ff" d="M159.13,-223.53C201.39,-214.44 265.35,-200.68 310.99,-190.86"/>
<polygon fill="#63b8ff" stroke="#63b8ff" points="311.65,-194.3 320.69,-188.78 310.18,-187.46 311.65,-194.3"/>
</a>
</g>
</g>
</g>
</svg>
