<?xml version="1.0" encoding="UTF-8" standalone="no"?>
<!DOCTYPE svg PUBLIC "-//W3C//DTD SVG 1.1//EN"
 "http://www.w3.org/Graphics/SVG/1.1/DTD/svg11.dtd">
<!-- Generated by graphviz version 9.0.0 (20230911.1827)
 -->
<!-- Title: D:/Note_Database/Subject/MCETA Microcontroller Experiment TA/files/HT32_STD_5xxxx_FWLib_V1.5.1_7084b/example/USBD/USB_Video/ht32_usbd_descriptor.c Pages: 1 -->
<svg width="475pt" height="256pt"
 viewBox="0.00 0.00 474.50 256.00" xmlns="http://www.w3.org/2000/svg" xmlns:xlink="http://www.w3.org/1999/xlink">
<g id="graph0" class="graph" transform="scale(1 1) rotate(0) translate(4 252)">
<title>D:/Note_Database/Subject/MCETA Microcontroller Experiment TA/files/HT32_STD_5xxxx_FWLib_V1.5.1_7084b/example/USBD/USB_Video/ht32_usbd_descriptor.c</title>
<!-- Node1 -->
<g id="Node000001" class="node">
<title>Node1</title>
<g id="a_Node000001"><a xlink:title="The USB Descriptor.">
<polygon fill="#999999" stroke="#666666" points="387.12,-248 216.62,-248 216.62,-168 387.12,-168 387.12,-248"/>
<text text-anchor="start" x="224.62" y="-234.5" font-family="Helvetica,sans-Serif" font-size="10.00">D:/Note_Database/Subject</text>
<text text-anchor="start" x="224.62" y="-222.5" font-family="Helvetica,sans-Serif" font-size="10.00">/MCETA Microcontroller</text>
<text text-anchor="start" x="224.62" y="-210.5" font-family="Helvetica,sans-Serif" font-size="10.00"> Experiment TA/files/HT32</text>
<text text-anchor="start" x="224.62" y="-198.5" font-family="Helvetica,sans-Serif" font-size="10.00">_STD_5xxxx_FWLib_V1.5.1_7084b</text>
<text text-anchor="start" x="224.62" y="-186.5" font-family="Helvetica,sans-Serif" font-size="10.00">/example/USBD/USB_Video/ht32</text>
<text text-anchor="middle" x="301.88" y="-174.5" font-family="Helvetica,sans-Serif" font-size="10.00">_usbd_descriptor.c</text>
</a>
</g>
</g>
<!-- Node2 -->
<g id="Node000002" class="node">
<title>Node2</title>
<g id="a_Node000002"><a xlink:href="ht32_8h.html" target="_top" xlink:title="The API between application and HT32FXXXX Firmware Library.">
<polygon fill="white" stroke="#666666" points="243.38,-132 200.38,-132 200.38,-112 243.38,-112 243.38,-132"/>
<text text-anchor="middle" x="221.88" y="-118.5" font-family="Helvetica,sans-Serif" font-size="10.00">ht32.h</text>
</a>
</g>
</g>
<!-- Node1&#45;&gt;Node2 -->
<g id="edge1_Node000001_Node000002" class="edge">
<title>Node1&#45;&gt;Node2</title>
<g id="a_edge1_Node000001_Node000002"><a xlink:title=" ">
<path fill="none" stroke="#63b8ff" d="M264.69,-167.95C255.55,-158.36 246.23,-148.57 238.62,-140.58"/>
<polygon fill="#63b8ff" stroke="#63b8ff" points="241.34,-138.36 231.91,-133.53 236.27,-143.19 241.34,-138.36"/>
</a>
</g>
</g>
<!-- Node7 -->
<g id="Node000007" class="node">
<title>Node7</title>
<g id="a_Node000007"><a xlink:href="ht32__usbd__core_8h.html" target="_top" xlink:title="The header file of standard protocol related function for HT32 USB Device Library.">
<polygon fill="white" stroke="#666666" points="430.5,-20 337.25,-20 337.25,0 430.5,0 430.5,-20"/>
<text text-anchor="middle" x="383.88" y="-6.5" font-family="Helvetica,sans-Serif" font-size="10.00">ht32_usbd_core.h</text>
</a>
</g>
</g>
<!-- Node1&#45;&gt;Node7 -->
<g id="edge6_Node000001_Node000007" class="edge">
<title>Node1&#45;&gt;Node7</title>
<g id="a_edge6_Node000001_Node000007"><a xlink:title=" ">
<path fill="none" stroke="#63b8ff" d="M300.39,-167.75C300.91,-135.61 305.73,-90.04 325.88,-56 333.05,-43.87 344.85,-33.82 355.95,-26.32"/>
<polygon fill="#63b8ff" stroke="#63b8ff" points="357.49,-29.48 364.09,-21.2 353.76,-23.56 357.49,-29.48"/>
</a>
</g>
</g>
<!-- Node8 -->
<g id="Node000008" class="node">
<title>Node8</title>
<g id="a_Node000008"><a xlink:href="example_2_u_s_b_d_2_u_s_b___video_2ht32__usbd__class_8h.html" target="_top" xlink:title="The header file of USB Device Class.">
<polygon fill="white" stroke="#666666" points="432.75,-76 335,-76 335,-56 432.75,-56 432.75,-76"/>
<text text-anchor="middle" x="383.88" y="-62.5" font-family="Helvetica,sans-Serif" font-size="10.00">ht32_usbd_class.h</text>
</a>
</g>
</g>
<!-- Node1&#45;&gt;Node8 -->
<g id="edge7_Node000001_Node000008" class="edge">
<title>Node1&#45;&gt;Node8</title>
<g id="a_edge7_Node000001_Node000008"><a xlink:title=" ">
<path fill="none" stroke="#63b8ff" d="M313.61,-167.87C319.92,-150.03 328.73,-129.12 339.88,-112 346.53,-101.78 355.75,-91.92 364.03,-84.04"/>
<polygon fill="#63b8ff" stroke="#63b8ff" points="366.32,-86.69 371.36,-77.37 361.61,-81.51 366.32,-86.69"/>
</a>
</g>
</g>
<!-- Node9 -->
<g id="Node000009" class="node">
<title>Node9</title>
<g id="a_Node000009"><a xlink:href="example_2_u_s_b_d_2_u_s_b___video_2ht32__usbd__descriptor_8h.html" target="_top" xlink:title="The USB descriptor.">
<polygon fill="white" stroke="#666666" points="466.5,-132 349.25,-132 349.25,-112 466.5,-112 466.5,-132"/>
<text text-anchor="middle" x="407.88" y="-118.5" font-family="Helvetica,sans-Serif" font-size="10.00">ht32_usbd_descriptor.h</text>
</a>
</g>
</g>
<!-- Node1&#45;&gt;Node9 -->
<g id="edge9_Node000001_Node000009" class="edge">
<title>Node1&#45;&gt;Node9</title>
<g id="a_edge9_Node000001_Node000009"><a xlink:title=" ">
<path fill="none" stroke="#63b8ff" d="M351.46,-167.71C364.04,-157.74 376.87,-147.57 387.11,-139.45"/>
<polygon fill="#63b8ff" stroke="#63b8ff" points="389.2,-142.27 394.86,-133.31 384.85,-136.78 389.2,-142.27"/>
</a>
</g>
</g>
<!-- Node3 -->
<g id="Node000003" class="node">
<title>Node3</title>
<g id="a_Node000003"><a xlink:href="ht32f5xxxx__01_8h.html" target="_top" xlink:title="CMSIS Cortex&#45;M0+ Device Peripheral Access Layer Header File.">
<polygon fill="white" stroke="#666666" points="204.5,-76 117.25,-76 117.25,-56 204.5,-56 204.5,-76"/>
<text text-anchor="middle" x="160.88" y="-62.5" font-family="Helvetica,sans-Serif" font-size="10.00">ht32f5xxxx_01.h</text>
</a>
</g>
</g>
<!-- Node2&#45;&gt;Node3 -->
<g id="edge2_Node000002_Node000003" class="edge">
<title>Node2&#45;&gt;Node3</title>
<g id="a_edge2_Node000002_Node000003"><a xlink:title=" ">
<path fill="none" stroke="#63b8ff" d="M211.25,-111.59C202.59,-103.93 190.14,-92.91 179.79,-83.75"/>
<polygon fill="#63b8ff" stroke="#63b8ff" points="182.32,-81.31 172.51,-77.3 177.68,-86.55 182.32,-81.31"/>
</a>
</g>
</g>
<!-- Node4 -->
<g id="Node000004" class="node">
<title>Node4</title>
<g id="a_Node000004"><a xlink:href="ht32__config_8h.html" target="_top" xlink:title="Configuration file of HT32.">
<polygon fill="white" stroke="#666666" points="73.75,-20 0,-20 0,0 73.75,0 73.75,-20"/>
<text text-anchor="middle" x="36.88" y="-6.5" font-family="Helvetica,sans-Serif" font-size="10.00">ht32_config.h</text>
</a>
</g>
</g>
<!-- Node3&#45;&gt;Node4 -->
<g id="edge3_Node000003_Node000004" class="edge">
<title>Node3&#45;&gt;Node4</title>
<g id="a_edge3_Node000003_Node000004"><a xlink:title=" ">
<path fill="none" stroke="#63b8ff" d="M139.28,-55.59C119.92,-47.17 91.27,-34.69 69.19,-25.07"/>
<polygon fill="#63b8ff" stroke="#63b8ff" points="70.6,-21.87 60.03,-21.08 67.8,-28.29 70.6,-21.87"/>
</a>
</g>
</g>
<!-- Node5 -->
<g id="Node000005" class="node">
<title>Node5</title>
<g id="a_Node000005"><a xlink:title=" ">
<polygon fill="#e0e0e0" stroke="#999999" points="176.38,-20 91.38,-20 91.38,0 176.38,0 176.38,-20"/>
<text text-anchor="middle" x="133.88" y="-6.5" font-family="Helvetica,sans-Serif" font-size="10.00">core_cm0plus.h</text>
</a>
</g>
</g>
<!-- Node3&#45;&gt;Node5 -->
<g id="edge4_Node000003_Node000005" class="edge">
<title>Node3&#45;&gt;Node5</title>
<g id="a_edge4_Node000003_Node000005"><a xlink:title=" ">
<path fill="none" stroke="#63b8ff" d="M156.17,-55.59C152.73,-48.7 147.93,-39.1 143.66,-30.57"/>
<polygon fill="#63b8ff" stroke="#63b8ff" points="146.8,-29.03 139.2,-21.65 140.54,-32.16 146.8,-29.03"/>
</a>
</g>
</g>
<!-- Node6 -->
<g id="Node000006" class="node">
<title>Node6</title>
<g id="a_Node000006"><a xlink:href="system__ht32f5xxxx__01_8h.html" target="_top" xlink:title="CMSIS Cortex&#45;M0+ Device Peripheral Access Layer System Header File for the Holtek HT32F5xxxx Device S...">
<polygon fill="white" stroke="#666666" points="319.25,-20 194.5,-20 194.5,0 319.25,0 319.25,-20"/>
<text text-anchor="middle" x="256.88" y="-6.5" font-family="Helvetica,sans-Serif" font-size="10.00">system_ht32f5xxxx_01.h</text>
</a>
</g>
</g>
<!-- Node3&#45;&gt;Node6 -->
<g id="edge5_Node000003_Node000006" class="edge">
<title>Node3&#45;&gt;Node6</title>
<g id="a_edge5_Node000003_Node000006"><a xlink:title=" ">
<path fill="none" stroke="#63b8ff" d="M177.6,-55.59C192.1,-47.44 213.35,-35.48 230.2,-26"/>
<polygon fill="#63b8ff" stroke="#63b8ff" points="231.7,-29.17 238.7,-21.22 228.27,-23.07 231.7,-29.17"/>
</a>
</g>
</g>
<!-- Node8&#45;&gt;Node7 -->
<g id="edge8_Node000008_Node000007" class="edge">
<title>Node8&#45;&gt;Node7</title>
<g id="a_edge8_Node000008_Node000007"><a xlink:title=" ">
<path fill="none" stroke="#63b8ff" d="M383.88,-55.59C383.88,-49.01 383.88,-39.96 383.88,-31.73"/>
<polygon fill="#63b8ff" stroke="#63b8ff" points="387.38,-31.81 383.88,-21.81 380.38,-31.81 387.38,-31.81"/>
</a>
</g>
</g>
<!-- Node9&#45;&gt;Node8 -->
<g id="edge10_Node000009_Node000008" class="edge">
<title>Node9&#45;&gt;Node8</title>
<g id="a_edge10_Node000009_Node000008"><a xlink:title=" ">
<path fill="none" stroke="#63b8ff" d="M403.69,-111.59C400.63,-104.7 396.36,-95.1 392.57,-86.57"/>
<polygon fill="#63b8ff" stroke="#63b8ff" points="395.88,-85.4 388.62,-77.68 389.49,-88.24 395.88,-85.4"/>
</a>
</g>
</g>
</g>
</svg>
