<?xml version="1.0" encoding="UTF-8" standalone="no"?>
<!DOCTYPE svg PUBLIC "-//W3C//DTD SVG 1.1//EN"
 "http://www.w3.org/Graphics/SVG/1.1/DTD/svg11.dtd">
<!-- Generated by graphviz version 9.0.0 (20230911.1827)
 -->
<!-- Title: D:/Note_Database/Subject/MCETA Microcontroller Experiment TA/files/HT32_STD_5xxxx_FWLib_V1.5.1_7084b/example/USBD/Virtual_COM/ht32_usbd_class.c Pages: 1 -->
<svg width="374pt" height="368pt"
 viewBox="0.00 0.00 374.38 368.00" xmlns="http://www.w3.org/2000/svg" xmlns:xlink="http://www.w3.org/1999/xlink">
<g id="graph0" class="graph" transform="scale(1 1) rotate(0) translate(4 364)">
<title>D:/Note_Database/Subject/MCETA Microcontroller Experiment TA/files/HT32_STD_5xxxx_FWLib_V1.5.1_7084b/example/USBD/Virtual_COM/ht32_usbd_class.c</title>
<!-- Node1 -->
<g id="Node000001" class="node">
<title>Node1</title>
<g id="a_Node000001"><a xlink:title="The USB Device Class.">
<polygon fill="#999999" stroke="#666666" points="237.12,-360 66.62,-360 66.62,-280 237.12,-280 237.12,-360"/>
<text text-anchor="start" x="74.62" y="-346.5" font-family="Helvetica,sans-Serif" font-size="10.00">D:/Note_Database/Subject</text>
<text text-anchor="start" x="74.62" y="-334.5" font-family="Helvetica,sans-Serif" font-size="10.00">/MCETA Microcontroller</text>
<text text-anchor="start" x="74.62" y="-322.5" font-family="Helvetica,sans-Serif" font-size="10.00"> Experiment TA/files/HT32</text>
<text text-anchor="start" x="74.62" y="-310.5" font-family="Helvetica,sans-Serif" font-size="10.00">_STD_5xxxx_FWLib_V1.5.1_7084b</text>
<text text-anchor="start" x="74.62" y="-298.5" font-family="Helvetica,sans-Serif" font-size="10.00">/example/USBD/Virtual_COM/ht32</text>
<text text-anchor="middle" x="151.88" y="-286.5" font-family="Helvetica,sans-Serif" font-size="10.00">_usbd_class.c</text>
</a>
</g>
</g>
<!-- Node2 -->
<g id="Node000002" class="node">
<title>Node2</title>
<g id="a_Node000002"><a xlink:href="ht32_8h.html" target="_top" xlink:title="The API between application and HT32FXXXX Firmware Library.">
<polygon fill="white" stroke="#666666" points="155.38,-132 112.38,-132 112.38,-112 155.38,-112 155.38,-132"/>
<text text-anchor="middle" x="133.88" y="-118.5" font-family="Helvetica,sans-Serif" font-size="10.00">ht32.h</text>
</a>
</g>
</g>
<!-- Node1&#45;&gt;Node2 -->
<g id="edge1_Node000001_Node000002" class="edge">
<title>Node1&#45;&gt;Node2</title>
<g id="a_edge1_Node000001_Node000002"><a xlink:title=" ">
<path fill="none" stroke="#63b8ff" d="M110.64,-279.71C88.9,-255.69 64.9,-222.94 55.88,-188 53.65,-179.39 51.43,-175.7 55.88,-168 65.69,-151.01 84.63,-139.86 101.39,-132.91"/>
<polygon fill="#63b8ff" stroke="#63b8ff" points="102.42,-136.26 110.55,-129.47 99.96,-129.71 102.42,-136.26"/>
</a>
</g>
</g>
<!-- Node7 -->
<g id="Node000007" class="node">
<title>Node7</title>
<g id="a_Node000007"><a xlink:href="ht32__usbd__core_8h.html" target="_top" xlink:title="The header file of standard protocol related function for HT32 USB Device Library.">
<polygon fill="white" stroke="#666666" points="158.5,-188 65.25,-188 65.25,-168 158.5,-168 158.5,-188"/>
<text text-anchor="middle" x="111.88" y="-174.5" font-family="Helvetica,sans-Serif" font-size="10.00">ht32_usbd_core.h</text>
</a>
</g>
</g>
<!-- Node1&#45;&gt;Node7 -->
<g id="edge6_Node000001_Node000007" class="edge">
<title>Node1&#45;&gt;Node7</title>
<g id="a_edge6_Node000001_Node000007"><a xlink:title=" ">
<path fill="none" stroke="#63b8ff" d="M113.96,-279.86C105.76,-269.06 98.24,-256.77 93.88,-244 88.72,-228.92 94.14,-211.5 100.34,-198.49"/>
<polygon fill="#63b8ff" stroke="#63b8ff" points="103.41,-200.17 105.04,-189.7 97.24,-196.87 103.41,-200.17"/>
</a>
</g>
</g>
<!-- Node8 -->
<g id="Node000008" class="node">
<title>Node8</title>
<g id="a_Node000008"><a xlink:href="example_2_u_s_b_d_2_virtual___c_o_m_2ht32__usbd__class_8h.html" target="_top" xlink:title="The header file of USB Device Class.">
<polygon fill="white" stroke="#666666" points="200.75,-244 103,-244 103,-224 200.75,-224 200.75,-244"/>
<text text-anchor="middle" x="151.88" y="-230.5" font-family="Helvetica,sans-Serif" font-size="10.00">ht32_usbd_class.h</text>
</a>
</g>
</g>
<!-- Node1&#45;&gt;Node8 -->
<g id="edge7_Node000001_Node000008" class="edge">
<title>Node1&#45;&gt;Node8</title>
<g id="a_edge7_Node000001_Node000008"><a xlink:title=" ">
<path fill="none" stroke="#63b8ff" d="M151.88,-279.95C151.88,-271.6 151.88,-263.09 151.88,-255.76"/>
<polygon fill="#63b8ff" stroke="#63b8ff" points="155.38,-255.95 151.88,-245.95 148.38,-255.95 155.38,-255.95"/>
</a>
</g>
</g>
<!-- Node9 -->
<g id="Node000009" class="node">
<title>Node9</title>
<g id="a_Node000009"><a xlink:href="ring__buffer_8h.html" target="_top" xlink:title="The header file of ring buffer.">
<polygon fill="white" stroke="#666666" points="285.38,-188 176.38,-188 176.38,-168 285.38,-168 285.38,-188"/>
<text text-anchor="middle" x="230.88" y="-174.5" font-family="Helvetica,sans-Serif" font-size="10.00">common/ring_buffer.h</text>
</a>
</g>
</g>
<!-- Node1&#45;&gt;Node9 -->
<g id="edge9_Node000001_Node000009" class="edge">
<title>Node1&#45;&gt;Node9</title>
<g id="a_edge9_Node000001_Node000009"><a xlink:title=" ">
<path fill="none" stroke="#63b8ff" d="M186.2,-279.88C194.76,-268.8 203.35,-256.38 209.88,-244 217.34,-229.85 222.77,-212.57 226.23,-199.38"/>
<polygon fill="#63b8ff" stroke="#63b8ff" points="229.63,-200.24 228.6,-189.7 222.83,-198.58 229.63,-200.24"/>
</a>
</g>
</g>
<!-- Node10 -->
<g id="Node000010" class="node">
<title>Node10</title>
<g id="a_Node000010"><a xlink:href="ring__buffer_8c.html" target="_top" xlink:title="Ring buffer related functions.">
<polygon fill="white" stroke="#666666" points="366.38,-244 257.38,-244 257.38,-224 366.38,-224 366.38,-244"/>
<text text-anchor="middle" x="311.88" y="-230.5" font-family="Helvetica,sans-Serif" font-size="10.00">common/ring_buffer.c</text>
</a>
</g>
</g>
<!-- Node1&#45;&gt;Node10 -->
<g id="edge11_Node000001_Node000010" class="edge">
<title>Node1&#45;&gt;Node10</title>
<g id="a_edge11_Node000001_Node000010"><a xlink:title=" ">
<path fill="none" stroke="#63b8ff" d="M226.72,-279.71C247.27,-268.92 268.28,-257.89 284.28,-249.49"/>
<polygon fill="#63b8ff" stroke="#63b8ff" points="285.46,-252.82 292.68,-245.08 282.2,-246.63 285.46,-252.82"/>
</a>
</g>
</g>
<!-- Node3 -->
<g id="Node000003" class="node">
<title>Node3</title>
<g id="a_Node000003"><a xlink:href="ht32f5xxxx__01_8h.html" target="_top" xlink:title="CMSIS Cortex&#45;M0+ Device Peripheral Access Layer Header File.">
<polygon fill="white" stroke="#666666" points="177.5,-76 90.25,-76 90.25,-56 177.5,-56 177.5,-76"/>
<text text-anchor="middle" x="133.88" y="-62.5" font-family="Helvetica,sans-Serif" font-size="10.00">ht32f5xxxx_01.h</text>
</a>
</g>
</g>
<!-- Node2&#45;&gt;Node3 -->
<g id="edge2_Node000002_Node000003" class="edge">
<title>Node2&#45;&gt;Node3</title>
<g id="a_edge2_Node000002_Node000003"><a xlink:title=" ">
<path fill="none" stroke="#63b8ff" d="M133.88,-111.59C133.88,-105.01 133.88,-95.96 133.88,-87.73"/>
<polygon fill="#63b8ff" stroke="#63b8ff" points="137.38,-87.81 133.88,-77.81 130.38,-87.81 137.38,-87.81"/>
</a>
</g>
</g>
<!-- Node4 -->
<g id="Node000004" class="node">
<title>Node4</title>
<g id="a_Node000004"><a xlink:href="ht32__config_8h.html" target="_top" xlink:title="Configuration file of HT32.">
<polygon fill="white" stroke="#666666" points="73.75,-20 0,-20 0,0 73.75,0 73.75,-20"/>
<text text-anchor="middle" x="36.88" y="-6.5" font-family="Helvetica,sans-Serif" font-size="10.00">ht32_config.h</text>
</a>
</g>
</g>
<!-- Node3&#45;&gt;Node4 -->
<g id="edge3_Node000003_Node000004" class="edge">
<title>Node3&#45;&gt;Node4</title>
<g id="a_edge3_Node000003_Node000004"><a xlink:title=" ">
<path fill="none" stroke="#63b8ff" d="M116.98,-55.59C102.33,-47.44 80.85,-35.48 63.83,-26"/>
<polygon fill="#63b8ff" stroke="#63b8ff" points="65.67,-23.02 55.23,-21.22 62.26,-29.14 65.67,-23.02"/>
</a>
</g>
</g>
<!-- Node5 -->
<g id="Node000005" class="node">
<title>Node5</title>
<g id="a_Node000005"><a xlink:title=" ">
<polygon fill="#e0e0e0" stroke="#999999" points="176.38,-20 91.38,-20 91.38,0 176.38,0 176.38,-20"/>
<text text-anchor="middle" x="133.88" y="-6.5" font-family="Helvetica,sans-Serif" font-size="10.00">core_cm0plus.h</text>
</a>
</g>
</g>
<!-- Node3&#45;&gt;Node5 -->
<g id="edge4_Node000003_Node000005" class="edge">
<title>Node3&#45;&gt;Node5</title>
<g id="a_edge4_Node000003_Node000005"><a xlink:title=" ">
<path fill="none" stroke="#63b8ff" d="M133.88,-55.59C133.88,-49.01 133.88,-39.96 133.88,-31.73"/>
<polygon fill="#63b8ff" stroke="#63b8ff" points="137.38,-31.81 133.88,-21.81 130.38,-31.81 137.38,-31.81"/>
</a>
</g>
</g>
<!-- Node6 -->
<g id="Node000006" class="node">
<title>Node6</title>
<g id="a_Node000006"><a xlink:href="system__ht32f5xxxx__01_8h.html" target="_top" xlink:title="CMSIS Cortex&#45;M0+ Device Peripheral Access Layer System Header File for the Holtek HT32F5xxxx Device S...">
<polygon fill="white" stroke="#666666" points="319.25,-20 194.5,-20 194.5,0 319.25,0 319.25,-20"/>
<text text-anchor="middle" x="256.88" y="-6.5" font-family="Helvetica,sans-Serif" font-size="10.00">system_ht32f5xxxx_01.h</text>
</a>
</g>
</g>
<!-- Node3&#45;&gt;Node6 -->
<g id="edge5_Node000003_Node000006" class="edge">
<title>Node3&#45;&gt;Node6</title>
<g id="a_edge5_Node000003_Node000006"><a xlink:title=" ">
<path fill="none" stroke="#63b8ff" d="M155.3,-55.59C174.5,-47.17 202.92,-34.69 224.82,-25.07"/>
<polygon fill="#63b8ff" stroke="#63b8ff" points="226.15,-28.31 233.9,-21.09 223.33,-21.9 226.15,-28.31"/>
</a>
</g>
</g>
<!-- Node8&#45;&gt;Node7 -->
<g id="edge8_Node000008_Node000007" class="edge">
<title>Node8&#45;&gt;Node7</title>
<g id="a_edge8_Node000008_Node000007"><a xlink:title=" ">
<path fill="none" stroke="#63b8ff" d="M144.91,-223.59C139.57,-216.39 132.05,-206.23 125.53,-197.43"/>
<polygon fill="#63b8ff" stroke="#63b8ff" points="128.43,-195.47 119.66,-189.51 122.8,-199.63 128.43,-195.47"/>
</a>
</g>
</g>
<!-- Node9&#45;&gt;Node2 -->
<g id="edge10_Node000009_Node000002" class="edge">
<title>Node9&#45;&gt;Node2</title>
<g id="a_edge10_Node000009_Node000002"><a xlink:title=" ">
<path fill="none" stroke="#63b8ff" d="M213.98,-167.59C199.33,-159.44 177.85,-147.48 160.83,-138"/>
<polygon fill="#63b8ff" stroke="#63b8ff" points="162.67,-135.02 152.23,-133.22 159.26,-141.14 162.67,-135.02"/>
</a>
</g>
</g>
<!-- Node10&#45;&gt;Node9 -->
<g id="edge12_Node000010_Node000009" class="edge">
<title>Node10&#45;&gt;Node9</title>
<g id="a_edge12_Node000010_Node000009"><a xlink:title=" ">
<path fill="none" stroke="#63b8ff" d="M297.77,-223.59C285.88,-215.67 268.61,-204.16 254.6,-194.82"/>
<polygon fill="#63b8ff" stroke="#63b8ff" points="256.62,-191.95 246.35,-189.32 252.73,-197.78 256.62,-191.95"/>
</a>
</g>
</g>
</g>
</svg>
