<?xml version="1.0" encoding="UTF-8" standalone="no"?>
<!DOCTYPE svg PUBLIC "-//W3C//DTD SVG 1.1//EN"
 "http://www.w3.org/Graphics/SVG/1.1/DTD/svg11.dtd">
<!-- Generated by graphviz version 9.0.0 (20230911.1827)
 -->
<!-- Title: D:/Note_Database/Subject/MCETA Microcontroller Experiment TA/files/HT32_STD_5xxxx_FWLib_V1.5.1_7084b/example/USBD/USB_UAC_Sound_RateControl/main.c Pages: 1 -->
<svg width="740pt" height="300pt"
 viewBox="0.00 0.00 739.75 300.00" xmlns="http://www.w3.org/2000/svg" xmlns:xlink="http://www.w3.org/1999/xlink">
<g id="graph0" class="graph" transform="scale(1 1) rotate(0) translate(4 296)">
<title>D:/Note_Database/Subject/MCETA Microcontroller Experiment TA/files/HT32_STD_5xxxx_FWLib_V1.5.1_7084b/example/USBD/USB_UAC_Sound_RateControl/main.c</title>
<!-- Node1 -->
<g id="Node000001" class="node">
<title>Node1</title>
<g id="a_Node000001"><a xlink:title="The main program of USB Device Audio example.">
<polygon fill="#999999" stroke="#666666" points="369.12,-292 113.12,-292 113.12,-224 369.12,-224 369.12,-292"/>
<text text-anchor="start" x="121.12" y="-278.5" font-family="Helvetica,sans-Serif" font-size="10.00">D:/Note_Database/Subject</text>
<text text-anchor="start" x="121.12" y="-266.5" font-family="Helvetica,sans-Serif" font-size="10.00">/MCETA Microcontroller</text>
<text text-anchor="start" x="121.12" y="-254.5" font-family="Helvetica,sans-Serif" font-size="10.00"> Experiment TA/files/HT32</text>
<text text-anchor="start" x="121.12" y="-242.5" font-family="Helvetica,sans-Serif" font-size="10.00">_STD_5xxxx_FWLib_V1.5.1_7084b</text>
<text text-anchor="middle" x="241.12" y="-230.5" font-family="Helvetica,sans-Serif" font-size="10.00">/example/USBD/USB_UAC_Sound_RateControl/main.c</text>
</a>
</g>
</g>
<!-- Node2 -->
<g id="Node000002" class="node">
<title>Node2</title>
<g id="a_Node000002"><a xlink:title=" ">
<polygon fill="#e0e0e0" stroke="#999999" points="48.25,-188 0,-188 0,-168 48.25,-168 48.25,-188"/>
<text text-anchor="middle" x="24.12" y="-174.5" font-family="Helvetica,sans-Serif" font-size="10.00">string.h</text>
</a>
</g>
</g>
<!-- Node1&#45;&gt;Node2 -->
<g id="edge1_Node000001_Node000002" class="edge">
<title>Node1&#45;&gt;Node2</title>
<g id="a_edge1_Node000001_Node000002"><a xlink:title=" ">
<path fill="none" stroke="#63b8ff" d="M148.15,-223.58C116.57,-212.23 83.2,-200.24 59.04,-191.55"/>
<polygon fill="#63b8ff" stroke="#63b8ff" points="60.31,-188.29 49.72,-188.2 57.95,-194.88 60.31,-188.29"/>
</a>
</g>
</g>
<!-- Node3 -->
<g id="Node000003" class="node">
<title>Node3</title>
<g id="a_Node000003"><a xlink:href="ht32_8h.html" target="_top" xlink:title="The API between application and HT32FXXXX Firmware Library.">
<polygon fill="white" stroke="#666666" points="159.62,-132 116.62,-132 116.62,-112 159.62,-112 159.62,-132"/>
<text text-anchor="middle" x="138.12" y="-118.5" font-family="Helvetica,sans-Serif" font-size="10.00">ht32.h</text>
</a>
</g>
</g>
<!-- Node1&#45;&gt;Node3 -->
<g id="edge2_Node000001_Node000003" class="edge">
<title>Node1&#45;&gt;Node3</title>
<g id="a_edge2_Node000001_Node000003"><a xlink:title=" ">
<path fill="none" stroke="#63b8ff" d="M166.7,-223.67C153.23,-214.14 140.98,-202.34 133.12,-188 125.63,-174.32 127.65,-156.53 131.12,-143.02"/>
<polygon fill="#63b8ff" stroke="#63b8ff" points="134.45,-144.09 134.03,-133.51 127.76,-142.05 134.45,-144.09"/>
</a>
</g>
</g>
<!-- Node8 -->
<g id="Node000008" class="node">
<title>Node8</title>
<g id="a_Node000008"><a xlink:href="ht32__board_8h.html" target="_top" xlink:title="HT32 target board definition file.">
<polygon fill="white" stroke="#666666" points="88.25,-76 16,-76 16,-56 88.25,-56 88.25,-76"/>
<text text-anchor="middle" x="52.12" y="-62.5" font-family="Helvetica,sans-Serif" font-size="10.00">ht32_board.h</text>
</a>
</g>
</g>
<!-- Node1&#45;&gt;Node8 -->
<g id="edge7_Node000001_Node000008" class="edge">
<title>Node1&#45;&gt;Node8</title>
<g id="a_edge7_Node000001_Node000008"><a xlink:title=" ">
<path fill="none" stroke="#63b8ff" d="M172.4,-223.66C155.76,-213.64 138.84,-201.63 125.12,-188 94.64,-157.71 71.7,-112.22 60.24,-86.51"/>
<polygon fill="#63b8ff" stroke="#63b8ff" points="63.58,-85.4 56.41,-77.61 57.15,-88.18 63.58,-85.4"/>
</a>
</g>
</g>
<!-- Node9 -->
<g id="Node000009" class="node">
<title>Node9</title>
<g id="a_Node000009"><a xlink:href="_u_s_b_d_2_u_s_b___u_a_c___sound___rate_control_2ht32__board__config_8h.html" target="_top" xlink:title="The header file of board configuration.">
<polygon fill="white" stroke="#666666" points="280.62,-132 177.62,-132 177.62,-112 280.62,-112 280.62,-132"/>
<text text-anchor="middle" x="229.12" y="-118.5" font-family="Helvetica,sans-Serif" font-size="10.00">ht32_board_config.h</text>
</a>
</g>
</g>
<!-- Node1&#45;&gt;Node9 -->
<g id="edge9_Node000001_Node000009" class="edge">
<title>Node1&#45;&gt;Node9</title>
<g id="a_edge9_Node000001_Node000009"><a xlink:title=" ">
<path fill="none" stroke="#63b8ff" d="M238.13,-223.53C235.88,-198.38 232.86,-164.73 230.96,-143.45"/>
<polygon fill="#63b8ff" stroke="#63b8ff" points="234.47,-143.41 230.09,-133.76 227.49,-144.03 234.47,-143.41"/>
</a>
</g>
</g>
<!-- Node10 -->
<g id="Node000010" class="node">
<title>Node10</title>
<g id="a_Node000010"><a xlink:href="main_8h.html" target="_top" xlink:title="The API between application and HT32FXXXX Firmware Library.">
<polygon fill="white" stroke="#666666" points="187.75,-188 142.5,-188 142.5,-168 187.75,-168 187.75,-188"/>
<text text-anchor="middle" x="165.12" y="-174.5" font-family="Helvetica,sans-Serif" font-size="10.00">main.h</text>
</a>
</g>
</g>
<!-- Node1&#45;&gt;Node10 -->
<g id="edge10_Node000001_Node000010" class="edge">
<title>Node1&#45;&gt;Node10</title>
<g id="a_edge10_Node000001_Node000010"><a xlink:title=" ">
<path fill="none" stroke="#63b8ff" d="M208.89,-223.92C199.62,-214.41 189.89,-204.41 181.95,-196.27"/>
<polygon fill="#63b8ff" stroke="#63b8ff" points="184.71,-194.08 175.22,-189.36 179.69,-198.97 184.71,-194.08"/>
</a>
</g>
</g>
<!-- Node11 -->
<g id="Node000011" class="node">
<title>Node11</title>
<g id="a_Node000011"><a xlink:href="_u_s_b_d_2_u_s_b___u_a_c___sound___rate_control_2i2cm_8h.html" target="_top" xlink:title="The header file of I2C master driver.">
<polygon fill="white" stroke="#666666" points="289.75,-188 244.5,-188 244.5,-168 289.75,-168 289.75,-188"/>
<text text-anchor="middle" x="267.12" y="-174.5" font-family="Helvetica,sans-Serif" font-size="10.00">i2cm.h</text>
</a>
</g>
</g>
<!-- Node1&#45;&gt;Node11 -->
<g id="edge13_Node000001_Node000011" class="edge">
<title>Node1&#45;&gt;Node11</title>
<g id="a_edge13_Node000001_Node000011"><a xlink:title=" ">
<path fill="none" stroke="#63b8ff" d="M252.15,-223.92C254.99,-215.42 257.95,-206.53 260.48,-198.93"/>
<polygon fill="#63b8ff" stroke="#63b8ff" points="263.71,-200.31 263.55,-189.71 257.07,-198.09 263.71,-200.31"/>
</a>
</g>
</g>
<!-- Node12 -->
<g id="Node000012" class="node">
<title>Node12</title>
<g id="a_Node000012"><a xlink:href="_u_s_b_d_2_u_s_b___u_a_c___sound___rate_control_2wm8978_8h.html" target="_top" xlink:title="The header file of wm8978 driver.">
<polygon fill="white" stroke="#666666" points="368.25,-188 308,-188 308,-168 368.25,-168 368.25,-188"/>
<text text-anchor="middle" x="338.12" y="-174.5" font-family="Helvetica,sans-Serif" font-size="10.00">wm8978.h</text>
</a>
</g>
</g>
<!-- Node1&#45;&gt;Node12 -->
<g id="edge15_Node000001_Node000012" class="edge">
<title>Node1&#45;&gt;Node12</title>
<g id="a_edge15_Node000001_Node000012"><a xlink:title=" ">
<path fill="none" stroke="#63b8ff" d="M282.54,-223.69C294.72,-213.9 307.5,-203.63 317.73,-195.4"/>
<polygon fill="#63b8ff" stroke="#63b8ff" points="319.88,-198.16 325.48,-189.17 315.5,-192.71 319.88,-198.16"/>
</a>
</g>
</g>
<!-- Node13 -->
<g id="Node000013" class="node">
<title>Node13</title>
<g id="a_Node000013"><a xlink:href="ht32__usbd__core_8h.html" target="_top" xlink:title="The header file of standard protocol related function for HT32 USB Device Library.">
<polygon fill="white" stroke="#666666" points="479.75,-188 386.5,-188 386.5,-168 479.75,-168 479.75,-188"/>
<text text-anchor="middle" x="433.12" y="-174.5" font-family="Helvetica,sans-Serif" font-size="10.00">ht32_usbd_core.h</text>
</a>
</g>
</g>
<!-- Node1&#45;&gt;Node13 -->
<g id="edge16_Node000001_Node000013" class="edge">
<title>Node1&#45;&gt;Node13</title>
<g id="a_edge16_Node000001_Node000013"><a xlink:title=" ">
<path fill="none" stroke="#63b8ff" d="M323.39,-223.58C350.13,-212.72 378.33,-201.26 399.44,-192.68"/>
<polygon fill="#63b8ff" stroke="#63b8ff" points="400.74,-195.93 408.69,-188.93 398.11,-189.45 400.74,-195.93"/>
</a>
</g>
</g>
<!-- Node14 -->
<g id="Node000014" class="node">
<title>Node14</title>
<g id="a_Node000014"><a xlink:href="example_2_u_s_b_d_2_u_s_b___u_a_c___sound___rate_control_2ht32__usbd__class_8h.html" target="_top" xlink:title="The header file of USB Device Class.">
<polygon fill="white" stroke="#666666" points="596,-188 498.25,-188 498.25,-168 596,-168 596,-188"/>
<text text-anchor="middle" x="547.12" y="-174.5" font-family="Helvetica,sans-Serif" font-size="10.00">ht32_usbd_class.h</text>
</a>
</g>
</g>
<!-- Node1&#45;&gt;Node14 -->
<g id="edge17_Node000001_Node000014" class="edge">
<title>Node1&#45;&gt;Node14</title>
<g id="a_edge17_Node000001_Node000014"><a xlink:title=" ">
<path fill="none" stroke="#63b8ff" d="M369.57,-224.26C415.46,-212.56 464.39,-200.09 499.24,-191.21"/>
<polygon fill="#63b8ff" stroke="#63b8ff" points="499.74,-194.69 508.57,-188.83 498.01,-187.91 499.74,-194.69"/>
</a>
</g>
</g>
<!-- Node15 -->
<g id="Node000015" class="node">
<title>Node15</title>
<g id="a_Node000015"><a xlink:href="example_2_u_s_b_d_2_u_s_b___u_a_c___sound___rate_control_2ht32__usbd__descriptor_8h.html" target="_top" xlink:title="The USB descriptor.">
<polygon fill="white" stroke="#666666" points="731.75,-188 614.5,-188 614.5,-168 731.75,-168 731.75,-188"/>
<text text-anchor="middle" x="673.12" y="-174.5" font-family="Helvetica,sans-Serif" font-size="10.00">ht32_usbd_descriptor.h</text>
</a>
</g>
</g>
<!-- Node1&#45;&gt;Node15 -->
<g id="edge18_Node000001_Node000015" class="edge">
<title>Node1&#45;&gt;Node15</title>
<g id="a_edge18_Node000001_Node000015"><a xlink:title=" ">
<path fill="none" stroke="#63b8ff" d="M369.57,-233.81C448.59,-219.54 546.44,-201.87 609.31,-190.52"/>
<polygon fill="#63b8ff" stroke="#63b8ff" points="609.92,-193.97 619.14,-188.75 608.68,-187.08 609.92,-193.97"/>
</a>
</g>
</g>
<!-- Node4 -->
<g id="Node000004" class="node">
<title>Node4</title>
<g id="a_Node000004"><a xlink:href="ht32f5xxxx__01_8h.html" target="_top" xlink:title="CMSIS Cortex&#45;M0+ Device Peripheral Access Layer Header File.">
<polygon fill="white" stroke="#666666" points="193.75,-76 106.5,-76 106.5,-56 193.75,-56 193.75,-76"/>
<text text-anchor="middle" x="150.12" y="-62.5" font-family="Helvetica,sans-Serif" font-size="10.00">ht32f5xxxx_01.h</text>
</a>
</g>
</g>
<!-- Node3&#45;&gt;Node4 -->
<g id="edge3_Node000003_Node000004" class="edge">
<title>Node3&#45;&gt;Node4</title>
<g id="a_edge3_Node000003_Node000004"><a xlink:title=" ">
<path fill="none" stroke="#63b8ff" d="M140.22,-111.59C141.7,-104.93 143.74,-95.75 145.58,-87.44"/>
<polygon fill="#63b8ff" stroke="#63b8ff" points="148.98,-88.3 147.73,-77.78 142.14,-86.78 148.98,-88.3"/>
</a>
</g>
</g>
<!-- Node5 -->
<g id="Node000005" class="node">
<title>Node5</title>
<g id="a_Node000005"><a xlink:href="ht32__config_8h.html" target="_top" xlink:title="Configuration file of HT32.">
<polygon fill="white" stroke="#666666" points="89,-20 15.25,-20 15.25,0 89,0 89,-20"/>
<text text-anchor="middle" x="52.12" y="-6.5" font-family="Helvetica,sans-Serif" font-size="10.00">ht32_config.h</text>
</a>
</g>
</g>
<!-- Node4&#45;&gt;Node5 -->
<g id="edge4_Node000004_Node000005" class="edge">
<title>Node4&#45;&gt;Node5</title>
<g id="a_edge4_Node000004_Node000005"><a xlink:title=" ">
<path fill="none" stroke="#63b8ff" d="M133.05,-55.59C118.25,-47.44 96.56,-35.48 79.36,-26"/>
<polygon fill="#63b8ff" stroke="#63b8ff" points="81.1,-22.97 70.65,-21.21 77.72,-29.1 81.1,-22.97"/>
</a>
</g>
</g>
<!-- Node6 -->
<g id="Node000006" class="node">
<title>Node6</title>
<g id="a_Node000006"><a xlink:title=" ">
<polygon fill="#e0e0e0" stroke="#999999" points="191.62,-20 106.62,-20 106.62,0 191.62,0 191.62,-20"/>
<text text-anchor="middle" x="149.12" y="-6.5" font-family="Helvetica,sans-Serif" font-size="10.00">core_cm0plus.h</text>
</a>
</g>
</g>
<!-- Node4&#45;&gt;Node6 -->
<g id="edge5_Node000004_Node000006" class="edge">
<title>Node4&#45;&gt;Node6</title>
<g id="a_edge5_Node000004_Node000006"><a xlink:title=" ">
<path fill="none" stroke="#63b8ff" d="M149.95,-55.59C149.83,-49.01 149.66,-39.96 149.51,-31.73"/>
<polygon fill="#63b8ff" stroke="#63b8ff" points="153.01,-31.75 149.33,-21.81 146.01,-31.87 153.01,-31.75"/>
</a>
</g>
</g>
<!-- Node7 -->
<g id="Node000007" class="node">
<title>Node7</title>
<g id="a_Node000007"><a xlink:href="system__ht32f5xxxx__01_8h.html" target="_top" xlink:title="CMSIS Cortex&#45;M0+ Device Peripheral Access Layer System Header File for the Holtek HT32F5xxxx Device S...">
<polygon fill="white" stroke="#666666" points="334.5,-20 209.75,-20 209.75,0 334.5,0 334.5,-20"/>
<text text-anchor="middle" x="272.12" y="-6.5" font-family="Helvetica,sans-Serif" font-size="10.00">system_ht32f5xxxx_01.h</text>
</a>
</g>
</g>
<!-- Node4&#45;&gt;Node7 -->
<g id="edge6_Node000004_Node000007" class="edge">
<title>Node4&#45;&gt;Node7</title>
<g id="a_edge6_Node000004_Node000007"><a xlink:title=" ">
<path fill="none" stroke="#63b8ff" d="M171.38,-55.59C190.41,-47.17 218.6,-34.69 240.33,-25.07"/>
<polygon fill="#63b8ff" stroke="#63b8ff" points="241.6,-28.34 249.32,-21.09 238.76,-21.94 241.6,-28.34"/>
</a>
</g>
</g>
<!-- Node8&#45;&gt;Node5 -->
<g id="edge8_Node000008_Node000005" class="edge">
<title>Node8&#45;&gt;Node5</title>
<g id="a_edge8_Node000008_Node000005"><a xlink:title=" ">
<path fill="none" stroke="#63b8ff" d="M52.12,-55.59C52.12,-49.01 52.12,-39.96 52.12,-31.73"/>
<polygon fill="#63b8ff" stroke="#63b8ff" points="55.63,-31.81 52.13,-21.81 48.63,-31.81 55.63,-31.81"/>
</a>
</g>
</g>
<!-- Node10&#45;&gt;Node3 -->
<g id="edge11_Node000010_Node000003" class="edge">
<title>Node10&#45;&gt;Node3</title>
<g id="a_edge11_Node000010_Node000003"><a xlink:title=" ">
<path fill="none" stroke="#63b8ff" d="M160.42,-167.59C156.98,-160.7 152.18,-151.1 147.91,-142.57"/>
<polygon fill="#63b8ff" stroke="#63b8ff" points="151.05,-141.03 143.45,-133.65 144.79,-144.16 151.05,-141.03"/>
</a>
</g>
</g>
<!-- Node10&#45;&gt;Node9 -->
<g id="edge12_Node000010_Node000009" class="edge">
<title>Node10&#45;&gt;Node9</title>
<g id="a_edge12_Node000010_Node000009"><a xlink:title=" ">
<path fill="none" stroke="#63b8ff" d="M176.27,-167.59C185.45,-159.85 198.68,-148.69 209.61,-139.47"/>
<polygon fill="#63b8ff" stroke="#63b8ff" points="211.56,-142.4 216.95,-133.27 207.05,-137.05 211.56,-142.4"/>
</a>
</g>
</g>
<!-- Node11&#45;&gt;Node9 -->
<g id="edge14_Node000011_Node000009" class="edge">
<title>Node11&#45;&gt;Node9</title>
<g id="a_edge14_Node000011_Node000009"><a xlink:title=" ">
<path fill="none" stroke="#63b8ff" d="M260.51,-167.59C255.44,-160.39 248.29,-150.23 242.1,-141.43"/>
<polygon fill="#63b8ff" stroke="#63b8ff" points="245.16,-139.7 236.54,-133.54 239.43,-143.73 245.16,-139.7"/>
</a>
</g>
</g>
</g>
</svg>
