<?xml version="1.0" encoding="UTF-8" standalone="no"?>
<!DOCTYPE svg PUBLIC "-//W3C//DTD SVG 1.1//EN"
 "http://www.w3.org/Graphics/SVG/1.1/DTD/svg11.dtd">
<!-- Generated by graphviz version 9.0.0 (20230911.1827)
 -->
<!-- Title: D:/Note_Database/Subject/MCETA Microcontroller Experiment TA/files/HT32_STD_5xxxx_FWLib_V1.5.1_7084b/example/TM/MatchOutputToggle/ht32f5xxxx_01_it.c Pages: 1 -->
<svg width="327pt" height="312pt"
 viewBox="0.00 0.00 327.38 312.00" xmlns="http://www.w3.org/2000/svg" xmlns:xlink="http://www.w3.org/1999/xlink">
<g id="graph0" class="graph" transform="scale(1 1) rotate(0) translate(4 308)">
<title>D:/Note_Database/Subject/MCETA Microcontroller Experiment TA/files/HT32_STD_5xxxx_FWLib_V1.5.1_7084b/example/TM/MatchOutputToggle/ht32f5xxxx_01_it.c</title>
<!-- Node1 -->
<g id="Node000001" class="node">
<title>Node1</title>
<g id="a_Node000001"><a xlink:title="This file provides all interrupt service routine.">
<polygon fill="#999999" stroke="#666666" points="287.75,-304 117.25,-304 117.25,-224 287.75,-224 287.75,-304"/>
<text text-anchor="start" x="125.25" y="-290.5" font-family="Helvetica,sans-Serif" font-size="10.00">D:/Note_Database/Subject</text>
<text text-anchor="start" x="125.25" y="-278.5" font-family="Helvetica,sans-Serif" font-size="10.00">/MCETA Microcontroller</text>
<text text-anchor="start" x="125.25" y="-266.5" font-family="Helvetica,sans-Serif" font-size="10.00"> Experiment TA/files/HT32</text>
<text text-anchor="start" x="125.25" y="-254.5" font-family="Helvetica,sans-Serif" font-size="10.00">_STD_5xxxx_FWLib_V1.5.1_7084b</text>
<text text-anchor="start" x="125.25" y="-242.5" font-family="Helvetica,sans-Serif" font-size="10.00">/example/TM/MatchOutputToggle</text>
<text text-anchor="middle" x="202.5" y="-230.5" font-family="Helvetica,sans-Serif" font-size="10.00">/ht32f5xxxx_01_it.c</text>
</a>
</g>
</g>
<!-- Node2 -->
<g id="Node000002" class="node">
<title>Node2</title>
<g id="a_Node000002"><a xlink:href="ht32_8h.html" target="_top" xlink:title="The API between application and HT32FXXXX Firmware Library.">
<polygon fill="white" stroke="#666666" points="187,-132 144,-132 144,-112 187,-112 187,-132"/>
<text text-anchor="middle" x="165.5" y="-118.5" font-family="Helvetica,sans-Serif" font-size="10.00">ht32.h</text>
</a>
</g>
</g>
<!-- Node1&#45;&gt;Node2 -->
<g id="edge1_Node000001_Node000002" class="edge">
<title>Node1&#45;&gt;Node2</title>
<g id="a_edge1_Node000001_Node000002"><a xlink:title=" ">
<path fill="none" stroke="#63b8ff" d="M162.34,-223.73C153.83,-213.02 146.05,-200.81 141.5,-188 135.91,-172.26 143.44,-154.47 151.51,-141.48"/>
<polygon fill="#63b8ff" stroke="#63b8ff" points="154.23,-143.71 157,-133.48 148.46,-139.75 154.23,-143.71"/>
</a>
</g>
</g>
<!-- Node7 -->
<g id="Node000007" class="node">
<title>Node7</title>
<g id="a_Node000007"><a xlink:href="ht32__board_8h.html" target="_top" xlink:title="HT32 target board definition file.">
<polygon fill="white" stroke="#666666" points="318.62,-132 246.38,-132 246.38,-112 318.62,-112 318.62,-132"/>
<text text-anchor="middle" x="282.5" y="-118.5" font-family="Helvetica,sans-Serif" font-size="10.00">ht32_board.h</text>
</a>
</g>
</g>
<!-- Node1&#45;&gt;Node7 -->
<g id="edge6_Node000001_Node000007" class="edge">
<title>Node1&#45;&gt;Node7</title>
<g id="a_edge6_Node000001_Node000007"><a xlink:title=" ">
<path fill="none" stroke="#63b8ff" d="M239.23,-223.83C248.12,-212.85 256.94,-200.48 263.5,-188 270.87,-173.96 275.75,-156.67 278.72,-143.45"/>
<polygon fill="#63b8ff" stroke="#63b8ff" points="282.13,-144.25 280.69,-133.75 275.27,-142.85 282.13,-144.25"/>
</a>
</g>
</g>
<!-- Node8 -->
<g id="Node000008" class="node">
<title>Node8</title>
<g id="a_Node000008"><a xlink:href="_t_m_2_match_output_toggle_2ht32__board__config_8h.html" target="_top" xlink:title="The header file of board configuration.">
<polygon fill="white" stroke="#666666" points="254,-188 151,-188 151,-168 254,-168 254,-188"/>
<text text-anchor="middle" x="202.5" y="-174.5" font-family="Helvetica,sans-Serif" font-size="10.00">ht32_board_config.h</text>
</a>
</g>
</g>
<!-- Node1&#45;&gt;Node8 -->
<g id="edge8_Node000001_Node000008" class="edge">
<title>Node1&#45;&gt;Node8</title>
<g id="a_edge8_Node000001_Node000008"><a xlink:title=" ">
<path fill="none" stroke="#63b8ff" d="M202.5,-223.95C202.5,-215.6 202.5,-207.09 202.5,-199.76"/>
<polygon fill="#63b8ff" stroke="#63b8ff" points="206,-199.95 202.5,-189.95 199,-199.95 206,-199.95"/>
</a>
</g>
</g>
<!-- Node3 -->
<g id="Node000003" class="node">
<title>Node3</title>
<g id="a_Node000003"><a xlink:href="ht32f5xxxx__01_8h.html" target="_top" xlink:title="CMSIS Cortex&#45;M0+ Device Peripheral Access Layer Header File.">
<polygon fill="white" stroke="#666666" points="209.12,-76 121.88,-76 121.88,-56 209.12,-56 209.12,-76"/>
<text text-anchor="middle" x="165.5" y="-62.5" font-family="Helvetica,sans-Serif" font-size="10.00">ht32f5xxxx_01.h</text>
</a>
</g>
</g>
<!-- Node2&#45;&gt;Node3 -->
<g id="edge2_Node000002_Node000003" class="edge">
<title>Node2&#45;&gt;Node3</title>
<g id="a_edge2_Node000002_Node000003"><a xlink:title=" ">
<path fill="none" stroke="#63b8ff" d="M165.5,-111.59C165.5,-105.01 165.5,-95.96 165.5,-87.73"/>
<polygon fill="#63b8ff" stroke="#63b8ff" points="169,-87.81 165.5,-77.81 162,-87.81 169,-87.81"/>
</a>
</g>
</g>
<!-- Node4 -->
<g id="Node000004" class="node">
<title>Node4</title>
<g id="a_Node000004"><a xlink:href="ht32__config_8h.html" target="_top" xlink:title="Configuration file of HT32.">
<polygon fill="white" stroke="#666666" points="319.38,-20 245.62,-20 245.62,0 319.38,0 319.38,-20"/>
<text text-anchor="middle" x="282.5" y="-6.5" font-family="Helvetica,sans-Serif" font-size="10.00">ht32_config.h</text>
</a>
</g>
</g>
<!-- Node3&#45;&gt;Node4 -->
<g id="edge3_Node000003_Node000004" class="edge">
<title>Node3&#45;&gt;Node4</title>
<g id="a_edge3_Node000003_Node000004"><a xlink:title=" ">
<path fill="none" stroke="#63b8ff" d="M185.88,-55.59C204.06,-47.21 230.93,-34.8 251.72,-25.21"/>
<polygon fill="#63b8ff" stroke="#63b8ff" points="252.97,-28.48 260.59,-21.11 250.04,-22.13 252.97,-28.48"/>
</a>
</g>
</g>
<!-- Node5 -->
<g id="Node000005" class="node">
<title>Node5</title>
<g id="a_Node000005"><a xlink:title=" ">
<polygon fill="#e0e0e0" stroke="#999999" points="85,-20 0,-20 0,0 85,0 85,-20"/>
<text text-anchor="middle" x="42.5" y="-6.5" font-family="Helvetica,sans-Serif" font-size="10.00">core_cm0plus.h</text>
</a>
</g>
</g>
<!-- Node3&#45;&gt;Node5 -->
<g id="edge4_Node000003_Node000005" class="edge">
<title>Node3&#45;&gt;Node5</title>
<g id="a_edge4_Node000003_Node000005"><a xlink:title=" ">
<path fill="none" stroke="#63b8ff" d="M144.08,-55.59C124.88,-47.17 96.46,-34.69 74.56,-25.07"/>
<polygon fill="#63b8ff" stroke="#63b8ff" points="76.04,-21.9 65.48,-21.09 73.23,-28.31 76.04,-21.9"/>
</a>
</g>
</g>
<!-- Node6 -->
<g id="Node000006" class="node">
<title>Node6</title>
<g id="a_Node000006"><a xlink:href="system__ht32f5xxxx__01_8h.html" target="_top" xlink:title="CMSIS Cortex&#45;M0+ Device Peripheral Access Layer System Header File for the Holtek HT32F5xxxx Device S...">
<polygon fill="white" stroke="#666666" points="227.88,-20 103.12,-20 103.12,0 227.88,0 227.88,-20"/>
<text text-anchor="middle" x="165.5" y="-6.5" font-family="Helvetica,sans-Serif" font-size="10.00">system_ht32f5xxxx_01.h</text>
</a>
</g>
</g>
<!-- Node3&#45;&gt;Node6 -->
<g id="edge5_Node000003_Node000006" class="edge">
<title>Node3&#45;&gt;Node6</title>
<g id="a_edge5_Node000003_Node000006"><a xlink:title=" ">
<path fill="none" stroke="#63b8ff" d="M165.5,-55.59C165.5,-49.01 165.5,-39.96 165.5,-31.73"/>
<polygon fill="#63b8ff" stroke="#63b8ff" points="169,-31.81 165.5,-21.81 162,-31.81 169,-31.81"/>
</a>
</g>
</g>
<!-- Node7&#45;&gt;Node4 -->
<g id="edge7_Node000007_Node000004" class="edge">
<title>Node7&#45;&gt;Node4</title>
<g id="a_edge7_Node000007_Node000004"><a xlink:title=" ">
<path fill="none" stroke="#63b8ff" d="M282.5,-111.62C282.5,-94.01 282.5,-55.59 282.5,-31.65"/>
<polygon fill="#63b8ff" stroke="#63b8ff" points="286,-31.87 282.5,-21.87 279,-31.87 286,-31.87"/>
</a>
</g>
</g>
<!-- Node8&#45;&gt;Node2 -->
<g id="edge9_Node000008_Node000002" class="edge">
<title>Node8&#45;&gt;Node2</title>
<g id="a_edge9_Node000008_Node000002"><a xlink:title=" ">
<path fill="none" stroke="#63b8ff" d="M196.06,-167.59C191.17,-160.47 184.31,-150.45 178.32,-141.72"/>
<polygon fill="#63b8ff" stroke="#63b8ff" points="181.27,-139.82 172.73,-133.55 175.49,-143.77 181.27,-139.82"/>
</a>
</g>
</g>
</g>
</svg>
