<?xml version="1.0" encoding="UTF-8" standalone="no"?>
<!DOCTYPE svg PUBLIC "-//W3C//DTD SVG 1.1//EN"
 "http://www.w3.org/Graphics/SVG/1.1/DTD/svg11.dtd">
<!-- Generated by graphviz version 9.0.0 (20230911.1827)
 -->
<!-- Title: D:/Note_Database/Subject/MCETA Microcontroller Experiment TA/files/HT32_STD_5xxxx_FWLib_V1.5.1_7084b/example/USBD/USB_UAC_Sound_RateControl/ht32_usbd_class.c Pages: 1 -->
<svg width="413pt" height="312pt"
 viewBox="0.00 0.00 413.38 312.00" xmlns="http://www.w3.org/2000/svg" xmlns:xlink="http://www.w3.org/1999/xlink">
<g id="graph0" class="graph" transform="scale(1 1) rotate(0) translate(4 308)">
<title>D:/Note_Database/Subject/MCETA Microcontroller Experiment TA/files/HT32_STD_5xxxx_FWLib_V1.5.1_7084b/example/USBD/USB_UAC_Sound_RateControl/ht32_usbd_class.c</title>
<!-- Node1 -->
<g id="Node000001" class="node">
<title>Node1</title>
<g id="a_Node000001"><a xlink:title="The USB Device Class.">
<polygon fill="#999999" stroke="#666666" points="261.75,-304 38,-304 38,-224 261.75,-224 261.75,-304"/>
<text text-anchor="start" x="46" y="-290.5" font-family="Helvetica,sans-Serif" font-size="10.00">D:/Note_Database/Subject</text>
<text text-anchor="start" x="46" y="-278.5" font-family="Helvetica,sans-Serif" font-size="10.00">/MCETA Microcontroller</text>
<text text-anchor="start" x="46" y="-266.5" font-family="Helvetica,sans-Serif" font-size="10.00"> Experiment TA/files/HT32</text>
<text text-anchor="start" x="46" y="-254.5" font-family="Helvetica,sans-Serif" font-size="10.00">_STD_5xxxx_FWLib_V1.5.1_7084b</text>
<text text-anchor="start" x="46" y="-242.5" font-family="Helvetica,sans-Serif" font-size="10.00">/example/USBD/USB_UAC_Sound_RateControl</text>
<text text-anchor="middle" x="149.88" y="-230.5" font-family="Helvetica,sans-Serif" font-size="10.00">/ht32_usbd_class.c</text>
</a>
</g>
</g>
<!-- Node2 -->
<g id="Node000002" class="node">
<title>Node2</title>
<g id="a_Node000002"><a xlink:href="ht32_8h.html" target="_top" xlink:title="The API between application and HT32FXXXX Firmware Library.">
<polygon fill="white" stroke="#666666" points="156.38,-132 113.38,-132 113.38,-112 156.38,-112 156.38,-132"/>
<text text-anchor="middle" x="134.88" y="-118.5" font-family="Helvetica,sans-Serif" font-size="10.00">ht32.h</text>
</a>
</g>
</g>
<!-- Node1&#45;&gt;Node2 -->
<g id="edge1_Node000001_Node000002" class="edge">
<title>Node1&#45;&gt;Node2</title>
<g id="a_edge1_Node000001_Node000002"><a xlink:title=" ">
<path fill="none" stroke="#63b8ff" d="M113.25,-223.68C105.33,-212.89 98.08,-200.65 93.88,-188 91.07,-179.56 90.67,-176.29 93.88,-168 97.98,-157.4 105.87,-147.77 113.64,-140.16"/>
<polygon fill="#63b8ff" stroke="#63b8ff" points="115.95,-142.79 121.03,-133.49 111.26,-137.59 115.95,-142.79"/>
</a>
</g>
</g>
<!-- Node7 -->
<g id="Node000007" class="node">
<title>Node7</title>
<g id="a_Node000007"><a xlink:href="ht32__board_8h.html" target="_top" xlink:title="HT32 target board definition file.">
<polygon fill="white" stroke="#666666" points="73,-76 0.75,-76 0.75,-56 73,-56 73,-76"/>
<text text-anchor="middle" x="36.88" y="-62.5" font-family="Helvetica,sans-Serif" font-size="10.00">ht32_board.h</text>
</a>
</g>
</g>
<!-- Node1&#45;&gt;Node7 -->
<g id="edge6_Node000001_Node000007" class="edge">
<title>Node1&#45;&gt;Node7</title>
<g id="a_edge6_Node000001_Node000007"><a xlink:title=" ">
<path fill="none" stroke="#63b8ff" d="M113.8,-223.75C104.65,-212.67 95.32,-200.28 87.88,-188 67.66,-154.64 51.69,-111.83 43.31,-87.09"/>
<polygon fill="#63b8ff" stroke="#63b8ff" points="46.66,-86.08 40.21,-77.68 40.02,-88.27 46.66,-86.08"/>
</a>
</g>
</g>
<!-- Node8 -->
<g id="Node000008" class="node">
<title>Node8</title>
<g id="a_Node000008"><a xlink:href="ht32__usbd__core_8h.html" target="_top" xlink:title="The header file of standard protocol related function for HT32 USB Device Library.">
<polygon fill="white" stroke="#666666" points="196.5,-188 103.25,-188 103.25,-168 196.5,-168 196.5,-188"/>
<text text-anchor="middle" x="149.88" y="-174.5" font-family="Helvetica,sans-Serif" font-size="10.00">ht32_usbd_core.h</text>
</a>
</g>
</g>
<!-- Node1&#45;&gt;Node8 -->
<g id="edge8_Node000001_Node000008" class="edge">
<title>Node1&#45;&gt;Node8</title>
<g id="a_edge8_Node000001_Node000008"><a xlink:title=" ">
<path fill="none" stroke="#63b8ff" d="M149.88,-223.95C149.88,-215.6 149.88,-207.09 149.88,-199.76"/>
<polygon fill="#63b8ff" stroke="#63b8ff" points="153.38,-199.95 149.88,-189.95 146.38,-199.95 153.38,-199.95"/>
</a>
</g>
</g>
<!-- Node9 -->
<g id="Node000009" class="node">
<title>Node9</title>
<g id="a_Node000009"><a xlink:href="example_2_u_s_b_d_2_u_s_b___u_a_c___sound___rate_control_2ht32__usbd__class_8h.html" target="_top" xlink:title="The header file of USB Device Class.">
<polygon fill="white" stroke="#666666" points="312.75,-188 215,-188 215,-168 312.75,-168 312.75,-188"/>
<text text-anchor="middle" x="263.88" y="-174.5" font-family="Helvetica,sans-Serif" font-size="10.00">ht32_usbd_class.h</text>
</a>
</g>
</g>
<!-- Node1&#45;&gt;Node9 -->
<g id="edge9_Node000001_Node000009" class="edge">
<title>Node1&#45;&gt;Node9</title>
<g id="a_edge9_Node000001_Node000009"><a xlink:title=" ">
<path fill="none" stroke="#63b8ff" d="M203.2,-223.71C216.87,-213.64 230.82,-203.36 241.89,-195.2"/>
<polygon fill="#63b8ff" stroke="#63b8ff" points="243.96,-198.02 249.94,-189.27 239.81,-192.38 243.96,-198.02"/>
</a>
</g>
</g>
<!-- Node10 -->
<g id="Node000010" class="node">
<title>Node10</title>
<g id="a_Node000010"><a xlink:href="main_8h.html" target="_top" xlink:title="The API between application and HT32FXXXX Firmware Library.">
<polygon fill="white" stroke="#666666" points="376.5,-188 331.25,-188 331.25,-168 376.5,-168 376.5,-188"/>
<text text-anchor="middle" x="353.88" y="-174.5" font-family="Helvetica,sans-Serif" font-size="10.00">main.h</text>
</a>
</g>
</g>
<!-- Node1&#45;&gt;Node10 -->
<g id="edge10_Node000001_Node000010" class="edge">
<title>Node1&#45;&gt;Node10</title>
<g id="a_edge10_Node000001_Node000010"><a xlink:title=" ">
<path fill="none" stroke="#63b8ff" d="M245.6,-223.58C272.63,-212.45 300.25,-201.08 320.82,-192.61"/>
<polygon fill="#63b8ff" stroke="#63b8ff" points="321.88,-195.96 329.79,-188.92 319.21,-189.49 321.88,-195.96"/>
</a>
</g>
</g>
<!-- Node3 -->
<g id="Node000003" class="node">
<title>Node3</title>
<g id="a_Node000003"><a xlink:href="ht32f5xxxx__01_8h.html" target="_top" xlink:title="CMSIS Cortex&#45;M0+ Device Peripheral Access Layer Header File.">
<polygon fill="white" stroke="#666666" points="178.5,-76 91.25,-76 91.25,-56 178.5,-56 178.5,-76"/>
<text text-anchor="middle" x="134.88" y="-62.5" font-family="Helvetica,sans-Serif" font-size="10.00">ht32f5xxxx_01.h</text>
</a>
</g>
</g>
<!-- Node2&#45;&gt;Node3 -->
<g id="edge2_Node000002_Node000003" class="edge">
<title>Node2&#45;&gt;Node3</title>
<g id="a_edge2_Node000002_Node000003"><a xlink:title=" ">
<path fill="none" stroke="#63b8ff" d="M134.88,-111.59C134.88,-105.01 134.88,-95.96 134.88,-87.73"/>
<polygon fill="#63b8ff" stroke="#63b8ff" points="138.38,-87.81 134.88,-77.81 131.38,-87.81 138.38,-87.81"/>
</a>
</g>
</g>
<!-- Node4 -->
<g id="Node000004" class="node">
<title>Node4</title>
<g id="a_Node000004"><a xlink:href="ht32__config_8h.html" target="_top" xlink:title="Configuration file of HT32.">
<polygon fill="white" stroke="#666666" points="73.75,-20 0,-20 0,0 73.75,0 73.75,-20"/>
<text text-anchor="middle" x="36.88" y="-6.5" font-family="Helvetica,sans-Serif" font-size="10.00">ht32_config.h</text>
</a>
</g>
</g>
<!-- Node3&#45;&gt;Node4 -->
<g id="edge3_Node000003_Node000004" class="edge">
<title>Node3&#45;&gt;Node4</title>
<g id="a_edge3_Node000003_Node000004"><a xlink:title=" ">
<path fill="none" stroke="#63b8ff" d="M117.8,-55.59C103,-47.44 81.31,-35.48 64.11,-26"/>
<polygon fill="#63b8ff" stroke="#63b8ff" points="65.85,-22.97 55.4,-21.21 62.47,-29.1 65.85,-22.97"/>
</a>
</g>
</g>
<!-- Node5 -->
<g id="Node000005" class="node">
<title>Node5</title>
<g id="a_Node000005"><a xlink:title=" ">
<polygon fill="#e0e0e0" stroke="#999999" points="176.38,-20 91.38,-20 91.38,0 176.38,0 176.38,-20"/>
<text text-anchor="middle" x="133.88" y="-6.5" font-family="Helvetica,sans-Serif" font-size="10.00">core_cm0plus.h</text>
</a>
</g>
</g>
<!-- Node3&#45;&gt;Node5 -->
<g id="edge4_Node000003_Node000005" class="edge">
<title>Node3&#45;&gt;Node5</title>
<g id="a_edge4_Node000003_Node000005"><a xlink:title=" ">
<path fill="none" stroke="#63b8ff" d="M134.7,-55.59C134.58,-49.01 134.41,-39.96 134.26,-31.73"/>
<polygon fill="#63b8ff" stroke="#63b8ff" points="137.76,-31.75 134.08,-21.81 130.76,-31.87 137.76,-31.75"/>
</a>
</g>
</g>
<!-- Node6 -->
<g id="Node000006" class="node">
<title>Node6</title>
<g id="a_Node000006"><a xlink:href="system__ht32f5xxxx__01_8h.html" target="_top" xlink:title="CMSIS Cortex&#45;M0+ Device Peripheral Access Layer System Header File for the Holtek HT32F5xxxx Device S...">
<polygon fill="white" stroke="#666666" points="319.25,-20 194.5,-20 194.5,0 319.25,0 319.25,-20"/>
<text text-anchor="middle" x="256.88" y="-6.5" font-family="Helvetica,sans-Serif" font-size="10.00">system_ht32f5xxxx_01.h</text>
</a>
</g>
</g>
<!-- Node3&#45;&gt;Node6 -->
<g id="edge5_Node000003_Node000006" class="edge">
<title>Node3&#45;&gt;Node6</title>
<g id="a_edge5_Node000003_Node000006"><a xlink:title=" ">
<path fill="none" stroke="#63b8ff" d="M156.13,-55.59C175.16,-47.17 203.35,-34.69 225.08,-25.07"/>
<polygon fill="#63b8ff" stroke="#63b8ff" points="226.35,-28.34 234.07,-21.09 223.51,-21.94 226.35,-28.34"/>
</a>
</g>
</g>
<!-- Node7&#45;&gt;Node4 -->
<g id="edge7_Node000007_Node000004" class="edge">
<title>Node7&#45;&gt;Node4</title>
<g id="a_edge7_Node000007_Node000004"><a xlink:title=" ">
<path fill="none" stroke="#63b8ff" d="M36.88,-55.59C36.88,-49.01 36.88,-39.96 36.88,-31.73"/>
<polygon fill="#63b8ff" stroke="#63b8ff" points="40.38,-31.81 36.88,-21.81 33.38,-31.81 40.38,-31.81"/>
</a>
</g>
</g>
<!-- Node10&#45;&gt;Node2 -->
<g id="edge11_Node000010_Node000002" class="edge">
<title>Node10&#45;&gt;Node2</title>
<g id="a_edge11_Node000010_Node000002"><a xlink:title=" ">
<path fill="none" stroke="#63b8ff" d="M330.83,-170.41C327.82,-169.58 324.78,-168.76 321.88,-168 268,-153.95 204.97,-139.11 167.57,-130.47"/>
<polygon fill="#63b8ff" stroke="#63b8ff" points="168.83,-127.17 158.3,-128.34 167.26,-133.99 168.83,-127.17"/>
</a>
</g>
</g>
<!-- Node11 -->
<g id="Node000011" class="node">
<title>Node11</title>
<g id="a_Node000011"><a xlink:href="_u_s_b_d_2_u_s_b___u_a_c___sound___rate_control_2ht32__board__config_8h.html" target="_top" xlink:title="The header file of board configuration.">
<polygon fill="white" stroke="#666666" points="405.38,-132 302.38,-132 302.38,-112 405.38,-112 405.38,-132"/>
<text text-anchor="middle" x="353.88" y="-118.5" font-family="Helvetica,sans-Serif" font-size="10.00">ht32_board_config.h</text>
</a>
</g>
</g>
<!-- Node10&#45;&gt;Node11 -->
<g id="edge12_Node000010_Node000011" class="edge">
<title>Node10&#45;&gt;Node11</title>
<g id="a_edge12_Node000010_Node000011"><a xlink:title=" ">
<path fill="none" stroke="#63b8ff" d="M353.88,-167.59C353.88,-161.01 353.88,-151.96 353.88,-143.73"/>
<polygon fill="#63b8ff" stroke="#63b8ff" points="357.38,-143.81 353.88,-133.81 350.38,-143.81 357.38,-143.81"/>
</a>
</g>
</g>
</g>
</svg>
