<?xml version="1.0" encoding="UTF-8" standalone="no"?>
<!DOCTYPE svg PUBLIC "-//W3C//DTD SVG 1.1//EN"
 "http://www.w3.org/Graphics/SVG/1.1/DTD/svg11.dtd">
<!-- Generated by graphviz version 9.0.0 (20230911.1827)
 -->
<!-- Title: HT32F54253_DVB Pages: 1 -->
<svg width="361pt" height="90pt"
 viewBox="0.00 0.00 361.25 90.00" xmlns="http://www.w3.org/2000/svg" xmlns:xlink="http://www.w3.org/1999/xlink">
<g id="graph0" class="graph" transform="scale(1 1) rotate(0) translate(4 86)">
<title>HT32F54253_DVB</title>
<!-- Node1 -->
<g id="Node000001" class="node">
<title>Node1</title>
<g id="a_Node000001"><a xlink:title=" ">
<polygon fill="#999999" stroke="#666666" points="201.5,-51 105.25,-51 105.25,-31 201.5,-31 201.5,-51"/>
<text text-anchor="middle" x="153.38" y="-37.5" font-family="Helvetica,sans-Serif" font-size="10.00">HT32F54253_DVB</text>
</a>
</g>
</g>
<!-- Node3 -->
<g id="Node000003" class="node">
<title>Node3</title>
<g id="a_Node000003"><a xlink:href="group___h_t32_f54253___d_v_b___exported___constants.html" target="_top" xlink:title=" ">
<polygon fill="white" stroke="#666666" points="353.25,-82 237.5,-82 237.5,-50 353.25,-50 353.25,-82"/>
<text text-anchor="start" x="245.5" y="-68.5" font-family="Helvetica,sans-Serif" font-size="10.00">HT32F54253 Starter</text>
<text text-anchor="middle" x="295.38" y="-56.5" font-family="Helvetica,sans-Serif" font-size="10.00"> kit exported constants</text>
</a>
</g>
</g>
<!-- Node1&#45;&gt;Node3 -->
<g id="edge2" class="edge">
<title>Node1&#45;&gt;Node3</title>
<path fill="none" stroke="black" d="M212.98,-51.47C221.04,-52.9 229.3,-54.38 237.33,-55.81"/>
<polygon fill="black" stroke="black" points="213.72,-48.04 203.26,-49.73 212.49,-54.93 213.72,-48.04"/>
</g>
<!-- Node4 -->
<g id="Node000004" class="node">
<title>Node4</title>
<g id="a_Node000004"><a xlink:href="group___h_t32_f54253___d_v_b___exported___functions.html" target="_top" xlink:title=" ">
<polygon fill="white" stroke="#666666" points="351.38,-32 239.38,-32 239.38,0 351.38,0 351.38,-32"/>
<text text-anchor="start" x="247.38" y="-18.5" font-family="Helvetica,sans-Serif" font-size="10.00">HT32F54253 Starter</text>
<text text-anchor="middle" x="295.38" y="-6.5" font-family="Helvetica,sans-Serif" font-size="10.00"> kit exported functions</text>
</a>
</g>
</g>
<!-- Node1&#45;&gt;Node4 -->
<g id="edge3" class="edge">
<title>Node1&#45;&gt;Node4</title>
<path fill="none" stroke="black" d="M213.03,-30.53C221.73,-28.97 230.67,-27.38 239.29,-25.84"/>
<polygon fill="black" stroke="black" points="212.49,-27.07 203.26,-32.27 213.72,-33.96 212.49,-27.07"/>
</g>
<!-- Node2 -->
<g id="Node000002" class="node">
<title>Node2</title>
<g id="a_Node000002"><a xlink:href="group___h_t32___board.html" target="_top" xlink:title=" ">
<polygon fill="white" stroke="#666666" points="69.25,-51 0,-51 0,-31 69.25,-31 69.25,-51"/>
<text text-anchor="middle" x="34.62" y="-37.5" font-family="Helvetica,sans-Serif" font-size="10.00">HT32_Board</text>
</a>
</g>
</g>
<!-- Node2&#45;&gt;Node1 -->
<g id="edge1" class="edge">
<title>Node2&#45;&gt;Node1</title>
<path fill="none" stroke="black" d="M80.96,-41C88.85,-41 97.07,-41 105.02,-41"/>
<polygon fill="black" stroke="black" points="81.22,-37.5 71.22,-41 81.22,-44.5 81.22,-37.5"/>
</g>
</g>
</svg>
