<?xml version="1.0" encoding="UTF-8" standalone="no"?>
<!DOCTYPE svg PUBLIC "-//W3C//DTD SVG 1.1//EN"
 "http://www.w3.org/Graphics/SVG/1.1/DTD/svg11.dtd">
<!-- Generated by graphviz version 9.0.0 (20230911.1827)
 -->
<!-- Title: HT32F50241_SK_SPI_LCD Pages: 1 -->
<svg width="294pt" height="140pt"
 viewBox="0.00 0.00 294.25 140.00" xmlns="http://www.w3.org/2000/svg" xmlns:xlink="http://www.w3.org/1999/xlink">
<g id="graph0" class="graph" transform="scale(1 1) rotate(0) translate(4 136)">
<title>HT32F50241_SK_SPI_LCD</title>
<!-- Node2 -->
<g id="Node000002" class="node">
<title>Node2</title>
<g id="a_Node000002"><a xlink:href="group___h_t32_f50241___s_k___exported___constants.html" target="_top" xlink:title=" ">
<polygon fill="white" stroke="#666666" points="115.75,-132 0,-132 0,-100 115.75,-100 115.75,-132"/>
<text text-anchor="start" x="8" y="-118.5" font-family="Helvetica,sans-Serif" font-size="10.00">HT32F50241 Starter</text>
<text text-anchor="middle" x="57.88" y="-106.5" font-family="Helvetica,sans-Serif" font-size="10.00"> kit exported constants</text>
</a>
</g>
</g>
<!-- Node1 -->
<g id="Node000001" class="node">
<title>Node1</title>
<g id="a_Node000001"><a xlink:title=" ">
<polygon fill="#999999" stroke="#666666" points="286.25,-76 151.75,-76 151.75,-56 286.25,-56 286.25,-76"/>
<text text-anchor="middle" x="219" y="-62.5" font-family="Helvetica,sans-Serif" font-size="10.00">HT32F50241_SK_SPI_LCD</text>
</a>
</g>
</g>
<!-- Node2&#45;&gt;Node1 -->
<g id="edge1" class="edge">
<title>Node2&#45;&gt;Node1</title>
<path fill="none" stroke="black" d="M121.72,-96.25C143.27,-89.48 166.54,-82.17 184.8,-76.43"/>
<polygon fill="black" stroke="black" points="120.91,-92.84 112.42,-99.17 123.01,-99.52 120.91,-92.84"/>
</g>
<!-- Node3 -->
<g id="Node000003" class="node">
<title>Node3</title>
<g id="a_Node000003"><a xlink:href="group___h_t32_f50441___s_k___exported___constants.html" target="_top" xlink:title=" ">
<polygon fill="white" stroke="#666666" points="115.75,-82 0,-82 0,-50 115.75,-50 115.75,-82"/>
<text text-anchor="start" x="8" y="-68.5" font-family="Helvetica,sans-Serif" font-size="10.00">HT32F50441 Starter</text>
<text text-anchor="middle" x="57.88" y="-56.5" font-family="Helvetica,sans-Serif" font-size="10.00"> kit exported constants</text>
</a>
</g>
</g>
<!-- Node3&#45;&gt;Node1 -->
<g id="edge2" class="edge">
<title>Node3&#45;&gt;Node1</title>
<path fill="none" stroke="black" d="M127.38,-66C135.34,-66 143.44,-66 151.37,-66"/>
<polygon fill="black" stroke="black" points="127.39,-62.5 117.39,-66 127.39,-69.5 127.39,-62.5"/>
</g>
<!-- Node4 -->
<g id="Node000004" class="node">
<title>Node4</title>
<g id="a_Node000004"><a xlink:href="group___h_t32_f53241___s_k___exported___constants.html" target="_top" xlink:title=" ">
<polygon fill="white" stroke="#666666" points="115.75,-32 0,-32 0,0 115.75,0 115.75,-32"/>
<text text-anchor="start" x="8" y="-18.5" font-family="Helvetica,sans-Serif" font-size="10.00">HT32F53241 Starter</text>
<text text-anchor="middle" x="57.88" y="-6.5" font-family="Helvetica,sans-Serif" font-size="10.00"> kit exported constants</text>
</a>
</g>
</g>
<!-- Node4&#45;&gt;Node1 -->
<g id="edge3" class="edge">
<title>Node4&#45;&gt;Node1</title>
<path fill="none" stroke="black" d="M121.72,-35.75C143.27,-42.52 166.54,-49.83 184.8,-55.57"/>
<polygon fill="black" stroke="black" points="123.01,-32.48 112.42,-32.83 120.91,-39.16 123.01,-32.48"/>
</g>
</g>
</svg>
