<?xml version="1.0" encoding="UTF-8" standalone="no"?>
<!DOCTYPE svg PUBLIC "-//W3C//DTD SVG 1.1//EN"
 "http://www.w3.org/Graphics/SVG/1.1/DTD/svg11.dtd">
<!-- Generated by graphviz version 9.0.0 (20230911.1827)
 -->
<!-- Title: BM53A367A Development Board exported constants Pages: 1 -->
<svg width="471pt" height="294pt"
 viewBox="0.00 0.00 470.75 294.00" xmlns="http://www.w3.org/2000/svg" xmlns:xlink="http://www.w3.org/1999/xlink">
<g id="graph0" class="graph" transform="scale(1 1) rotate(0) translate(4 290)">
<title>BM53A367A Development Board exported constants</title>
<!-- Node2 -->
<g id="Node000002" class="node">
<title>Node2</title>
<g id="a_Node000002"><a xlink:href="group___b_m53_a367_a___d_v_b.html" target="_top" xlink:title=" ">
<polygon fill="white" stroke="#666666" points="96.25,-153 0,-153 0,-133 96.25,-133 96.25,-153"/>
<text text-anchor="middle" x="48.12" y="-139.5" font-family="Helvetica,sans-Serif" font-size="10.00">BM53A367A_DVB</text>
</a>
</g>
</g>
<!-- Node1 -->
<g id="Node000001" class="node">
<title>Node1</title>
<g id="a_Node000001"><a xlink:title=" ">
<polygon fill="#999999" stroke="#666666" points="263,-159 132.25,-159 132.25,-127 263,-127 263,-159"/>
<text text-anchor="start" x="140.25" y="-145.5" font-family="Helvetica,sans-Serif" font-size="10.00">BM53A367A Development</text>
<text text-anchor="middle" x="197.62" y="-133.5" font-family="Helvetica,sans-Serif" font-size="10.00"> Board exported constants</text>
</a>
</g>
</g>
<!-- Node2&#45;&gt;Node1 -->
<g id="edge1" class="edge">
<title>Node2&#45;&gt;Node1</title>
<path fill="none" stroke="black" d="M107.89,-143C115.74,-143 123.82,-143 131.76,-143"/>
<polygon fill="black" stroke="black" points="108.12,-139.5 98.12,-143 108.12,-146.5 108.12,-139.5"/>
</g>
<!-- Node4 -->
<g id="Node000004" class="node">
<title>Node4</title>
<g id="a_Node000004"><a xlink:href="group___b_m53_a367_a___d_v_b___b_u_t_t_o_n.html" target="_top" xlink:title=" ">
<polygon fill="white" stroke="#666666" points="450.75,-286 311,-286 311,-266 450.75,-266 450.75,-286"/>
<text text-anchor="middle" x="380.88" y="-272.5" font-family="Helvetica,sans-Serif" font-size="10.00">BM53A367A_DVB_BUTTON</text>
</a>
</g>
</g>
<!-- Node5 -->
<g id="Node000005" class="node">
<title>Node5</title>
<g id="a_Node000005"><a xlink:href="group___b_m53_a367_a___d_v_b___b_u_z_z_e_r.html" target="_top" xlink:title=" ">
<polygon fill="white" stroke="#666666" points="450.38,-248 311.38,-248 311.38,-228 450.38,-228 450.38,-248"/>
<text text-anchor="middle" x="380.88" y="-234.5" font-family="Helvetica,sans-Serif" font-size="10.00">BM53A367A_DVB_BUZZER</text>
</a>
</g>
</g>
<!-- Node6 -->
<g id="Node000006" class="node">
<title>Node6</title>
<g id="a_Node000006"><a xlink:href="group___b_m53_a367_a___d_v_b___c_o_m.html" target="_top" xlink:title=" ">
<polygon fill="white" stroke="#666666" points="442.88,-210 318.88,-210 318.88,-190 442.88,-190 442.88,-210"/>
<text text-anchor="middle" x="380.88" y="-196.5" font-family="Helvetica,sans-Serif" font-size="10.00">BM53A367A_DVB_COM</text>
</a>
</g>
</g>
<!-- Node8 -->
<g id="Node000008" class="node">
<title>Node8</title>
<g id="a_Node000008"><a xlink:href="group___b_m53_a367_a___d_v_b___e_b_i___l_c_d.html" target="_top" xlink:title=" ">
<polygon fill="white" stroke="#666666" points="451.5,-172 310.25,-172 310.25,-152 451.5,-152 451.5,-172"/>
<text text-anchor="middle" x="380.88" y="-158.5" font-family="Helvetica,sans-Serif" font-size="10.00">BM53A367A_DVB_EBI_LCD</text>
</a>
</g>
</g>
<!-- Node1&#45;&gt;Node4 -->
<g id="edge3" class="edge">
<title>Node1&#45;&gt;Node4</title>
<path fill="none" stroke="black" d="M214.38,-168.81C231.79,-195.09 262.29,-235.01 299,-257 304.69,-260.41 310.95,-263.21 317.38,-265.5"/>
<polygon fill="black" stroke="black" points="217.54,-167.25 209.18,-160.74 211.65,-171.05 217.54,-167.25"/>
</g>
<!-- Node1&#45;&gt;Node5 -->
<g id="edge4" class="edge">
<title>Node1&#45;&gt;Node5</title>
<path fill="none" stroke="black" d="M224.07,-167.09C243.26,-183.99 270.99,-205.84 299,-219 306.31,-222.44 314.29,-225.28 322.3,-227.62"/>
<polygon fill="black" stroke="black" points="226.53,-164.59 216.75,-160.5 221.84,-169.79 226.53,-164.59"/>
</g>
<!-- Node1&#45;&gt;Node6 -->
<g id="edge5" class="edge">
<title>Node1&#45;&gt;Node6</title>
<path fill="none" stroke="black" d="M248.92,-163.52C264.79,-169.59 282.49,-175.96 299,-181 309.21,-184.12 320.27,-187.02 330.84,-189.57"/>
<polygon fill="black" stroke="black" points="250.26,-160.28 239.67,-159.93 247.73,-166.81 250.26,-160.28"/>
</g>
<!-- Node1&#45;&gt;Node8 -->
<g id="edge7" class="edge">
<title>Node1&#45;&gt;Node8</title>
<path fill="none" stroke="black" d="M274.46,-150.95C286.24,-152.18 298.37,-153.46 310.01,-154.68"/>
<polygon fill="black" stroke="black" points="275.11,-147.5 264.8,-149.94 274.38,-154.46 275.11,-147.5"/>
</g>
<!-- Node10 -->
<g id="Node000010" class="node">
<title>Node10</title>
<g id="a_Node000010"><a xlink:href="group___b_m53_a367_a___d_v_b___i2_c___e_e_p_r_o_m.html" target="_top" xlink:title=" ">
<polygon fill="white" stroke="#666666" points="462.75,-134 299,-134 299,-114 462.75,-114 462.75,-134"/>
<text text-anchor="middle" x="380.88" y="-120.5" font-family="Helvetica,sans-Serif" font-size="10.00">BM53A367A_DVB_I2C_EEPROM</text>
</a>
</g>
</g>
<!-- Node1&#45;&gt;Node10 -->
<g id="edge9" class="edge">
<title>Node1&#45;&gt;Node10</title>
<path fill="none" stroke="black" d="M274.49,-135.05C282.51,-134.21 290.68,-133.35 298.75,-132.5"/>
<polygon fill="black" stroke="black" points="274.38,-131.54 264.8,-136.06 275.11,-138.5 274.38,-131.54"/>
</g>
<!-- Node3 -->
<g id="Node000003" class="node">
<title>Node3</title>
<g id="a_Node000003"><a xlink:href="group___b_m53_a367_a___d_v_b___l_e_d.html" target="_top" xlink:title=" ">
<polygon fill="white" stroke="#666666" points="441,-96 320.75,-96 320.75,-76 441,-76 441,-96"/>
<text text-anchor="middle" x="380.88" y="-82.5" font-family="Helvetica,sans-Serif" font-size="10.00">BM53A367A_DVB_LED</text>
</a>
</g>
</g>
<!-- Node1&#45;&gt;Node3 -->
<g id="edge2" class="edge">
<title>Node1&#45;&gt;Node3</title>
<path fill="none" stroke="black" d="M248.92,-122.48C264.79,-116.41 282.49,-110.04 299,-105 309.21,-101.88 320.27,-98.98 330.84,-96.43"/>
<polygon fill="black" stroke="black" points="247.73,-119.19 239.67,-126.07 250.26,-125.72 247.73,-119.19"/>
</g>
<!-- Node7 -->
<g id="Node000007" class="node">
<title>Node7</title>
<g id="a_Node000007"><a xlink:href="group___b_m53_a367_a___d_v_b___s_p_i___f_l_a_s_h.html" target="_top" xlink:title=" ">
<polygon fill="white" stroke="#666666" points="457.88,-58 303.88,-58 303.88,-38 457.88,-38 457.88,-58"/>
<text text-anchor="middle" x="380.88" y="-44.5" font-family="Helvetica,sans-Serif" font-size="10.00">BM53A367A_DVB_SPI_FLASH</text>
</a>
</g>
</g>
<!-- Node1&#45;&gt;Node7 -->
<g id="edge6" class="edge">
<title>Node1&#45;&gt;Node7</title>
<path fill="none" stroke="black" d="M224.07,-118.91C243.26,-102.01 270.99,-80.16 299,-67 306.31,-63.56 314.29,-60.72 322.3,-58.38"/>
<polygon fill="black" stroke="black" points="221.84,-116.21 216.75,-125.5 226.53,-121.41 221.84,-116.21"/>
</g>
<!-- Node9 -->
<g id="Node000009" class="node">
<title>Node9</title>
<g id="a_Node000009"><a xlink:href="group___b_m53_a367_a___d_v_b___s_p_i___l_c_d.html" target="_top" xlink:title=" ">
<polygon fill="white" stroke="#666666" points="451.5,-20 310.25,-20 310.25,0 451.5,0 451.5,-20"/>
<text text-anchor="middle" x="380.88" y="-6.5" font-family="Helvetica,sans-Serif" font-size="10.00">BM53A367A_DVB_SPI_LCD</text>
</a>
</g>
</g>
<!-- Node1&#45;&gt;Node9 -->
<g id="edge8" class="edge">
<title>Node1&#45;&gt;Node9</title>
<path fill="none" stroke="black" d="M214.38,-117.19C231.79,-90.91 262.29,-50.99 299,-29 304.69,-25.59 310.95,-22.79 317.38,-20.5"/>
<polygon fill="black" stroke="black" points="211.65,-114.95 209.18,-125.26 217.54,-118.75 211.65,-114.95"/>
</g>
</g>
</svg>
