<?xml version="1.0" encoding="UTF-8" standalone="no"?>
<!DOCTYPE svg PUBLIC "-//W3C//DTD SVG 1.1//EN"
 "http://www.w3.org/Graphics/SVG/1.1/DTD/svg11.dtd">
<!-- Generated by graphviz version 9.0.0 (20230911.1827)
 -->
<!-- Title: EXTI Pages: 1 -->
<svg width="382pt" height="180pt"
 viewBox="0.00 0.00 382.25 180.00" xmlns="http://www.w3.org/2000/svg" xmlns:xlink="http://www.w3.org/1999/xlink">
<g id="graph0" class="graph" transform="scale(1 1) rotate(0) translate(4 176)">
<title>EXTI</title>
<!-- Node1 -->
<g id="Node000001" class="node">
<title>Node1</title>
<g id="a_Node000001"><a xlink:title=" ">
<polygon fill="#999999" stroke="#666666" points="203,-96 167.5,-96 167.5,-76 203,-76 203,-96"/>
<text text-anchor="middle" x="185.25" y="-82.5" font-family="Helvetica,sans-Serif" font-size="10.00">EXTI</text>
</a>
</g>
</g>
<!-- Node3 -->
<g id="Node000003" class="node">
<title>Node3</title>
<g id="a_Node000003"><a xlink:href="group___e_x_t_i___key___l_e_d.html" target="_top" xlink:title=" ">
<polygon fill="white" stroke="#666666" points="347.62,-172 265.62,-172 265.62,-152 347.62,-152 347.62,-172"/>
<text text-anchor="middle" x="306.62" y="-158.5" font-family="Helvetica,sans-Serif" font-size="10.00">EXTI_Key_LED</text>
</a>
</g>
</g>
<!-- Node1&#45;&gt;Node3 -->
<g id="edge2" class="edge">
<title>Node1&#45;&gt;Node3</title>
<path fill="none" stroke="black" d="M199.92,-105.58C209.52,-117.98 223.41,-133.42 239,-143 246.99,-147.91 256.3,-151.59 265.38,-154.34"/>
<polygon fill="black" stroke="black" points="202.84,-103.64 194.08,-97.68 197.21,-107.8 202.84,-103.64"/>
</g>
<!-- Node4 -->
<g id="Node000004" class="node">
<title>Node4</title>
<g id="a_Node000004"><a xlink:href="group___g_p_i_o___interrupt.html" target="_top" xlink:title=" ">
<polygon fill="white" stroke="#666666" points="346.88,-134 266.38,-134 266.38,-114 346.88,-114 346.88,-134"/>
<text text-anchor="middle" x="306.62" y="-120.5" font-family="Helvetica,sans-Serif" font-size="10.00">GPIO_Interrupt</text>
</a>
</g>
</g>
<!-- Node1&#45;&gt;Node4 -->
<g id="edge3" class="edge">
<title>Node1&#45;&gt;Node4</title>
<path fill="none" stroke="black" d="M213.95,-96.38C221.99,-99.28 230.81,-102.36 239,-105 248.16,-107.95 258.1,-110.91 267.44,-113.59"/>
<polygon fill="black" stroke="black" points="215.27,-93.13 204.67,-92.98 212.86,-99.7 215.27,-93.13"/>
</g>
<!-- Node5 -->
<g id="Node000005" class="node">
<title>Node5</title>
<g id="a_Node000005"><a xlink:href="group___software___trigger.html" target="_top" xlink:title=" ">
<polygon fill="white" stroke="#666666" points="350.62,-96 262.62,-96 262.62,-76 350.62,-76 350.62,-96"/>
<text text-anchor="middle" x="306.62" y="-82.5" font-family="Helvetica,sans-Serif" font-size="10.00">Software_Trigger</text>
</a>
</g>
</g>
<!-- Node1&#45;&gt;Node5 -->
<g id="edge4" class="edge">
<title>Node1&#45;&gt;Node5</title>
<path fill="none" stroke="black" d="M214.87,-86C229.06,-86 246.5,-86 262.29,-86"/>
<polygon fill="black" stroke="black" points="214.87,-82.5 204.87,-86 214.87,-89.5 214.87,-82.5"/>
</g>
<!-- Node6 -->
<g id="Node000006" class="node">
<title>Node6</title>
<g id="a_Node000006"><a xlink:href="group___wake_up___deep_sleep_mode1.html" target="_top" xlink:title=" ">
<polygon fill="white" stroke="#666666" points="374.25,-58 239,-58 239,-38 374.25,-38 374.25,-58"/>
<text text-anchor="middle" x="306.62" y="-44.5" font-family="Helvetica,sans-Serif" font-size="10.00">WakeUp_DeepSleepMode1</text>
</a>
</g>
</g>
<!-- Node1&#45;&gt;Node6 -->
<g id="edge5" class="edge">
<title>Node1&#45;&gt;Node6</title>
<path fill="none" stroke="black" d="M213.95,-75.62C221.99,-72.72 230.81,-69.64 239,-67 248.16,-64.05 258.1,-61.09 267.44,-58.41"/>
<polygon fill="black" stroke="black" points="212.86,-72.3 204.67,-79.02 215.27,-78.87 212.86,-72.3"/>
</g>
<!-- Node7 -->
<g id="Node000007" class="node">
<title>Node7</title>
<g id="a_Node000007"><a xlink:href="group___wake_up___sleep_mode.html" target="_top" xlink:title=" ">
<polygon fill="white" stroke="#666666" points="360.38,-20 252.88,-20 252.88,0 360.38,0 360.38,-20"/>
<text text-anchor="middle" x="306.62" y="-6.5" font-family="Helvetica,sans-Serif" font-size="10.00">WakeUp_SleepMode</text>
</a>
</g>
</g>
<!-- Node1&#45;&gt;Node7 -->
<g id="edge6" class="edge">
<title>Node1&#45;&gt;Node7</title>
<path fill="none" stroke="black" d="M199.92,-66.42C209.52,-54.02 223.41,-38.58 239,-29 244.53,-25.6 250.7,-22.79 256.98,-20.47"/>
<polygon fill="black" stroke="black" points="197.21,-64.2 194.08,-74.32 202.84,-68.36 197.21,-64.2"/>
</g>
<!-- Node2 -->
<g id="Node000002" class="node">
<title>Node2</title>
<g id="a_Node000002"><a xlink:href="group___h_t32___series___peripheral___examples.html" target="_top" xlink:title=" ">
<polygon fill="white" stroke="#666666" points="131.5,-96 0,-96 0,-76 131.5,-76 131.5,-96"/>
<text text-anchor="middle" x="65.75" y="-82.5" font-family="Helvetica,sans-Serif" font-size="10.00">HT32 Peripheral Examples</text>
</a>
</g>
</g>
<!-- Node2&#45;&gt;Node1 -->
<g id="edge1" class="edge">
<title>Node2&#45;&gt;Node1</title>
<path fill="none" stroke="black" d="M142.93,-86C151.96,-86 160.38,-86 167.24,-86"/>
<polygon fill="black" stroke="black" points="143.2,-82.5 133.2,-86 143.2,-89.5 143.2,-82.5"/>
</g>
</g>
</svg>
