<?xml version="1.0" encoding="UTF-8" standalone="no"?>
<!DOCTYPE svg PUBLIC "-//W3C//DTD SVG 1.1//EN"
 "http://www.w3.org/Graphics/SVG/1.1/DTD/svg11.dtd">
<!-- Generated by graphviz version 9.0.0 (20230911.1827)
 -->
<!-- Title: TKEY Pages: 1 -->
<svg width="367pt" height="142pt"
 viewBox="0.00 0.00 366.50 142.00" xmlns="http://www.w3.org/2000/svg" xmlns:xlink="http://www.w3.org/1999/xlink">
<g id="graph0" class="graph" transform="scale(1 1) rotate(0) translate(4 138)">
<title>TKEY</title>
<!-- Node2 -->
<g id="Node000002" class="node">
<title>Node2</title>
<g id="a_Node000002"><a xlink:href="group___h_t32_f5xxxx___peripheral___driver.html" target="_top" xlink:title=" ">
<polygon fill="white" stroke="#666666" points="117.25,-83 0,-83 0,-51 117.25,-51 117.25,-83"/>
<text text-anchor="start" x="8" y="-69.5" font-family="Helvetica,sans-Serif" font-size="10.00">HT32F5xxxx Peripheral</text>
<text text-anchor="middle" x="58.62" y="-57.5" font-family="Helvetica,sans-Serif" font-size="10.00"> Driver</text>
</a>
</g>
</g>
<!-- Node1 -->
<g id="Node000001" class="node">
<title>Node1</title>
<g id="a_Node000001"><a xlink:title="TKEY driver modules.">
<polygon fill="#999999" stroke="#666666" points="194.75,-77 153.25,-77 153.25,-57 194.75,-57 194.75,-77"/>
<text text-anchor="middle" x="174" y="-63.5" font-family="Helvetica,sans-Serif" font-size="10.00">TKEY</text>
</a>
</g>
</g>
<!-- Node2&#45;&gt;Node1 -->
<g id="edge1" class="edge">
<title>Node2&#45;&gt;Node1</title>
<path fill="none" stroke="black" d="M129.1,-67C137.69,-67 145.86,-67 152.78,-67"/>
<polygon fill="black" stroke="black" points="129.15,-63.5 119.15,-67 129.15,-70.5 129.15,-63.5"/>
</g>
<!-- Node4 -->
<g id="Node000004" class="node">
<title>Node4</title>
<g id="a_Node000004"><a xlink:href="group___t_k_e_y___exported___constants.html" target="_top" xlink:title=" ">
<polygon fill="white" stroke="#666666" points="358.5,-134 230.75,-134 230.75,-114 358.5,-114 358.5,-134"/>
<text text-anchor="middle" x="294.62" y="-120.5" font-family="Helvetica,sans-Serif" font-size="10.00">TKEY exported constants</text>
</a>
</g>
</g>
<!-- Node1&#45;&gt;Node4 -->
<g id="edge3" class="edge">
<title>Node1&#45;&gt;Node4</title>
<path fill="none" stroke="black" d="M196.71,-84.08C206.65,-91.29 218.86,-99.32 230.75,-105 237.54,-108.25 245.01,-111.08 252.35,-113.5"/>
<polygon fill="black" stroke="black" points="198.92,-81.36 188.82,-78.16 194.72,-86.96 198.92,-81.36"/>
</g>
<!-- Node5 -->
<g id="Node000005" class="node">
<title>Node5</title>
<g id="a_Node000005"><a xlink:href="group___t_k_e_y___exported___functions.html" target="_top" xlink:title=" ">
<polygon fill="white" stroke="#666666" points="356.62,-96 232.62,-96 232.62,-76 356.62,-76 356.62,-96"/>
<text text-anchor="middle" x="294.62" y="-82.5" font-family="Helvetica,sans-Serif" font-size="10.00">TKEY exported functions</text>
</a>
</g>
</g>
<!-- Node1&#45;&gt;Node5 -->
<g id="edge4" class="edge">
<title>Node1&#45;&gt;Node5</title>
<path fill="none" stroke="black" d="M206.46,-72.04C214.44,-73.32 223.28,-74.73 232.2,-76.16"/>
<polygon fill="black" stroke="black" points="207.05,-68.59 196.62,-70.46 205.94,-75.5 207.05,-68.59"/>
</g>
<!-- Node3 -->
<g id="Node000003" class="node">
<title>Node3</title>
<g id="a_Node000003"><a xlink:href="group___t_k_e_y___exported___types.html" target="_top" xlink:title=" ">
<polygon fill="white" stroke="#666666" points="349.12,-58 240.12,-58 240.12,-38 349.12,-38 349.12,-58"/>
<text text-anchor="middle" x="294.62" y="-44.5" font-family="Helvetica,sans-Serif" font-size="10.00">TKEY exported types</text>
</a>
</g>
</g>
<!-- Node1&#45;&gt;Node3 -->
<g id="edge2" class="edge">
<title>Node1&#45;&gt;Node3</title>
<path fill="none" stroke="black" d="M206.36,-61.98C216.58,-60.34 228.24,-58.47 239.63,-56.65"/>
<polygon fill="black" stroke="black" points="205.94,-58.5 196.62,-63.54 207.05,-65.41 205.94,-58.5"/>
</g>
<!-- Node6 -->
<g id="Node000006" class="node">
<title>Node6</title>
<g id="a_Node000006"><a xlink:href="group___t_k_e_y___private___define.html" target="_top" xlink:title=" ">
<polygon fill="white" stroke="#666666" points="354,-20 235.25,-20 235.25,0 354,0 354,-20"/>
<text text-anchor="middle" x="294.62" y="-6.5" font-family="Helvetica,sans-Serif" font-size="10.00">TKEY private definitions</text>
</a>
</g>
</g>
<!-- Node1&#45;&gt;Node6 -->
<g id="edge5" class="edge">
<title>Node1&#45;&gt;Node6</title>
<path fill="none" stroke="black" d="M196.71,-49.92C206.65,-42.71 218.86,-34.68 230.75,-29 237.54,-25.75 245.01,-22.92 252.35,-20.5"/>
<polygon fill="black" stroke="black" points="194.72,-47.04 188.82,-55.84 198.92,-52.64 194.72,-47.04"/>
</g>
</g>
</svg>
