<?xml version="1.0" encoding="UTF-8" standalone="no"?>
<!DOCTYPE svg PUBLIC "-//W3C//DTD SVG 1.1//EN"
 "http://www.w3.org/Graphics/SVG/1.1/DTD/svg11.dtd">
<!-- Generated by graphviz version 9.0.0 (20230911.1827)
 -->
<!-- Title: FMC Pages: 1 -->
<svg width="374pt" height="142pt"
 viewBox="0.00 0.00 374.00 142.00" xmlns="http://www.w3.org/2000/svg" xmlns:xlink="http://www.w3.org/1999/xlink">
<g id="graph0" class="graph" transform="scale(1 1) rotate(0) translate(4 138)">
<title>FMC</title>
<!-- Node3 -->
<g id="Node000003" class="node">
<title>Node3</title>
<g id="a_Node000003"><a xlink:href="group___f_l_a_s_h___operation_no_halt.html" target="_top" xlink:title=" ">
<polygon fill="white" stroke="#666666" points="365.25,-134 241.25,-134 241.25,-114 365.25,-114 365.25,-134"/>
<text text-anchor="middle" x="303.25" y="-120.5" font-family="Helvetica,sans-Serif" font-size="10.00">FLASH_OperationNoHalt</text>
</a>
</g>
</g>
<!-- Node4 -->
<g id="Node000004" class="node">
<title>Node4</title>
<g id="a_Node000004"><a xlink:href="group___f_l_a_s_h___program.html" target="_top" xlink:title=" ">
<polygon fill="white" stroke="#666666" points="348,-96 258.5,-96 258.5,-76 348,-76 348,-96"/>
<text text-anchor="middle" x="303.25" y="-82.5" font-family="Helvetica,sans-Serif" font-size="10.00">FLASH_Program</text>
</a>
</g>
</g>
<!-- Node5 -->
<g id="Node000005" class="node">
<title>Node5</title>
<g id="a_Node000005"><a xlink:href="group___f_l_a_s_h___security.html" target="_top" xlink:title=" ">
<polygon fill="white" stroke="#666666" points="347.62,-58 258.88,-58 258.88,-38 347.62,-38 347.62,-58"/>
<text text-anchor="middle" x="303.25" y="-44.5" font-family="Helvetica,sans-Serif" font-size="10.00">FLASH_Security</text>
</a>
</g>
</g>
<!-- Node6 -->
<g id="Node000006" class="node">
<title>Node6</title>
<g id="a_Node000006"><a xlink:href="group___f_l_a_s_h___write___protection.html" target="_top" xlink:title=" ">
<polygon fill="white" stroke="#666666" points="366,-20 240.5,-20 240.5,0 366,0 366,-20"/>
<text text-anchor="middle" x="303.25" y="-6.5" font-family="Helvetica,sans-Serif" font-size="10.00">FLASH_Write_Protection</text>
</a>
</g>
</g>
<!-- Node1 -->
<g id="Node000001" class="node">
<title>Node1</title>
<g id="a_Node000001"><a xlink:title=" ">
<polygon fill="#999999" stroke="#666666" points="204.5,-77 167.5,-77 167.5,-57 204.5,-57 204.5,-77"/>
<text text-anchor="middle" x="186" y="-63.5" font-family="Helvetica,sans-Serif" font-size="10.00">FMC</text>
</a>
</g>
</g>
<!-- Node1&#45;&gt;Node3 -->
<g id="edge2" class="edge">
<title>Node1&#45;&gt;Node3</title>
<path fill="none" stroke="black" d="M208.05,-84.32C217.52,-91.47 229.12,-99.39 240.5,-105 247.14,-108.27 254.46,-111.12 261.67,-113.55"/>
<polygon fill="black" stroke="black" points="210.26,-81.61 200.23,-78.2 205.95,-87.12 210.26,-81.61"/>
</g>
<!-- Node1&#45;&gt;Node4 -->
<g id="edge3" class="edge">
<title>Node1&#45;&gt;Node4</title>
<path fill="none" stroke="black" d="M215.86,-71.76C228.65,-73.87 243.98,-76.39 258.15,-78.73"/>
<polygon fill="black" stroke="black" points="216.43,-68.31 206,-70.13 215.29,-75.21 216.43,-68.31"/>
</g>
<!-- Node1&#45;&gt;Node5 -->
<g id="edge4" class="edge">
<title>Node1&#45;&gt;Node5</title>
<path fill="none" stroke="black" d="M215.57,-62.29C228.57,-60.15 244.23,-57.57 258.64,-55.19"/>
<polygon fill="black" stroke="black" points="215.29,-58.79 206,-63.87 216.43,-65.69 215.29,-58.79"/>
</g>
<!-- Node1&#45;&gt;Node6 -->
<g id="edge5" class="edge">
<title>Node1&#45;&gt;Node6</title>
<path fill="none" stroke="black" d="M208.05,-49.68C217.52,-42.53 229.12,-34.61 240.5,-29 247.14,-25.73 254.46,-22.88 261.67,-20.45"/>
<polygon fill="black" stroke="black" points="205.95,-46.88 200.23,-55.8 210.26,-52.39 205.95,-46.88"/>
</g>
<!-- Node2 -->
<g id="Node000002" class="node">
<title>Node2</title>
<g id="a_Node000002"><a xlink:href="group___h_t32___series___peripheral___examples.html" target="_top" xlink:title=" ">
<polygon fill="white" stroke="#666666" points="131.5,-77 0,-77 0,-57 131.5,-57 131.5,-77"/>
<text text-anchor="middle" x="65.75" y="-63.5" font-family="Helvetica,sans-Serif" font-size="10.00">HT32 Peripheral Examples</text>
</a>
</g>
</g>
<!-- Node2&#45;&gt;Node1 -->
<g id="edge1" class="edge">
<title>Node2&#45;&gt;Node1</title>
<path fill="none" stroke="black" d="M143.25,-67C152.13,-67 160.44,-67 167.27,-67"/>
<polygon fill="black" stroke="black" points="143.27,-63.5 133.27,-67 143.27,-70.5 143.27,-63.5"/>
</g>
</g>
</svg>
