<?xml version="1.0" encoding="UTF-8" standalone="no"?>
<!DOCTYPE svg PUBLIC "-//W3C//DTD SVG 1.1//EN"
 "http://www.w3.org/Graphics/SVG/1.1/DTD/svg11.dtd">
<!-- Generated by graphviz version 9.0.0 (20230911.1827)
 -->
<!-- Title: USART Pages: 1 -->
<svg width="362pt" height="218pt"
 viewBox="0.00 0.00 362.00 218.00" xmlns="http://www.w3.org/2000/svg" xmlns:xlink="http://www.w3.org/1999/xlink">
<g id="graph0" class="graph" transform="scale(1 1) rotate(0) translate(4 214)">
<title>USART</title>
<!-- Node2 -->
<g id="Node000002" class="node">
<title>Node2</title>
<g id="a_Node000002"><a xlink:href="group___h_t32___series___peripheral___examples.html" target="_top" xlink:title=" ">
<polygon fill="white" stroke="#666666" points="131.5,-115 0,-115 0,-95 131.5,-95 131.5,-115"/>
<text text-anchor="middle" x="65.75" y="-101.5" font-family="Helvetica,sans-Serif" font-size="10.00">HT32 Peripheral Examples</text>
</a>
</g>
</g>
<!-- Node1 -->
<g id="Node000001" class="node">
<title>Node1</title>
<g id="a_Node000001"><a xlink:title=" ">
<polygon fill="#999999" stroke="#666666" points="215.75,-115 167.5,-115 167.5,-95 215.75,-95 215.75,-115"/>
<text text-anchor="middle" x="191.62" y="-101.5" font-family="Helvetica,sans-Serif" font-size="10.00">USART</text>
</a>
</g>
</g>
<!-- Node2&#45;&gt;Node1 -->
<g id="edge1" class="edge">
<title>Node2&#45;&gt;Node1</title>
<path fill="none" stroke="black" d="M143.35,-105C151.89,-105 160.04,-105 167.09,-105"/>
<polygon fill="black" stroke="black" points="143.47,-101.5 133.47,-105 143.47,-108.5 143.47,-101.5"/>
</g>
<!-- Node3 -->
<g id="Node000003" class="node">
<title>Node3</title>
<g id="a_Node000003"><a xlink:href="group___interrupt.html" target="_top" xlink:title=" ">
<polygon fill="white" stroke="#666666" points="328.5,-210 277.25,-210 277.25,-190 328.5,-190 328.5,-210"/>
<text text-anchor="middle" x="302.88" y="-196.5" font-family="Helvetica,sans-Serif" font-size="10.00">Interrupt</text>
</a>
</g>
</g>
<!-- Node4 -->
<g id="Node000004" class="node">
<title>Node4</title>
<g id="a_Node000004"><a xlink:href="group___interrupt___f_i_f_o.html" target="_top" xlink:title=" ">
<polygon fill="white" stroke="#666666" points="342,-172 263.75,-172 263.75,-152 342,-152 342,-172"/>
<text text-anchor="middle" x="302.88" y="-158.5" font-family="Helvetica,sans-Serif" font-size="10.00">Interrupt_FIFO</text>
</a>
</g>
</g>
<!-- Node6 -->
<g id="Node000006" class="node">
<title>Node6</title>
<g id="a_Node000006"><a xlink:href="group___polling.html" target="_top" xlink:title=" ">
<polygon fill="white" stroke="#666666" points="325.5,-134 280.25,-134 280.25,-114 325.5,-114 325.5,-134"/>
<text text-anchor="middle" x="302.88" y="-120.5" font-family="Helvetica,sans-Serif" font-size="10.00">Polling</text>
</a>
</g>
</g>
<!-- Node8 -->
<g id="Node000008" class="node">
<title>Node8</title>
<g id="a_Node000008"><a xlink:href="group___r_s485___n_m_m___slave.html" target="_top" xlink:title=" ">
<polygon fill="white" stroke="#666666" points="354,-96 251.75,-96 251.75,-76 354,-76 354,-96"/>
<text text-anchor="middle" x="302.88" y="-82.5" font-family="Helvetica,sans-Serif" font-size="10.00">RS485_NMM_Slave</text>
</a>
</g>
</g>
<!-- Node7 -->
<g id="Node000007" class="node">
<title>Node7</title>
<g id="a_Node000007"><a xlink:href="group___retarget.html" target="_top" xlink:title=" ">
<polygon fill="white" stroke="#666666" points="329.25,-58 276.5,-58 276.5,-38 329.25,-38 329.25,-58"/>
<text text-anchor="middle" x="302.88" y="-44.5" font-family="Helvetica,sans-Serif" font-size="10.00">Retarget</text>
</a>
</g>
</g>
<!-- Node1&#45;&gt;Node3 -->
<g id="edge2" class="edge">
<title>Node1&#45;&gt;Node3</title>
<path fill="none" stroke="black" d="M203.77,-124.84C214.21,-141.83 231.26,-165.87 251.75,-181 259.16,-186.47 268.34,-190.55 276.8,-193.5"/>
<polygon fill="black" stroke="black" points="207.02,-123.45 198.92,-116.62 200.99,-127.01 207.02,-123.45"/>
</g>
<!-- Node1&#45;&gt;Node4 -->
<g id="edge3" class="edge">
<title>Node1&#45;&gt;Node4</title>
<path fill="none" stroke="black" d="M216.07,-121.68C226.67,-128.79 239.53,-136.84 251.75,-143 257.9,-146.1 264.68,-148.99 271.22,-151.54"/>
<polygon fill="black" stroke="black" points="218.18,-118.88 207.95,-116.1 214.21,-124.65 218.18,-118.88"/>
</g>
<!-- Node1&#45;&gt;Node6 -->
<g id="edge5" class="edge">
<title>Node1&#45;&gt;Node6</title>
<path fill="none" stroke="black" d="M227.4,-111.05C244.64,-114.05 264.92,-117.57 279.96,-120.19"/>
<polygon fill="black" stroke="black" points="228,-107.6 217.55,-109.34 226.81,-114.5 228,-107.6"/>
</g>
<!-- Node1&#45;&gt;Node8 -->
<g id="edge7" class="edge">
<title>Node1&#45;&gt;Node8</title>
<path fill="none" stroke="black" d="M227.22,-98.98C234.96,-97.64 243.31,-96.19 251.53,-94.76"/>
<polygon fill="black" stroke="black" points="226.81,-95.5 217.55,-100.66 228,-102.4 226.81,-95.5"/>
</g>
<!-- Node1&#45;&gt;Node7 -->
<g id="edge6" class="edge">
<title>Node1&#45;&gt;Node7</title>
<path fill="none" stroke="black" d="M216.07,-88.32C226.67,-81.21 239.53,-73.16 251.75,-67 259.48,-63.11 268.21,-59.53 276.19,-56.56"/>
<polygon fill="black" stroke="black" points="214.21,-85.35 207.95,-93.9 218.18,-91.12 214.21,-85.35"/>
</g>
<!-- Node5 -->
<g id="Node000005" class="node">
<title>Node5</title>
<g id="a_Node000005"><a xlink:href="group___u_s_a_r_t___p_d_m_a.html" target="_top" xlink:title=" ">
<polygon fill="white" stroke="#666666" points="343.88,-20 261.88,-20 261.88,0 343.88,0 343.88,-20"/>
<text text-anchor="middle" x="302.88" y="-6.5" font-family="Helvetica,sans-Serif" font-size="10.00">USART_PDMA</text>
</a>
</g>
</g>
<!-- Node1&#45;&gt;Node5 -->
<g id="edge4" class="edge">
<title>Node1&#45;&gt;Node5</title>
<path fill="none" stroke="black" d="M203.77,-85.16C214.21,-68.17 231.26,-44.13 251.75,-29 256.32,-25.63 261.55,-22.78 266.88,-20.41"/>
<polygon fill="black" stroke="black" points="200.99,-82.99 198.92,-93.38 207.02,-86.55 200.99,-82.99"/>
</g>
</g>
</svg>
