<?xml version="1.0" encoding="UTF-8" standalone="no"?>
<!DOCTYPE svg PUBLIC "-//W3C//DTD SVG 1.1//EN"
 "http://www.w3.org/Graphics/SVG/1.1/DTD/svg11.dtd">
<!-- Generated by graphviz version 9.0.0 (20230911.1827)
 -->
<!-- Title: Core Debug Registers (CoreDebug) Pages: 1 -->
<svg width="393pt" height="40pt"
 viewBox="0.00 0.00 392.75 40.00" xmlns="http://www.w3.org/2000/svg" xmlns:xlink="http://www.w3.org/1999/xlink">
<g id="graph0" class="graph" transform="scale(1 1) rotate(0) translate(4 36)">
<title>Core Debug Registers (CoreDebug)</title>
<!-- Node1 -->
<g id="Node000001" class="node">
<title>Node1</title>
<g id="a_Node000001"><a xlink:title="Type definitions for the Core Debug Registers.">
<polygon fill="#999999" stroke="#666666" points="243.5,-32 132.25,-32 132.25,0 243.5,0 243.5,-32"/>
<text text-anchor="start" x="140.25" y="-18.5" font-family="Helvetica,sans-Serif" font-size="10.00">Core Debug Registers</text>
<text text-anchor="middle" x="187.88" y="-6.5" font-family="Helvetica,sans-Serif" font-size="10.00"> (CoreDebug)</text>
</a>
</g>
</g>
<!-- Node3 -->
<g id="Node000003" class="node">
<title>Node3</title>
<g id="a_Node000003"><a xlink:href="group___c_m_s_i_s___d_c_b.html" target="_top" xlink:title="Type definitions for the Debug Control Block Registers.">
<polygon fill="white" stroke="#666666" points="384.75,-26 279.5,-26 279.5,-6 384.75,-6 384.75,-26"/>
<text text-anchor="middle" x="332.12" y="-12.5" font-family="Helvetica,sans-Serif" font-size="10.00">Debug Control Block</text>
</a>
</g>
</g>
<!-- Node1&#45;&gt;Node3 -->
<g id="edge2" class="edge">
<title>Node1&#45;&gt;Node3</title>
<path fill="none" stroke="black" d="M255.13,-16C263.17,-16 271.29,-16 279.07,-16"/>
<polygon fill="black" stroke="black" points="255.39,-12.5 245.39,-16 255.39,-19.5 255.39,-12.5"/>
</g>
<!-- Node2 -->
<g id="Node000002" class="node">
<title>Node2</title>
<g id="a_Node000002"><a xlink:href="group___c_m_s_i_s___f_p_u.html" target="_top" xlink:title="Type definitions for the Floating Point Unit (FPU)">
<polygon fill="white" stroke="#666666" points="96.25,-32 0,-32 0,0 96.25,0 96.25,-32"/>
<text text-anchor="start" x="8" y="-18.5" font-family="Helvetica,sans-Serif" font-size="10.00">Floating Point Unit</text>
<text text-anchor="middle" x="48.12" y="-6.5" font-family="Helvetica,sans-Serif" font-size="10.00"> (FPU)</text>
</a>
</g>
</g>
<!-- Node2&#45;&gt;Node1 -->
<g id="edge1" class="edge">
<title>Node2&#45;&gt;Node1</title>
<path fill="none" stroke="black" d="M107.95,-16C115.86,-16 123.95,-16 131.8,-16"/>
<polygon fill="black" stroke="black" points="108.04,-12.5 98.04,-16 108.04,-19.5 108.04,-12.5"/>
</g>
</g>
</svg>
