<?xml version="1.0" encoding="UTF-8" standalone="no"?>
<!DOCTYPE svg PUBLIC "-//W3C//DTD SVG 1.1//EN"
 "http://www.w3.org/Graphics/SVG/1.1/DTD/svg11.dtd">
<!-- Generated by graphviz version 9.0.0 (20230911.1827)
 -->
<!-- Title: ADC Pages: 1 -->
<svg width="384pt" height="494pt"
 viewBox="0.00 0.00 383.75 494.00" xmlns="http://www.w3.org/2000/svg" xmlns:xlink="http://www.w3.org/1999/xlink">
<g id="graph0" class="graph" transform="scale(1 1) rotate(0) translate(4 490)">
<title>ADC</title>
<!-- Node1 -->
<g id="Node000001" class="node">
<title>Node1</title>
<g id="a_Node000001"><a xlink:title=" ">
<polygon fill="#999999" stroke="#666666" points="203.75,-250 167.5,-250 167.5,-230 203.75,-230 203.75,-250"/>
<text text-anchor="middle" x="185.62" y="-236.5" font-family="Helvetica,sans-Serif" font-size="10.00">ADC</text>
</a>
</g>
</g>
<!-- Node3 -->
<g id="Node000003" class="node">
<title>Node3</title>
<g id="a_Node000003"><a xlink:href="group___analog_watchdog.html" target="_top" xlink:title=" ">
<polygon fill="white" stroke="#666666" points="352.88,-486 262.62,-486 262.62,-466 352.88,-466 352.88,-486"/>
<text text-anchor="middle" x="307.75" y="-472.5" font-family="Helvetica,sans-Serif" font-size="10.00">AnalogWatchdog</text>
</a>
</g>
</g>
<!-- Node1&#45;&gt;Node3 -->
<g id="edge2" class="edge">
<title>Node1&#45;&gt;Node3</title>
<path fill="none" stroke="black" d="M189.14,-261.52C195.29,-310.63 212.63,-428.88 239.75,-457 245.88,-463.35 253.96,-467.63 262.38,-470.49"/>
<polygon fill="black" stroke="black" points="192.65,-261.38 187.97,-251.88 185.7,-262.22 192.65,-261.38"/>
</g>
<!-- Node4 -->
<g id="Node000004" class="node">
<title>Node4</title>
<g id="a_Node000004"><a xlink:href="group___continuous___potentiometer.html" target="_top" xlink:title=" ">
<polygon fill="white" stroke="#666666" points="373.12,-448 242.38,-448 242.38,-428 373.12,-428 373.12,-448"/>
<text text-anchor="middle" x="307.75" y="-434.5" font-family="Helvetica,sans-Serif" font-size="10.00">Continuous_Potentiometer</text>
</a>
</g>
</g>
<!-- Node1&#45;&gt;Node4 -->
<g id="edge3" class="edge">
<title>Node1&#45;&gt;Node4</title>
<path fill="none" stroke="black" d="M186.69,-261.67C188,-299.1 196.22,-376 239.75,-419 243.19,-422.4 247.19,-425.2 251.49,-427.51"/>
<polygon fill="black" stroke="black" points="190.19,-261.64 186.49,-251.71 183.19,-261.77 190.19,-261.64"/>
</g>
<!-- Node5 -->
<g id="Node000005" class="node">
<title>Node5</title>
<g id="a_Node000005"><a xlink:href="group___discontinuous___e_x_t_i_trigger.html" target="_top" xlink:title=" ">
<polygon fill="white" stroke="#666666" points="373.5,-410 242,-410 242,-390 373.5,-390 373.5,-410"/>
<text text-anchor="middle" x="307.75" y="-396.5" font-family="Helvetica,sans-Serif" font-size="10.00">Discontinuous_EXTITrigger</text>
</a>
</g>
</g>
<!-- Node1&#45;&gt;Node5 -->
<g id="edge4" class="edge">
<title>Node1&#45;&gt;Node5</title>
<path fill="none" stroke="black" d="M188.71,-261.39C192.88,-292.26 205.05,-349.1 239.75,-381 243.49,-384.44 247.8,-387.26 252.41,-389.57"/>
<polygon fill="black" stroke="black" points="192.22,-261.27 187.59,-251.74 185.27,-262.08 192.22,-261.27"/>
</g>
<!-- Node6 -->
<g id="Node000006" class="node">
<title>Node6</title>
<g id="a_Node000006"><a xlink:href="group___internal_reference_voltage___p_w_m_trigger.html" target="_top" xlink:title=" ">
<polygon fill="white" stroke="#666666" points="369.75,-372 245.75,-372 245.75,-340 369.75,-340 369.75,-372"/>
<text text-anchor="start" x="253.75" y="-358.5" font-family="Helvetica,sans-Serif" font-size="10.00">InternalReferenceVoltage</text>
<text text-anchor="middle" x="307.75" y="-346.5" font-family="Helvetica,sans-Serif" font-size="10.00">_PWMTrigger</text>
</a>
</g>
</g>
<!-- Node1&#45;&gt;Node6 -->
<g id="edge5" class="edge">
<title>Node1&#45;&gt;Node6</title>
<path fill="none" stroke="black" d="M194.04,-260.97C202.27,-281.44 217.41,-312.19 239.75,-331 243.64,-334.28 248.01,-337.15 252.6,-339.66"/>
<polygon fill="black" stroke="black" points="197.34,-259.8 190.53,-251.68 190.79,-262.28 197.34,-259.8"/>
</g>
<!-- Node7 -->
<g id="Node000007" class="node">
<title>Node7</title>
<g id="a_Node000007"><a xlink:href="group___internal_reference_voltage___s_w_trigger.html" target="_top" xlink:title=" ">
<polygon fill="white" stroke="#666666" points="369.75,-322 245.75,-322 245.75,-290 369.75,-290 369.75,-322"/>
<text text-anchor="start" x="253.75" y="-308.5" font-family="Helvetica,sans-Serif" font-size="10.00">InternalReferenceVoltage</text>
<text text-anchor="middle" x="307.75" y="-296.5" font-family="Helvetica,sans-Serif" font-size="10.00">_SWTrigger</text>
</a>
</g>
</g>
<!-- Node1&#45;&gt;Node7 -->
<g id="edge6" class="edge">
<title>Node1&#45;&gt;Node7</title>
<path fill="none" stroke="black" d="M206.44,-257.59C216.03,-265.48 227.99,-274.46 239.75,-281 245.39,-284.14 251.51,-287.03 257.67,-289.65"/>
<polygon fill="black" stroke="black" points="208.78,-254.98 198.89,-251.17 204.24,-260.31 208.78,-254.98"/>
</g>
<!-- Node8 -->
<g id="Node000008" class="node">
<title>Node8</title>
<g id="a_Node000008"><a xlink:href="group___one_shot___p_w_m_trigger.html" target="_top" xlink:title=" ">
<polygon fill="white" stroke="#666666" points="364.5,-272 251,-272 251,-252 364.5,-252 364.5,-272"/>
<text text-anchor="middle" x="307.75" y="-258.5" font-family="Helvetica,sans-Serif" font-size="10.00">OneShot_PWMTrigger</text>
</a>
</g>
</g>
<!-- Node1&#45;&gt;Node8 -->
<g id="edge7" class="edge">
<title>Node1&#45;&gt;Node8</title>
<path fill="none" stroke="black" d="M215.24,-245.24C225.9,-247.19 238.4,-249.48 250.68,-251.73"/>
<polygon fill="black" stroke="black" points="216.05,-241.83 205.58,-243.47 214.79,-248.72 216.05,-241.83"/>
</g>
<!-- Node9 -->
<g id="Node000009" class="node">
<title>Node9</title>
<g id="a_Node000009"><a xlink:href="group___one_shot___p_w_m_trigger___dual___a_d_c.html" target="_top" xlink:title=" ">
<polygon fill="white" stroke="#666666" points="364.5,-234 251,-234 251,-202 364.5,-202 364.5,-234"/>
<text text-anchor="start" x="259" y="-220.5" font-family="Helvetica,sans-Serif" font-size="10.00">OneShot_PWMTrigger</text>
<text text-anchor="middle" x="307.75" y="-208.5" font-family="Helvetica,sans-Serif" font-size="10.00">_Dual_ADC</text>
</a>
</g>
</g>
<!-- Node1&#45;&gt;Node9 -->
<g id="edge8" class="edge">
<title>Node1&#45;&gt;Node9</title>
<path fill="none" stroke="black" d="M215.24,-234.76C225.9,-232.81 238.4,-230.52 250.68,-228.27"/>
<polygon fill="black" stroke="black" points="214.79,-231.28 205.58,-236.53 216.05,-238.17 214.79,-231.28"/>
</g>
<!-- Node10 -->
<g id="Node000010" class="node">
<title>Node10</title>
<g id="a_Node000010"><a xlink:href="group___one_shot___p_w_m_trigger__with___delay.html" target="_top" xlink:title=" ">
<polygon fill="white" stroke="#666666" points="364.5,-184 251,-184 251,-152 364.5,-152 364.5,-184"/>
<text text-anchor="start" x="259" y="-170.5" font-family="Helvetica,sans-Serif" font-size="10.00">OneShot_PWMTrigger</text>
<text text-anchor="middle" x="307.75" y="-158.5" font-family="Helvetica,sans-Serif" font-size="10.00">_with_Delay</text>
</a>
</g>
</g>
<!-- Node1&#45;&gt;Node10 -->
<g id="edge9" class="edge">
<title>Node1&#45;&gt;Node10</title>
<path fill="none" stroke="black" d="M203.98,-221.68C213.78,-212.14 226.66,-200.86 239.75,-193 244.97,-189.87 250.64,-187.02 256.4,-184.46"/>
<polygon fill="black" stroke="black" points="201.55,-219.15 197,-228.72 206.53,-224.08 201.55,-219.15"/>
</g>
<!-- Node11 -->
<g id="Node000011" class="node">
<title>Node11</title>
<g id="a_Node000011"><a xlink:href="group___one_shot___s_w_trigger.html" target="_top" xlink:title=" ">
<polygon fill="white" stroke="#666666" points="360.38,-134 255.12,-134 255.12,-114 360.38,-114 360.38,-134"/>
<text text-anchor="middle" x="307.75" y="-120.5" font-family="Helvetica,sans-Serif" font-size="10.00">OneShot_SWTrigger</text>
</a>
</g>
</g>
<!-- Node1&#45;&gt;Node11 -->
<g id="edge10" class="edge">
<title>Node1&#45;&gt;Node11</title>
<path fill="none" stroke="black" d="M192.78,-218.9C200.31,-196.79 215.17,-162.59 239.75,-143 244.29,-139.38 249.48,-136.45 254.92,-134.08"/>
<polygon fill="black" stroke="black" points="189.48,-217.74 189.8,-228.33 196.15,-219.85 189.48,-217.74"/>
</g>
<!-- Node12 -->
<g id="Node000012" class="node">
<title>Node12</title>
<g id="a_Node000012"><a xlink:href="group___one_shot___s_w_trigger___by_t_m.html" target="_top" xlink:title=" ">
<polygon fill="white" stroke="#666666" points="375.75,-96 239.75,-96 239.75,-76 375.75,-76 375.75,-96"/>
<text text-anchor="middle" x="307.75" y="-82.5" font-family="Helvetica,sans-Serif" font-size="10.00">OneShot_SWTrigger_ByTM</text>
</a>
</g>
</g>
<!-- Node1&#45;&gt;Node12 -->
<g id="edge11" class="edge">
<title>Node1&#45;&gt;Node12</title>
<path fill="none" stroke="black" d="M189.12,-218.67C193.75,-188.91 206.43,-135.19 239.75,-105 243.51,-101.59 247.85,-98.79 252.46,-96.49"/>
<polygon fill="black" stroke="black" points="185.69,-217.94 187.8,-228.32 192.63,-218.89 185.69,-217.94"/>
</g>
<!-- Node13 -->
<g id="Node000013" class="node">
<title>Node13</title>
<g id="a_Node000013"><a xlink:href="group___one_shot___t_m_trigger___p_d_m_a.html" target="_top" xlink:title=" ">
<polygon fill="white" stroke="#666666" points="375.75,-58 239.75,-58 239.75,-38 375.75,-38 375.75,-58"/>
<text text-anchor="middle" x="307.75" y="-44.5" font-family="Helvetica,sans-Serif" font-size="10.00">OneShot_TMTrigger_PDMA</text>
</a>
</g>
</g>
<!-- Node1&#45;&gt;Node13 -->
<g id="edge12" class="edge">
<title>Node1&#45;&gt;Node13</title>
<path fill="none" stroke="black" d="M186.95,-218.52C188.69,-182.13 197.57,-108.28 239.75,-67 243.29,-63.53 247.42,-60.69 251.85,-58.36"/>
<polygon fill="black" stroke="black" points="183.46,-218.1 186.64,-228.21 190.46,-218.33 183.46,-218.1"/>
</g>
<!-- Node14 -->
<g id="Node000014" class="node">
<title>Node14</title>
<g id="a_Node000014"><a xlink:href="group___two___group___max_c_h.html" target="_top" xlink:title=" ">
<polygon fill="white" stroke="#666666" points="358.88,-20 256.62,-20 256.62,0 358.88,0 358.88,-20"/>
<text text-anchor="middle" x="307.75" y="-6.5" font-family="Helvetica,sans-Serif" font-size="10.00">Two_Group_MaxCH</text>
</a>
</g>
</g>
<!-- Node1&#45;&gt;Node14 -->
<g id="edge13" class="edge">
<title>Node1&#45;&gt;Node14</title>
<path fill="none" stroke="black" d="M189.31,-218.43C195.71,-170.3 213.36,-56.18 239.75,-29 244.38,-24.23 250.12,-20.63 256.27,-17.92"/>
<polygon fill="black" stroke="black" points="185.86,-217.78 188.05,-228.15 192.8,-218.68 185.86,-217.78"/>
</g>
<!-- Node2 -->
<g id="Node000002" class="node">
<title>Node2</title>
<g id="a_Node000002"><a xlink:href="group___h_t32___series___peripheral___examples.html" target="_top" xlink:title=" ">
<polygon fill="white" stroke="#666666" points="131.5,-250 0,-250 0,-230 131.5,-230 131.5,-250"/>
<text text-anchor="middle" x="65.75" y="-236.5" font-family="Helvetica,sans-Serif" font-size="10.00">HT32 Peripheral Examples</text>
</a>
</g>
</g>
<!-- Node2&#45;&gt;Node1 -->
<g id="edge1" class="edge">
<title>Node2&#45;&gt;Node1</title>
<path fill="none" stroke="black" d="M143.29,-240C152.1,-240 160.32,-240 167.09,-240"/>
<polygon fill="black" stroke="black" points="143.41,-236.5 133.41,-240 143.41,-243.5 143.41,-236.5"/>
</g>
</g>
</svg>
