<?xml version="1.0" encoding="UTF-8" standalone="no"?>
<!DOCTYPE svg PUBLIC "-//W3C//DTD SVG 1.1//EN"
 "http://www.w3.org/Graphics/SVG/1.1/DTD/svg11.dtd">
<!-- Generated by graphviz version 9.0.0 (20230911.1827)
 -->
<!-- Title: NVIC Pages: 1 -->
<svg width="354pt" height="142pt"
 viewBox="0.00 0.00 353.75 142.00" xmlns="http://www.w3.org/2000/svg" xmlns:xlink="http://www.w3.org/1999/xlink">
<g id="graph0" class="graph" transform="scale(1 1) rotate(0) translate(4 138)">
<title>NVIC</title>
<!-- Node3 -->
<g id="Node000003" class="node">
<title>Node3</title>
<g id="a_Node000003"><a xlink:href="group___disable___interrupt.html" target="_top" xlink:title=" ">
<polygon fill="white" stroke="#666666" points="338.25,-134 249.5,-134 249.5,-114 338.25,-114 338.25,-134"/>
<text text-anchor="middle" x="293.88" y="-120.5" font-family="Helvetica,sans-Serif" font-size="10.00">Disable_Interrupt</text>
</a>
</g>
</g>
<!-- Node4 -->
<g id="Node000004" class="node">
<title>Node4</title>
<g id="a_Node000004"><a xlink:href="group___external___interrupt.html" target="_top" xlink:title=" ">
<polygon fill="white" stroke="#666666" points="340.12,-96 247.62,-96 247.62,-76 340.12,-76 340.12,-96"/>
<text text-anchor="middle" x="293.88" y="-82.5" font-family="Helvetica,sans-Serif" font-size="10.00">External_Interrupt</text>
</a>
</g>
</g>
<!-- Node2 -->
<g id="Node000002" class="node">
<title>Node2</title>
<g id="a_Node000002"><a xlink:href="group___h_t32___series___peripheral___examples.html" target="_top" xlink:title=" ">
<polygon fill="white" stroke="#666666" points="131.5,-77 0,-77 0,-57 131.5,-57 131.5,-77"/>
<text text-anchor="middle" x="65.75" y="-63.5" font-family="Helvetica,sans-Serif" font-size="10.00">HT32 Peripheral Examples</text>
</a>
</g>
</g>
<!-- Node1 -->
<g id="Node000001" class="node">
<title>Node1</title>
<g id="a_Node000001"><a xlink:title=" ">
<polygon fill="#999999" stroke="#666666" points="206,-77 167.5,-77 167.5,-57 206,-57 206,-77"/>
<text text-anchor="middle" x="186.75" y="-63.5" font-family="Helvetica,sans-Serif" font-size="10.00">NVIC</text>
</a>
</g>
</g>
<!-- Node2&#45;&gt;Node1 -->
<g id="edge1" class="edge">
<title>Node2&#45;&gt;Node1</title>
<path fill="none" stroke="black" d="M143.26,-67C152.11,-67 160.41,-67 167.29,-67"/>
<polygon fill="black" stroke="black" points="143.33,-63.5 133.33,-67 143.33,-70.5 143.33,-63.5"/>
</g>
<!-- Node1&#45;&gt;Node3 -->
<g id="edge2" class="edge">
<title>Node1&#45;&gt;Node3</title>
<path fill="none" stroke="black" d="M209.68,-84.27C219.25,-91.29 230.82,-99.12 242,-105 248.01,-108.16 254.66,-111.05 261.12,-113.56"/>
<polygon fill="black" stroke="black" points="211.82,-81.5 201.73,-78.27 207.6,-87.09 211.82,-81.5"/>
</g>
<!-- Node1&#45;&gt;Node4 -->
<g id="edge3" class="edge">
<title>Node1&#45;&gt;Node4</title>
<path fill="none" stroke="black" d="M217.12,-72.31C226.45,-73.99 237.01,-75.9 247.21,-77.75"/>
<polygon fill="black" stroke="black" points="218.01,-68.91 207.55,-70.58 216.77,-75.8 218.01,-68.91"/>
</g>
<!-- Node5 -->
<g id="Node000005" class="node">
<title>Node5</title>
<g id="a_Node000005"><a xlink:href="group___system___exception.html" target="_top" xlink:title=" ">
<polygon fill="white" stroke="#666666" points="343.12,-58 244.62,-58 244.62,-38 343.12,-38 343.12,-58"/>
<text text-anchor="middle" x="293.88" y="-44.5" font-family="Helvetica,sans-Serif" font-size="10.00">System_Exception</text>
</a>
</g>
</g>
<!-- Node1&#45;&gt;Node5 -->
<g id="edge4" class="edge">
<title>Node1&#45;&gt;Node5</title>
<path fill="none" stroke="black" d="M217.26,-61.67C225.74,-60.13 235.21,-58.42 244.51,-56.74"/>
<polygon fill="black" stroke="black" points="216.77,-58.2 207.55,-63.42 218.01,-65.09 216.77,-58.2"/>
</g>
<!-- Node6 -->
<g id="Node000006" class="node">
<title>Node6</title>
<g id="a_Node000006"><a xlink:href="group___vector___table___offset.html" target="_top" xlink:title=" ">
<polygon fill="white" stroke="#666666" points="345.75,-20 242,-20 242,0 345.75,0 345.75,-20"/>
<text text-anchor="middle" x="293.88" y="-6.5" font-family="Helvetica,sans-Serif" font-size="10.00">Vector_Table_Offset</text>
</a>
</g>
</g>
<!-- Node1&#45;&gt;Node6 -->
<g id="edge5" class="edge">
<title>Node1&#45;&gt;Node6</title>
<path fill="none" stroke="black" d="M209.68,-49.73C219.25,-42.71 230.82,-34.88 242,-29 248.01,-25.84 254.66,-22.95 261.12,-20.44"/>
<polygon fill="black" stroke="black" points="207.6,-46.91 201.73,-55.73 211.82,-52.5 207.6,-46.91"/>
</g>
</g>
</svg>
