<?xml version="1.0" encoding="UTF-8" standalone="no"?>
<!DOCTYPE svg PUBLIC "-//W3C//DTD SVG 1.1//EN"
 "http://www.w3.org/Graphics/SVG/1.1/DTD/svg11.dtd">
<!-- Generated by graphviz version 9.0.0 (20230911.1827)
 -->
<!-- Title: RTC Pages: 1 -->
<svg width="353pt" height="142pt"
 viewBox="0.00 0.00 353.00 142.00" xmlns="http://www.w3.org/2000/svg" xmlns:xlink="http://www.w3.org/1999/xlink">
<g id="graph0" class="graph" transform="scale(1 1) rotate(0) translate(4 138)">
<title>RTC</title>
<!-- Node2 -->
<g id="Node000002" class="node">
<title>Node2</title>
<g id="a_Node000002"><a xlink:href="group___h_t32_f5xxxx___peripheral___driver.html" target="_top" xlink:title=" ">
<polygon fill="white" stroke="#666666" points="117.25,-83 0,-83 0,-51 117.25,-51 117.25,-83"/>
<text text-anchor="start" x="8" y="-69.5" font-family="Helvetica,sans-Serif" font-size="10.00">HT32F5xxxx Peripheral</text>
<text text-anchor="middle" x="58.62" y="-57.5" font-family="Helvetica,sans-Serif" font-size="10.00"> Driver</text>
</a>
</g>
</g>
<!-- Node1 -->
<g id="Node000001" class="node">
<title>Node1</title>
<g id="a_Node000001"><a xlink:title="RTC driver modules.">
<polygon fill="#999999" stroke="#666666" points="188,-77 153.25,-77 153.25,-57 188,-57 188,-77"/>
<text text-anchor="middle" x="170.62" y="-63.5" font-family="Helvetica,sans-Serif" font-size="10.00">RTC</text>
</a>
</g>
</g>
<!-- Node2&#45;&gt;Node1 -->
<g id="edge1" class="edge">
<title>Node2&#45;&gt;Node1</title>
<path fill="none" stroke="black" d="M129.01,-67C137.9,-67 146.26,-67 153.05,-67"/>
<polygon fill="black" stroke="black" points="129.04,-63.5 119.04,-67 129.04,-70.5 129.04,-63.5"/>
</g>
<!-- Node4 -->
<g id="Node000004" class="node">
<title>Node4</title>
<g id="a_Node000004"><a xlink:href="group___r_t_c___exported___constants.html" target="_top" xlink:title=" ">
<polygon fill="white" stroke="#666666" points="345,-134 224,-134 224,-114 345,-114 345,-134"/>
<text text-anchor="middle" x="284.5" y="-120.5" font-family="Helvetica,sans-Serif" font-size="10.00">RTC exported constants</text>
</a>
</g>
</g>
<!-- Node1&#45;&gt;Node4 -->
<g id="edge3" class="edge">
<title>Node1&#45;&gt;Node4</title>
<path fill="none" stroke="black" d="M192.21,-84.28C201.48,-91.43 212.84,-99.35 224,-105 230.48,-108.28 237.65,-111.14 244.69,-113.59"/>
<polygon fill="black" stroke="black" points="194.57,-81.69 184.58,-78.18 190.2,-87.16 194.57,-81.69"/>
</g>
<!-- Node5 -->
<g id="Node000005" class="node">
<title>Node5</title>
<g id="a_Node000005"><a xlink:href="group___r_t_c___exported___functions.html" target="_top" xlink:title=" ">
<polygon fill="white" stroke="#666666" points="343.12,-96 225.88,-96 225.88,-76 343.12,-76 343.12,-96"/>
<text text-anchor="middle" x="284.5" y="-82.5" font-family="Helvetica,sans-Serif" font-size="10.00">RTC exported functions</text>
</a>
</g>
</g>
<!-- Node1&#45;&gt;Node5 -->
<g id="edge4" class="edge">
<title>Node1&#45;&gt;Node5</title>
<path fill="none" stroke="black" d="M199.35,-71.71C207.36,-73.07 216.41,-74.61 225.53,-76.15"/>
<polygon fill="black" stroke="black" points="200.07,-68.28 189.62,-70.06 198.9,-75.18 200.07,-68.28"/>
</g>
<!-- Node3 -->
<g id="Node000003" class="node">
<title>Node3</title>
<g id="a_Node000003"><a xlink:href="group___r_t_c___exported___types.html" target="_top" xlink:title=" ">
<polygon fill="white" stroke="#666666" points="335.62,-58 233.38,-58 233.38,-38 335.62,-38 335.62,-58"/>
<text text-anchor="middle" x="284.5" y="-44.5" font-family="Helvetica,sans-Serif" font-size="10.00">RTC exported types</text>
</a>
</g>
</g>
<!-- Node1&#45;&gt;Node3 -->
<g id="edge2" class="edge">
<title>Node1&#45;&gt;Node3</title>
<path fill="none" stroke="black" d="M199.21,-62.31C209.43,-60.58 221.36,-58.55 232.97,-56.58"/>
<polygon fill="black" stroke="black" points="198.9,-58.82 189.62,-63.94 200.07,-65.72 198.9,-58.82"/>
</g>
<!-- Node6 -->
<g id="Node000006" class="node">
<title>Node6</title>
<g id="a_Node000006"><a xlink:href="group___r_t_c___private___define.html" target="_top" xlink:title=" ">
<polygon fill="white" stroke="#666666" points="340.5,-20 228.5,-20 228.5,0 340.5,0 340.5,-20"/>
<text text-anchor="middle" x="284.5" y="-6.5" font-family="Helvetica,sans-Serif" font-size="10.00">RTC private definitions</text>
</a>
</g>
</g>
<!-- Node1&#45;&gt;Node6 -->
<g id="edge5" class="edge">
<title>Node1&#45;&gt;Node6</title>
<path fill="none" stroke="black" d="M192.21,-49.72C201.48,-42.57 212.84,-34.65 224,-29 230.48,-25.72 237.65,-22.86 244.69,-20.41"/>
<polygon fill="black" stroke="black" points="190.2,-46.84 184.58,-55.82 194.57,-52.31 190.2,-46.84"/>
</g>
</g>
</svg>
