<?xml version="1.0" encoding="UTF-8" standalone="no"?>
<!DOCTYPE svg PUBLIC "-//W3C//DTD SVG 1.1//EN"
 "http://www.w3.org/Graphics/SVG/1.1/DTD/svg11.dtd">
<!-- Generated by graphviz version 9.0.0 (20230911.1827)
 -->
<!-- Title: SPI Pages: 1 -->
<svg width="351pt" height="256pt"
 viewBox="0.00 0.00 350.75 256.00" xmlns="http://www.w3.org/2000/svg" xmlns:xlink="http://www.w3.org/1999/xlink">
<g id="graph0" class="graph" transform="scale(1 1) rotate(0) translate(4 252)">
<title>SPI</title>
<!-- Node3 -->
<g id="Node000003" class="node">
<title>Node3</title>
<g id="a_Node000003"><a xlink:href="group___f_i_f_o___s_e_l___hardware.html" target="_top" xlink:title=" ">
<polygon fill="white" stroke="#666666" points="342.75,-248 235.25,-248 235.25,-228 342.75,-228 342.75,-248"/>
<text text-anchor="middle" x="289" y="-234.5" font-family="Helvetica,sans-Serif" font-size="10.00">FIFO_SEL_Hardware</text>
</a>
</g>
</g>
<!-- Node4 -->
<g id="Node000004" class="node">
<title>Node4</title>
<g id="a_Node000004"><a xlink:href="group___flash.html" target="_top" xlink:title=" ">
<polygon fill="white" stroke="#666666" points="309,-210 269,-210 269,-190 309,-190 309,-210"/>
<text text-anchor="middle" x="289" y="-196.5" font-family="Helvetica,sans-Serif" font-size="10.00">Flash</text>
</a>
</g>
</g>
<!-- Node2 -->
<g id="Node000002" class="node">
<title>Node2</title>
<g id="a_Node000002"><a xlink:href="group___h_t32___series___peripheral___examples.html" target="_top" xlink:title=" ">
<polygon fill="white" stroke="#666666" points="131.5,-134 0,-134 0,-114 131.5,-114 131.5,-134"/>
<text text-anchor="middle" x="65.75" y="-120.5" font-family="Helvetica,sans-Serif" font-size="10.00">HT32 Peripheral Examples</text>
</a>
</g>
</g>
<!-- Node1 -->
<g id="Node000001" class="node">
<title>Node1</title>
<g id="a_Node000001"><a xlink:title=" ">
<polygon fill="#999999" stroke="#666666" points="199.25,-134 167.5,-134 167.5,-114 199.25,-114 199.25,-134"/>
<text text-anchor="middle" x="183.38" y="-120.5" font-family="Helvetica,sans-Serif" font-size="10.00">SPI</text>
</a>
</g>
</g>
<!-- Node2&#45;&gt;Node1 -->
<g id="edge1" class="edge">
<title>Node2&#45;&gt;Node1</title>
<path fill="none" stroke="black" d="M143.47,-124C152.3,-124 160.47,-124 167.02,-124"/>
<polygon fill="black" stroke="black" points="143.51,-120.5 133.51,-124 143.51,-127.5 143.51,-120.5"/>
</g>
<!-- Node6 -->
<g id="Node000006" class="node">
<title>Node6</title>
<g id="a_Node000006"><a xlink:href="group___master.html" target="_top" xlink:title=" ">
<polygon fill="white" stroke="#666666" points="312,-172 266,-172 266,-152 312,-152 312,-172"/>
<text text-anchor="middle" x="289" y="-158.5" font-family="Helvetica,sans-Serif" font-size="10.00">Master</text>
</a>
</g>
</g>
<!-- Node8 -->
<g id="Node000008" class="node">
<title>Node8</title>
<g id="a_Node000008"><a xlink:href="group___s_e_l___software.html" target="_top" xlink:title=" ">
<polygon fill="white" stroke="#666666" points="327.75,-134 250.25,-134 250.25,-114 327.75,-114 327.75,-134"/>
<text text-anchor="middle" x="289" y="-120.5" font-family="Helvetica,sans-Serif" font-size="10.00">SEL_Software</text>
</a>
</g>
</g>
<!-- Node1&#45;&gt;Node3 -->
<g id="edge2" class="edge">
<title>Node1&#45;&gt;Node3</title>
<path fill="none" stroke="black" d="M190.74,-145.3C198.17,-166.71 212.42,-199.28 235.25,-219 239.23,-222.44 243.87,-225.27 248.73,-227.6"/>
<polygon fill="black" stroke="black" points="194.1,-144.32 187.69,-135.88 187.44,-146.47 194.1,-144.32"/>
</g>
<!-- Node1&#45;&gt;Node4 -->
<g id="edge3" class="edge">
<title>Node1&#45;&gt;Node4</title>
<path fill="none" stroke="black" d="M197.63,-143.25C206.93,-155.51 220.33,-170.93 235.25,-181 245.33,-187.81 258.15,-192.5 268.62,-195.52"/>
<polygon fill="black" stroke="black" points="200.7,-141.52 191.99,-135.48 195.04,-145.63 200.7,-141.52"/>
</g>
<!-- Node1&#45;&gt;Node6 -->
<g id="edge5" class="edge">
<title>Node1&#45;&gt;Node6</title>
<path fill="none" stroke="black" d="M210.12,-133.68C218.16,-136.69 227.07,-140 235.25,-143 245.21,-146.65 256.25,-150.64 265.65,-154.01"/>
<polygon fill="black" stroke="black" points="211.51,-130.46 200.91,-130.23 209.05,-137.02 211.51,-130.46"/>
</g>
<!-- Node1&#45;&gt;Node8 -->
<g id="edge7" class="edge">
<title>Node1&#45;&gt;Node8</title>
<path fill="none" stroke="black" d="M210.98,-124C222.79,-124 236.9,-124 249.8,-124"/>
<polygon fill="black" stroke="black" points="211.18,-120.5 201.18,-124 211.18,-127.5 211.18,-120.5"/>
</g>
<!-- Node5 -->
<g id="Node000005" class="node">
<title>Node5</title>
<g id="a_Node000005"><a xlink:href="group___s_p_i___interrupt.html" target="_top" xlink:title=" ">
<polygon fill="white" stroke="#666666" points="325.12,-96 252.88,-96 252.88,-76 325.12,-76 325.12,-96"/>
<text text-anchor="middle" x="289" y="-82.5" font-family="Helvetica,sans-Serif" font-size="10.00">SPI_Interrupt</text>
</a>
</g>
</g>
<!-- Node1&#45;&gt;Node5 -->
<g id="edge4" class="edge">
<title>Node1&#45;&gt;Node5</title>
<path fill="none" stroke="black" d="M210.12,-114.32C218.16,-111.31 227.07,-108 235.25,-105 242.83,-102.22 251.05,-99.24 258.68,-96.49"/>
<polygon fill="black" stroke="black" points="209.05,-110.98 200.91,-117.77 211.51,-117.54 209.05,-110.98"/>
</g>
<!-- Node7 -->
<g id="Node000007" class="node">
<title>Node7</title>
<g id="a_Node000007"><a xlink:href="group___s_p_i___p_d_m_a.html" target="_top" xlink:title=" ">
<polygon fill="white" stroke="#666666" points="321.75,-58 256.25,-58 256.25,-38 321.75,-38 321.75,-58"/>
<text text-anchor="middle" x="289" y="-44.5" font-family="Helvetica,sans-Serif" font-size="10.00">SPI_PDMA</text>
</a>
</g>
</g>
<!-- Node1&#45;&gt;Node7 -->
<g id="edge6" class="edge">
<title>Node1&#45;&gt;Node7</title>
<path fill="none" stroke="black" d="M197.63,-104.75C206.93,-92.49 220.33,-77.07 235.25,-67 241.46,-62.81 248.71,-59.42 255.81,-56.73"/>
<polygon fill="black" stroke="black" points="195.04,-102.37 191.99,-112.52 200.7,-106.48 195.04,-102.37"/>
</g>
<!-- Node9 -->
<g id="Node000009" class="node">
<title>Node9</title>
<g id="a_Node000009"><a xlink:href="group___slave.html" target="_top" xlink:title=" ">
<polygon fill="white" stroke="#666666" points="308.62,-20 269.38,-20 269.38,0 308.62,0 308.62,-20"/>
<text text-anchor="middle" x="289" y="-6.5" font-family="Helvetica,sans-Serif" font-size="10.00">Slave</text>
</a>
</g>
</g>
<!-- Node1&#45;&gt;Node9 -->
<g id="edge8" class="edge">
<title>Node1&#45;&gt;Node9</title>
<path fill="none" stroke="black" d="M190.74,-102.7C198.17,-81.29 212.42,-48.72 235.25,-29 244.75,-20.79 258.07,-16.03 268.95,-13.33"/>
<polygon fill="black" stroke="black" points="187.44,-101.53 187.69,-112.12 194.1,-103.68 187.44,-101.53"/>
</g>
</g>
</svg>
