<?xml version="1.0" encoding="UTF-8" standalone="no"?>
<!DOCTYPE svg PUBLIC "-//W3C//DTD SVG 1.1//EN"
 "http://www.w3.org/Graphics/SVG/1.1/DTD/svg11.dtd">
<!-- Generated by graphviz version 9.0.0 (20230911.1827)
 -->
<!-- Title: USART exported constants Pages: 1 -->
<svg width="397pt" height="692pt"
 viewBox="0.00 0.00 396.50 692.00" xmlns="http://www.w3.org/2000/svg" xmlns:xlink="http://www.w3.org/1999/xlink">
<g id="graph0" class="graph" transform="scale(1 1) rotate(0) translate(4 688)">
<title>USART exported constants</title>
<!-- Node2 -->
<g id="Node000002" class="node">
<title>Node2</title>
<g id="a_Node000002"><a xlink:href="group___u_s_a_r_t.html" target="_top" xlink:title="USART driver modules.">
<polygon fill="white" stroke="#666666" points="48.25,-376 0,-376 0,-356 48.25,-356 48.25,-376"/>
<text text-anchor="middle" x="24.12" y="-362.5" font-family="Helvetica,sans-Serif" font-size="10.00">USART</text>
</a>
</g>
</g>
<!-- Node1 -->
<g id="Node000001" class="node">
<title>Node1</title>
<g id="a_Node000001"><a xlink:title=" ">
<polygon fill="#999999" stroke="#666666" points="218.75,-376 84.25,-376 84.25,-356 218.75,-356 218.75,-376"/>
<text text-anchor="middle" x="151.5" y="-362.5" font-family="Helvetica,sans-Serif" font-size="10.00">USART exported constants</text>
</a>
</g>
</g>
<!-- Node2&#45;&gt;Node1 -->
<g id="edge1" class="edge">
<title>Node2&#45;&gt;Node1</title>
<path fill="none" stroke="black" d="M60.16,-366C67.61,-366 75.71,-366 83.9,-366"/>
<polygon fill="black" stroke="black" points="60.22,-362.5 50.22,-366 60.22,-369.5 60.22,-362.5"/>
</g>
<!-- Node10 -->
<g id="Node000010" class="node">
<title>Node10</title>
<g id="a_Node000010"><a xlink:href="group___u_s_a_r_t___clock___polarity.html" target="_top" xlink:title=" ">
<polygon fill="white" stroke="#666666" points="375,-684 268.25,-684 268.25,-652 375,-652 375,-684"/>
<text text-anchor="start" x="276.25" y="-670.5" font-family="Helvetica,sans-Serif" font-size="10.00">Definitions of USART</text>
<text text-anchor="middle" x="321.62" y="-658.5" font-family="Helvetica,sans-Serif" font-size="10.00"> clock polarity</text>
</a>
</g>
</g>
<!-- Node1&#45;&gt;Node10 -->
<g id="edge9" class="edge">
<title>Node1&#45;&gt;Node10</title>
<path fill="none" stroke="black" d="M154.47,-387.69C160.26,-439.05 181.74,-569.32 254.75,-643 258.62,-646.91 263.17,-650.22 268.04,-653.01"/>
<polygon fill="black" stroke="black" points="157.97,-387.51 153.47,-377.92 151.01,-388.22 157.97,-387.51"/>
</g>
<!-- Node15 -->
<g id="Node000015" class="node">
<title>Node15</title>
<g id="a_Node000015"><a xlink:href="group___u_s_a_r_t___flag.html" target="_top" xlink:title=" ">
<polygon fill="white" stroke="#666666" points="375,-634 268.25,-634 268.25,-602 375,-602 375,-634"/>
<text text-anchor="start" x="276.25" y="-620.5" font-family="Helvetica,sans-Serif" font-size="10.00">Definitions of USART</text>
<text text-anchor="middle" x="321.62" y="-608.5" font-family="Helvetica,sans-Serif" font-size="10.00"> flags</text>
</a>
</g>
</g>
<!-- Node1&#45;&gt;Node15 -->
<g id="edge14" class="edge">
<title>Node1&#45;&gt;Node15</title>
<path fill="none" stroke="black" d="M156.47,-387.61C165.74,-432.13 192.88,-534.77 254.75,-593 258.67,-596.69 263.19,-599.85 267.98,-602.55"/>
<polygon fill="black" stroke="black" points="159.93,-387.07 154.57,-377.94 153.06,-388.43 159.93,-387.07"/>
</g>
<!-- Node14 -->
<g id="Node000014" class="node">
<title>Node14</title>
<g id="a_Node000014"><a xlink:href="group___u_s_a_r_t___interrupt___enable.html" target="_top" xlink:title=" ">
<polygon fill="white" stroke="#666666" points="375,-584 268.25,-584 268.25,-552 375,-552 375,-584"/>
<text text-anchor="start" x="276.25" y="-570.5" font-family="Helvetica,sans-Serif" font-size="10.00">Definitions of USART</text>
<text text-anchor="middle" x="321.62" y="-558.5" font-family="Helvetica,sans-Serif" font-size="10.00"> interrupt Enable bits</text>
</a>
</g>
</g>
<!-- Node1&#45;&gt;Node14 -->
<g id="edge13" class="edge">
<title>Node1&#45;&gt;Node14</title>
<path fill="none" stroke="black" d="M159.41,-387.29C172.38,-424.04 203.75,-499.62 254.75,-543 258.76,-546.41 263.28,-549.38 268.02,-551.96"/>
<polygon fill="black" stroke="black" points="162.74,-386.19 156.21,-377.85 156.11,-388.44 162.74,-386.19"/>
</g>
<!-- Node11 -->
<g id="Node000011" class="node">
<title>Node11</title>
<g id="a_Node000011"><a xlink:href="group___u_s_a_r_t___ir_d_a.html" target="_top" xlink:title=" ">
<polygon fill="white" stroke="#666666" points="385.88,-534 257.38,-534 257.38,-514 385.88,-514 385.88,-534"/>
<text text-anchor="middle" x="321.62" y="-520.5" font-family="Helvetica,sans-Serif" font-size="10.00">Definitions of USART IrDA</text>
</a>
</g>
</g>
<!-- Node1&#45;&gt;Node11 -->
<g id="edge10" class="edge">
<title>Node1&#45;&gt;Node11</title>
<path fill="none" stroke="black" d="M162.04,-386.43C177.29,-416.86 210.07,-473.86 254.75,-505 259.63,-508.4 265.12,-511.2 270.79,-513.5"/>
<polygon fill="black" stroke="black" points="165.23,-385 157.72,-377.53 158.94,-388.06 165.23,-385"/>
</g>
<!-- Node17 -->
<g id="Node000017" class="node">
<title>Node17</title>
<g id="a_Node000017"><a xlink:href="group___u_s_a_r_t___l_i_n.html" target="_top" xlink:title=" ">
<polygon fill="white" stroke="#666666" points="383.62,-496 259.62,-496 259.62,-476 383.62,-476 383.62,-496"/>
<text text-anchor="middle" x="321.62" y="-482.5" font-family="Helvetica,sans-Serif" font-size="10.00">Definitions of USART LIN</text>
</a>
</g>
</g>
<!-- Node1&#45;&gt;Node17 -->
<g id="edge16" class="edge">
<title>Node1&#45;&gt;Node17</title>
<path fill="none" stroke="black" d="M167.02,-385.33C185.12,-408.11 218.18,-445.57 254.75,-467 260.5,-470.37 266.89,-473.17 273.36,-475.5"/>
<polygon fill="black" stroke="black" points="169.82,-383.23 160.93,-377.48 164.29,-387.52 169.82,-383.23"/>
</g>
<!-- Node7 -->
<g id="Node000007" class="node">
<title>Node7</title>
<g id="a_Node000007"><a xlink:href="group___u_s_a_r_t___l_s_b.html" target="_top" xlink:title=" ">
<polygon fill="white" stroke="#666666" points="385.88,-458 257.38,-458 257.38,-438 385.88,-438 385.88,-458"/>
<text text-anchor="middle" x="321.62" y="-444.5" font-family="Helvetica,sans-Serif" font-size="10.00">Definitions of USART LSB</text>
</a>
</g>
</g>
<!-- Node1&#45;&gt;Node7 -->
<g id="edge6" class="edge">
<title>Node1&#45;&gt;Node7</title>
<path fill="none" stroke="black" d="M175.98,-383.03C196.08,-396.97 226.2,-416.37 254.75,-429 262.15,-432.27 270.27,-435.15 278.2,-437.61"/>
<polygon fill="black" stroke="black" points="178.14,-380.27 167.95,-377.37 174.1,-385.99 178.14,-380.27"/>
</g>
<!-- Node6 -->
<g id="Node000006" class="node">
<title>Node6</title>
<g id="a_Node000006"><a xlink:href="group___u_s_a_r_t___mode.html" target="_top" xlink:title=" ">
<polygon fill="white" stroke="#666666" points="388.5,-420 254.75,-420 254.75,-400 388.5,-400 388.5,-420"/>
<text text-anchor="middle" x="321.62" y="-406.5" font-family="Helvetica,sans-Serif" font-size="10.00">Definitions of USART mode</text>
</a>
</g>
</g>
<!-- Node1&#45;&gt;Node6 -->
<g id="edge5" class="edge">
<title>Node1&#45;&gt;Node6</title>
<path fill="none" stroke="black" d="M203.38,-379.32C228.2,-385.81 257.62,-393.51 280.78,-399.57"/>
<polygon fill="black" stroke="black" points="204.37,-375.96 193.81,-376.81 202.6,-382.73 204.37,-375.96"/>
</g>
<!-- Node5 -->
<g id="Node000005" class="node">
<title>Node5</title>
<g id="a_Node000005"><a xlink:href="group___u_s_a_r_t___parity.html" target="_top" xlink:title=" ">
<polygon fill="white" stroke="#666666" points="375,-382 268.25,-382 268.25,-350 375,-350 375,-382"/>
<text text-anchor="start" x="276.25" y="-368.5" font-family="Helvetica,sans-Serif" font-size="10.00">Definitions of USART</text>
<text text-anchor="middle" x="321.62" y="-356.5" font-family="Helvetica,sans-Serif" font-size="10.00"> parity</text>
</a>
</g>
</g>
<!-- Node1&#45;&gt;Node5 -->
<g id="edge4" class="edge">
<title>Node1&#45;&gt;Node5</title>
<path fill="none" stroke="black" d="M230.1,-366C242.89,-366 255.87,-366 267.87,-366"/>
<polygon fill="black" stroke="black" points="230.46,-362.5 220.46,-366 230.46,-369.5 230.46,-362.5"/>
</g>
<!-- Node16 -->
<g id="Node000016" class="node">
<title>Node16</title>
<g id="a_Node000016"><a xlink:href="group___u_s_a_r_t___r_s485.html" target="_top" xlink:title=" ">
<polygon fill="white" stroke="#666666" points="375,-332 268.25,-332 268.25,-300 375,-300 375,-332"/>
<text text-anchor="start" x="276.25" y="-318.5" font-family="Helvetica,sans-Serif" font-size="10.00">Definitions of USART</text>
<text text-anchor="middle" x="321.62" y="-306.5" font-family="Helvetica,sans-Serif" font-size="10.00"> RS485</text>
</a>
</g>
</g>
<!-- Node1&#45;&gt;Node16 -->
<g id="edge15" class="edge">
<title>Node1&#45;&gt;Node16</title>
<path fill="none" stroke="black" d="M198.54,-352.31C219.99,-345.93 245.63,-338.3 267.86,-331.69"/>
<polygon fill="black" stroke="black" points="197.78,-348.88 189.2,-355.09 199.78,-355.59 197.78,-348.88"/>
</g>
<!-- Node12 -->
<g id="Node000012" class="node">
<title>Node12</title>
<g id="a_Node000012"><a xlink:href="group___u_s_a_r_t___r_x___f_i_f_o___trigger___level.html" target="_top" xlink:title=" ">
<polygon fill="white" stroke="#666666" points="375,-282 268.25,-282 268.25,-250 375,-250 375,-282"/>
<text text-anchor="start" x="276.25" y="-268.5" font-family="Helvetica,sans-Serif" font-size="10.00">Definitions of USART</text>
<text text-anchor="middle" x="321.62" y="-256.5" font-family="Helvetica,sans-Serif" font-size="10.00"> Rx FIFO interrupts</text>
</a>
</g>
</g>
<!-- Node1&#45;&gt;Node12 -->
<g id="edge11" class="edge">
<title>Node1&#45;&gt;Node12</title>
<path fill="none" stroke="black" d="M173.15,-348.24C193.04,-331.79 224.5,-307.44 254.75,-291 260.45,-287.9 266.61,-285.02 272.8,-282.39"/>
<polygon fill="black" stroke="black" points="170.93,-345.53 165.53,-354.64 175.43,-350.89 170.93,-345.53"/>
</g>
<!-- Node4 -->
<g id="Node000004" class="node">
<title>Node4</title>
<g id="a_Node000004"><a xlink:href="group___u_s_a_r_t___stop___bit.html" target="_top" xlink:title=" ">
<polygon fill="white" stroke="#666666" points="375,-232 268.25,-232 268.25,-200 375,-200 375,-232"/>
<text text-anchor="start" x="276.25" y="-218.5" font-family="Helvetica,sans-Serif" font-size="10.00">Definitions of USART</text>
<text text-anchor="middle" x="321.62" y="-206.5" font-family="Helvetica,sans-Serif" font-size="10.00"> stop bit</text>
</a>
</g>
</g>
<!-- Node1&#45;&gt;Node4 -->
<g id="edge3" class="edge">
<title>Node1&#45;&gt;Node4</title>
<path fill="none" stroke="black" d="M164.07,-346.12C180.84,-318.89 214.37,-270.07 254.75,-241 259.22,-237.78 264.15,-234.93 269.25,-232.4"/>
<polygon fill="black" stroke="black" points="161.23,-344.06 159.08,-354.43 167.23,-347.66 161.23,-344.06"/>
</g>
<!-- Node8 -->
<g id="Node000008" class="node">
<title>Node8</title>
<g id="a_Node000008"><a xlink:href="group___u_s_a_r_t___synchronous___clock.html" target="_top" xlink:title=" ">
<polygon fill="white" stroke="#666666" points="375,-182 268.25,-182 268.25,-150 375,-150 375,-182"/>
<text text-anchor="start" x="276.25" y="-168.5" font-family="Helvetica,sans-Serif" font-size="10.00">Definitions of USART</text>
<text text-anchor="middle" x="321.62" y="-156.5" font-family="Helvetica,sans-Serif" font-size="10.00"> synchronous clock</text>
</a>
</g>
</g>
<!-- Node1&#45;&gt;Node8 -->
<g id="edge7" class="edge">
<title>Node1&#45;&gt;Node8</title>
<path fill="none" stroke="black" d="M159.48,-344.95C172.56,-308.61 204.07,-233.89 254.75,-191 258.77,-187.6 263.29,-184.64 268.04,-182.06"/>
<polygon fill="black" stroke="black" points="156.22,-343.68 156.25,-354.27 162.83,-345.97 156.22,-343.68"/>
</g>
<!-- Node9 -->
<g id="Node000009" class="node">
<title>Node9</title>
<g id="a_Node000009"><a xlink:href="group___u_s_a_r_t___synchronous___clock___phase.html" target="_top" xlink:title=" ">
<polygon fill="white" stroke="#666666" points="387.38,-132 255.88,-132 255.88,-100 387.38,-100 387.38,-132"/>
<text text-anchor="start" x="263.88" y="-118.5" font-family="Helvetica,sans-Serif" font-size="10.00">Definitions of USART</text>
<text text-anchor="middle" x="321.62" y="-106.5" font-family="Helvetica,sans-Serif" font-size="10.00"> Synchronous clock phase</text>
</a>
</g>
</g>
<!-- Node1&#45;&gt;Node9 -->
<g id="edge8" class="edge">
<title>Node1&#45;&gt;Node9</title>
<path fill="none" stroke="black" d="M156.53,-344.58C165.91,-300.44 193.24,-198.7 254.75,-141 258.23,-137.74 262.18,-134.89 266.37,-132.4"/>
<polygon fill="black" stroke="black" points="153.14,-343.66 154.6,-354.15 160.01,-345.04 153.14,-343.66"/>
</g>
<!-- Node13 -->
<g id="Node000013" class="node">
<title>Node13</title>
<g id="a_Node000013"><a xlink:href="group___u_s_a_r_t___t_x___f_i_f_o___trigger___level.html" target="_top" xlink:title=" ">
<polygon fill="white" stroke="#666666" points="375,-82 268.25,-82 268.25,-50 375,-50 375,-82"/>
<text text-anchor="start" x="276.25" y="-68.5" font-family="Helvetica,sans-Serif" font-size="10.00">Definitions of USART</text>
<text text-anchor="middle" x="321.62" y="-56.5" font-family="Helvetica,sans-Serif" font-size="10.00"> Tx FIFO interrupts</text>
</a>
</g>
</g>
<!-- Node1&#45;&gt;Node13 -->
<g id="edge12" class="edge">
<title>Node1&#45;&gt;Node13</title>
<path fill="none" stroke="black" d="M154.52,-344.46C160.42,-293.47 182.11,-164.13 254.75,-91 258.63,-87.09 263.18,-83.79 268.05,-80.99"/>
<polygon fill="black" stroke="black" points="151.07,-343.84 153.5,-354.16 158.03,-344.58 151.07,-343.84"/>
</g>
<!-- Node3 -->
<g id="Node000003" class="node">
<title>Node3</title>
<g id="a_Node000003"><a xlink:href="group___u_s_a_r_t___word___length.html" target="_top" xlink:title=" ">
<polygon fill="white" stroke="#666666" points="375,-32 268.25,-32 268.25,0 375,0 375,-32"/>
<text text-anchor="start" x="276.25" y="-18.5" font-family="Helvetica,sans-Serif" font-size="10.00">Definitions of USART</text>
<text text-anchor="middle" x="321.62" y="-6.5" font-family="Helvetica,sans-Serif" font-size="10.00"> word length</text>
</a>
</g>
</g>
<!-- Node1&#45;&gt;Node3 -->
<g id="edge2" class="edge">
<title>Node1&#45;&gt;Node3</title>
<path fill="none" stroke="black" d="M153.07,-344.51C155.75,-287.36 170.77,-129.99 254.75,-41 258.53,-37 263.01,-33.63 267.84,-30.8"/>
<polygon fill="black" stroke="black" points="149.59,-344.04 152.71,-354.17 156.58,-344.3 149.59,-344.04"/>
</g>
</g>
</svg>
