<?xml version="1.0" encoding="UTF-8" standalone="no"?>
<!DOCTYPE svg PUBLIC "-//W3C//DTD SVG 1.1//EN"
 "http://www.w3.org/Graphics/SVG/1.1/DTD/svg11.dtd">
<!-- Generated by graphviz version 9.0.0 (20230911.1827)
 -->
<!-- Title: HT32F0008 Starter kit exported constants Pages: 1 -->
<svg width="427pt" height="256pt"
 viewBox="0.00 0.00 427.25 256.00" xmlns="http://www.w3.org/2000/svg" xmlns:xlink="http://www.w3.org/1999/xlink">
<g id="graph0" class="graph" transform="scale(1 1) rotate(0) translate(4 252)">
<title>HT32F0008 Starter kit exported constants</title>
<!-- Node2 -->
<g id="Node000002" class="node">
<title>Node2</title>
<g id="a_Node000002"><a xlink:href="group___h_t32_f0008___s_k.html" target="_top" xlink:title=" ">
<polygon fill="white" stroke="#666666" points="84.25,-134 0,-134 0,-114 84.25,-114 84.25,-134"/>
<text text-anchor="middle" x="42.12" y="-120.5" font-family="Helvetica,sans-Serif" font-size="10.00">HT32F0008_SK</text>
</a>
</g>
</g>
<!-- Node1 -->
<g id="Node000001" class="node">
<title>Node1</title>
<g id="a_Node000001"><a xlink:title=" ">
<polygon fill="#999999" stroke="#666666" points="231.5,-140 120.25,-140 120.25,-108 231.5,-108 231.5,-140"/>
<text text-anchor="start" x="128.25" y="-126.5" font-family="Helvetica,sans-Serif" font-size="10.00">HT32F0008 Starter kit</text>
<text text-anchor="middle" x="175.88" y="-114.5" font-family="Helvetica,sans-Serif" font-size="10.00"> exported constants</text>
</a>
</g>
</g>
<!-- Node2&#45;&gt;Node1 -->
<g id="edge1" class="edge">
<title>Node2&#45;&gt;Node1</title>
<path fill="none" stroke="black" d="M95.9,-124C103.88,-124 112.14,-124 120.16,-124"/>
<polygon fill="black" stroke="black" points="95.96,-120.5 85.96,-124 95.96,-127.5 95.96,-120.5"/>
</g>
<!-- Node4 -->
<g id="Node000004" class="node">
<title>Node4</title>
<g id="a_Node000004"><a xlink:href="group___h_t32_f0008___s_k___b_u_t_t_o_n.html" target="_top" xlink:title=" ">
<polygon fill="white" stroke="#666666" points="407.25,-248 279.5,-248 279.5,-228 407.25,-228 407.25,-248"/>
<text text-anchor="middle" x="343.38" y="-234.5" font-family="Helvetica,sans-Serif" font-size="10.00">HT32F0008_SK_BUTTON</text>
</a>
</g>
</g>
<!-- Node5 -->
<g id="Node000005" class="node">
<title>Node5</title>
<g id="a_Node000005"><a xlink:href="group___h_t32_f0008___s_k___b_u_z_z_e_r.html" target="_top" xlink:title=" ">
<polygon fill="white" stroke="#666666" points="406.88,-210 279.88,-210 279.88,-190 406.88,-190 406.88,-210"/>
<text text-anchor="middle" x="343.38" y="-196.5" font-family="Helvetica,sans-Serif" font-size="10.00">HT32F0008_SK_BUZZER</text>
</a>
</g>
</g>
<!-- Node6 -->
<g id="Node000006" class="node">
<title>Node6</title>
<g id="a_Node000006"><a xlink:href="group___h_t32_f0008___s_k___c_o_m.html" target="_top" xlink:title=" ">
<polygon fill="white" stroke="#666666" points="399.38,-172 287.38,-172 287.38,-152 399.38,-152 399.38,-172"/>
<text text-anchor="middle" x="343.38" y="-158.5" font-family="Helvetica,sans-Serif" font-size="10.00">HT32F0008_SK_COM</text>
</a>
</g>
</g>
<!-- Node1&#45;&gt;Node4 -->
<g id="edge3" class="edge">
<title>Node1&#45;&gt;Node4</title>
<path fill="none" stroke="black" d="M194.64,-149.46C211.09,-171.13 237.5,-201.47 267.5,-219 273.41,-222.45 279.93,-225.28 286.59,-227.6"/>
<polygon fill="black" stroke="black" points="197.66,-147.66 188.91,-141.69 192.03,-151.81 197.66,-147.66"/>
</g>
<!-- Node1&#45;&gt;Node5 -->
<g id="edge4" class="edge">
<title>Node1&#45;&gt;Node5</title>
<path fill="none" stroke="black" d="M207.87,-146.91C224.79,-158.51 246.51,-172 267.5,-181 275.27,-184.33 283.74,-187.17 292.11,-189.56"/>
<polygon fill="black" stroke="black" points="209.95,-144.09 199.75,-141.21 205.93,-149.82 209.95,-144.09"/>
</g>
<!-- Node1&#45;&gt;Node6 -->
<g id="edge5" class="edge">
<title>Node1&#45;&gt;Node6</title>
<path fill="none" stroke="black" d="M243.05,-139.19C261.11,-143.34 280.26,-147.74 296.88,-151.55"/>
<polygon fill="black" stroke="black" points="243.99,-135.82 233.46,-136.99 242.42,-142.64 243.99,-135.82"/>
</g>
<!-- Node9 -->
<g id="Node000009" class="node">
<title>Node9</title>
<g id="a_Node000009"><a xlink:href="group___h_t32_f0008___s_k___i2_c___e_e_p_r_o_m.html" target="_top" xlink:title=" ">
<polygon fill="white" stroke="#666666" points="419.25,-134 267.5,-134 267.5,-114 419.25,-114 419.25,-134"/>
<text text-anchor="middle" x="343.38" y="-120.5" font-family="Helvetica,sans-Serif" font-size="10.00">HT32F0008_SK_I2C_EEPROM</text>
</a>
</g>
</g>
<!-- Node1&#45;&gt;Node9 -->
<g id="edge8" class="edge">
<title>Node1&#45;&gt;Node9</title>
<path fill="none" stroke="black" d="M243.31,-124C251.16,-124 259.21,-124 267.18,-124"/>
<polygon fill="black" stroke="black" points="243.5,-120.5 233.5,-124 243.5,-127.5 243.5,-120.5"/>
</g>
<!-- Node3 -->
<g id="Node000003" class="node">
<title>Node3</title>
<g id="a_Node000003"><a xlink:href="group___h_t32_f0008___s_k___l_e_d.html" target="_top" xlink:title=" ">
<polygon fill="white" stroke="#666666" points="397.5,-96 289.25,-96 289.25,-76 397.5,-76 397.5,-96"/>
<text text-anchor="middle" x="343.38" y="-82.5" font-family="Helvetica,sans-Serif" font-size="10.00">HT32F0008_SK_LED</text>
</a>
</g>
</g>
<!-- Node1&#45;&gt;Node3 -->
<g id="edge2" class="edge">
<title>Node1&#45;&gt;Node3</title>
<path fill="none" stroke="black" d="M243.05,-108.81C261.11,-104.66 280.26,-100.26 296.88,-96.45"/>
<polygon fill="black" stroke="black" points="242.42,-105.36 233.46,-111.01 243.99,-112.18 242.42,-105.36"/>
</g>
<!-- Node7 -->
<g id="Node000007" class="node">
<title>Node7</title>
<g id="a_Node000007"><a xlink:href="group___h_t32_f0008___s_k___s_p_i___f_l_a_s_h.html" target="_top" xlink:title=" ">
<polygon fill="white" stroke="#666666" points="414.38,-58 272.38,-58 272.38,-38 414.38,-38 414.38,-58"/>
<text text-anchor="middle" x="343.38" y="-44.5" font-family="Helvetica,sans-Serif" font-size="10.00">HT32F0008_SK_SPI_FLASH</text>
</a>
</g>
</g>
<!-- Node1&#45;&gt;Node7 -->
<g id="edge6" class="edge">
<title>Node1&#45;&gt;Node7</title>
<path fill="none" stroke="black" d="M207.87,-101.09C224.79,-89.49 246.51,-76 267.5,-67 275.27,-63.67 283.74,-60.83 292.11,-58.44"/>
<polygon fill="black" stroke="black" points="205.93,-98.18 199.75,-106.79 209.95,-103.91 205.93,-98.18"/>
</g>
<!-- Node8 -->
<g id="Node000008" class="node">
<title>Node8</title>
<g id="a_Node000008"><a xlink:href="group___h_t32_f0008___s_k___s_p_i___l_c_d.html" target="_top" xlink:title=" ">
<polygon fill="white" stroke="#666666" points="408,-20 278.75,-20 278.75,0 408,0 408,-20"/>
<text text-anchor="middle" x="343.38" y="-6.5" font-family="Helvetica,sans-Serif" font-size="10.00">HT32F0008_SK_SPI_LCD</text>
</a>
</g>
</g>
<!-- Node1&#45;&gt;Node8 -->
<g id="edge7" class="edge">
<title>Node1&#45;&gt;Node8</title>
<path fill="none" stroke="black" d="M194.64,-98.54C211.09,-76.87 237.5,-46.53 267.5,-29 273.41,-25.55 279.93,-22.72 286.59,-20.4"/>
<polygon fill="black" stroke="black" points="192.03,-96.19 188.91,-106.31 197.66,-100.34 192.03,-96.19"/>
</g>
</g>
</svg>
