<?xml version="1.0" encoding="UTF-8" standalone="no"?>
<!DOCTYPE svg PUBLIC "-//W3C//DTD SVG 1.1//EN"
 "http://www.w3.org/Graphics/SVG/1.1/DTD/svg11.dtd">
<!-- Generated by graphviz version 9.0.0 (20230911.1827)
 -->
<!-- Title: Trace Port Interface (TPI) Pages: 1 -->
<svg width="391pt" height="90pt"
 viewBox="0.00 0.00 391.25 90.00" xmlns="http://www.w3.org/2000/svg" xmlns:xlink="http://www.w3.org/1999/xlink">
<g id="graph0" class="graph" transform="scale(1 1) rotate(0) translate(4 86)">
<title>Trace Port Interface (TPI)</title>
<!-- Node2 -->
<g id="Node000002" class="node">
<title>Node2</title>
<g id="a_Node000002"><a xlink:href="group___c_m_s_i_s___d_w_t.html" target="_top" xlink:title="Type definitions for the Data Watchpoint and Trace (DWT)">
<polygon fill="white" stroke="#666666" points="110.88,-82 3.38,-82 3.38,-50 110.88,-50 110.88,-82"/>
<text text-anchor="start" x="11.38" y="-68.5" font-family="Helvetica,sans-Serif" font-size="10.00">Data Watchpoint and</text>
<text text-anchor="middle" x="57.12" y="-56.5" font-family="Helvetica,sans-Serif" font-size="10.00"> Trace (DWT)</text>
</a>
</g>
</g>
<!-- Node1 -->
<g id="Node000001" class="node">
<title>Node1</title>
<g id="a_Node000001"><a xlink:title="Type definitions for the Trace Port Interface (TPI)">
<polygon fill="#999999" stroke="#666666" points="251,-57 150.25,-57 150.25,-25 251,-25 251,-57"/>
<text text-anchor="start" x="158.25" y="-43.5" font-family="Helvetica,sans-Serif" font-size="10.00">Trace Port Interface</text>
<text text-anchor="middle" x="200.62" y="-31.5" font-family="Helvetica,sans-Serif" font-size="10.00"> (TPI)</text>
</a>
</g>
</g>
<!-- Node2&#45;&gt;Node1 -->
<g id="edge1" class="edge">
<title>Node2&#45;&gt;Node1</title>
<path fill="none" stroke="black" d="M122.39,-54.65C131.65,-53.01 141.06,-51.35 149.98,-49.77"/>
<polygon fill="black" stroke="black" points="121.95,-51.17 112.71,-56.36 123.16,-58.06 121.95,-51.17"/>
</g>
<!-- Node4 -->
<g id="Node000004" class="node">
<title>Node4</title>
<g id="a_Node000004"><a xlink:href="group___c_m_s_i_s___f_p_u.html" target="_top" xlink:title="Type definitions for the Floating Point Unit (FPU)">
<polygon fill="white" stroke="#666666" points="383.25,-57 287,-57 287,-25 383.25,-25 383.25,-57"/>
<text text-anchor="start" x="295" y="-43.5" font-family="Helvetica,sans-Serif" font-size="10.00">Floating Point Unit</text>
<text text-anchor="middle" x="335.12" y="-31.5" font-family="Helvetica,sans-Serif" font-size="10.00"> (FPU)</text>
</a>
</g>
</g>
<!-- Node1&#45;&gt;Node4 -->
<g id="edge3" class="edge">
<title>Node1&#45;&gt;Node4</title>
<path fill="none" stroke="black" d="M262.66,-41C270.75,-41 278.95,-41 286.76,-41"/>
<polygon fill="black" stroke="black" points="262.85,-37.5 252.85,-41 262.85,-44.5 262.85,-37.5"/>
</g>
<!-- Node3 -->
<g id="Node000003" class="node">
<title>Node3</title>
<g id="a_Node000003"><a xlink:href="group___s_t_l___type.html" target="_top" xlink:title="Type definitions for the Software Test Library Observation Registerss (STL)">
<polygon fill="white" stroke="#666666" points="114.25,-32 0,-32 0,0 114.25,0 114.25,-32"/>
<text text-anchor="start" x="8" y="-18.5" font-family="Helvetica,sans-Serif" font-size="10.00">Software Test Library</text>
<text text-anchor="middle" x="57.12" y="-6.5" font-family="Helvetica,sans-Serif" font-size="10.00"> Observation Registers</text>
</a>
</g>
</g>
<!-- Node3&#45;&gt;Node1 -->
<g id="edge2" class="edge">
<title>Node3&#45;&gt;Node1</title>
<path fill="none" stroke="black" d="M125.56,-27.91C133.76,-29.36 142.02,-30.82 149.89,-32.21"/>
<polygon fill="black" stroke="black" points="126.4,-24.51 115.95,-26.22 125.19,-31.4 126.4,-24.51"/>
</g>
</g>
</svg>
