<?xml version="1.0" encoding="UTF-8" standalone="no"?>
<!DOCTYPE svg PUBLIC "-//W3C//DTD SVG 1.1//EN"
 "http://www.w3.org/Graphics/SVG/1.1/DTD/svg11.dtd">
<!-- Generated by graphviz version 9.0.0 (20230911.1827)
 -->
<!-- Title: EBI LCD exported functions Pages: 1 -->
<svg width="236pt" height="66pt"
 viewBox="0.00 0.00 235.75 66.00" xmlns="http://www.w3.org/2000/svg" xmlns:xlink="http://www.w3.org/1999/xlink">
<g id="graph0" class="graph" transform="scale(1 1) rotate(0) translate(4 62)">
<title>EBI LCD exported functions</title>
<!-- Node2 -->
<g id="Node000002" class="node">
<title>Node2</title>
<g id="a_Node000002"><a xlink:href="group___e_b_i___l_c_d.html" target="_top" xlink:title="This file provides a set of functions needed to manage the communication between EBI peripheral and L...">
<polygon fill="white" stroke="#666666" points="55.75,-58 0,-58 0,-38 55.75,-38 55.75,-58"/>
<text text-anchor="middle" x="27.88" y="-44.5" font-family="Helvetica,sans-Serif" font-size="10.00">EBI_LCD</text>
</a>
</g>
</g>
<!-- Node1 -->
<g id="Node000001" class="node">
<title>Node1</title>
<g id="a_Node000001"><a xlink:title=" ">
<polygon fill="#999999" stroke="#666666" points="227.75,-39 91.75,-39 91.75,-19 227.75,-19 227.75,-39"/>
<text text-anchor="middle" x="159.75" y="-25.5" font-family="Helvetica,sans-Serif" font-size="10.00">EBI LCD exported functions</text>
</a>
</g>
</g>
<!-- Node2&#45;&gt;Node1 -->
<g id="edge1" class="edge">
<title>Node2&#45;&gt;Node1</title>
<path fill="none" stroke="black" d="M67.47,-42.35C75.05,-41.24 83.21,-40.05 91.42,-38.85"/>
<polygon fill="black" stroke="black" points="66.99,-38.89 57.6,-43.8 68,-45.81 66.99,-38.89"/>
</g>
<!-- Node3 -->
<g id="Node000003" class="node">
<title>Node3</title>
<g id="a_Node000003"><a xlink:href="group___s_p_i___l_c_d.html" target="_top" xlink:title="This file provides a set of functions needed to manage the communication between SPI peripheral and L...">
<polygon fill="white" stroke="#666666" points="55.75,-20 0,-20 0,0 55.75,0 55.75,-20"/>
<text text-anchor="middle" x="27.88" y="-6.5" font-family="Helvetica,sans-Serif" font-size="10.00">SPI_LCD</text>
</a>
</g>
</g>
<!-- Node3&#45;&gt;Node1 -->
<g id="edge2" class="edge">
<title>Node3&#45;&gt;Node1</title>
<path fill="none" stroke="black" d="M67.47,-15.65C75.05,-16.76 83.21,-17.95 91.42,-19.15"/>
<polygon fill="black" stroke="black" points="68,-12.19 57.6,-14.2 66.99,-19.11 68,-12.19"/>
</g>
</g>
</svg>
