<?xml version="1.0" encoding="UTF-8" standalone="no"?>
<!DOCTYPE svg PUBLIC "-//W3C//DTD SVG 1.1//EN"
 "http://www.w3.org/Graphics/SVG/1.1/DTD/svg11.dtd">
<!-- Generated by graphviz version 9.0.0 (20230911.1827)
 -->
<!-- Title: USART Pages: 1 -->
<svg width="380pt" height="142pt"
 viewBox="0.00 0.00 380.00 142.00" xmlns="http://www.w3.org/2000/svg" xmlns:xlink="http://www.w3.org/1999/xlink">
<g id="graph0" class="graph" transform="scale(1 1) rotate(0) translate(4 138)">
<title>USART</title>
<!-- Node2 -->
<g id="Node000002" class="node">
<title>Node2</title>
<g id="a_Node000002"><a xlink:href="group___h_t32_f5xxxx___peripheral___driver.html" target="_top" xlink:title=" ">
<polygon fill="white" stroke="#666666" points="117.25,-83 0,-83 0,-51 117.25,-51 117.25,-83"/>
<text text-anchor="start" x="8" y="-69.5" font-family="Helvetica,sans-Serif" font-size="10.00">HT32F5xxxx Peripheral</text>
<text text-anchor="middle" x="58.62" y="-57.5" font-family="Helvetica,sans-Serif" font-size="10.00"> Driver</text>
</a>
</g>
</g>
<!-- Node1 -->
<g id="Node000001" class="node">
<title>Node1</title>
<g id="a_Node000001"><a xlink:title="USART driver modules.">
<polygon fill="#999999" stroke="#666666" points="201.5,-77 153.25,-77 153.25,-57 201.5,-57 201.5,-77"/>
<text text-anchor="middle" x="177.38" y="-63.5" font-family="Helvetica,sans-Serif" font-size="10.00">USART</text>
</a>
</g>
</g>
<!-- Node2&#45;&gt;Node1 -->
<g id="edge1" class="edge">
<title>Node2&#45;&gt;Node1</title>
<path fill="none" stroke="black" d="M129,-67C137.54,-67 145.75,-67 152.87,-67"/>
<polygon fill="black" stroke="black" points="129.17,-63.5 119.17,-67 129.17,-70.5 129.17,-63.5"/>
</g>
<!-- Node4 -->
<g id="Node000004" class="node">
<title>Node4</title>
<g id="a_Node000004"><a xlink:href="group___u_s_a_r_t___exported___constants.html" target="_top" xlink:title=" ">
<polygon fill="white" stroke="#666666" points="372,-134 237.5,-134 237.5,-114 372,-114 372,-134"/>
<text text-anchor="middle" x="304.75" y="-120.5" font-family="Helvetica,sans-Serif" font-size="10.00">USART exported constants</text>
</a>
</g>
</g>
<!-- Node1&#45;&gt;Node4 -->
<g id="edge3" class="edge">
<title>Node1&#45;&gt;Node4</title>
<path fill="none" stroke="black" d="M201.16,-83.87C211.79,-91.14 224.87,-99.28 237.5,-105 244.69,-108.26 252.58,-111.1 260.33,-113.52"/>
<polygon fill="black" stroke="black" points="203.24,-81.05 193.05,-78.14 199.2,-86.77 203.24,-81.05"/>
</g>
<!-- Node5 -->
<g id="Node000005" class="node">
<title>Node5</title>
<g id="a_Node000005"><a xlink:href="group___u_s_a_r_t___exported___functions.html" target="_top" xlink:title=" ">
<polygon fill="white" stroke="#666666" points="370.12,-96 239.38,-96 239.38,-76 370.12,-76 370.12,-96"/>
<text text-anchor="middle" x="304.75" y="-82.5" font-family="Helvetica,sans-Serif" font-size="10.00">USART exported functions</text>
</a>
</g>
</g>
<!-- Node1&#45;&gt;Node5 -->
<g id="edge4" class="edge">
<title>Node1&#45;&gt;Node5</title>
<path fill="none" stroke="black" d="M213.16,-72.27C221.24,-73.5 230.09,-74.84 239.01,-76.19"/>
<polygon fill="black" stroke="black" points="213.87,-68.84 203.45,-70.8 212.82,-75.76 213.87,-68.84"/>
</g>
<!-- Node3 -->
<g id="Node000003" class="node">
<title>Node3</title>
<g id="a_Node000003"><a xlink:href="group___u_s_a_r_t___exported___types.html" target="_top" xlink:title=" ">
<polygon fill="white" stroke="#666666" points="362.62,-58 246.88,-58 246.88,-38 362.62,-38 362.62,-58"/>
<text text-anchor="middle" x="304.75" y="-44.5" font-family="Helvetica,sans-Serif" font-size="10.00">USART exported types</text>
</a>
</g>
</g>
<!-- Node1&#45;&gt;Node3 -->
<g id="edge2" class="edge">
<title>Node1&#45;&gt;Node3</title>
<path fill="none" stroke="black" d="M213.02,-61.75C223.38,-60.18 235.03,-58.41 246.43,-56.69"/>
<polygon fill="black" stroke="black" points="212.82,-58.24 203.45,-63.2 213.87,-65.16 212.82,-58.24"/>
</g>
<!-- Node6 -->
<g id="Node000006" class="node">
<title>Node6</title>
<g id="a_Node000006"><a xlink:href="group___u_s_a_r_t___private___define.html" target="_top" xlink:title=" ">
<polygon fill="white" stroke="#666666" points="367.5,-20 242,-20 242,0 367.5,0 367.5,-20"/>
<text text-anchor="middle" x="304.75" y="-6.5" font-family="Helvetica,sans-Serif" font-size="10.00">USART private definitions</text>
</a>
</g>
</g>
<!-- Node1&#45;&gt;Node6 -->
<g id="edge5" class="edge">
<title>Node1&#45;&gt;Node6</title>
<path fill="none" stroke="black" d="M201.16,-50.13C211.79,-42.86 224.87,-34.72 237.5,-29 244.69,-25.74 252.58,-22.9 260.33,-20.48"/>
<polygon fill="black" stroke="black" points="199.2,-47.23 193.05,-55.86 203.24,-52.95 199.2,-47.23"/>
</g>
</g>
</svg>
