<?xml version="1.0" encoding="UTF-8" standalone="no"?>
<!DOCTYPE svg PUBLIC "-//W3C//DTD SVG 1.1//EN"
 "http://www.w3.org/Graphics/SVG/1.1/DTD/svg11.dtd">
<!-- Generated by graphviz version 9.0.0 (20230911.1827)
 -->
<!-- Title: HT32_Board Pages: 1 -->
<svg width="308pt" height="1396pt"
 viewBox="0.00 0.00 308.00 1396.00" xmlns="http://www.w3.org/2000/svg" xmlns:xlink="http://www.w3.org/1999/xlink">
<g id="graph0" class="graph" transform="scale(1 1) rotate(0) translate(4 1392)">
<title>HT32_Board</title>
<!-- Node4 -->
<g id="Node000004" class="node">
<title>Node4</title>
<g id="a_Node000004"><a xlink:href="group___b_m53_a367_a___d_v_b.html" target="_top" xlink:title=" ">
<polygon fill="white" stroke="#666666" points="292.88,-1388 196.62,-1388 196.62,-1368 292.88,-1368 292.88,-1388"/>
<text text-anchor="middle" x="244.75" y="-1374.5" font-family="Helvetica,sans-Serif" font-size="10.00">BM53A367A_DVB</text>
</a>
</g>
</g>
<!-- Node5 -->
<g id="Node000005" class="node">
<title>Node5</title>
<g id="a_Node000005"><a xlink:href="group___h_t32_f0006___d_v_b.html" target="_top" xlink:title=" ">
<polygon fill="white" stroke="#666666" points="290.25,-1350 199.25,-1350 199.25,-1330 290.25,-1330 290.25,-1350"/>
<text text-anchor="middle" x="244.75" y="-1336.5" font-family="Helvetica,sans-Serif" font-size="10.00">HT32F0006_DVB</text>
</a>
</g>
</g>
<!-- Node6 -->
<g id="Node000006" class="node">
<title>Node6</title>
<g id="a_Node000006"><a xlink:href="group___h_t32_f0008___s_k.html" target="_top" xlink:title=" ">
<polygon fill="white" stroke="#666666" points="286.88,-1312 202.62,-1312 202.62,-1292 286.88,-1292 286.88,-1312"/>
<text text-anchor="middle" x="244.75" y="-1298.5" font-family="Helvetica,sans-Serif" font-size="10.00">HT32F0008_SK</text>
</a>
</g>
</g>
<!-- Node7 -->
<g id="Node000007" class="node">
<title>Node7</title>
<g id="a_Node000007"><a xlink:href="group___h_t32_f50030___s_k.html" target="_top" xlink:title=" ">
<polygon fill="white" stroke="#666666" points="289.5,-1274 200,-1274 200,-1254 289.5,-1254 289.5,-1274"/>
<text text-anchor="middle" x="244.75" y="-1260.5" font-family="Helvetica,sans-Serif" font-size="10.00">HT32F50030_SK</text>
</a>
</g>
</g>
<!-- Node8 -->
<g id="Node000008" class="node">
<title>Node8</title>
<g id="a_Node000008"><a xlink:href="group___h_t32_f50230___s_k.html" target="_top" xlink:title=" ">
<polygon fill="white" stroke="#666666" points="289.5,-1236 200,-1236 200,-1216 289.5,-1216 289.5,-1236"/>
<text text-anchor="middle" x="244.75" y="-1222.5" font-family="Helvetica,sans-Serif" font-size="10.00">HT32F50230_SK</text>
</a>
</g>
</g>
<!-- Node9 -->
<g id="Node000009" class="node">
<title>Node9</title>
<g id="a_Node000009"><a xlink:href="group___h_t32_f50241___s_k.html" target="_top" xlink:title=" ">
<polygon fill="white" stroke="#666666" points="289.5,-1198 200,-1198 200,-1178 289.5,-1178 289.5,-1198"/>
<text text-anchor="middle" x="244.75" y="-1184.5" font-family="Helvetica,sans-Serif" font-size="10.00">HT32F50241_SK</text>
</a>
</g>
</g>
<!-- Node10 -->
<g id="Node000010" class="node">
<title>Node10</title>
<g id="a_Node000010"><a xlink:href="group___h_t32_f50343___s_k.html" target="_top" xlink:title=" ">
<polygon fill="white" stroke="#666666" points="289.5,-1160 200,-1160 200,-1140 289.5,-1140 289.5,-1160"/>
<text text-anchor="middle" x="244.75" y="-1146.5" font-family="Helvetica,sans-Serif" font-size="10.00">HT32F50343_SK</text>
</a>
</g>
</g>
<!-- Node11 -->
<g id="Node000011" class="node">
<title>Node11</title>
<g id="a_Node000011"><a xlink:href="group___h_t32_f50441___s_k.html" target="_top" xlink:title=" ">
<polygon fill="white" stroke="#666666" points="289.5,-1122 200,-1122 200,-1102 289.5,-1102 289.5,-1122"/>
<text text-anchor="middle" x="244.75" y="-1108.5" font-family="Helvetica,sans-Serif" font-size="10.00">HT32F50441_SK</text>
</a>
</g>
</g>
<!-- Node12 -->
<g id="Node000012" class="node">
<title>Node12</title>
<g id="a_Node000012"><a xlink:href="group___h_t32_f50452___s_k.html" target="_top" xlink:title=" ">
<polygon fill="white" stroke="#666666" points="289.5,-1084 200,-1084 200,-1064 289.5,-1064 289.5,-1084"/>
<text text-anchor="middle" x="244.75" y="-1070.5" font-family="Helvetica,sans-Serif" font-size="10.00">HT32F50452_SK</text>
</a>
</g>
</g>
<!-- Node13 -->
<g id="Node000013" class="node">
<title>Node13</title>
<g id="a_Node000013"><a xlink:href="group___h_t32_f52230___s_k.html" target="_top" xlink:title=" ">
<polygon fill="white" stroke="#666666" points="289.5,-1046 200,-1046 200,-1026 289.5,-1026 289.5,-1046"/>
<text text-anchor="middle" x="244.75" y="-1032.5" font-family="Helvetica,sans-Serif" font-size="10.00">HT32F52230_SK</text>
</a>
</g>
</g>
<!-- Node14 -->
<g id="Node000014" class="node">
<title>Node14</title>
<g id="a_Node000014"><a xlink:href="group___h_t32_f52241___s_k.html" target="_top" xlink:title=" ">
<polygon fill="white" stroke="#666666" points="289.5,-1008 200,-1008 200,-988 289.5,-988 289.5,-1008"/>
<text text-anchor="middle" x="244.75" y="-994.5" font-family="Helvetica,sans-Serif" font-size="10.00">HT32F52241_SK</text>
</a>
</g>
</g>
<!-- Node15 -->
<g id="Node000015" class="node">
<title>Node15</title>
<g id="a_Node000015"><a xlink:href="group___h_t32_f52244___s_k.html" target="_top" xlink:title=" ">
<polygon fill="white" stroke="#666666" points="289.5,-970 200,-970 200,-950 289.5,-950 289.5,-970"/>
<text text-anchor="middle" x="244.75" y="-956.5" font-family="Helvetica,sans-Serif" font-size="10.00">HT32F52244_SK</text>
</a>
</g>
</g>
<!-- Node16 -->
<g id="Node000016" class="node">
<title>Node16</title>
<g id="a_Node000016"><a xlink:href="group___h_t32_f52253___s_k.html" target="_top" xlink:title=" ">
<polygon fill="white" stroke="#666666" points="289.5,-932 200,-932 200,-912 289.5,-912 289.5,-932"/>
<text text-anchor="middle" x="244.75" y="-918.5" font-family="Helvetica,sans-Serif" font-size="10.00">HT32F52253_SK</text>
</a>
</g>
</g>
<!-- Node17 -->
<g id="Node000017" class="node">
<title>Node17</title>
<g id="a_Node000017"><a xlink:href="group___h_t32_f52341___s_k.html" target="_top" xlink:title=" ">
<polygon fill="white" stroke="#666666" points="289.5,-894 200,-894 200,-874 289.5,-874 289.5,-894"/>
<text text-anchor="middle" x="244.75" y="-880.5" font-family="Helvetica,sans-Serif" font-size="10.00">HT32F52341_SK</text>
</a>
</g>
</g>
<!-- Node18 -->
<g id="Node000018" class="node">
<title>Node18</title>
<g id="a_Node000018"><a xlink:href="group___h_t32_f52352___s_k.html" target="_top" xlink:title=" ">
<polygon fill="white" stroke="#666666" points="289.5,-856 200,-856 200,-836 289.5,-836 289.5,-856"/>
<text text-anchor="middle" x="244.75" y="-842.5" font-family="Helvetica,sans-Serif" font-size="10.00">HT32F52352_SK</text>
</a>
</g>
</g>
<!-- Node19 -->
<g id="Node000019" class="node">
<title>Node19</title>
<g id="a_Node000019"><a xlink:href="group___h_t32_f52354___s_k.html" target="_top" xlink:title=" ">
<polygon fill="white" stroke="#666666" points="289.5,-818 200,-818 200,-798 289.5,-798 289.5,-818"/>
<text text-anchor="middle" x="244.75" y="-804.5" font-family="Helvetica,sans-Serif" font-size="10.00">HT32F52354_SK</text>
</a>
</g>
</g>
<!-- Node20 -->
<g id="Node000020" class="node">
<title>Node20</title>
<g id="a_Node000020"><a xlink:href="group___h_t32_f52367___s_k.html" target="_top" xlink:title=" ">
<polygon fill="white" stroke="#666666" points="289.5,-780 200,-780 200,-760 289.5,-760 289.5,-780"/>
<text text-anchor="middle" x="244.75" y="-766.5" font-family="Helvetica,sans-Serif" font-size="10.00">HT32F52367_SK</text>
</a>
</g>
</g>
<!-- Node21 -->
<g id="Node000021" class="node">
<title>Node21</title>
<g id="a_Node000021"><a xlink:href="group___h_t32_f53241___s_k.html" target="_top" xlink:title=" ">
<polygon fill="white" stroke="#666666" points="289.5,-742 200,-742 200,-722 289.5,-722 289.5,-742"/>
<text text-anchor="middle" x="244.75" y="-728.5" font-family="Helvetica,sans-Serif" font-size="10.00">HT32F53241_SK</text>
</a>
</g>
</g>
<!-- Node22 -->
<g id="Node000022" class="node">
<title>Node22</title>
<g id="a_Node000022"><a xlink:href="group___h_t32_f53252___s_k.html" target="_top" xlink:title=" ">
<polygon fill="white" stroke="#666666" points="289.5,-704 200,-704 200,-684 289.5,-684 289.5,-704"/>
<text text-anchor="middle" x="244.75" y="-690.5" font-family="Helvetica,sans-Serif" font-size="10.00">HT32F53252_SK</text>
</a>
</g>
</g>
<!-- Node23 -->
<g id="Node000023" class="node">
<title>Node23</title>
<g id="a_Node000023"><a xlink:href="group___h_t32_f54241___d_v_b.html" target="_top" xlink:title=" ">
<polygon fill="white" stroke="#666666" points="292.88,-666 196.62,-666 196.62,-646 292.88,-646 292.88,-666"/>
<text text-anchor="middle" x="244.75" y="-652.5" font-family="Helvetica,sans-Serif" font-size="10.00">HT32F54241_DVB</text>
</a>
</g>
</g>
<!-- Node24 -->
<g id="Node000024" class="node">
<title>Node24</title>
<g id="a_Node000024"><a xlink:href="group___h_t32_f54241___s_k.html" target="_top" xlink:title=" ">
<polygon fill="white" stroke="#666666" points="289.5,-628 200,-628 200,-608 289.5,-608 289.5,-628"/>
<text text-anchor="middle" x="244.75" y="-614.5" font-family="Helvetica,sans-Serif" font-size="10.00">HT32F54241_SK</text>
</a>
</g>
</g>
<!-- Node25 -->
<g id="Node000025" class="node">
<title>Node25</title>
<g id="a_Node000025"><a xlink:href="group___h_t32_f54253___d_v_b.html" target="_top" xlink:title=" ">
<polygon fill="white" stroke="#666666" points="292.88,-590 196.62,-590 196.62,-570 292.88,-570 292.88,-590"/>
<text text-anchor="middle" x="244.75" y="-576.5" font-family="Helvetica,sans-Serif" font-size="10.00">HT32F54253_DVB</text>
</a>
</g>
</g>
<!-- Node26 -->
<g id="Node000026" class="node">
<title>Node26</title>
<g id="a_Node000026"><a xlink:href="group___h_t32_f54253___s_k.html" target="_top" xlink:title=" ">
<polygon fill="white" stroke="#666666" points="289.5,-552 200,-552 200,-532 289.5,-532 289.5,-552"/>
<text text-anchor="middle" x="244.75" y="-538.5" font-family="Helvetica,sans-Serif" font-size="10.00">HT32F54253_SK</text>
</a>
</g>
</g>
<!-- Node27 -->
<g id="Node000027" class="node">
<title>Node27</title>
<g id="a_Node000027"><a xlink:href="group___h_t32_f57341___s_k.html" target="_top" xlink:title=" ">
<polygon fill="white" stroke="#666666" points="289.5,-514 200,-514 200,-494 289.5,-494 289.5,-514"/>
<text text-anchor="middle" x="244.75" y="-500.5" font-family="Helvetica,sans-Serif" font-size="10.00">HT32F57341_SK</text>
</a>
</g>
</g>
<!-- Node28 -->
<g id="Node000028" class="node">
<title>Node28</title>
<g id="a_Node000028"><a xlink:href="group___h_t32_f57352___s_k.html" target="_top" xlink:title=" ">
<polygon fill="white" stroke="#666666" points="289.5,-476 200,-476 200,-456 289.5,-456 289.5,-476"/>
<text text-anchor="middle" x="244.75" y="-462.5" font-family="Helvetica,sans-Serif" font-size="10.00">HT32F57352_SK</text>
</a>
</g>
</g>
<!-- Node3 -->
<g id="Node000003" class="node">
<title>Node3</title>
<g id="a_Node000003"><a xlink:href="group___h_t32_f5xxxx___b_o_a_r_d.html" target="_top" xlink:title="Provides firmware functions to manage LEDs, push&#45;buttons and COM ports and is available on HT32F5xxxx...">
<polygon fill="white" stroke="#666666" points="300,-438 189.5,-438 189.5,-418 300,-418 300,-438"/>
<text text-anchor="middle" x="244.75" y="-424.5" font-family="Helvetica,sans-Serif" font-size="10.00">HT32F5xxxx_BOARD</text>
</a>
</g>
</g>
<!-- Node29 -->
<g id="Node000029" class="node">
<title>Node29</title>
<g id="a_Node000029"><a xlink:href="group___h_t32_f61141___s_k.html" target="_top" xlink:title=" ">
<polygon fill="white" stroke="#666666" points="289.5,-400 200,-400 200,-380 289.5,-380 289.5,-400"/>
<text text-anchor="middle" x="244.75" y="-386.5" font-family="Helvetica,sans-Serif" font-size="10.00">HT32F61141_SK</text>
</a>
</g>
</g>
<!-- Node30 -->
<g id="Node000030" class="node">
<title>Node30</title>
<g id="a_Node000030"><a xlink:href="group___h_t32_f61245___s_k.html" target="_top" xlink:title=" ">
<polygon fill="white" stroke="#666666" points="289.5,-362 200,-362 200,-342 289.5,-342 289.5,-362"/>
<text text-anchor="middle" x="244.75" y="-348.5" font-family="Helvetica,sans-Serif" font-size="10.00">HT32F61245_SK</text>
</a>
</g>
</g>
<!-- Node31 -->
<g id="Node000031" class="node">
<title>Node31</title>
<g id="a_Node000031"><a xlink:href="group___h_t32_f61355___s_k.html" target="_top" xlink:title=" ">
<polygon fill="white" stroke="#666666" points="289.5,-324 200,-324 200,-304 289.5,-304 289.5,-324"/>
<text text-anchor="middle" x="244.75" y="-310.5" font-family="Helvetica,sans-Serif" font-size="10.00">HT32F61355_SK</text>
</a>
</g>
</g>
<!-- Node32 -->
<g id="Node000032" class="node">
<title>Node32</title>
<g id="a_Node000032"><a xlink:href="group___h_t32_f61356___s_k.html" target="_top" xlink:title=" ">
<polygon fill="white" stroke="#666666" points="289.5,-286 200,-286 200,-266 289.5,-266 289.5,-286"/>
<text text-anchor="middle" x="244.75" y="-272.5" font-family="Helvetica,sans-Serif" font-size="10.00">HT32F61356_SK</text>
</a>
</g>
</g>
<!-- Node33 -->
<g id="Node000033" class="node">
<title>Node33</title>
<g id="a_Node000033"><a xlink:href="group___h_t32_f61357___s_k.html" target="_top" xlink:title=" ">
<polygon fill="white" stroke="#666666" points="289.5,-248 200,-248 200,-228 289.5,-228 289.5,-248"/>
<text text-anchor="middle" x="244.75" y="-234.5" font-family="Helvetica,sans-Serif" font-size="10.00">HT32F61357_SK</text>
</a>
</g>
</g>
<!-- Node34 -->
<g id="Node000034" class="node">
<title>Node34</title>
<g id="a_Node000034"><a xlink:href="group___h_t32_f65232___s_k.html" target="_top" xlink:title=" ">
<polygon fill="white" stroke="#666666" points="289.5,-210 200,-210 200,-190 289.5,-190 289.5,-210"/>
<text text-anchor="middle" x="244.75" y="-196.5" font-family="Helvetica,sans-Serif" font-size="10.00">HT32F65232_SK</text>
</a>
</g>
</g>
<!-- Node35 -->
<g id="Node000035" class="node">
<title>Node35</title>
<g id="a_Node000035"><a xlink:href="group___h_t32_f65240___d_v_b.html" target="_top" xlink:title=" ">
<polygon fill="white" stroke="#666666" points="292.88,-172 196.62,-172 196.62,-152 292.88,-152 292.88,-172"/>
<text text-anchor="middle" x="244.75" y="-158.5" font-family="Helvetica,sans-Serif" font-size="10.00">HT32F65240_DVB</text>
</a>
</g>
</g>
<!-- Node36 -->
<g id="Node000036" class="node">
<title>Node36</title>
<g id="a_Node000036"><a xlink:href="group___h_t32_f65240___s_k.html" target="_top" xlink:title=" ">
<polygon fill="white" stroke="#666666" points="289.5,-134 200,-134 200,-114 289.5,-114 289.5,-134"/>
<text text-anchor="middle" x="244.75" y="-120.5" font-family="Helvetica,sans-Serif" font-size="10.00">HT32F65240_SK</text>
</a>
</g>
</g>
<!-- Node37 -->
<g id="Node000037" class="node">
<title>Node37</title>
<g id="a_Node000037"><a xlink:href="group___h_t32_f66246___s_k.html" target="_top" xlink:title=" ">
<polygon fill="white" stroke="#666666" points="289.5,-96 200,-96 200,-76 289.5,-76 289.5,-96"/>
<text text-anchor="middle" x="244.75" y="-82.5" font-family="Helvetica,sans-Serif" font-size="10.00">HT32F66246_SK</text>
</a>
</g>
</g>
<!-- Node38 -->
<g id="Node000038" class="node">
<title>Node38</title>
<g id="a_Node000038"><a xlink:href="group___h_t32_f67051___s_k.html" target="_top" xlink:title=" ">
<polygon fill="white" stroke="#666666" points="289.5,-58 200,-58 200,-38 289.5,-38 289.5,-58"/>
<text text-anchor="middle" x="244.75" y="-44.5" font-family="Helvetica,sans-Serif" font-size="10.00">HT32F67051_SK</text>
</a>
</g>
</g>
<!-- Node39 -->
<g id="Node000039" class="node">
<title>Node39</title>
<g id="a_Node000039"><a xlink:href="group___h_t32_f67233___s_k.html" target="_top" xlink:title=" ">
<polygon fill="white" stroke="#666666" points="289.5,-20 200,-20 200,0 289.5,0 289.5,-20"/>
<text text-anchor="middle" x="244.75" y="-6.5" font-family="Helvetica,sans-Serif" font-size="10.00">HT32F67233_SK</text>
</a>
</g>
</g>
<!-- Node1 -->
<g id="Node000001" class="node">
<title>Node1</title>
<g id="a_Node000001"><a xlink:title=" ">
<polygon fill="#999999" stroke="#666666" points="153.5,-704 84.25,-704 84.25,-684 153.5,-684 153.5,-704"/>
<text text-anchor="middle" x="118.88" y="-690.5" font-family="Helvetica,sans-Serif" font-size="10.00">HT32_Board</text>
</a>
</g>
</g>
<!-- Node1&#45;&gt;Node4 -->
<g id="edge3" class="edge">
<title>Node1&#45;&gt;Node4</title>
<path fill="none" stroke="black" d="M120.76,-715.3C125.44,-823.31 148.59,-1307.27 189.5,-1359 192.22,-1362.44 195.61,-1365.27 199.36,-1367.58"/>
<polygon fill="black" stroke="black" points="124.27,-715.4 120.35,-705.56 117.28,-715.7 124.27,-715.4"/>
</g>
<!-- Node1&#45;&gt;Node5 -->
<g id="edge4" class="edge">
<title>Node1&#45;&gt;Node5</title>
<path fill="none" stroke="black" d="M120.93,-715.72C126.19,-820.71 150.95,-1272.57 189.5,-1321 192.23,-1324.44 195.63,-1327.25 199.38,-1329.56"/>
<polygon fill="black" stroke="black" points="124.43,-715.77 120.45,-705.96 117.44,-716.12 124.43,-715.77"/>
</g>
<!-- Node1&#45;&gt;Node6 -->
<g id="edge5" class="edge">
<title>Node1&#45;&gt;Node6</title>
<path fill="none" stroke="black" d="M119.48,-715.45C118.16,-810.52 117.45,-1193.14 189.5,-1283 192.93,-1287.28 197.4,-1290.6 202.29,-1293.17"/>
<polygon fill="black" stroke="black" points="122.98,-715.79 119.64,-705.73 115.98,-715.68 122.98,-715.79"/>
</g>
<!-- Node1&#45;&gt;Node7 -->
<g id="edge6" class="edge">
<title>Node1&#45;&gt;Node7</title>
<path fill="none" stroke="black" d="M119.67,-715.79C119.26,-807.56 122.13,-1161.65 189.5,-1245 192.32,-1248.49 195.83,-1251.34 199.69,-1253.67"/>
<polygon fill="black" stroke="black" points="123.17,-715.96 119.74,-705.94 116.17,-715.92 123.17,-715.96"/>
</g>
<!-- Node1&#45;&gt;Node8 -->
<g id="edge7" class="edge">
<title>Node1&#45;&gt;Node8</title>
<path fill="none" stroke="black" d="M119.9,-715.39C120.42,-802.54 126.6,-1129.92 189.5,-1207 192.34,-1210.48 195.86,-1213.32 199.73,-1215.65"/>
<polygon fill="black" stroke="black" points="123.4,-715.63 119.86,-705.64 116.4,-715.66 123.4,-715.63"/>
</g>
<!-- Node1&#45;&gt;Node9 -->
<g id="edge8" class="edge">
<title>Node1&#45;&gt;Node9</title>
<path fill="none" stroke="black" d="M120.16,-715.63C121.69,-799.01 131.23,-1098.36 189.5,-1169 192.36,-1172.46 195.89,-1175.3 199.76,-1177.61"/>
<polygon fill="black" stroke="black" points="123.66,-715.63 120,-705.69 116.66,-715.74 123.66,-715.63"/>
</g>
<!-- Node1&#45;&gt;Node10 -->
<g id="edge9" class="edge">
<title>Node1&#45;&gt;Node10</title>
<path fill="none" stroke="black" d="M120.46,-715.41C123.03,-794.17 135.73,-1066.63 189.5,-1131 192.38,-1134.45 195.92,-1137.27 199.81,-1139.58"/>
<polygon fill="black" stroke="black" points="123.97,-715.52 120.17,-705.63 116.97,-715.74 123.97,-715.52"/>
</g>
<!-- Node1&#45;&gt;Node11 -->
<g id="edge10" class="edge">
<title>Node1&#45;&gt;Node11</title>
<path fill="none" stroke="black" d="M120.82,-715.44C124.51,-789.77 140.27,-1034.95 189.5,-1093 192.4,-1096.43 195.96,-1099.23 199.86,-1101.54"/>
<polygon fill="black" stroke="black" points="124.34,-715.67 120.37,-705.84 117.34,-716 124.34,-715.67"/>
</g>
<!-- Node1&#45;&gt;Node12 -->
<g id="edge11" class="edge">
<title>Node1&#45;&gt;Node12</title>
<path fill="none" stroke="black" d="M121.27,-715.62C126.17,-785.43 144.83,-1003.26 189.5,-1055 192.5,-1058.47 196.17,-1061.31 200.18,-1063.63"/>
<polygon fill="black" stroke="black" points="124.78,-715.63 120.61,-705.89 117.79,-716.11 124.78,-715.63"/>
</g>
<!-- Node1&#45;&gt;Node13 -->
<g id="edge12" class="edge">
<title>Node1&#45;&gt;Node13</title>
<path fill="none" stroke="black" d="M121.78,-715.42C127.95,-780.04 149.29,-971.44 189.5,-1017 192.54,-1020.44 196.24,-1023.26 200.26,-1025.57"/>
<polygon fill="black" stroke="black" points="125.3,-715.41 120.89,-705.77 118.33,-716.05 125.3,-715.41"/>
</g>
<!-- Node1&#45;&gt;Node14 -->
<g id="edge13" class="edge">
<title>Node1&#45;&gt;Node14</title>
<path fill="none" stroke="black" d="M122.47,-715.57C130.03,-775.06 153.79,-939.64 189.5,-979 192.65,-982.47 196.47,-985.31 200.62,-987.63"/>
<polygon fill="black" stroke="black" points="125.96,-715.26 121.26,-705.77 119.01,-716.12 125.96,-715.26"/>
</g>
<!-- Node1&#45;&gt;Node15 -->
<g id="edge14" class="edge">
<title>Node1&#45;&gt;Node15</title>
<path fill="none" stroke="black" d="M119.66,-715.51C120.37,-762.71 128.71,-876.31 189.5,-941 192.71,-944.42 196.57,-947.22 200.74,-949.52"/>
<polygon fill="black" stroke="black" points="123.16,-715.79 119.63,-705.8 116.16,-715.81 123.16,-715.79"/>
</g>
<!-- Node1&#45;&gt;Node16 -->
<g id="edge15" class="edge">
<title>Node1&#45;&gt;Node16</title>
<path fill="none" stroke="black" d="M120.99,-715.58C124.31,-757.43 137.46,-850.15 189.5,-903 192.86,-906.41 196.87,-909.21 201.16,-911.51"/>
<polygon fill="black" stroke="black" points="124.5,-715.58 120.35,-705.83 117.51,-716.04 124.5,-715.58"/>
</g>
<!-- Node1&#45;&gt;Node17 -->
<g id="edge16" class="edge">
<title>Node1&#45;&gt;Node17</title>
<path fill="none" stroke="black" d="M122.78,-715.08C128.78,-750.83 145.88,-823.5 189.5,-865 193.11,-868.44 197.39,-871.26 201.92,-873.57"/>
<polygon fill="black" stroke="black" points="126.29,-714.93 121.32,-705.58 119.38,-716 126.29,-714.93"/>
</g>
<!-- Node1&#45;&gt;Node18 -->
<g id="edge17" class="edge">
<title>Node1&#45;&gt;Node18</title>
<path fill="none" stroke="black" d="M125.61,-715.25C134.53,-744.44 154.47,-796.73 189.5,-827 193.5,-830.46 198.17,-833.3 203.06,-835.63"/>
<polygon fill="black" stroke="black" points="129,-714.38 122.86,-705.75 122.27,-716.33 129,-714.38"/>
</g>
<!-- Node1&#45;&gt;Node19 -->
<g id="edge18" class="edge">
<title>Node1&#45;&gt;Node19</title>
<path fill="none" stroke="black" d="M130.05,-714.45C141.69,-735.87 162.64,-769.1 189.5,-789 194.07,-792.39 199.3,-795.21 204.66,-797.54"/>
<polygon fill="black" stroke="black" points="133.27,-713.05 125.54,-705.8 127.07,-716.29 133.27,-713.05"/>
</g>
<!-- Node1&#45;&gt;Node20 -->
<g id="edge19" class="edge">
<title>Node1&#45;&gt;Node20</title>
<path fill="none" stroke="black" d="M138.13,-711.98C151.46,-724.31 170.46,-740.31 189.5,-751 195.33,-754.27 201.83,-757.13 208.24,-759.57"/>
<polygon fill="black" stroke="black" points="140.63,-709.53 130.97,-705.18 135.81,-714.6 140.63,-709.53"/>
</g>
<!-- Node1&#45;&gt;Node21 -->
<g id="edge20" class="edge">
<title>Node1&#45;&gt;Node21</title>
<path fill="none" stroke="black" d="M164.34,-707.64C179.37,-712.25 195.88,-717.32 209.94,-721.63"/>
<polygon fill="black" stroke="black" points="165.76,-704.41 155.17,-704.83 163.71,-711.11 165.76,-704.41"/>
</g>
<!-- Node1&#45;&gt;Node22 -->
<g id="edge21" class="edge">
<title>Node1&#45;&gt;Node22</title>
<path fill="none" stroke="black" d="M165.12,-694C176.4,-694 188.48,-694 199.71,-694"/>
<polygon fill="black" stroke="black" points="165.24,-690.5 155.24,-694 165.24,-697.5 165.24,-690.5"/>
</g>
<!-- Node1&#45;&gt;Node23 -->
<g id="edge22" class="edge">
<title>Node1&#45;&gt;Node23</title>
<path fill="none" stroke="black" d="M164.34,-680.36C179.37,-675.75 195.88,-670.68 209.94,-666.37"/>
<polygon fill="black" stroke="black" points="163.71,-676.89 155.17,-683.17 165.76,-683.59 163.71,-676.89"/>
</g>
<!-- Node1&#45;&gt;Node24 -->
<g id="edge23" class="edge">
<title>Node1&#45;&gt;Node24</title>
<path fill="none" stroke="black" d="M138.13,-676.02C151.46,-663.69 170.46,-647.69 189.5,-637 195.33,-633.73 201.83,-630.87 208.24,-628.43"/>
<polygon fill="black" stroke="black" points="135.81,-673.4 130.97,-682.82 140.63,-678.47 135.81,-673.4"/>
</g>
<!-- Node1&#45;&gt;Node25 -->
<g id="edge24" class="edge">
<title>Node1&#45;&gt;Node25</title>
<path fill="none" stroke="black" d="M130.05,-673.55C141.69,-652.13 162.64,-618.9 189.5,-599 194.07,-595.61 199.3,-592.79 204.66,-590.46"/>
<polygon fill="black" stroke="black" points="127.07,-671.71 125.54,-682.2 133.27,-674.95 127.07,-671.71"/>
</g>
<!-- Node1&#45;&gt;Node26 -->
<g id="edge25" class="edge">
<title>Node1&#45;&gt;Node26</title>
<path fill="none" stroke="black" d="M125.61,-672.75C134.53,-643.56 154.47,-591.27 189.5,-561 193.5,-557.54 198.17,-554.7 203.06,-552.37"/>
<polygon fill="black" stroke="black" points="122.27,-671.67 122.86,-682.25 129,-673.62 122.27,-671.67"/>
</g>
<!-- Node1&#45;&gt;Node27 -->
<g id="edge26" class="edge">
<title>Node1&#45;&gt;Node27</title>
<path fill="none" stroke="black" d="M122.78,-672.92C128.78,-637.17 145.88,-564.5 189.5,-523 193.11,-519.56 197.39,-516.74 201.92,-514.43"/>
<polygon fill="black" stroke="black" points="119.38,-672 121.32,-682.42 126.29,-673.07 119.38,-672"/>
</g>
<!-- Node1&#45;&gt;Node28 -->
<g id="edge27" class="edge">
<title>Node1&#45;&gt;Node28</title>
<path fill="none" stroke="black" d="M120.99,-672.42C124.31,-630.57 137.46,-537.85 189.5,-485 192.86,-481.59 196.87,-478.79 201.16,-476.49"/>
<polygon fill="black" stroke="black" points="117.51,-671.96 120.35,-682.17 124.5,-672.42 117.51,-671.96"/>
</g>
<!-- Node1&#45;&gt;Node3 -->
<g id="edge2" class="edge">
<title>Node1&#45;&gt;Node3</title>
<path fill="none" stroke="black" d="M119.66,-672.49C120.37,-625.29 128.71,-511.69 189.5,-447 192.71,-443.58 196.57,-440.78 200.74,-438.48"/>
<polygon fill="black" stroke="black" points="116.16,-672.19 119.63,-682.2 123.16,-672.21 116.16,-672.19"/>
</g>
<!-- Node1&#45;&gt;Node29 -->
<g id="edge28" class="edge">
<title>Node1&#45;&gt;Node29</title>
<path fill="none" stroke="black" d="M122.47,-672.43C130.03,-612.94 153.79,-448.36 189.5,-409 192.65,-405.53 196.47,-402.69 200.62,-400.37"/>
<polygon fill="black" stroke="black" points="119.01,-671.88 121.26,-682.23 125.96,-672.74 119.01,-671.88"/>
</g>
<!-- Node1&#45;&gt;Node30 -->
<g id="edge29" class="edge">
<title>Node1&#45;&gt;Node30</title>
<path fill="none" stroke="black" d="M121.78,-672.58C127.95,-607.96 149.29,-416.56 189.5,-371 192.54,-367.56 196.24,-364.74 200.26,-362.43"/>
<polygon fill="black" stroke="black" points="118.33,-671.95 120.89,-682.23 125.3,-672.59 118.33,-671.95"/>
</g>
<!-- Node1&#45;&gt;Node31 -->
<g id="edge30" class="edge">
<title>Node1&#45;&gt;Node31</title>
<path fill="none" stroke="black" d="M121.27,-672.38C126.17,-602.57 144.83,-384.74 189.5,-333 192.5,-329.53 196.17,-326.69 200.18,-324.37"/>
<polygon fill="black" stroke="black" points="117.79,-671.89 120.61,-682.11 124.78,-672.37 117.79,-671.89"/>
</g>
<!-- Node1&#45;&gt;Node32 -->
<g id="edge31" class="edge">
<title>Node1&#45;&gt;Node32</title>
<path fill="none" stroke="black" d="M120.82,-672.56C124.51,-598.23 140.27,-353.05 189.5,-295 192.4,-291.57 195.96,-288.77 199.86,-286.46"/>
<polygon fill="black" stroke="black" points="117.34,-672 120.37,-682.16 124.34,-672.33 117.34,-672"/>
</g>
<!-- Node1&#45;&gt;Node33 -->
<g id="edge32" class="edge">
<title>Node1&#45;&gt;Node33</title>
<path fill="none" stroke="black" d="M120.46,-672.59C123.03,-593.83 135.73,-321.37 189.5,-257 192.38,-253.55 195.92,-250.73 199.81,-248.42"/>
<polygon fill="black" stroke="black" points="116.97,-672.26 120.17,-682.37 123.97,-672.48 116.97,-672.26"/>
</g>
<!-- Node1&#45;&gt;Node34 -->
<g id="edge33" class="edge">
<title>Node1&#45;&gt;Node34</title>
<path fill="none" stroke="black" d="M120.16,-672.37C121.69,-588.99 131.23,-289.64 189.5,-219 192.36,-215.54 195.89,-212.7 199.76,-210.39"/>
<polygon fill="black" stroke="black" points="116.66,-672.26 120,-682.31 123.66,-672.37 116.66,-672.26"/>
</g>
<!-- Node1&#45;&gt;Node35 -->
<g id="edge34" class="edge">
<title>Node1&#45;&gt;Node35</title>
<path fill="none" stroke="black" d="M119.9,-672.61C120.42,-585.46 126.6,-258.08 189.5,-181 192.34,-177.52 195.86,-174.68 199.73,-172.35"/>
<polygon fill="black" stroke="black" points="116.4,-672.34 119.86,-682.36 123.4,-672.37 116.4,-672.34"/>
</g>
<!-- Node1&#45;&gt;Node36 -->
<g id="edge35" class="edge">
<title>Node1&#45;&gt;Node36</title>
<path fill="none" stroke="black" d="M119.67,-672.21C119.26,-580.44 122.13,-226.35 189.5,-143 192.32,-139.51 195.83,-136.66 199.69,-134.33"/>
<polygon fill="black" stroke="black" points="116.17,-672.08 119.74,-682.06 123.17,-672.04 116.17,-672.08"/>
</g>
<!-- Node1&#45;&gt;Node37 -->
<g id="edge36" class="edge">
<title>Node1&#45;&gt;Node37</title>
<path fill="none" stroke="black" d="M119.48,-672.55C118.16,-577.48 117.45,-194.86 189.5,-105 192.31,-101.5 195.81,-98.64 199.66,-96.3"/>
<polygon fill="black" stroke="black" points="115.98,-672.32 119.64,-682.27 122.98,-672.21 115.98,-672.32"/>
</g>
<!-- Node1&#45;&gt;Node38 -->
<g id="edge37" class="edge">
<title>Node1&#45;&gt;Node38</title>
<path fill="none" stroke="black" d="M120.93,-672.28C126.19,-567.29 150.95,-115.43 189.5,-67 192.3,-63.49 195.79,-60.62 199.64,-58.28"/>
<polygon fill="black" stroke="black" points="117.44,-671.88 120.45,-682.04 124.43,-672.23 117.44,-671.88"/>
</g>
<!-- Node1&#45;&gt;Node39 -->
<g id="edge38" class="edge">
<title>Node1&#45;&gt;Node39</title>
<path fill="none" stroke="black" d="M120.76,-672.7C125.44,-564.69 148.59,-80.73 189.5,-29 192.29,-25.48 195.77,-22.61 199.62,-20.27"/>
<polygon fill="black" stroke="black" points="117.28,-672.3 120.35,-682.44 124.27,-672.6 117.28,-672.3"/>
</g>
<!-- Node2 -->
<g id="Node000002" class="node">
<title>Node2</title>
<g id="a_Node000002"><a xlink:href="group___utilities.html" target="_top" xlink:title=" ">
<polygon fill="white" stroke="#666666" points="48.25,-704 0,-704 0,-684 48.25,-684 48.25,-704"/>
<text text-anchor="middle" x="24.12" y="-690.5" font-family="Helvetica,sans-Serif" font-size="10.00">Utilities</text>
</a>
</g>
</g>
<!-- Node2&#45;&gt;Node1 -->
<g id="edge1" class="edge">
<title>Node2&#45;&gt;Node1</title>
<path fill="none" stroke="black" d="M59.96,-694C67.82,-694 76.15,-694 83.96,-694"/>
<polygon fill="black" stroke="black" points="60.04,-690.5 50.04,-694 60.04,-697.5 60.04,-690.5"/>
</g>
</g>
</svg>
