<?xml version="1.0" encoding="UTF-8" standalone="no"?>
<!DOCTYPE svg PUBLIC "-//W3C//DTD SVG 1.1//EN"
 "http://www.w3.org/Graphics/SVG/1.1/DTD/svg11.dtd">
<!-- Generated by graphviz version 9.0.0 (20230911.1827)
 -->
<!-- Title: Debug Identification Block Pages: 1 -->
<svg width="391pt" height="40pt"
 viewBox="0.00 0.00 391.25 40.00" xmlns="http://www.w3.org/2000/svg" xmlns:xlink="http://www.w3.org/1999/xlink">
<g id="graph0" class="graph" transform="scale(1 1) rotate(0) translate(4 36)">
<title>Debug Identification Block</title>
<!-- Node2 -->
<g id="Node000002" class="node">
<title>Node2</title>
<g id="a_Node000002"><a xlink:href="group___c_m_s_i_s___d_c_b.html" target="_top" xlink:title="Type definitions for the Debug Control Block Registers.">
<polygon fill="white" stroke="#666666" points="105.25,-26 0,-26 0,-6 105.25,-6 105.25,-26"/>
<text text-anchor="middle" x="52.62" y="-12.5" font-family="Helvetica,sans-Serif" font-size="10.00">Debug Control Block</text>
</a>
</g>
</g>
<!-- Node1 -->
<g id="Node000001" class="node">
<title>Node1</title>
<g id="a_Node000001"><a xlink:title="Type definitions for the Debug Identification Block Registers.">
<polygon fill="#999999" stroke="#666666" points="242,-32 141.25,-32 141.25,0 242,0 242,-32"/>
<text text-anchor="start" x="149.25" y="-18.5" font-family="Helvetica,sans-Serif" font-size="10.00">Debug Identification</text>
<text text-anchor="middle" x="191.62" y="-6.5" font-family="Helvetica,sans-Serif" font-size="10.00"> Block</text>
</a>
</g>
</g>
<!-- Node2&#45;&gt;Node1 -->
<g id="edge1" class="edge">
<title>Node2&#45;&gt;Node1</title>
<path fill="none" stroke="black" d="M116.8,-16C124.92,-16 133.15,-16 141.02,-16"/>
<polygon fill="black" stroke="black" points="116.93,-12.5 106.93,-16 116.93,-19.5 116.93,-12.5"/>
</g>
<!-- Node3 -->
<g id="Node000003" class="node">
<title>Node3</title>
<g id="a_Node000003"><a xlink:href="group___c_m_s_i_s__core__bitfield.html" target="_top" xlink:title="Macros for use with bit field definitions (xxx_Pos, xxx_Msk).">
<polygon fill="white" stroke="#666666" points="383.25,-32 278,-32 278,0 383.25,0 383.25,-32"/>
<text text-anchor="start" x="286" y="-18.5" font-family="Helvetica,sans-Serif" font-size="10.00">Core register bit field</text>
<text text-anchor="middle" x="330.62" y="-6.5" font-family="Helvetica,sans-Serif" font-size="10.00"> macros</text>
</a>
</g>
</g>
<!-- Node1&#45;&gt;Node3 -->
<g id="edge2" class="edge">
<title>Node1&#45;&gt;Node3</title>
<path fill="none" stroke="black" d="M253.96,-16C261.9,-16 269.97,-16 277.74,-16"/>
<polygon fill="black" stroke="black" points="253.99,-12.5 243.99,-16 253.99,-19.5 253.99,-12.5"/>
</g>
</g>
</svg>
