<?xml version="1.0" encoding="UTF-8" standalone="no"?>
<!DOCTYPE svg PUBLIC "-//W3C//DTD SVG 1.1//EN"
 "http://www.w3.org/Graphics/SVG/1.1/DTD/svg11.dtd">
<!-- Generated by graphviz version 9.0.0 (20230911.1827)
 -->
<!-- Title: EBI Pages: 1 -->
<svg width="347pt" height="104pt"
 viewBox="0.00 0.00 347.00 104.00" xmlns="http://www.w3.org/2000/svg" xmlns:xlink="http://www.w3.org/1999/xlink">
<g id="graph0" class="graph" transform="scale(1 1) rotate(0) translate(4 100)">
<title>EBI</title>
<!-- Node1 -->
<g id="Node000001" class="node">
<title>Node1</title>
<g id="a_Node000001"><a xlink:title="EBI driver modules.">
<polygon fill="#999999" stroke="#666666" points="185,-58 153.25,-58 153.25,-38 185,-38 185,-58"/>
<text text-anchor="middle" x="169.12" y="-44.5" font-family="Helvetica,sans-Serif" font-size="10.00">EBI</text>
</a>
</g>
</g>
<!-- Node4 -->
<g id="Node000004" class="node">
<title>Node4</title>
<g id="a_Node000004"><a xlink:href="group___e_b_i___exported___constants.html" target="_top" xlink:title=" ">
<polygon fill="white" stroke="#666666" points="339,-96 221,-96 221,-76 339,-76 339,-96"/>
<text text-anchor="middle" x="280" y="-82.5" font-family="Helvetica,sans-Serif" font-size="10.00">EBI exported constants</text>
</a>
</g>
</g>
<!-- Node1&#45;&gt;Node4 -->
<g id="edge3" class="edge">
<title>Node1&#45;&gt;Node4</title>
<path fill="none" stroke="black" d="M195.82,-57.83C203.86,-60.84 212.77,-64.12 221,-67 229.2,-69.87 238.1,-72.85 246.4,-75.58"/>
<polygon fill="black" stroke="black" points="197.21,-54.61 186.62,-54.35 194.74,-61.16 197.21,-54.61"/>
</g>
<!-- Node5 -->
<g id="Node000005" class="node">
<title>Node5</title>
<g id="a_Node000005"><a xlink:href="group___e_b_i___exported___functions.html" target="_top" xlink:title=" ">
<polygon fill="white" stroke="#666666" points="337.12,-58 222.88,-58 222.88,-38 337.12,-38 337.12,-58"/>
<text text-anchor="middle" x="280" y="-44.5" font-family="Helvetica,sans-Serif" font-size="10.00">EBI exported functions</text>
</a>
</g>
</g>
<!-- Node1&#45;&gt;Node5 -->
<g id="edge4" class="edge">
<title>Node1&#45;&gt;Node5</title>
<path fill="none" stroke="black" d="M196.69,-48C204.61,-48 213.62,-48 222.7,-48"/>
<polygon fill="black" stroke="black" points="196.78,-44.5 186.78,-48 196.78,-51.5 196.78,-44.5"/>
</g>
<!-- Node3 -->
<g id="Node000003" class="node">
<title>Node3</title>
<g id="a_Node000003"><a xlink:href="group___e_b_i___exported___types.html" target="_top" xlink:title=" ">
<polygon fill="white" stroke="#666666" points="329.62,-20 230.38,-20 230.38,0 329.62,0 329.62,-20"/>
<text text-anchor="middle" x="280" y="-6.5" font-family="Helvetica,sans-Serif" font-size="10.00">EBI exported types</text>
</a>
</g>
</g>
<!-- Node1&#45;&gt;Node3 -->
<g id="edge2" class="edge">
<title>Node1&#45;&gt;Node3</title>
<path fill="none" stroke="black" d="M195.82,-38.17C203.86,-35.16 212.77,-31.88 221,-29 229.2,-26.13 238.1,-23.15 246.4,-20.42"/>
<polygon fill="black" stroke="black" points="194.74,-34.84 186.62,-41.65 197.21,-41.39 194.74,-34.84"/>
</g>
<!-- Node2 -->
<g id="Node000002" class="node">
<title>Node2</title>
<g id="a_Node000002"><a xlink:href="group___h_t32_f5xxxx___peripheral___driver.html" target="_top" xlink:title=" ">
<polygon fill="white" stroke="#666666" points="117.25,-64 0,-64 0,-32 117.25,-32 117.25,-64"/>
<text text-anchor="start" x="8" y="-50.5" font-family="Helvetica,sans-Serif" font-size="10.00">HT32F5xxxx Peripheral</text>
<text text-anchor="middle" x="58.62" y="-38.5" font-family="Helvetica,sans-Serif" font-size="10.00"> Driver</text>
</a>
</g>
</g>
<!-- Node2&#45;&gt;Node1 -->
<g id="edge1" class="edge">
<title>Node2&#45;&gt;Node1</title>
<path fill="none" stroke="black" d="M129.19,-48C138.09,-48 146.39,-48 153.02,-48"/>
<polygon fill="black" stroke="black" points="129.2,-44.5 119.2,-48 129.2,-51.5 129.2,-44.5"/>
</g>
</g>
</svg>
