<?xml version="1.0" encoding="UTF-8" standalone="no"?>
<!DOCTYPE svg PUBLIC "-//W3C//DTD SVG 1.1//EN"
 "http://www.w3.org/Graphics/SVG/1.1/DTD/svg11.dtd">
<!-- Generated by graphviz version 9.0.0 (20230911.1827)
 -->
<!-- Title: HT32F54253 Starter kit exported constants Pages: 1 -->
<svg width="442pt" height="256pt"
 viewBox="0.00 0.00 442.25 256.00" xmlns="http://www.w3.org/2000/svg" xmlns:xlink="http://www.w3.org/1999/xlink">
<g id="graph0" class="graph" transform="scale(1 1) rotate(0) translate(4 252)">
<title>HT32F54253 Starter kit exported constants</title>
<!-- Node2 -->
<g id="Node000002" class="node">
<title>Node2</title>
<g id="a_Node000002"><a xlink:href="group___h_t32_f54253___s_k.html" target="_top" xlink:title=" ">
<polygon fill="white" stroke="#666666" points="89.5,-134 0,-134 0,-114 89.5,-114 89.5,-134"/>
<text text-anchor="middle" x="44.75" y="-120.5" font-family="Helvetica,sans-Serif" font-size="10.00">HT32F54253_SK</text>
</a>
</g>
</g>
<!-- Node1 -->
<g id="Node000001" class="node">
<title>Node1</title>
<g id="a_Node000001"><a xlink:title=" ">
<polygon fill="#999999" stroke="#666666" points="241.25,-140 125.5,-140 125.5,-108 241.25,-108 241.25,-140"/>
<text text-anchor="start" x="133.5" y="-126.5" font-family="Helvetica,sans-Serif" font-size="10.00">HT32F54253 Starter</text>
<text text-anchor="middle" x="183.38" y="-114.5" font-family="Helvetica,sans-Serif" font-size="10.00"> kit exported constants</text>
</a>
</g>
</g>
<!-- Node2&#45;&gt;Node1 -->
<g id="edge1" class="edge">
<title>Node2&#45;&gt;Node1</title>
<path fill="none" stroke="black" d="M101.06,-124C108.95,-124 117.08,-124 125,-124"/>
<polygon fill="black" stroke="black" points="101.24,-120.5 91.24,-124 101.24,-127.5 101.24,-120.5"/>
</g>
<!-- Node4 -->
<g id="Node000004" class="node">
<title>Node4</title>
<g id="a_Node000004"><a xlink:href="group___h_t32_f54253___s_k___b_u_t_t_o_n.html" target="_top" xlink:title=" ">
<polygon fill="white" stroke="#666666" points="422.25,-248 289.25,-248 289.25,-228 422.25,-228 422.25,-248"/>
<text text-anchor="middle" x="355.75" y="-234.5" font-family="Helvetica,sans-Serif" font-size="10.00">HT32F54253_SK_BUTTON</text>
</a>
</g>
</g>
<!-- Node5 -->
<g id="Node000005" class="node">
<title>Node5</title>
<g id="a_Node000005"><a xlink:href="group___h_t32_f54253___s_k___b_u_z_z_e_r.html" target="_top" xlink:title=" ">
<polygon fill="white" stroke="#666666" points="421.88,-210 289.62,-210 289.62,-190 421.88,-190 421.88,-210"/>
<text text-anchor="middle" x="355.75" y="-196.5" font-family="Helvetica,sans-Serif" font-size="10.00">HT32F54253_SK_BUZZER</text>
</a>
</g>
</g>
<!-- Node6 -->
<g id="Node000006" class="node">
<title>Node6</title>
<g id="a_Node000006"><a xlink:href="group___h_t32_f54253___s_k___c_o_m.html" target="_top" xlink:title=" ">
<polygon fill="white" stroke="#666666" points="414.38,-172 297.12,-172 297.12,-152 414.38,-152 414.38,-172"/>
<text text-anchor="middle" x="355.75" y="-158.5" font-family="Helvetica,sans-Serif" font-size="10.00">HT32F54253_SK_COM</text>
</a>
</g>
</g>
<!-- Node1&#45;&gt;Node4 -->
<g id="edge3" class="edge">
<title>Node1&#45;&gt;Node4</title>
<path fill="none" stroke="black" d="M202.39,-149.13C219.3,-170.87 246.54,-201.47 277.25,-219 283.27,-222.43 289.89,-225.25 296.65,-227.56"/>
<polygon fill="black" stroke="black" points="205.32,-147.21 196.5,-141.35 199.74,-151.43 205.32,-147.21"/>
</g>
<!-- Node1&#45;&gt;Node5 -->
<g id="edge4" class="edge">
<title>Node1&#45;&gt;Node5</title>
<path fill="none" stroke="black" d="M215.71,-146.62C233.12,-158.3 255.6,-171.96 277.25,-181 285.18,-184.31 293.81,-187.13 302.34,-189.5"/>
<polygon fill="black" stroke="black" points="218.07,-143.99 207.84,-141.23 214.11,-149.77 218.07,-143.99"/>
</g>
<!-- Node1&#45;&gt;Node6 -->
<g id="edge5" class="edge">
<title>Node1&#45;&gt;Node6</title>
<path fill="none" stroke="black" d="M252.64,-139.23C271.18,-143.36 290.83,-147.74 307.89,-151.55"/>
<polygon fill="black" stroke="black" points="253.58,-135.85 243.06,-137.09 252.06,-142.68 253.58,-135.85"/>
</g>
<!-- Node9 -->
<g id="Node000009" class="node">
<title>Node9</title>
<g id="a_Node000009"><a xlink:href="group___h_t32_f54253___s_k___i2_c___e_e_p_r_o_m.html" target="_top" xlink:title=" ">
<polygon fill="white" stroke="#666666" points="434.25,-134 277.25,-134 277.25,-114 434.25,-114 434.25,-134"/>
<text text-anchor="middle" x="355.75" y="-120.5" font-family="Helvetica,sans-Serif" font-size="10.00">HT32F54253_SK_I2C_EEPROM</text>
</a>
</g>
</g>
<!-- Node1&#45;&gt;Node9 -->
<g id="edge8" class="edge">
<title>Node1&#45;&gt;Node9</title>
<path fill="none" stroke="black" d="M252.92,-124C260.78,-124 268.84,-124 276.81,-124"/>
<polygon fill="black" stroke="black" points="253.09,-120.5 243.09,-124 253.09,-127.5 253.09,-120.5"/>
</g>
<!-- Node3 -->
<g id="Node000003" class="node">
<title>Node3</title>
<g id="a_Node000003"><a xlink:href="group___h_t32_f54253___s_k___l_e_d.html" target="_top" xlink:title=" ">
<polygon fill="white" stroke="#666666" points="412.5,-96 299,-96 299,-76 412.5,-76 412.5,-96"/>
<text text-anchor="middle" x="355.75" y="-82.5" font-family="Helvetica,sans-Serif" font-size="10.00">HT32F54253_SK_LED</text>
</a>
</g>
</g>
<!-- Node1&#45;&gt;Node3 -->
<g id="edge2" class="edge">
<title>Node1&#45;&gt;Node3</title>
<path fill="none" stroke="black" d="M252.64,-108.77C271.18,-104.64 290.83,-100.26 307.89,-96.45"/>
<polygon fill="black" stroke="black" points="252.06,-105.32 243.06,-110.91 253.58,-112.15 252.06,-105.32"/>
</g>
<!-- Node7 -->
<g id="Node000007" class="node">
<title>Node7</title>
<g id="a_Node000007"><a xlink:href="group___h_t32_f54253___s_k___s_p_i___f_l_a_s_h.html" target="_top" xlink:title=" ">
<polygon fill="white" stroke="#666666" points="429.38,-58 282.12,-58 282.12,-38 429.38,-38 429.38,-58"/>
<text text-anchor="middle" x="355.75" y="-44.5" font-family="Helvetica,sans-Serif" font-size="10.00">HT32F54253_SK_SPI_FLASH</text>
</a>
</g>
</g>
<!-- Node1&#45;&gt;Node7 -->
<g id="edge6" class="edge">
<title>Node1&#45;&gt;Node7</title>
<path fill="none" stroke="black" d="M215.71,-101.38C233.12,-89.7 255.6,-76.04 277.25,-67 285.18,-63.69 293.81,-60.87 302.34,-58.5"/>
<polygon fill="black" stroke="black" points="214.11,-98.23 207.84,-106.77 218.07,-104.01 214.11,-98.23"/>
</g>
<!-- Node8 -->
<g id="Node000008" class="node">
<title>Node8</title>
<g id="a_Node000008"><a xlink:href="group___h_t32_f54253___s_k___s_p_i___l_c_d.html" target="_top" xlink:title=" ">
<polygon fill="white" stroke="#666666" points="423,-20 288.5,-20 288.5,0 423,0 423,-20"/>
<text text-anchor="middle" x="355.75" y="-6.5" font-family="Helvetica,sans-Serif" font-size="10.00">HT32F54253_SK_SPI_LCD</text>
</a>
</g>
</g>
<!-- Node1&#45;&gt;Node8 -->
<g id="edge7" class="edge">
<title>Node1&#45;&gt;Node8</title>
<path fill="none" stroke="black" d="M202.39,-98.87C219.3,-77.13 246.54,-46.53 277.25,-29 283.27,-25.57 289.89,-22.75 296.65,-20.44"/>
<polygon fill="black" stroke="black" points="199.74,-96.57 196.5,-106.65 205.32,-100.79 199.74,-96.57"/>
</g>
</g>
</svg>
