<?xml version="1.0" encoding="UTF-8" standalone="no"?>
<!DOCTYPE svg PUBLIC "-//W3C//DTD SVG 1.1//EN"
 "http://www.w3.org/Graphics/SVG/1.1/DTD/svg11.dtd">
<!-- Generated by graphviz version 9.0.0 (20230911.1827)
 -->
<!-- Title: DAC Pages: 1 -->
<svg width="337pt" height="66pt"
 viewBox="0.00 0.00 336.50 66.00" xmlns="http://www.w3.org/2000/svg" xmlns:xlink="http://www.w3.org/1999/xlink">
<g id="graph0" class="graph" transform="scale(1 1) rotate(0) translate(4 62)">
<title>DAC</title>
<!-- Node3 -->
<g id="Node000003" class="node">
<title>Node3</title>
<g id="a_Node000003"><a xlink:href="group___async__2_c_h.html" target="_top" xlink:title=" ">
<polygon fill="white" stroke="#666666" points="318,-58 250.25,-58 250.25,-38 318,-38 318,-58"/>
<text text-anchor="middle" x="284.12" y="-44.5" font-family="Helvetica,sans-Serif" font-size="10.00">Async_2CH</text>
</a>
</g>
</g>
<!-- Node1 -->
<g id="Node000001" class="node">
<title>Node1</title>
<g id="a_Node000001"><a xlink:title=" ">
<polygon fill="#999999" stroke="#666666" points="203.75,-39 167.5,-39 167.5,-19 203.75,-19 203.75,-39"/>
<text text-anchor="middle" x="185.62" y="-25.5" font-family="Helvetica,sans-Serif" font-size="10.00">DAC</text>
</a>
</g>
</g>
<!-- Node1&#45;&gt;Node3 -->
<g id="edge2" class="edge">
<title>Node1&#45;&gt;Node3</title>
<path fill="none" stroke="black" d="M215,-34.59C225.98,-36.75 238.63,-39.24 250.02,-41.48"/>
<polygon fill="black" stroke="black" points="215.85,-31.19 205.36,-32.69 214.5,-38.06 215.85,-31.19"/>
</g>
<!-- Node4 -->
<g id="Node000004" class="node">
<title>Node4</title>
<g id="a_Node000004"><a xlink:href="group___sync__12bit__2_c_h.html" target="_top" xlink:title=" ">
<polygon fill="white" stroke="#666666" points="328.5,-20 239.75,-20 239.75,0 328.5,0 328.5,-20"/>
<text text-anchor="middle" x="284.12" y="-6.5" font-family="Helvetica,sans-Serif" font-size="10.00">Sync_12bit_2CH</text>
</a>
</g>
</g>
<!-- Node1&#45;&gt;Node4 -->
<g id="edge3" class="edge">
<title>Node1&#45;&gt;Node4</title>
<path fill="none" stroke="black" d="M215.11,-23.39C222.77,-21.88 231.23,-20.22 239.51,-18.59"/>
<polygon fill="black" stroke="black" points="214.5,-19.94 205.36,-25.31 215.85,-26.81 214.5,-19.94"/>
</g>
<!-- Node2 -->
<g id="Node000002" class="node">
<title>Node2</title>
<g id="a_Node000002"><a xlink:href="group___h_t32___series___peripheral___examples.html" target="_top" xlink:title=" ">
<polygon fill="white" stroke="#666666" points="131.5,-39 0,-39 0,-19 131.5,-19 131.5,-39"/>
<text text-anchor="middle" x="65.75" y="-25.5" font-family="Helvetica,sans-Serif" font-size="10.00">HT32 Peripheral Examples</text>
</a>
</g>
</g>
<!-- Node2&#45;&gt;Node1 -->
<g id="edge1" class="edge">
<title>Node2&#45;&gt;Node1</title>
<path fill="none" stroke="black" d="M143.29,-29C152.1,-29 160.32,-29 167.09,-29"/>
<polygon fill="black" stroke="black" points="143.41,-25.5 133.41,-29 143.41,-32.5 143.41,-25.5"/>
</g>
</g>
</svg>
