<?xml version="1.0" encoding="UTF-8" standalone="no"?>
<!DOCTYPE svg PUBLIC "-//W3C//DTD SVG 1.1//EN"
 "http://www.w3.org/Graphics/SVG/1.1/DTD/svg11.dtd">
<!-- Generated by graphviz version 9.0.0 (20230911.1827)
 -->
<!-- Title: IP Pages: 1 -->
<svg width="253pt" height="28pt"
 viewBox="0.00 0.00 252.55 28.00" xmlns="http://www.w3.org/2000/svg" xmlns:xlink="http://www.w3.org/1999/xlink">
<g id="graph0" class="graph" transform="scale(1 1) rotate(0) translate(4 24)">
<title>IP</title>
<!-- Node3 -->
<g id="Node000003" class="node">
<title>Node3</title>
<g id="a_Node000003"><a xlink:href="group___example.html" target="_top" xlink:title=" ">
<polygon fill="white" stroke="#666666" points="244.55,-20 190.3,-20 190.3,0 244.55,0 244.55,-20"/>
<text text-anchor="middle" x="217.43" y="-6.5" font-family="Helvetica,sans-Serif" font-size="10.00">Example</text>
</a>
</g>
</g>
<!-- Node1 -->
<g id="Node000001" class="node">
<title>Node1</title>
<g id="a_Node000001"><a xlink:title=" ">
<polygon fill="#999999" stroke="#666666" points="154.3,-20 125.5,-20 125.5,0 154.3,0 154.3,-20"/>
<text text-anchor="middle" x="139.9" y="-6.5" font-family="Helvetica,sans-Serif" font-size="10.00">IP</text>
</a>
</g>
</g>
<!-- Node1&#45;&gt;Node3 -->
<g id="edge2" class="edge">
<title>Node1&#45;&gt;Node3</title>
<path fill="none" stroke="black" d="M166.21,-10C173.8,-10 182.15,-10 189.82,-10"/>
<polygon fill="black" stroke="black" points="166.27,-6.5 156.27,-10 166.27,-13.5 166.27,-6.5"/>
</g>
<!-- Node2 -->
<g id="Node000002" class="node">
<title>Node2</title>
<g id="a_Node000002"><a xlink:href="group___project___template.html" target="_top" xlink:title=" ">
<polygon fill="white" stroke="#666666" points="89.5,-20 0,-20 0,0 89.5,0 89.5,-20"/>
<text text-anchor="middle" x="44.75" y="-6.5" font-family="Helvetica,sans-Serif" font-size="10.00">Project Template</text>
</a>
</g>
</g>
<!-- Node2&#45;&gt;Node1 -->
<g id="edge1" class="edge">
<title>Node2&#45;&gt;Node1</title>
<path fill="none" stroke="black" d="M101.23,-10C110.08,-10 118.49,-10 125.11,-10"/>
<polygon fill="black" stroke="black" points="101.38,-6.5 91.38,-10 101.38,-13.5 101.38,-6.5"/>
</g>
</g>
</svg>
