<?xml version="1.0" encoding="UTF-8" standalone="no"?>
<!DOCTYPE svg PUBLIC "-//W3C//DTD SVG 1.1//EN"
 "http://www.w3.org/Graphics/SVG/1.1/DTD/svg11.dtd">
<!-- Generated by graphviz version 9.0.0 (20230911.1827)
 -->
<!-- Title: HT32F5xxxx Peripheral Driver Pages: 1 -->
<svg width="239pt" height="1358pt"
 viewBox="0.00 0.00 238.75 1358.00" xmlns="http://www.w3.org/2000/svg" xmlns:xlink="http://www.w3.org/1999/xlink">
<g id="graph0" class="graph" transform="scale(1 1) rotate(0) translate(4 1354)">
<title>HT32F5xxxx Peripheral Driver</title>
<!-- Node3 -->
<g id="Node000003" class="node">
<title>Node3</title>
<g id="a_Node000003"><a xlink:href="group___a_d_c.html" target="_top" xlink:title="ADC driver modules.">
<polygon fill="white" stroke="#666666" points="210.12,-1350 173.88,-1350 173.88,-1330 210.12,-1330 210.12,-1350"/>
<text text-anchor="middle" x="192" y="-1336.5" font-family="Helvetica,sans-Serif" font-size="10.00">ADC</text>
</a>
</g>
</g>
<!-- Node4 -->
<g id="Node000004" class="node">
<title>Node4</title>
<g id="a_Node000004"><a xlink:href="group___a_e_s.html" target="_top" xlink:title="AES driver modules.">
<polygon fill="white" stroke="#666666" points="210.12,-1312 173.88,-1312 173.88,-1292 210.12,-1292 210.12,-1312"/>
<text text-anchor="middle" x="192" y="-1298.5" font-family="Helvetica,sans-Serif" font-size="10.00">AES</text>
</a>
</g>
</g>
<!-- Node5 -->
<g id="Node000005" class="node">
<title>Node5</title>
<g id="a_Node000005"><a xlink:href="group___b_f_t_m.html" target="_top" xlink:title="BFTM driver modules.">
<polygon fill="white" stroke="#666666" points="213.12,-1274 170.88,-1274 170.88,-1254 213.12,-1254 213.12,-1274"/>
<text text-anchor="middle" x="192" y="-1260.5" font-family="Helvetica,sans-Serif" font-size="10.00">BFTM</text>
</a>
</g>
</g>
<!-- Node6 -->
<g id="Node000006" class="node">
<title>Node6</title>
<g id="a_Node000006"><a xlink:href="group___c_a_n.html" target="_top" xlink:title="CAN driver modules.">
<polygon fill="white" stroke="#666666" points="210.12,-1236 173.88,-1236 173.88,-1216 210.12,-1216 210.12,-1236"/>
<text text-anchor="middle" x="192" y="-1222.5" font-family="Helvetica,sans-Serif" font-size="10.00">CAN</text>
</a>
</g>
</g>
<!-- Node7 -->
<g id="Node000007" class="node">
<title>Node7</title>
<g id="a_Node000007"><a xlink:href="group___c_k_c_u.html" target="_top" xlink:title="CKCU driver modules.">
<polygon fill="white" stroke="#666666" points="213.5,-1198 170.5,-1198 170.5,-1178 213.5,-1178 213.5,-1198"/>
<text text-anchor="middle" x="192" y="-1184.5" font-family="Helvetica,sans-Serif" font-size="10.00">CKCU</text>
</a>
</g>
</g>
<!-- Node8 -->
<g id="Node000008" class="node">
<title>Node8</title>
<g id="a_Node000008"><a xlink:href="group___c_m_p.html" target="_top" xlink:title="CMP driver modules.">
<polygon fill="white" stroke="#666666" points="210.88,-1160 173.12,-1160 173.12,-1140 210.88,-1140 210.88,-1160"/>
<text text-anchor="middle" x="192" y="-1146.5" font-family="Helvetica,sans-Serif" font-size="10.00">CMP</text>
</a>
</g>
</g>
<!-- Node36 -->
<g id="Node000036" class="node">
<title>Node36</title>
<g id="a_Node000036"><a xlink:href="group___c_o_r_d_i_c.html" target="_top" xlink:title="CORDIC driver modules.">
<polygon fill="white" stroke="#666666" points="218.38,-1122 165.62,-1122 165.62,-1102 218.38,-1102 218.38,-1122"/>
<text text-anchor="middle" x="192" y="-1108.5" font-family="Helvetica,sans-Serif" font-size="10.00">CORDIC</text>
</a>
</g>
</g>
<!-- Node9 -->
<g id="Node000009" class="node">
<title>Node9</title>
<g id="a_Node000009"><a xlink:href="group___c_r_c.html" target="_top" xlink:title="CRC driver modules.">
<polygon fill="white" stroke="#666666" points="210.12,-1084 173.88,-1084 173.88,-1064 210.12,-1064 210.12,-1084"/>
<text text-anchor="middle" x="192" y="-1070.5" font-family="Helvetica,sans-Serif" font-size="10.00">CRC</text>
</a>
</g>
</g>
<!-- Node10 -->
<g id="Node000010" class="node">
<title>Node10</title>
<g id="a_Node000010"><a xlink:href="group___d_a_c.html" target="_top" xlink:title="DAC driver modules.">
<polygon fill="white" stroke="#666666" points="210.12,-1046 173.88,-1046 173.88,-1026 210.12,-1026 210.12,-1046"/>
<text text-anchor="middle" x="192" y="-1032.5" font-family="Helvetica,sans-Serif" font-size="10.00">DAC</text>
</a>
</g>
</g>
<!-- Node11 -->
<g id="Node000011" class="node">
<title>Node11</title>
<g id="a_Node000011"><a xlink:href="group___d_a_c___d_u_a_l16.html" target="_top" xlink:title="DAC driver modules.">
<polygon fill="white" stroke="#666666" points="230.75,-1008 153.25,-1008 153.25,-988 230.75,-988 230.75,-1008"/>
<text text-anchor="middle" x="192" y="-994.5" font-family="Helvetica,sans-Serif" font-size="10.00">DAC_DUAL16</text>
</a>
</g>
</g>
<!-- Node12 -->
<g id="Node000012" class="node">
<title>Node12</title>
<g id="a_Node000012"><a xlink:href="group___d_i_v.html" target="_top" xlink:title="DIV driver modules.">
<polygon fill="white" stroke="#666666" points="207.88,-970 176.12,-970 176.12,-950 207.88,-950 207.88,-970"/>
<text text-anchor="middle" x="192" y="-956.5" font-family="Helvetica,sans-Serif" font-size="10.00">DIV</text>
</a>
</g>
</g>
<!-- Node13 -->
<g id="Node000013" class="node">
<title>Node13</title>
<g id="a_Node000013"><a xlink:href="group___e_b_i.html" target="_top" xlink:title="EBI driver modules.">
<polygon fill="white" stroke="#666666" points="207.88,-932 176.12,-932 176.12,-912 207.88,-912 207.88,-932"/>
<text text-anchor="middle" x="192" y="-918.5" font-family="Helvetica,sans-Serif" font-size="10.00">EBI</text>
</a>
</g>
</g>
<!-- Node14 -->
<g id="Node000014" class="node">
<title>Node14</title>
<g id="a_Node000014"><a xlink:href="group___e_x_t_i.html" target="_top" xlink:title="EXTI driver modules.">
<polygon fill="white" stroke="#666666" points="209.75,-894 174.25,-894 174.25,-874 209.75,-874 209.75,-894"/>
<text text-anchor="middle" x="192" y="-880.5" font-family="Helvetica,sans-Serif" font-size="10.00">EXTI</text>
</a>
</g>
</g>
<!-- Node15 -->
<g id="Node000015" class="node">
<title>Node15</title>
<g id="a_Node000015"><a xlink:href="group___f_l_a_s_h.html" target="_top" xlink:title="FLASH driver modules.">
<polygon fill="white" stroke="#666666" points="215.75,-856 168.25,-856 168.25,-836 215.75,-836 215.75,-856"/>
<text text-anchor="middle" x="192" y="-842.5" font-family="Helvetica,sans-Serif" font-size="10.00">FLASH</text>
</a>
</g>
</g>
<!-- Node16 -->
<g id="Node000016" class="node">
<title>Node16</title>
<g id="a_Node000016"><a xlink:href="group___g_p_i_o.html" target="_top" xlink:title="GPIO driver modules.">
<polygon fill="white" stroke="#666666" points="212,-818 172,-818 172,-798 212,-798 212,-818"/>
<text text-anchor="middle" x="192" y="-804.5" font-family="Helvetica,sans-Serif" font-size="10.00">GPIO</text>
</a>
</g>
</g>
<!-- Node1 -->
<g id="Node000001" class="node">
<title>Node1</title>
<g id="a_Node000001"><a xlink:title=" ">
<polygon fill="#999999" stroke="#666666" points="117.25,-691 0,-691 0,-659 117.25,-659 117.25,-691"/>
<text text-anchor="start" x="8" y="-677.5" font-family="Helvetica,sans-Serif" font-size="10.00">HT32F5xxxx Peripheral</text>
<text text-anchor="middle" x="58.62" y="-665.5" font-family="Helvetica,sans-Serif" font-size="10.00"> Driver</text>
</a>
</g>
</g>
<!-- Node1&#45;&gt;Node3 -->
<g id="edge2" class="edge">
<title>Node1&#45;&gt;Node3</title>
<path fill="none" stroke="black" d="M60.3,-702.61C63.5,-812.73 80.15,-1219.51 153.25,-1321 158.14,-1327.79 166.16,-1332.3 173.55,-1335.21"/>
<polygon fill="black" stroke="black" points="63.81,-702.65 60.03,-692.75 56.81,-702.84 63.81,-702.65"/>
</g>
<!-- Node1&#45;&gt;Node4 -->
<g id="edge3" class="edge">
<title>Node1&#45;&gt;Node4</title>
<path fill="none" stroke="black" d="M60.59,-702.69C64.75,-808.78 84.31,-1188.17 153.25,-1283 158.17,-1289.77 166.19,-1294.27 173.58,-1297.19"/>
<polygon fill="black" stroke="black" points="64.09,-702.78 60.22,-692.92 57.1,-703.05 64.09,-702.78"/>
</g>
<!-- Node1&#45;&gt;Node5 -->
<g id="edge4" class="edge">
<title>Node1&#45;&gt;Node5</title>
<path fill="none" stroke="black" d="M60.91,-702.91C66.11,-805.02 88.48,-1156.85 153.25,-1245 157.51,-1250.79 164.04,-1254.94 170.48,-1257.84"/>
<polygon fill="black" stroke="black" points="64.41,-702.81 60.42,-692.99 57.42,-703.15 64.41,-702.81"/>
</g>
<!-- Node1&#45;&gt;Node6 -->
<g id="edge5" class="edge">
<title>Node1&#45;&gt;Node6</title>
<path fill="none" stroke="black" d="M61.26,-702.63C67.49,-799.96 92.55,-1125.36 153.25,-1207 158.24,-1213.71 166.27,-1218.21 173.65,-1221.14"/>
<polygon fill="black" stroke="black" points="64.77,-702.71 60.65,-692.95 57.78,-703.14 64.77,-702.71"/>
</g>
<!-- Node1&#45;&gt;Node7 -->
<g id="edge6" class="edge">
<title>Node1&#45;&gt;Node7</title>
<path fill="none" stroke="black" d="M61.68,-702.73C69.03,-795.59 96.68,-1093.94 153.25,-1169 157.49,-1174.62 163.86,-1178.7 170.16,-1181.6"/>
<polygon fill="black" stroke="black" points="65.17,-702.48 60.91,-692.78 58.19,-703.02 65.17,-702.48"/>
</g>
<!-- Node1&#45;&gt;Node8 -->
<g id="edge7" class="edge">
<title>Node1&#45;&gt;Node8</title>
<path fill="none" stroke="black" d="M62.15,-702.6C70.65,-790.54 100.74,-1062.43 153.25,-1131 158.16,-1137.41 165.82,-1141.82 172.96,-1144.76"/>
<polygon fill="black" stroke="black" points="65.64,-702.36 61.21,-692.73 58.67,-703.02 65.64,-702.36"/>
</g>
<!-- Node1&#45;&gt;Node36 -->
<g id="edge35" class="edge">
<title>Node1&#45;&gt;Node36</title>
<path fill="none" stroke="black" d="M62.7,-702.46C72.42,-785.31 104.8,-1030.89 153.25,-1093 156.41,-1097.05 160.66,-1100.31 165.18,-1102.9"/>
<polygon fill="black" stroke="black" points="66.2,-702.29 61.57,-692.75 59.24,-703.09 66.2,-702.29"/>
</g>
<!-- Node1&#45;&gt;Node9 -->
<g id="edge8" class="edge">
<title>Node1&#45;&gt;Node9</title>
<path fill="none" stroke="black" d="M58.95,-702.44C58.71,-769.99 66.93,-946.72 153.25,-1055 158.37,-1061.43 166.24,-1065.87 173.47,-1068.83"/>
<polygon fill="black" stroke="black" points="62.45,-702.69 59.06,-692.65 55.45,-702.61 62.45,-702.69"/>
</g>
<!-- Node1&#45;&gt;Node10 -->
<g id="edge9" class="edge">
<title>Node1&#45;&gt;Node10</title>
<path fill="none" stroke="black" d="M59.89,-702.67C61.91,-765.6 75.03,-921.42 153.25,-1017 158.45,-1023.36 166.33,-1027.79 173.54,-1030.76"/>
<polygon fill="black" stroke="black" points="63.4,-702.79 59.66,-692.88 56.4,-702.96 63.4,-702.79"/>
</g>
<!-- Node1&#45;&gt;Node11 -->
<g id="edge10" class="edge">
<title>Node1&#45;&gt;Node11</title>
<path fill="none" stroke="black" d="M61.06,-702.72C65.43,-760.62 83.01,-895.89 153.25,-979 156.09,-982.36 159.67,-985.19 163.5,-987.55"/>
<polygon fill="black" stroke="black" points="64.55,-702.53 60.4,-692.79 57.57,-703 64.55,-702.53"/>
</g>
<!-- Node1&#45;&gt;Node12 -->
<g id="edge11" class="edge">
<title>Node1&#45;&gt;Node12</title>
<path fill="none" stroke="black" d="M62.55,-702.87C69.42,-755.42 90.98,-870.22 153.25,-941 159.16,-947.72 168.01,-952.35 175.66,-955.36"/>
<polygon fill="black" stroke="black" points="66.03,-702.49 61.35,-692.99 59.08,-703.34 66.03,-702.49"/>
</g>
<!-- Node1&#45;&gt;Node13 -->
<g id="edge12" class="edge">
<title>Node1&#45;&gt;Node13</title>
<path fill="none" stroke="black" d="M64.47,-702.77C73.91,-749.43 98.8,-844.21 153.25,-903 159.33,-909.57 168.19,-914.19 175.8,-917.23"/>
<polygon fill="black" stroke="black" points="67.91,-702.12 62.59,-692.96 61.04,-703.44 67.91,-702.12"/>
</g>
<!-- Node1&#45;&gt;Node14 -->
<g id="edge13" class="edge">
<title>Node1&#45;&gt;Node14</title>
<path fill="none" stroke="black" d="M67.01,-702.38C79.07,-742.55 106.45,-817.81 153.25,-865 159.04,-870.84 166.98,-875.2 174.1,-878.27"/>
<polygon fill="black" stroke="black" points="70.38,-701.42 64.24,-692.79 63.65,-703.37 70.38,-701.42"/>
</g>
<!-- Node1&#45;&gt;Node15 -->
<g id="edge14" class="edge">
<title>Node1&#45;&gt;Node15</title>
<path fill="none" stroke="black" d="M70.44,-701.43C85.04,-734.4 113.86,-790.85 153.25,-827 157.57,-830.97 162.88,-834.31 168.14,-837.03"/>
<polygon fill="black" stroke="black" points="73.8,-700.39 66.63,-692.6 67.37,-703.16 73.8,-700.39"/>
</g>
<!-- Node1&#45;&gt;Node16 -->
<g id="edge15" class="edge">
<title>Node1&#45;&gt;Node16</title>
<path fill="none" stroke="black" d="M76.04,-700.7C93.01,-725.71 121.44,-763.55 153.25,-789 158.75,-793.4 165.43,-797.17 171.64,-800.17"/>
<polygon fill="black" stroke="black" points="78.99,-698.82 70.54,-692.42 73.16,-702.69 78.99,-698.82"/>
</g>
<!-- Node17 -->
<g id="Node000017" class="node">
<title>Node17</title>
<g id="a_Node000017"><a xlink:href="group___i2_c.html" target="_top" xlink:title="I2C driver modules.">
<polygon fill="white" stroke="#666666" points="207.12,-780 176.88,-780 176.88,-760 207.12,-760 207.12,-780"/>
<text text-anchor="middle" x="192" y="-766.5" font-family="Helvetica,sans-Serif" font-size="10.00">I2C</text>
</a>
</g>
</g>
<!-- Node1&#45;&gt;Node17 -->
<g id="edge16" class="edge">
<title>Node1&#45;&gt;Node17</title>
<path fill="none" stroke="black" d="M85.7,-698.73C103.86,-714.6 129.08,-735.37 153.25,-751 160.64,-755.78 169.4,-760.26 176.62,-763.66"/>
<polygon fill="black" stroke="black" points="88.33,-696.38 78.52,-692.38 83.69,-701.62 88.33,-696.38"/>
</g>
<!-- Node18 -->
<g id="Node000018" class="node">
<title>Node18</title>
<g id="a_Node000018"><a xlink:href="group___i2_s.html" target="_top" xlink:title="I2S driver modules.">
<polygon fill="white" stroke="#666666" points="207.12,-742 176.88,-742 176.88,-722 207.12,-722 207.12,-742"/>
<text text-anchor="middle" x="192" y="-728.5" font-family="Helvetica,sans-Serif" font-size="10.00">I2S</text>
</a>
</g>
</g>
<!-- Node1&#45;&gt;Node18 -->
<g id="edge17" class="edge">
<title>Node1&#45;&gt;Node18</title>
<path fill="none" stroke="black" d="M108.14,-696.05C132.43,-706.59 160.09,-718.59 176.51,-725.71"/>
<polygon fill="black" stroke="black" points="109.58,-692.86 99.01,-692.09 106.79,-699.28 109.58,-692.86"/>
</g>
<!-- Node19 -->
<g id="Node000019" class="node">
<title>Node19</title>
<g id="a_Node000019"><a xlink:href="group___l_c_d.html" target="_top" xlink:title="LCD driver modules.">
<polygon fill="white" stroke="#666666" points="209.38,-704 174.62,-704 174.62,-684 209.38,-684 209.38,-704"/>
<text text-anchor="middle" x="192" y="-690.5" font-family="Helvetica,sans-Serif" font-size="10.00">LCD</text>
</a>
</g>
</g>
<!-- Node1&#45;&gt;Node19 -->
<g id="edge18" class="edge">
<title>Node1&#45;&gt;Node19</title>
<path fill="none" stroke="black" d="M128.8,-685C145.8,-687.46 162.48,-689.88 174.29,-691.58"/>
<polygon fill="black" stroke="black" points="129.53,-681.57 119.13,-683.61 128.52,-688.5 129.53,-681.57"/>
</g>
<!-- Node20 -->
<g id="Node000020" class="node">
<title>Node20</title>
<g id="a_Node000020"><a xlink:href="group___l_e_d_c.html" target="_top" xlink:title="LEDC driver modules.">
<polygon fill="white" stroke="#666666" points="212.75,-666 171.25,-666 171.25,-646 212.75,-646 212.75,-666"/>
<text text-anchor="middle" x="192" y="-652.5" font-family="Helvetica,sans-Serif" font-size="10.00">LEDC</text>
</a>
</g>
</g>
<!-- Node1&#45;&gt;Node20 -->
<g id="edge19" class="edge">
<title>Node1&#45;&gt;Node20</title>
<path fill="none" stroke="black" d="M128.88,-664.98C144.33,-662.75 159.52,-660.55 171.01,-658.89"/>
<polygon fill="black" stroke="black" points="128.52,-661.5 119.13,-666.39 129.53,-668.43 128.52,-661.5"/>
</g>
<!-- Node21 -->
<g id="Node000021" class="node">
<title>Node21</title>
<g id="a_Node000021"><a xlink:href="group___m_c_t_m.html" target="_top" xlink:title="MCTM driver modules.">
<polygon fill="white" stroke="#666666" points="214.25,-628 169.75,-628 169.75,-608 214.25,-608 214.25,-628"/>
<text text-anchor="middle" x="192" y="-614.5" font-family="Helvetica,sans-Serif" font-size="10.00">MCTM</text>
</a>
</g>
</g>
<!-- Node1&#45;&gt;Node21 -->
<g id="edge20" class="edge">
<title>Node1&#45;&gt;Node21</title>
<path fill="none" stroke="black" d="M108.06,-653.99C129.16,-644.83 152.82,-634.56 169.46,-627.35"/>
<polygon fill="black" stroke="black" points="106.79,-650.72 99.01,-657.91 109.58,-657.14 106.79,-650.72"/>
</g>
<!-- Node22 -->
<g id="Node000022" class="node">
<title>Node22</title>
<g id="a_Node000022"><a xlink:href="group___m_i_d_i.html" target="_top" xlink:title="MIDI driver modules.">
<polygon fill="white" stroke="#666666" points="209.75,-590 174.25,-590 174.25,-570 209.75,-570 209.75,-590"/>
<text text-anchor="middle" x="192" y="-576.5" font-family="Helvetica,sans-Serif" font-size="10.00">MIDI</text>
</a>
</g>
</g>
<!-- Node1&#45;&gt;Node22 -->
<g id="edge21" class="edge">
<title>Node1&#45;&gt;Node22</title>
<path fill="none" stroke="black" d="M85.7,-651.27C103.86,-635.4 129.08,-614.63 153.25,-599 159.78,-594.78 167.38,-590.79 174.03,-587.57"/>
<polygon fill="black" stroke="black" points="83.69,-648.38 78.52,-657.62 88.33,-653.62 83.69,-648.38"/>
</g>
<!-- Node34 -->
<g id="Node000034" class="node">
<title>Node34</title>
<g id="a_Node000034"><a xlink:href="group___o_p_a.html" target="_top" xlink:title="OPA driver modules.">
<polygon fill="white" stroke="#666666" points="210.5,-552 173.5,-552 173.5,-532 210.5,-532 210.5,-552"/>
<text text-anchor="middle" x="192" y="-538.5" font-family="Helvetica,sans-Serif" font-size="10.00">OPA</text>
</a>
</g>
</g>
<!-- Node1&#45;&gt;Node34 -->
<g id="edge33" class="edge">
<title>Node1&#45;&gt;Node34</title>
<path fill="none" stroke="black" d="M76.04,-649.3C93.01,-624.29 121.44,-586.45 153.25,-561 159.21,-556.23 166.56,-552.2 173.18,-549.1"/>
<polygon fill="black" stroke="black" points="73.16,-647.31 70.54,-657.58 78.99,-651.18 73.16,-647.31"/>
</g>
<!-- Node23 -->
<g id="Node000023" class="node">
<title>Node23</title>
<g id="a_Node000023"><a xlink:href="group___p_d_m_a.html" target="_top" xlink:title="PDMA driver modules.">
<polygon fill="white" stroke="#666666" points="214.25,-514 169.75,-514 169.75,-494 214.25,-494 214.25,-514"/>
<text text-anchor="middle" x="192" y="-500.5" font-family="Helvetica,sans-Serif" font-size="10.00">PDMA</text>
</a>
</g>
</g>
<!-- Node1&#45;&gt;Node23 -->
<g id="edge22" class="edge">
<title>Node1&#45;&gt;Node23</title>
<path fill="none" stroke="black" d="M70.44,-648.57C85.04,-615.6 113.86,-559.15 153.25,-523 157.9,-518.73 163.68,-515.19 169.32,-512.36"/>
<polygon fill="black" stroke="black" points="67.37,-646.84 66.63,-657.4 73.8,-649.61 67.37,-646.84"/>
</g>
<!-- Node35 -->
<g id="Node000035" class="node">
<title>Node35</title>
<g id="a_Node000035"><a xlink:href="group___p_g_a.html" target="_top" xlink:title="PGA driver modules.">
<polygon fill="white" stroke="#666666" points="210.5,-476 173.5,-476 173.5,-456 210.5,-456 210.5,-476"/>
<text text-anchor="middle" x="192" y="-462.5" font-family="Helvetica,sans-Serif" font-size="10.00">PGA</text>
</a>
</g>
</g>
<!-- Node1&#45;&gt;Node35 -->
<g id="edge34" class="edge">
<title>Node1&#45;&gt;Node35</title>
<path fill="none" stroke="black" d="M67.01,-647.62C79.07,-607.45 106.45,-532.19 153.25,-485 158.83,-479.37 166.42,-475.11 173.33,-472.07"/>
<polygon fill="black" stroke="black" points="63.65,-646.63 64.24,-657.21 70.38,-648.58 63.65,-646.63"/>
</g>
<!-- Node37 -->
<g id="Node000037" class="node">
<title>Node37</title>
<g id="a_Node000037"><a xlink:href="group___p_i_d.html" target="_top" xlink:title="PID driver modules.">
<polygon fill="white" stroke="#666666" points="207.88,-438 176.12,-438 176.12,-418 207.88,-418 207.88,-438"/>
<text text-anchor="middle" x="192" y="-424.5" font-family="Helvetica,sans-Serif" font-size="10.00">PID</text>
</a>
</g>
</g>
<!-- Node1&#45;&gt;Node37 -->
<g id="edge36" class="edge">
<title>Node1&#45;&gt;Node37</title>
<path fill="none" stroke="black" d="M64.47,-647.23C73.91,-600.57 98.8,-505.79 153.25,-447 159.33,-440.43 168.19,-435.81 175.8,-432.77"/>
<polygon fill="black" stroke="black" points="61.04,-646.56 62.59,-657.04 67.91,-647.88 61.04,-646.56"/>
</g>
<!-- Node24 -->
<g id="Node000024" class="node">
<title>Node24</title>
<g id="a_Node000024"><a xlink:href="group___p_w_r_c_u.html" target="_top" xlink:title="PWRCU driver modules.">
<polygon fill="white" stroke="#666666" points="218.38,-400 165.62,-400 165.62,-380 218.38,-380 218.38,-400"/>
<text text-anchor="middle" x="192" y="-386.5" font-family="Helvetica,sans-Serif" font-size="10.00">PWRCU</text>
</a>
</g>
</g>
<!-- Node1&#45;&gt;Node24 -->
<g id="edge23" class="edge">
<title>Node1&#45;&gt;Node24</title>
<path fill="none" stroke="black" d="M62.55,-647.13C69.42,-594.58 90.98,-479.78 153.25,-409 156.55,-405.25 160.75,-402.16 165.16,-399.63"/>
<polygon fill="black" stroke="black" points="59.08,-646.66 61.35,-657.01 66.03,-647.51 59.08,-646.66"/>
</g>
<!-- Node25 -->
<g id="Node000025" class="node">
<title>Node25</title>
<g id="a_Node000025"><a xlink:href="group___r_s_t_c_u.html" target="_top" xlink:title="RSTCU driver modules.">
<polygon fill="white" stroke="#666666" points="216.12,-362 167.88,-362 167.88,-342 216.12,-342 216.12,-362"/>
<text text-anchor="middle" x="192" y="-348.5" font-family="Helvetica,sans-Serif" font-size="10.00">RSTCU</text>
</a>
</g>
</g>
<!-- Node1&#45;&gt;Node25 -->
<g id="edge24" class="edge">
<title>Node1&#45;&gt;Node25</title>
<path fill="none" stroke="black" d="M61.06,-647.28C65.43,-589.38 83.01,-454.11 153.25,-371 157.04,-366.52 162.15,-362.98 167.38,-360.24"/>
<polygon fill="black" stroke="black" points="57.57,-647 60.4,-657.21 64.55,-647.47 57.57,-647"/>
</g>
<!-- Node26 -->
<g id="Node000026" class="node">
<title>Node26</title>
<g id="a_Node000026"><a xlink:href="group___r_t_c.html" target="_top" xlink:title="RTC driver modules.">
<polygon fill="white" stroke="#666666" points="209.38,-324 174.62,-324 174.62,-304 209.38,-304 209.38,-324"/>
<text text-anchor="middle" x="192" y="-310.5" font-family="Helvetica,sans-Serif" font-size="10.00">RTC</text>
</a>
</g>
</g>
<!-- Node1&#45;&gt;Node26 -->
<g id="edge25" class="edge">
<title>Node1&#45;&gt;Node26</title>
<path fill="none" stroke="black" d="M59.89,-647.33C61.91,-584.4 75.03,-428.58 153.25,-333 158.64,-326.41 166.9,-321.89 174.31,-318.92"/>
<polygon fill="black" stroke="black" points="56.4,-647.04 59.66,-657.12 63.4,-647.21 56.4,-647.04"/>
</g>
<!-- Node27 -->
<g id="Node000027" class="node">
<title>Node27</title>
<g id="a_Node000027"><a xlink:href="group___s_c_i.html" target="_top" xlink:title="SCI driver modules.">
<polygon fill="white" stroke="#666666" points="207.88,-286 176.12,-286 176.12,-266 207.88,-266 207.88,-286"/>
<text text-anchor="middle" x="192" y="-272.5" font-family="Helvetica,sans-Serif" font-size="10.00">SCI</text>
</a>
</g>
</g>
<!-- Node1&#45;&gt;Node27 -->
<g id="edge26" class="edge">
<title>Node1&#45;&gt;Node27</title>
<path fill="none" stroke="black" d="M58.95,-647.56C58.71,-580.01 66.93,-403.28 153.25,-295 158.92,-287.89 167.96,-283.21 175.76,-280.27"/>
<polygon fill="black" stroke="black" points="55.45,-647.39 59.06,-657.35 62.45,-647.31 55.45,-647.39"/>
</g>
<!-- Node28 -->
<g id="Node000028" class="node">
<title>Node28</title>
<g id="a_Node000028"><a xlink:href="group___s_l_e_d.html" target="_top" xlink:title="SLED driver modules.">
<polygon fill="white" stroke="#666666" points="212.75,-248 171.25,-248 171.25,-228 212.75,-228 212.75,-248"/>
<text text-anchor="middle" x="192" y="-234.5" font-family="Helvetica,sans-Serif" font-size="10.00">SLED</text>
</a>
</g>
</g>
<!-- Node1&#45;&gt;Node28 -->
<g id="edge27" class="edge">
<title>Node1&#45;&gt;Node28</title>
<path fill="none" stroke="black" d="M62.7,-647.54C72.42,-564.69 104.8,-319.11 153.25,-257 157.76,-251.21 164.51,-247.05 171.06,-244.12"/>
<polygon fill="black" stroke="black" points="59.24,-646.91 61.57,-657.25 66.2,-647.71 59.24,-646.91"/>
</g>
<!-- Node29 -->
<g id="Node000029" class="node">
<title>Node29</title>
<g id="a_Node000029"><a xlink:href="group___s_p_i.html" target="_top" xlink:title="SPI driver modules.">
<polygon fill="white" stroke="#666666" points="207.88,-210 176.12,-210 176.12,-190 207.88,-190 207.88,-210"/>
<text text-anchor="middle" x="192" y="-196.5" font-family="Helvetica,sans-Serif" font-size="10.00">SPI</text>
</a>
</g>
</g>
<!-- Node1&#45;&gt;Node29 -->
<g id="edge28" class="edge">
<title>Node1&#45;&gt;Node29</title>
<path fill="none" stroke="black" d="M62.15,-647.4C70.65,-559.46 100.74,-287.57 153.25,-219 158.78,-211.78 167.81,-207.09 175.65,-204.18"/>
<polygon fill="black" stroke="black" points="58.67,-646.98 61.21,-657.27 65.64,-647.64 58.67,-646.98"/>
</g>
<!-- Node30 -->
<g id="Node000030" class="node">
<title>Node30</title>
<g id="a_Node000030"><a xlink:href="group___t_k_e_y.html" target="_top" xlink:title="TKEY driver modules.">
<polygon fill="white" stroke="#666666" points="212.75,-172 171.25,-172 171.25,-152 212.75,-152 212.75,-172"/>
<text text-anchor="middle" x="192" y="-158.5" font-family="Helvetica,sans-Serif" font-size="10.00">TKEY</text>
</a>
</g>
</g>
<!-- Node1&#45;&gt;Node30 -->
<g id="edge29" class="edge">
<title>Node1&#45;&gt;Node30</title>
<path fill="none" stroke="black" d="M61.68,-647.27C69.03,-554.41 96.68,-256.06 153.25,-181 157.67,-175.14 164.39,-170.96 170.95,-168.04"/>
<polygon fill="black" stroke="black" points="58.19,-646.98 60.91,-657.22 65.17,-647.52 58.19,-646.98"/>
</g>
<!-- Node31 -->
<g id="Node000031" class="node">
<title>Node31</title>
<g id="a_Node000031"><a xlink:href="group___t_m.html" target="_top" xlink:title="TM driver modules.">
<polygon fill="white" stroke="#666666" points="206.75,-134 177.25,-134 177.25,-114 206.75,-114 206.75,-134"/>
<text text-anchor="middle" x="192" y="-120.5" font-family="Helvetica,sans-Serif" font-size="10.00">TM</text>
</a>
</g>
</g>
<!-- Node1&#45;&gt;Node31 -->
<g id="edge30" class="edge">
<title>Node1&#45;&gt;Node31</title>
<path fill="none" stroke="black" d="M61.26,-647.37C67.49,-550.04 92.55,-224.64 153.25,-143 159.03,-135.23 168.88,-130.42 177.08,-127.58"/>
<polygon fill="black" stroke="black" points="57.78,-646.86 60.65,-657.05 64.77,-647.29 57.78,-646.86"/>
</g>
<!-- Node32 -->
<g id="Node000032" class="node">
<title>Node32</title>
<g id="a_Node000032"><a xlink:href="group___u_s_a_r_t.html" target="_top" xlink:title="USART driver modules.">
<polygon fill="white" stroke="#666666" points="216.12,-96 167.88,-96 167.88,-76 216.12,-76 216.12,-96"/>
<text text-anchor="middle" x="192" y="-82.5" font-family="Helvetica,sans-Serif" font-size="10.00">USART</text>
</a>
</g>
</g>
<!-- Node1&#45;&gt;Node32 -->
<g id="edge31" class="edge">
<title>Node1&#45;&gt;Node32</title>
<path fill="none" stroke="black" d="M60.91,-647.09C66.11,-544.98 88.48,-193.15 153.25,-105 156.9,-100.03 162.22,-96.28 167.72,-93.48"/>
<polygon fill="black" stroke="black" points="57.42,-646.85 60.42,-657.01 64.41,-647.19 57.42,-646.85"/>
</g>
<!-- Node2 -->
<g id="Node000002" class="node">
<title>Node2</title>
<g id="a_Node000002"><a xlink:href="group___u_s_b_device.html" target="_top" xlink:title="USB Device driver modules.">
<polygon fill="white" stroke="#666666" points="225.88,-58 158.12,-58 158.12,-38 225.88,-38 225.88,-58"/>
<text text-anchor="middle" x="192" y="-44.5" font-family="Helvetica,sans-Serif" font-size="10.00">USB Device</text>
</a>
</g>
</g>
<!-- Node1&#45;&gt;Node2 -->
<g id="edge1" class="edge">
<title>Node1&#45;&gt;Node2</title>
<path fill="none" stroke="black" d="M60.59,-647.31C64.75,-541.22 84.31,-161.83 153.25,-67 155.75,-63.56 159.06,-60.7 162.68,-58.34"/>
<polygon fill="black" stroke="black" points="57.1,-646.95 60.22,-657.08 64.09,-647.22 57.1,-646.95"/>
</g>
<!-- Node33 -->
<g id="Node000033" class="node">
<title>Node33</title>
<g id="a_Node000033"><a xlink:href="group___w_d_t.html" target="_top" xlink:title="WDT driver modules.">
<polygon fill="white" stroke="#666666" points="210.88,-20 173.12,-20 173.12,0 210.88,0 210.88,-20"/>
<text text-anchor="middle" x="192" y="-6.5" font-family="Helvetica,sans-Serif" font-size="10.00">WDT</text>
</a>
</g>
</g>
<!-- Node1&#45;&gt;Node33 -->
<g id="edge32" class="edge">
<title>Node1&#45;&gt;Node33</title>
<path fill="none" stroke="black" d="M60.3,-647.39C63.5,-537.27 80.15,-130.49 153.25,-29 157.97,-22.45 165.6,-18.02 172.77,-15.1"/>
<polygon fill="black" stroke="black" points="56.81,-647.16 60.03,-657.25 63.81,-647.35 56.81,-647.16"/>
</g>
</g>
</svg>
