<?xml version="1.0" encoding="UTF-8" standalone="no"?>
<!DOCTYPE svg PUBLIC "-//W3C//DTD SVG 1.1//EN"
 "http://www.w3.org/Graphics/SVG/1.1/DTD/svg11.dtd">
<!-- Generated by graphviz version 9.0.0 (20230911.1827)
 -->
<!-- Title: CRC Pages: 1 -->
<svg width="313pt" height="104pt"
 viewBox="0.00 0.00 313.25 104.00" xmlns="http://www.w3.org/2000/svg" xmlns:xlink="http://www.w3.org/1999/xlink">
<g id="graph0" class="graph" transform="scale(1 1) rotate(0) translate(4 100)">
<title>CRC</title>
<!-- Node3 -->
<g id="Node000003" class="node">
<title>Node3</title>
<g id="a_Node000003"><a xlink:href="group___c_r_c__16.html" target="_top" xlink:title=" ">
<polygon fill="white" stroke="#666666" points="297.38,-96 247.62,-96 247.62,-76 297.38,-76 297.38,-96"/>
<text text-anchor="middle" x="272.5" y="-82.5" font-family="Helvetica,sans-Serif" font-size="10.00">CRC&#45;16</text>
</a>
</g>
</g>
<!-- Node4 -->
<g id="Node000004" class="node">
<title>Node4</title>
<g id="a_Node000004"><a xlink:href="group___c_r_c__32.html" target="_top" xlink:title=" ">
<polygon fill="white" stroke="#666666" points="297.38,-58 247.62,-58 247.62,-38 297.38,-38 297.38,-58"/>
<text text-anchor="middle" x="272.5" y="-44.5" font-family="Helvetica,sans-Serif" font-size="10.00">CRC&#45;32</text>
</a>
</g>
</g>
<!-- Node5 -->
<g id="Node000005" class="node">
<title>Node5</title>
<g id="a_Node000005"><a xlink:href="group___c_r_c___c_c_i_t_t.html" target="_top" xlink:title=" ">
<polygon fill="white" stroke="#666666" points="305.25,-20 239.75,-20 239.75,0 305.25,0 305.25,-20"/>
<text text-anchor="middle" x="272.5" y="-6.5" font-family="Helvetica,sans-Serif" font-size="10.00">CRC&#45;CCITT</text>
</a>
</g>
</g>
<!-- Node1 -->
<g id="Node000001" class="node">
<title>Node1</title>
<g id="a_Node000001"><a xlink:title=" ">
<polygon fill="#999999" stroke="#666666" points="203.75,-58 167.5,-58 167.5,-38 203.75,-38 203.75,-58"/>
<text text-anchor="middle" x="185.62" y="-44.5" font-family="Helvetica,sans-Serif" font-size="10.00">CRC</text>
</a>
</g>
</g>
<!-- Node1&#45;&gt;Node3 -->
<g id="edge2" class="edge">
<title>Node1&#45;&gt;Node3</title>
<path fill="none" stroke="black" d="M214.49,-60.48C225.38,-65.35 237.73,-70.88 248.14,-75.54"/>
<polygon fill="black" stroke="black" points="216.15,-57.38 205.59,-56.49 213.29,-63.77 216.15,-57.38"/>
</g>
<!-- Node1&#45;&gt;Node4 -->
<g id="edge3" class="edge">
<title>Node1&#45;&gt;Node4</title>
<path fill="none" stroke="black" d="M215.57,-48C225.86,-48 237.32,-48 247.18,-48"/>
<polygon fill="black" stroke="black" points="215.72,-44.5 205.72,-48 215.72,-51.5 215.72,-44.5"/>
</g>
<!-- Node1&#45;&gt;Node5 -->
<g id="edge4" class="edge">
<title>Node1&#45;&gt;Node5</title>
<path fill="none" stroke="black" d="M214.49,-35.52C225.38,-30.65 237.73,-25.12 248.14,-20.46"/>
<polygon fill="black" stroke="black" points="213.29,-32.23 205.59,-39.51 216.15,-38.62 213.29,-32.23"/>
</g>
<!-- Node2 -->
<g id="Node000002" class="node">
<title>Node2</title>
<g id="a_Node000002"><a xlink:href="group___h_t32___series___peripheral___examples.html" target="_top" xlink:title=" ">
<polygon fill="white" stroke="#666666" points="131.5,-58 0,-58 0,-38 131.5,-38 131.5,-58"/>
<text text-anchor="middle" x="65.75" y="-44.5" font-family="Helvetica,sans-Serif" font-size="10.00">HT32 Peripheral Examples</text>
</a>
</g>
</g>
<!-- Node2&#45;&gt;Node1 -->
<g id="edge1" class="edge">
<title>Node2&#45;&gt;Node1</title>
<path fill="none" stroke="black" d="M143.29,-48C152.1,-48 160.32,-48 167.09,-48"/>
<polygon fill="black" stroke="black" points="143.41,-44.5 133.41,-48 143.41,-51.5 143.41,-44.5"/>
</g>
</g>
</svg>
