<?xml version="1.0" encoding="UTF-8" standalone="no"?>
<!DOCTYPE svg PUBLIC "-//W3C//DTD SVG 1.1//EN"
 "http://www.w3.org/Graphics/SVG/1.1/DTD/svg11.dtd">
<!-- Generated by graphviz version 9.0.0 (20230911.1827)
 -->
<!-- Title: Debug Control Functions Pages: 1 -->
<svg width="386pt" height="40pt"
 viewBox="0.00 0.00 386.00 40.00" xmlns="http://www.w3.org/2000/svg" xmlns:xlink="http://www.w3.org/1999/xlink">
<g id="graph0" class="graph" transform="scale(1 1) rotate(0) translate(4 36)">
<title>Debug Control Functions</title>
<!-- Node1 -->
<g id="Node000001" class="node">
<title>Node1</title>
<g id="a_Node000001"><a xlink:title="Functions that access the Debug Control Block.">
<polygon fill="#999999" stroke="#666666" points="241.25,-26 118,-26 118,-6 241.25,-6 241.25,-26"/>
<text text-anchor="middle" x="179.62" y="-12.5" font-family="Helvetica,sans-Serif" font-size="10.00">Debug Control Functions</text>
</a>
</g>
</g>
<!-- Node3 -->
<g id="Node000003" class="node">
<title>Node3</title>
<g id="a_Node000003"><a xlink:href="group___c_m_s_i_s___core___d_i_b_functions.html" target="_top" xlink:title="Functions that access the Debug Identification Block.">
<polygon fill="white" stroke="#666666" points="378,-32 277.25,-32 277.25,0 378,0 378,-32"/>
<text text-anchor="start" x="285.25" y="-18.5" font-family="Helvetica,sans-Serif" font-size="10.00">Debug Identification</text>
<text text-anchor="middle" x="327.62" y="-6.5" font-family="Helvetica,sans-Serif" font-size="10.00"> Functions</text>
</a>
</g>
</g>
<!-- Node1&#45;&gt;Node3 -->
<g id="edge2" class="edge">
<title>Node1&#45;&gt;Node3</title>
<path fill="none" stroke="black" d="M253.05,-16C261.11,-16 269.18,-16 276.87,-16"/>
<polygon fill="black" stroke="black" points="253.21,-12.5 243.21,-16 253.21,-19.5 253.21,-12.5"/>
</g>
<!-- Node2 -->
<g id="Node000002" class="node">
<title>Node2</title>
<g id="a_Node000002"><a xlink:href="group___c_m_s_i_s___core___s_a_u_functions.html" target="_top" xlink:title="Functions that configure the SAU.">
<polygon fill="white" stroke="#666666" points="82,-26 0,-26 0,-6 82,-6 82,-26"/>
<text text-anchor="middle" x="41" y="-12.5" font-family="Helvetica,sans-Serif" font-size="10.00">SAU Functions</text>
</a>
</g>
</g>
<!-- Node2&#45;&gt;Node1 -->
<g id="edge1" class="edge">
<title>Node2&#45;&gt;Node1</title>
<path fill="none" stroke="black" d="M93.51,-16C101.39,-16 109.58,-16 117.64,-16"/>
<polygon fill="black" stroke="black" points="93.77,-12.5 83.77,-16 93.77,-19.5 93.77,-12.5"/>
</g>
</g>
</svg>
