<?xml version="1.0" encoding="UTF-8" standalone="no"?>
<!DOCTYPE svg PUBLIC "-//W3C//DTD SVG 1.1//EN"
 "http://www.w3.org/Graphics/SVG/1.1/DTD/svg11.dtd">
<!-- Generated by graphviz version 9.0.0 (20230911.1827)
 -->
<!-- Title: HT32 Peripheral Driver Pages: 1 -->
<svg width="273pt" height="142pt"
 viewBox="0.00 0.00 273.25 142.00" xmlns="http://www.w3.org/2000/svg" xmlns:xlink="http://www.w3.org/1999/xlink">
<g id="graph0" class="graph" transform="scale(1 1) rotate(0) translate(4 138)">
<title>HT32 Peripheral Driver</title>
<!-- Node1 -->
<g id="Node000001" class="node">
<title>Node1</title>
<g id="a_Node000001"><a xlink:title=" ">
<polygon fill="#999999" stroke="#666666" points="112,-77 0,-77 0,-57 112,-57 112,-77"/>
<text text-anchor="middle" x="56" y="-63.5" font-family="Helvetica,sans-Serif" font-size="10.00">HT32 Peripheral Driver</text>
</a>
</g>
</g>
<!-- Node2 -->
<g id="Node000002" class="node">
<title>Node2</title>
<g id="a_Node000002"><a xlink:href="group___m_i_s_c.html" target="_top" xlink:title="MISC driver modules.">
<polygon fill="white" stroke="#666666" points="226.62,-134 186.62,-134 186.62,-114 226.62,-114 226.62,-134"/>
<text text-anchor="middle" x="206.62" y="-120.5" font-family="Helvetica,sans-Serif" font-size="10.00">MISC</text>
</a>
</g>
</g>
<!-- Node1&#45;&gt;Node2 -->
<g id="edge1" class="edge">
<title>Node1&#45;&gt;Node2</title>
<path fill="none" stroke="black" d="M90.91,-81.89C107.92,-89.18 128.92,-97.88 148,-105 160.63,-109.71 175.04,-114.46 186.29,-118.03"/>
<polygon fill="black" stroke="black" points="92.33,-78.69 81.76,-77.94 89.56,-85.12 92.33,-78.69"/>
</g>
<!-- Node3 -->
<g id="Node000003" class="node">
<title>Node3</title>
<g id="a_Node000003"><a xlink:href="group___p_r_i_n_t_f.html" target="_top" xlink:title="printf related functions">
<polygon fill="white" stroke="#666666" points="265.25,-96 148,-96 148,-76 265.25,-76 265.25,-96"/>
<text text-anchor="middle" x="206.62" y="-82.5" font-family="Helvetica,sans-Serif" font-size="10.00">printf re&#45;implementation</text>
</a>
</g>
</g>
<!-- Node1&#45;&gt;Node3 -->
<g id="edge2" class="edge">
<title>Node1&#45;&gt;Node3</title>
<path fill="none" stroke="black" d="M123.61,-75.51C131.66,-76.54 139.84,-77.59 147.75,-78.6"/>
<polygon fill="black" stroke="black" points="124.21,-72.06 113.84,-74.27 123.32,-79.01 124.21,-72.06"/>
</g>
<!-- Node5 -->
<g id="Node000005" class="node">
<title>Node5</title>
<g id="a_Node000005"><a xlink:href="group___s_e_r_i_a_l.html" target="_top" xlink:title="Serial related functions.">
<polygon fill="white" stroke="#666666" points="231.88,-58 181.38,-58 181.38,-38 231.88,-38 231.88,-58"/>
<text text-anchor="middle" x="206.62" y="-44.5" font-family="Helvetica,sans-Serif" font-size="10.00">SERIAL</text>
</a>
</g>
</g>
<!-- Node1&#45;&gt;Node5 -->
<g id="edge4" class="edge">
<title>Node1&#45;&gt;Node5</title>
<path fill="none" stroke="black" d="M123.57,-58.49C143.99,-55.88 165.2,-53.17 180.94,-51.16"/>
<polygon fill="black" stroke="black" points="123.32,-54.99 113.84,-59.73 124.21,-61.94 123.32,-54.99"/>
</g>
<!-- Node4 -->
<g id="Node000004" class="node">
<title>Node4</title>
<g id="a_Node000004"><a xlink:href="group___s_y_s_c_a_l_l_s.html" target="_top" xlink:title="System call functions for GNU toolchain.">
<polygon fill="white" stroke="#666666" points="261.5,-20 151.75,-20 151.75,0 261.5,0 261.5,-20"/>
<text text-anchor="middle" x="206.62" y="-6.5" font-family="Helvetica,sans-Serif" font-size="10.00">System call functions</text>
</a>
</g>
</g>
<!-- Node1&#45;&gt;Node4 -->
<g id="edge3" class="edge">
<title>Node1&#45;&gt;Node4</title>
<path fill="none" stroke="black" d="M90.91,-52.11C107.92,-44.82 128.92,-36.12 148,-29 155.9,-26.05 164.48,-23.09 172.56,-20.42"/>
<polygon fill="black" stroke="black" points="89.56,-48.88 81.76,-56.06 92.33,-55.31 89.56,-48.88"/>
</g>
</g>
</svg>
