<?xml version="1.0" encoding="UTF-8" standalone="no"?>
<!DOCTYPE svg PUBLIC "-//W3C//DTD SVG 1.1//EN"
 "http://www.w3.org/Graphics/SVG/1.1/DTD/svg11.dtd">
<!-- Generated by graphviz version 9.0.0 (20230911.1827)
 -->
<!-- Title: Utilities Pages: 1 -->
<svg width="162pt" height="66pt"
 viewBox="0.00 0.00 161.50 66.00" xmlns="http://www.w3.org/2000/svg" xmlns:xlink="http://www.w3.org/1999/xlink">
<g id="graph0" class="graph" transform="scale(1 1) rotate(0) translate(4 62)">
<title>Utilities</title>
<!-- Node2 -->
<g id="Node000002" class="node">
<title>Node2</title>
<g id="a_Node000002"><a xlink:href="group___common.html" target="_top" xlink:title=" ">
<polygon fill="white" stroke="#666666" points="146.38,-58 91.38,-58 91.38,-38 146.38,-38 146.38,-58"/>
<text text-anchor="middle" x="118.88" y="-44.5" font-family="Helvetica,sans-Serif" font-size="10.00">Common</text>
</a>
</g>
</g>
<!-- Node3 -->
<g id="Node000003" class="node">
<title>Node3</title>
<g id="a_Node000003"><a xlink:href="group___h_t32___board.html" target="_top" xlink:title=" ">
<polygon fill="white" stroke="#666666" points="153.5,-20 84.25,-20 84.25,0 153.5,0 153.5,-20"/>
<text text-anchor="middle" x="118.88" y="-6.5" font-family="Helvetica,sans-Serif" font-size="10.00">HT32_Board</text>
</a>
</g>
</g>
<!-- Node1 -->
<g id="Node000001" class="node">
<title>Node1</title>
<g id="a_Node000001"><a xlink:title=" ">
<polygon fill="#999999" stroke="#666666" points="48.25,-39 0,-39 0,-19 48.25,-19 48.25,-39"/>
<text text-anchor="middle" x="24.12" y="-25.5" font-family="Helvetica,sans-Serif" font-size="10.00">Utilities</text>
</a>
</g>
</g>
<!-- Node1&#45;&gt;Node2 -->
<g id="edge1" class="edge">
<title>Node1&#45;&gt;Node2</title>
<path fill="none" stroke="black" d="M59.78,-36.1C70.17,-38.23 81.4,-40.53 91.2,-42.53"/>
<polygon fill="black" stroke="black" points="60.51,-32.68 50.01,-34.1 59.11,-39.53 60.51,-32.68"/>
</g>
<!-- Node1&#45;&gt;Node3 -->
<g id="edge2" class="edge">
<title>Node1&#45;&gt;Node3</title>
<path fill="none" stroke="black" d="M59.69,-21.92C67.62,-20.29 76.05,-18.57 83.96,-16.95"/>
<polygon fill="black" stroke="black" points="59.11,-18.47 50.01,-23.9 60.51,-25.32 59.11,-18.47"/>
</g>
</g>
</svg>
