<?xml version="1.0" encoding="UTF-8" standalone="no"?>
<!DOCTYPE svg PUBLIC "-//W3C//DTD SVG 1.1//EN"
 "http://www.w3.org/Graphics/SVG/1.1/DTD/svg11.dtd">
<!-- Generated by graphviz version 9.0.0 (20230911.1827)
 -->
<!-- Title: SPI_FLASH_AUTO Pages: 1 -->
<svg width="376pt" height="428pt"
 viewBox="0.00 0.00 375.50 428.00" xmlns="http://www.w3.org/2000/svg" xmlns:xlink="http://www.w3.org/1999/xlink">
<g id="graph0" class="graph" transform="scale(1 1) rotate(0) translate(4 424)">
<title>SPI_FLASH_AUTO</title>
<!-- Node2 -->
<g id="Node000002" class="node">
<title>Node2</title>
<g id="a_Node000002"><a xlink:href="group___common.html" target="_top" xlink:title=" ">
<polygon fill="white" stroke="#666666" points="55,-214 0,-214 0,-194 55,-194 55,-214"/>
<text text-anchor="middle" x="27.5" y="-200.5" font-family="Helvetica,sans-Serif" font-size="10.00">Common</text>
</a>
</g>
</g>
<!-- Node1 -->
<g id="Node000001" class="node">
<title>Node1</title>
<g id="a_Node000001"><a xlink:title="The SPI Flash Driver with auto detection function.">
<polygon fill="#999999" stroke="#666666" points="191,-214 91,-214 91,-194 191,-194 191,-214"/>
<text text-anchor="middle" x="141" y="-200.5" font-family="Helvetica,sans-Serif" font-size="10.00">SPI_FLASH_AUTO</text>
</a>
</g>
</g>
<!-- Node2&#45;&gt;Node1 -->
<g id="edge1" class="edge">
<title>Node2&#45;&gt;Node1</title>
<path fill="none" stroke="black" d="M66.97,-204C74.59,-204 82.68,-204 90.6,-204"/>
<polygon fill="black" stroke="black" points="67,-200.5 57,-204 67,-207.5 67,-200.5"/>
</g>
<!-- Node7 -->
<g id="Node000007" class="node">
<title>Node7</title>
<g id="a_Node000007"><a xlink:href="group___s_p_i___f_l_a_s_h___a_u_t_o___exported___constants.html" target="_top" xlink:title=" ">
<polygon fill="white" stroke="#666666" points="367.5,-420 227,-420 227,-388 367.5,-388 367.5,-420"/>
<text text-anchor="start" x="235" y="-406.5" font-family="Helvetica,sans-Serif" font-size="10.00">SPI_FLASH_AUTO exported</text>
<text text-anchor="middle" x="297.25" y="-394.5" font-family="Helvetica,sans-Serif" font-size="10.00"> constants</text>
</a>
</g>
</g>
<!-- Node1&#45;&gt;Node7 -->
<g id="edge6" class="edge">
<title>Node1&#45;&gt;Node7</title>
<path fill="none" stroke="black" d="M146.71,-225.1C155.91,-261.53 179.62,-336.38 227,-379 230.61,-382.25 234.68,-385.08 238.98,-387.56"/>
<polygon fill="black" stroke="black" points="150.22,-224.71 144.49,-215.8 143.41,-226.34 150.22,-224.71"/>
</g>
<!-- Node4 -->
<g id="Node000004" class="node">
<title>Node4</title>
<g id="a_Node000004"><a xlink:href="group___s_p_i___f_l_a_s_h___a_u_t_o___exported___functions.html" target="_top" xlink:title=" ">
<polygon fill="white" stroke="#666666" points="367.5,-370 227,-370 227,-338 367.5,-338 367.5,-370"/>
<text text-anchor="start" x="235" y="-356.5" font-family="Helvetica,sans-Serif" font-size="10.00">SPI_FLASH_AUTO exported</text>
<text text-anchor="middle" x="297.25" y="-344.5" font-family="Helvetica,sans-Serif" font-size="10.00"> functions</text>
</a>
</g>
</g>
<!-- Node1&#45;&gt;Node4 -->
<g id="edge3" class="edge">
<title>Node1&#45;&gt;Node4</title>
<path fill="none" stroke="black" d="M151.05,-224.75C164.06,-252.29 190.54,-300.7 227,-329 231.14,-332.21 235.73,-335.04 240.52,-337.52"/>
<polygon fill="black" stroke="black" points="154.27,-223.38 146.94,-215.73 147.9,-226.28 154.27,-223.38"/>
</g>
<!-- Node8 -->
<g id="Node000008" class="node">
<title>Node8</title>
<g id="a_Node000008"><a xlink:href="group___s_p_i___f_l_a_s_h___a_u_t_o___exported___macros.html" target="_top" xlink:title=" ">
<polygon fill="white" stroke="#666666" points="367.5,-320 227,-320 227,-288 367.5,-288 367.5,-320"/>
<text text-anchor="start" x="235" y="-306.5" font-family="Helvetica,sans-Serif" font-size="10.00">SPI_FLASH_AUTO exported</text>
<text text-anchor="middle" x="297.25" y="-294.5" font-family="Helvetica,sans-Serif" font-size="10.00"> macros</text>
</a>
</g>
</g>
<!-- Node1&#45;&gt;Node8 -->
<g id="edge7" class="edge">
<title>Node1&#45;&gt;Node8</title>
<path fill="none" stroke="black" d="M158.74,-222.28C174.85,-238.98 200.61,-263.37 227,-279 232.39,-282.19 238.25,-285.08 244.21,-287.66"/>
<polygon fill="black" stroke="black" points="161.68,-220.31 152.27,-215.44 156.6,-225.11 161.68,-220.31"/>
</g>
<!-- Node6 -->
<g id="Node000006" class="node">
<title>Node6</title>
<g id="a_Node000006"><a xlink:href="group___s_p_i___f_l_a_s_h___a_u_t_o___exported___types.html" target="_top" xlink:title=" ">
<polygon fill="white" stroke="#666666" points="367.5,-270 227,-270 227,-238 367.5,-238 367.5,-270"/>
<text text-anchor="start" x="235" y="-256.5" font-family="Helvetica,sans-Serif" font-size="10.00">SPI_FLASH_AUTO exported</text>
<text text-anchor="middle" x="297.25" y="-244.5" font-family="Helvetica,sans-Serif" font-size="10.00"> types</text>
</a>
</g>
</g>
<!-- Node1&#45;&gt;Node6 -->
<g id="edge5" class="edge">
<title>Node1&#45;&gt;Node6</title>
<path fill="none" stroke="black" d="M185.21,-218.01C203.92,-224.07 225.95,-231.21 245.44,-237.53"/>
<polygon fill="black" stroke="black" points="186.37,-214.7 175.78,-214.95 184.21,-221.36 186.37,-214.7"/>
</g>
<!-- Node11 -->
<g id="Node000011" class="node">
<title>Node11</title>
<g id="a_Node000011"><a xlink:href="group___s_p_i___f_l_a_s_h___a_u_t_o___exported___variables.html" target="_top" xlink:title=" ">
<polygon fill="white" stroke="#666666" points="367.5,-220 227,-220 227,-188 367.5,-188 367.5,-220"/>
<text text-anchor="start" x="235" y="-206.5" font-family="Helvetica,sans-Serif" font-size="10.00">SPI_FLASH_AUTO exported</text>
<text text-anchor="middle" x="297.25" y="-194.5" font-family="Helvetica,sans-Serif" font-size="10.00"> variables</text>
</a>
</g>
</g>
<!-- Node1&#45;&gt;Node11 -->
<g id="edge10" class="edge">
<title>Node1&#45;&gt;Node11</title>
<path fill="none" stroke="black" d="M202.6,-204C210.5,-204 218.65,-204 226.68,-204"/>
<polygon fill="black" stroke="black" points="202.74,-200.5 192.74,-204 202.74,-207.5 202.74,-200.5"/>
</g>
<!-- Node10 -->
<g id="Node000010" class="node">
<title>Node10</title>
<g id="a_Node000010"><a xlink:href="group___s_p_i___f_l_a_s_h___a_u_t_o___global___variable.html" target="_top" xlink:title=" ">
<polygon fill="white" stroke="#666666" points="361.5,-170 233,-170 233,-138 361.5,-138 361.5,-170"/>
<text text-anchor="start" x="241" y="-156.5" font-family="Helvetica,sans-Serif" font-size="10.00">SPI_FLASH_AUTO global</text>
<text text-anchor="middle" x="297.25" y="-144.5" font-family="Helvetica,sans-Serif" font-size="10.00"> variables</text>
</a>
</g>
</g>
<!-- Node1&#45;&gt;Node10 -->
<g id="edge9" class="edge">
<title>Node1&#45;&gt;Node10</title>
<path fill="none" stroke="black" d="M185.21,-189.99C203.92,-183.93 225.95,-176.79 245.44,-170.47"/>
<polygon fill="black" stroke="black" points="184.21,-186.64 175.78,-193.05 186.37,-193.3 184.21,-186.64"/>
</g>
<!-- Node9 -->
<g id="Node000009" class="node">
<title>Node9</title>
<g id="a_Node000009"><a xlink:href="group___s_p_i___f_l_a_s_h___a_u_t_o___private___macro.html" target="_top" xlink:title=" ">
<polygon fill="white" stroke="#666666" points="362.62,-120 231.88,-120 231.88,-88 362.62,-88 362.62,-120"/>
<text text-anchor="start" x="239.88" y="-106.5" font-family="Helvetica,sans-Serif" font-size="10.00">SPI_FLASH_AUTO private</text>
<text text-anchor="middle" x="297.25" y="-94.5" font-family="Helvetica,sans-Serif" font-size="10.00"> macros</text>
</a>
</g>
</g>
<!-- Node1&#45;&gt;Node9 -->
<g id="edge8" class="edge">
<title>Node1&#45;&gt;Node9</title>
<path fill="none" stroke="black" d="M158.74,-185.72C174.85,-169.02 200.61,-144.63 227,-129 232.39,-125.81 238.25,-122.92 244.21,-120.34"/>
<polygon fill="black" stroke="black" points="156.6,-182.89 152.27,-192.56 161.68,-187.69 156.6,-182.89"/>
</g>
<!-- Node3 -->
<g id="Node000003" class="node">
<title>Node3</title>
<g id="a_Node000003"><a xlink:href="group___s_p_i___f_l_a_s_h___a_u_t_o___private___variable.html" target="_top" xlink:title=" ">
<polygon fill="white" stroke="#666666" points="362.62,-70 231.88,-70 231.88,-38 362.62,-38 362.62,-70"/>
<text text-anchor="start" x="239.88" y="-56.5" font-family="Helvetica,sans-Serif" font-size="10.00">SPI_FLASH_AUTO private</text>
<text text-anchor="middle" x="297.25" y="-44.5" font-family="Helvetica,sans-Serif" font-size="10.00"> variables</text>
</a>
</g>
</g>
<!-- Node1&#45;&gt;Node3 -->
<g id="edge2" class="edge">
<title>Node1&#45;&gt;Node3</title>
<path fill="none" stroke="black" d="M151.05,-183.25C164.06,-155.71 190.54,-107.3 227,-79 231.14,-75.79 235.73,-72.96 240.52,-70.48"/>
<polygon fill="black" stroke="black" points="147.9,-181.72 146.94,-192.27 154.27,-184.62 147.9,-181.72"/>
</g>
<!-- Node5 -->
<g id="Node000005" class="node">
<title>Node5</title>
<g id="a_Node000005"><a xlink:href="group___s_p_i___f_l_a_s_h___a_u_t_o___settings.html" target="_top" xlink:title=" ">
<polygon fill="white" stroke="#666666" points="366,-20 228.5,-20 228.5,0 366,0 366,-20"/>
<text text-anchor="middle" x="297.25" y="-6.5" font-family="Helvetica,sans-Serif" font-size="10.00">SPI_FLASH_AUTO settings</text>
</a>
</g>
</g>
<!-- Node1&#45;&gt;Node5 -->
<g id="edge4" class="edge">
<title>Node1&#45;&gt;Node5</title>
<path fill="none" stroke="black" d="M146.25,-183.03C154.83,-146.2 177.75,-69.92 227,-29 231.12,-25.57 235.82,-22.76 240.77,-20.46"/>
<polygon fill="black" stroke="black" points="142.91,-181.91 144.2,-192.42 149.75,-183.4 142.91,-181.91"/>
</g>
</g>
</svg>
