<?xml version="1.0" encoding="UTF-8" standalone="no"?>
<!DOCTYPE svg PUBLIC "-//W3C//DTD SVG 1.1//EN"
 "http://www.w3.org/Graphics/SVG/1.1/DTD/svg11.dtd">
<!-- Generated by graphviz version 9.0.0 (20230911.1827)
 -->
<!-- Title: I2C_EEPROM Pages: 1 -->
<svg width="330pt" height="140pt"
 viewBox="0.00 0.00 329.75 140.00" xmlns="http://www.w3.org/2000/svg" xmlns:xlink="http://www.w3.org/1999/xlink">
<g id="graph0" class="graph" transform="scale(1 1) rotate(0) translate(4 136)">
<title>I2C_EEPROM</title>
<!-- Node2 -->
<g id="Node000002" class="node">
<title>Node2</title>
<g id="a_Node000002"><a xlink:href="group___common.html" target="_top" xlink:title=" ">
<polygon fill="white" stroke="#666666" points="55,-76 0,-76 0,-56 55,-56 55,-76"/>
<text text-anchor="middle" x="27.5" y="-62.5" font-family="Helvetica,sans-Serif" font-size="10.00">Common</text>
</a>
</g>
</g>
<!-- Node1 -->
<g id="Node000001" class="node">
<title>Node1</title>
<g id="a_Node000001"><a xlink:title="The source file of i2c_eeprom.">
<polygon fill="#999999" stroke="#666666" points="169.25,-76 91,-76 91,-56 169.25,-56 169.25,-76"/>
<text text-anchor="middle" x="130.12" y="-62.5" font-family="Helvetica,sans-Serif" font-size="10.00">I2C_EEPROM</text>
</a>
</g>
</g>
<!-- Node2&#45;&gt;Node1 -->
<g id="edge1" class="edge">
<title>Node2&#45;&gt;Node1</title>
<path fill="none" stroke="black" d="M66.9,-66C74.71,-66 82.93,-66 90.74,-66"/>
<polygon fill="black" stroke="black" points="66.98,-62.5 56.98,-66 66.98,-69.5 66.98,-62.5"/>
</g>
<!-- Node5 -->
<g id="Node000005" class="node">
<title>Node5</title>
<g id="a_Node000005"><a xlink:href="group___i2_c___e_e_p_r_o_m___exported___constants.html" target="_top" xlink:title=" ">
<polygon fill="white" stroke="#666666" points="321.75,-132 205.25,-132 205.25,-100 321.75,-100 321.75,-132"/>
<text text-anchor="start" x="213.25" y="-118.5" font-family="Helvetica,sans-Serif" font-size="10.00">I2C EEPROM exported</text>
<text text-anchor="middle" x="263.5" y="-106.5" font-family="Helvetica,sans-Serif" font-size="10.00"> constants</text>
</a>
</g>
</g>
<!-- Node1&#45;&gt;Node5 -->
<g id="edge4" class="edge">
<title>Node1&#45;&gt;Node5</title>
<path fill="none" stroke="black" d="M169.05,-80.44C184.74,-86.41 203.02,-93.36 219.22,-99.53"/>
<polygon fill="black" stroke="black" points="170.67,-77.31 160.08,-77.02 168.18,-83.85 170.67,-77.31"/>
</g>
<!-- Node3 -->
<g id="Node000003" class="node">
<title>Node3</title>
<g id="a_Node000003"><a xlink:href="group___i2_c___e_e_p_r_o_m___exported___functions.html" target="_top" xlink:title=" ">
<polygon fill="white" stroke="#666666" points="321.75,-82 205.25,-82 205.25,-50 321.75,-50 321.75,-82"/>
<text text-anchor="start" x="213.25" y="-68.5" font-family="Helvetica,sans-Serif" font-size="10.00">I2C EEPROM exported</text>
<text text-anchor="middle" x="263.5" y="-56.5" font-family="Helvetica,sans-Serif" font-size="10.00"> functions</text>
</a>
</g>
</g>
<!-- Node1&#45;&gt;Node3 -->
<g id="edge2" class="edge">
<title>Node1&#45;&gt;Node3</title>
<path fill="none" stroke="black" d="M180.99,-66C188.77,-66 196.87,-66 204.81,-66"/>
<polygon fill="black" stroke="black" points="180.99,-62.5 170.99,-66 180.99,-69.5 180.99,-62.5"/>
</g>
<!-- Node4 -->
<g id="Node000004" class="node">
<title>Node4</title>
<g id="a_Node000004"><a xlink:href="group___i2_c___e_e_p_r_o_m___private___functions.html" target="_top" xlink:title=" ">
<polygon fill="white" stroke="#666666" points="316.88,-32 210.12,-32 210.12,0 316.88,0 316.88,-32"/>
<text text-anchor="start" x="218.12" y="-18.5" font-family="Helvetica,sans-Serif" font-size="10.00">I2C EEPROM private</text>
<text text-anchor="middle" x="263.5" y="-6.5" font-family="Helvetica,sans-Serif" font-size="10.00"> functions</text>
</a>
</g>
</g>
<!-- Node1&#45;&gt;Node4 -->
<g id="edge3" class="edge">
<title>Node1&#45;&gt;Node4</title>
<path fill="none" stroke="black" d="M169.05,-51.56C184.74,-45.59 203.02,-38.64 219.22,-32.47"/>
<polygon fill="black" stroke="black" points="168.18,-48.15 160.08,-54.98 170.67,-54.69 168.18,-48.15"/>
</g>
</g>
</svg>
