<?xml version="1.0" encoding="UTF-8" standalone="no"?>
<!DOCTYPE svg PUBLIC "-//W3C//DTD SVG 1.1//EN"
 "http://www.w3.org/Graphics/SVG/1.1/DTD/svg11.dtd">
<!-- Generated by graphviz version 9.0.0 (20230911.1827)
 -->
<!-- Title: Debug Identification Functions Pages: 1 -->
<svg width="401pt" height="40pt"
 viewBox="0.00 0.00 401.00 40.00" xmlns="http://www.w3.org/2000/svg" xmlns:xlink="http://www.w3.org/1999/xlink">
<g id="graph0" class="graph" transform="scale(1 1) rotate(0) translate(4 36)">
<title>Debug Identification Functions</title>
<!-- Node2 -->
<g id="Node000002" class="node">
<title>Node2</title>
<g id="a_Node000002"><a xlink:href="group___c_m_s_i_s___core___d_c_b_functions.html" target="_top" xlink:title="Functions that access the Debug Control Block.">
<polygon fill="white" stroke="#666666" points="123.25,-26 0,-26 0,-6 123.25,-6 123.25,-26"/>
<text text-anchor="middle" x="61.62" y="-12.5" font-family="Helvetica,sans-Serif" font-size="10.00">Debug Control Functions</text>
</a>
</g>
</g>
<!-- Node1 -->
<g id="Node000001" class="node">
<title>Node1</title>
<g id="a_Node000001"><a xlink:title="Functions that access the Debug Identification Block.">
<polygon fill="#999999" stroke="#666666" points="260,-32 159.25,-32 159.25,0 260,0 260,-32"/>
<text text-anchor="start" x="167.25" y="-18.5" font-family="Helvetica,sans-Serif" font-size="10.00">Debug Identification</text>
<text text-anchor="middle" x="209.62" y="-6.5" font-family="Helvetica,sans-Serif" font-size="10.00"> Functions</text>
</a>
</g>
</g>
<!-- Node2&#45;&gt;Node1 -->
<g id="edge1" class="edge">
<title>Node2&#45;&gt;Node1</title>
<path fill="none" stroke="black" d="M135.05,-16C143.11,-16 151.18,-16 158.87,-16"/>
<polygon fill="black" stroke="black" points="135.21,-12.5 125.21,-16 135.21,-19.5 135.21,-12.5"/>
</g>
<!-- Node3 -->
<g id="Node000003" class="node">
<title>Node3</title>
<g id="a_Node000003"><a xlink:href="group___c_m_s_i_s___core___sys_tick_functions.html" target="_top" xlink:title="Functions that configure the System.">
<polygon fill="white" stroke="#666666" points="393,-26 296,-26 296,-6 393,-6 393,-26"/>
<text text-anchor="middle" x="344.5" y="-12.5" font-family="Helvetica,sans-Serif" font-size="10.00">SysTick Functions</text>
</a>
</g>
</g>
<!-- Node1&#45;&gt;Node3 -->
<g id="edge2" class="edge">
<title>Node1&#45;&gt;Node3</title>
<path fill="none" stroke="black" d="M271.96,-16C279.89,-16 287.91,-16 295.57,-16"/>
<polygon fill="black" stroke="black" points="271.99,-12.5 261.99,-16 271.99,-19.5 271.99,-12.5"/>
</g>
</g>
</svg>
