<?xml version="1.0" encoding="UTF-8" standalone="no"?>
<!DOCTYPE svg PUBLIC "-//W3C//DTD SVG 1.1//EN"
 "http://www.w3.org/Graphics/SVG/1.1/DTD/svg11.dtd">
<!-- Generated by graphviz version 9.0.0 (20230911.1827)
 -->
<!-- Title: Error Banking Registers (IMPLEMENTATION DEFINED) Pages: 1 -->
<svg width="519pt" height="52pt"
 viewBox="0.00 0.00 518.75 52.00" xmlns="http://www.w3.org/2000/svg" xmlns:xlink="http://www.w3.org/1999/xlink">
<g id="graph0" class="graph" transform="scale(1 1) rotate(0) translate(4 48)">
<title>Error Banking Registers (IMPLEMENTATION DEFINED)</title>
<!-- Node2 -->
<g id="Node000002" class="node">
<title>Node2</title>
<g id="a_Node000002"><a xlink:href="group___e_w_i_c___type.html" target="_top" xlink:title="Type definitions for the External Wakeup Interrupt Controller Registers (EWIC)">
<polygon fill="white" stroke="#666666" points="129.25,-38 0,-38 0,-6 129.25,-6 129.25,-38"/>
<text text-anchor="start" x="8" y="-24.5" font-family="Helvetica,sans-Serif" font-size="10.00">External Wakeup Interrupt</text>
<text text-anchor="middle" x="64.62" y="-12.5" font-family="Helvetica,sans-Serif" font-size="10.00"> Controller Registers</text>
</a>
</g>
</g>
<!-- Node1 -->
<g id="Node000001" class="node">
<title>Node1</title>
<g id="a_Node000001"><a xlink:title="Type definitions for the Error Banking Registers (ERRBNK)">
<polygon fill="#999999" stroke="#666666" points="320,-38 165.25,-38 165.25,-6 320,-6 320,-38"/>
<text text-anchor="start" x="173.25" y="-24.5" font-family="Helvetica,sans-Serif" font-size="10.00">Error Banking Registers</text>
<text text-anchor="middle" x="242.62" y="-12.5" font-family="Helvetica,sans-Serif" font-size="10.00"> (IMPLEMENTATION DEFINED)</text>
</a>
</g>
</g>
<!-- Node2&#45;&gt;Node1 -->
<g id="edge1" class="edge">
<title>Node2&#45;&gt;Node1</title>
<path fill="none" stroke="black" d="M141.04,-22C148.9,-22 156.89,-22 164.76,-22"/>
<polygon fill="black" stroke="black" points="141.18,-18.5 131.18,-22 141.18,-25.5 141.18,-18.5"/>
</g>
<!-- Node3 -->
<g id="Node000003" class="node">
<title>Node3</title>
<g id="a_Node000003"><a xlink:href="group___prc_cfg_inf___type.html" target="_top" xlink:title="Type definitions for the Processor Configuration Information Registerss (PRCCFGINF)">
<polygon fill="white" stroke="#666666" points="510.75,-44 356,-44 356,0 510.75,0 510.75,-44"/>
<text text-anchor="start" x="364" y="-30.5" font-family="Helvetica,sans-Serif" font-size="10.00">Processor Configuration</text>
<text text-anchor="start" x="364" y="-18.5" font-family="Helvetica,sans-Serif" font-size="10.00"> Information Registers</text>
<text text-anchor="middle" x="433.38" y="-6.5" font-family="Helvetica,sans-Serif" font-size="10.00"> (IMPLEMENTATION DEFINED)</text>
</a>
</g>
</g>
<!-- Node1&#45;&gt;Node3 -->
<g id="edge2" class="edge">
<title>Node1&#45;&gt;Node3</title>
<path fill="none" stroke="black" d="M331.67,-22C339.68,-22 347.76,-22 355.67,-22"/>
<polygon fill="black" stroke="black" points="331.91,-18.5 321.91,-22 331.91,-25.5 331.91,-18.5"/>
</g>
</g>
</svg>
