<?xml version="1.0" encoding="UTF-8" standalone="no"?>
<!DOCTYPE svg PUBLIC "-//W3C//DTD SVG 1.1//EN"
 "http://www.w3.org/Graphics/SVG/1.1/DTD/svg11.dtd">
<!-- Generated by graphviz version 9.0.0 (20230911.1827)
 -->
<!-- Title: DAC_DUAL16 Pages: 1 -->
<svg width="394pt" height="142pt"
 viewBox="0.00 0.00 393.50 142.00" xmlns="http://www.w3.org/2000/svg" xmlns:xlink="http://www.w3.org/1999/xlink">
<g id="graph0" class="graph" transform="scale(1 1) rotate(0) translate(4 138)">
<title>DAC_DUAL16</title>
<!-- Node1 -->
<g id="Node000001" class="node">
<title>Node1</title>
<g id="a_Node000001"><a xlink:title="DAC driver modules.">
<polygon fill="#999999" stroke="#666666" points="230.75,-77 153.25,-77 153.25,-57 230.75,-57 230.75,-77"/>
<text text-anchor="middle" x="192" y="-63.5" font-family="Helvetica,sans-Serif" font-size="10.00">DAC_DUAL16</text>
</a>
</g>
</g>
<!-- Node4 -->
<g id="Node000004" class="node">
<title>Node4</title>
<g id="a_Node000004"><a xlink:href="group___d_a_c___d_u_a_l16___exported___functions.html" target="_top" xlink:title=" ">
<polygon fill="white" stroke="#666666" points="385.5,-134 266.75,-134 266.75,-114 385.5,-114 385.5,-134"/>
<text text-anchor="middle" x="326.12" y="-120.5" font-family="Helvetica,sans-Serif" font-size="10.00">DAC exported functions</text>
</a>
</g>
</g>
<!-- Node1&#45;&gt;Node4 -->
<g id="edge3" class="edge">
<title>Node1&#45;&gt;Node4</title>
<path fill="none" stroke="black" d="M220.81,-82.68C234.42,-90 251.18,-98.5 266.75,-105 274.13,-108.08 282.19,-110.98 289.91,-113.55"/>
<polygon fill="black" stroke="black" points="222.88,-79.82 212.43,-78.09 219.52,-85.96 222.88,-79.82"/>
</g>
<!-- Node5 -->
<g id="Node000005" class="node">
<title>Node5</title>
<g id="a_Node000005"><a xlink:href="group___d_a_c___d_u_a_l16___private___define.html" target="_top" xlink:title=" ">
<polygon fill="white" stroke="#666666" points="382.88,-96 269.38,-96 269.38,-76 382.88,-76 382.88,-96"/>
<text text-anchor="middle" x="326.12" y="-82.5" font-family="Helvetica,sans-Serif" font-size="10.00">DAC private definitions</text>
</a>
</g>
</g>
<!-- Node1&#45;&gt;Node5 -->
<g id="edge4" class="edge">
<title>Node1&#45;&gt;Node5</title>
<path fill="none" stroke="black" d="M242.44,-74.11C251.2,-75.37 260.38,-76.69 269.3,-77.97"/>
<polygon fill="black" stroke="black" points="243.11,-70.67 232.71,-72.71 242.11,-77.6 243.11,-70.67"/>
</g>
<!-- Node6 -->
<g id="Node000006" class="node">
<title>Node6</title>
<g id="a_Node000006"><a xlink:href="group___d_a_c___d_u_a_l16___private___macro.html" target="_top" xlink:title=" ">
<polygon fill="white" stroke="#666666" points="377.25,-58 275,-58 275,-38 377.25,-38 377.25,-58"/>
<text text-anchor="middle" x="326.12" y="-44.5" font-family="Helvetica,sans-Serif" font-size="10.00">DAC private macros</text>
</a>
</g>
</g>
<!-- Node1&#45;&gt;Node6 -->
<g id="edge5" class="edge">
<title>Node1&#45;&gt;Node6</title>
<path fill="none" stroke="black" d="M242.38,-59.9C252.93,-58.38 264.1,-56.78 274.69,-55.25"/>
<polygon fill="black" stroke="black" points="242.11,-56.4 232.71,-61.29 243.11,-63.33 242.11,-56.4"/>
</g>
<!-- Node3 -->
<g id="Node000003" class="node">
<title>Node3</title>
<g id="a_Node000003"><a xlink:href="group___d_a_c___exported___types.html" target="_top" xlink:title=" ">
<polygon fill="white" stroke="#666666" points="378,-20 274.25,-20 274.25,0 378,0 378,-20"/>
<text text-anchor="middle" x="326.12" y="-6.5" font-family="Helvetica,sans-Serif" font-size="10.00">DAC exported types</text>
</a>
</g>
</g>
<!-- Node1&#45;&gt;Node3 -->
<g id="edge2" class="edge">
<title>Node1&#45;&gt;Node3</title>
<path fill="none" stroke="black" d="M220.81,-51.32C234.42,-44 251.18,-35.5 266.75,-29 274.13,-25.92 282.19,-23.02 289.91,-20.45"/>
<polygon fill="black" stroke="black" points="219.52,-48.04 212.43,-55.91 222.88,-54.18 219.52,-48.04"/>
</g>
<!-- Node2 -->
<g id="Node000002" class="node">
<title>Node2</title>
<g id="a_Node000002"><a xlink:href="group___h_t32_f5xxxx___peripheral___driver.html" target="_top" xlink:title=" ">
<polygon fill="white" stroke="#666666" points="117.25,-83 0,-83 0,-51 117.25,-51 117.25,-83"/>
<text text-anchor="start" x="8" y="-69.5" font-family="Helvetica,sans-Serif" font-size="10.00">HT32F5xxxx Peripheral</text>
<text text-anchor="middle" x="58.62" y="-57.5" font-family="Helvetica,sans-Serif" font-size="10.00"> Driver</text>
</a>
</g>
</g>
<!-- Node2&#45;&gt;Node1 -->
<g id="edge1" class="edge">
<title>Node2&#45;&gt;Node1</title>
<path fill="none" stroke="black" d="M128.89,-67C137.16,-67 145.34,-67 152.93,-67"/>
<polygon fill="black" stroke="black" points="129.14,-63.5 119.14,-67 129.14,-70.5 129.14,-63.5"/>
</g>
</g>
</svg>
