<?xml version="1.0" encoding="UTF-8" standalone="no"?>
<!DOCTYPE svg PUBLIC "-//W3C//DTD SVG 1.1//EN"
 "http://www.w3.org/Graphics/SVG/1.1/DTD/svg11.dtd">
<!-- Generated by graphviz version 9.0.0 (20230911.1827)
 -->
<!-- Title: OPA Pages: 1 -->
<svg width="358pt" height="104pt"
 viewBox="0.00 0.00 357.50 104.00" xmlns="http://www.w3.org/2000/svg" xmlns:xlink="http://www.w3.org/1999/xlink">
<g id="graph0" class="graph" transform="scale(1 1) rotate(0) translate(4 100)">
<title>OPA</title>
<!-- Node2 -->
<g id="Node000002" class="node">
<title>Node2</title>
<g id="a_Node000002"><a xlink:href="group___h_t32_f5xxxx___peripheral___driver.html" target="_top" xlink:title=" ">
<polygon fill="white" stroke="#666666" points="117.25,-64 0,-64 0,-32 117.25,-32 117.25,-64"/>
<text text-anchor="start" x="8" y="-50.5" font-family="Helvetica,sans-Serif" font-size="10.00">HT32F5xxxx Peripheral</text>
<text text-anchor="middle" x="58.62" y="-38.5" font-family="Helvetica,sans-Serif" font-size="10.00"> Driver</text>
</a>
</g>
</g>
<!-- Node1 -->
<g id="Node000001" class="node">
<title>Node1</title>
<g id="a_Node000001"><a xlink:title="OPA driver modules.">
<polygon fill="#999999" stroke="#666666" points="190.25,-58 153.25,-58 153.25,-38 190.25,-38 190.25,-58"/>
<text text-anchor="middle" x="171.75" y="-44.5" font-family="Helvetica,sans-Serif" font-size="10.00">OPA</text>
</a>
</g>
</g>
<!-- Node2&#45;&gt;Node1 -->
<g id="edge1" class="edge">
<title>Node2&#45;&gt;Node1</title>
<path fill="none" stroke="black" d="M128.81,-48C137.62,-48 145.94,-48 152.81,-48"/>
<polygon fill="black" stroke="black" points="128.98,-44.5 118.98,-48 128.98,-51.5 128.98,-44.5"/>
</g>
<!-- Node3 -->
<g id="Node000003" class="node">
<title>Node3</title>
<g id="a_Node000003"><a xlink:href="group___o_p_a___exported___constants.html" target="_top" xlink:title=" ">
<polygon fill="white" stroke="#666666" points="349.5,-96 226.25,-96 226.25,-76 349.5,-76 349.5,-96"/>
<text text-anchor="middle" x="287.88" y="-82.5" font-family="Helvetica,sans-Serif" font-size="10.00">OPA exported constants</text>
</a>
</g>
</g>
<!-- Node1&#45;&gt;Node3 -->
<g id="edge2" class="edge">
<title>Node1&#45;&gt;Node3</title>
<path fill="none" stroke="black" d="M201.28,-58.36C209.33,-61.22 218.12,-64.28 226.25,-67 234.83,-69.87 244.13,-72.85 252.81,-75.57"/>
<polygon fill="black" stroke="black" points="202.54,-55.09 191.95,-55.01 200.18,-61.68 202.54,-55.09"/>
</g>
<!-- Node4 -->
<g id="Node000004" class="node">
<title>Node4</title>
<g id="a_Node000004"><a xlink:href="group___o_p_a___exported___functions.html" target="_top" xlink:title=" ">
<polygon fill="white" stroke="#666666" points="347.62,-58 228.12,-58 228.12,-38 347.62,-38 347.62,-58"/>
<text text-anchor="middle" x="287.88" y="-44.5" font-family="Helvetica,sans-Serif" font-size="10.00">OPA exported functions</text>
</a>
</g>
</g>
<!-- Node1&#45;&gt;Node4 -->
<g id="edge3" class="edge">
<title>Node1&#45;&gt;Node4</title>
<path fill="none" stroke="black" d="M202.07,-48C209.95,-48 218.76,-48 227.64,-48"/>
<polygon fill="black" stroke="black" points="202.1,-44.5 192.1,-48 202.1,-51.5 202.1,-44.5"/>
</g>
<!-- Node5 -->
<g id="Node000005" class="node">
<title>Node5</title>
<g id="a_Node000005"><a xlink:href="group___o_p_a___private___define.html" target="_top" xlink:title=" ">
<polygon fill="white" stroke="#666666" points="345,-20 230.75,-20 230.75,0 345,0 345,-20"/>
<text text-anchor="middle" x="287.88" y="-6.5" font-family="Helvetica,sans-Serif" font-size="10.00">OPA private definitions</text>
</a>
</g>
</g>
<!-- Node1&#45;&gt;Node5 -->
<g id="edge4" class="edge">
<title>Node1&#45;&gt;Node5</title>
<path fill="none" stroke="black" d="M201.28,-37.64C209.33,-34.78 218.12,-31.72 226.25,-29 234.83,-26.13 244.13,-23.15 252.81,-20.43"/>
<polygon fill="black" stroke="black" points="200.18,-34.32 191.95,-40.99 202.54,-40.91 200.18,-34.32"/>
</g>
</g>
</svg>
