<?xml version="1.0" encoding="UTF-8" standalone="no"?>
<!DOCTYPE svg PUBLIC "-//W3C//DTD SVG 1.1//EN"
 "http://www.w3.org/Graphics/SVG/1.1/DTD/svg11.dtd">
<!-- Generated by graphviz version 9.0.0 (20230911.1827)
 -->
<!-- Title: EBI_LCD Pages: 1 -->
<svg width="331pt" height="218pt"
 viewBox="0.00 0.00 330.50 218.00" xmlns="http://www.w3.org/2000/svg" xmlns:xlink="http://www.w3.org/1999/xlink">
<g id="graph0" class="graph" transform="scale(1 1) rotate(0) translate(4 214)">
<title>EBI_LCD</title>
<!-- Node2 -->
<g id="Node000002" class="node">
<title>Node2</title>
<g id="a_Node000002"><a xlink:href="group___common.html" target="_top" xlink:title=" ">
<polygon fill="white" stroke="#666666" points="55,-115 0,-115 0,-95 55,-95 55,-115"/>
<text text-anchor="middle" x="27.5" y="-101.5" font-family="Helvetica,sans-Serif" font-size="10.00">Common</text>
</a>
</g>
</g>
<!-- Node1 -->
<g id="Node000001" class="node">
<title>Node1</title>
<g id="a_Node000001"><a xlink:title="This file provides a set of functions needed to manage the communication between EBI peripheral and L...">
<polygon fill="#999999" stroke="#666666" points="146.75,-115 91,-115 91,-95 146.75,-95 146.75,-115"/>
<text text-anchor="middle" x="118.88" y="-101.5" font-family="Helvetica,sans-Serif" font-size="10.00">EBI_LCD</text>
</a>
</g>
</g>
<!-- Node2&#45;&gt;Node1 -->
<g id="edge1" class="edge">
<title>Node2&#45;&gt;Node1</title>
<path fill="none" stroke="black" d="M66.8,-105C74.87,-105 83.22,-105 90.77,-105"/>
<polygon fill="black" stroke="black" points="66.83,-101.5 56.83,-105 66.83,-108.5 66.83,-101.5"/>
</g>
<!-- Node8 -->
<g id="Node000008" class="node">
<title>Node8</title>
<g id="a_Node000008"><a xlink:href="group___e_b_i___l_c_d___exported___constants.html" target="_top" xlink:title=" ">
<polygon fill="white" stroke="#666666" points="322.5,-210 182.75,-210 182.75,-190 322.5,-190 322.5,-210"/>
<text text-anchor="middle" x="252.62" y="-196.5" font-family="Helvetica,sans-Serif" font-size="10.00">EBI LCD exported constants</text>
</a>
</g>
</g>
<!-- Node1&#45;&gt;Node8 -->
<g id="edge7" class="edge">
<title>Node1&#45;&gt;Node8</title>
<path fill="none" stroke="black" d="M131.49,-125.03C142.54,-142.33 160.72,-166.75 182.75,-181 188.06,-184.44 193.99,-187.26 200.08,-189.57"/>
<polygon fill="black" stroke="black" points="134.55,-123.32 126.35,-116.61 128.58,-126.97 134.55,-123.32"/>
</g>
<!-- Node5 -->
<g id="Node000005" class="node">
<title>Node5</title>
<g id="a_Node000005"><a xlink:href="group___e_b_i___l_c_d___exported___functions.html" target="_top" xlink:title=" ">
<polygon fill="white" stroke="#666666" points="320.62,-172 184.62,-172 184.62,-152 320.62,-152 320.62,-172"/>
<text text-anchor="middle" x="252.62" y="-158.5" font-family="Helvetica,sans-Serif" font-size="10.00">EBI LCD exported functions</text>
</a>
</g>
</g>
<!-- Node1&#45;&gt;Node5 -->
<g id="edge4" class="edge">
<title>Node1&#45;&gt;Node5</title>
<path fill="none" stroke="black" d="M143.52,-121.41C154.97,-128.8 169.16,-137.15 182.75,-143 190.38,-146.29 198.74,-149.15 206.92,-151.6"/>
<polygon fill="black" stroke="black" points="145.78,-118.71 135.51,-116.1 141.91,-124.54 145.78,-118.71"/>
</g>
<!-- Node7 -->
<g id="Node000007" class="node">
<title>Node7</title>
<g id="a_Node000007"><a xlink:href="group___e_b_i___l_c_d___exported___types.html" target="_top" xlink:title=" ">
<polygon fill="white" stroke="#666666" points="313.12,-134 192.12,-134 192.12,-114 313.12,-114 313.12,-134"/>
<text text-anchor="middle" x="252.62" y="-120.5" font-family="Helvetica,sans-Serif" font-size="10.00">EBI LCD exported types</text>
</a>
</g>
</g>
<!-- Node1&#45;&gt;Node7 -->
<g id="edge6" class="edge">
<title>Node1&#45;&gt;Node7</title>
<path fill="none" stroke="black" d="M158.43,-110.56C168.88,-112.07 180.44,-113.73 191.77,-115.37"/>
<polygon fill="black" stroke="black" points="159.07,-107.12 148.67,-109.15 158.07,-114.04 159.07,-107.12"/>
</g>
<!-- Node3 -->
<g id="Node000003" class="node">
<title>Node3</title>
<g id="a_Node000003"><a xlink:href="group___e_b_i___l_c_d___private___define.html" target="_top" xlink:title=" ">
<polygon fill="white" stroke="#666666" points="318,-96 187.25,-96 187.25,-76 318,-76 318,-96"/>
<text text-anchor="middle" x="252.62" y="-82.5" font-family="Helvetica,sans-Serif" font-size="10.00">EBI LCD private definitions</text>
</a>
</g>
</g>
<!-- Node1&#45;&gt;Node3 -->
<g id="edge2" class="edge">
<title>Node1&#45;&gt;Node3</title>
<path fill="none" stroke="black" d="M158.4,-99.44C167.35,-98.15 177.12,-96.74 186.86,-95.34"/>
<polygon fill="black" stroke="black" points="158.07,-95.96 148.67,-100.85 159.07,-102.88 158.07,-95.96"/>
</g>
<!-- Node6 -->
<g id="Node000006" class="node">
<title>Node6</title>
<g id="a_Node000006"><a xlink:href="group___e_b_i___l_c_d___private___functions.html" target="_top" xlink:title=" ">
<polygon fill="white" stroke="#666666" points="315.75,-58 189.5,-58 189.5,-38 315.75,-38 315.75,-58"/>
<text text-anchor="middle" x="252.62" y="-44.5" font-family="Helvetica,sans-Serif" font-size="10.00">EBI LCD private functions</text>
</a>
</g>
</g>
<!-- Node1&#45;&gt;Node6 -->
<g id="edge5" class="edge">
<title>Node1&#45;&gt;Node6</title>
<path fill="none" stroke="black" d="M143.52,-88.59C154.97,-81.2 169.16,-72.85 182.75,-67 190.38,-63.71 198.74,-60.85 206.92,-58.4"/>
<polygon fill="black" stroke="black" points="141.91,-85.46 135.51,-93.9 145.78,-91.29 141.91,-85.46"/>
</g>
<!-- Node4 -->
<g id="Node000004" class="node">
<title>Node4</title>
<g id="a_Node000004"><a xlink:href="group___e_b_i___l_c_d___private___variable.html" target="_top" xlink:title=" ">
<polygon fill="white" stroke="#666666" points="315,-20 190.25,-20 190.25,0 315,0 315,-20"/>
<text text-anchor="middle" x="252.62" y="-6.5" font-family="Helvetica,sans-Serif" font-size="10.00">EBI LCD private variables</text>
</a>
</g>
</g>
<!-- Node1&#45;&gt;Node4 -->
<g id="edge3" class="edge">
<title>Node1&#45;&gt;Node4</title>
<path fill="none" stroke="black" d="M131.49,-84.97C142.54,-67.67 160.72,-43.25 182.75,-29 188.06,-25.56 193.99,-22.74 200.08,-20.43"/>
<polygon fill="black" stroke="black" points="128.58,-83.03 126.35,-93.39 134.55,-86.68 128.58,-83.03"/>
</g>
</g>
</svg>
