<?xml version="1.0" encoding="UTF-8" standalone="no"?>
<!DOCTYPE svg PUBLIC "-//W3C//DTD SVG 1.1//EN"
 "http://www.w3.org/Graphics/SVG/1.1/DTD/svg11.dtd">
<!-- Generated by graphviz version 9.0.0 (20230911.1827)
 -->
<!-- Title: HT32F5xxxx_BOARD Pages: 1 -->
<svg width="390pt" height="190pt"
 viewBox="0.00 0.00 389.75 190.00" xmlns="http://www.w3.org/2000/svg" xmlns:xlink="http://www.w3.org/1999/xlink">
<g id="graph0" class="graph" transform="scale(1 1) rotate(0) translate(4 186)">
<title>HT32F5xxxx_BOARD</title>
<!-- Node1 -->
<g id="Node000001" class="node">
<title>Node1</title>
<g id="a_Node000001"><a xlink:title="Provides firmware functions to manage LEDs, push&#45;buttons and COM ports and is available on HT32F5xxxx...">
<polygon fill="#999999" stroke="#666666" points="215.75,-101 105.25,-101 105.25,-81 215.75,-81 215.75,-101"/>
<text text-anchor="middle" x="160.5" y="-87.5" font-family="Helvetica,sans-Serif" font-size="10.00">HT32F5xxxx_BOARD</text>
</a>
</g>
</g>
<!-- Node5 -->
<g id="Node000005" class="node">
<title>Node5</title>
<g id="a_Node000005"><a xlink:href="group___h_t32_f5xxxx___b_o_a_r_d___global___functions.html" target="_top" xlink:title=" ">
<polygon fill="white" stroke="#666666" points="380.62,-182 252.88,-182 252.88,-150 380.62,-150 380.62,-182"/>
<text text-anchor="start" x="260.88" y="-168.5" font-family="Helvetica,sans-Serif" font-size="10.00">HT32F5xxxx Board global</text>
<text text-anchor="middle" x="316.75" y="-156.5" font-family="Helvetica,sans-Serif" font-size="10.00"> functions</text>
</a>
</g>
</g>
<!-- Node1&#45;&gt;Node5 -->
<g id="edge4" class="edge">
<title>Node1&#45;&gt;Node5</title>
<path fill="none" stroke="black" d="M188.42,-107.16C206.11,-117.46 229.93,-130.75 251.75,-141 258.01,-143.94 264.72,-146.83 271.36,-149.55"/>
<polygon fill="black" stroke="black" points="190.48,-104.3 180.08,-102.25 186.93,-110.34 190.48,-104.3"/>
</g>
<!-- Node4 -->
<g id="Node000004" class="node">
<title>Node4</title>
<g id="a_Node000004"><a xlink:href="group___h_t32_f5xxxx___b_o_a_r_d___global___variable.html" target="_top" xlink:title=" ">
<polygon fill="white" stroke="#666666" points="380.62,-132 252.88,-132 252.88,-100 380.62,-100 380.62,-132"/>
<text text-anchor="start" x="260.88" y="-118.5" font-family="Helvetica,sans-Serif" font-size="10.00">HT32F5xxxx Board global</text>
<text text-anchor="middle" x="316.75" y="-106.5" font-family="Helvetica,sans-Serif" font-size="10.00"> variables</text>
</a>
</g>
</g>
<!-- Node1&#45;&gt;Node4 -->
<g id="edge3" class="edge">
<title>Node1&#45;&gt;Node4</title>
<path fill="none" stroke="black" d="M227.22,-101.65C235.64,-103.02 244.25,-104.41 252.63,-105.77"/>
<polygon fill="black" stroke="black" points="227.81,-98.2 217.38,-100.06 226.69,-105.11 227.81,-98.2"/>
</g>
<!-- Node6 -->
<g id="Node000006" class="node">
<title>Node6</title>
<g id="a_Node000006"><a xlink:href="group___h_t32_f5xxxx___b_o_a_r_d___private___functions.html" target="_top" xlink:title=" ">
<polygon fill="white" stroke="#666666" points="381.75,-82 251.75,-82 251.75,-50 381.75,-50 381.75,-82"/>
<text text-anchor="start" x="259.75" y="-68.5" font-family="Helvetica,sans-Serif" font-size="10.00">HT32F5xxxx Board private</text>
<text text-anchor="middle" x="316.75" y="-56.5" font-family="Helvetica,sans-Serif" font-size="10.00"> functions</text>
</a>
</g>
</g>
<!-- Node1&#45;&gt;Node6 -->
<g id="edge5" class="edge">
<title>Node1&#45;&gt;Node6</title>
<path fill="none" stroke="black" d="M227.07,-80.37C235.1,-79.07 243.29,-77.74 251.29,-76.45"/>
<polygon fill="black" stroke="black" points="226.69,-76.89 217.38,-81.94 227.81,-83.8 226.69,-76.89"/>
</g>
<!-- Node3 -->
<g id="Node000003" class="node">
<title>Node3</title>
<g id="a_Node000003"><a xlink:href="group___h_t32_f5xxxx___b_o_a_r_d___private___types_definitions.html" target="_top" xlink:title=" ">
<polygon fill="white" stroke="#666666" points="381.75,-32 251.75,-32 251.75,0 381.75,0 381.75,-32"/>
<text text-anchor="start" x="259.75" y="-18.5" font-family="Helvetica,sans-Serif" font-size="10.00">HT32F5xxxx Board private</text>
<text text-anchor="middle" x="316.75" y="-6.5" font-family="Helvetica,sans-Serif" font-size="10.00"> types definitions</text>
</a>
</g>
</g>
<!-- Node1&#45;&gt;Node3 -->
<g id="edge2" class="edge">
<title>Node1&#45;&gt;Node3</title>
<path fill="none" stroke="black" d="M188.42,-74.84C206.11,-64.54 229.93,-51.25 251.75,-41 258.01,-38.06 264.72,-35.17 271.36,-32.45"/>
<polygon fill="black" stroke="black" points="186.93,-71.66 180.08,-79.75 190.48,-77.7 186.93,-71.66"/>
</g>
<!-- Node2 -->
<g id="Node000002" class="node">
<title>Node2</title>
<g id="a_Node000002"><a xlink:href="group___h_t32___board.html" target="_top" xlink:title=" ">
<polygon fill="white" stroke="#666666" points="69.25,-101 0,-101 0,-81 69.25,-81 69.25,-101"/>
<text text-anchor="middle" x="34.62" y="-87.5" font-family="Helvetica,sans-Serif" font-size="10.00">HT32_Board</text>
</a>
</g>
</g>
<!-- Node2&#45;&gt;Node1 -->
<g id="edge1" class="edge">
<title>Node2&#45;&gt;Node1</title>
<path fill="none" stroke="black" d="M80.75,-91C88.69,-91 97.03,-91 105.19,-91"/>
<polygon fill="black" stroke="black" points="80.99,-87.5 70.99,-91 80.99,-94.5 80.99,-87.5"/>
</g>
</g>
</svg>
