<?xml version="1.0" encoding="UTF-8" standalone="no"?>
<!DOCTYPE svg PUBLIC "-//W3C//DTD SVG 1.1//EN"
 "http://www.w3.org/Graphics/SVG/1.1/DTD/svg11.dtd">
<!-- Generated by graphviz version 9.0.0 (20230911.1827)
 -->
<!-- Title: Mono_LCD Pages: 1 -->
<svg width="347pt" height="66pt"
 viewBox="0.00 0.00 347.00 66.00" xmlns="http://www.w3.org/2000/svg" xmlns:xlink="http://www.w3.org/1999/xlink">
<g id="graph0" class="graph" transform="scale(1 1) rotate(0) translate(4 62)">
<title>Mono_LCD</title>
<!-- Node3 -->
<g id="Node000003" class="node">
<title>Node3</title>
<g id="a_Node000003"><a xlink:href="group___demo.html" target="_top" xlink:title=" ">
<polygon fill="white" stroke="#666666" points="324,-58 282.5,-58 282.5,-38 324,-38 324,-58"/>
<text text-anchor="middle" x="303.25" y="-44.5" font-family="Helvetica,sans-Serif" font-size="10.00">Demo</text>
</a>
</g>
</g>
<!-- Node2 -->
<g id="Node000002" class="node">
<title>Node2</title>
<g id="a_Node000002"><a xlink:href="group___h_t32___series___peripheral___examples.html" target="_top" xlink:title=" ">
<polygon fill="white" stroke="#666666" points="131.5,-39 0,-39 0,-19 131.5,-19 131.5,-39"/>
<text text-anchor="middle" x="65.75" y="-25.5" font-family="Helvetica,sans-Serif" font-size="10.00">HT32 Peripheral Examples</text>
</a>
</g>
</g>
<!-- Node1 -->
<g id="Node000001" class="node">
<title>Node1</title>
<g id="a_Node000001"><a xlink:title=" ">
<polygon fill="#999999" stroke="#666666" points="231.5,-39 167.5,-39 167.5,-19 231.5,-19 231.5,-39"/>
<text text-anchor="middle" x="199.5" y="-25.5" font-family="Helvetica,sans-Serif" font-size="10.00">Mono_LCD</text>
</a>
</g>
</g>
<!-- Node2&#45;&gt;Node1 -->
<g id="edge1" class="edge">
<title>Node2&#45;&gt;Node1</title>
<path fill="none" stroke="black" d="M143.36,-29C151.73,-29 159.86,-29 167.19,-29"/>
<polygon fill="black" stroke="black" points="143.37,-25.5 133.37,-29 143.37,-32.5 143.37,-25.5"/>
</g>
<!-- Node4 -->
<g id="Node000004" class="node">
<title>Node4</title>
<g id="a_Node000004"><a xlink:href="group___l_c_d__module.html" target="_top" xlink:title=" ">
<polygon fill="white" stroke="#666666" points="339,-20 267.5,-20 267.5,0 339,0 339,-20"/>
<text text-anchor="middle" x="303.25" y="-6.5" font-family="Helvetica,sans-Serif" font-size="10.00">LCD_module</text>
</a>
</g>
</g>
<!-- Node1&#45;&gt;Node3 -->
<g id="edge2" class="edge">
<title>Node1&#45;&gt;Node3</title>
<path fill="none" stroke="black" d="M242.96,-36.93C256.5,-39.46 270.86,-42.14 282.06,-44.23"/>
<polygon fill="black" stroke="black" points="243.82,-33.53 233.35,-35.13 242.53,-40.41 243.82,-33.53"/>
</g>
<!-- Node1&#45;&gt;Node4 -->
<g id="edge3" class="edge">
<title>Node1&#45;&gt;Node4</title>
<path fill="none" stroke="black" d="M243,-21.06C251.08,-19.55 259.45,-17.99 267.27,-16.53"/>
<polygon fill="black" stroke="black" points="242.53,-17.59 233.35,-22.87 243.82,-24.47 242.53,-17.59"/>
</g>
</g>
</svg>
