<?xml version="1.0" encoding="UTF-8" standalone="no"?>
<!DOCTYPE svg PUBLIC "-//W3C//DTD SVG 1.1//EN"
 "http://www.w3.org/Graphics/SVG/1.1/DTD/svg11.dtd">
<!-- Generated by graphviz version 9.0.0 (20230911.1827)
 -->
<!-- Title: SRAM_Overwrite Pages: 1 -->
<svg width="397pt" height="66pt"
 viewBox="0.00 0.00 397.25 66.00" xmlns="http://www.w3.org/2000/svg" xmlns:xlink="http://www.w3.org/1999/xlink">
<g id="graph0" class="graph" transform="scale(1 1) rotate(0) translate(4 62)">
<title>SRAM_Overwrite</title>
<!-- Node2 -->
<g id="Node000002" class="node">
<title>Node2</title>
<g id="a_Node000002"><a xlink:href="group___h_t32___series___peripheral___examples.html" target="_top" xlink:title=" ">
<polygon fill="white" stroke="#666666" points="131.5,-39 0,-39 0,-19 131.5,-19 131.5,-39"/>
<text text-anchor="middle" x="65.75" y="-25.5" font-family="Helvetica,sans-Serif" font-size="10.00">HT32 Peripheral Examples</text>
</a>
</g>
</g>
<!-- Node1 -->
<g id="Node000001" class="node">
<title>Node1</title>
<g id="a_Node000001"><a xlink:title=" ">
<polygon fill="#999999" stroke="#666666" points="257,-39 167.5,-39 167.5,-19 257,-19 257,-39"/>
<text text-anchor="middle" x="212.25" y="-25.5" font-family="Helvetica,sans-Serif" font-size="10.00">SRAM_Overwrite</text>
</a>
</g>
</g>
<!-- Node2&#45;&gt;Node1 -->
<g id="edge1" class="edge">
<title>Node2&#45;&gt;Node1</title>
<path fill="none" stroke="black" d="M143.09,-29C151.35,-29 159.55,-29 167.23,-29"/>
<polygon fill="black" stroke="black" points="143.33,-25.5 133.33,-29 143.33,-32.5 143.33,-25.5"/>
</g>
<!-- Node3 -->
<g id="Node000003" class="node">
<title>Node3</title>
<g id="a_Node000003"><a xlink:href="group___watchpoint___heap.html" target="_top" xlink:title=" ">
<polygon fill="white" stroke="#666666" points="387.75,-58 294.5,-58 294.5,-38 387.75,-38 387.75,-58"/>
<text text-anchor="middle" x="341.12" y="-44.5" font-family="Helvetica,sans-Serif" font-size="10.00">Watchpoint_Heap</text>
</a>
</g>
</g>
<!-- Node1&#45;&gt;Node3 -->
<g id="edge2" class="edge">
<title>Node1&#45;&gt;Node3</title>
<path fill="none" stroke="black" d="M268.64,-37.3C277.12,-38.56 285.78,-39.86 294.03,-41.1"/>
<polygon fill="black" stroke="black" points="269.17,-33.84 258.77,-35.82 268.14,-40.76 269.17,-33.84"/>
</g>
<!-- Node4 -->
<g id="Node000004" class="node">
<title>Node4</title>
<g id="a_Node000004"><a xlink:href="group___watchpoint___stack.html" target="_top" xlink:title=" ">
<polygon fill="white" stroke="#666666" points="389.25,-20 293,-20 293,0 389.25,0 389.25,-20"/>
<text text-anchor="middle" x="341.12" y="-6.5" font-family="Helvetica,sans-Serif" font-size="10.00">Watchpoint_Stack</text>
</a>
</g>
</g>
<!-- Node1&#45;&gt;Node4 -->
<g id="edge3" class="edge">
<title>Node1&#45;&gt;Node4</title>
<path fill="none" stroke="black" d="M268.5,-20.73C276.58,-19.52 284.83,-18.28 292.72,-17.1"/>
<polygon fill="black" stroke="black" points="268.14,-17.24 258.77,-22.18 269.17,-24.16 268.14,-17.24"/>
</g>
</g>
</svg>
