<?xml version="1.0" encoding="UTF-8" standalone="no"?>
<!DOCTYPE svg PUBLIC "-//W3C//DTD SVG 1.1//EN"
 "http://www.w3.org/Graphics/SVG/1.1/DTD/svg11.dtd">
<!-- Generated by graphviz version 9.0.0 (20230911.1827)
 -->
<!-- Title: WDT Pages: 1 -->
<svg width="328pt" height="66pt"
 viewBox="0.00 0.00 328.25 66.00" xmlns="http://www.w3.org/2000/svg" xmlns:xlink="http://www.w3.org/1999/xlink">
<g id="graph0" class="graph" transform="scale(1 1) rotate(0) translate(4 62)">
<title>WDT</title>
<!-- Node3 -->
<g id="Node000003" class="node">
<title>Node3</title>
<g id="a_Node000003"><a xlink:href="group___auto___enable.html" target="_top" xlink:title=" ">
<polygon fill="white" stroke="#666666" points="316.5,-58 245,-58 245,-38 316.5,-38 316.5,-58"/>
<text text-anchor="middle" x="280.75" y="-44.5" font-family="Helvetica,sans-Serif" font-size="10.00">Auto_Enable</text>
</a>
</g>
</g>
<!-- Node2 -->
<g id="Node000002" class="node">
<title>Node2</title>
<g id="a_Node000002"><a xlink:href="group___h_t32___series___peripheral___examples.html" target="_top" xlink:title=" ">
<polygon fill="white" stroke="#666666" points="131.5,-39 0,-39 0,-19 131.5,-19 131.5,-39"/>
<text text-anchor="middle" x="65.75" y="-25.5" font-family="Helvetica,sans-Serif" font-size="10.00">HT32 Peripheral Examples</text>
</a>
</g>
</g>
<!-- Node1 -->
<g id="Node000001" class="node">
<title>Node1</title>
<g id="a_Node000001"><a xlink:title=" ">
<polygon fill="#999999" stroke="#666666" points="205.25,-39 167.5,-39 167.5,-19 205.25,-19 205.25,-39"/>
<text text-anchor="middle" x="186.38" y="-25.5" font-family="Helvetica,sans-Serif" font-size="10.00">WDT</text>
</a>
</g>
</g>
<!-- Node2&#45;&gt;Node1 -->
<g id="edge1" class="edge">
<title>Node2&#45;&gt;Node1</title>
<path fill="none" stroke="black" d="M143.3,-29C152.08,-29 160.3,-29 167.11,-29"/>
<polygon fill="black" stroke="black" points="143.48,-25.5 133.48,-29 143.48,-32.5 143.48,-25.5"/>
</g>
<!-- Node4 -->
<g id="Node000004" class="node">
<title>Node4</title>
<g id="a_Node000004"><a xlink:href="group___period___reload.html" target="_top" xlink:title=" ">
<polygon fill="white" stroke="#666666" points="320.25,-20 241.25,-20 241.25,0 320.25,0 320.25,-20"/>
<text text-anchor="middle" x="280.75" y="-6.5" font-family="Helvetica,sans-Serif" font-size="10.00">Period_Reload</text>
</a>
</g>
</g>
<!-- Node1&#45;&gt;Node3 -->
<g id="edge2" class="edge">
<title>Node1&#45;&gt;Node3</title>
<path fill="none" stroke="black" d="M216.65,-35.02C225.56,-36.85 235.45,-38.89 244.71,-40.79"/>
<polygon fill="black" stroke="black" points="217.61,-31.65 207.11,-33.06 216.2,-38.5 217.61,-31.65"/>
</g>
<!-- Node1&#45;&gt;Node4 -->
<g id="edge3" class="edge">
<title>Node1&#45;&gt;Node4</title>
<path fill="none" stroke="black" d="M216.9,-22.93C224.54,-21.36 232.88,-19.64 240.91,-17.99"/>
<polygon fill="black" stroke="black" points="216.2,-19.5 207.11,-24.94 217.61,-26.35 216.2,-19.5"/>
</g>
</g>
</svg>
