<?xml version="1.0" encoding="UTF-8" standalone="no"?>
<!DOCTYPE svg PUBLIC "-//W3C//DTD SVG 1.1//EN"
 "http://www.w3.org/Graphics/SVG/1.1/DTD/svg11.dtd">
<!-- Generated by graphviz version 9.0.0 (20230911.1827)
 -->
<!-- Title: RSTCU Pages: 1 -->
<svg width="393pt" height="28pt"
 viewBox="0.00 0.00 392.75 28.00" xmlns="http://www.w3.org/2000/svg" xmlns:xlink="http://www.w3.org/1999/xlink">
<g id="graph0" class="graph" transform="scale(1 1) rotate(0) translate(4 24)">
<title>RSTCU</title>
<!-- Node2 -->
<g id="Node000002" class="node">
<title>Node2</title>
<g id="a_Node000002"><a xlink:href="group___h_t32___series___peripheral___examples.html" target="_top" xlink:title=" ">
<polygon fill="white" stroke="#666666" points="131.5,-20 0,-20 0,0 131.5,0 131.5,-20"/>
<text text-anchor="middle" x="65.75" y="-6.5" font-family="Helvetica,sans-Serif" font-size="10.00">HT32 Peripheral Examples</text>
</a>
</g>
</g>
<!-- Node1 -->
<g id="Node000001" class="node">
<title>Node1</title>
<g id="a_Node000001"><a xlink:title=" ">
<polygon fill="#999999" stroke="#666666" points="215.75,-20 167.5,-20 167.5,0 215.75,0 215.75,-20"/>
<text text-anchor="middle" x="191.62" y="-6.5" font-family="Helvetica,sans-Serif" font-size="10.00">RSTCU</text>
</a>
</g>
</g>
<!-- Node2&#45;&gt;Node1 -->
<g id="edge1" class="edge">
<title>Node2&#45;&gt;Node1</title>
<path fill="none" stroke="black" d="M143.35,-10C151.89,-10 160.04,-10 167.09,-10"/>
<polygon fill="black" stroke="black" points="143.47,-6.5 133.47,-10 143.47,-13.5 143.47,-6.5"/>
</g>
<!-- Node3 -->
<g id="Node000003" class="node">
<title>Node3</title>
<g id="a_Node000003"><a xlink:href="group___peripheral___reset___function.html" target="_top" xlink:title=" ">
<polygon fill="white" stroke="#666666" points="384.75,-20 251.75,-20 251.75,0 384.75,0 384.75,-20"/>
<text text-anchor="middle" x="318.25" y="-6.5" font-family="Helvetica,sans-Serif" font-size="10.00">Peripheral_Reset_Function</text>
</a>
</g>
</g>
<!-- Node1&#45;&gt;Node3 -->
<g id="edge2" class="edge">
<title>Node1&#45;&gt;Node3</title>
<path fill="none" stroke="black" d="M227.53,-10C235,-10 243.11,-10 251.31,-10"/>
<polygon fill="black" stroke="black" points="227.58,-6.5 217.58,-10 227.58,-13.5 227.58,-6.5"/>
</g>
</g>
</svg>
