<?xml version="1.0" encoding="UTF-8" standalone="no"?>
<!DOCTYPE svg PUBLIC "-//W3C//DTD SVG 1.1//EN"
 "http://www.w3.org/Graphics/SVG/1.1/DTD/svg11.dtd">
<!-- Generated by graphviz version 9.0.0 (20230911.1827)
 -->
<!-- Title: MIDI Pages: 1 -->
<svg width="355pt" height="142pt"
 viewBox="0.00 0.00 354.50 142.00" xmlns="http://www.w3.org/2000/svg" xmlns:xlink="http://www.w3.org/1999/xlink">
<g id="graph0" class="graph" transform="scale(1 1) rotate(0) translate(4 138)">
<title>MIDI</title>
<!-- Node2 -->
<g id="Node000002" class="node">
<title>Node2</title>
<g id="a_Node000002"><a xlink:href="group___h_t32_f5xxxx___peripheral___driver.html" target="_top" xlink:title=" ">
<polygon fill="white" stroke="#666666" points="117.25,-83 0,-83 0,-51 117.25,-51 117.25,-83"/>
<text text-anchor="start" x="8" y="-69.5" font-family="Helvetica,sans-Serif" font-size="10.00">HT32F5xxxx Peripheral</text>
<text text-anchor="middle" x="58.62" y="-57.5" font-family="Helvetica,sans-Serif" font-size="10.00"> Driver</text>
</a>
</g>
</g>
<!-- Node1 -->
<g id="Node000001" class="node">
<title>Node1</title>
<g id="a_Node000001"><a xlink:title="MIDI driver modules.">
<polygon fill="#999999" stroke="#666666" points="188.75,-77 153.25,-77 153.25,-57 188.75,-57 188.75,-77"/>
<text text-anchor="middle" x="171" y="-63.5" font-family="Helvetica,sans-Serif" font-size="10.00">MIDI</text>
</a>
</g>
</g>
<!-- Node2&#45;&gt;Node1 -->
<g id="edge1" class="edge">
<title>Node2&#45;&gt;Node1</title>
<path fill="none" stroke="black" d="M129.06,-67C137.86,-67 146.13,-67 152.91,-67"/>
<polygon fill="black" stroke="black" points="129.24,-63.5 119.24,-67 129.24,-70.5 129.24,-63.5"/>
</g>
<!-- Node4 -->
<g id="Node000004" class="node">
<title>Node4</title>
<g id="a_Node000004"><a xlink:href="group___m_i_d_i___exported___constants.html" target="_top" xlink:title=" ">
<polygon fill="white" stroke="#666666" points="346.5,-134 224.75,-134 224.75,-114 346.5,-114 346.5,-134"/>
<text text-anchor="middle" x="285.62" y="-120.5" font-family="Helvetica,sans-Serif" font-size="10.00">MIDI exported constants</text>
</a>
</g>
</g>
<!-- Node1&#45;&gt;Node4 -->
<g id="edge3" class="edge">
<title>Node1&#45;&gt;Node4</title>
<path fill="none" stroke="black" d="M192.74,-84.28C202.08,-91.44 213.52,-99.36 224.75,-105 231.28,-108.28 238.49,-111.15 245.58,-113.59"/>
<polygon fill="black" stroke="black" points="195.06,-81.65 185.05,-78.18 190.71,-87.14 195.06,-81.65"/>
</g>
<!-- Node5 -->
<g id="Node000005" class="node">
<title>Node5</title>
<g id="a_Node000005"><a xlink:href="group___m_i_d_i___exported___functions.html" target="_top" xlink:title=" ">
<polygon fill="white" stroke="#666666" points="344.62,-96 226.62,-96 226.62,-76 344.62,-76 344.62,-96"/>
<text text-anchor="middle" x="285.62" y="-82.5" font-family="Helvetica,sans-Serif" font-size="10.00">MIDI exported functions</text>
</a>
</g>
</g>
<!-- Node1&#45;&gt;Node5 -->
<g id="edge4" class="edge">
<title>Node1&#45;&gt;Node5</title>
<path fill="none" stroke="black" d="M200.28,-71.77C208.24,-73.11 217.19,-74.62 226.21,-76.15"/>
<polygon fill="black" stroke="black" points="201.04,-68.35 190.6,-70.14 199.88,-75.25 201.04,-68.35"/>
</g>
<!-- Node3 -->
<g id="Node000003" class="node">
<title>Node3</title>
<g id="a_Node000003"><a xlink:href="group___m_i_d_i___exported___types.html" target="_top" xlink:title=" ">
<polygon fill="white" stroke="#666666" points="337.12,-58 234.12,-58 234.12,-38 337.12,-38 337.12,-58"/>
<text text-anchor="middle" x="285.62" y="-44.5" font-family="Helvetica,sans-Serif" font-size="10.00">MIDI exported types</text>
</a>
</g>
</g>
<!-- Node1&#45;&gt;Node3 -->
<g id="edge2" class="edge">
<title>Node1&#45;&gt;Node3</title>
<path fill="none" stroke="black" d="M200.17,-62.25C210.34,-60.53 222.15,-58.54 233.67,-56.6"/>
<polygon fill="black" stroke="black" points="199.88,-58.75 190.6,-63.86 201.04,-65.65 199.88,-58.75"/>
</g>
<!-- Node6 -->
<g id="Node000006" class="node">
<title>Node6</title>
<g id="a_Node000006"><a xlink:href="group___m_i_d_i___private___define.html" target="_top" xlink:title=" ">
<polygon fill="white" stroke="#666666" points="342,-20 229.25,-20 229.25,0 342,0 342,-20"/>
<text text-anchor="middle" x="285.62" y="-6.5" font-family="Helvetica,sans-Serif" font-size="10.00">MIDI private definitions</text>
</a>
</g>
</g>
<!-- Node1&#45;&gt;Node6 -->
<g id="edge5" class="edge">
<title>Node1&#45;&gt;Node6</title>
<path fill="none" stroke="black" d="M192.74,-49.72C202.08,-42.56 213.52,-34.64 224.75,-29 231.28,-25.72 238.49,-22.85 245.58,-20.41"/>
<polygon fill="black" stroke="black" points="190.71,-46.86 185.05,-55.82 195.06,-52.35 190.71,-46.86"/>
</g>
</g>
</svg>
