<?xml version="1.0" encoding="UTF-8" standalone="no"?>
<!DOCTYPE svg PUBLIC "-//W3C//DTD SVG 1.1//EN"
 "http://www.w3.org/Graphics/SVG/1.1/DTD/svg11.dtd">
<!-- Generated by graphviz version 9.0.0 (20230911.1827)
 -->
<!-- Title: Processor Configuration Information Registers (IMPLEMENTATION DEFINED) Pages: 1 -->
<svg width="504pt" height="52pt"
 viewBox="0.00 0.00 503.75 52.00" xmlns="http://www.w3.org/2000/svg" xmlns:xlink="http://www.w3.org/1999/xlink">
<g id="graph0" class="graph" transform="scale(1 1) rotate(0) translate(4 48)">
<title>Processor Configuration Information Registers (IMPLEMENTATION DEFINED)</title>
<!-- Node2 -->
<g id="Node000002" class="node">
<title>Node2</title>
<g id="a_Node000002"><a xlink:href="group___err_bnk___type.html" target="_top" xlink:title="Type definitions for the Error Banking Registers (ERRBNK)">
<polygon fill="white" stroke="#666666" points="154.75,-38 0,-38 0,-6 154.75,-6 154.75,-38"/>
<text text-anchor="start" x="8" y="-24.5" font-family="Helvetica,sans-Serif" font-size="10.00">Error Banking Registers</text>
<text text-anchor="middle" x="77.38" y="-12.5" font-family="Helvetica,sans-Serif" font-size="10.00"> (IMPLEMENTATION DEFINED)</text>
</a>
</g>
</g>
<!-- Node1 -->
<g id="Node000001" class="node">
<title>Node1</title>
<g id="a_Node000001"><a xlink:title="Type definitions for the Processor Configuration Information Registerss (PRCCFGINF)">
<polygon fill="#999999" stroke="#666666" points="345.5,-44 190.75,-44 190.75,0 345.5,0 345.5,-44"/>
<text text-anchor="start" x="198.75" y="-30.5" font-family="Helvetica,sans-Serif" font-size="10.00">Processor Configuration</text>
<text text-anchor="start" x="198.75" y="-18.5" font-family="Helvetica,sans-Serif" font-size="10.00"> Information Registers</text>
<text text-anchor="middle" x="268.12" y="-6.5" font-family="Helvetica,sans-Serif" font-size="10.00"> (IMPLEMENTATION DEFINED)</text>
</a>
</g>
</g>
<!-- Node2&#45;&gt;Node1 -->
<g id="edge1" class="edge">
<title>Node2&#45;&gt;Node1</title>
<path fill="none" stroke="black" d="M166.42,-22C174.43,-22 182.51,-22 190.42,-22"/>
<polygon fill="black" stroke="black" points="166.66,-18.5 156.66,-22 166.66,-25.5 166.66,-18.5"/>
</g>
<!-- Node3 -->
<g id="Node000003" class="node">
<title>Node3</title>
<g id="a_Node000003"><a xlink:href="group___s_t_l___type.html" target="_top" xlink:title="Type definitions for the Software Test Library Observation Registerss (STL)">
<polygon fill="white" stroke="#666666" points="495.75,-38 381.5,-38 381.5,-6 495.75,-6 495.75,-38"/>
<text text-anchor="start" x="389.5" y="-24.5" font-family="Helvetica,sans-Serif" font-size="10.00">Software Test Library</text>
<text text-anchor="middle" x="438.62" y="-12.5" font-family="Helvetica,sans-Serif" font-size="10.00"> Observation Registers</text>
</a>
</g>
</g>
<!-- Node1&#45;&gt;Node3 -->
<g id="edge2" class="edge">
<title>Node1&#45;&gt;Node3</title>
<path fill="none" stroke="black" d="M357.35,-22C365.39,-22 373.39,-22 381.04,-22"/>
<polygon fill="black" stroke="black" points="357.49,-18.5 347.49,-22 357.49,-25.5 357.49,-18.5"/>
</g>
</g>
</svg>
