<?xml version="1.0" encoding="UTF-8" standalone="no"?>
<!DOCTYPE svg PUBLIC "-//W3C//DTD SVG 1.1//EN"
 "http://www.w3.org/Graphics/SVG/1.1/DTD/svg11.dtd">
<!-- Generated by graphviz version 9.0.0 (20230911.1827)
 -->
<!-- Title: HT32F65240 Development Board exported constants Pages: 1 -->
<svg width="448pt" height="280pt"
 viewBox="0.00 0.00 448.25 280.00" xmlns="http://www.w3.org/2000/svg" xmlns:xlink="http://www.w3.org/1999/xlink">
<g id="graph0" class="graph" transform="scale(1 1) rotate(0) translate(4 276)">
<title>HT32F65240 Development Board exported constants</title>
<!-- Node2 -->
<g id="Node000002" class="node">
<title>Node2</title>
<g id="a_Node000002"><a xlink:href="group___h_t32_f65240___d_v_b.html" target="_top" xlink:title=" ">
<polygon fill="white" stroke="#666666" points="96.25,-152 0,-152 0,-132 96.25,-132 96.25,-152"/>
<text text-anchor="middle" x="48.12" y="-138.5" font-family="Helvetica,sans-Serif" font-size="10.00">HT32F65240_DVB</text>
</a>
</g>
</g>
<!-- Node1 -->
<g id="Node000001" class="node">
<title>Node1</title>
<g id="a_Node000001"><a xlink:title=" ">
<polygon fill="#999999" stroke="#666666" points="263,-158 132.25,-158 132.25,-126 263,-126 263,-158"/>
<text text-anchor="start" x="140.25" y="-144.5" font-family="Helvetica,sans-Serif" font-size="10.00">HT32F65240 Development</text>
<text text-anchor="middle" x="197.62" y="-132.5" font-family="Helvetica,sans-Serif" font-size="10.00"> Board exported constants</text>
</a>
</g>
</g>
<!-- Node2&#45;&gt;Node1 -->
<g id="edge1" class="edge">
<title>Node2&#45;&gt;Node1</title>
<path fill="none" stroke="black" d="M107.89,-142C115.74,-142 123.82,-142 131.76,-142"/>
<polygon fill="black" stroke="black" points="108.12,-138.5 98.12,-142 108.12,-145.5 108.12,-138.5"/>
</g>
<!-- Node4 -->
<g id="Node000004" class="node">
<title>Node4</title>
<g id="a_Node000004"><a xlink:href="group___h_t32_f65240___d_v_b___b_u_t_t_o_n.html" target="_top" xlink:title=" ">
<polygon fill="white" stroke="#666666" points="439.5,-272 299.75,-272 299.75,-252 439.5,-252 439.5,-272"/>
<text text-anchor="middle" x="369.62" y="-258.5" font-family="Helvetica,sans-Serif" font-size="10.00">HT32F65240_DVB_BUTTON</text>
</a>
</g>
</g>
<!-- Node5 -->
<g id="Node000005" class="node">
<title>Node5</title>
<g id="a_Node000005"><a xlink:href="group___h_t32_f65240___d_v_b___b_u_z_z_e_r.html" target="_top" xlink:title=" ">
<polygon fill="white" stroke="#666666" points="439.12,-234 300.12,-234 300.12,-214 439.12,-214 439.12,-234"/>
<text text-anchor="middle" x="369.62" y="-220.5" font-family="Helvetica,sans-Serif" font-size="10.00">HT32F65240_DVB_BUZZER</text>
</a>
</g>
</g>
<!-- Node6 -->
<g id="Node000006" class="node">
<title>Node6</title>
<g id="a_Node000006"><a xlink:href="group___h_t32_f65240___d_v_b___c_o_m.html" target="_top" xlink:title=" ">
<polygon fill="white" stroke="#666666" points="431.62,-196 307.62,-196 307.62,-176 431.62,-176 431.62,-196"/>
<text text-anchor="middle" x="369.62" y="-182.5" font-family="Helvetica,sans-Serif" font-size="10.00">HT32F65240_DVB_COM</text>
</a>
</g>
</g>
<!-- Node1&#45;&gt;Node4 -->
<g id="edge3" class="edge">
<title>Node1&#45;&gt;Node4</title>
<path fill="none" stroke="black" d="M217.2,-167.11C235.52,-190.14 265.58,-223.53 299,-243 304.85,-246.41 311.32,-249.22 317.91,-251.54"/>
<polygon fill="black" stroke="black" points="220.14,-165.19 211.24,-159.44 214.61,-169.49 220.14,-165.19"/>
</g>
<!-- Node1&#45;&gt;Node5 -->
<g id="edge4" class="edge">
<title>Node1&#45;&gt;Node5</title>
<path fill="none" stroke="black" d="M229.71,-164.86C248.89,-178.1 274.45,-194.23 299,-205 306.46,-208.27 314.62,-211.11 322.64,-213.52"/>
<polygon fill="black" stroke="black" points="231.73,-162.01 221.54,-159.12 227.7,-167.73 231.73,-162.01"/>
</g>
<!-- Node1&#45;&gt;Node6 -->
<g id="edge5" class="edge">
<title>Node1&#45;&gt;Node6</title>
<path fill="none" stroke="black" d="M272.99,-161.25C291.96,-166.16 311.66,-171.26 328.21,-175.54"/>
<polygon fill="black" stroke="black" points="273.95,-157.88 263.39,-158.76 272.2,-164.66 273.95,-157.88"/>
</g>
<!-- Node9 -->
<g id="Node000009" class="node">
<title>Node9</title>
<g id="a_Node000009"><a xlink:href="group___h_t32_f65240___d_v_b___i2_c___e_e_p_r_o_m.html" target="_top" xlink:title=" ">
<polygon fill="white" stroke="#666666" points="427.5,-158 311.75,-158 311.75,-126 427.5,-126 427.5,-158"/>
<text text-anchor="start" x="319.75" y="-144.5" font-family="Helvetica,sans-Serif" font-size="10.00">HT32F65240_DVB_I2C</text>
<text text-anchor="middle" x="369.62" y="-132.5" font-family="Helvetica,sans-Serif" font-size="10.00">_EEPROM</text>
</a>
</g>
</g>
<!-- Node1&#45;&gt;Node9 -->
<g id="edge8" class="edge">
<title>Node1&#45;&gt;Node9</title>
<path fill="none" stroke="black" d="M274.6,-142C286.92,-142 299.5,-142 311.29,-142"/>
<polygon fill="black" stroke="black" points="274.89,-138.5 264.89,-142 274.89,-145.5 274.89,-138.5"/>
</g>
<!-- Node3 -->
<g id="Node000003" class="node">
<title>Node3</title>
<g id="a_Node000003"><a xlink:href="group___h_t32_f65240___d_v_b___l_e_d.html" target="_top" xlink:title=" ">
<polygon fill="white" stroke="#666666" points="429.75,-108 309.5,-108 309.5,-88 429.75,-88 429.75,-108"/>
<text text-anchor="middle" x="369.62" y="-94.5" font-family="Helvetica,sans-Serif" font-size="10.00">HT32F65240_DVB_LED</text>
</a>
</g>
</g>
<!-- Node1&#45;&gt;Node3 -->
<g id="edge2" class="edge">
<title>Node1&#45;&gt;Node3</title>
<path fill="none" stroke="black" d="M272.99,-122.75C291.96,-117.84 311.66,-112.74 328.21,-108.46"/>
<polygon fill="black" stroke="black" points="272.2,-119.34 263.39,-125.24 273.95,-126.12 272.2,-119.34"/>
</g>
<!-- Node7 -->
<g id="Node000007" class="node">
<title>Node7</title>
<g id="a_Node000007"><a xlink:href="group___h_t32_f65240___d_v_b___s_p_i___f_l_a_s_h.html" target="_top" xlink:title=" ">
<polygon fill="white" stroke="#666666" points="428.25,-70 311,-70 311,-38 428.25,-38 428.25,-70"/>
<text text-anchor="start" x="319" y="-56.5" font-family="Helvetica,sans-Serif" font-size="10.00">HT32F65240_DVB_SPI</text>
<text text-anchor="middle" x="369.62" y="-44.5" font-family="Helvetica,sans-Serif" font-size="10.00">_FLASH</text>
</a>
</g>
</g>
<!-- Node1&#45;&gt;Node7 -->
<g id="edge6" class="edge">
<title>Node1&#45;&gt;Node7</title>
<path fill="none" stroke="black" d="M230.79,-119.31C249.99,-106.41 275.21,-90.57 299,-79 305.24,-75.97 311.94,-73.1 318.64,-70.47"/>
<polygon fill="black" stroke="black" points="228.88,-116.38 222.58,-124.9 232.82,-122.17 228.88,-116.38"/>
</g>
<!-- Node8 -->
<g id="Node000008" class="node">
<title>Node8</title>
<g id="a_Node000008"><a xlink:href="group___h_t32_f65240___d_v_b___s_p_i___l_c_d.html" target="_top" xlink:title=" ">
<polygon fill="white" stroke="#666666" points="440.25,-20 299,-20 299,0 440.25,0 440.25,-20"/>
<text text-anchor="middle" x="369.62" y="-6.5" font-family="Helvetica,sans-Serif" font-size="10.00">HT32F65240_DVB_SPI_LCD</text>
</a>
</g>
</g>
<!-- Node1&#45;&gt;Node8 -->
<g id="edge7" class="edge">
<title>Node1&#45;&gt;Node8</title>
<path fill="none" stroke="black" d="M214.82,-116.34C232.45,-90.5 262.98,-51.35 299,-29 304.54,-25.56 310.7,-22.74 317,-20.42"/>
<polygon fill="black" stroke="black" points="211.96,-114.32 209.34,-124.59 217.79,-118.2 211.96,-114.32"/>
</g>
</g>
</svg>
