<?xml version="1.0" encoding="UTF-8" standalone="no"?>
<!DOCTYPE svg PUBLIC "-//W3C//DTD SVG 1.1//EN"
 "http://www.w3.org/Graphics/SVG/1.1/DTD/svg11.dtd">
<!-- Generated by graphviz version 9.0.0 (20230911.1827)
 -->
<!-- Title: HT32F5xxxx System Pages: 1 -->
<svg width="379pt" height="140pt"
 viewBox="0.00 0.00 378.50 140.00" xmlns="http://www.w3.org/2000/svg" xmlns:xlink="http://www.w3.org/1999/xlink">
<g id="graph0" class="graph" transform="scale(1 1) rotate(0) translate(4 136)">
<title>HT32F5xxxx System</title>
<!-- Node2 -->
<g id="Node000002" class="node">
<title>Node2</title>
<g id="a_Node000002"><a xlink:href="group___c_m_s_i_s.html" target="_top" xlink:title=" ">
<polygon fill="white" stroke="#666666" points="46.75,-76 0,-76 0,-56 46.75,-56 46.75,-76"/>
<text text-anchor="middle" x="23.38" y="-62.5" font-family="Helvetica,sans-Serif" font-size="10.00">CMSIS</text>
</a>
</g>
</g>
<!-- Node1 -->
<g id="Node000001" class="node">
<title>Node1</title>
<g id="a_Node000001"><a xlink:title=" ">
<polygon fill="#999999" stroke="#666666" points="190.25,-76 82.75,-76 82.75,-56 190.25,-56 190.25,-76"/>
<text text-anchor="middle" x="136.5" y="-62.5" font-family="Helvetica,sans-Serif" font-size="10.00">HT32F5xxxx System</text>
</a>
</g>
</g>
<!-- Node2&#45;&gt;Node1 -->
<g id="edge1" class="edge">
<title>Node2&#45;&gt;Node1</title>
<path fill="none" stroke="black" d="M58.47,-66C66.08,-66 74.32,-66 82.49,-66"/>
<polygon fill="black" stroke="black" points="58.64,-62.5 48.64,-66 58.64,-69.5 58.64,-62.5"/>
</g>
<!-- Node3 -->
<g id="Node000003" class="node">
<title>Node3</title>
<g id="a_Node000003"><a xlink:href="group___h_t32_f5xxxx___system___private___defines.html" target="_top" xlink:title=" ">
<polygon fill="white" stroke="#666666" points="370.5,-132 226.25,-132 226.25,-100 370.5,-100 370.5,-132"/>
<text text-anchor="start" x="234.25" y="-118.5" font-family="Helvetica,sans-Serif" font-size="10.00">HT32F5xxxx_System_Private</text>
<text text-anchor="middle" x="298.38" y="-106.5" font-family="Helvetica,sans-Serif" font-size="10.00">_Defines</text>
</a>
</g>
</g>
<!-- Node5 -->
<g id="Node000005" class="node">
<title>Node5</title>
<g id="a_Node000005"><a xlink:href="group___h_t32_f5xxxx___system___private___functions.html" target="_top" xlink:title=" ">
<polygon fill="white" stroke="#666666" points="370.5,-82 226.25,-82 226.25,-50 370.5,-50 370.5,-82"/>
<text text-anchor="start" x="234.25" y="-68.5" font-family="Helvetica,sans-Serif" font-size="10.00">HT32F5xxxx_System_Private</text>
<text text-anchor="middle" x="298.38" y="-56.5" font-family="Helvetica,sans-Serif" font-size="10.00">_Functions</text>
</a>
</g>
</g>
<!-- Node4 -->
<g id="Node000004" class="node">
<title>Node4</title>
<g id="a_Node000004"><a xlink:href="group___h_t32_f5xxxx___system___private___variables.html" target="_top" xlink:title=" ">
<polygon fill="white" stroke="#666666" points="370.5,-32 226.25,-32 226.25,0 370.5,0 370.5,-32"/>
<text text-anchor="start" x="234.25" y="-18.5" font-family="Helvetica,sans-Serif" font-size="10.00">HT32F5xxxx_System_Private</text>
<text text-anchor="middle" x="298.38" y="-6.5" font-family="Helvetica,sans-Serif" font-size="10.00">_Variables</text>
</a>
</g>
</g>
<!-- Node1&#45;&gt;Node3 -->
<g id="edge2" class="edge">
<title>Node1&#45;&gt;Node3</title>
<path fill="none" stroke="black" d="M181.74,-79.84C201.25,-85.94 224.32,-93.15 244.71,-99.53"/>
<polygon fill="black" stroke="black" points="183.05,-76.58 172.46,-76.93 180.96,-83.26 183.05,-76.58"/>
</g>
<!-- Node1&#45;&gt;Node5 -->
<g id="edge4" class="edge">
<title>Node1&#45;&gt;Node5</title>
<path fill="none" stroke="black" d="M202.04,-66C209.89,-66 217.94,-66 225.88,-66"/>
<polygon fill="black" stroke="black" points="202.25,-62.5 192.25,-66 202.25,-69.5 202.25,-62.5"/>
</g>
<!-- Node1&#45;&gt;Node4 -->
<g id="edge3" class="edge">
<title>Node1&#45;&gt;Node4</title>
<path fill="none" stroke="black" d="M181.74,-52.16C201.25,-46.06 224.32,-38.85 244.71,-32.47"/>
<polygon fill="black" stroke="black" points="180.96,-48.74 172.46,-55.07 183.05,-55.42 180.96,-48.74"/>
</g>
</g>
</svg>
