<?xml version="1.0" encoding="UTF-8" standalone="no"?>
<!DOCTYPE svg PUBLIC "-//W3C//DTD SVG 1.1//EN"
 "http://www.w3.org/Graphics/SVG/1.1/DTD/svg11.dtd">
<!-- Generated by graphviz version 9.0.0 (20230911.1827)
 -->
<!-- Title: PWRCU Pages: 1 -->
<svg width="394pt" height="256pt"
 viewBox="0.00 0.00 394.25 256.00" xmlns="http://www.w3.org/2000/svg" xmlns:xlink="http://www.w3.org/1999/xlink">
<g id="graph0" class="graph" transform="scale(1 1) rotate(0) translate(4 252)">
<title>PWRCU</title>
<!-- Node4 -->
<g id="Node000004" class="node">
<title>Node4</title>
<g id="a_Node000004"><a xlink:href="group___b_o_d___l_v_d.html" target="_top" xlink:title=" ">
<polygon fill="white" stroke="#666666" points="351.75,-248 290.75,-248 290.75,-228 351.75,-228 351.75,-248"/>
<text text-anchor="middle" x="321.25" y="-234.5" font-family="Helvetica,sans-Serif" font-size="10.00">BOD_LVD</text>
</a>
</g>
</g>
<!-- Node3 -->
<g id="Node000003" class="node">
<title>Node3</title>
<g id="a_Node000003"><a xlink:href="group___backup_data.html" target="_top" xlink:title=" ">
<polygon fill="white" stroke="#666666" points="355.88,-210 286.62,-210 286.62,-190 355.88,-190 355.88,-210"/>
<text text-anchor="middle" x="321.25" y="-196.5" font-family="Helvetica,sans-Serif" font-size="10.00">BackupData</text>
</a>
</g>
</g>
<!-- Node5 -->
<g id="Node000005" class="node">
<title>Node5</title>
<g id="a_Node000005"><a xlink:href="group___deep_sleep_mode1.html" target="_top" xlink:title=" ">
<polygon fill="white" stroke="#666666" points="367.5,-172 275,-172 275,-152 367.5,-152 367.5,-172"/>
<text text-anchor="middle" x="321.25" y="-158.5" font-family="Helvetica,sans-Serif" font-size="10.00">DeepSleepMode1</text>
</a>
</g>
</g>
<!-- Node6 -->
<g id="Node000006" class="node">
<title>Node6</title>
<g id="a_Node000006"><a xlink:href="group___deep_sleep_mode2.html" target="_top" xlink:title=" ">
<polygon fill="white" stroke="#666666" points="367.5,-134 275,-134 275,-114 367.5,-114 367.5,-134"/>
<text text-anchor="middle" x="321.25" y="-120.5" font-family="Helvetica,sans-Serif" font-size="10.00">DeepSleepMode2</text>
</a>
</g>
</g>
<!-- Node2 -->
<g id="Node000002" class="node">
<title>Node2</title>
<g id="a_Node000002"><a xlink:href="group___h_t32___series___peripheral___examples.html" target="_top" xlink:title=" ">
<polygon fill="white" stroke="#666666" points="131.5,-134 0,-134 0,-114 131.5,-114 131.5,-134"/>
<text text-anchor="middle" x="65.75" y="-120.5" font-family="Helvetica,sans-Serif" font-size="10.00">HT32 Peripheral Examples</text>
</a>
</g>
</g>
<!-- Node1 -->
<g id="Node000001" class="node">
<title>Node1</title>
<g id="a_Node000001"><a xlink:title=" ">
<polygon fill="#999999" stroke="#666666" points="220.25,-134 167.5,-134 167.5,-114 220.25,-114 220.25,-134"/>
<text text-anchor="middle" x="193.88" y="-120.5" font-family="Helvetica,sans-Serif" font-size="10.00">PWRCU</text>
</a>
</g>
</g>
<!-- Node2&#45;&gt;Node1 -->
<g id="edge1" class="edge">
<title>Node2&#45;&gt;Node1</title>
<path fill="none" stroke="black" d="M143.05,-124C151.61,-124 159.83,-124 167.04,-124"/>
<polygon fill="black" stroke="black" points="143.17,-120.5 133.17,-124 143.17,-127.5 143.17,-120.5"/>
</g>
<!-- Node1&#45;&gt;Node4 -->
<g id="edge3" class="edge">
<title>Node1&#45;&gt;Node4</title>
<path fill="none" stroke="black" d="M203.04,-144.67C212.62,-166.3 230.54,-199.74 256.25,-219 266.18,-226.44 278.99,-230.97 290.53,-233.74"/>
<polygon fill="black" stroke="black" points="206.37,-143.56 199.27,-135.7 199.92,-146.27 206.37,-143.56"/>
</g>
<!-- Node1&#45;&gt;Node3 -->
<g id="edge2" class="edge">
<title>Node1&#45;&gt;Node3</title>
<path fill="none" stroke="black" d="M210.76,-142.72C222.25,-155.17 238.77,-171.03 256.25,-181 265.41,-186.23 276.15,-190.14 286.18,-193.01"/>
<polygon fill="black" stroke="black" points="213.61,-140.66 204.35,-135.51 208.38,-145.31 213.61,-140.66"/>
</g>
<!-- Node1&#45;&gt;Node5 -->
<g id="edge4" class="edge">
<title>Node1&#45;&gt;Node5</title>
<path fill="none" stroke="black" d="M231.32,-135.36C239.52,-137.89 248.18,-140.55 256.25,-143 265.46,-145.79 275.42,-148.77 284.68,-151.52"/>
<polygon fill="black" stroke="black" points="232.57,-132.08 221.98,-132.46 230.5,-138.77 232.57,-132.08"/>
</g>
<!-- Node1&#45;&gt;Node6 -->
<g id="edge5" class="edge">
<title>Node1&#45;&gt;Node6</title>
<path fill="none" stroke="black" d="M231.77,-124C245.18,-124 260.5,-124 274.58,-124"/>
<polygon fill="black" stroke="black" points="232.06,-120.5 222.06,-124 232.06,-127.5 232.06,-120.5"/>
</g>
<!-- Node9 -->
<g id="Node000009" class="node">
<title>Node9</title>
<g id="a_Node000009"><a xlink:href="group___power_down_mode.html" target="_top" xlink:title=" ">
<polygon fill="white" stroke="#666666" points="366.75,-96 275.75,-96 275.75,-76 366.75,-76 366.75,-96"/>
<text text-anchor="middle" x="321.25" y="-82.5" font-family="Helvetica,sans-Serif" font-size="10.00">PowerDownMode</text>
</a>
</g>
</g>
<!-- Node1&#45;&gt;Node9 -->
<g id="edge8" class="edge">
<title>Node1&#45;&gt;Node9</title>
<path fill="none" stroke="black" d="M231.32,-112.64C239.52,-110.11 248.18,-107.45 256.25,-105 265.46,-102.21 275.42,-99.23 284.68,-96.48"/>
<polygon fill="black" stroke="black" points="230.5,-109.23 221.98,-115.54 232.57,-115.92 230.5,-109.23"/>
</g>
<!-- Node7 -->
<g id="Node000007" class="node">
<title>Node7</title>
<g id="a_Node000007"><a xlink:href="group___power_down___r_t_c.html" target="_top" xlink:title=" ">
<polygon fill="white" stroke="#666666" points="366.75,-58 275.75,-58 275.75,-38 366.75,-38 366.75,-58"/>
<text text-anchor="middle" x="321.25" y="-44.5" font-family="Helvetica,sans-Serif" font-size="10.00">PowerDown_RTC</text>
</a>
</g>
</g>
<!-- Node1&#45;&gt;Node7 -->
<g id="edge6" class="edge">
<title>Node1&#45;&gt;Node7</title>
<path fill="none" stroke="black" d="M210.76,-105.28C222.25,-92.83 238.77,-76.97 256.25,-67 262.19,-63.61 268.79,-60.77 275.43,-58.42"/>
<polygon fill="black" stroke="black" points="208.38,-102.69 204.35,-112.49 213.61,-107.34 208.38,-102.69"/>
</g>
<!-- Node8 -->
<g id="Node000008" class="node">
<title>Node8</title>
<g id="a_Node000008"><a xlink:href="group___power_down___w_a_k_e_u_p_pin.html" target="_top" xlink:title=" ">
<polygon fill="white" stroke="#666666" points="386.25,-20 256.25,-20 256.25,0 386.25,0 386.25,-20"/>
<text text-anchor="middle" x="321.25" y="-6.5" font-family="Helvetica,sans-Serif" font-size="10.00">PowerDown_WAKEUPPin</text>
</a>
</g>
</g>
<!-- Node1&#45;&gt;Node8 -->
<g id="edge7" class="edge">
<title>Node1&#45;&gt;Node8</title>
<path fill="none" stroke="black" d="M203.04,-103.33C212.62,-81.7 230.54,-48.26 256.25,-29 260.8,-25.6 265.95,-22.8 271.3,-20.5"/>
<polygon fill="black" stroke="black" points="199.92,-101.73 199.27,-112.3 206.37,-104.44 199.92,-101.73"/>
</g>
</g>
</svg>
