<?xml version="1.0" encoding="UTF-8" standalone="no"?>
<!DOCTYPE svg PUBLIC "-//W3C//DTD SVG 1.1//EN"
 "http://www.w3.org/Graphics/SVG/1.1/DTD/svg11.dtd">
<!-- Generated by graphviz version 9.0.0 (20230911.1827)
 -->
<!-- Title: SPI_LCD Pages: 1 -->
<svg width="331pt" height="256pt"
 viewBox="0.00 0.00 330.50 256.00" xmlns="http://www.w3.org/2000/svg" xmlns:xlink="http://www.w3.org/1999/xlink">
<g id="graph0" class="graph" transform="scale(1 1) rotate(0) translate(4 252)">
<title>SPI_LCD</title>
<!-- Node2 -->
<g id="Node000002" class="node">
<title>Node2</title>
<g id="a_Node000002"><a xlink:href="group___common.html" target="_top" xlink:title=" ">
<polygon fill="white" stroke="#666666" points="55,-134 0,-134 0,-114 55,-114 55,-134"/>
<text text-anchor="middle" x="27.5" y="-120.5" font-family="Helvetica,sans-Serif" font-size="10.00">Common</text>
</a>
</g>
</g>
<!-- Node1 -->
<g id="Node000001" class="node">
<title>Node1</title>
<g id="a_Node000001"><a xlink:title="This file provides a set of functions needed to manage the communication between SPI peripheral and L...">
<polygon fill="#999999" stroke="#666666" points="146.75,-134 91,-134 91,-114 146.75,-114 146.75,-134"/>
<text text-anchor="middle" x="118.88" y="-120.5" font-family="Helvetica,sans-Serif" font-size="10.00">SPI_LCD</text>
</a>
</g>
</g>
<!-- Node2&#45;&gt;Node1 -->
<g id="edge1" class="edge">
<title>Node2&#45;&gt;Node1</title>
<path fill="none" stroke="black" d="M66.8,-124C74.87,-124 83.22,-124 90.77,-124"/>
<polygon fill="black" stroke="black" points="66.83,-120.5 56.83,-124 66.83,-127.5 66.83,-120.5"/>
</g>
<!-- Node5 -->
<g id="Node000005" class="node">
<title>Node5</title>
<g id="a_Node000005"><a xlink:href="group___e_b_i___l_c_d___exported___functions.html" target="_top" xlink:title=" ">
<polygon fill="white" stroke="#666666" points="320.62,-248 184.62,-248 184.62,-228 320.62,-228 320.62,-248"/>
<text text-anchor="middle" x="252.62" y="-234.5" font-family="Helvetica,sans-Serif" font-size="10.00">EBI LCD exported functions</text>
</a>
</g>
</g>
<!-- Node8 -->
<g id="Node000008" class="node">
<title>Node8</title>
<g id="a_Node000008"><a xlink:href="group___s_p_i___exported___macros.html" target="_top" xlink:title=" ">
<polygon fill="white" stroke="#666666" points="314.62,-210 190.62,-210 190.62,-190 314.62,-190 314.62,-210"/>
<text text-anchor="middle" x="252.62" y="-196.5" font-family="Helvetica,sans-Serif" font-size="10.00">SPI LCD exported macro</text>
</a>
</g>
</g>
<!-- Node1&#45;&gt;Node5 -->
<g id="edge4" class="edge">
<title>Node1&#45;&gt;Node5</title>
<path fill="none" stroke="black" d="M128.3,-144.77C138.17,-166.49 156.56,-200 182.75,-219 187.47,-222.42 192.78,-225.23 198.3,-227.53"/>
<polygon fill="black" stroke="black" points="131.58,-143.54 124.41,-135.75 125.15,-146.31 131.58,-143.54"/>
</g>
<!-- Node1&#45;&gt;Node8 -->
<g id="edge7" class="edge">
<title>Node1&#45;&gt;Node8</title>
<path fill="none" stroke="black" d="M136.18,-142.81C147.96,-155.31 164.88,-171.17 182.75,-181 188.95,-184.41 195.8,-187.24 202.7,-189.58"/>
<polygon fill="black" stroke="black" points="138.9,-140.61 129.59,-135.56 133.72,-145.31 138.9,-140.61"/>
</g>
<!-- Node7 -->
<g id="Node000007" class="node">
<title>Node7</title>
<g id="a_Node000007"><a xlink:href="group___s_p_i___l_c_d___exported___constants.html" target="_top" xlink:title=" ">
<polygon fill="white" stroke="#666666" points="322.5,-172 182.75,-172 182.75,-152 322.5,-152 322.5,-172"/>
<text text-anchor="middle" x="252.62" y="-158.5" font-family="Helvetica,sans-Serif" font-size="10.00">SPI LCD exported constants</text>
</a>
</g>
</g>
<!-- Node1&#45;&gt;Node7 -->
<g id="edge6" class="edge">
<title>Node1&#45;&gt;Node7</title>
<path fill="none" stroke="black" d="M157.88,-135.65C166.07,-138.11 174.69,-140.67 182.75,-143 192.52,-145.82 203.1,-148.79 212.97,-151.51"/>
<polygon fill="black" stroke="black" points="159.1,-132.36 148.52,-132.81 157.07,-139.06 159.1,-132.36"/>
</g>
<!-- Node9 -->
<g id="Node000009" class="node">
<title>Node9</title>
<g id="a_Node000009"><a xlink:href="group___s_p_i___l_c_d___exported___functions.html" target="_top" xlink:title=" ">
<polygon fill="white" stroke="#666666" points="320.62,-134 184.62,-134 184.62,-114 320.62,-114 320.62,-134"/>
<text text-anchor="middle" x="252.62" y="-120.5" font-family="Helvetica,sans-Serif" font-size="10.00">SPI LCD exported functions</text>
</a>
</g>
</g>
<!-- Node1&#45;&gt;Node9 -->
<g id="edge8" class="edge">
<title>Node1&#45;&gt;Node9</title>
<path fill="none" stroke="black" d="M158.48,-124C166.57,-124 175.34,-124 184.13,-124"/>
<polygon fill="black" stroke="black" points="158.69,-120.5 148.69,-124 158.69,-127.5 158.69,-120.5"/>
</g>
<!-- Node3 -->
<g id="Node000003" class="node">
<title>Node3</title>
<g id="a_Node000003"><a xlink:href="group___s_p_i___l_c_d___private___define.html" target="_top" xlink:title=" ">
<polygon fill="white" stroke="#666666" points="318,-96 187.25,-96 187.25,-76 318,-76 318,-96"/>
<text text-anchor="middle" x="252.62" y="-82.5" font-family="Helvetica,sans-Serif" font-size="10.00">SPI LCD private definitions</text>
</a>
</g>
</g>
<!-- Node1&#45;&gt;Node3 -->
<g id="edge2" class="edge">
<title>Node1&#45;&gt;Node3</title>
<path fill="none" stroke="black" d="M157.88,-112.35C166.07,-109.89 174.69,-107.33 182.75,-105 192.52,-102.18 203.1,-99.21 212.97,-96.49"/>
<polygon fill="black" stroke="black" points="157.07,-108.94 148.52,-115.19 159.1,-115.64 157.07,-108.94"/>
</g>
<!-- Node6 -->
<g id="Node000006" class="node">
<title>Node6</title>
<g id="a_Node000006"><a xlink:href="group___s_p_i___l_c_d___private___functions.html" target="_top" xlink:title=" ">
<polygon fill="white" stroke="#666666" points="315.75,-58 189.5,-58 189.5,-38 315.75,-38 315.75,-58"/>
<text text-anchor="middle" x="252.62" y="-44.5" font-family="Helvetica,sans-Serif" font-size="10.00">SPI LCD private functions</text>
</a>
</g>
</g>
<!-- Node1&#45;&gt;Node6 -->
<g id="edge5" class="edge">
<title>Node1&#45;&gt;Node6</title>
<path fill="none" stroke="black" d="M136.18,-105.19C147.96,-92.69 164.88,-76.83 182.75,-67 188.95,-63.59 195.8,-60.76 202.7,-58.42"/>
<polygon fill="black" stroke="black" points="133.72,-102.69 129.59,-112.44 138.9,-107.39 133.72,-102.69"/>
</g>
<!-- Node4 -->
<g id="Node000004" class="node">
<title>Node4</title>
<g id="a_Node000004"><a xlink:href="group___s_p_i___l_c_d___private___variable.html" target="_top" xlink:title=" ">
<polygon fill="white" stroke="#666666" points="315,-20 190.25,-20 190.25,0 315,0 315,-20"/>
<text text-anchor="middle" x="252.62" y="-6.5" font-family="Helvetica,sans-Serif" font-size="10.00">SPI LCD private variables</text>
</a>
</g>
</g>
<!-- Node1&#45;&gt;Node4 -->
<g id="edge3" class="edge">
<title>Node1&#45;&gt;Node4</title>
<path fill="none" stroke="black" d="M128.3,-103.23C138.17,-81.51 156.56,-48 182.75,-29 187.47,-25.58 192.78,-22.77 198.3,-20.47"/>
<polygon fill="black" stroke="black" points="125.15,-101.69 124.41,-112.25 131.58,-104.46 125.15,-101.69"/>
</g>
</g>
</svg>
