<?xml version="1.0" encoding="UTF-8" standalone="no"?>
<!DOCTYPE svg PUBLIC "-//W3C//DTD SVG 1.1//EN"
 "http://www.w3.org/Graphics/SVG/1.1/DTD/svg11.dtd">
<!-- Generated by graphviz version 9.0.0 (20230911.1827)
 -->
<!-- Title: SLED Pages: 1 -->
<svg width="357pt" height="104pt"
 viewBox="0.00 0.00 356.75 104.00" xmlns="http://www.w3.org/2000/svg" xmlns:xlink="http://www.w3.org/1999/xlink">
<g id="graph0" class="graph" transform="scale(1 1) rotate(0) translate(4 100)">
<title>SLED</title>
<!-- Node3 -->
<g id="Node000003" class="node">
<title>Node3</title>
<g id="a_Node000003"><a xlink:href="group___a_r_g_b___get_l_e_d_num.html" target="_top" xlink:title=" ">
<polygon fill="white" stroke="#666666" points="348.75,-96 245,-96 245,-76 348.75,-76 348.75,-96"/>
<text text-anchor="middle" x="296.88" y="-82.5" font-family="Helvetica,sans-Serif" font-size="10.00">ARGB_GetLEDNum</text>
</a>
</g>
</g>
<!-- Node2 -->
<g id="Node000002" class="node">
<title>Node2</title>
<g id="a_Node000002"><a xlink:href="group___h_t32___series___peripheral___examples.html" target="_top" xlink:title=" ">
<polygon fill="white" stroke="#666666" points="131.5,-58 0,-58 0,-38 131.5,-38 131.5,-58"/>
<text text-anchor="middle" x="65.75" y="-44.5" font-family="Helvetica,sans-Serif" font-size="10.00">HT32 Peripheral Examples</text>
</a>
</g>
</g>
<!-- Node1 -->
<g id="Node000001" class="node">
<title>Node1</title>
<g id="a_Node000001"><a xlink:title=" ">
<polygon fill="#999999" stroke="#666666" points="209,-58 167.5,-58 167.5,-38 209,-38 209,-58"/>
<text text-anchor="middle" x="188.25" y="-44.5" font-family="Helvetica,sans-Serif" font-size="10.00">SLED</text>
</a>
</g>
</g>
<!-- Node2&#45;&gt;Node1 -->
<g id="edge1" class="edge">
<title>Node2&#45;&gt;Node1</title>
<path fill="none" stroke="black" d="M143.45,-48C152.04,-48 160.15,-48 167,-48"/>
<polygon fill="black" stroke="black" points="143.45,-44.5 133.45,-48 143.45,-51.5 143.45,-44.5"/>
</g>
<!-- Node4 -->
<g id="Node000004" class="node">
<title>Node4</title>
<g id="a_Node000004"><a xlink:href="group___p_d_m_a.html" target="_top" xlink:title=" ">
<polygon fill="white" stroke="#666666" points="319.12,-58 274.62,-58 274.62,-38 319.12,-38 319.12,-58"/>
<text text-anchor="middle" x="296.88" y="-44.5" font-family="Helvetica,sans-Serif" font-size="10.00">PDMA</text>
</a>
</g>
</g>
<!-- Node5 -->
<g id="Node000005" class="node">
<title>Node5</title>
<g id="a_Node000005"><a xlink:href="group___r_g_b.html" target="_top" xlink:title=" ">
<polygon fill="white" stroke="#666666" points="315.38,-20 278.38,-20 278.38,0 315.38,0 315.38,-20"/>
<text text-anchor="middle" x="296.88" y="-6.5" font-family="Helvetica,sans-Serif" font-size="10.00">RGB</text>
</a>
</g>
</g>
<!-- Node1&#45;&gt;Node3 -->
<g id="edge2" class="edge">
<title>Node1&#45;&gt;Node3</title>
<path fill="none" stroke="black" d="M219.9,-58.92C234.6,-64.16 252.13,-70.41 266.65,-75.58"/>
<polygon fill="black" stroke="black" points="221.33,-55.72 210.73,-55.66 218.98,-62.31 221.33,-55.72"/>
</g>
<!-- Node1&#45;&gt;Node4 -->
<g id="edge3" class="edge">
<title>Node1&#45;&gt;Node4</title>
<path fill="none" stroke="black" d="M220.59,-48C237.92,-48 259,-48 274.45,-48"/>
<polygon fill="black" stroke="black" points="220.82,-44.5 210.82,-48 220.82,-51.5 220.82,-44.5"/>
</g>
<!-- Node1&#45;&gt;Node5 -->
<g id="edge4" class="edge">
<title>Node1&#45;&gt;Node5</title>
<path fill="none" stroke="black" d="M220.04,-37.03C238.85,-30.32 262.24,-21.99 278.04,-16.36"/>
<polygon fill="black" stroke="black" points="218.98,-33.69 210.73,-40.34 221.33,-40.28 218.98,-33.69"/>
</g>
</g>
</svg>
