<?xml version="1.0" encoding="UTF-8" standalone="no"?>
<!DOCTYPE svg PUBLIC "-//W3C//DTD SVG 1.1//EN"
 "http://www.w3.org/Graphics/SVG/1.1/DTD/svg11.dtd">
<!-- Generated by graphviz version 9.0.0 (20230911.1827)
 -->
<!-- Title: I2C Pages: 1 -->
<svg width="363pt" height="332pt"
 viewBox="0.00 0.00 362.75 332.00" xmlns="http://www.w3.org/2000/svg" xmlns:xlink="http://www.w3.org/1999/xlink">
<g id="graph0" class="graph" transform="scale(1 1) rotate(0) translate(4 328)">
<title>I2C</title>
<!-- Node7 -->
<g id="Node000007" class="node">
<title>Node7</title>
<g id="a_Node000007"><a xlink:href="group___e_e_p_r_o_m.html" target="_top" xlink:title=" ">
<polygon fill="white" stroke="#666666" points="323.62,-324 264.88,-324 264.88,-304 323.62,-304 323.62,-324"/>
<text text-anchor="middle" x="294.25" y="-310.5" font-family="Helvetica,sans-Serif" font-size="10.00">EEPROM</text>
</a>
</g>
</g>
<!-- Node8 -->
<g id="Node000008" class="node">
<title>Node8</title>
<g id="a_Node000008"><a xlink:href="group___e_e_p_r_o_m___simulate.html" target="_top" xlink:title=" ">
<polygon fill="white" stroke="#666666" points="345.38,-286 243.12,-286 243.12,-266 345.38,-266 345.38,-286"/>
<text text-anchor="middle" x="294.25" y="-272.5" font-family="Helvetica,sans-Serif" font-size="10.00">EEPROM_Simulate</text>
</a>
</g>
</g>
<!-- Node2 -->
<g id="Node000002" class="node">
<title>Node2</title>
<g id="a_Node000002"><a xlink:href="group___h_t32___series___peripheral___examples.html" target="_top" xlink:title=" ">
<polygon fill="white" stroke="#666666" points="131.5,-172 0,-172 0,-152 131.5,-152 131.5,-172"/>
<text text-anchor="middle" x="65.75" y="-158.5" font-family="Helvetica,sans-Serif" font-size="10.00">HT32 Peripheral Examples</text>
</a>
</g>
</g>
<!-- Node1 -->
<g id="Node000001" class="node">
<title>Node1</title>
<g id="a_Node000001"><a xlink:title=" ">
<polygon fill="#999999" stroke="#666666" points="197.75,-172 167.5,-172 167.5,-152 197.75,-152 197.75,-172"/>
<text text-anchor="middle" x="182.62" y="-158.5" font-family="Helvetica,sans-Serif" font-size="10.00">I2C</text>
</a>
</g>
</g>
<!-- Node2&#45;&gt;Node1 -->
<g id="edge1" class="edge">
<title>Node2&#45;&gt;Node1</title>
<path fill="none" stroke="black" d="M143.29,-162C152.38,-162 160.75,-162 167.34,-162"/>
<polygon fill="black" stroke="black" points="143.42,-158.5 133.42,-162 143.42,-165.5 143.42,-158.5"/>
</g>
<!-- Node3 -->
<g id="Node000003" class="node">
<title>Node3</title>
<g id="a_Node000003"><a xlink:href="group___i2_c__10__bit__mode.html" target="_top" xlink:title=" ">
<polygon fill="white" stroke="#666666" points="339.75,-248 248.75,-248 248.75,-228 339.75,-228 339.75,-248"/>
<text text-anchor="middle" x="294.25" y="-234.5" font-family="Helvetica,sans-Serif" font-size="10.00">I2C_10_bit_mode</text>
</a>
</g>
</g>
<!-- Node4 -->
<g id="Node000004" class="node">
<title>Node4</title>
<g id="a_Node000004"><a xlink:href="group___i2_c__7__bit__mode.html" target="_top" xlink:title=" ">
<polygon fill="white" stroke="#666666" points="337.12,-210 251.38,-210 251.38,-190 337.12,-190 337.12,-210"/>
<text text-anchor="middle" x="294.25" y="-196.5" font-family="Helvetica,sans-Serif" font-size="10.00">I2C_7_bit_mode</text>
</a>
</g>
</g>
<!-- Node5 -->
<g id="Node000005" class="node">
<title>Node5</title>
<g id="a_Node000005"><a xlink:href="group___i2_c__7__bit__mode__master.html" target="_top" xlink:title=" ">
<polygon fill="white" stroke="#666666" points="354.75,-172 233.75,-172 233.75,-152 354.75,-152 354.75,-172"/>
<text text-anchor="middle" x="294.25" y="-158.5" font-family="Helvetica,sans-Serif" font-size="10.00">I2C_7_bit_mode_master</text>
</a>
</g>
</g>
<!-- Node6 -->
<g id="Node000006" class="node">
<title>Node6</title>
<g id="a_Node000006"><a xlink:href="group___i2_c__7__bit__mode__slave.html" target="_top" xlink:title=" ">
<polygon fill="white" stroke="#666666" points="350.62,-134 237.88,-134 237.88,-114 350.62,-114 350.62,-134"/>
<text text-anchor="middle" x="294.25" y="-120.5" font-family="Helvetica,sans-Serif" font-size="10.00">I2C_7_bit_mode_slave</text>
</a>
</g>
</g>
<!-- Node1&#45;&gt;Node7 -->
<g id="edge6" class="edge">
<title>Node1&#45;&gt;Node7</title>
<path fill="none" stroke="black" d="M185.96,-183.67C190.27,-212.95 202.11,-264.95 233.75,-295 242.08,-302.92 253.72,-307.53 264.49,-310.23"/>
<polygon fill="black" stroke="black" points="189.44,-183.28 184.7,-173.81 182.5,-184.17 189.44,-183.28"/>
</g>
<!-- Node1&#45;&gt;Node8 -->
<g id="edge7" class="edge">
<title>Node1&#45;&gt;Node8</title>
<path fill="none" stroke="black" d="M189.56,-183.14C196.65,-204.68 210.58,-237.59 233.75,-257 237.82,-260.41 242.52,-263.21 247.45,-265.51"/>
<polygon fill="black" stroke="black" points="192.94,-182.22 186.67,-173.68 186.24,-184.26 192.94,-182.22"/>
</g>
<!-- Node1&#45;&gt;Node3 -->
<g id="edge2" class="edge">
<title>Node1&#45;&gt;Node3</title>
<path fill="none" stroke="black" d="M196.51,-181.44C205.6,-193.78 218.78,-209.21 233.75,-219 238.92,-222.38 244.74,-225.2 250.66,-227.54"/>
<polygon fill="black" stroke="black" points="199.63,-179.79 191.02,-173.61 193.9,-183.81 199.63,-179.79"/>
</g>
<!-- Node1&#45;&gt;Node4 -->
<g id="edge3" class="edge">
<title>Node1&#45;&gt;Node4</title>
<path fill="none" stroke="black" d="M208.57,-171.75C216.58,-174.81 225.51,-178.12 233.75,-181 242.04,-183.89 251.04,-186.86 259.48,-189.56"/>
<polygon fill="black" stroke="black" points="210.03,-168.57 199.44,-168.24 207.51,-175.1 210.03,-168.57"/>
</g>
<!-- Node1&#45;&gt;Node5 -->
<g id="edge4" class="edge">
<title>Node1&#45;&gt;Node5</title>
<path fill="none" stroke="black" d="M209.34,-162C216.75,-162 225.16,-162 233.72,-162"/>
<polygon fill="black" stroke="black" points="209.47,-158.5 199.47,-162 209.47,-165.5 209.47,-158.5"/>
</g>
<!-- Node1&#45;&gt;Node6 -->
<g id="edge5" class="edge">
<title>Node1&#45;&gt;Node6</title>
<path fill="none" stroke="black" d="M208.57,-152.25C216.58,-149.19 225.51,-145.88 233.75,-143 242.04,-140.11 251.04,-137.14 259.48,-134.44"/>
<polygon fill="black" stroke="black" points="207.51,-148.9 199.44,-155.76 210.03,-155.43 207.51,-148.9"/>
</g>
<!-- Node9 -->
<g id="Node000009" class="node">
<title>Node9</title>
<g id="a_Node000009"><a xlink:href="group___i2_c___interrupt.html" target="_top" xlink:title=" ">
<polygon fill="white" stroke="#666666" points="329.62,-96 258.88,-96 258.88,-76 329.62,-76 329.62,-96"/>
<text text-anchor="middle" x="294.25" y="-82.5" font-family="Helvetica,sans-Serif" font-size="10.00">I2C_Interrupt</text>
</a>
</g>
</g>
<!-- Node1&#45;&gt;Node9 -->
<g id="edge8" class="edge">
<title>Node1&#45;&gt;Node9</title>
<path fill="none" stroke="black" d="M196.51,-142.56C205.6,-130.22 218.78,-114.79 233.75,-105 241.19,-100.13 249.97,-96.43 258.47,-93.65"/>
<polygon fill="black" stroke="black" points="193.9,-140.19 191.02,-150.39 199.63,-144.21 193.9,-140.19"/>
</g>
<!-- Node10 -->
<g id="Node000010" class="node">
<title>Node10</title>
<g id="a_Node000010"><a xlink:href="group___i2_c___p_d_m_a.html" target="_top" xlink:title=" ">
<polygon fill="white" stroke="#666666" points="326.25,-58 262.25,-58 262.25,-38 326.25,-38 326.25,-58"/>
<text text-anchor="middle" x="294.25" y="-44.5" font-family="Helvetica,sans-Serif" font-size="10.00">I2C_PDMA</text>
</a>
</g>
</g>
<!-- Node1&#45;&gt;Node10 -->
<g id="edge9" class="edge">
<title>Node1&#45;&gt;Node10</title>
<path fill="none" stroke="black" d="M189.56,-140.86C196.65,-119.32 210.58,-86.41 233.75,-67 241.73,-60.32 252.09,-55.97 261.93,-53.16"/>
<polygon fill="black" stroke="black" points="186.24,-139.74 186.67,-150.32 192.94,-141.78 186.24,-139.74"/>
</g>
<!-- Node11 -->
<g id="Node000011" class="node">
<title>Node11</title>
<g id="a_Node000011"><a xlink:href="group___touch_key.html" target="_top" xlink:title=" ">
<polygon fill="white" stroke="#666666" points="324,-20 264.5,-20 264.5,0 324,0 324,-20"/>
<text text-anchor="middle" x="294.25" y="-6.5" font-family="Helvetica,sans-Serif" font-size="10.00">TouchKey</text>
</a>
</g>
</g>
<!-- Node1&#45;&gt;Node11 -->
<g id="edge10" class="edge">
<title>Node1&#45;&gt;Node11</title>
<path fill="none" stroke="black" d="M185.96,-140.33C190.27,-111.05 202.11,-59.05 233.75,-29 242.01,-21.16 253.5,-16.55 264.18,-13.85"/>
<polygon fill="black" stroke="black" points="182.5,-139.83 184.7,-150.19 189.44,-140.72 182.5,-139.83"/>
</g>
</g>
</svg>
