<?xml version="1.0" encoding="UTF-8" standalone="no"?>
<!DOCTYPE svg PUBLIC "-//W3C//DTD SVG 1.1//EN"
 "http://www.w3.org/Graphics/SVG/1.1/DTD/svg11.dtd">
<!-- Generated by graphviz version 9.0.0 (20230911.1827)
 -->
<!-- Title: HT32F0006 Development Board exported constants Pages: 1 -->
<svg width="460pt" height="256pt"
 viewBox="0.00 0.00 460.25 256.00" xmlns="http://www.w3.org/2000/svg" xmlns:xlink="http://www.w3.org/1999/xlink">
<g id="graph0" class="graph" transform="scale(1 1) rotate(0) translate(4 252)">
<title>HT32F0006 Development Board exported constants</title>
<!-- Node2 -->
<g id="Node000002" class="node">
<title>Node2</title>
<g id="a_Node000002"><a xlink:href="group___h_t32_f0006___d_v_b.html" target="_top" xlink:title=" ">
<polygon fill="white" stroke="#666666" points="91,-134 0,-134 0,-114 91,-114 91,-134"/>
<text text-anchor="middle" x="45.5" y="-120.5" font-family="Helvetica,sans-Serif" font-size="10.00">HT32F0006_DVB</text>
</a>
</g>
</g>
<!-- Node1 -->
<g id="Node000001" class="node">
<title>Node1</title>
<g id="a_Node000001"><a xlink:title=" ">
<polygon fill="#999999" stroke="#666666" points="257.75,-140 127,-140 127,-108 257.75,-108 257.75,-140"/>
<text text-anchor="start" x="135" y="-126.5" font-family="Helvetica,sans-Serif" font-size="10.00">HT32F0006 Development</text>
<text text-anchor="middle" x="192.38" y="-114.5" font-family="Helvetica,sans-Serif" font-size="10.00"> Board exported constants</text>
</a>
</g>
</g>
<!-- Node2&#45;&gt;Node1 -->
<g id="edge1" class="edge">
<title>Node2&#45;&gt;Node1</title>
<path fill="none" stroke="black" d="M102.49,-124C110.4,-124 118.58,-124 126.63,-124"/>
<polygon fill="black" stroke="black" points="102.66,-120.5 92.66,-124 102.66,-127.5 102.66,-120.5"/>
</g>
<!-- Node4 -->
<g id="Node000004" class="node">
<title>Node4</title>
<g id="a_Node000004"><a xlink:href="group___h_t32_f0006___d_v_b___b_u_t_t_o_n.html" target="_top" xlink:title=" ">
<polygon fill="white" stroke="#666666" points="440.25,-248 305.75,-248 305.75,-228 440.25,-228 440.25,-248"/>
<text text-anchor="middle" x="373" y="-234.5" font-family="Helvetica,sans-Serif" font-size="10.00">HT32F0006_DVB_BUTTON</text>
</a>
</g>
</g>
<!-- Node5 -->
<g id="Node000005" class="node">
<title>Node5</title>
<g id="a_Node000005"><a xlink:href="group___h_t32_f0006___d_v_b___b_u_z_z_e_r.html" target="_top" xlink:title=" ">
<polygon fill="white" stroke="#666666" points="439.88,-210 306.12,-210 306.12,-190 439.88,-190 439.88,-210"/>
<text text-anchor="middle" x="373" y="-196.5" font-family="Helvetica,sans-Serif" font-size="10.00">HT32F0006_DVB_BUZZER</text>
</a>
</g>
</g>
<!-- Node6 -->
<g id="Node000006" class="node">
<title>Node6</title>
<g id="a_Node000006"><a xlink:href="group___h_t32_f0006___d_v_b___c_o_m.html" target="_top" xlink:title=" ">
<polygon fill="white" stroke="#666666" points="432.38,-172 313.62,-172 313.62,-152 432.38,-152 432.38,-172"/>
<text text-anchor="middle" x="373" y="-158.5" font-family="Helvetica,sans-Serif" font-size="10.00">HT32F0006_DVB_COM</text>
</a>
</g>
</g>
<!-- Node1&#45;&gt;Node4 -->
<g id="edge3" class="edge">
<title>Node1&#45;&gt;Node4</title>
<path fill="none" stroke="black" d="M213.34,-149.19C231.9,-170.91 261.47,-201.45 293.75,-219 300.01,-222.41 306.89,-225.21 313.88,-227.51"/>
<polygon fill="black" stroke="black" points="216.14,-147.09 207.05,-141.65 210.77,-151.57 216.14,-147.09"/>
</g>
<!-- Node1&#45;&gt;Node5 -->
<g id="edge4" class="edge">
<title>Node1&#45;&gt;Node5</title>
<path fill="none" stroke="black" d="M227.21,-146.36C246.14,-158.05 270.54,-171.8 293.75,-181 302.07,-184.3 311.12,-187.13 320.01,-189.53"/>
<polygon fill="black" stroke="black" points="229.18,-143.47 218.86,-141.1 225.46,-149.39 229.18,-143.47"/>
</g>
<!-- Node1&#45;&gt;Node6 -->
<g id="edge5" class="edge">
<title>Node1&#45;&gt;Node6</title>
<path fill="none" stroke="black" d="M269.29,-140.15C287.43,-144.01 306.32,-148.03 322.88,-151.55"/>
<polygon fill="black" stroke="black" points="270.11,-136.75 259.6,-138.09 268.65,-143.59 270.11,-136.75"/>
</g>
<!-- Node9 -->
<g id="Node000009" class="node">
<title>Node9</title>
<g id="a_Node000009"><a xlink:href="group___h_t32_f0006___d_v_b___i2_c___e_e_p_r_o_m.html" target="_top" xlink:title=" ">
<polygon fill="white" stroke="#666666" points="452.25,-134 293.75,-134 293.75,-114 452.25,-114 452.25,-134"/>
<text text-anchor="middle" x="373" y="-120.5" font-family="Helvetica,sans-Serif" font-size="10.00">HT32F0006_DVB_I2C_EEPROM</text>
</a>
</g>
</g>
<!-- Node1&#45;&gt;Node9 -->
<g id="edge8" class="edge">
<title>Node1&#45;&gt;Node9</title>
<path fill="none" stroke="black" d="M269.58,-124C277.49,-124 285.54,-124 293.48,-124"/>
<polygon fill="black" stroke="black" points="269.63,-120.5 259.63,-124 269.63,-127.5 269.63,-120.5"/>
</g>
<!-- Node3 -->
<g id="Node000003" class="node">
<title>Node3</title>
<g id="a_Node000003"><a xlink:href="group___h_t32_f0006___d_v_b___l_e_d.html" target="_top" xlink:title=" ">
<polygon fill="white" stroke="#666666" points="430.5,-96 315.5,-96 315.5,-76 430.5,-76 430.5,-96"/>
<text text-anchor="middle" x="373" y="-82.5" font-family="Helvetica,sans-Serif" font-size="10.00">HT32F0006_DVB_LED</text>
</a>
</g>
</g>
<!-- Node1&#45;&gt;Node3 -->
<g id="edge2" class="edge">
<title>Node1&#45;&gt;Node3</title>
<path fill="none" stroke="black" d="M269.29,-107.85C287.43,-103.99 306.32,-99.97 322.88,-96.45"/>
<polygon fill="black" stroke="black" points="268.65,-104.41 259.6,-109.91 270.11,-111.25 268.65,-104.41"/>
</g>
<!-- Node7 -->
<g id="Node000007" class="node">
<title>Node7</title>
<g id="a_Node000007"><a xlink:href="group___h_t32_f0006___d_v_b___s_p_i___f_l_a_s_h.html" target="_top" xlink:title=" ">
<polygon fill="white" stroke="#666666" points="447.38,-58 298.62,-58 298.62,-38 447.38,-38 447.38,-58"/>
<text text-anchor="middle" x="373" y="-44.5" font-family="Helvetica,sans-Serif" font-size="10.00">HT32F0006_DVB_SPI_FLASH</text>
</a>
</g>
</g>
<!-- Node1&#45;&gt;Node7 -->
<g id="edge6" class="edge">
<title>Node1&#45;&gt;Node7</title>
<path fill="none" stroke="black" d="M227.21,-101.64C246.14,-89.95 270.54,-76.2 293.75,-67 302.07,-63.7 311.12,-60.87 320.01,-58.47"/>
<polygon fill="black" stroke="black" points="225.46,-98.61 218.86,-106.9 229.18,-104.53 225.46,-98.61"/>
</g>
<!-- Node8 -->
<g id="Node000008" class="node">
<title>Node8</title>
<g id="a_Node000008"><a xlink:href="group___h_t32_f0006___d_v_b___s_p_i___l_c_d.html" target="_top" xlink:title=" ">
<polygon fill="white" stroke="#666666" points="441,-20 305,-20 305,0 441,0 441,-20"/>
<text text-anchor="middle" x="373" y="-6.5" font-family="Helvetica,sans-Serif" font-size="10.00">HT32F0006_DVB_SPI_LCD</text>
</a>
</g>
</g>
<!-- Node1&#45;&gt;Node8 -->
<g id="edge7" class="edge">
<title>Node1&#45;&gt;Node8</title>
<path fill="none" stroke="black" d="M213.34,-98.81C231.9,-77.09 261.47,-46.55 293.75,-29 300.01,-25.59 306.89,-22.79 313.88,-20.49"/>
<polygon fill="black" stroke="black" points="210.77,-96.43 207.05,-106.35 216.14,-100.91 210.77,-96.43"/>
</g>
</g>
</svg>
