<?xml version="1.0" encoding="UTF-8" standalone="no"?>
<!DOCTYPE svg PUBLIC "-//W3C//DTD SVG 1.1//EN"
 "http://www.w3.org/Graphics/SVG/1.1/DTD/svg11.dtd">
<!-- Generated by graphviz version 9.0.0 (20230911.1827)
 -->
<!-- Title: Core register bit field macros Pages: 1 -->
<svg width="370pt" height="40pt"
 viewBox="0.00 0.00 370.25 40.00" xmlns="http://www.w3.org/2000/svg" xmlns:xlink="http://www.w3.org/1999/xlink">
<g id="graph0" class="graph" transform="scale(1 1) rotate(0) translate(4 36)">
<title>Core register bit field macros</title>
<!-- Node2 -->
<g id="Node000002" class="node">
<title>Node2</title>
<g id="a_Node000002"><a xlink:href="group___c_m_s_i_s___d_i_b.html" target="_top" xlink:title="Type definitions for the Debug Identification Block Registers.">
<polygon fill="white" stroke="#666666" points="100.75,-32 0,-32 0,0 100.75,0 100.75,-32"/>
<text text-anchor="start" x="8" y="-18.5" font-family="Helvetica,sans-Serif" font-size="10.00">Debug Identification</text>
<text text-anchor="middle" x="50.38" y="-6.5" font-family="Helvetica,sans-Serif" font-size="10.00"> Block</text>
</a>
</g>
</g>
<!-- Node1 -->
<g id="Node000001" class="node">
<title>Node1</title>
<g id="a_Node000001"><a xlink:title="Macros for use with bit field definitions (xxx_Pos, xxx_Msk).">
<polygon fill="#999999" stroke="#666666" points="242,-32 136.75,-32 136.75,0 242,0 242,-32"/>
<text text-anchor="start" x="144.75" y="-18.5" font-family="Helvetica,sans-Serif" font-size="10.00">Core register bit field</text>
<text text-anchor="middle" x="189.38" y="-6.5" font-family="Helvetica,sans-Serif" font-size="10.00"> macros</text>
</a>
</g>
</g>
<!-- Node2&#45;&gt;Node1 -->
<g id="edge1" class="edge">
<title>Node2&#45;&gt;Node1</title>
<path fill="none" stroke="black" d="M112.71,-16C120.65,-16 128.72,-16 136.49,-16"/>
<polygon fill="black" stroke="black" points="112.74,-12.5 102.74,-16 112.74,-19.5 112.74,-12.5"/>
</g>
<!-- Node3 -->
<g id="Node000003" class="node">
<title>Node3</title>
<g id="a_Node000003"><a xlink:href="group___c_m_s_i_s__core__base.html" target="_top" xlink:title="Definitions for base addresses, unions, and structures.">
<polygon fill="white" stroke="#666666" points="362.25,-26 278,-26 278,-6 362.25,-6 362.25,-26"/>
<text text-anchor="middle" x="320.12" y="-12.5" font-family="Helvetica,sans-Serif" font-size="10.00">Core Definitions</text>
</a>
</g>
</g>
<!-- Node1&#45;&gt;Node3 -->
<g id="edge2" class="edge">
<title>Node1&#45;&gt;Node3</title>
<path fill="none" stroke="black" d="M253.76,-16C261.86,-16 269.99,-16 277.62,-16"/>
<polygon fill="black" stroke="black" points="253.89,-12.5 243.88,-16 253.88,-19.5 253.89,-12.5"/>
</g>
</g>
</svg>
