<?xml version="1.0" encoding="UTF-8" standalone="no"?>
<!DOCTYPE svg PUBLIC "-//W3C//DTD SVG 1.1//EN"
 "http://www.w3.org/Graphics/SVG/1.1/DTD/svg11.dtd">
<!-- Generated by graphviz version 9.0.0 (20230911.1827)
 -->
<!-- Title: TM Pages: 1 -->
<svg width="371pt" height="496pt"
 viewBox="0.00 0.00 371.00 496.00" xmlns="http://www.w3.org/2000/svg" xmlns:xlink="http://www.w3.org/1999/xlink">
<g id="graph0" class="graph" transform="scale(1 1) rotate(0) translate(4 492)">
<title>TM</title>
<!-- Node2 -->
<g id="Node000002" class="node">
<title>Node2</title>
<g id="a_Node000002"><a xlink:href="group___h_t32___series___peripheral___examples.html" target="_top" xlink:title=" ">
<polygon fill="white" stroke="#666666" points="131.5,-260 0,-260 0,-240 131.5,-240 131.5,-260"/>
<text text-anchor="middle" x="65.75" y="-246.5" font-family="Helvetica,sans-Serif" font-size="10.00">HT32 Peripheral Examples</text>
</a>
</g>
</g>
<!-- Node1 -->
<g id="Node000001" class="node">
<title>Node1</title>
<g id="a_Node000001"><a xlink:title=" ">
<polygon fill="#999999" stroke="#666666" points="197,-260 167.5,-260 167.5,-240 197,-240 197,-260"/>
<text text-anchor="middle" x="182.25" y="-246.5" font-family="Helvetica,sans-Serif" font-size="10.00">TM</text>
</a>
</g>
</g>
<!-- Node2&#45;&gt;Node1 -->
<g id="edge1" class="edge">
<title>Node2&#45;&gt;Node1</title>
<path fill="none" stroke="black" d="M143.04,-250C152.1,-250 160.45,-250 167.01,-250"/>
<polygon fill="black" stroke="black" points="143.21,-246.5 133.21,-250 143.21,-253.5 143.21,-246.5"/>
</g>
<!-- Node3 -->
<g id="Node000003" class="node">
<title>Node3</title>
<g id="a_Node000003"><a xlink:href="group___input_capture.html" target="_top" xlink:title=" ">
<polygon fill="white" stroke="#666666" points="333.38,-488 262.62,-488 262.62,-468 333.38,-468 333.38,-488"/>
<text text-anchor="middle" x="298" y="-474.5" font-family="Helvetica,sans-Serif" font-size="10.00">InputCapture</text>
</a>
</g>
</g>
<!-- Node4 -->
<g id="Node000004" class="node">
<title>Node4</title>
<g id="a_Node000004"><a xlink:href="group___internal_trigger.html" target="_top" xlink:title=" ">
<polygon fill="white" stroke="#666666" points="336.38,-450 259.62,-450 259.62,-430 336.38,-430 336.38,-450"/>
<text text-anchor="middle" x="298" y="-436.5" font-family="Helvetica,sans-Serif" font-size="10.00">InternalTrigger</text>
</a>
</g>
</g>
<!-- Node5 -->
<g id="Node000005" class="node">
<title>Node5</title>
<g id="a_Node000005"><a xlink:href="group___match_output_active.html" target="_top" xlink:title=" ">
<polygon fill="white" stroke="#666666" points="347.25,-412 248.75,-412 248.75,-392 347.25,-392 347.25,-412"/>
<text text-anchor="middle" x="298" y="-398.5" font-family="Helvetica,sans-Serif" font-size="10.00">MatchOutputActive</text>
</a>
</g>
</g>
<!-- Node6 -->
<g id="Node000006" class="node">
<title>Node6</title>
<g id="a_Node000006"><a xlink:href="group___match_output_toggle.html" target="_top" xlink:title=" ">
<polygon fill="white" stroke="#666666" points="348.38,-374 247.62,-374 247.62,-354 348.38,-354 348.38,-374"/>
<text text-anchor="middle" x="298" y="-360.5" font-family="Helvetica,sans-Serif" font-size="10.00">MatchOutputToggle</text>
</a>
</g>
</g>
<!-- Node7 -->
<g id="Node000007" class="node">
<title>Node7</title>
<g id="a_Node000007"><a xlink:href="group___p_w_m.html" target="_top" xlink:title=" ">
<polygon fill="white" stroke="#666666" points="318.38,-336 277.62,-336 277.62,-316 318.38,-316 318.38,-336"/>
<text text-anchor="middle" x="298" y="-322.5" font-family="Helvetica,sans-Serif" font-size="10.00">PWM</text>
</a>
</g>
</g>
<!-- Node9 -->
<g id="Node000009" class="node">
<title>Node9</title>
<g id="a_Node000009"><a xlink:href="group___p_w_m_input.html" target="_top" xlink:title=" ">
<polygon fill="white" stroke="#666666" points="328.88,-298 267.12,-298 267.12,-278 328.88,-278 328.88,-298"/>
<text text-anchor="middle" x="298" y="-284.5" font-family="Helvetica,sans-Serif" font-size="10.00">PWMInput</text>
</a>
</g>
</g>
<!-- Node10 -->
<g id="Node000010" class="node">
<title>Node10</title>
<g id="a_Node000010"><a xlink:href="group___p_w_m_out___p_d_m_a.html" target="_top" xlink:title=" ">
<polygon fill="white" stroke="#666666" points="343.12,-260 252.88,-260 252.88,-240 343.12,-240 343.12,-260"/>
<text text-anchor="middle" x="298" y="-246.5" font-family="Helvetica,sans-Serif" font-size="10.00">PWMOut_PDMA</text>
</a>
</g>
</g>
<!-- Node11 -->
<g id="Node000011" class="node">
<title>Node11</title>
<g id="a_Node000011"><a xlink:href="group___p_w_m_out___p_d_m_a__4_c_h.html" target="_top" xlink:title=" ">
<polygon fill="white" stroke="#666666" points="355.12,-222 240.88,-222 240.88,-202 355.12,-202 355.12,-222"/>
<text text-anchor="middle" x="298" y="-208.5" font-family="Helvetica,sans-Serif" font-size="10.00">PWMOut_PDMA_4CH</text>
</a>
</g>
</g>
<!-- Node8 -->
<g id="Node000008" class="node">
<title>Node8</title>
<g id="a_Node000008"><a xlink:href="group___p_w_m___buzzer.html" target="_top" xlink:title=" ">
<polygon fill="white" stroke="#666666" points="336.38,-184 259.62,-184 259.62,-164 336.38,-164 336.38,-184"/>
<text text-anchor="middle" x="298" y="-170.5" font-family="Helvetica,sans-Serif" font-size="10.00">PWM_Buzzer</text>
</a>
</g>
</g>
<!-- Node12 -->
<g id="Node000012" class="node">
<title>Node12</title>
<g id="a_Node000012"><a xlink:href="group___single_pulse_mode.html" target="_top" xlink:title=" ">
<polygon fill="white" stroke="#666666" points="343.88,-146 252.12,-146 252.12,-126 343.88,-126 343.88,-146"/>
<text text-anchor="middle" x="298" y="-132.5" font-family="Helvetica,sans-Serif" font-size="10.00">SinglePulseMode</text>
</a>
</g>
</g>
<!-- Node1&#45;&gt;Node3 -->
<g id="edge2" class="edge">
<title>Node1&#45;&gt;Node3</title>
<path fill="none" stroke="black" d="M185.66,-271.65C191.4,-319.45 207.34,-431.9 233,-459 240.65,-467.08 251.56,-471.77 262.21,-474.48"/>
<polygon fill="black" stroke="black" points="189.17,-271.53 184.54,-262 182.22,-272.34 189.17,-271.53"/>
</g>
<!-- Node1&#45;&gt;Node4 -->
<g id="edge3" class="edge">
<title>Node1&#45;&gt;Node4</title>
<path fill="none" stroke="black" d="M183.26,-271.62C184.47,-307.63 192.22,-380 233,-421 240.11,-428.15 249.78,-432.63 259.45,-435.44"/>
<polygon fill="black" stroke="black" points="186.76,-271.57 183.08,-261.63 179.76,-271.69 186.76,-271.57"/>
</g>
<!-- Node1&#45;&gt;Node5 -->
<g id="edge4" class="edge">
<title>Node1&#45;&gt;Node5</title>
<path fill="none" stroke="black" d="M185.44,-271.76C189.55,-301.15 201.12,-353.26 233,-383 237.49,-387.19 242.87,-390.46 248.57,-393.01"/>
<polygon fill="black" stroke="black" points="188.91,-271.36 184.24,-261.85 181.96,-272.2 188.91,-271.36"/>
</g>
<!-- Node1&#45;&gt;Node6 -->
<g id="edge5" class="edge">
<title>Node1&#45;&gt;Node6</title>
<path fill="none" stroke="black" d="M189.01,-271.23C195.96,-292.85 209.7,-325.83 233,-345 237.3,-348.53 242.23,-351.41 247.41,-353.75"/>
<polygon fill="black" stroke="black" points="192.4,-270.32 186.2,-261.73 185.69,-272.31 192.4,-270.32"/>
</g>
<!-- Node1&#45;&gt;Node7 -->
<g id="edge6" class="edge">
<title>Node1&#45;&gt;Node7</title>
<path fill="none" stroke="black" d="M195.94,-269.55C204.92,-281.93 218,-297.37 233,-307 246.46,-315.64 264,-320.49 277.32,-323.12"/>
<polygon fill="black" stroke="black" points="199.08,-267.93 190.52,-261.69 193.32,-271.91 199.08,-267.93"/>
</g>
<!-- Node1&#45;&gt;Node9 -->
<g id="edge8" class="edge">
<title>Node1&#45;&gt;Node9</title>
<path fill="none" stroke="black" d="M207.62,-259.73C215.66,-262.83 224.67,-266.18 233,-269 243.98,-272.72 256.14,-276.43 266.9,-279.58"/>
<polygon fill="black" stroke="black" points="209.08,-256.55 198.5,-256.16 206.53,-263.06 209.08,-256.55"/>
</g>
<!-- Node1&#45;&gt;Node10 -->
<g id="edge9" class="edge">
<title>Node1&#45;&gt;Node10</title>
<path fill="none" stroke="black" d="M208.47,-250C221.39,-250 237.52,-250 252.45,-250"/>
<polygon fill="black" stroke="black" points="208.71,-246.5 198.71,-250 208.71,-253.5 208.71,-246.5"/>
</g>
<!-- Node1&#45;&gt;Node11 -->
<g id="edge10" class="edge">
<title>Node1&#45;&gt;Node11</title>
<path fill="none" stroke="black" d="M207.62,-240.27C215.66,-237.17 224.67,-233.82 233,-231 241.67,-228.06 251.09,-225.13 259.96,-222.47"/>
<polygon fill="black" stroke="black" points="206.53,-236.94 198.5,-243.84 209.08,-243.45 206.53,-236.94"/>
</g>
<!-- Node1&#45;&gt;Node8 -->
<g id="edge7" class="edge">
<title>Node1&#45;&gt;Node8</title>
<path fill="none" stroke="black" d="M195.94,-230.45C204.92,-218.07 218,-202.63 233,-193 240.9,-187.93 250.21,-184.16 259.24,-181.39"/>
<polygon fill="black" stroke="black" points="193.32,-228.09 190.52,-238.31 199.08,-232.07 193.32,-228.09"/>
</g>
<!-- Node1&#45;&gt;Node12 -->
<g id="edge11" class="edge">
<title>Node1&#45;&gt;Node12</title>
<path fill="none" stroke="black" d="M189.01,-228.77C195.96,-207.15 209.7,-174.17 233,-155 238.46,-150.51 244.95,-147.08 251.67,-144.46"/>
<polygon fill="black" stroke="black" points="185.69,-227.69 186.2,-238.27 192.4,-229.68 185.69,-227.69"/>
</g>
<!-- Node13 -->
<g id="Node000013" class="node">
<title>Node13</title>
<g id="a_Node000013"><a xlink:href="group___trigger_counter.html" target="_top" xlink:title=" ">
<polygon fill="white" stroke="#666666" points="337.5,-108 258.5,-108 258.5,-88 337.5,-88 337.5,-108"/>
<text text-anchor="middle" x="298" y="-94.5" font-family="Helvetica,sans-Serif" font-size="10.00">TriggerCounter</text>
</a>
</g>
</g>
<!-- Node1&#45;&gt;Node13 -->
<g id="edge12" class="edge">
<title>Node1&#45;&gt;Node13</title>
<path fill="none" stroke="black" d="M185.44,-228.24C189.55,-198.85 201.12,-146.74 233,-117 239.95,-110.52 249.01,-106.24 258.12,-103.42"/>
<polygon fill="black" stroke="black" points="181.96,-227.8 184.24,-238.15 188.91,-228.64 181.96,-227.8"/>
</g>
<!-- Node14 -->
<g id="Node000014" class="node">
<title>Node14</title>
<g id="a_Node000014"><a xlink:href="group___trigger_counter___frequency_measure.html" target="_top" xlink:title=" ">
<polygon fill="white" stroke="#666666" points="363,-70 233,-70 233,-38 363,-38 363,-70"/>
<text text-anchor="start" x="241" y="-56.5" font-family="Helvetica,sans-Serif" font-size="10.00">TriggerCounter_Frequency</text>
<text text-anchor="middle" x="298" y="-44.5" font-family="Helvetica,sans-Serif" font-size="10.00">Measure</text>
</a>
</g>
</g>
<!-- Node1&#45;&gt;Node14 -->
<g id="edge13" class="edge">
<title>Node1&#45;&gt;Node14</title>
<path fill="none" stroke="black" d="M183.67,-228.24C185.5,-192.59 194.16,-121.47 233,-79 235.98,-75.74 239.43,-72.91 243.16,-70.43"/>
<polygon fill="black" stroke="black" points="180.17,-228.02 183.31,-238.13 187.17,-228.27 180.17,-228.02"/>
</g>
<!-- Node15 -->
<g id="Node000015" class="node">
<title>Node15</title>
<g id="a_Node000015"><a xlink:href="group___update_event.html" target="_top" xlink:title=" ">
<polygon fill="white" stroke="#666666" points="333.38,-20 262.62,-20 262.62,0 333.38,0 333.38,-20"/>
<text text-anchor="middle" x="298" y="-6.5" font-family="Helvetica,sans-Serif" font-size="10.00">UpdateEvent</text>
</a>
</g>
</g>
<!-- Node1&#45;&gt;Node15 -->
<g id="edge14" class="edge">
<title>Node1&#45;&gt;Node15</title>
<path fill="none" stroke="black" d="M185.34,-228.46C190.59,-178.75 205.88,-58 233,-29 240.6,-20.87 251.5,-16.17 262.16,-13.46"/>
<polygon fill="black" stroke="black" points="181.88,-227.92 184.35,-238.22 188.84,-228.63 181.88,-227.92"/>
</g>
</g>
</svg>
