<?xml version="1.0" encoding="UTF-8" standalone="no"?>
<!DOCTYPE svg PUBLIC "-//W3C//DTD SVG 1.1//EN"
 "http://www.w3.org/Graphics/SVG/1.1/DTD/svg11.dtd">
<!-- Generated by graphviz version 9.0.0 (20230911.1827)
 -->
<!-- Title: GPIO Pages: 1 -->
<svg width="364pt" height="256pt"
 viewBox="0.00 0.00 363.50 256.00" xmlns="http://www.w3.org/2000/svg" xmlns:xlink="http://www.w3.org/1999/xlink">
<g id="graph0" class="graph" transform="scale(1 1) rotate(0) translate(4 252)">
<title>GPIO</title>
<!-- Node1 -->
<g id="Node000001" class="node">
<title>Node1</title>
<g id="a_Node000001"><a xlink:title="GPIO driver modules.">
<polygon fill="#999999" stroke="#666666" points="193.25,-134 153.25,-134 153.25,-114 193.25,-114 193.25,-134"/>
<text text-anchor="middle" x="173.25" y="-120.5" font-family="Helvetica,sans-Serif" font-size="10.00">GPIO</text>
</a>
</g>
</g>
<!-- Node5 -->
<g id="Node000005" class="node">
<title>Node5</title>
<g id="a_Node000005"><a xlink:href="group___g_p_i_o___exported___constants.html" target="_top" xlink:title=" ">
<polygon fill="white" stroke="#666666" points="355.5,-248 229.25,-248 229.25,-228 355.5,-228 355.5,-248"/>
<text text-anchor="middle" x="292.38" y="-234.5" font-family="Helvetica,sans-Serif" font-size="10.00">GPIO exported constants</text>
</a>
</g>
</g>
<!-- Node1&#45;&gt;Node5 -->
<g id="edge4" class="edge">
<title>Node1&#45;&gt;Node5</title>
<path fill="none" stroke="black" d="M181.15,-144.91C189.31,-166.51 204.95,-199.69 229.25,-219 233.58,-222.44 238.52,-225.26 243.69,-227.57"/>
<polygon fill="black" stroke="black" points="184.52,-143.95 177.88,-135.7 177.92,-146.29 184.52,-143.95"/>
</g>
<!-- Node7 -->
<g id="Node000007" class="node">
<title>Node7</title>
<g id="a_Node000007"><a xlink:href="group___g_p_i_o___exported___functions.html" target="_top" xlink:title=" ">
<polygon fill="white" stroke="#666666" points="353.62,-210 231.12,-210 231.12,-190 353.62,-190 353.62,-210"/>
<text text-anchor="middle" x="292.38" y="-196.5" font-family="Helvetica,sans-Serif" font-size="10.00">GPIO exported functions</text>
</a>
</g>
</g>
<!-- Node1&#45;&gt;Node7 -->
<g id="edge6" class="edge">
<title>Node1&#45;&gt;Node7</title>
<path fill="none" stroke="black" d="M188.43,-143.1C198.55,-155.51 213.18,-171.15 229.25,-181 234.83,-184.42 241.07,-187.26 247.38,-189.62"/>
<polygon fill="black" stroke="black" points="191.47,-141.3 182.55,-135.58 185.95,-145.61 191.47,-141.3"/>
</g>
<!-- Node6 -->
<g id="Node000006" class="node">
<title>Node6</title>
<g id="a_Node000006"><a xlink:href="group___g_p_i_o___exported___macro.html" target="_top" xlink:title=" ">
<polygon fill="white" stroke="#666666" points="347.62,-172 237.12,-172 237.12,-152 347.62,-152 347.62,-172"/>
<text text-anchor="middle" x="292.38" y="-158.5" font-family="Helvetica,sans-Serif" font-size="10.00">GPIO exported macro</text>
</a>
</g>
</g>
<!-- Node1&#45;&gt;Node6 -->
<g id="edge5" class="edge">
<title>Node1&#45;&gt;Node6</title>
<path fill="none" stroke="black" d="M204.36,-134.62C212.43,-137.4 221.15,-140.36 229.25,-143 238.04,-145.86 247.58,-148.84 256.48,-151.57"/>
<polygon fill="black" stroke="black" points="205.56,-131.33 194.97,-131.35 203.26,-137.94 205.56,-131.33"/>
</g>
<!-- Node4 -->
<g id="Node000004" class="node">
<title>Node4</title>
<g id="a_Node000004"><a xlink:href="group___g_p_i_o___exported___types.html" target="_top" xlink:title=" ">
<polygon fill="white" stroke="#666666" points="346.12,-134 238.62,-134 238.62,-114 346.12,-114 346.12,-134"/>
<text text-anchor="middle" x="292.38" y="-120.5" font-family="Helvetica,sans-Serif" font-size="10.00">GPIO exported types</text>
</a>
</g>
</g>
<!-- Node1&#45;&gt;Node4 -->
<g id="edge3" class="edge">
<title>Node1&#45;&gt;Node4</title>
<path fill="none" stroke="black" d="M204.79,-124C215.01,-124 226.71,-124 238.14,-124"/>
<polygon fill="black" stroke="black" points="205.1,-120.5 195.1,-124 205.1,-127.5 205.1,-120.5"/>
</g>
<!-- Node9 -->
<g id="Node000009" class="node">
<title>Node9</title>
<g id="a_Node000009"><a xlink:href="group___g_p_i_o___private___functions.html" target="_top" xlink:title=" ">
<polygon fill="white" stroke="#666666" points="348.75,-96 236,-96 236,-76 348.75,-76 348.75,-96"/>
<text text-anchor="middle" x="292.38" y="-82.5" font-family="Helvetica,sans-Serif" font-size="10.00">GPIO private functions</text>
</a>
</g>
</g>
<!-- Node1&#45;&gt;Node9 -->
<g id="edge8" class="edge">
<title>Node1&#45;&gt;Node9</title>
<path fill="none" stroke="black" d="M204.36,-113.38C212.43,-110.6 221.15,-107.64 229.25,-105 238.04,-102.14 247.58,-99.16 256.48,-96.43"/>
<polygon fill="black" stroke="black" points="203.26,-110.06 194.97,-116.65 205.56,-116.67 203.26,-110.06"/>
</g>
<!-- Node8 -->
<g id="Node000008" class="node">
<title>Node8</title>
<g id="a_Node000008"><a xlink:href="group___g_p_i_o___private___macro.html" target="_top" xlink:title=" ">
<polygon fill="white" stroke="#666666" points="345.38,-58 239.38,-58 239.38,-38 345.38,-38 345.38,-58"/>
<text text-anchor="middle" x="292.38" y="-44.5" font-family="Helvetica,sans-Serif" font-size="10.00">GPIO private macros</text>
</a>
</g>
</g>
<!-- Node1&#45;&gt;Node8 -->
<g id="edge7" class="edge">
<title>Node1&#45;&gt;Node8</title>
<path fill="none" stroke="black" d="M188.43,-104.9C198.55,-92.49 213.18,-76.85 229.25,-67 234.83,-63.58 241.07,-60.74 247.38,-58.38"/>
<polygon fill="black" stroke="black" points="185.95,-102.39 182.55,-112.42 191.47,-106.7 185.95,-102.39"/>
</g>
<!-- Node3 -->
<g id="Node000003" class="node">
<title>Node3</title>
<g id="a_Node000003"><a xlink:href="group___g_p_i_o___settings.html" target="_top" xlink:title=" ">
<polygon fill="white" stroke="#666666" points="331.12,-20 253.62,-20 253.62,0 331.12,0 331.12,-20"/>
<text text-anchor="middle" x="292.38" y="-6.5" font-family="Helvetica,sans-Serif" font-size="10.00">GPIO settings</text>
</a>
</g>
</g>
<!-- Node1&#45;&gt;Node3 -->
<g id="edge2" class="edge">
<title>Node1&#45;&gt;Node3</title>
<path fill="none" stroke="black" d="M181.15,-103.09C189.31,-81.49 204.95,-48.31 229.25,-29 236.23,-23.46 244.81,-19.53 253.35,-16.74"/>
<polygon fill="black" stroke="black" points="177.92,-101.71 177.88,-112.3 184.52,-104.05 177.92,-101.71"/>
</g>
<!-- Node2 -->
<g id="Node000002" class="node">
<title>Node2</title>
<g id="a_Node000002"><a xlink:href="group___h_t32_f5xxxx___peripheral___driver.html" target="_top" xlink:title=" ">
<polygon fill="white" stroke="#666666" points="117.25,-140 0,-140 0,-108 117.25,-108 117.25,-140"/>
<text text-anchor="start" x="8" y="-126.5" font-family="Helvetica,sans-Serif" font-size="10.00">HT32F5xxxx Peripheral</text>
<text text-anchor="middle" x="58.62" y="-114.5" font-family="Helvetica,sans-Serif" font-size="10.00"> Driver</text>
</a>
</g>
</g>
<!-- Node2&#45;&gt;Node1 -->
<g id="edge1" class="edge">
<title>Node2&#45;&gt;Node1</title>
<path fill="none" stroke="black" d="M128.82,-124C137.55,-124 145.85,-124 152.81,-124"/>
<polygon fill="black" stroke="black" points="129.1,-120.5 119.1,-124 129.1,-127.5 129.1,-120.5"/>
</g>
</g>
</svg>
