<?xml version="1.0" encoding="UTF-8" standalone="no"?>
<!DOCTYPE svg PUBLIC "-//W3C//DTD SVG 1.1//EN"
 "http://www.w3.org/Graphics/SVG/1.1/DTD/svg11.dtd">
<!-- Generated by graphviz version 9.0.0 (20230911.1827)
 -->
<!-- Title: HT32F53252 Starter kit exported constants Pages: 1 -->
<svg width="442pt" height="294pt"
 viewBox="0.00 0.00 442.25 294.00" xmlns="http://www.w3.org/2000/svg" xmlns:xlink="http://www.w3.org/1999/xlink">
<g id="graph0" class="graph" transform="scale(1 1) rotate(0) translate(4 290)">
<title>HT32F53252 Starter kit exported constants</title>
<!-- Node2 -->
<g id="Node000002" class="node">
<title>Node2</title>
<g id="a_Node000002"><a xlink:href="group___h_t32_f53252___s_k.html" target="_top" xlink:title=" ">
<polygon fill="white" stroke="#666666" points="89.5,-153 0,-153 0,-133 89.5,-133 89.5,-153"/>
<text text-anchor="middle" x="44.75" y="-139.5" font-family="Helvetica,sans-Serif" font-size="10.00">HT32F53252_SK</text>
</a>
</g>
</g>
<!-- Node1 -->
<g id="Node000001" class="node">
<title>Node1</title>
<g id="a_Node000001"><a xlink:title=" ">
<polygon fill="#999999" stroke="#666666" points="241.25,-159 125.5,-159 125.5,-127 241.25,-127 241.25,-159"/>
<text text-anchor="start" x="133.5" y="-145.5" font-family="Helvetica,sans-Serif" font-size="10.00">HT32F53252 Starter</text>
<text text-anchor="middle" x="183.38" y="-133.5" font-family="Helvetica,sans-Serif" font-size="10.00"> kit exported constants</text>
</a>
</g>
</g>
<!-- Node2&#45;&gt;Node1 -->
<g id="edge1" class="edge">
<title>Node2&#45;&gt;Node1</title>
<path fill="none" stroke="black" d="M101.06,-143C108.95,-143 117.08,-143 125,-143"/>
<polygon fill="black" stroke="black" points="101.24,-139.5 91.24,-143 101.24,-146.5 101.24,-139.5"/>
</g>
<!-- Node4 -->
<g id="Node000004" class="node">
<title>Node4</title>
<g id="a_Node000004"><a xlink:href="group___h_t32_f53252___s_k___b_u_t_t_o_n.html" target="_top" xlink:title=" ">
<polygon fill="white" stroke="#666666" points="422.25,-286 289.25,-286 289.25,-266 422.25,-266 422.25,-286"/>
<text text-anchor="middle" x="355.75" y="-272.5" font-family="Helvetica,sans-Serif" font-size="10.00">HT32F53252_SK_BUTTON</text>
</a>
</g>
</g>
<!-- Node5 -->
<g id="Node000005" class="node">
<title>Node5</title>
<g id="a_Node000005"><a xlink:href="group___h_t32_f53252___s_k___b_u_z_z_e_r.html" target="_top" xlink:title=" ">
<polygon fill="white" stroke="#666666" points="421.88,-248 289.62,-248 289.62,-228 421.88,-228 421.88,-248"/>
<text text-anchor="middle" x="355.75" y="-234.5" font-family="Helvetica,sans-Serif" font-size="10.00">HT32F53252_SK_BUZZER</text>
</a>
</g>
</g>
<!-- Node6 -->
<g id="Node000006" class="node">
<title>Node6</title>
<g id="a_Node000006"><a xlink:href="group___h_t32_f53252___s_k___c_o_m.html" target="_top" xlink:title=" ">
<polygon fill="white" stroke="#666666" points="414.38,-210 297.12,-210 297.12,-190 414.38,-190 414.38,-210"/>
<text text-anchor="middle" x="355.75" y="-196.5" font-family="Helvetica,sans-Serif" font-size="10.00">HT32F53252_SK_COM</text>
</a>
</g>
</g>
<!-- Node8 -->
<g id="Node000008" class="node">
<title>Node8</title>
<g id="a_Node000008"><a xlink:href="group___h_t32_f53252___s_k___e_b_i___l_c_d.html" target="_top" xlink:title=" ">
<polygon fill="white" stroke="#666666" points="423,-172 288.5,-172 288.5,-152 423,-152 423,-172"/>
<text text-anchor="middle" x="355.75" y="-158.5" font-family="Helvetica,sans-Serif" font-size="10.00">HT32F53252_SK_EBI_LCD</text>
</a>
</g>
</g>
<!-- Node1&#45;&gt;Node4 -->
<g id="edge3" class="edge">
<title>Node1&#45;&gt;Node4</title>
<path fill="none" stroke="black" d="M198.74,-169.1C214.54,-195.34 242.39,-234.96 277.25,-257 282.75,-260.48 288.85,-263.32 295.13,-265.64"/>
<polygon fill="black" stroke="black" points="201.92,-167.61 193.85,-160.74 195.87,-171.14 201.92,-167.61"/>
</g>
<!-- Node1&#45;&gt;Node5 -->
<g id="edge4" class="edge">
<title>Node1&#45;&gt;Node5</title>
<path fill="none" stroke="black" d="M207.87,-167.31C225.48,-184.17 250.98,-205.88 277.25,-219 284.07,-222.4 291.53,-225.22 299.05,-227.55"/>
<polygon fill="black" stroke="black" points="210.56,-165.04 200.97,-160.54 205.66,-170.04 210.56,-165.04"/>
</g>
<!-- Node1&#45;&gt;Node6 -->
<g id="edge5" class="edge">
<title>Node1&#45;&gt;Node6</title>
<path fill="none" stroke="black" d="M231.25,-163.75C245.82,-169.78 262.05,-176.06 277.25,-181 286.87,-184.13 297.3,-187.02 307.3,-189.55"/>
<polygon fill="black" stroke="black" points="232.94,-160.67 222.36,-160.02 230.23,-167.12 232.94,-160.67"/>
</g>
<!-- Node1&#45;&gt;Node8 -->
<g id="edge7" class="edge">
<title>Node1&#45;&gt;Node8</title>
<path fill="none" stroke="black" d="M252.67,-150.62C264.4,-151.92 276.58,-153.28 288.27,-154.59"/>
<polygon fill="black" stroke="black" points="253.41,-147.18 243.09,-149.55 252.64,-154.13 253.41,-147.18"/>
</g>
<!-- Node10 -->
<g id="Node000010" class="node">
<title>Node10</title>
<g id="a_Node000010"><a xlink:href="group___h_t32_f53252___s_k___i2_c___e_e_p_r_o_m.html" target="_top" xlink:title=" ">
<polygon fill="white" stroke="#666666" points="434.25,-134 277.25,-134 277.25,-114 434.25,-114 434.25,-134"/>
<text text-anchor="middle" x="355.75" y="-120.5" font-family="Helvetica,sans-Serif" font-size="10.00">HT32F53252_SK_I2C_EEPROM</text>
</a>
</g>
</g>
<!-- Node1&#45;&gt;Node10 -->
<g id="edge9" class="edge">
<title>Node1&#45;&gt;Node10</title>
<path fill="none" stroke="black" d="M252.92,-135.36C260.78,-134.48 268.84,-133.58 276.81,-132.69"/>
<polygon fill="black" stroke="black" points="252.64,-131.87 243.09,-136.45 253.41,-138.82 252.64,-131.87"/>
</g>
<!-- Node3 -->
<g id="Node000003" class="node">
<title>Node3</title>
<g id="a_Node000003"><a xlink:href="group___h_t32_f53252___s_k___l_e_d.html" target="_top" xlink:title=" ">
<polygon fill="white" stroke="#666666" points="412.5,-96 299,-96 299,-76 412.5,-76 412.5,-96"/>
<text text-anchor="middle" x="355.75" y="-82.5" font-family="Helvetica,sans-Serif" font-size="10.00">HT32F53252_SK_LED</text>
</a>
</g>
</g>
<!-- Node1&#45;&gt;Node3 -->
<g id="edge2" class="edge">
<title>Node1&#45;&gt;Node3</title>
<path fill="none" stroke="black" d="M231.25,-122.25C245.82,-116.22 262.05,-109.94 277.25,-105 286.87,-101.87 297.3,-98.98 307.3,-96.45"/>
<polygon fill="black" stroke="black" points="230.23,-118.88 222.36,-125.98 232.94,-125.33 230.23,-118.88"/>
</g>
<!-- Node7 -->
<g id="Node000007" class="node">
<title>Node7</title>
<g id="a_Node000007"><a xlink:href="group___h_t32_f53252___s_k___s_p_i___f_l_a_s_h.html" target="_top" xlink:title=" ">
<polygon fill="white" stroke="#666666" points="429.38,-58 282.12,-58 282.12,-38 429.38,-38 429.38,-58"/>
<text text-anchor="middle" x="355.75" y="-44.5" font-family="Helvetica,sans-Serif" font-size="10.00">HT32F53252_SK_SPI_FLASH</text>
</a>
</g>
</g>
<!-- Node1&#45;&gt;Node7 -->
<g id="edge6" class="edge">
<title>Node1&#45;&gt;Node7</title>
<path fill="none" stroke="black" d="M207.87,-118.69C225.48,-101.83 250.98,-80.12 277.25,-67 284.07,-63.6 291.53,-60.78 299.05,-58.45"/>
<polygon fill="black" stroke="black" points="205.66,-115.96 200.97,-125.46 210.56,-120.96 205.66,-115.96"/>
</g>
<!-- Node9 -->
<g id="Node000009" class="node">
<title>Node9</title>
<g id="a_Node000009"><a xlink:href="group___h_t32_f53252___s_k___s_p_i___l_c_d.html" target="_top" xlink:title=" ">
<polygon fill="white" stroke="#666666" points="423,-20 288.5,-20 288.5,0 423,0 423,-20"/>
<text text-anchor="middle" x="355.75" y="-6.5" font-family="Helvetica,sans-Serif" font-size="10.00">HT32F53252_SK_SPI_LCD</text>
</a>
</g>
</g>
<!-- Node1&#45;&gt;Node9 -->
<g id="edge8" class="edge">
<title>Node1&#45;&gt;Node9</title>
<path fill="none" stroke="black" d="M198.74,-116.9C214.54,-90.66 242.39,-51.04 277.25,-29 282.75,-25.52 288.85,-22.68 295.13,-20.36"/>
<polygon fill="black" stroke="black" points="195.87,-114.86 193.85,-125.26 201.92,-118.39 195.87,-114.86"/>
</g>
</g>
</svg>
