<?xml version="1.0" encoding="UTF-8" standalone="no"?>
<!DOCTYPE svg PUBLIC "-//W3C//DTD SVG 1.1//EN"
 "http://www.w3.org/Graphics/SVG/1.1/DTD/svg11.dtd">
<!-- Generated by graphviz version 9.0.0 (20230911.1827)
 -->
<!-- Title: printf re&#45;implementation Pages: 1 -->
<svg width="429pt" height="104pt"
 viewBox="0.00 0.00 428.75 104.00" xmlns="http://www.w3.org/2000/svg" xmlns:xlink="http://www.w3.org/1999/xlink">
<g id="graph0" class="graph" transform="scale(1 1) rotate(0) translate(4 100)">
<title>printf re&#45;implementation</title>
<!-- Node2 -->
<g id="Node000002" class="node">
<title>Node2</title>
<g id="a_Node000002"><a xlink:href="group___h_t32___peripheral___driver.html" target="_top" xlink:title=" ">
<polygon fill="white" stroke="#666666" points="112,-58 0,-58 0,-38 112,-38 112,-58"/>
<text text-anchor="middle" x="56" y="-44.5" font-family="Helvetica,sans-Serif" font-size="10.00">HT32 Peripheral Driver</text>
</a>
</g>
</g>
<!-- Node1 -->
<g id="Node000001" class="node">
<title>Node1</title>
<g id="a_Node000001"><a xlink:title="printf related functions">
<polygon fill="#999999" stroke="#666666" points="265.25,-58 148,-58 148,-38 265.25,-38 265.25,-58"/>
<text text-anchor="middle" x="206.62" y="-44.5" font-family="Helvetica,sans-Serif" font-size="10.00">printf re&#45;implementation</text>
</a>
</g>
</g>
<!-- Node2&#45;&gt;Node1 -->
<g id="edge1" class="edge">
<title>Node2&#45;&gt;Node1</title>
<path fill="none" stroke="black" d="M123.61,-48C131.66,-48 139.84,-48 147.75,-48"/>
<polygon fill="black" stroke="black" points="123.86,-44.5 113.86,-48 123.86,-51.5 123.86,-44.5"/>
</g>
<!-- Node4 -->
<g id="Node000004" class="node">
<title>Node4</title>
<g id="a_Node000004"><a xlink:href="group___p_r_i_n_t_f___exported___functions.html" target="_top" xlink:title=" ">
<polygon fill="white" stroke="#666666" points="420.75,-96 301.25,-96 301.25,-76 420.75,-76 420.75,-96"/>
<text text-anchor="middle" x="361" y="-82.5" font-family="Helvetica,sans-Serif" font-size="10.00">printf exported functions</text>
</a>
</g>
</g>
<!-- Node1&#45;&gt;Node4 -->
<g id="edge3" class="edge">
<title>Node1&#45;&gt;Node4</title>
<path fill="none" stroke="black" d="M260.75,-61.25C279.53,-65.93 300.38,-71.13 318.1,-75.55"/>
<polygon fill="black" stroke="black" points="261.68,-57.87 251.13,-58.85 259.99,-64.67 261.68,-57.87"/>
</g>
<!-- Node5 -->
<g id="Node000005" class="node">
<title>Node5</title>
<g id="a_Node000005"><a xlink:href="group___p_r_i_n_t_f___private___function.html" target="_top" xlink:title=" ">
<polygon fill="white" stroke="#666666" points="415.88,-58 306.12,-58 306.12,-38 415.88,-38 415.88,-58"/>
<text text-anchor="middle" x="361" y="-44.5" font-family="Helvetica,sans-Serif" font-size="10.00">printf private functions</text>
</a>
</g>
</g>
<!-- Node1&#45;&gt;Node5 -->
<g id="edge4" class="edge">
<title>Node1&#45;&gt;Node5</title>
<path fill="none" stroke="black" d="M276.88,-48C286.52,-48 296.31,-48 305.63,-48"/>
<polygon fill="black" stroke="black" points="277.18,-44.5 267.18,-48 277.18,-51.5 277.18,-44.5"/>
</g>
<!-- Node3 -->
<g id="Node000003" class="node">
<title>Node3</title>
<g id="a_Node000003"><a xlink:href="group___p_r_i_n_t_f___private___macro.html" target="_top" xlink:title=" ">
<polygon fill="white" stroke="#666666" points="412.5,-20 309.5,-20 309.5,0 412.5,0 412.5,-20"/>
<text text-anchor="middle" x="361" y="-6.5" font-family="Helvetica,sans-Serif" font-size="10.00">printf private macros</text>
</a>
</g>
</g>
<!-- Node1&#45;&gt;Node3 -->
<g id="edge2" class="edge">
<title>Node1&#45;&gt;Node3</title>
<path fill="none" stroke="black" d="M260.75,-34.75C279.53,-30.07 300.38,-24.87 318.1,-20.45"/>
<polygon fill="black" stroke="black" points="259.99,-31.33 251.13,-37.15 261.68,-38.13 259.99,-31.33"/>
</g>
</g>
</svg>
