<?xml version="1.0" encoding="UTF-8" standalone="no"?>
<!DOCTYPE svg PUBLIC "-//W3C//DTD SVG 1.1//EN"
 "http://www.w3.org/Graphics/SVG/1.1/DTD/svg11.dtd">
<!-- Generated by graphviz version 9.0.0 (20230911.1827)
 -->
<!-- Title: AES Pages: 1 -->
<svg width="284pt" height="104pt"
 viewBox="0.00 0.00 284.00 104.00" xmlns="http://www.w3.org/2000/svg" xmlns:xlink="http://www.w3.org/1999/xlink">
<g id="graph0" class="graph" transform="scale(1 1) rotate(0) translate(4 100)">
<title>AES</title>
<!-- Node1 -->
<g id="Node000001" class="node">
<title>Node1</title>
<g id="a_Node000001"><a xlink:title=" ">
<polygon fill="#999999" stroke="#666666" points="203.75,-58 167.5,-58 167.5,-38 203.75,-38 203.75,-58"/>
<text text-anchor="middle" x="185.62" y="-44.5" font-family="Helvetica,sans-Serif" font-size="10.00">AES</text>
</a>
</g>
</g>
<!-- Node3 -->
<g id="Node000003" class="node">
<title>Node3</title>
<g id="a_Node000003"><a xlink:href="group___c_b_c.html" target="_top" xlink:title=" ">
<polygon fill="white" stroke="#666666" points="276,-96 239.75,-96 239.75,-76 276,-76 276,-96"/>
<text text-anchor="middle" x="257.88" y="-82.5" font-family="Helvetica,sans-Serif" font-size="10.00">CBC</text>
</a>
</g>
</g>
<!-- Node1&#45;&gt;Node3 -->
<g id="edge2" class="edge">
<title>Node1&#45;&gt;Node3</title>
<path fill="none" stroke="black" d="M214.06,-62.84C222.7,-67.51 232,-72.54 239.71,-76.71"/>
<polygon fill="black" stroke="black" points="215.78,-59.79 205.32,-58.11 212.45,-65.95 215.78,-59.79"/>
</g>
<!-- Node4 -->
<g id="Node000004" class="node">
<title>Node4</title>
<g id="a_Node000004"><a xlink:href="group___c_t_r.html" target="_top" xlink:title=" ">
<polygon fill="white" stroke="#666666" points="275.25,-58 240.5,-58 240.5,-38 275.25,-38 275.25,-58"/>
<text text-anchor="middle" x="257.88" y="-44.5" font-family="Helvetica,sans-Serif" font-size="10.00">CTR</text>
</a>
</g>
</g>
<!-- Node1&#45;&gt;Node4 -->
<g id="edge3" class="edge">
<title>Node1&#45;&gt;Node4</title>
<path fill="none" stroke="black" d="M215.38,-48C223.82,-48 232.77,-48 240.19,-48"/>
<polygon fill="black" stroke="black" points="215.5,-44.5 205.5,-48 215.5,-51.5 215.5,-44.5"/>
</g>
<!-- Node5 -->
<g id="Node000005" class="node">
<title>Node5</title>
<g id="a_Node000005"><a xlink:href="group___e_c_b.html" target="_top" xlink:title=" ">
<polygon fill="white" stroke="#666666" points="276,-20 239.75,-20 239.75,0 276,0 276,-20"/>
<text text-anchor="middle" x="257.88" y="-6.5" font-family="Helvetica,sans-Serif" font-size="10.00">ECB</text>
</a>
</g>
</g>
<!-- Node1&#45;&gt;Node5 -->
<g id="edge4" class="edge">
<title>Node1&#45;&gt;Node5</title>
<path fill="none" stroke="black" d="M214.06,-33.16C222.7,-28.49 232,-23.46 239.71,-19.29"/>
<polygon fill="black" stroke="black" points="212.45,-30.05 205.32,-37.89 215.78,-36.21 212.45,-30.05"/>
</g>
<!-- Node2 -->
<g id="Node000002" class="node">
<title>Node2</title>
<g id="a_Node000002"><a xlink:href="group___h_t32___series___peripheral___examples.html" target="_top" xlink:title=" ">
<polygon fill="white" stroke="#666666" points="131.5,-58 0,-58 0,-38 131.5,-38 131.5,-58"/>
<text text-anchor="middle" x="65.75" y="-44.5" font-family="Helvetica,sans-Serif" font-size="10.00">HT32 Peripheral Examples</text>
</a>
</g>
</g>
<!-- Node2&#45;&gt;Node1 -->
<g id="edge1" class="edge">
<title>Node2&#45;&gt;Node1</title>
<path fill="none" stroke="black" d="M143.29,-48C152.1,-48 160.32,-48 167.09,-48"/>
<polygon fill="black" stroke="black" points="143.41,-44.5 133.41,-48 143.41,-51.5 143.41,-44.5"/>
</g>
</g>
</svg>
