<?xml version="1.0" encoding="UTF-8" standalone="no"?>
<!DOCTYPE svg PUBLIC "-//W3C//DTD SVG 1.1//EN"
 "http://www.w3.org/Graphics/SVG/1.1/DTD/svg11.dtd">
<!-- Generated by graphviz version 9.0.0 (20230911.1827)
 -->
<!-- Title: Font Pages: 1 -->
<svg width="292pt" height="104pt"
 viewBox="0.00 0.00 292.25 104.00" xmlns="http://www.w3.org/2000/svg" xmlns:xlink="http://www.w3.org/1999/xlink">
<g id="graph0" class="graph" transform="scale(1 1) rotate(0) translate(4 100)">
<title>Font</title>
<!-- Node2 -->
<g id="Node000002" class="node">
<title>Node2</title>
<g id="a_Node000002"><a xlink:href="group___common.html" target="_top" xlink:title=" ">
<polygon fill="white" stroke="#666666" points="55,-58 0,-58 0,-38 55,-38 55,-58"/>
<text text-anchor="middle" x="27.5" y="-44.5" font-family="Helvetica,sans-Serif" font-size="10.00">Common</text>
</a>
</g>
</g>
<!-- Node1 -->
<g id="Node000001" class="node">
<title>Node1</title>
<g id="a_Node000001"><a xlink:title="This file contains the font information.">
<polygon fill="#999999" stroke="#666666" points="126.5,-58 91,-58 91,-38 126.5,-38 126.5,-58"/>
<text text-anchor="middle" x="108.75" y="-44.5" font-family="Helvetica,sans-Serif" font-size="10.00">Font</text>
</a>
</g>
</g>
<!-- Node2&#45;&gt;Node1 -->
<g id="edge1" class="edge">
<title>Node2&#45;&gt;Node1</title>
<path fill="none" stroke="black" d="M66.62,-48C75.04,-48 83.56,-48 90.64,-48"/>
<polygon fill="black" stroke="black" points="66.84,-44.5 56.84,-48 66.84,-51.5 66.84,-44.5"/>
</g>
<!-- Node4 -->
<g id="Node000004" class="node">
<title>Node4</title>
<g id="a_Node000004"><a xlink:href="group___f_o_n_t___exported___constants.html" target="_top" xlink:title=" ">
<polygon fill="white" stroke="#666666" points="284.25,-96 162.5,-96 162.5,-76 284.25,-76 284.25,-96"/>
<text text-anchor="middle" x="223.38" y="-82.5" font-family="Helvetica,sans-Serif" font-size="10.00">Font exported constants</text>
</a>
</g>
</g>
<!-- Node1&#45;&gt;Node4 -->
<g id="edge3" class="edge">
<title>Node1&#45;&gt;Node4</title>
<path fill="none" stroke="black" d="M137.51,-58.22C145.55,-61.12 154.35,-64.24 162.5,-67 170.97,-69.87 180.16,-72.85 188.73,-75.57"/>
<polygon fill="black" stroke="black" points="138.81,-54.97 128.22,-54.85 136.42,-61.55 138.81,-54.97"/>
</g>
<!-- Node5 -->
<g id="Node000005" class="node">
<title>Node5</title>
<g id="a_Node000005"><a xlink:href="group___f_o_n_t___exported___variables.html" target="_top" xlink:title=" ">
<polygon fill="white" stroke="#666666" points="281.62,-58 165.12,-58 165.12,-38 281.62,-38 281.62,-58"/>
<text text-anchor="middle" x="223.38" y="-44.5" font-family="Helvetica,sans-Serif" font-size="10.00">Font exported variables</text>
</a>
</g>
</g>
<!-- Node1&#45;&gt;Node5 -->
<g id="edge4" class="edge">
<title>Node1&#45;&gt;Node5</title>
<path fill="none" stroke="black" d="M138.33,-48C146.5,-48 155.71,-48 164.96,-48"/>
<polygon fill="black" stroke="black" points="138.37,-44.5 128.37,-48 138.37,-51.5 138.37,-44.5"/>
</g>
<!-- Node3 -->
<g id="Node000003" class="node">
<title>Node3</title>
<g id="a_Node000003"><a xlink:href="group___f_o_n_t___settings.html" target="_top" xlink:title=" ">
<polygon fill="white" stroke="#666666" points="259.88,-20 186.88,-20 186.88,0 259.88,0 259.88,-20"/>
<text text-anchor="middle" x="223.38" y="-6.5" font-family="Helvetica,sans-Serif" font-size="10.00">Font settings</text>
</a>
</g>
</g>
<!-- Node1&#45;&gt;Node3 -->
<g id="edge2" class="edge">
<title>Node1&#45;&gt;Node3</title>
<path fill="none" stroke="black" d="M137.51,-37.78C145.55,-34.88 154.35,-31.76 162.5,-29 170.97,-26.13 180.16,-23.15 188.73,-20.43"/>
<polygon fill="black" stroke="black" points="136.42,-34.45 128.22,-41.15 138.81,-41.03 136.42,-34.45"/>
</g>
</g>
</svg>
