<?xml version="1.0" encoding="UTF-8" standalone="no"?>
<!DOCTYPE svg PUBLIC "-//W3C//DTD SVG 1.1//EN"
 "http://www.w3.org/Graphics/SVG/1.1/DTD/svg11.dtd">
<!-- Generated by graphviz version 9.0.0 (20230911.1827)
 -->
<!-- Title: MCTM Pages: 1 -->
<svg width="373pt" height="142pt"
 viewBox="0.00 0.00 372.50 142.00" xmlns="http://www.w3.org/2000/svg" xmlns:xlink="http://www.w3.org/1999/xlink">
<g id="graph0" class="graph" transform="scale(1 1) rotate(0) translate(4 138)">
<title>MCTM</title>
<!-- Node2 -->
<g id="Node000002" class="node">
<title>Node2</title>
<g id="a_Node000002"><a xlink:href="group___h_t32_f5xxxx___peripheral___driver.html" target="_top" xlink:title=" ">
<polygon fill="white" stroke="#666666" points="117.25,-83 0,-83 0,-51 117.25,-51 117.25,-83"/>
<text text-anchor="start" x="8" y="-69.5" font-family="Helvetica,sans-Serif" font-size="10.00">HT32F5xxxx Peripheral</text>
<text text-anchor="middle" x="58.62" y="-57.5" font-family="Helvetica,sans-Serif" font-size="10.00"> Driver</text>
</a>
</g>
</g>
<!-- Node1 -->
<g id="Node000001" class="node">
<title>Node1</title>
<g id="a_Node000001"><a xlink:title="MCTM driver modules.">
<polygon fill="#999999" stroke="#666666" points="197.75,-77 153.25,-77 153.25,-57 197.75,-57 197.75,-77"/>
<text text-anchor="middle" x="175.5" y="-63.5" font-family="Helvetica,sans-Serif" font-size="10.00">MCTM</text>
</a>
</g>
</g>
<!-- Node2&#45;&gt;Node1 -->
<g id="edge1" class="edge">
<title>Node2&#45;&gt;Node1</title>
<path fill="none" stroke="black" d="M129.15,-67C137.72,-67 145.92,-67 152.92,-67"/>
<polygon fill="black" stroke="black" points="129.25,-63.5 119.25,-67 129.25,-70.5 129.25,-63.5"/>
</g>
<!-- Node4 -->
<g id="Node000004" class="node">
<title>Node4</title>
<g id="a_Node000004"><a xlink:href="group___m_c_t_m___exported___constants.html" target="_top" xlink:title=" ">
<polygon fill="white" stroke="#666666" points="364.5,-134 233.75,-134 233.75,-114 364.5,-114 364.5,-134"/>
<text text-anchor="middle" x="299.12" y="-120.5" font-family="Helvetica,sans-Serif" font-size="10.00">MCTM exported constants</text>
</a>
</g>
</g>
<!-- Node1&#45;&gt;Node4 -->
<g id="edge3" class="edge">
<title>Node1&#45;&gt;Node4</title>
<path fill="none" stroke="black" d="M198.52,-83.86C208.8,-91.13 221.46,-99.27 233.75,-105 240.72,-108.25 248.37,-111.09 255.9,-113.51"/>
<polygon fill="black" stroke="black" points="200.84,-81.22 190.7,-78.15 196.71,-86.88 200.84,-81.22"/>
</g>
<!-- Node5 -->
<g id="Node000005" class="node">
<title>Node5</title>
<g id="a_Node000005"><a xlink:href="group___m_c_t_m___exported___functions.html" target="_top" xlink:title=" ">
<polygon fill="white" stroke="#666666" points="362.62,-96 235.62,-96 235.62,-76 362.62,-76 362.62,-96"/>
<text text-anchor="middle" x="299.12" y="-82.5" font-family="Helvetica,sans-Serif" font-size="10.00">MCTM exported functions</text>
</a>
</g>
</g>
<!-- Node1&#45;&gt;Node5 -->
<g id="edge4" class="edge">
<title>Node1&#45;&gt;Node5</title>
<path fill="none" stroke="black" d="M209.39,-72.14C217.46,-73.4 226.38,-74.79 235.35,-76.19"/>
<polygon fill="black" stroke="black" points="210.16,-68.72 199.74,-70.63 209.08,-75.63 210.16,-68.72"/>
</g>
<!-- Node3 -->
<g id="Node000003" class="node">
<title>Node3</title>
<g id="a_Node000003"><a xlink:href="group___m_c_t_m___exported___types.html" target="_top" xlink:title=" ">
<polygon fill="white" stroke="#666666" points="355.12,-58 243.12,-58 243.12,-38 355.12,-38 355.12,-58"/>
<text text-anchor="middle" x="299.12" y="-44.5" font-family="Helvetica,sans-Serif" font-size="10.00">MCTM exported types</text>
</a>
</g>
</g>
<!-- Node1&#45;&gt;Node3 -->
<g id="edge2" class="edge">
<title>Node1&#45;&gt;Node3</title>
<path fill="none" stroke="black" d="M209.54,-61.84C219.76,-60.24 231.32,-58.44 242.63,-56.67"/>
<polygon fill="black" stroke="black" points="209.08,-58.37 199.74,-63.37 210.16,-65.28 209.08,-58.37"/>
</g>
<!-- Node6 -->
<g id="Node000006" class="node">
<title>Node6</title>
<g id="a_Node000006"><a xlink:href="group___m_c_t_m___private___define.html" target="_top" xlink:title=" ">
<polygon fill="white" stroke="#666666" points="360,-20 238.25,-20 238.25,0 360,0 360,-20"/>
<text text-anchor="middle" x="299.12" y="-6.5" font-family="Helvetica,sans-Serif" font-size="10.00">MCTM private definitions</text>
</a>
</g>
</g>
<!-- Node1&#45;&gt;Node6 -->
<g id="edge5" class="edge">
<title>Node1&#45;&gt;Node6</title>
<path fill="none" stroke="black" d="M198.52,-50.14C208.8,-42.87 221.46,-34.73 233.75,-29 240.72,-25.75 248.37,-22.91 255.9,-20.49"/>
<polygon fill="black" stroke="black" points="196.71,-47.12 190.7,-55.85 200.84,-52.78 196.71,-47.12"/>
</g>
</g>
</svg>
