<?xml version="1.0" encoding="UTF-8" standalone="no"?>
<!DOCTYPE svg PUBLIC "-//W3C//DTD SVG 1.1//EN"
 "http://www.w3.org/Graphics/SVG/1.1/DTD/svg11.dtd">
<!-- Generated by graphviz version 9.0.0 (20230911.1827)
 -->
<!-- Title: Mass_Storage Pages: 1 -->
<svg width="459pt" height="66pt"
 viewBox="0.00 0.00 459.00 66.00" xmlns="http://www.w3.org/2000/svg" xmlns:xlink="http://www.w3.org/1999/xlink">
<g id="graph0" class="graph" transform="scale(1 1) rotate(0) translate(4 62)">
<title>Mass_Storage</title>
<!-- Node3 -->
<g id="Node000003" class="node">
<title>Node3</title>
<g id="a_Node000003"><a xlink:href="group___h_i_d___keyboard___mass___storage.html" target="_top" xlink:title=" ">
<polygon fill="white" stroke="#666666" points="451,-20 304.5,-20 304.5,0 451,0 451,-20"/>
<text text-anchor="middle" x="377.75" y="-6.5" font-family="Helvetica,sans-Serif" font-size="10.00">HID_Keyboard_Mass_Storage</text>
</a>
</g>
</g>
<!-- Node1 -->
<g id="Node000001" class="node">
<title>Node1</title>
<g id="a_Node000001"><a xlink:title=" ">
<polygon fill="#999999" stroke="#666666" points="159,-20 80,-20 80,0 159,0 159,-20"/>
<text text-anchor="middle" x="119.5" y="-6.5" font-family="Helvetica,sans-Serif" font-size="10.00">Mass_Storage</text>
</a>
</g>
</g>
<!-- Node1&#45;&gt;Node3 -->
<g id="edge2" class="edge">
<title>Node1&#45;&gt;Node3</title>
<path fill="none" stroke="orange" stroke-dasharray="5,2" d="M159.42,-10C197.71,-10 257.11,-10 304.14,-10"/>
<text text-anchor="middle" x="231.75" y="-48.5" font-family="Helvetica,sans-Serif" font-size="10.00">_BM_FLAG_TYPEBIT</text>
<text text-anchor="middle" x="231.75" y="-36.5" font-family="Helvetica,sans-Serif" font-size="10.00">BOT_MediaSize_Typedef</text>
<text text-anchor="middle" x="231.75" y="-24.5" font-family="Helvetica,sans-Serif" font-size="10.00">BOT_Media_TypeDef</text>
<text text-anchor="middle" x="231.75" y="-12.5" font-family="Helvetica,sans-Serif" font-size="10.00">SBCInfo_Typedef</text>
</g>
<!-- Node2 -->
<g id="Node000002" class="node">
<title>Node2</title>
<g id="a_Node000002"><a xlink:href="group___u_s_b_d___examples.html" target="_top" xlink:title=" ">
<polygon fill="white" stroke="#666666" points="43,-20 0,-20 0,0 43,0 43,-20"/>
<text text-anchor="middle" x="21.5" y="-6.5" font-family="Helvetica,sans-Serif" font-size="10.00">USBD</text>
</a>
</g>
</g>
<!-- Node2&#45;&gt;Node1 -->
<g id="edge1" class="edge">
<title>Node2&#45;&gt;Node1</title>
<path fill="none" stroke="black" d="M54.76,-10C62.71,-10 71.3,-10 79.52,-10"/>
<polygon fill="black" stroke="black" points="54.84,-6.5 44.84,-10 54.84,-13.5 54.84,-6.5"/>
</g>
</g>
</svg>
