<?xml version="1.0" encoding="UTF-8" standalone="no"?>
<!DOCTYPE svg PUBLIC "-//W3C//DTD SVG 1.1//EN"
 "http://www.w3.org/Graphics/SVG/1.1/DTD/svg11.dtd">
<!-- Generated by graphviz version 9.0.0 (20230911.1827)
 -->
<!-- Title: USB Device Core private definitions Pages: 1 -->
<svg width="403pt" height="40pt"
 viewBox="0.00 0.00 402.50 40.00" xmlns="http://www.w3.org/2000/svg" xmlns:xlink="http://www.w3.org/1999/xlink">
<g id="graph0" class="graph" transform="scale(1 1) rotate(0) translate(4 36)">
<title>USB Device Core private definitions</title>
<!-- Node2 -->
<g id="Node000002" class="node">
<title>Node2</title>
<g id="a_Node000002"><a xlink:href="group___u_s_b_d_core.html" target="_top" xlink:title="USB Device Core standard protocol related function.">
<polygon fill="white" stroke="#666666" points="91,-26 0,-26 0,-6 91,-6 91,-26"/>
<text text-anchor="middle" x="45.5" y="-12.5" font-family="Helvetica,sans-Serif" font-size="10.00">USB Device Core</text>
</a>
</g>
</g>
<!-- Node1 -->
<g id="Node000001" class="node">
<title>Node1</title>
<g id="a_Node000001"><a xlink:title=" ">
<polygon fill="#999999" stroke="#666666" points="248.75,-32 127,-32 127,0 248.75,0 248.75,-32"/>
<text text-anchor="start" x="135" y="-18.5" font-family="Helvetica,sans-Serif" font-size="10.00">USB Device Core private</text>
<text text-anchor="middle" x="187.88" y="-6.5" font-family="Helvetica,sans-Serif" font-size="10.00"> definitions</text>
</a>
</g>
</g>
<!-- Node2&#45;&gt;Node1 -->
<g id="edge1" class="edge">
<title>Node2&#45;&gt;Node1</title>
<path fill="none" stroke="black" d="M102.63,-16C110.52,-16 118.66,-16 126.62,-16"/>
<polygon fill="black" stroke="black" points="102.82,-12.5 92.82,-16 102.81,-19.5 102.82,-12.5"/>
</g>
<!-- Node3 -->
<g id="Node000003" class="node">
<title>Node3</title>
<g id="a_Node000003"><a xlink:href="group___u_s_b_d_core___s_t_d.html" target="_top" xlink:title=" ">
<polygon fill="white" stroke="#666666" points="394.5,-32 284.75,-32 284.75,0 394.5,0 394.5,-32"/>
<text text-anchor="start" x="292.75" y="-18.5" font-family="Helvetica,sans-Serif" font-size="10.00">Definition for standard</text>
<text text-anchor="middle" x="339.62" y="-6.5" font-family="Helvetica,sans-Serif" font-size="10.00"> request</text>
</a>
</g>
</g>
<!-- Node1&#45;&gt;Node3 -->
<g id="edge2" class="edge">
<title>Node1&#45;&gt;Node3</title>
<path fill="none" stroke="black" d="M260.3,-16C268.4,-16 276.55,-16 284.38,-16"/>
<polygon fill="black" stroke="black" points="260.43,-12.5 250.43,-16 260.43,-19.5 260.43,-12.5"/>
</g>
</g>
</svg>
