<?xml version="1.0" encoding="UTF-8" standalone="no"?>
<!DOCTYPE svg PUBLIC "-//W3C//DTD SVG 1.1//EN"
 "http://www.w3.org/Graphics/SVG/1.1/DTD/svg11.dtd">
<!-- Generated by graphviz version 9.0.0 (20230911.1827)
 -->
<!-- Title: DIV Pages: 1 -->
<svg width="286pt" height="28pt"
 viewBox="0.00 0.00 285.50 28.00" xmlns="http://www.w3.org/2000/svg" xmlns:xlink="http://www.w3.org/1999/xlink">
<g id="graph0" class="graph" transform="scale(1 1) rotate(0) translate(4 24)">
<title>DIV</title>
<!-- Node3 -->
<g id="Node000003" class="node">
<title>Node3</title>
<g id="a_Node000003"><a xlink:href="group___d_i_v32.html" target="_top" xlink:title=" ">
<polygon fill="white" stroke="#666666" points="277.5,-20 235.25,-20 235.25,0 277.5,0 277.5,-20"/>
<text text-anchor="middle" x="256.38" y="-6.5" font-family="Helvetica,sans-Serif" font-size="10.00">DIV32</text>
</a>
</g>
</g>
<!-- Node1 -->
<g id="Node000001" class="node">
<title>Node1</title>
<g id="a_Node000001"><a xlink:title=" ">
<polygon fill="#999999" stroke="#666666" points="199.25,-20 167.5,-20 167.5,0 199.25,0 199.25,-20"/>
<text text-anchor="middle" x="183.38" y="-6.5" font-family="Helvetica,sans-Serif" font-size="10.00">DIV</text>
</a>
</g>
</g>
<!-- Node1&#45;&gt;Node3 -->
<g id="edge2" class="edge">
<title>Node1&#45;&gt;Node3</title>
<path fill="none" stroke="black" d="M210.81,-10C218.79,-10 227.43,-10 234.95,-10"/>
<polygon fill="black" stroke="black" points="210.95,-6.5 200.95,-10 210.95,-13.5 210.95,-6.5"/>
</g>
<!-- Node2 -->
<g id="Node000002" class="node">
<title>Node2</title>
<g id="a_Node000002"><a xlink:href="group___h_t32___series___peripheral___examples.html" target="_top" xlink:title=" ">
<polygon fill="white" stroke="#666666" points="131.5,-20 0,-20 0,0 131.5,0 131.5,-20"/>
<text text-anchor="middle" x="65.75" y="-6.5" font-family="Helvetica,sans-Serif" font-size="10.00">HT32 Peripheral Examples</text>
</a>
</g>
</g>
<!-- Node2&#45;&gt;Node1 -->
<g id="edge1" class="edge">
<title>Node2&#45;&gt;Node1</title>
<path fill="none" stroke="black" d="M143.47,-10C152.3,-10 160.47,-10 167.02,-10"/>
<polygon fill="black" stroke="black" points="143.51,-6.5 133.51,-10 143.51,-13.5 143.51,-6.5"/>
</g>
</g>
</svg>
