<?xml version="1.0" encoding="UTF-8" standalone="no"?>
<!DOCTYPE svg PUBLIC "-//W3C//DTD SVG 1.1//EN"
 "http://www.w3.org/Graphics/SVG/1.1/DTD/svg11.dtd">
<!-- Generated by graphviz version 9.0.0 (20230911.1827)
 -->
<!-- Title: PWRCU Pages: 1 -->
<svg width="389pt" height="142pt"
 viewBox="0.00 0.00 389.00 142.00" xmlns="http://www.w3.org/2000/svg" xmlns:xlink="http://www.w3.org/1999/xlink">
<g id="graph0" class="graph" transform="scale(1 1) rotate(0) translate(4 138)">
<title>PWRCU</title>
<!-- Node2 -->
<g id="Node000002" class="node">
<title>Node2</title>
<g id="a_Node000002"><a xlink:href="group___h_t32_f5xxxx___peripheral___driver.html" target="_top" xlink:title=" ">
<polygon fill="white" stroke="#666666" points="117.25,-83 0,-83 0,-51 117.25,-51 117.25,-83"/>
<text text-anchor="start" x="8" y="-69.5" font-family="Helvetica,sans-Serif" font-size="10.00">HT32F5xxxx Peripheral</text>
<text text-anchor="middle" x="58.62" y="-57.5" font-family="Helvetica,sans-Serif" font-size="10.00"> Driver</text>
</a>
</g>
</g>
<!-- Node1 -->
<g id="Node000001" class="node">
<title>Node1</title>
<g id="a_Node000001"><a xlink:title="PWRCU driver modules.">
<polygon fill="#999999" stroke="#666666" points="206,-77 153.25,-77 153.25,-57 206,-57 206,-77"/>
<text text-anchor="middle" x="179.62" y="-63.5" font-family="Helvetica,sans-Serif" font-size="10.00">PWRCU</text>
</a>
</g>
</g>
<!-- Node2&#45;&gt;Node1 -->
<g id="edge1" class="edge">
<title>Node2&#45;&gt;Node1</title>
<path fill="none" stroke="black" d="M129.02,-67C137.53,-67 145.76,-67 152.99,-67"/>
<polygon fill="black" stroke="black" points="129.24,-63.5 119.24,-67 129.24,-70.5 129.24,-63.5"/>
</g>
<!-- Node4 -->
<g id="Node000004" class="node">
<title>Node4</title>
<g id="a_Node000004"><a xlink:href="group___p_w_r_c_u___exported___constants.html" target="_top" xlink:title=" ">
<polygon fill="white" stroke="#666666" points="381,-134 242,-134 242,-114 381,-114 381,-134"/>
<text text-anchor="middle" x="311.5" y="-120.5" font-family="Helvetica,sans-Serif" font-size="10.00">PWRCU exported constants</text>
</a>
</g>
</g>
<!-- Node1&#45;&gt;Node4 -->
<g id="edge3" class="edge">
<title>Node1&#45;&gt;Node4</title>
<path fill="none" stroke="black" d="M204,-83.66C215.11,-90.99 228.81,-99.23 242,-105 249.46,-108.27 257.63,-111.11 265.64,-113.53"/>
<polygon fill="black" stroke="black" points="206.11,-80.86 195.87,-78.13 202.17,-86.64 206.11,-80.86"/>
</g>
<!-- Node5 -->
<g id="Node000005" class="node">
<title>Node5</title>
<g id="a_Node000005"><a xlink:href="group___p_w_r_c_u___exported___functions.html" target="_top" xlink:title=" ">
<polygon fill="white" stroke="#666666" points="379.12,-96 243.88,-96 243.88,-76 379.12,-76 379.12,-96"/>
<text text-anchor="middle" x="311.5" y="-82.5" font-family="Helvetica,sans-Serif" font-size="10.00">PWRCU exported functions</text>
</a>
</g>
</g>
<!-- Node1&#45;&gt;Node5 -->
<g id="edge4" class="edge">
<title>Node1&#45;&gt;Node5</title>
<path fill="none" stroke="black" d="M217.58,-72.41C225.69,-73.59 234.53,-74.89 243.42,-76.19"/>
<polygon fill="black" stroke="black" points="218.18,-68.96 207.78,-70.97 217.17,-75.88 218.18,-68.96"/>
</g>
<!-- Node3 -->
<g id="Node000003" class="node">
<title>Node3</title>
<g id="a_Node000003"><a xlink:href="group___p_w_r_c_u___exported___types.html" target="_top" xlink:title=" ">
<polygon fill="white" stroke="#666666" points="371.62,-58 251.38,-58 251.38,-38 371.62,-38 371.62,-58"/>
<text text-anchor="middle" x="311.5" y="-44.5" font-family="Helvetica,sans-Serif" font-size="10.00">PWRCU exported types</text>
</a>
</g>
</g>
<!-- Node1&#45;&gt;Node3 -->
<g id="edge2" class="edge">
<title>Node1&#45;&gt;Node3</title>
<path fill="none" stroke="black" d="M217.5,-61.61C227.95,-60.08 239.6,-58.37 251.03,-56.7"/>
<polygon fill="black" stroke="black" points="217.17,-58.12 207.78,-63.03 218.18,-65.04 217.17,-58.12"/>
</g>
<!-- Node6 -->
<g id="Node000006" class="node">
<title>Node6</title>
<g id="a_Node000006"><a xlink:href="group___p_w_r_c_u___private___define.html" target="_top" xlink:title=" ">
<polygon fill="white" stroke="#666666" points="376.5,-20 246.5,-20 246.5,0 376.5,0 376.5,-20"/>
<text text-anchor="middle" x="311.5" y="-6.5" font-family="Helvetica,sans-Serif" font-size="10.00">PWRCU private definitions</text>
</a>
</g>
</g>
<!-- Node1&#45;&gt;Node6 -->
<g id="edge5" class="edge">
<title>Node1&#45;&gt;Node6</title>
<path fill="none" stroke="black" d="M204,-50.34C215.11,-43.01 228.81,-34.77 242,-29 249.46,-25.73 257.63,-22.89 265.64,-20.47"/>
<polygon fill="black" stroke="black" points="202.17,-47.36 195.87,-55.87 206.11,-53.14 202.17,-47.36"/>
</g>
</g>
</svg>
