<?xml version="1.0" encoding="UTF-8" standalone="no"?>
<!DOCTYPE svg PUBLIC "-//W3C//DTD SVG 1.1//EN"
 "http://www.w3.org/Graphics/SVG/1.1/DTD/svg11.dtd">
<!-- Generated by graphviz version 9.0.0 (20230911.1827)
 -->
<!-- Title: USB Device Class Pages: 1 -->
<svg width="437pt" height="140pt"
 viewBox="0.00 0.00 437.00 140.00" xmlns="http://www.w3.org/2000/svg" xmlns:xlink="http://www.w3.org/1999/xlink">
<g id="graph0" class="graph" transform="scale(1 1) rotate(0) translate(4 136)">
<title>USB Device Class</title>
<!-- Node2 -->
<g id="Node000002" class="node">
<title>Node2</title>
<g id="a_Node000002"><a xlink:href="group___h_t32___u_s_b_d___library.html" target="_top" xlink:title=" ">
<polygon fill="white" stroke="#666666" points="125.5,-76 0,-76 0,-56 125.5,-56 125.5,-76"/>
<text text-anchor="middle" x="62.75" y="-62.5" font-family="Helvetica,sans-Serif" font-size="10.00">HT32 USB Device Library</text>
</a>
</g>
</g>
<!-- Node1 -->
<g id="Node000001" class="node">
<title>Node1</title>
<g id="a_Node000001"><a xlink:title="USB Device Class.">
<polygon fill="#999999" stroke="#666666" points="257,-76 161.5,-76 161.5,-56 257,-56 257,-76"/>
<text text-anchor="middle" x="209.25" y="-62.5" font-family="Helvetica,sans-Serif" font-size="10.00">USB Device Class</text>
</a>
</g>
</g>
<!-- Node2&#45;&gt;Node1 -->
<g id="edge1" class="edge">
<title>Node2&#45;&gt;Node1</title>
<path fill="none" stroke="black" d="M137.26,-66C145.34,-66 153.39,-66 161.02,-66"/>
<polygon fill="black" stroke="black" points="137.38,-62.5 127.38,-66 137.38,-69.5 137.38,-62.5"/>
</g>
<!-- Node4 -->
<g id="Node000004" class="node">
<title>Node4</title>
<g id="a_Node000004"><a xlink:href="group___u_s_b_d_class___exported___functions.html" target="_top" xlink:title=" ">
<polygon fill="white" stroke="#666666" points="429,-132 293,-132 293,-100 429,-100 429,-132"/>
<text text-anchor="start" x="301" y="-118.5" font-family="Helvetica,sans-Serif" font-size="10.00">USB Device Class exported</text>
<text text-anchor="middle" x="361" y="-106.5" font-family="Helvetica,sans-Serif" font-size="10.00"> functions</text>
</a>
</g>
</g>
<!-- Node1&#45;&gt;Node4 -->
<g id="edge3" class="edge">
<title>Node1&#45;&gt;Node4</title>
<path fill="none" stroke="black" d="M252.46,-80.09C270.56,-86.14 291.84,-93.24 310.67,-99.53"/>
<polygon fill="black" stroke="black" points="253.67,-76.81 243.08,-76.96 251.45,-83.45 253.67,-76.81"/>
</g>
<!-- Node3 -->
<g id="Node000003" class="node">
<title>Node3</title>
<g id="a_Node000003"><a xlink:href="group___u_s_b_d_class___private___define.html" target="_top" xlink:title=" ">
<polygon fill="white" stroke="#666666" points="424.12,-82 297.88,-82 297.88,-50 424.12,-50 424.12,-82"/>
<text text-anchor="start" x="305.88" y="-68.5" font-family="Helvetica,sans-Serif" font-size="10.00">USB Device Class private</text>
<text text-anchor="middle" x="361" y="-56.5" font-family="Helvetica,sans-Serif" font-size="10.00"> definitions</text>
</a>
</g>
</g>
<!-- Node1&#45;&gt;Node3 -->
<g id="edge2" class="edge">
<title>Node1&#45;&gt;Node3</title>
<path fill="none" stroke="black" d="M268.58,-66C278.08,-66 287.95,-66 297.54,-66"/>
<polygon fill="black" stroke="black" points="268.73,-62.5 258.73,-66 268.73,-69.5 268.73,-62.5"/>
</g>
<!-- Node5 -->
<g id="Node000005" class="node">
<title>Node5</title>
<g id="a_Node000005"><a xlink:href="group___u_s_b_d_class___private___functions.html" target="_top" xlink:title=" ">
<polygon fill="white" stroke="#666666" points="424.12,-32 297.88,-32 297.88,0 424.12,0 424.12,-32"/>
<text text-anchor="start" x="305.88" y="-18.5" font-family="Helvetica,sans-Serif" font-size="10.00">USB Device Class private</text>
<text text-anchor="middle" x="361" y="-6.5" font-family="Helvetica,sans-Serif" font-size="10.00"> functions</text>
</a>
</g>
</g>
<!-- Node1&#45;&gt;Node5 -->
<g id="edge4" class="edge">
<title>Node1&#45;&gt;Node5</title>
<path fill="none" stroke="black" d="M252.46,-51.91C270.56,-45.86 291.84,-38.76 310.67,-32.47"/>
<polygon fill="black" stroke="black" points="251.45,-48.55 243.08,-55.04 253.67,-55.19 251.45,-48.55"/>
</g>
</g>
</svg>
