<?xml version="1.0" encoding="UTF-8" standalone="no"?>
<!DOCTYPE svg PUBLIC "-//W3C//DTD SVG 1.1//EN"
 "http://www.w3.org/Graphics/SVG/1.1/DTD/svg11.dtd">
<!-- Generated by graphviz version 9.0.0 (20230911.1827)
 -->
<!-- Title: SPI_FLASH Pages: 1 -->
<svg width="310pt" height="190pt"
 viewBox="0.00 0.00 310.25 190.00" xmlns="http://www.w3.org/2000/svg" xmlns:xlink="http://www.w3.org/1999/xlink">
<g id="graph0" class="graph" transform="scale(1 1) rotate(0) translate(4 186)">
<title>SPI_FLASH</title>
<!-- Node2 -->
<g id="Node000002" class="node">
<title>Node2</title>
<g id="a_Node000002"><a xlink:href="group___common.html" target="_top" xlink:title=" ">
<polygon fill="white" stroke="#666666" points="55,-101 0,-101 0,-81 55,-81 55,-101"/>
<text text-anchor="middle" x="27.5" y="-87.5" font-family="Helvetica,sans-Serif" font-size="10.00">Common</text>
</a>
</g>
</g>
<!-- Node1 -->
<g id="Node000001" class="node">
<title>Node1</title>
<g id="a_Node000001"><a xlink:title="This file provides a set of functions needed to manage the communication between SPI peripheral and S...">
<polygon fill="#999999" stroke="#666666" points="159.5,-101 91,-101 91,-81 159.5,-81 159.5,-101"/>
<text text-anchor="middle" x="125.25" y="-87.5" font-family="Helvetica,sans-Serif" font-size="10.00">SPI_FLASH</text>
</a>
</g>
</g>
<!-- Node2&#45;&gt;Node1 -->
<g id="edge1" class="edge">
<title>Node2&#45;&gt;Node1</title>
<path fill="none" stroke="black" d="M66.69,-91C74.63,-91 82.94,-91 90.7,-91"/>
<polygon fill="black" stroke="black" points="66.94,-87.5 56.94,-91 66.94,-94.5 66.94,-87.5"/>
</g>
<!-- Node4 -->
<g id="Node000004" class="node">
<title>Node4</title>
<g id="a_Node000004"><a xlink:href="group___s_p_i___f_l_a_s_h___exported___constants.html" target="_top" xlink:title=" ">
<polygon fill="white" stroke="#666666" points="302.25,-182 195.5,-182 195.5,-150 302.25,-150 302.25,-182"/>
<text text-anchor="start" x="203.5" y="-168.5" font-family="Helvetica,sans-Serif" font-size="10.00">SPI FLASH exported</text>
<text text-anchor="middle" x="248.88" y="-156.5" font-family="Helvetica,sans-Serif" font-size="10.00"> constants</text>
</a>
</g>
</g>
<!-- Node1&#45;&gt;Node4 -->
<g id="edge3" class="edge">
<title>Node1&#45;&gt;Node4</title>
<path fill="none" stroke="black" d="M147.9,-108.18C161.22,-118.36 178.87,-131.14 195.5,-141 200.53,-143.98 205.96,-146.89 211.37,-149.62"/>
<polygon fill="black" stroke="black" points="150.29,-105.6 140.24,-102.24 146,-111.14 150.29,-105.6"/>
</g>
<!-- Node3 -->
<g id="Node000003" class="node">
<title>Node3</title>
<g id="a_Node000003"><a xlink:href="group___s_p_i___f_l_a_s_h___exported___functions.html" target="_top" xlink:title=" ">
<polygon fill="white" stroke="#666666" points="302.25,-132 195.5,-132 195.5,-100 302.25,-100 302.25,-132"/>
<text text-anchor="start" x="203.5" y="-118.5" font-family="Helvetica,sans-Serif" font-size="10.00">SPI FLASH exported</text>
<text text-anchor="middle" x="248.88" y="-106.5" font-family="Helvetica,sans-Serif" font-size="10.00"> functions</text>
</a>
</g>
</g>
<!-- Node1&#45;&gt;Node3 -->
<g id="edge2" class="edge">
<title>Node1&#45;&gt;Node3</title>
<path fill="none" stroke="black" d="M171.02,-100.2C178.91,-101.82 187.18,-103.52 195.26,-105.19"/>
<polygon fill="black" stroke="black" points="171.79,-96.79 161.29,-98.2 170.38,-103.64 171.79,-96.79"/>
</g>
<!-- Node5 -->
<g id="Node000005" class="node">
<title>Node5</title>
<g id="a_Node000005"><a xlink:href="group___s_p_i___f_l_a_s_h___exported___macros.html" target="_top" xlink:title=" ">
<polygon fill="white" stroke="#666666" points="302.25,-82 195.5,-82 195.5,-50 302.25,-50 302.25,-82"/>
<text text-anchor="start" x="203.5" y="-68.5" font-family="Helvetica,sans-Serif" font-size="10.00">SPI FLASH exported</text>
<text text-anchor="middle" x="248.88" y="-56.5" font-family="Helvetica,sans-Serif" font-size="10.00"> macros</text>
</a>
</g>
</g>
<!-- Node1&#45;&gt;Node5 -->
<g id="edge4" class="edge">
<title>Node1&#45;&gt;Node5</title>
<path fill="none" stroke="black" d="M171.02,-81.8C178.91,-80.18 187.18,-78.48 195.26,-76.81"/>
<polygon fill="black" stroke="black" points="170.38,-78.36 161.29,-83.8 171.79,-85.21 170.38,-78.36"/>
</g>
<!-- Node6 -->
<g id="Node000006" class="node">
<title>Node6</title>
<g id="a_Node000006"><a xlink:href="group___s_p_i___f_l_a_s_h___exported___type.html" target="_top" xlink:title=" ">
<polygon fill="white" stroke="#666666" points="302.25,-32 195.5,-32 195.5,0 302.25,0 302.25,-32"/>
<text text-anchor="start" x="203.5" y="-18.5" font-family="Helvetica,sans-Serif" font-size="10.00">SPI FLASH exported</text>
<text text-anchor="middle" x="248.88" y="-6.5" font-family="Helvetica,sans-Serif" font-size="10.00"> types</text>
</a>
</g>
</g>
<!-- Node1&#45;&gt;Node6 -->
<g id="edge5" class="edge">
<title>Node1&#45;&gt;Node6</title>
<path fill="none" stroke="black" d="M147.9,-73.82C161.22,-63.64 178.87,-50.86 195.5,-41 200.53,-38.02 205.96,-35.11 211.37,-32.38"/>
<polygon fill="black" stroke="black" points="146,-70.86 140.24,-79.76 150.29,-76.4 146,-70.86"/>
</g>
</g>
</svg>
