<?xml version="1.0" encoding="UTF-8" standalone="no"?>
<!DOCTYPE svg PUBLIC "-//W3C//DTD SVG 1.1//EN"
 "http://www.w3.org/Graphics/SVG/1.1/DTD/svg11.dtd">
<!-- Generated by graphviz version 9.0.0 (20230911.1827)
 -->
<!-- Title: SAU Functions Pages: 1 -->
<svg width="369pt" height="28pt"
 viewBox="0.00 0.00 368.75 28.00" xmlns="http://www.w3.org/2000/svg" xmlns:xlink="http://www.w3.org/1999/xlink">
<g id="graph0" class="graph" transform="scale(1 1) rotate(0) translate(4 24)">
<title>SAU Functions</title>
<!-- Node3 -->
<g id="Node000003" class="node">
<title>Node3</title>
<g id="a_Node000003"><a xlink:href="group___c_m_s_i_s___core___d_c_b_functions.html" target="_top" xlink:title="Functions that access the Debug Control Block.">
<polygon fill="white" stroke="#666666" points="360.75,-20 237.5,-20 237.5,0 360.75,0 360.75,-20"/>
<text text-anchor="middle" x="299.12" y="-6.5" font-family="Helvetica,sans-Serif" font-size="10.00">Debug Control Functions</text>
</a>
</g>
</g>
<!-- Node2 -->
<g id="Node000002" class="node">
<title>Node2</title>
<g id="a_Node000002"><a xlink:href="group___c_m_s_i_s___core___mve_functions.html" target="_top" xlink:title="Function that provides MVE type.">
<polygon fill="white" stroke="#666666" points="83.5,-20 0,-20 0,0 83.5,0 83.5,-20"/>
<text text-anchor="middle" x="41.75" y="-6.5" font-family="Helvetica,sans-Serif" font-size="10.00">MVE Functions</text>
</a>
</g>
</g>
<!-- Node1 -->
<g id="Node000001" class="node">
<title>Node1</title>
<g id="a_Node000001"><a xlink:title="Functions that configure the SAU.">
<polygon fill="#999999" stroke="#666666" points="201.5,-20 119.5,-20 119.5,0 201.5,0 201.5,-20"/>
<text text-anchor="middle" x="160.5" y="-6.5" font-family="Helvetica,sans-Serif" font-size="10.00">SAU Functions</text>
</a>
</g>
</g>
<!-- Node2&#45;&gt;Node1 -->
<g id="edge1" class="edge">
<title>Node2&#45;&gt;Node1</title>
<path fill="none" stroke="black" d="M95.4,-10C103.36,-10 111.46,-10 119.1,-10"/>
<polygon fill="black" stroke="black" points="95.43,-6.5 85.43,-10 95.43,-13.5 95.43,-6.5"/>
</g>
<!-- Node1&#45;&gt;Node3 -->
<g id="edge2" class="edge">
<title>Node1&#45;&gt;Node3</title>
<path fill="none" stroke="black" d="M213.01,-10C220.89,-10 229.08,-10 237.14,-10"/>
<polygon fill="black" stroke="black" points="213.27,-6.5 203.27,-10 213.27,-13.5 213.27,-6.5"/>
</g>
</g>
</svg>
