<?xml version="1.0" encoding="UTF-8" standalone="no"?>
<!DOCTYPE svg PUBLIC "-//W3C//DTD SVG 1.1//EN"
 "http://www.w3.org/Graphics/SVG/1.1/DTD/svg11.dtd">
<!-- Generated by graphviz version 9.0.0 (20230911.1827)
 -->
<!-- Title: HT32F65240_DVB Pages: 1 -->
<svg width="376pt" height="90pt"
 viewBox="0.00 0.00 376.25 90.00" xmlns="http://www.w3.org/2000/svg" xmlns:xlink="http://www.w3.org/1999/xlink">
<g id="graph0" class="graph" transform="scale(1 1) rotate(0) translate(4 86)">
<title>HT32F65240_DVB</title>
<!-- Node1 -->
<g id="Node000001" class="node">
<title>Node1</title>
<g id="a_Node000001"><a xlink:title=" ">
<polygon fill="#999999" stroke="#666666" points="201.5,-51 105.25,-51 105.25,-31 201.5,-31 201.5,-51"/>
<text text-anchor="middle" x="153.38" y="-37.5" font-family="Helvetica,sans-Serif" font-size="10.00">HT32F65240_DVB</text>
</a>
</g>
</g>
<!-- Node3 -->
<g id="Node000003" class="node">
<title>Node3</title>
<g id="a_Node000003"><a xlink:href="group___h_t32_f65240___d_v_b___exported___constants.html" target="_top" xlink:title=" ">
<polygon fill="white" stroke="#666666" points="368.25,-82 237.5,-82 237.5,-50 368.25,-50 368.25,-82"/>
<text text-anchor="start" x="245.5" y="-68.5" font-family="Helvetica,sans-Serif" font-size="10.00">HT32F65240 Development</text>
<text text-anchor="middle" x="302.88" y="-56.5" font-family="Helvetica,sans-Serif" font-size="10.00"> Board exported constants</text>
</a>
</g>
</g>
<!-- Node1&#45;&gt;Node3 -->
<g id="edge2" class="edge">
<title>Node1&#45;&gt;Node3</title>
<path fill="none" stroke="black" d="M213.14,-50.96C220.99,-52.29 229.07,-53.66 237.01,-55.01"/>
<polygon fill="black" stroke="black" points="213.79,-47.52 203.35,-49.3 212.62,-54.42 213.79,-47.52"/>
</g>
<!-- Node4 -->
<g id="Node000004" class="node">
<title>Node4</title>
<g id="a_Node000004"><a xlink:href="group___h_t32_f65240___d_v_b___exported___functions.html" target="_top" xlink:title=" ">
<polygon fill="white" stroke="#666666" points="367.5,-32 238.25,-32 238.25,0 367.5,0 367.5,-32"/>
<text text-anchor="start" x="246.25" y="-18.5" font-family="Helvetica,sans-Serif" font-size="10.00">HT32F65240 Development</text>
<text text-anchor="middle" x="302.88" y="-6.5" font-family="Helvetica,sans-Serif" font-size="10.00"> Board exported functions</text>
</a>
</g>
</g>
<!-- Node1&#45;&gt;Node4 -->
<g id="edge3" class="edge">
<title>Node1&#45;&gt;Node4</title>
<path fill="none" stroke="black" d="M213.12,-31.04C221.23,-29.67 229.6,-28.25 237.81,-26.86"/>
<polygon fill="black" stroke="black" points="212.62,-27.58 203.35,-32.7 213.79,-34.48 212.62,-27.58"/>
</g>
<!-- Node2 -->
<g id="Node000002" class="node">
<title>Node2</title>
<g id="a_Node000002"><a xlink:href="group___h_t32___board.html" target="_top" xlink:title=" ">
<polygon fill="white" stroke="#666666" points="69.25,-51 0,-51 0,-31 69.25,-31 69.25,-51"/>
<text text-anchor="middle" x="34.62" y="-37.5" font-family="Helvetica,sans-Serif" font-size="10.00">HT32_Board</text>
</a>
</g>
</g>
<!-- Node2&#45;&gt;Node1 -->
<g id="edge1" class="edge">
<title>Node2&#45;&gt;Node1</title>
<path fill="none" stroke="black" d="M80.96,-41C88.85,-41 97.07,-41 105.02,-41"/>
<polygon fill="black" stroke="black" points="81.22,-37.5 71.22,-41 81.22,-44.5 81.22,-37.5"/>
</g>
</g>
</svg>
