<?xml version="1.0" encoding="UTF-8" standalone="no"?>
<!DOCTYPE svg PUBLIC "-//W3C//DTD SVG 1.1//EN"
 "http://www.w3.org/Graphics/SVG/1.1/DTD/svg11.dtd">
<!-- Generated by graphviz version 9.0.0 (20230911.1827)
 -->
<!-- Title: PDMA Pages: 1 -->
<svg width="339pt" height="28pt"
 viewBox="0.00 0.00 338.75 28.00" xmlns="http://www.w3.org/2000/svg" xmlns:xlink="http://www.w3.org/1999/xlink">
<g id="graph0" class="graph" transform="scale(1 1) rotate(0) translate(4 24)">
<title>PDMA</title>
<!-- Node2 -->
<g id="Node000002" class="node">
<title>Node2</title>
<g id="a_Node000002"><a xlink:href="group___h_t32___series___peripheral___examples.html" target="_top" xlink:title=" ">
<polygon fill="white" stroke="#666666" points="131.5,-20 0,-20 0,0 131.5,0 131.5,-20"/>
<text text-anchor="middle" x="65.75" y="-6.5" font-family="Helvetica,sans-Serif" font-size="10.00">HT32 Peripheral Examples</text>
</a>
</g>
</g>
<!-- Node1 -->
<g id="Node000001" class="node">
<title>Node1</title>
<g id="a_Node000001"><a xlink:title=" ">
<polygon fill="#999999" stroke="#666666" points="212,-20 167.5,-20 167.5,0 212,0 212,-20"/>
<text text-anchor="middle" x="189.75" y="-6.5" font-family="Helvetica,sans-Serif" font-size="10.00">PDMA</text>
</a>
</g>
</g>
<!-- Node2&#45;&gt;Node1 -->
<g id="edge1" class="edge">
<title>Node2&#45;&gt;Node1</title>
<path fill="none" stroke="black" d="M143.01,-10C151.81,-10 160.16,-10 167.26,-10"/>
<polygon fill="black" stroke="black" points="143.19,-6.5 133.19,-10 143.19,-13.5 143.19,-6.5"/>
</g>
<!-- Node3 -->
<g id="Node000003" class="node">
<title>Node3</title>
<g id="a_Node000003"><a xlink:href="group___software_trigger.html" target="_top" xlink:title=" ">
<polygon fill="white" stroke="#666666" points="330.75,-20 248,-20 248,0 330.75,0 330.75,-20"/>
<text text-anchor="middle" x="289.38" y="-6.5" font-family="Helvetica,sans-Serif" font-size="10.00">SoftwareTrigger</text>
</a>
</g>
</g>
<!-- Node1&#45;&gt;Node3 -->
<g id="edge2" class="edge">
<title>Node1&#45;&gt;Node3</title>
<path fill="none" stroke="black" d="M223.8,-10C231.42,-10 239.61,-10 247.52,-10"/>
<polygon fill="black" stroke="black" points="223.93,-6.5 213.93,-10 223.93,-13.5 223.93,-6.5"/>
</g>
</g>
</svg>
