<?xml version="1.0" encoding="UTF-8" standalone="no"?>
<!DOCTYPE svg PUBLIC "-//W3C//DTD SVG 1.1//EN"
 "http://www.w3.org/Graphics/SVG/1.1/DTD/svg11.dtd">
<!-- Generated by graphviz version 9.0.0 (20230911.1827)
 -->
<!-- Title: SysTick Functions Pages: 1 -->
<svg width="355pt" height="40pt"
 viewBox="0.00 0.00 355.25 40.00" xmlns="http://www.w3.org/2000/svg" xmlns:xlink="http://www.w3.org/1999/xlink">
<g id="graph0" class="graph" transform="scale(1 1) rotate(0) translate(4 36)">
<title>SysTick Functions</title>
<!-- Node2 -->
<g id="Node000002" class="node">
<title>Node2</title>
<g id="a_Node000002"><a xlink:href="group___c_m_s_i_s___core___d_i_b_functions.html" target="_top" xlink:title="Functions that access the Debug Identification Block.">
<polygon fill="white" stroke="#666666" points="100.75,-32 0,-32 0,0 100.75,0 100.75,-32"/>
<text text-anchor="start" x="8" y="-18.5" font-family="Helvetica,sans-Serif" font-size="10.00">Debug Identification</text>
<text text-anchor="middle" x="50.38" y="-6.5" font-family="Helvetica,sans-Serif" font-size="10.00"> Functions</text>
</a>
</g>
</g>
<!-- Node1 -->
<g id="Node000001" class="node">
<title>Node1</title>
<g id="a_Node000001"><a xlink:title="Functions that configure the System.">
<polygon fill="#999999" stroke="#666666" points="233.75,-26 136.75,-26 136.75,-6 233.75,-6 233.75,-26"/>
<text text-anchor="middle" x="185.25" y="-12.5" font-family="Helvetica,sans-Serif" font-size="10.00">SysTick Functions</text>
</a>
</g>
</g>
<!-- Node2&#45;&gt;Node1 -->
<g id="edge1" class="edge">
<title>Node2&#45;&gt;Node1</title>
<path fill="none" stroke="black" d="M112.71,-16C120.64,-16 128.66,-16 136.32,-16"/>
<polygon fill="black" stroke="black" points="112.74,-12.5 102.74,-16 112.74,-19.5 112.74,-12.5"/>
</g>
<!-- Node3 -->
<g id="Node000003" class="node">
<title>Node3</title>
<g id="a_Node000003"><a xlink:href="group___c_m_s_i_s__core___debug_functions.html" target="_top" xlink:title="Functions that access the ITM debug interface.">
<polygon fill="white" stroke="#666666" points="347.25,-26 269.75,-26 269.75,-6 347.25,-6 347.25,-26"/>
<text text-anchor="middle" x="308.5" y="-12.5" font-family="Helvetica,sans-Serif" font-size="10.00">ITM Functions</text>
</a>
</g>
</g>
<!-- Node1&#45;&gt;Node3 -->
<g id="edge2" class="edge">
<title>Node1&#45;&gt;Node3</title>
<path fill="none" stroke="black" d="M245.51,-16C253.58,-16 261.69,-16 269.26,-16"/>
<polygon fill="black" stroke="black" points="245.68,-12.5 235.68,-16 245.68,-19.5 245.68,-12.5"/>
</g>
</g>
</svg>
