<?xml version="1.0" encoding="UTF-8" standalone="no"?>
<!DOCTYPE svg PUBLIC "-//W3C//DTD SVG 1.1//EN"
 "http://www.w3.org/Graphics/SVG/1.1/DTD/svg11.dtd">
<!-- Generated by graphviz version 9.0.0 (20230911.1827)
 -->
<!-- Title: RSTCU Pages: 1 -->
<svg width="380pt" height="104pt"
 viewBox="0.00 0.00 380.00 104.00" xmlns="http://www.w3.org/2000/svg" xmlns:xlink="http://www.w3.org/1999/xlink">
<g id="graph0" class="graph" transform="scale(1 1) rotate(0) translate(4 100)">
<title>RSTCU</title>
<!-- Node2 -->
<g id="Node000002" class="node">
<title>Node2</title>
<g id="a_Node000002"><a xlink:href="group___h_t32_f5xxxx___peripheral___driver.html" target="_top" xlink:title=" ">
<polygon fill="white" stroke="#666666" points="117.25,-64 0,-64 0,-32 117.25,-32 117.25,-64"/>
<text text-anchor="start" x="8" y="-50.5" font-family="Helvetica,sans-Serif" font-size="10.00">HT32F5xxxx Peripheral</text>
<text text-anchor="middle" x="58.62" y="-38.5" font-family="Helvetica,sans-Serif" font-size="10.00"> Driver</text>
</a>
</g>
</g>
<!-- Node1 -->
<g id="Node000001" class="node">
<title>Node1</title>
<g id="a_Node000001"><a xlink:title="RSTCU driver modules.">
<polygon fill="#999999" stroke="#666666" points="201.5,-58 153.25,-58 153.25,-38 201.5,-38 201.5,-58"/>
<text text-anchor="middle" x="177.38" y="-44.5" font-family="Helvetica,sans-Serif" font-size="10.00">RSTCU</text>
</a>
</g>
</g>
<!-- Node2&#45;&gt;Node1 -->
<g id="edge1" class="edge">
<title>Node2&#45;&gt;Node1</title>
<path fill="none" stroke="black" d="M129,-48C137.54,-48 145.75,-48 152.87,-48"/>
<polygon fill="black" stroke="black" points="129.17,-44.5 119.17,-48 129.17,-51.5 129.17,-44.5"/>
</g>
<!-- Node4 -->
<g id="Node000004" class="node">
<title>Node4</title>
<g id="a_Node000004"><a xlink:href="group___r_s_t_c_u___exported___constants.html" target="_top" xlink:title=" ">
<polygon fill="white" stroke="#666666" points="372,-96 237.5,-96 237.5,-76 372,-76 372,-96"/>
<text text-anchor="middle" x="304.75" y="-82.5" font-family="Helvetica,sans-Serif" font-size="10.00">RSTCU exported constants</text>
</a>
</g>
</g>
<!-- Node1&#45;&gt;Node4 -->
<g id="edge3" class="edge">
<title>Node1&#45;&gt;Node4</title>
<path fill="none" stroke="black" d="M212.87,-59.29C220.94,-61.87 229.51,-64.57 237.5,-67 246.89,-69.85 257.06,-72.83 266.55,-75.55"/>
<polygon fill="black" stroke="black" points="213.95,-55.96 203.35,-56.22 211.8,-62.62 213.95,-55.96"/>
</g>
<!-- Node5 -->
<g id="Node000005" class="node">
<title>Node5</title>
<g id="a_Node000005"><a xlink:href="group___r_s_t_c_u___exported___functions.html" target="_top" xlink:title=" ">
<polygon fill="white" stroke="#666666" points="370.12,-58 239.38,-58 239.38,-38 370.12,-38 370.12,-58"/>
<text text-anchor="middle" x="304.75" y="-44.5" font-family="Helvetica,sans-Serif" font-size="10.00">RSTCU exported functions</text>
</a>
</g>
</g>
<!-- Node1&#45;&gt;Node5 -->
<g id="edge4" class="edge">
<title>Node1&#45;&gt;Node5</title>
<path fill="none" stroke="black" d="M213.44,-48C221.44,-48 230.2,-48 239.01,-48"/>
<polygon fill="black" stroke="black" points="213.47,-44.5 203.47,-48 213.47,-51.5 213.47,-44.5"/>
</g>
<!-- Node3 -->
<g id="Node000003" class="node">
<title>Node3</title>
<g id="a_Node000003"><a xlink:href="group___r_s_t_c_u___exported___types.html" target="_top" xlink:title=" ">
<polygon fill="white" stroke="#666666" points="362.62,-20 246.88,-20 246.88,0 362.62,0 362.62,-20"/>
<text text-anchor="middle" x="304.75" y="-6.5" font-family="Helvetica,sans-Serif" font-size="10.00">RSTCU exported types</text>
</a>
</g>
</g>
<!-- Node1&#45;&gt;Node3 -->
<g id="edge2" class="edge">
<title>Node1&#45;&gt;Node3</title>
<path fill="none" stroke="black" d="M212.87,-36.71C220.94,-34.13 229.51,-31.43 237.5,-29 246.89,-26.15 257.06,-23.17 266.55,-20.45"/>
<polygon fill="black" stroke="black" points="211.8,-33.38 203.35,-39.78 213.95,-40.04 211.8,-33.38"/>
</g>
</g>
</svg>
