<?xml version="1.0" encoding="UTF-8" standalone="no"?>
<!DOCTYPE svg PUBLIC "-//W3C//DTD SVG 1.1//EN"
 "http://www.w3.org/Graphics/SVG/1.1/DTD/svg11.dtd">
<!-- Generated by graphviz version 9.0.0 (20230911.1827)
 -->
<!-- Title: GPIO Pages: 1 -->
<svg width="318pt" height="142pt"
 viewBox="0.00 0.00 317.75 142.00" xmlns="http://www.w3.org/2000/svg" xmlns:xlink="http://www.w3.org/1999/xlink">
<g id="graph0" class="graph" transform="scale(1 1) rotate(0) translate(4 138)">
<title>GPIO</title>
<!-- Node1 -->
<g id="Node000001" class="node">
<title>Node1</title>
<g id="a_Node000001"><a xlink:title=" ">
<polygon fill="#999999" stroke="#666666" points="207.5,-77 167.5,-77 167.5,-57 207.5,-57 207.5,-77"/>
<text text-anchor="middle" x="187.5" y="-63.5" font-family="Helvetica,sans-Serif" font-size="10.00">GPIO</text>
</a>
</g>
</g>
<!-- Node3 -->
<g id="Node000003" class="node">
<title>Node3</title>
<g id="a_Node000003"><a xlink:href="group___input.html" target="_top" xlink:title=" ">
<polygon fill="white" stroke="#666666" points="295.12,-134 258.12,-134 258.12,-114 295.12,-114 295.12,-134"/>
<text text-anchor="middle" x="276.62" y="-120.5" font-family="Helvetica,sans-Serif" font-size="10.00">Input</text>
</a>
</g>
</g>
<!-- Node1&#45;&gt;Node3 -->
<g id="edge2" class="edge">
<title>Node1&#45;&gt;Node3</title>
<path fill="none" stroke="black" d="M212.11,-83.85C221.74,-90.59 233.05,-98.31 243.5,-105 248.08,-107.93 253.12,-110.99 257.81,-113.77"/>
<polygon fill="black" stroke="black" points="214.22,-81.05 204.02,-78.15 210.18,-86.78 214.22,-81.05"/>
</g>
<!-- Node4 -->
<g id="Node000004" class="node">
<title>Node4</title>
<g id="a_Node000004"><a xlink:href="group___input_output.html" target="_top" xlink:title=" ">
<polygon fill="white" stroke="#666666" points="309.75,-96 243.5,-96 243.5,-76 309.75,-76 309.75,-96"/>
<text text-anchor="middle" x="276.62" y="-82.5" font-family="Helvetica,sans-Serif" font-size="10.00">InputOutput</text>
</a>
</g>
</g>
<!-- Node1&#45;&gt;Node4 -->
<g id="edge3" class="edge">
<title>Node1&#45;&gt;Node4</title>
<path fill="none" stroke="black" d="M218.84,-73.62C226.76,-75.34 235.32,-77.21 243.34,-78.96"/>
<polygon fill="black" stroke="black" points="219.83,-70.25 209.31,-71.54 218.34,-77.09 219.83,-70.25"/>
</g>
<!-- Node5 -->
<g id="Node000005" class="node">
<title>Node5</title>
<g id="a_Node000005"><a xlink:href="group___output.html" target="_top" xlink:title=" ">
<polygon fill="white" stroke="#666666" points="299.25,-58 254,-58 254,-38 299.25,-38 299.25,-58"/>
<text text-anchor="middle" x="276.62" y="-44.5" font-family="Helvetica,sans-Serif" font-size="10.00">Output</text>
</a>
</g>
</g>
<!-- Node1&#45;&gt;Node5 -->
<g id="edge4" class="edge">
<title>Node1&#45;&gt;Node5</title>
<path fill="none" stroke="black" d="M219.07,-60.33C230.44,-57.85 243.12,-55.09 253.58,-52.81"/>
<polygon fill="black" stroke="black" points="218.34,-56.91 209.31,-62.46 219.83,-63.75 218.34,-56.91"/>
</g>
<!-- Node6 -->
<g id="Node000006" class="node">
<title>Node6</title>
<g id="a_Node000006"><a xlink:href="group___pin_lock.html" target="_top" xlink:title=" ">
<polygon fill="white" stroke="#666666" points="302.25,-20 251,-20 251,0 302.25,0 302.25,-20"/>
<text text-anchor="middle" x="276.62" y="-6.5" font-family="Helvetica,sans-Serif" font-size="10.00">PinLock</text>
</a>
</g>
</g>
<!-- Node1&#45;&gt;Node6 -->
<g id="edge5" class="edge">
<title>Node1&#45;&gt;Node6</title>
<path fill="none" stroke="black" d="M212.11,-50.15C221.74,-43.41 233.05,-35.69 243.5,-29 247.98,-26.14 252.88,-23.16 257.48,-20.43"/>
<polygon fill="black" stroke="black" points="210.18,-47.22 204.02,-55.85 214.22,-52.95 210.18,-47.22"/>
</g>
<!-- Node2 -->
<g id="Node000002" class="node">
<title>Node2</title>
<g id="a_Node000002"><a xlink:href="group___h_t32___series___peripheral___examples.html" target="_top" xlink:title=" ">
<polygon fill="white" stroke="#666666" points="131.5,-77 0,-77 0,-57 131.5,-57 131.5,-77"/>
<text text-anchor="middle" x="65.75" y="-63.5" font-family="Helvetica,sans-Serif" font-size="10.00">HT32 Peripheral Examples</text>
</a>
</g>
</g>
<!-- Node2&#45;&gt;Node1 -->
<g id="edge1" class="edge">
<title>Node2&#45;&gt;Node1</title>
<path fill="none" stroke="black" d="M143.17,-67C151.91,-67 160.14,-67 167.03,-67"/>
<polygon fill="black" stroke="black" points="143.4,-63.5 133.39,-67 143.39,-70.5 143.4,-63.5"/>
</g>
</g>
</svg>
