<?xml version="1.0" encoding="UTF-8" standalone="no"?>
<!DOCTYPE svg PUBLIC "-//W3C//DTD SVG 1.1//EN"
 "http://www.w3.org/Graphics/SVG/1.1/DTD/svg11.dtd">
<!-- Generated by graphviz version 9.0.0 (20230911.1827)
 -->
<!-- Title: MISC Pages: 1 -->
<svg width="358pt" height="104pt"
 viewBox="0.00 0.00 358.25 104.00" xmlns="http://www.w3.org/2000/svg" xmlns:xlink="http://www.w3.org/1999/xlink">
<g id="graph0" class="graph" transform="scale(1 1) rotate(0) translate(4 100)">
<title>MISC</title>
<!-- Node2 -->
<g id="Node000002" class="node">
<title>Node2</title>
<g id="a_Node000002"><a xlink:href="group___h_t32___peripheral___driver.html" target="_top" xlink:title=" ">
<polygon fill="white" stroke="#666666" points="112,-58 0,-58 0,-38 112,-38 112,-58"/>
<text text-anchor="middle" x="56" y="-44.5" font-family="Helvetica,sans-Serif" font-size="10.00">HT32 Peripheral Driver</text>
</a>
</g>
</g>
<!-- Node1 -->
<g id="Node000001" class="node">
<title>Node1</title>
<g id="a_Node000001"><a xlink:title="MISC driver modules.">
<polygon fill="#999999" stroke="#666666" points="188,-58 148,-58 148,-38 188,-38 188,-58"/>
<text text-anchor="middle" x="168" y="-44.5" font-family="Helvetica,sans-Serif" font-size="10.00">MISC</text>
</a>
</g>
</g>
<!-- Node2&#45;&gt;Node1 -->
<g id="edge1" class="edge">
<title>Node2&#45;&gt;Node1</title>
<path fill="none" stroke="black" d="M123.59,-48C132.36,-48 140.72,-48 147.72,-48"/>
<polygon fill="black" stroke="black" points="123.84,-44.5 113.84,-48 123.84,-51.5 123.84,-44.5"/>
</g>
<!-- Node3 -->
<g id="Node000003" class="node">
<title>Node3</title>
<g id="a_Node000003"><a xlink:href="group___m_i_s_c___exported___constants.html" target="_top" xlink:title=" ">
<polygon fill="white" stroke="#666666" points="350.25,-96 224,-96 224,-76 350.25,-76 350.25,-96"/>
<text text-anchor="middle" x="287.12" y="-82.5" font-family="Helvetica,sans-Serif" font-size="10.00">MISC exported constants</text>
</a>
</g>
</g>
<!-- Node1&#45;&gt;Node3 -->
<g id="edge2" class="edge">
<title>Node1&#45;&gt;Node3</title>
<path fill="none" stroke="black" d="M199.11,-58.62C207.18,-61.4 215.9,-64.36 224,-67 232.79,-69.86 242.33,-72.84 251.23,-75.57"/>
<polygon fill="black" stroke="black" points="200.31,-55.33 189.72,-55.35 198.01,-61.94 200.31,-55.33"/>
</g>
<!-- Node4 -->
<g id="Node000004" class="node">
<title>Node4</title>
<g id="a_Node000004"><a xlink:href="group___m_i_s_c___exported___functions.html" target="_top" xlink:title=" ">
<polygon fill="white" stroke="#666666" points="348.38,-58 225.88,-58 225.88,-38 348.38,-38 348.38,-58"/>
<text text-anchor="middle" x="287.12" y="-44.5" font-family="Helvetica,sans-Serif" font-size="10.00">MISC exported functions</text>
</a>
</g>
</g>
<!-- Node1&#45;&gt;Node4 -->
<g id="edge3" class="edge">
<title>Node1&#45;&gt;Node4</title>
<path fill="none" stroke="black" d="M199.66,-48C207.65,-48 216.55,-48 225.51,-48"/>
<polygon fill="black" stroke="black" points="199.85,-44.5 189.85,-48 199.85,-51.5 199.85,-44.5"/>
</g>
<!-- Node5 -->
<g id="Node000005" class="node">
<title>Node5</title>
<g id="a_Node000005"><a xlink:href="group___m_i_s_c___private___define.html" target="_top" xlink:title=" ">
<polygon fill="white" stroke="#666666" points="345.75,-20 228.5,-20 228.5,0 345.75,0 345.75,-20"/>
<text text-anchor="middle" x="287.12" y="-6.5" font-family="Helvetica,sans-Serif" font-size="10.00">MISC private definitions</text>
</a>
</g>
</g>
<!-- Node1&#45;&gt;Node5 -->
<g id="edge4" class="edge">
<title>Node1&#45;&gt;Node5</title>
<path fill="none" stroke="black" d="M199.11,-37.38C207.18,-34.6 215.9,-31.64 224,-29 232.79,-26.14 242.33,-23.16 251.23,-20.43"/>
<polygon fill="black" stroke="black" points="198.01,-34.06 189.72,-40.65 200.31,-40.67 198.01,-34.06"/>
</g>
</g>
</svg>
