<?xml version="1.0" encoding="UTF-8" standalone="no"?>
<!DOCTYPE svg PUBLIC "-//W3C//DTD SVG 1.1//EN"
 "http://www.w3.org/Graphics/SVG/1.1/DTD/svg11.dtd">
<!-- Generated by graphviz version 9.0.0 (20230911.1827)
 -->
<!-- Title: CKCU Pages: 1 -->
<svg width="376pt" height="142pt"
 viewBox="0.00 0.00 376.25 142.00" xmlns="http://www.w3.org/2000/svg" xmlns:xlink="http://www.w3.org/1999/xlink">
<g id="graph0" class="graph" transform="scale(1 1) rotate(0) translate(4 138)">
<title>CKCU</title>
<!-- Node1 -->
<g id="Node000001" class="node">
<title>Node1</title>
<g id="a_Node000001"><a xlink:title=" ">
<polygon fill="#999999" stroke="#666666" points="210.5,-77 167.5,-77 167.5,-57 210.5,-57 210.5,-77"/>
<text text-anchor="middle" x="189" y="-63.5" font-family="Helvetica,sans-Serif" font-size="10.00">CKCU</text>
</a>
</g>
</g>
<!-- Node3 -->
<g id="Node000003" class="node">
<title>Node3</title>
<g id="a_Node000003"><a xlink:href="group___clock___configuration.html" target="_top" xlink:title=" ">
<polygon fill="white" stroke="#666666" points="358.5,-134 256.25,-134 256.25,-114 358.5,-114 358.5,-134"/>
<text text-anchor="middle" x="307.38" y="-120.5" font-family="Helvetica,sans-Serif" font-size="10.00">Clock_Configuration</text>
</a>
</g>
</g>
<!-- Node1&#45;&gt;Node3 -->
<g id="edge2" class="edge">
<title>Node1&#45;&gt;Node3</title>
<path fill="none" stroke="black" d="M212.07,-83.99C222.16,-91.18 234.52,-99.22 246.5,-105 253.18,-108.22 260.53,-111.08 267.74,-113.52"/>
<polygon fill="black" stroke="black" points="214.17,-81.19 204.04,-78.08 210.02,-86.83 214.17,-81.19"/>
</g>
<!-- Node4 -->
<g id="Node000004" class="node">
<title>Node4</title>
<g id="a_Node000004"><a xlink:href="group___clock___configuration___l_s_i.html" target="_top" xlink:title=" ">
<polygon fill="white" stroke="#666666" points="368.25,-96 246.5,-96 246.5,-76 368.25,-76 368.25,-96"/>
<text text-anchor="middle" x="307.38" y="-82.5" font-family="Helvetica,sans-Serif" font-size="10.00">Clock_Configuration_LSI</text>
</a>
</g>
</g>
<!-- Node1&#45;&gt;Node4 -->
<g id="edge3" class="edge">
<title>Node1&#45;&gt;Node4</title>
<path fill="none" stroke="black" d="M222.01,-72.23C229.59,-73.46 237.92,-74.82 246.31,-76.19"/>
<polygon fill="black" stroke="black" points="222.73,-68.8 212.3,-70.64 221.6,-75.71 222.73,-68.8"/>
</g>
<!-- Node5 -->
<g id="Node000005" class="node">
<title>Node5</title>
<g id="a_Node000005"><a xlink:href="group___h_s_i___auto_trim___by___l_s_e.html" target="_top" xlink:title=" ">
<polygon fill="white" stroke="#666666" points="366,-58 248.75,-58 248.75,-38 366,-38 366,-58"/>
<text text-anchor="middle" x="307.38" y="-44.5" font-family="Helvetica,sans-Serif" font-size="10.00">HSI_AutoTrim_By_LSE</text>
</a>
</g>
</g>
<!-- Node1&#45;&gt;Node5 -->
<g id="edge4" class="edge">
<title>Node1&#45;&gt;Node5</title>
<path fill="none" stroke="black" d="M222.06,-61.77C230.23,-60.43 239.27,-58.96 248.3,-57.48"/>
<polygon fill="black" stroke="black" points="221.6,-58.29 212.3,-63.36 222.73,-65.2 221.6,-58.29"/>
</g>
<!-- Node6 -->
<g id="Node000006" class="node">
<title>Node6</title>
<g id="a_Node000006"><a xlink:href="group___h_s_i___auto_trim___by___u_s_b.html" target="_top" xlink:title=" ">
<polygon fill="white" stroke="#666666" points="366.75,-20 248,-20 248,0 366.75,0 366.75,-20"/>
<text text-anchor="middle" x="307.38" y="-6.5" font-family="Helvetica,sans-Serif" font-size="10.00">HSI_AutoTrim_By_USB</text>
</a>
</g>
</g>
<!-- Node1&#45;&gt;Node6 -->
<g id="edge5" class="edge">
<title>Node1&#45;&gt;Node6</title>
<path fill="none" stroke="black" d="M212.07,-50.01C222.16,-42.82 234.52,-34.78 246.5,-29 253.18,-25.78 260.53,-22.92 267.74,-20.48"/>
<polygon fill="black" stroke="black" points="210.02,-47.17 204.04,-55.92 214.17,-52.81 210.02,-47.17"/>
</g>
<!-- Node2 -->
<g id="Node000002" class="node">
<title>Node2</title>
<g id="a_Node000002"><a xlink:href="group___h_t32___series___peripheral___examples.html" target="_top" xlink:title=" ">
<polygon fill="white" stroke="#666666" points="131.5,-77 0,-77 0,-57 131.5,-57 131.5,-77"/>
<text text-anchor="middle" x="65.75" y="-63.5" font-family="Helvetica,sans-Serif" font-size="10.00">HT32 Peripheral Examples</text>
</a>
</g>
</g>
<!-- Node2&#45;&gt;Node1 -->
<g id="edge1" class="edge">
<title>Node2&#45;&gt;Node1</title>
<path fill="none" stroke="black" d="M143.24,-67C151.97,-67 160.23,-67 167.21,-67"/>
<polygon fill="black" stroke="black" points="143.5,-63.5 133.5,-67 143.5,-70.5 143.5,-63.5"/>
</g>
</g>
</svg>
