<?xml version="1.0" encoding="UTF-8" standalone="no"?>
<!DOCTYPE svg PUBLIC "-//W3C//DTD SVG 1.1//EN"
 "http://www.w3.org/Graphics/SVG/1.1/DTD/svg11.dtd">
<!-- Generated by graphviz version 9.0.0 (20230911.1827)
 -->
<!-- Title: System Tick Timer (SysTick) Pages: 1 -->
<svg width="406pt" height="90pt"
 viewBox="0.00 0.00 406.25 90.00" xmlns="http://www.w3.org/2000/svg" xmlns:xlink="http://www.w3.org/1999/xlink">
<g id="graph0" class="graph" transform="scale(1 1) rotate(0) translate(4 86)">
<title>System Tick Timer (SysTick)</title>
<!-- Node3 -->
<g id="Node000003" class="node">
<title>Node3</title>
<g id="a_Node000003"><a xlink:href="group___c_m_s_i_s___i_c_b.html" target="_top" xlink:title="Type definitions for the Implementation Control Block Register.">
<polygon fill="white" stroke="#666666" points="115.75,-82 0,-82 0,-50 115.75,-50 115.75,-82"/>
<text text-anchor="start" x="8" y="-68.5" font-family="Helvetica,sans-Serif" font-size="10.00">Implementation Control</text>
<text text-anchor="middle" x="57.88" y="-56.5" font-family="Helvetica,sans-Serif" font-size="10.00"> Block register (ICB)</text>
</a>
</g>
</g>
<!-- Node1 -->
<g id="Node000001" class="node">
<title>Node1</title>
<g id="a_Node000001"><a xlink:title="Type definitions for the System Timer Registers.">
<polygon fill="#999999" stroke="#666666" points="252.5,-57 151.75,-57 151.75,-25 252.5,-25 252.5,-57"/>
<text text-anchor="start" x="159.75" y="-43.5" font-family="Helvetica,sans-Serif" font-size="10.00">System Tick Timer </text>
<text text-anchor="middle" x="202.12" y="-31.5" font-family="Helvetica,sans-Serif" font-size="10.00">(SysTick)</text>
</a>
</g>
</g>
<!-- Node3&#45;&gt;Node1 -->
<g id="edge2" class="edge">
<title>Node3&#45;&gt;Node1</title>
<path fill="none" stroke="black" d="M127.04,-54.02C135.26,-52.58 143.53,-51.12 151.41,-49.74"/>
<polygon fill="black" stroke="black" points="126.65,-50.54 117.4,-55.71 127.86,-57.43 126.65,-50.54"/>
</g>
<!-- Node4 -->
<g id="Node000004" class="node">
<title>Node4</title>
<g id="a_Node000004"><a xlink:href="group___c_m_s_i_s___i_t_m.html" target="_top" xlink:title="Type definitions for the Instrumentation Trace Macrocell (ITM)">
<polygon fill="white" stroke="#666666" points="398.25,-57 288.5,-57 288.5,-25 398.25,-25 398.25,-57"/>
<text text-anchor="start" x="296.5" y="-43.5" font-family="Helvetica,sans-Serif" font-size="10.00">Instrumentation Trace</text>
<text text-anchor="middle" x="343.38" y="-31.5" font-family="Helvetica,sans-Serif" font-size="10.00"> Macrocell (ITM)</text>
</a>
</g>
</g>
<!-- Node2 -->
<g id="Node000002" class="node">
<title>Node2</title>
<g id="a_Node000002"><a xlink:href="group___c_m_s_i_s___s_cn_s_c_b.html" target="_top" xlink:title="Type definitions for the System Control and ID Register not in the SCB.">
<polygon fill="white" stroke="#666666" points="110.5,-32 5.25,-32 5.25,0 110.5,0 110.5,-32"/>
<text text-anchor="start" x="13.25" y="-18.5" font-family="Helvetica,sans-Serif" font-size="10.00">System Controls not</text>
<text text-anchor="middle" x="57.88" y="-6.5" font-family="Helvetica,sans-Serif" font-size="10.00"> in SCB (SCnSCB)</text>
</a>
</g>
</g>
<!-- Node2&#45;&gt;Node1 -->
<g id="edge1" class="edge">
<title>Node2&#45;&gt;Node1</title>
<path fill="none" stroke="black" d="M121.76,-27.05C131.73,-28.8 141.93,-30.6 151.54,-32.29"/>
<polygon fill="black" stroke="black" points="122.58,-23.64 112.12,-25.36 121.37,-30.54 122.58,-23.64"/>
</g>
<!-- Node1&#45;&gt;Node4 -->
<g id="edge3" class="edge">
<title>Node1&#45;&gt;Node4</title>
<path fill="none" stroke="black" d="M263.93,-41C272.05,-41 280.33,-41 288.32,-41"/>
<polygon fill="black" stroke="black" points="264.12,-37.5 254.12,-41 264.12,-44.5 264.12,-37.5"/>
</g>
</g>
</svg>
