<?xml version="1.0" encoding="UTF-8" standalone="no"?>
<!DOCTYPE svg PUBLIC "-//W3C//DTD SVG 1.1//EN"
 "http://www.w3.org/Graphics/SVG/1.1/DTD/svg11.dtd">
<!-- Generated by graphviz version 9.0.0 (20230911.1827)
 -->
<!-- Title: DAC exported types Pages: 1 -->
<svg width="225pt" height="66pt"
 viewBox="0.00 0.00 225.25 66.00" xmlns="http://www.w3.org/2000/svg" xmlns:xlink="http://www.w3.org/1999/xlink">
<g id="graph0" class="graph" transform="scale(1 1) rotate(0) translate(4 62)">
<title>DAC exported types</title>
<!-- Node2 -->
<g id="Node000002" class="node">
<title>Node2</title>
<g id="a_Node000002"><a xlink:href="group___d_a_c.html" target="_top" xlink:title="DAC driver modules.">
<polygon fill="white" stroke="#666666" points="56.88,-58 20.62,-58 20.62,-38 56.88,-38 56.88,-58"/>
<text text-anchor="middle" x="38.75" y="-44.5" font-family="Helvetica,sans-Serif" font-size="10.00">DAC</text>
</a>
</g>
</g>
<!-- Node1 -->
<g id="Node000001" class="node">
<title>Node1</title>
<g id="a_Node000001"><a xlink:title=" ">
<polygon fill="#999999" stroke="#666666" points="217.25,-39 113.5,-39 113.5,-19 217.25,-19 217.25,-39"/>
<text text-anchor="middle" x="165.38" y="-25.5" font-family="Helvetica,sans-Serif" font-size="10.00">DAC exported types</text>
</a>
</g>
</g>
<!-- Node2&#45;&gt;Node1 -->
<g id="edge1" class="edge">
<title>Node2&#45;&gt;Node1</title>
<path fill="none" stroke="black" d="M68.6,-43.6C81.87,-41.58 98,-39.12 113.22,-36.8"/>
<polygon fill="black" stroke="black" points="68.2,-40.12 58.84,-45.09 69.25,-47.04 68.2,-40.12"/>
</g>
<!-- Node3 -->
<g id="Node000003" class="node">
<title>Node3</title>
<g id="a_Node000003"><a xlink:href="group___d_a_c___d_u_a_l16.html" target="_top" xlink:title="DAC driver modules.">
<polygon fill="white" stroke="#666666" points="77.5,-20 0,-20 0,0 77.5,0 77.5,-20"/>
<text text-anchor="middle" x="38.75" y="-6.5" font-family="Helvetica,sans-Serif" font-size="10.00">DAC_DUAL16</text>
</a>
</g>
</g>
<!-- Node3&#45;&gt;Node1 -->
<g id="edge2" class="edge">
<title>Node3&#45;&gt;Node1</title>
<path fill="none" stroke="black" d="M89.15,-17.53C97.06,-18.74 105.27,-19.99 113.22,-21.2"/>
<polygon fill="black" stroke="black" points="89.73,-14.08 79.32,-16.03 88.67,-21 89.73,-14.08"/>
</g>
</g>
</svg>
