<?xml version="1.0" encoding="UTF-8" standalone="no"?>
<!DOCTYPE svg PUBLIC "-//W3C//DTD SVG 1.1//EN"
 "http://www.w3.org/Graphics/SVG/1.1/DTD/svg11.dtd">
<!-- Generated by graphviz version 9.0.0 (20230911.1827)
 -->
<!-- Title: I2S Pages: 1 -->
<svg width="344pt" height="142pt"
 viewBox="0.00 0.00 344.00 142.00" xmlns="http://www.w3.org/2000/svg" xmlns:xlink="http://www.w3.org/1999/xlink">
<g id="graph0" class="graph" transform="scale(1 1) rotate(0) translate(4 138)">
<title>I2S</title>
<!-- Node2 -->
<g id="Node000002" class="node">
<title>Node2</title>
<g id="a_Node000002"><a xlink:href="group___h_t32_f5xxxx___peripheral___driver.html" target="_top" xlink:title=" ">
<polygon fill="white" stroke="#666666" points="117.25,-83 0,-83 0,-51 117.25,-51 117.25,-83"/>
<text text-anchor="start" x="8" y="-69.5" font-family="Helvetica,sans-Serif" font-size="10.00">HT32F5xxxx Peripheral</text>
<text text-anchor="middle" x="58.62" y="-57.5" font-family="Helvetica,sans-Serif" font-size="10.00"> Driver</text>
</a>
</g>
</g>
<!-- Node1 -->
<g id="Node000001" class="node">
<title>Node1</title>
<g id="a_Node000001"><a xlink:title="I2S driver modules.">
<polygon fill="#999999" stroke="#666666" points="183.5,-77 153.25,-77 153.25,-57 183.5,-57 183.5,-77"/>
<text text-anchor="middle" x="168.38" y="-63.5" font-family="Helvetica,sans-Serif" font-size="10.00">I2S</text>
</a>
</g>
</g>
<!-- Node2&#45;&gt;Node1 -->
<g id="edge1" class="edge">
<title>Node2&#45;&gt;Node1</title>
<path fill="none" stroke="black" d="M128.85,-67C137.87,-67 146.27,-67 152.91,-67"/>
<polygon fill="black" stroke="black" points="129.11,-63.5 119.11,-67 129.11,-70.5 129.11,-63.5"/>
</g>
<!-- Node4 -->
<g id="Node000004" class="node">
<title>Node4</title>
<g id="a_Node000004"><a xlink:href="group___i2_s___exported___constants.html" target="_top" xlink:title=" ">
<polygon fill="white" stroke="#666666" points="336,-134 219.5,-134 219.5,-114 336,-114 336,-134"/>
<text text-anchor="middle" x="277.75" y="-120.5" font-family="Helvetica,sans-Serif" font-size="10.00">I2S exported constants</text>
</a>
</g>
</g>
<!-- Node1&#45;&gt;Node4 -->
<g id="edge3" class="edge">
<title>Node1&#45;&gt;Node4</title>
<path fill="none" stroke="black" d="M189.28,-84.49C198.09,-91.58 208.86,-99.4 219.5,-105 225.71,-108.27 232.59,-111.13 239.36,-113.57"/>
<polygon fill="black" stroke="black" points="191.66,-81.92 181.75,-78.2 187.18,-87.29 191.66,-81.92"/>
</g>
<!-- Node5 -->
<g id="Node000005" class="node">
<title>Node5</title>
<g id="a_Node000005"><a xlink:href="group___i2_s___exported___functions.html" target="_top" xlink:title=" ">
<polygon fill="white" stroke="#666666" points="334.12,-96 221.38,-96 221.38,-76 334.12,-76 334.12,-96"/>
<text text-anchor="middle" x="277.75" y="-82.5" font-family="Helvetica,sans-Serif" font-size="10.00">I2S exported functions</text>
</a>
</g>
</g>
<!-- Node1&#45;&gt;Node5 -->
<g id="edge4" class="edge">
<title>Node1&#45;&gt;Node5</title>
<path fill="none" stroke="black" d="M194.95,-71.53C202.93,-72.94 212.08,-74.56 221.29,-76.19"/>
<polygon fill="black" stroke="black" points="195.8,-68.12 185.35,-69.83 194.58,-75.02 195.8,-68.12"/>
</g>
<!-- Node3 -->
<g id="Node000003" class="node">
<title>Node3</title>
<g id="a_Node000003"><a xlink:href="group___i2_s___exported___types.html" target="_top" xlink:title=" ">
<polygon fill="white" stroke="#666666" points="326.62,-58 228.88,-58 228.88,-38 326.62,-38 326.62,-58"/>
<text text-anchor="middle" x="277.75" y="-44.5" font-family="Helvetica,sans-Serif" font-size="10.00">I2S exported types</text>
</a>
</g>
</g>
<!-- Node1&#45;&gt;Node3 -->
<g id="edge2" class="edge">
<title>Node1&#45;&gt;Node3</title>
<path fill="none" stroke="black" d="M195.08,-62.45C205.13,-60.67 217.01,-58.57 228.54,-56.53"/>
<polygon fill="black" stroke="black" points="194.58,-58.98 185.35,-64.17 195.8,-65.88 194.58,-58.98"/>
</g>
<!-- Node6 -->
<g id="Node000006" class="node">
<title>Node6</title>
<g id="a_Node000006"><a xlink:href="group___i2_s___private___define.html" target="_top" xlink:title=" ">
<polygon fill="white" stroke="#666666" points="331.5,-20 224,-20 224,0 331.5,0 331.5,-20"/>
<text text-anchor="middle" x="277.75" y="-6.5" font-family="Helvetica,sans-Serif" font-size="10.00">I2S private definitions</text>
</a>
</g>
</g>
<!-- Node1&#45;&gt;Node6 -->
<g id="edge5" class="edge">
<title>Node1&#45;&gt;Node6</title>
<path fill="none" stroke="black" d="M189.28,-49.51C198.09,-42.42 208.86,-34.6 219.5,-29 225.71,-25.73 232.59,-22.87 239.36,-20.43"/>
<polygon fill="black" stroke="black" points="187.18,-46.71 181.75,-55.8 191.66,-52.08 187.18,-46.71"/>
</g>
</g>
</svg>
