<?xml version="1.0" encoding="UTF-8" standalone="no"?>
<!DOCTYPE svg PUBLIC "-//W3C//DTD SVG 1.1//EN"
 "http://www.w3.org/Graphics/SVG/1.1/DTD/svg11.dtd">
<!-- Generated by graphviz version 9.0.0 (20230911.1827)
 -->
<!-- Title: Instrumentation Trace Macrocell (ITM) Pages: 1 -->
<svg width="398pt" height="40pt"
 viewBox="0.00 0.00 398.00 40.00" xmlns="http://www.w3.org/2000/svg" xmlns:xlink="http://www.w3.org/1999/xlink">
<g id="graph0" class="graph" transform="scale(1 1) rotate(0) translate(4 36)">
<title>Instrumentation Trace Macrocell (ITM)</title>
<!-- Node3 -->
<g id="Node000003" class="node">
<title>Node3</title>
<g id="a_Node000003"><a xlink:href="group___c_m_s_i_s___d_w_t.html" target="_top" xlink:title="Type definitions for the Data Watchpoint and Trace (DWT)">
<polygon fill="white" stroke="#666666" points="390,-32 282.5,-32 282.5,0 390,0 390,-32"/>
<text text-anchor="start" x="290.5" y="-18.5" font-family="Helvetica,sans-Serif" font-size="10.00">Data Watchpoint and</text>
<text text-anchor="middle" x="336.25" y="-6.5" font-family="Helvetica,sans-Serif" font-size="10.00"> Trace (DWT)</text>
</a>
</g>
</g>
<!-- Node1 -->
<g id="Node000001" class="node">
<title>Node1</title>
<g id="a_Node000001"><a xlink:title="Type definitions for the Instrumentation Trace Macrocell (ITM)">
<polygon fill="#999999" stroke="#666666" points="246.5,-32 136.75,-32 136.75,0 246.5,0 246.5,-32"/>
<text text-anchor="start" x="144.75" y="-18.5" font-family="Helvetica,sans-Serif" font-size="10.00">Instrumentation Trace</text>
<text text-anchor="middle" x="191.62" y="-6.5" font-family="Helvetica,sans-Serif" font-size="10.00"> Macrocell (ITM)</text>
</a>
</g>
</g>
<!-- Node1&#45;&gt;Node3 -->
<g id="edge2" class="edge">
<title>Node1&#45;&gt;Node3</title>
<path fill="none" stroke="black" d="M258.42,-16C266.33,-16 274.32,-16 282.02,-16"/>
<polygon fill="black" stroke="black" points="258.47,-12.5 248.47,-16 258.47,-19.5 258.47,-12.5"/>
</g>
<!-- Node2 -->
<g id="Node000002" class="node">
<title>Node2</title>
<g id="a_Node000002"><a xlink:href="group___c_m_s_i_s___sys_tick.html" target="_top" xlink:title="Type definitions for the System Timer Registers.">
<polygon fill="white" stroke="#666666" points="100.75,-32 0,-32 0,0 100.75,0 100.75,-32"/>
<text text-anchor="start" x="8" y="-18.5" font-family="Helvetica,sans-Serif" font-size="10.00">System Tick Timer </text>
<text text-anchor="middle" x="50.38" y="-6.5" font-family="Helvetica,sans-Serif" font-size="10.00">(SysTick)</text>
</a>
</g>
</g>
<!-- Node2&#45;&gt;Node1 -->
<g id="edge1" class="edge">
<title>Node2&#45;&gt;Node1</title>
<path fill="none" stroke="black" d="M112.18,-16C120.3,-16 128.58,-16 136.57,-16"/>
<polygon fill="black" stroke="black" points="112.37,-12.5 102.37,-16 112.37,-19.5 112.37,-12.5"/>
</g>
</g>
</svg>
