<?xml version="1.0" encoding="UTF-8" standalone="no"?>
<!DOCTYPE svg PUBLIC "-//W3C//DTD SVG 1.1//EN"
 "http://www.w3.org/Graphics/SVG/1.1/DTD/svg11.dtd">
<!-- Generated by graphviz version 9.0.0 (20230911.1827)
 -->
<!-- Title: NVIC Functions Pages: 1 -->
<svg width="376pt" height="90pt"
 viewBox="0.00 0.00 376.25 90.00" xmlns="http://www.w3.org/2000/svg" xmlns:xlink="http://www.w3.org/1999/xlink">
<g id="graph0" class="graph" transform="scale(1 1) rotate(0) translate(4 86)">
<title>NVIC Functions</title>
<!-- Node4 -->
<g id="Node000004" class="node">
<title>Node4</title>
<g id="a_Node000004"><a xlink:href="group___c_m_s_i_s___core___fpu_functions.html" target="_top" xlink:title="Function that provides FPU type.">
<polygon fill="white" stroke="#666666" points="368.25,-51 287,-51 287,-31 368.25,-31 368.25,-51"/>
<text text-anchor="middle" x="327.62" y="-37.5" font-family="Helvetica,sans-Serif" font-size="10.00">FPU Functions</text>
</a>
</g>
</g>
<!-- Node3 -->
<g id="Node000003" class="node">
<title>Node3</title>
<g id="a_Node000003"><a xlink:href="group___c_m_s_i_s___core___function_interface.html" target="_top" xlink:title=" ">
<polygon fill="white" stroke="#666666" points="130.75,-82 0,-82 0,-50 130.75,-50 130.75,-82"/>
<text text-anchor="start" x="8" y="-68.5" font-family="Helvetica,sans-Serif" font-size="10.00">Functions and Instructions</text>
<text text-anchor="middle" x="65.38" y="-56.5" font-family="Helvetica,sans-Serif" font-size="10.00"> Reference</text>
</a>
</g>
</g>
<!-- Node1 -->
<g id="Node000001" class="node">
<title>Node1</title>
<g id="a_Node000001"><a xlink:title="Functions that manage interrupts and exceptions via the NVIC.">
<polygon fill="#999999" stroke="#666666" points="251,-51 166.75,-51 166.75,-31 251,-31 251,-51"/>
<text text-anchor="middle" x="208.88" y="-37.5" font-family="Helvetica,sans-Serif" font-size="10.00">NVIC Functions</text>
</a>
</g>
</g>
<!-- Node3&#45;&gt;Node1 -->
<g id="edge2" class="edge">
<title>Node3&#45;&gt;Node1</title>
<path fill="none" stroke="black" d="M142,-52.64C150.43,-51.15 158.76,-49.68 166.51,-48.31"/>
<polygon fill="black" stroke="black" points="141.64,-49.15 132.4,-54.33 142.86,-56.04 141.64,-49.15"/>
</g>
<!-- Node1&#45;&gt;Node4 -->
<g id="edge3" class="edge">
<title>Node1&#45;&gt;Node4</title>
<path fill="none" stroke="black" d="M262.68,-41C270.8,-41 279.06,-41 286.83,-41"/>
<polygon fill="black" stroke="black" points="262.88,-37.5 252.88,-41 262.88,-44.5 262.88,-37.5"/>
</g>
<!-- Node2 -->
<g id="Node000002" class="node">
<title>Node2</title>
<g id="a_Node000002"><a xlink:href="group___c_m_s_i_s__register__aliases.html" target="_top" xlink:title="Register alias definitions for backwards compatibility.">
<polygon fill="white" stroke="#666666" points="127,-32 3.75,-32 3.75,0 127,0 127,-32"/>
<text text-anchor="start" x="11.75" y="-18.5" font-family="Helvetica,sans-Serif" font-size="10.00">Backwards Compatibility</text>
<text text-anchor="middle" x="65.38" y="-6.5" font-family="Helvetica,sans-Serif" font-size="10.00"> Aliases</text>
</a>
</g>
</g>
<!-- Node2&#45;&gt;Node1 -->
<g id="edge1" class="edge">
<title>Node2&#45;&gt;Node1</title>
<path fill="none" stroke="black" d="M138.4,-28.72C147.96,-30.41 157.48,-32.1 166.28,-33.65"/>
<polygon fill="black" stroke="black" points="139.15,-25.3 128.7,-27.01 137.93,-32.2 139.15,-25.3"/>
</g>
</g>
</svg>
