<?xml version="1.0" encoding="UTF-8" standalone="no"?>
<!DOCTYPE svg PUBLIC "-//W3C//DTD SVG 1.1//EN"
 "http://www.w3.org/Graphics/SVG/1.1/DTD/svg11.dtd">
<!-- Generated by graphviz version 9.0.0 (20230911.1827)
 -->
<!-- Title: SLEC Pages: 1 -->
<svg width="367pt" height="28pt"
 viewBox="0.00 0.00 367.25 28.00" xmlns="http://www.w3.org/2000/svg" xmlns:xlink="http://www.w3.org/1999/xlink">
<g id="graph0" class="graph" transform="scale(1 1) rotate(0) translate(4 24)">
<title>SLEC</title>
<!-- Node2 -->
<g id="Node000002" class="node">
<title>Node2</title>
<g id="a_Node000002"><a xlink:href="group___h_t32___series___peripheral___examples.html" target="_top" xlink:title=" ">
<polygon fill="white" stroke="#666666" points="131.5,-20 0,-20 0,0 131.5,0 131.5,-20"/>
<text text-anchor="middle" x="65.75" y="-6.5" font-family="Helvetica,sans-Serif" font-size="10.00">HT32 Peripheral Examples</text>
</a>
</g>
</g>
<!-- Node1 -->
<g id="Node000001" class="node">
<title>Node1</title>
<g id="a_Node000001"><a xlink:title=" ">
<polygon fill="#999999" stroke="#666666" points="209,-20 167.5,-20 167.5,0 209,0 209,-20"/>
<text text-anchor="middle" x="188.25" y="-6.5" font-family="Helvetica,sans-Serif" font-size="10.00">SLEC</text>
</a>
</g>
</g>
<!-- Node2&#45;&gt;Node1 -->
<g id="edge1" class="edge">
<title>Node2&#45;&gt;Node1</title>
<path fill="none" stroke="black" d="M143.45,-10C152.04,-10 160.15,-10 167,-10"/>
<polygon fill="black" stroke="black" points="143.45,-6.5 133.45,-10 143.45,-13.5 143.45,-6.5"/>
</g>
<!-- Node3 -->
<g id="Node000003" class="node">
<title>Node3</title>
<g id="a_Node000003"><a xlink:href="group___segment_digital_display.html" target="_top" xlink:title=" ">
<polygon fill="white" stroke="#666666" points="359.25,-20 245,-20 245,0 359.25,0 359.25,-20"/>
<text text-anchor="middle" x="302.12" y="-6.5" font-family="Helvetica,sans-Serif" font-size="10.00">SegmentDigitalDisplay</text>
</a>
</g>
</g>
<!-- Node1&#45;&gt;Node3 -->
<g id="edge2" class="edge">
<title>Node1&#45;&gt;Node3</title>
<path fill="none" stroke="black" d="M220.74,-10C228.27,-10 236.54,-10 244.82,-10"/>
<polygon fill="black" stroke="black" points="220.76,-6.5 210.76,-10 220.76,-13.5 220.76,-6.5"/>
</g>
</g>
</svg>
