<?xml version="1.0" encoding="UTF-8" standalone="no"?>
<!DOCTYPE svg PUBLIC "-//W3C//DTD SVG 1.1//EN"
 "http://www.w3.org/Graphics/SVG/1.1/DTD/svg11.dtd">
<!-- Generated by graphviz version 9.0.0 (20230911.1827)
 -->
<!-- Title: BFTM Pages: 1 -->
<svg width="340pt" height="104pt"
 viewBox="0.00 0.00 340.25 104.00" xmlns="http://www.w3.org/2000/svg" xmlns:xlink="http://www.w3.org/1999/xlink">
<g id="graph0" class="graph" transform="scale(1 1) rotate(0) translate(4 100)">
<title>BFTM</title>
<!-- Node1 -->
<g id="Node000001" class="node">
<title>Node1</title>
<g id="a_Node000001"><a xlink:title=" ">
<polygon fill="#999999" stroke="#666666" points="209.75,-58 167.5,-58 167.5,-38 209.75,-38 209.75,-58"/>
<text text-anchor="middle" x="188.62" y="-44.5" font-family="Helvetica,sans-Serif" font-size="10.00">BFTM</text>
</a>
</g>
</g>
<!-- Node3 -->
<g id="Node000003" class="node">
<title>Node3</title>
<g id="a_Node000003"><a xlink:href="group___one_shot.html" target="_top" xlink:title=" ">
<polygon fill="white" stroke="#666666" points="316.12,-96 261.88,-96 261.88,-76 316.12,-76 316.12,-96"/>
<text text-anchor="middle" x="289" y="-82.5" font-family="Helvetica,sans-Serif" font-size="10.00">OneShot</text>
</a>
</g>
</g>
<!-- Node1&#45;&gt;Node3 -->
<g id="edge2" class="edge">
<title>Node1&#45;&gt;Node3</title>
<path fill="none" stroke="black" d="M220.52,-59.93C233.73,-65.04 248.99,-70.93 261.66,-75.82"/>
<polygon fill="black" stroke="black" points="222.01,-56.76 211.42,-56.42 219.49,-63.29 222.01,-56.76"/>
</g>
<!-- Node4 -->
<g id="Node000004" class="node">
<title>Node4</title>
<g id="a_Node000004"><a xlink:href="group___repetitive_toggle.html" target="_top" xlink:title=" ">
<polygon fill="white" stroke="#666666" points="332.25,-58 245.75,-58 245.75,-38 332.25,-38 332.25,-58"/>
<text text-anchor="middle" x="289" y="-44.5" font-family="Helvetica,sans-Serif" font-size="10.00">RepetitiveToggle</text>
</a>
</g>
</g>
<!-- Node1&#45;&gt;Node4 -->
<g id="edge3" class="edge">
<title>Node1&#45;&gt;Node4</title>
<path fill="none" stroke="black" d="M221.36,-48C229,-48 237.28,-48 245.33,-48"/>
<polygon fill="black" stroke="black" points="221.52,-44.5 211.52,-48 221.52,-51.5 221.52,-44.5"/>
</g>
<!-- Node5 -->
<g id="Node000005" class="node">
<title>Node5</title>
<g id="a_Node000005"><a xlink:href="group___time_measure.html" target="_top" xlink:title=" ">
<polygon fill="white" stroke="#666666" points="326.25,-20 251.75,-20 251.75,0 326.25,0 326.25,-20"/>
<text text-anchor="middle" x="289" y="-6.5" font-family="Helvetica,sans-Serif" font-size="10.00">TimeMeasure</text>
</a>
</g>
</g>
<!-- Node1&#45;&gt;Node5 -->
<g id="edge4" class="edge">
<title>Node1&#45;&gt;Node5</title>
<path fill="none" stroke="black" d="M220.74,-35.98C233.65,-31 248.48,-25.27 260.92,-20.46"/>
<polygon fill="black" stroke="black" points="219.49,-32.71 211.42,-39.58 222.01,-39.24 219.49,-32.71"/>
</g>
<!-- Node2 -->
<g id="Node000002" class="node">
<title>Node2</title>
<g id="a_Node000002"><a xlink:href="group___h_t32___series___peripheral___examples.html" target="_top" xlink:title=" ">
<polygon fill="white" stroke="#666666" points="131.5,-58 0,-58 0,-38 131.5,-38 131.5,-58"/>
<text text-anchor="middle" x="65.75" y="-44.5" font-family="Helvetica,sans-Serif" font-size="10.00">HT32 Peripheral Examples</text>
</a>
</g>
</g>
<!-- Node2&#45;&gt;Node1 -->
<g id="edge1" class="edge">
<title>Node2&#45;&gt;Node1</title>
<path fill="none" stroke="black" d="M143.1,-48C151.87,-48 160.17,-48 167.16,-48"/>
<polygon fill="black" stroke="black" points="143.3,-44.5 133.3,-48 143.3,-51.5 143.3,-44.5"/>
</g>
</g>
</svg>
