<?xml version="1.0" encoding="UTF-8" standalone="no"?>
<!DOCTYPE svg PUBLIC "-//W3C//DTD SVG 1.1//EN"
 "http://www.w3.org/Graphics/SVG/1.1/DTD/svg11.dtd">
<!-- Generated by graphviz version 9.0.0 (20230911.1827)
 -->
<!-- Title: USB Device Pages: 1 -->
<svg width="373pt" height="428pt"
 viewBox="0.00 0.00 373.25 428.00" xmlns="http://www.w3.org/2000/svg" xmlns:xlink="http://www.w3.org/1999/xlink">
<g id="graph0" class="graph" transform="scale(1 1) rotate(0) translate(4 424)">
<title>USB Device</title>
<!-- Node2 -->
<g id="Node000002" class="node">
<title>Node2</title>
<g id="a_Node000002"><a xlink:href="group___h_t32_f5xxxx___peripheral___driver.html" target="_top" xlink:title=" ">
<polygon fill="white" stroke="#666666" points="117.25,-220 0,-220 0,-188 117.25,-188 117.25,-220"/>
<text text-anchor="start" x="8" y="-206.5" font-family="Helvetica,sans-Serif" font-size="10.00">HT32F5xxxx Peripheral</text>
<text text-anchor="middle" x="58.62" y="-194.5" font-family="Helvetica,sans-Serif" font-size="10.00"> Driver</text>
</a>
</g>
</g>
<!-- Node1 -->
<g id="Node000001" class="node">
<title>Node1</title>
<g id="a_Node000001"><a xlink:title="USB Device driver modules.">
<polygon fill="#999999" stroke="#666666" points="221,-214 153.25,-214 153.25,-194 221,-194 221,-214"/>
<text text-anchor="middle" x="187.12" y="-200.5" font-family="Helvetica,sans-Serif" font-size="10.00">USB Device</text>
</a>
</g>
</g>
<!-- Node2&#45;&gt;Node1 -->
<g id="edge1" class="edge">
<title>Node2&#45;&gt;Node1</title>
<path fill="none" stroke="black" d="M129.04,-204C137.33,-204 145.49,-204 152.92,-204"/>
<polygon fill="black" stroke="black" points="129.21,-200.5 119.21,-204 129.21,-207.5 129.21,-200.5"/>
</g>
<!-- Node5 -->
<g id="Node000005" class="node">
<title>Node5</title>
<g id="a_Node000005"><a xlink:href="group___u_s_b_device___exported___constants.html" target="_top" xlink:title=" ">
<polygon fill="white" stroke="#666666" points="365.25,-420 257,-420 257,-388 365.25,-388 365.25,-420"/>
<text text-anchor="start" x="265" y="-406.5" font-family="Helvetica,sans-Serif" font-size="10.00">USB Device exported</text>
<text text-anchor="middle" x="311.12" y="-394.5" font-family="Helvetica,sans-Serif" font-size="10.00"> constants</text>
</a>
</g>
</g>
<!-- Node1&#45;&gt;Node5 -->
<g id="edge4" class="edge">
<title>Node1&#45;&gt;Node5</title>
<path fill="none" stroke="black" d="M191.34,-225.6C197.75,-261.64 215.26,-334.46 257,-379 260,-382.2 263.49,-385.03 267.22,-387.52"/>
<polygon fill="black" stroke="black" points="194.84,-225.29 189.76,-215.99 187.93,-226.42 194.84,-225.29"/>
</g>
<!-- Node7 -->
<g id="Node000007" class="node">
<title>Node7</title>
<g id="a_Node000007"><a xlink:href="group___u_s_b_device___exported___functions.html" target="_top" xlink:title=" ">
<polygon fill="white" stroke="#666666" points="365.25,-370 257,-370 257,-338 365.25,-338 365.25,-370"/>
<text text-anchor="start" x="265" y="-356.5" font-family="Helvetica,sans-Serif" font-size="10.00">USB Device exported</text>
<text text-anchor="middle" x="311.12" y="-344.5" font-family="Helvetica,sans-Serif" font-size="10.00"> functions</text>
</a>
</g>
</g>
<!-- Node1&#45;&gt;Node7 -->
<g id="edge6" class="edge">
<title>Node1&#45;&gt;Node7</title>
<path fill="none" stroke="black" d="M195.08,-225.08C204.99,-252.24 225.52,-299.46 257,-329 260.42,-332.21 264.33,-335.07 268.43,-337.61"/>
<polygon fill="black" stroke="black" points="198.48,-224.18 191.88,-215.89 191.87,-226.48 198.48,-224.18"/>
</g>
<!-- Node6 -->
<g id="Node000006" class="node">
<title>Node6</title>
<g id="a_Node000006"><a xlink:href="group___u_s_b_device___exported___macro.html" target="_top" xlink:title=" ">
<polygon fill="white" stroke="#666666" points="365.25,-320 257,-320 257,-288 365.25,-288 365.25,-320"/>
<text text-anchor="start" x="265" y="-306.5" font-family="Helvetica,sans-Serif" font-size="10.00">USB Device exported</text>
<text text-anchor="middle" x="311.12" y="-294.5" font-family="Helvetica,sans-Serif" font-size="10.00"> macro</text>
</a>
</g>
</g>
<!-- Node1&#45;&gt;Node6 -->
<g id="edge5" class="edge">
<title>Node1&#45;&gt;Node6</title>
<path fill="none" stroke="black" d="M202.24,-223.15C215.09,-239.58 235.33,-263.07 257,-279 261.19,-282.08 265.82,-284.92 270.54,-287.5"/>
<polygon fill="black" stroke="black" points="205.33,-221.44 196.48,-215.6 199.76,-225.68 205.33,-221.44"/>
</g>
<!-- Node4 -->
<g id="Node000004" class="node">
<title>Node4</title>
<g id="a_Node000004"><a xlink:href="group___u_s_b_device___exported___types.html" target="_top" xlink:title=" ">
<polygon fill="white" stroke="#666666" points="365.25,-270 257,-270 257,-238 365.25,-238 365.25,-270"/>
<text text-anchor="start" x="265" y="-256.5" font-family="Helvetica,sans-Serif" font-size="10.00">USB Device exported</text>
<text text-anchor="middle" x="311.12" y="-244.5" font-family="Helvetica,sans-Serif" font-size="10.00"> types</text>
</a>
</g>
</g>
<!-- Node1&#45;&gt;Node4 -->
<g id="edge3" class="edge">
<title>Node1&#45;&gt;Node4</title>
<path fill="none" stroke="black" d="M224.24,-218.8C238.68,-224.72 255.37,-231.56 270.17,-237.63"/>
<polygon fill="black" stroke="black" points="225.68,-215.61 215.1,-215.06 223.03,-222.09 225.68,-215.61"/>
</g>
<!-- Node8 -->
<g id="Node000008" class="node">
<title>Node8</title>
<g id="a_Node000008"><a xlink:href="group___u_s_b_device___private___constant.html" target="_top" xlink:title=" ">
<polygon fill="white" stroke="#666666" points="360.38,-220 261.88,-220 261.88,-188 360.38,-188 360.38,-220"/>
<text text-anchor="start" x="269.88" y="-206.5" font-family="Helvetica,sans-Serif" font-size="10.00">USB Device private</text>
<text text-anchor="middle" x="311.12" y="-194.5" font-family="Helvetica,sans-Serif" font-size="10.00"> constants</text>
</a>
</g>
</g>
<!-- Node1&#45;&gt;Node8 -->
<g id="edge7" class="edge">
<title>Node1&#45;&gt;Node8</title>
<path fill="none" stroke="black" d="M232.96,-204C242.33,-204 252.24,-204 261.73,-204"/>
<polygon fill="black" stroke="black" points="232.98,-200.5 222.98,-204 232.98,-207.5 232.98,-200.5"/>
</g>
<!-- Node11 -->
<g id="Node000011" class="node">
<title>Node11</title>
<g id="a_Node000011"><a xlink:href="group___u_s_b_device___private___function.html" target="_top" xlink:title=" ">
<polygon fill="white" stroke="#666666" points="360.38,-170 261.88,-170 261.88,-138 360.38,-138 360.38,-170"/>
<text text-anchor="start" x="269.88" y="-156.5" font-family="Helvetica,sans-Serif" font-size="10.00">USB Device private</text>
<text text-anchor="middle" x="311.12" y="-144.5" font-family="Helvetica,sans-Serif" font-size="10.00"> functions</text>
</a>
</g>
</g>
<!-- Node1&#45;&gt;Node11 -->
<g id="edge10" class="edge">
<title>Node1&#45;&gt;Node11</title>
<path fill="none" stroke="black" d="M224.24,-189.2C238.68,-183.28 255.37,-176.44 270.17,-170.37"/>
<polygon fill="black" stroke="black" points="223.03,-185.91 215.1,-192.94 225.68,-192.39 223.03,-185.91"/>
</g>
<!-- Node10 -->
<g id="Node000010" class="node">
<title>Node10</title>
<g id="a_Node000010"><a xlink:href="group___u_s_b_device___private___macro.html" target="_top" xlink:title=" ">
<polygon fill="white" stroke="#666666" points="360.38,-120 261.88,-120 261.88,-88 360.38,-88 360.38,-120"/>
<text text-anchor="start" x="269.88" y="-106.5" font-family="Helvetica,sans-Serif" font-size="10.00">USB Device private</text>
<text text-anchor="middle" x="311.12" y="-94.5" font-family="Helvetica,sans-Serif" font-size="10.00"> macros</text>
</a>
</g>
</g>
<!-- Node1&#45;&gt;Node10 -->
<g id="edge9" class="edge">
<title>Node1&#45;&gt;Node10</title>
<path fill="none" stroke="black" d="M202.24,-184.85C215.09,-168.42 235.33,-144.93 257,-129 261.19,-125.92 265.82,-123.08 270.54,-120.5"/>
<polygon fill="black" stroke="black" points="199.76,-182.32 196.48,-192.4 205.33,-186.56 199.76,-182.32"/>
</g>
<!-- Node9 -->
<g id="Node000009" class="node">
<title>Node9</title>
<g id="a_Node000009"><a xlink:href="group___u_s_b_device___private___variable.html" target="_top" xlink:title=" ">
<polygon fill="white" stroke="#666666" points="360.38,-70 261.88,-70 261.88,-38 360.38,-38 360.38,-70"/>
<text text-anchor="start" x="269.88" y="-56.5" font-family="Helvetica,sans-Serif" font-size="10.00">USB Device private</text>
<text text-anchor="middle" x="311.12" y="-44.5" font-family="Helvetica,sans-Serif" font-size="10.00"> variables</text>
</a>
</g>
</g>
<!-- Node1&#45;&gt;Node9 -->
<g id="edge8" class="edge">
<title>Node1&#45;&gt;Node9</title>
<path fill="none" stroke="black" d="M195.08,-182.92C204.99,-155.76 225.52,-108.54 257,-79 260.42,-75.79 264.33,-72.93 268.43,-70.39"/>
<polygon fill="black" stroke="black" points="191.87,-181.52 191.88,-192.11 198.48,-183.82 191.87,-181.52"/>
</g>
<!-- Node3 -->
<g id="Node000003" class="node">
<title>Node3</title>
<g id="a_Node000003"><a xlink:href="group___u_s_b_device___settings.html" target="_top" xlink:title=" ">
<polygon fill="white" stroke="#666666" points="363.75,-20 258.5,-20 258.5,0 363.75,0 363.75,-20"/>
<text text-anchor="middle" x="311.12" y="-6.5" font-family="Helvetica,sans-Serif" font-size="10.00">USB Device settings</text>
</a>
</g>
</g>
<!-- Node1&#45;&gt;Node3 -->
<g id="edge2" class="edge">
<title>Node1&#45;&gt;Node3</title>
<path fill="none" stroke="black" d="M190.8,-182.47C196.46,-145.95 212.95,-71.68 257,-29 260.52,-25.59 264.69,-22.79 269.12,-20.49"/>
<polygon fill="black" stroke="black" points="187.36,-181.81 189.44,-192.2 194.3,-182.79 187.36,-181.81"/>
</g>
</g>
</svg>
