<?xml version="1.0" encoding="UTF-8" standalone="no"?>
<!DOCTYPE svg PUBLIC "-//W3C//DTD SVG 1.1//EN"
 "http://www.w3.org/Graphics/SVG/1.1/DTD/svg11.dtd">
<!-- Generated by graphviz version 9.0.0 (20230911.1827)
 -->
<!-- Title: Time Pages: 1 -->
<svg width="347pt" height="66pt"
 viewBox="0.00 0.00 347.00 66.00" xmlns="http://www.w3.org/2000/svg" xmlns:xlink="http://www.w3.org/1999/xlink">
<g id="graph0" class="graph" transform="scale(1 1) rotate(0) translate(4 62)">
<title>Time</title>
<!-- Node2 -->
<g id="Node000002" class="node">
<title>Node2</title>
<g id="a_Node000002"><a xlink:href="group___h_t32___series___peripheral___examples.html" target="_top" xlink:title=" ">
<polygon fill="white" stroke="#666666" points="131.5,-39 0,-39 0,-19 131.5,-19 131.5,-39"/>
<text text-anchor="middle" x="65.75" y="-25.5" font-family="Helvetica,sans-Serif" font-size="10.00">HT32 Peripheral Examples</text>
</a>
</g>
</g>
<!-- Node1 -->
<g id="Node000001" class="node">
<title>Node1</title>
<g id="a_Node000001"><a xlink:title=" ">
<polygon fill="#999999" stroke="#666666" points="204.5,-39 167.5,-39 167.5,-19 204.5,-19 204.5,-39"/>
<text text-anchor="middle" x="186" y="-25.5" font-family="Helvetica,sans-Serif" font-size="10.00">Time</text>
</a>
</g>
</g>
<!-- Node2&#45;&gt;Node1 -->
<g id="edge1" class="edge">
<title>Node2&#45;&gt;Node1</title>
<path fill="none" stroke="black" d="M143.25,-29C152.13,-29 160.44,-29 167.27,-29"/>
<polygon fill="black" stroke="black" points="143.27,-25.5 133.27,-29 143.27,-32.5 143.27,-25.5"/>
</g>
<!-- Node3 -->
<g id="Node000003" class="node">
<title>Node3</title>
<g id="a_Node000003"><a xlink:href="group___time_fun.html" target="_top" xlink:title=" ">
<polygon fill="white" stroke="#666666" points="316.5,-58 263,-58 263,-38 316.5,-38 316.5,-58"/>
<text text-anchor="middle" x="289.75" y="-44.5" font-family="Helvetica,sans-Serif" font-size="10.00">TimeFun</text>
</a>
</g>
</g>
<!-- Node4 -->
<g id="Node000004" class="node">
<title>Node4</title>
<g id="a_Node000004"><a xlink:href="group___time_fun___user_conf.html" target="_top" xlink:title=" ">
<polygon fill="white" stroke="#666666" points="339,-20 240.5,-20 240.5,0 339,0 339,-20"/>
<text text-anchor="middle" x="289.75" y="-6.5" font-family="Helvetica,sans-Serif" font-size="10.00">TimeFun_UserConf</text>
</a>
</g>
</g>
<!-- Node1&#45;&gt;Node3 -->
<g id="edge2" class="edge">
<title>Node1&#45;&gt;Node3</title>
<path fill="none" stroke="black" d="M215.8,-34.38C230.59,-37.14 248.48,-40.48 262.84,-43.16"/>
<polygon fill="black" stroke="black" points="216.68,-30.98 206.21,-32.59 215.4,-37.86 216.68,-30.98"/>
</g>
<!-- Node1&#45;&gt;Node4 -->
<g id="edge3" class="edge">
<title>Node1&#45;&gt;Node4</title>
<path fill="none" stroke="black" d="M215.86,-23.61C223.46,-22.19 231.87,-20.62 240.19,-19.07"/>
<polygon fill="black" stroke="black" points="215.4,-20.14 206.21,-25.41 216.68,-27.02 215.4,-20.14"/>
</g>
</g>
</svg>
