<?xml version="1.0" encoding="UTF-8" standalone="no"?>
<!DOCTYPE svg PUBLIC "-//W3C//DTD SVG 1.1//EN"
 "http://www.w3.org/Graphics/SVG/1.1/DTD/svg11.dtd">
<!-- Generated by graphviz version 9.0.0 (20230911.1827)
 -->
<!-- Title: System Control Block (SCB) Pages: 1 -->
<svg width="434pt" height="90pt"
 viewBox="0.00 0.00 434.00 90.00" xmlns="http://www.w3.org/2000/svg" xmlns:xlink="http://www.w3.org/1999/xlink">
<g id="graph0" class="graph" transform="scale(1 1) rotate(0) translate(4 86)">
<title>System Control Block (SCB)</title>
<!-- Node4 -->
<g id="Node000004" class="node">
<title>Node4</title>
<g id="a_Node000004"><a xlink:href="group___c_m_s_i_s___i_c_b.html" target="_top" xlink:title="Type definitions for the Implementation Control Block Register.">
<polygon fill="white" stroke="#666666" points="426,-82 310.25,-82 310.25,-50 426,-50 426,-82"/>
<text text-anchor="start" x="318.25" y="-68.5" font-family="Helvetica,sans-Serif" font-size="10.00">Implementation Control</text>
<text text-anchor="middle" x="368.12" y="-56.5" font-family="Helvetica,sans-Serif" font-size="10.00"> Block register (ICB)</text>
</a>
</g>
</g>
<!-- Node2 -->
<g id="Node000002" class="node">
<title>Node2</title>
<g id="a_Node000002"><a xlink:href="group___c_m_s_i_s___n_v_i_c.html" target="_top" xlink:title="Type definitions for the NVIC Registers.">
<polygon fill="white" stroke="#666666" points="127,-57 0,-57 0,-25 127,-25 127,-57"/>
<text text-anchor="start" x="8" y="-43.5" font-family="Helvetica,sans-Serif" font-size="10.00">Nested Vectored Interrupt</text>
<text text-anchor="middle" x="63.5" y="-31.5" font-family="Helvetica,sans-Serif" font-size="10.00"> Controller (NVIC)</text>
</a>
</g>
</g>
<!-- Node1 -->
<g id="Node000001" class="node">
<title>Node1</title>
<g id="a_Node000001"><a xlink:title="Type definitions for the System Control Block Registers.">
<polygon fill="#999999" stroke="#666666" points="274.25,-57 163,-57 163,-25 274.25,-25 274.25,-57"/>
<text text-anchor="start" x="171" y="-43.5" font-family="Helvetica,sans-Serif" font-size="10.00">System Control Block</text>
<text text-anchor="middle" x="218.62" y="-31.5" font-family="Helvetica,sans-Serif" font-size="10.00"> (SCB)</text>
</a>
</g>
</g>
<!-- Node2&#45;&gt;Node1 -->
<g id="edge1" class="edge">
<title>Node2&#45;&gt;Node1</title>
<path fill="none" stroke="black" d="M138.59,-41C146.68,-41 154.8,-41 162.6,-41"/>
<polygon fill="black" stroke="black" points="138.74,-37.5 128.74,-41 138.74,-44.5 138.74,-37.5"/>
</g>
<!-- Node1&#45;&gt;Node4 -->
<g id="edge3" class="edge">
<title>Node1&#45;&gt;Node4</title>
<path fill="none" stroke="black" d="M285.89,-52.23C294,-53.61 302.23,-55 310.18,-56.35"/>
<polygon fill="black" stroke="black" points="286.49,-48.78 276.04,-50.56 285.32,-55.68 286.49,-48.78"/>
</g>
<!-- Node3 -->
<g id="Node000003" class="node">
<title>Node3</title>
<g id="a_Node000003"><a xlink:href="group___c_m_s_i_s___s_cn_s_c_b.html" target="_top" xlink:title="Type definitions for the System Control and ID Register not in the SCB.">
<polygon fill="white" stroke="#666666" points="420.75,-32 315.5,-32 315.5,0 420.75,0 420.75,-32"/>
<text text-anchor="start" x="323.5" y="-18.5" font-family="Helvetica,sans-Serif" font-size="10.00">System Controls not</text>
<text text-anchor="middle" x="368.12" y="-6.5" font-family="Helvetica,sans-Serif" font-size="10.00"> in SCB (SCnSCB)</text>
</a>
</g>
</g>
<!-- Node1&#45;&gt;Node3 -->
<g id="edge2" class="edge">
<title>Node1&#45;&gt;Node3</title>
<path fill="none" stroke="black" d="M285.59,-29.82C295.48,-28.14 305.55,-26.44 315.09,-24.82"/>
<polygon fill="black" stroke="black" points="285.32,-26.32 276.04,-31.44 286.49,-33.22 285.32,-26.32"/>
</g>
</g>
</svg>
