<?xml version="1.0" encoding="UTF-8" standalone="no"?>
<!DOCTYPE svg PUBLIC "-//W3C//DTD SVG 1.1//EN"
 "http://www.w3.org/Graphics/SVG/1.1/DTD/svg11.dtd">
<!-- Generated by graphviz version 9.0.0 (20230911.1827)
 -->
<!-- Title: ADC_24bit Pages: 1 -->
<svg width="363pt" height="28pt"
 viewBox="0.00 0.00 362.75 28.00" xmlns="http://www.w3.org/2000/svg" xmlns:xlink="http://www.w3.org/1999/xlink">
<g id="graph0" class="graph" transform="scale(1 1) rotate(0) translate(4 24)">
<title>ADC_24bit</title>
<!-- Node1 -->
<g id="Node000001" class="node">
<title>Node1</title>
<g id="a_Node000001"><a xlink:title=" ">
<polygon fill="#999999" stroke="#666666" points="230,-20 167.5,-20 167.5,0 230,0 230,-20"/>
<text text-anchor="middle" x="198.75" y="-6.5" font-family="Helvetica,sans-Serif" font-size="10.00">ADC_24bit</text>
</a>
</g>
</g>
<!-- Node3 -->
<g id="Node000003" class="node">
<title>Node3</title>
<g id="a_Node000003"><a xlink:href="group___convert___interrupt.html" target="_top" xlink:title=" ">
<polygon fill="white" stroke="#666666" points="354.75,-20 266,-20 266,0 354.75,0 354.75,-20"/>
<text text-anchor="middle" x="310.38" y="-6.5" font-family="Helvetica,sans-Serif" font-size="10.00">Convert_Interrupt</text>
</a>
</g>
</g>
<!-- Node1&#45;&gt;Node3 -->
<g id="edge2" class="edge">
<title>Node1&#45;&gt;Node3</title>
<path fill="none" stroke="black" d="M241.58,-10C249.54,-10 257.89,-10 265.89,-10"/>
<polygon fill="black" stroke="black" points="241.8,-6.5 231.8,-10 241.8,-13.5 241.8,-6.5"/>
</g>
<!-- Node2 -->
<g id="Node000002" class="node">
<title>Node2</title>
<g id="a_Node000002"><a xlink:href="group___h_t32___series___peripheral___examples.html" target="_top" xlink:title=" ">
<polygon fill="white" stroke="#666666" points="131.5,-20 0,-20 0,0 131.5,0 131.5,-20"/>
<text text-anchor="middle" x="65.75" y="-6.5" font-family="Helvetica,sans-Serif" font-size="10.00">HT32 Peripheral Examples</text>
</a>
</g>
</g>
<!-- Node2&#45;&gt;Node1 -->
<g id="edge1" class="edge">
<title>Node2&#45;&gt;Node1</title>
<path fill="none" stroke="black" d="M143.38,-10C151.74,-10 159.86,-10 167.16,-10"/>
<polygon fill="black" stroke="black" points="143.38,-6.5 133.38,-10 143.38,-13.5 143.38,-6.5"/>
</g>
</g>
</svg>
