<?xml version="1.0" encoding="UTF-8" standalone="no"?>
<!DOCTYPE svg PUBLIC "-//W3C//DTD SVG 1.1//EN"
 "http://www.w3.org/Graphics/SVG/1.1/DTD/svg11.dtd">
<!-- Generated by graphviz version 9.0.0 (20230911.1827)
 -->
<!-- Title: HID_Keyboard_Virtual_COM Pages: 1 -->
<svg width="429pt" height="30pt"
 viewBox="0.00 0.00 429.00 30.00" xmlns="http://www.w3.org/2000/svg" xmlns:xlink="http://www.w3.org/1999/xlink">
<g id="graph0" class="graph" transform="scale(1 1) rotate(0) translate(4 26)">
<title>HID_Keyboard_Virtual_COM</title>
<!-- Node1 -->
<g id="Node000001" class="node">
<title>Node1</title>
<g id="a_Node000001"><a xlink:title=" ">
<polygon fill="#999999" stroke="#666666" points="219,-20 80,-20 80,0 219,0 219,-20"/>
<text text-anchor="middle" x="149.5" y="-6.5" font-family="Helvetica,sans-Serif" font-size="10.00">HID_Keyboard_Virtual_COM</text>
</a>
</g>
</g>
<!-- Node3 -->
<g id="Node000003" class="node">
<title>Node3</title>
<g id="a_Node000003"><a xlink:href="group___virtual___c_o_m.html" target="_top" xlink:title=" ">
<polygon fill="white" stroke="#666666" points="421,-20 349.5,-20 349.5,0 421,0 421,-20"/>
<text text-anchor="middle" x="385.25" y="-6.5" font-family="Helvetica,sans-Serif" font-size="10.00">Virtual_COM</text>
</a>
</g>
</g>
<!-- Node1&#45;&gt;Node3 -->
<g id="edge2" class="edge">
<title>Node1&#45;&gt;Node3</title>
<path fill="none" stroke="orange" stroke-dasharray="5,2" d="M219.37,-10C262.06,-10 315.09,-10 349.29,-10"/>
<text text-anchor="middle" x="284.25" y="-12.5" font-family="Helvetica,sans-Serif" font-size="10.00">_VCP_LINE_CODING</text>
</g>
<!-- Node2 -->
<g id="Node000002" class="node">
<title>Node2</title>
<g id="a_Node000002"><a xlink:href="group___u_s_b_d___examples.html" target="_top" xlink:title=" ">
<polygon fill="white" stroke="#666666" points="43,-20 0,-20 0,0 43,0 43,-20"/>
<text text-anchor="middle" x="21.5" y="-6.5" font-family="Helvetica,sans-Serif" font-size="10.00">USBD</text>
</a>
</g>
</g>
<!-- Node2&#45;&gt;Node1 -->
<g id="edge1" class="edge">
<title>Node2&#45;&gt;Node1</title>
<path fill="none" stroke="black" d="M54.7,-10C62.45,-10 71.02,-10 79.73,-10"/>
<polygon fill="black" stroke="black" points="54.82,-6.5 44.82,-10 54.82,-13.5 54.82,-6.5"/>
</g>
</g>
</svg>
