<?xml version="1.0" encoding="UTF-8" standalone="no"?>
<!DOCTYPE svg PUBLIC "-//W3C//DTD SVG 1.1//EN"
 "http://www.w3.org/Graphics/SVG/1.1/DTD/svg11.dtd">
<!-- Generated by graphviz version 9.0.0 (20230911.1827)
 -->
<!-- Title: Backwards Compatibility Aliases Pages: 1 -->
<svg width="418pt" height="78pt"
 viewBox="0.00 0.00 418.25 78.00" xmlns="http://www.w3.org/2000/svg" xmlns:xlink="http://www.w3.org/1999/xlink">
<g id="graph0" class="graph" transform="scale(1 1) rotate(0) translate(4 74)">
<title>Backwards Compatibility Aliases</title>
<!-- Node3 -->
<g id="Node000003" class="node">
<title>Node3</title>
<g id="a_Node000003"><a xlink:href="group___c_m_s_i_s___core___function_interface.html" target="_top" xlink:title=" ">
<polygon fill="white" stroke="#666666" points="410.25,-70 279.5,-70 279.5,-38 410.25,-38 410.25,-70"/>
<text text-anchor="start" x="287.5" y="-56.5" font-family="Helvetica,sans-Serif" font-size="10.00">Functions and Instructions</text>
<text text-anchor="middle" x="344.88" y="-44.5" font-family="Helvetica,sans-Serif" font-size="10.00"> Reference</text>
</a>
</g>
</g>
<!-- Node4 -->
<g id="Node000004" class="node">
<title>Node4</title>
<g id="a_Node000004"><a xlink:href="group___c_m_s_i_s___core___n_v_i_c_functions.html" target="_top" xlink:title="Functions that manage interrupts and exceptions via the NVIC.">
<polygon fill="white" stroke="#666666" points="387,-20 302.75,-20 302.75,0 387,0 387,-20"/>
<text text-anchor="middle" x="344.88" y="-6.5" font-family="Helvetica,sans-Serif" font-size="10.00">NVIC Functions</text>
</a>
</g>
</g>
<!-- Node2 -->
<g id="Node000002" class="node">
<title>Node2</title>
<g id="a_Node000002"><a xlink:href="group___c_m_s_i_s__core__base.html" target="_top" xlink:title="Definitions for base addresses, unions, and structures.">
<polygon fill="white" stroke="#666666" points="84.25,-42 0,-42 0,-22 84.25,-22 84.25,-42"/>
<text text-anchor="middle" x="42.12" y="-28.5" font-family="Helvetica,sans-Serif" font-size="10.00">Core Definitions</text>
</a>
</g>
</g>
<!-- Node1 -->
<g id="Node000001" class="node">
<title>Node1</title>
<g id="a_Node000001"><a xlink:title="Register alias definitions for backwards compatibility.">
<polygon fill="#999999" stroke="#666666" points="243.5,-48 120.25,-48 120.25,-16 243.5,-16 243.5,-48"/>
<text text-anchor="start" x="128.25" y="-34.5" font-family="Helvetica,sans-Serif" font-size="10.00">Backwards Compatibility</text>
<text text-anchor="middle" x="181.88" y="-22.5" font-family="Helvetica,sans-Serif" font-size="10.00"> Aliases</text>
</a>
</g>
</g>
<!-- Node2&#45;&gt;Node1 -->
<g id="edge1" class="edge">
<title>Node2&#45;&gt;Node1</title>
<path fill="none" stroke="black" d="M95.78,-32C103.69,-32 111.9,-32 119.97,-32"/>
<polygon fill="black" stroke="black" points="95.97,-28.5 85.97,-32 95.97,-35.5 95.97,-28.5"/>
</g>
<!-- Node1&#45;&gt;Node3 -->
<g id="edge2" class="edge">
<title>Node1&#45;&gt;Node3</title>
<path fill="none" stroke="black" d="M255.01,-41.86C263.06,-42.96 271.22,-44.07 279.16,-45.16"/>
<polygon fill="black" stroke="black" points="255.62,-38.41 245.24,-40.52 254.68,-45.34 255.62,-38.41"/>
</g>
<!-- Node1&#45;&gt;Node4 -->
<g id="edge3" class="edge">
<title>Node1&#45;&gt;Node4</title>
<path fill="none" stroke="black" d="M254.9,-22.16C271.18,-19.93 287.92,-17.65 302.43,-15.66"/>
<polygon fill="black" stroke="black" points="254.68,-18.66 245.24,-23.48 255.62,-25.59 254.68,-18.66"/>
</g>
</g>
</svg>
