<?xml version="1.0" encoding="UTF-8" standalone="no"?>
<!DOCTYPE svg PUBLIC "-//W3C//DTD SVG 1.1//EN"
 "http://www.w3.org/Graphics/SVG/1.1/DTD/svg11.dtd">
<!-- Generated by graphviz version 9.0.0 (20230911.1827)
 -->
<!-- Title: External Wakeup Interrupt Controller Registers Pages: 1 -->
<svg width="468pt" height="40pt"
 viewBox="0.00 0.00 467.75 40.00" xmlns="http://www.w3.org/2000/svg" xmlns:xlink="http://www.w3.org/1999/xlink">
<g id="graph0" class="graph" transform="scale(1 1) rotate(0) translate(4 36)">
<title>External Wakeup Interrupt Controller Registers</title>
<!-- Node1 -->
<g id="Node000001" class="node">
<title>Node1</title>
<g id="a_Node000001"><a xlink:title="Type definitions for the External Wakeup Interrupt Controller Registers (EWIC)">
<polygon fill="#999999" stroke="#666666" points="269,-32 139.75,-32 139.75,0 269,0 269,-32"/>
<text text-anchor="start" x="147.75" y="-18.5" font-family="Helvetica,sans-Serif" font-size="10.00">External Wakeup Interrupt</text>
<text text-anchor="middle" x="204.38" y="-6.5" font-family="Helvetica,sans-Serif" font-size="10.00"> Controller Registers</text>
</a>
</g>
</g>
<!-- Node3 -->
<g id="Node000003" class="node">
<title>Node3</title>
<g id="a_Node000003"><a xlink:href="group___err_bnk___type.html" target="_top" xlink:title="Type definitions for the Error Banking Registers (ERRBNK)">
<polygon fill="white" stroke="#666666" points="459.75,-32 305,-32 305,0 459.75,0 459.75,-32"/>
<text text-anchor="start" x="313" y="-18.5" font-family="Helvetica,sans-Serif" font-size="10.00">Error Banking Registers</text>
<text text-anchor="middle" x="382.38" y="-6.5" font-family="Helvetica,sans-Serif" font-size="10.00"> (IMPLEMENTATION DEFINED)</text>
</a>
</g>
</g>
<!-- Node1&#45;&gt;Node3 -->
<g id="edge2" class="edge">
<title>Node1&#45;&gt;Node3</title>
<path fill="none" stroke="black" d="M280.79,-16C288.65,-16 296.64,-16 304.51,-16"/>
<polygon fill="black" stroke="black" points="280.93,-12.5 270.93,-16 280.93,-19.5 280.93,-12.5"/>
</g>
<!-- Node2 -->
<g id="Node000002" class="node">
<title>Node2</title>
<g id="a_Node000002"><a xlink:href="group___pwr_mod_ctl___type.html" target="_top" xlink:title="Type definitions for the Power Mode Control Registers (PWRMODCTL)">
<polygon fill="white" stroke="#666666" points="103.75,-32 0,-32 0,0 103.75,0 103.75,-32"/>
<text text-anchor="start" x="8" y="-18.5" font-family="Helvetica,sans-Serif" font-size="10.00">Power Mode Control</text>
<text text-anchor="middle" x="51.88" y="-6.5" font-family="Helvetica,sans-Serif" font-size="10.00"> Registers</text>
</a>
</g>
</g>
<!-- Node2&#45;&gt;Node1 -->
<g id="edge1" class="edge">
<title>Node2&#45;&gt;Node1</title>
<path fill="none" stroke="black" d="M115.61,-16C123.49,-16 131.56,-16 139.46,-16"/>
<polygon fill="black" stroke="black" points="115.76,-12.5 105.76,-16 115.76,-19.5 115.76,-12.5"/>
</g>
</g>
</svg>
