<?xml version="1.0" encoding="UTF-8" standalone="no"?>
<!DOCTYPE svg PUBLIC "-//W3C//DTD SVG 1.1//EN"
 "http://www.w3.org/Graphics/SVG/1.1/DTD/svg11.dtd">
<!-- Generated by graphviz version 9.0.0 (20230911.1827)
 -->
<!-- Title: USB Device Core Pages: 1 -->
<svg width="428pt" height="478pt"
 viewBox="0.00 0.00 428.00 478.00" xmlns="http://www.w3.org/2000/svg" xmlns:xlink="http://www.w3.org/1999/xlink">
<g id="graph0" class="graph" transform="scale(1 1) rotate(0) translate(4 474)">
<title>USB Device Core</title>
<!-- Node2 -->
<g id="Node000002" class="node">
<title>Node2</title>
<g id="a_Node000002"><a xlink:href="group___h_t32___u_s_b_d___library.html" target="_top" xlink:title=" ">
<polygon fill="white" stroke="#666666" points="125.5,-239 0,-239 0,-219 125.5,-219 125.5,-239"/>
<text text-anchor="middle" x="62.75" y="-225.5" font-family="Helvetica,sans-Serif" font-size="10.00">HT32 USB Device Library</text>
</a>
</g>
</g>
<!-- Node1 -->
<g id="Node000001" class="node">
<title>Node1</title>
<g id="a_Node000001"><a xlink:title="USB Device Core standard protocol related function.">
<polygon fill="#999999" stroke="#666666" points="252.5,-239 161.5,-239 161.5,-219 252.5,-219 252.5,-239"/>
<text text-anchor="middle" x="207" y="-225.5" font-family="Helvetica,sans-Serif" font-size="10.00">USB Device Core</text>
</a>
</g>
</g>
<!-- Node2&#45;&gt;Node1 -->
<g id="edge1" class="edge">
<title>Node2&#45;&gt;Node1</title>
<path fill="none" stroke="black" d="M137.02,-229C145.31,-229 153.57,-229 161.33,-229"/>
<polygon fill="black" stroke="black" points="137.24,-225.5 127.24,-229 137.24,-232.5 137.24,-225.5"/>
</g>
<!-- Node5 -->
<g id="Node000005" class="node">
<title>Node5</title>
<g id="a_Node000005"><a xlink:href="group___u_s_b_d_core___exported___constant.html" target="_top" xlink:title=" ">
<polygon fill="white" stroke="#666666" points="420,-470 288.5,-470 288.5,-438 420,-438 420,-470"/>
<text text-anchor="start" x="296.5" y="-456.5" font-family="Helvetica,sans-Serif" font-size="10.00">USB Device Core exported</text>
<text text-anchor="middle" x="354.25" y="-444.5" font-family="Helvetica,sans-Serif" font-size="10.00"> constants</text>
</a>
</g>
</g>
<!-- Node1&#45;&gt;Node5 -->
<g id="edge4" class="edge">
<title>Node1&#45;&gt;Node5</title>
<path fill="none" stroke="black" d="M210.96,-250.66C217.59,-291.09 237.27,-378.49 288.5,-429 291.85,-432.3 295.68,-435.17 299.76,-437.68"/>
<polygon fill="black" stroke="black" points="214.43,-250.16 209.47,-240.79 207.5,-251.2 214.43,-250.16"/>
</g>
<!-- Node7 -->
<g id="Node000007" class="node">
<title>Node7</title>
<g id="a_Node000007"><a xlink:href="group___u_s_b_d_core___exported___functions.html" target="_top" xlink:title=" ">
<polygon fill="white" stroke="#666666" points="420,-420 288.5,-420 288.5,-388 420,-388 420,-420"/>
<text text-anchor="start" x="296.5" y="-406.5" font-family="Helvetica,sans-Serif" font-size="10.00">USB Device Core exported</text>
<text text-anchor="middle" x="354.25" y="-394.5" font-family="Helvetica,sans-Serif" font-size="10.00"> functions</text>
</a>
</g>
</g>
<!-- Node1&#45;&gt;Node7 -->
<g id="edge6" class="edge">
<title>Node1&#45;&gt;Node7</title>
<path fill="none" stroke="black" d="M214.07,-250.08C224.33,-282.16 248.03,-343.27 288.5,-379 292.2,-382.27 296.38,-385.13 300.79,-387.64"/>
<polygon fill="black" stroke="black" points="217.5,-249.31 211.23,-240.77 210.8,-251.35 217.5,-249.31"/>
</g>
<!-- Node6 -->
<g id="Node000006" class="node">
<title>Node6</title>
<g id="a_Node000006"><a xlink:href="group___u_s_b_d_core___exported___macro.html" target="_top" xlink:title=" ">
<polygon fill="white" stroke="#666666" points="420,-370 288.5,-370 288.5,-338 420,-338 420,-370"/>
<text text-anchor="start" x="296.5" y="-356.5" font-family="Helvetica,sans-Serif" font-size="10.00">USB Device Core exported</text>
<text text-anchor="middle" x="354.25" y="-344.5" font-family="Helvetica,sans-Serif" font-size="10.00"> macros</text>
</a>
</g>
</g>
<!-- Node1&#45;&gt;Node6 -->
<g id="edge5" class="edge">
<title>Node1&#45;&gt;Node6</title>
<path fill="none" stroke="black" d="M219.59,-249.01C233.43,-271.3 258.49,-307.09 288.5,-329 292.88,-332.2 297.72,-335.04 302.72,-337.56"/>
<polygon fill="black" stroke="black" points="222.67,-247.33 214.51,-240.57 216.67,-250.94 222.67,-247.33"/>
</g>
<!-- Node4 -->
<g id="Node000004" class="node">
<title>Node4</title>
<g id="a_Node000004"><a xlink:href="group___u_s_b_d_core___exported___type.html" target="_top" xlink:title=" ">
<polygon fill="white" stroke="#666666" points="420,-320 288.5,-320 288.5,-288 420,-288 420,-320"/>
<text text-anchor="start" x="296.5" y="-306.5" font-family="Helvetica,sans-Serif" font-size="10.00">USB Device Core exported</text>
<text text-anchor="middle" x="354.25" y="-294.5" font-family="Helvetica,sans-Serif" font-size="10.00"> types</text>
</a>
</g>
</g>
<!-- Node1&#45;&gt;Node4 -->
<g id="edge3" class="edge">
<title>Node1&#45;&gt;Node4</title>
<path fill="none" stroke="black" d="M232.37,-245.8C247.99,-256.15 268.93,-269.25 288.5,-279 294.54,-282.01 301.04,-284.9 307.5,-287.57"/>
<polygon fill="black" stroke="black" points="234.45,-242.99 224.2,-240.31 230.54,-248.8 234.45,-242.99"/>
</g>
<!-- Node9 -->
<g id="Node000009" class="node">
<title>Node9</title>
<g id="a_Node000009"><a xlink:href="group___u_s_b_d_core___private___define.html" target="_top" xlink:title=" ">
<polygon fill="white" stroke="#666666" points="415.12,-270 293.38,-270 293.38,-238 415.12,-238 415.12,-270"/>
<text text-anchor="start" x="301.38" y="-256.5" font-family="Helvetica,sans-Serif" font-size="10.00">USB Device Core private</text>
<text text-anchor="middle" x="354.25" y="-244.5" font-family="Helvetica,sans-Serif" font-size="10.00"> definitions</text>
</a>
</g>
</g>
<!-- Node1&#45;&gt;Node9 -->
<g id="edge8" class="edge">
<title>Node1&#45;&gt;Node9</title>
<path fill="none" stroke="black" d="M263.8,-238.6C273.4,-240.26 283.42,-241.98 293.13,-243.65"/>
<polygon fill="black" stroke="black" points="264.71,-235.21 254.26,-236.96 263.52,-242.11 264.71,-235.21"/>
</g>
<!-- Node12 -->
<g id="Node000012" class="node">
<title>Node12</title>
<g id="a_Node000012"><a xlink:href="group___u_s_b_d_core___private___function.html" target="_top" xlink:title=" ">
<polygon fill="white" stroke="#666666" points="415.12,-220 293.38,-220 293.38,-188 415.12,-188 415.12,-220"/>
<text text-anchor="start" x="301.38" y="-206.5" font-family="Helvetica,sans-Serif" font-size="10.00">USB Device Core private</text>
<text text-anchor="middle" x="354.25" y="-194.5" font-family="Helvetica,sans-Serif" font-size="10.00"> functions</text>
</a>
</g>
</g>
<!-- Node1&#45;&gt;Node12 -->
<g id="edge11" class="edge">
<title>Node1&#45;&gt;Node12</title>
<path fill="none" stroke="black" d="M263.8,-219.4C273.4,-217.74 283.42,-216.02 293.13,-214.35"/>
<polygon fill="black" stroke="black" points="263.52,-215.89 254.26,-221.04 264.71,-222.79 263.52,-215.89"/>
</g>
<!-- Node10 -->
<g id="Node000010" class="node">
<title>Node10</title>
<g id="a_Node000010"><a xlink:href="group___u_s_b_d_core___private___macro.html" target="_top" xlink:title=" ">
<polygon fill="white" stroke="#666666" points="415.12,-170 293.38,-170 293.38,-138 415.12,-138 415.12,-170"/>
<text text-anchor="start" x="301.38" y="-156.5" font-family="Helvetica,sans-Serif" font-size="10.00">USB Device Core private</text>
<text text-anchor="middle" x="354.25" y="-144.5" font-family="Helvetica,sans-Serif" font-size="10.00"> macros</text>
</a>
</g>
</g>
<!-- Node1&#45;&gt;Node10 -->
<g id="edge9" class="edge">
<title>Node1&#45;&gt;Node10</title>
<path fill="none" stroke="black" d="M232.37,-212.2C247.99,-201.85 268.93,-188.75 288.5,-179 294.54,-175.99 301.04,-173.1 307.5,-170.43"/>
<polygon fill="black" stroke="black" points="230.54,-209.2 224.2,-217.69 234.45,-215.01 230.54,-209.2"/>
</g>
<!-- Node8 -->
<g id="Node000008" class="node">
<title>Node8</title>
<g id="a_Node000008"><a xlink:href="group___u_s_b_d_core___private___types_definitions.html" target="_top" xlink:title=" ">
<polygon fill="white" stroke="#666666" points="415.12,-120 293.38,-120 293.38,-88 415.12,-88 415.12,-120"/>
<text text-anchor="start" x="301.38" y="-106.5" font-family="Helvetica,sans-Serif" font-size="10.00">USB Device Core private</text>
<text text-anchor="middle" x="354.25" y="-94.5" font-family="Helvetica,sans-Serif" font-size="10.00"> types definitions</text>
</a>
</g>
</g>
<!-- Node1&#45;&gt;Node8 -->
<g id="edge7" class="edge">
<title>Node1&#45;&gt;Node8</title>
<path fill="none" stroke="black" d="M219.59,-208.99C233.43,-186.7 258.49,-150.91 288.5,-129 292.88,-125.8 297.72,-122.96 302.72,-120.44"/>
<polygon fill="black" stroke="black" points="216.67,-207.06 214.51,-217.43 222.67,-210.67 216.67,-207.06"/>
</g>
<!-- Node11 -->
<g id="Node000011" class="node">
<title>Node11</title>
<g id="a_Node000011"><a xlink:href="group___u_s_b_d_core___private___variable.html" target="_top" xlink:title=" ">
<polygon fill="white" stroke="#666666" points="415.12,-70 293.38,-70 293.38,-38 415.12,-38 415.12,-70"/>
<text text-anchor="start" x="301.38" y="-56.5" font-family="Helvetica,sans-Serif" font-size="10.00">USB Device Core private</text>
<text text-anchor="middle" x="354.25" y="-44.5" font-family="Helvetica,sans-Serif" font-size="10.00"> variables</text>
</a>
</g>
</g>
<!-- Node1&#45;&gt;Node11 -->
<g id="edge10" class="edge">
<title>Node1&#45;&gt;Node11</title>
<path fill="none" stroke="black" d="M214.07,-207.92C224.33,-175.84 248.03,-114.73 288.5,-79 292.2,-75.73 296.38,-72.87 300.79,-70.36"/>
<polygon fill="black" stroke="black" points="210.8,-206.65 211.23,-217.23 217.5,-208.69 210.8,-206.65"/>
</g>
<!-- Node3 -->
<g id="Node000003" class="node">
<title>Node3</title>
<g id="a_Node000003"><a xlink:href="group___u_s_b_d_core___settings.html" target="_top" xlink:title=" ">
<polygon fill="white" stroke="#666666" points="418.5,-20 290,-20 290,0 418.5,0 418.5,-20"/>
<text text-anchor="middle" x="354.25" y="-6.5" font-family="Helvetica,sans-Serif" font-size="10.00">USB Device Core settings</text>
</a>
</g>
</g>
<!-- Node1&#45;&gt;Node3 -->
<g id="edge2" class="edge">
<title>Node1&#45;&gt;Node3</title>
<path fill="none" stroke="black" d="M210.54,-207.2C216.49,-166.21 235.1,-77.44 288.5,-29 292.32,-25.54 296.74,-22.7 301.44,-20.38"/>
<polygon fill="black" stroke="black" points="207.09,-206.63 209.25,-217 214.03,-207.54 207.09,-206.63"/>
</g>
</g>
</svg>
