<?xml version="1.0" encoding="UTF-8" standalone="no"?>
<!DOCTYPE svg PUBLIC "-//W3C//DTD SVG 1.1//EN"
 "http://www.w3.org/Graphics/SVG/1.1/DTD/svg11.dtd">
<!-- Generated by graphviz version 9.0.0 (20230911.1827)
 -->
<!-- Title: Data Watchpoint and Trace (DWT) Pages: 1 -->
<svg width="448pt" height="102pt"
 viewBox="0.00 0.00 448.25 102.00" xmlns="http://www.w3.org/2000/svg" xmlns:xlink="http://www.w3.org/1999/xlink">
<g id="graph0" class="graph" transform="scale(1 1) rotate(0) translate(4 98)">
<title>Data Watchpoint and Trace (DWT)</title>
<!-- Node1 -->
<g id="Node000001" class="node">
<title>Node1</title>
<g id="a_Node000001"><a xlink:title="Type definitions for the Data Watchpoint and Trace (DWT)">
<polygon fill="#999999" stroke="#666666" points="253.25,-66 145.75,-66 145.75,-34 253.25,-34 253.25,-66"/>
<text text-anchor="start" x="153.75" y="-52.5" font-family="Helvetica,sans-Serif" font-size="10.00">Data Watchpoint and</text>
<text text-anchor="middle" x="199.5" y="-40.5" font-family="Helvetica,sans-Serif" font-size="10.00"> Trace (DWT)</text>
</a>
</g>
</g>
<!-- Node3 -->
<g id="Node000003" class="node">
<title>Node3</title>
<g id="a_Node000003"><a xlink:href="group___c_m_s_i_s___t_p_i.html" target="_top" xlink:title="Type definitions for the Trace Port Interface (TPI)">
<polygon fill="white" stroke="#666666" points="415.12,-94 314.38,-94 314.38,-62 415.12,-62 415.12,-94"/>
<text text-anchor="start" x="322.38" y="-80.5" font-family="Helvetica,sans-Serif" font-size="10.00">Trace Port Interface</text>
<text text-anchor="middle" x="364.75" y="-68.5" font-family="Helvetica,sans-Serif" font-size="10.00"> (TPI)</text>
</a>
</g>
</g>
<!-- Node1&#45;&gt;Node3 -->
<g id="edge2" class="edge">
<title>Node1&#45;&gt;Node3</title>
<path fill="none" stroke="black" d="M264.68,-61.01C281.09,-63.82 298.5,-66.81 314.06,-69.48"/>
<polygon fill="black" stroke="black" points="265.44,-57.59 254.99,-59.35 264.26,-64.49 265.44,-57.59"/>
</g>
<!-- Node4 -->
<g id="Node000004" class="node">
<title>Node4</title>
<g id="a_Node000004"><a xlink:href="group___mem_sys_ctl___type.html" target="_top" xlink:title="Type definitions for the Memory System Control Registers (MEMSYSCTL)">
<polygon fill="white" stroke="#666666" points="440.25,-44 289.25,-44 289.25,0 440.25,0 440.25,-44"/>
<text text-anchor="start" x="297.25" y="-30.5" font-family="Helvetica,sans-Serif" font-size="10.00">Memory System Control</text>
<text text-anchor="start" x="297.25" y="-18.5" font-family="Helvetica,sans-Serif" font-size="10.00"> Registers (IMPLEMENTATION</text>
<text text-anchor="middle" x="364.75" y="-6.5" font-family="Helvetica,sans-Serif" font-size="10.00"> DEFINED)</text>
</a>
</g>
</g>
<!-- Node1&#45;&gt;Node4 -->
<g id="edge3" class="edge">
<title>Node1&#45;&gt;Node4</title>
<path fill="none" stroke="black" d="M264.82,-38.97C272.69,-37.62 280.77,-36.23 288.77,-34.86"/>
<polygon fill="black" stroke="black" points="264.26,-35.51 254.99,-40.65 265.44,-42.41 264.26,-35.51"/>
</g>
<!-- Node2 -->
<g id="Node000002" class="node">
<title>Node2</title>
<g id="a_Node000002"><a xlink:href="group___c_m_s_i_s___i_t_m.html" target="_top" xlink:title="Type definitions for the Instrumentation Trace Macrocell (ITM)">
<polygon fill="white" stroke="#666666" points="109.75,-66 0,-66 0,-34 109.75,-34 109.75,-66"/>
<text text-anchor="start" x="8" y="-52.5" font-family="Helvetica,sans-Serif" font-size="10.00">Instrumentation Trace</text>
<text text-anchor="middle" x="54.88" y="-40.5" font-family="Helvetica,sans-Serif" font-size="10.00"> Macrocell (ITM)</text>
</a>
</g>
</g>
<!-- Node2&#45;&gt;Node1 -->
<g id="edge1" class="edge">
<title>Node2&#45;&gt;Node1</title>
<path fill="none" stroke="black" d="M121.67,-50C129.58,-50 137.57,-50 145.27,-50"/>
<polygon fill="black" stroke="black" points="121.72,-46.5 111.72,-50 121.72,-53.5 121.72,-46.5"/>
</g>
</g>
</svg>
