<?xml version="1.0" encoding="UTF-8" standalone="no"?>
<!DOCTYPE svg PUBLIC "-//W3C//DTD SVG 1.1//EN"
 "http://www.w3.org/Graphics/SVG/1.1/DTD/svg11.dtd">
<!-- Generated by graphviz version 9.0.0 (20230911.1827)
 -->
<!-- Title: MVE Functions Pages: 1 -->
<svg width="327pt" height="28pt"
 viewBox="0.00 0.00 326.75 28.00" xmlns="http://www.w3.org/2000/svg" xmlns:xlink="http://www.w3.org/1999/xlink">
<g id="graph0" class="graph" transform="scale(1 1) rotate(0) translate(4 24)">
<title>MVE Functions</title>
<!-- Node2 -->
<g id="Node000002" class="node">
<title>Node2</title>
<g id="a_Node000002"><a xlink:href="group___c_m_s_i_s___core___fpu_functions.html" target="_top" xlink:title="Function that provides FPU type.">
<polygon fill="white" stroke="#666666" points="81.25,-20 0,-20 0,0 81.25,0 81.25,-20"/>
<text text-anchor="middle" x="40.62" y="-6.5" font-family="Helvetica,sans-Serif" font-size="10.00">FPU Functions</text>
</a>
</g>
</g>
<!-- Node1 -->
<g id="Node000001" class="node">
<title>Node1</title>
<g id="a_Node000001"><a xlink:title="Function that provides MVE type.">
<polygon fill="#999999" stroke="#666666" points="200.75,-20 117.25,-20 117.25,0 200.75,0 200.75,-20"/>
<text text-anchor="middle" x="159" y="-6.5" font-family="Helvetica,sans-Serif" font-size="10.00">MVE Functions</text>
</a>
</g>
</g>
<!-- Node2&#45;&gt;Node1 -->
<g id="edge1" class="edge">
<title>Node2&#45;&gt;Node1</title>
<path fill="none" stroke="black" d="M92.92,-10C101.01,-10 109.28,-10 117.09,-10"/>
<polygon fill="black" stroke="black" points="93.19,-6.5 83.19,-10 93.19,-13.5 93.19,-6.5"/>
</g>
<!-- Node3 -->
<g id="Node000003" class="node">
<title>Node3</title>
<g id="a_Node000003"><a xlink:href="group___c_m_s_i_s___core___s_a_u_functions.html" target="_top" xlink:title="Functions that configure the SAU.">
<polygon fill="white" stroke="#666666" points="318.75,-20 236.75,-20 236.75,0 318.75,0 318.75,-20"/>
<text text-anchor="middle" x="277.75" y="-6.5" font-family="Helvetica,sans-Serif" font-size="10.00">SAU Functions</text>
</a>
</g>
</g>
<!-- Node1&#45;&gt;Node3 -->
<g id="edge2" class="edge">
<title>Node1&#45;&gt;Node3</title>
<path fill="none" stroke="black" d="M212.65,-10C220.61,-10 228.71,-10 236.35,-10"/>
<polygon fill="black" stroke="black" points="212.68,-6.5 202.68,-10 212.68,-13.5 212.68,-6.5"/>
</g>
</g>
</svg>
