<?xml version="1.0" encoding="UTF-8" standalone="no"?>
<!DOCTYPE svg PUBLIC "-//W3C//DTD SVG 1.1//EN"
 "http://www.w3.org/Graphics/SVG/1.1/DTD/svg11.dtd">
<!-- Generated by graphviz version 9.0.0 (20230911.1827)
 -->
<!-- Title: RTC Pages: 1 -->
<svg width="372pt" height="104pt"
 viewBox="0.00 0.00 371.75 104.00" xmlns="http://www.w3.org/2000/svg" xmlns:xlink="http://www.w3.org/1999/xlink">
<g id="graph0" class="graph" transform="scale(1 1) rotate(0) translate(4 100)">
<title>RTC</title>
<!-- Node3 -->
<g id="Node000003" class="node">
<title>Node3</title>
<g id="a_Node000003"><a xlink:href="group___calendar___backup_domain.html" target="_top" xlink:title=" ">
<polygon fill="white" stroke="#666666" points="363.75,-96 238.25,-96 238.25,-76 363.75,-76 363.75,-96"/>
<text text-anchor="middle" x="301" y="-82.5" font-family="Helvetica,sans-Serif" font-size="10.00">Calendar_BackupDomain</text>
</a>
</g>
</g>
<!-- Node2 -->
<g id="Node000002" class="node">
<title>Node2</title>
<g id="a_Node000002"><a xlink:href="group___h_t32___series___peripheral___examples.html" target="_top" xlink:title=" ">
<polygon fill="white" stroke="#666666" points="131.5,-58 0,-58 0,-38 131.5,-38 131.5,-58"/>
<text text-anchor="middle" x="65.75" y="-44.5" font-family="Helvetica,sans-Serif" font-size="10.00">HT32 Peripheral Examples</text>
</a>
</g>
</g>
<!-- Node1 -->
<g id="Node000001" class="node">
<title>Node1</title>
<g id="a_Node000001"><a xlink:title=" ">
<polygon fill="#999999" stroke="#666666" points="202.25,-58 167.5,-58 167.5,-38 202.25,-38 202.25,-58"/>
<text text-anchor="middle" x="184.88" y="-44.5" font-family="Helvetica,sans-Serif" font-size="10.00">RTC</text>
</a>
</g>
</g>
<!-- Node2&#45;&gt;Node1 -->
<g id="edge1" class="edge">
<title>Node2&#45;&gt;Node1</title>
<path fill="none" stroke="black" d="M143.27,-48C152.1,-48 160.33,-48 167.04,-48"/>
<polygon fill="black" stroke="black" points="143.33,-44.5 133.33,-48 143.33,-51.5 143.33,-44.5"/>
</g>
<!-- Node1&#45;&gt;Node3 -->
<g id="edge2" class="edge">
<title>Node1&#45;&gt;Node3</title>
<path fill="none" stroke="black" d="M213.05,-58.15C221.13,-61.09 230.02,-64.24 238.25,-67 246.86,-69.89 256.21,-72.85 264.96,-75.55"/>
<polygon fill="black" stroke="black" points="214.33,-54.89 203.73,-54.72 211.91,-61.46 214.33,-54.89"/>
</g>
<!-- Node4 -->
<g id="Node000004" class="node">
<title>Node4</title>
<g id="a_Node000004"><a xlink:href="group___time.html" target="_top" xlink:title=" ">
<polygon fill="white" stroke="#666666" points="319.5,-58 282.5,-58 282.5,-38 319.5,-38 319.5,-58"/>
<text text-anchor="middle" x="301" y="-44.5" font-family="Helvetica,sans-Serif" font-size="10.00">Time</text>
</a>
</g>
</g>
<!-- Node1&#45;&gt;Node4 -->
<g id="edge3" class="edge">
<title>Node1&#45;&gt;Node4</title>
<path fill="none" stroke="black" d="M214.01,-48C235.38,-48 264.11,-48 282.34,-48"/>
<polygon fill="black" stroke="black" points="214.23,-44.5 204.23,-48 214.23,-51.5 214.23,-44.5"/>
</g>
<!-- Node5 -->
<g id="Node000005" class="node">
<title>Node5</title>
<g id="a_Node000005"><a xlink:href="group___time___backup_domain.html" target="_top" xlink:title=" ">
<polygon fill="white" stroke="#666666" points="355.12,-20 246.88,-20 246.88,0 355.12,0 355.12,-20"/>
<text text-anchor="middle" x="301" y="-6.5" font-family="Helvetica,sans-Serif" font-size="10.00">Time_BackupDomain</text>
</a>
</g>
</g>
<!-- Node1&#45;&gt;Node5 -->
<g id="edge4" class="edge">
<title>Node1&#45;&gt;Node5</title>
<path fill="none" stroke="black" d="M213.05,-37.85C221.13,-34.91 230.02,-31.76 238.25,-29 246.86,-26.11 256.21,-23.15 264.96,-20.45"/>
<polygon fill="black" stroke="black" points="211.91,-34.54 203.73,-41.28 214.33,-41.11 211.91,-34.54"/>
</g>
</g>
</svg>
