<?xml version="1.0" encoding="UTF-8" standalone="no"?>
<!DOCTYPE svg PUBLIC "-//W3C//DTD SVG 1.1//EN"
 "http://www.w3.org/Graphics/SVG/1.1/DTD/svg11.dtd">
<!-- Generated by graphviz version 9.0.0 (20230911.1827)
 -->
<!-- Title: QSPI Pages: 1 -->
<svg width="382pt" height="66pt"
 viewBox="0.00 0.00 382.25 66.00" xmlns="http://www.w3.org/2000/svg" xmlns:xlink="http://www.w3.org/1999/xlink">
<g id="graph0" class="graph" transform="scale(1 1) rotate(0) translate(4 62)">
<title>QSPI</title>
<!-- Node3 -->
<g id="Node000003" class="node">
<title>Node3</title>
<g id="a_Node000003"><a xlink:href="group___flash___quad___mode.html" target="_top" xlink:title=" ">
<polygon fill="white" stroke="#666666" points="357.38,-58 259.62,-58 259.62,-38 357.38,-38 357.38,-58"/>
<text text-anchor="middle" x="308.5" y="-44.5" font-family="Helvetica,sans-Serif" font-size="10.00">Flash_Quad_Mode</text>
</a>
</g>
</g>
<!-- Node4 -->
<g id="Node000004" class="node">
<title>Node4</title>
<g id="a_Node000004"><a xlink:href="group___flash___quad___mode___p_d_m_a.html" target="_top" xlink:title=" ">
<polygon fill="white" stroke="#666666" points="374.25,-20 242.75,-20 242.75,0 374.25,0 374.25,-20"/>
<text text-anchor="middle" x="308.5" y="-6.5" font-family="Helvetica,sans-Serif" font-size="10.00">Flash_Quad_Mode_PDMA</text>
</a>
</g>
</g>
<!-- Node2 -->
<g id="Node000002" class="node">
<title>Node2</title>
<g id="a_Node000002"><a xlink:href="group___h_t32___series___peripheral___examples.html" target="_top" xlink:title=" ">
<polygon fill="white" stroke="#666666" points="131.5,-39 0,-39 0,-19 131.5,-19 131.5,-39"/>
<text text-anchor="middle" x="65.75" y="-25.5" font-family="Helvetica,sans-Serif" font-size="10.00">HT32 Peripheral Examples</text>
</a>
</g>
</g>
<!-- Node1 -->
<g id="Node000001" class="node">
<title>Node1</title>
<g id="a_Node000001"><a xlink:title=" ">
<polygon fill="#999999" stroke="#666666" points="206.75,-39 167.5,-39 167.5,-19 206.75,-19 206.75,-39"/>
<text text-anchor="middle" x="187.12" y="-25.5" font-family="Helvetica,sans-Serif" font-size="10.00">QSPI</text>
</a>
</g>
</g>
<!-- Node2&#45;&gt;Node1 -->
<g id="edge1" class="edge">
<title>Node2&#45;&gt;Node1</title>
<path fill="none" stroke="black" d="M143.11,-29C151.97,-29 160.3,-29 167.22,-29"/>
<polygon fill="black" stroke="black" points="143.19,-25.5 133.19,-29 143.19,-32.5 143.19,-25.5"/>
</g>
<!-- Node1&#45;&gt;Node3 -->
<g id="edge2" class="edge">
<title>Node1&#45;&gt;Node3</title>
<path fill="none" stroke="black" d="M218.18,-33.78C230.64,-35.77 245.41,-38.12 259.32,-40.33"/>
<polygon fill="black" stroke="black" points="218.96,-30.36 208.54,-32.25 217.86,-37.28 218.96,-30.36"/>
</g>
<!-- Node1&#45;&gt;Node4 -->
<g id="edge3" class="edge">
<title>Node1&#45;&gt;Node4</title>
<path fill="none" stroke="black" d="M218.31,-24.2C225.74,-23.01 233.99,-21.7 242.38,-20.36"/>
<polygon fill="black" stroke="black" points="217.86,-20.72 208.54,-25.75 218.96,-27.64 217.86,-20.72"/>
</g>
</g>
</svg>
