<?xml version="1.0" encoding="UTF-8" standalone="no"?>
<!DOCTYPE svg PUBLIC "-//W3C//DTD SVG 1.1//EN"
 "http://www.w3.org/Graphics/SVG/1.1/DTD/svg11.dtd">
<!-- Generated by graphviz version 9.0.0 (20230911.1827)
 -->
<!-- Title: DIV Pages: 1 -->
<svg width="347pt" height="142pt"
 viewBox="0.00 0.00 347.00 142.00" xmlns="http://www.w3.org/2000/svg" xmlns:xlink="http://www.w3.org/1999/xlink">
<g id="graph0" class="graph" transform="scale(1 1) rotate(0) translate(4 138)">
<title>DIV</title>
<!-- Node1 -->
<g id="Node000001" class="node">
<title>Node1</title>
<g id="a_Node000001"><a xlink:title="DIV driver modules.">
<polygon fill="#999999" stroke="#666666" points="185,-77 153.25,-77 153.25,-57 185,-57 185,-77"/>
<text text-anchor="middle" x="169.12" y="-63.5" font-family="Helvetica,sans-Serif" font-size="10.00">DIV</text>
</a>
</g>
</g>
<!-- Node5 -->
<g id="Node000005" class="node">
<title>Node5</title>
<g id="a_Node000005"><a xlink:href="group___d_i_v___exported___constants.html" target="_top" xlink:title=" ">
<polygon fill="white" stroke="#666666" points="339,-134 221,-134 221,-114 339,-114 339,-134"/>
<text text-anchor="middle" x="280" y="-120.5" font-family="Helvetica,sans-Serif" font-size="10.00">DIV exported constants</text>
</a>
</g>
</g>
<!-- Node1&#45;&gt;Node5 -->
<g id="edge4" class="edge">
<title>Node1&#45;&gt;Node5</title>
<path fill="none" stroke="black" d="M190.35,-84.5C199.3,-91.59 210.22,-99.4 221,-105 227.3,-108.27 234.28,-111.13 241.14,-113.57"/>
<polygon fill="black" stroke="black" points="192.64,-81.84 182.69,-78.19 188.19,-87.25 192.64,-81.84"/>
</g>
<!-- Node6 -->
<g id="Node000006" class="node">
<title>Node6</title>
<g id="a_Node000006"><a xlink:href="group___d_i_v___exported___functions.html" target="_top" xlink:title=" ">
<polygon fill="white" stroke="#666666" points="337.12,-96 222.88,-96 222.88,-76 337.12,-76 337.12,-96"/>
<text text-anchor="middle" x="280" y="-82.5" font-family="Helvetica,sans-Serif" font-size="10.00">DIV exported functions</text>
</a>
</g>
</g>
<!-- Node1&#45;&gt;Node6 -->
<g id="edge5" class="edge">
<title>Node1&#45;&gt;Node6</title>
<path fill="none" stroke="black" d="M196.4,-71.59C204.4,-72.98 213.51,-74.57 222.7,-76.17"/>
<polygon fill="black" stroke="black" points="197.21,-68.17 186.75,-69.9 196,-75.07 197.21,-68.17"/>
</g>
<!-- Node4 -->
<g id="Node000004" class="node">
<title>Node4</title>
<g id="a_Node000004"><a xlink:href="group___d_i_v___exported___types.html" target="_top" xlink:title=" ">
<polygon fill="white" stroke="#666666" points="329.62,-58 230.38,-58 230.38,-38 329.62,-38 329.62,-58"/>
<text text-anchor="middle" x="280" y="-44.5" font-family="Helvetica,sans-Serif" font-size="10.00">DIV exported types</text>
</a>
</g>
</g>
<!-- Node1&#45;&gt;Node4 -->
<g id="edge3" class="edge">
<title>Node1&#45;&gt;Node4</title>
<path fill="none" stroke="black" d="M196.55,-62.39C206.64,-60.63 218.49,-58.56 230.02,-56.55"/>
<polygon fill="black" stroke="black" points="196,-58.93 186.75,-64.1 197.21,-65.83 196,-58.93"/>
</g>
<!-- Node3 -->
<g id="Node000003" class="node">
<title>Node3</title>
<g id="a_Node000003"><a xlink:href="group___d_i_v___settings.html" target="_top" xlink:title=" ">
<polygon fill="white" stroke="#666666" points="314.62,-20 245.38,-20 245.38,0 314.62,0 314.62,-20"/>
<text text-anchor="middle" x="280" y="-6.5" font-family="Helvetica,sans-Serif" font-size="10.00">DIV settings</text>
</a>
</g>
</g>
<!-- Node1&#45;&gt;Node3 -->
<g id="edge2" class="edge">
<title>Node1&#45;&gt;Node3</title>
<path fill="none" stroke="black" d="M190.35,-49.5C199.3,-42.41 210.22,-34.6 221,-29 228.52,-25.09 237.01,-21.77 245.12,-19.05"/>
<polygon fill="black" stroke="black" points="188.19,-46.75 182.69,-55.81 192.64,-52.16 188.19,-46.75"/>
</g>
<!-- Node2 -->
<g id="Node000002" class="node">
<title>Node2</title>
<g id="a_Node000002"><a xlink:href="group___h_t32_f5xxxx___peripheral___driver.html" target="_top" xlink:title=" ">
<polygon fill="white" stroke="#666666" points="117.25,-83 0,-83 0,-51 117.25,-51 117.25,-83"/>
<text text-anchor="start" x="8" y="-69.5" font-family="Helvetica,sans-Serif" font-size="10.00">HT32F5xxxx Peripheral</text>
<text text-anchor="middle" x="58.62" y="-57.5" font-family="Helvetica,sans-Serif" font-size="10.00"> Driver</text>
</a>
</g>
</g>
<!-- Node2&#45;&gt;Node1 -->
<g id="edge1" class="edge">
<title>Node2&#45;&gt;Node1</title>
<path fill="none" stroke="black" d="M129.19,-67C138.09,-67 146.39,-67 153.02,-67"/>
<polygon fill="black" stroke="black" points="129.2,-63.5 119.2,-67 129.2,-70.5 129.2,-63.5"/>
</g>
</g>
</svg>
