<?xml version="1.0" encoding="UTF-8" standalone="no"?>
<!DOCTYPE svg PUBLIC "-//W3C//DTD SVG 1.1//EN"
 "http://www.w3.org/Graphics/SVG/1.1/DTD/svg11.dtd">
<!-- Generated by graphviz version 9.0.0 (20230911.1827)
 -->
<!-- Title: Functions and Instructions Reference Pages: 1 -->
<svg width="443pt" height="154pt"
 viewBox="0.00 0.00 443.00 154.00" xmlns="http://www.w3.org/2000/svg" xmlns:xlink="http://www.w3.org/1999/xlink">
<g id="graph0" class="graph" transform="scale(1 1) rotate(0) translate(4 150)">
<title>Functions and Instructions Reference</title>
<!-- Node3 -->
<g id="Node000003" class="node">
<title>Node3</title>
<g id="a_Node000003"><a xlink:href="group___c_m_s_i_s___core___cache_functions.html" target="_top" xlink:title="Functions that configure Instruction and Data cache.">
<polygon fill="white" stroke="#666666" points="425.25,-146 335.75,-146 335.75,-126 425.25,-126 425.25,-146"/>
<text text-anchor="middle" x="380.5" y="-132.5" font-family="Helvetica,sans-Serif" font-size="10.00">Cache Functions</text>
</a>
</g>
</g>
<!-- Node1 -->
<g id="Node000001" class="node">
<title>Node1</title>
<g id="a_Node000001"><a xlink:title=" ">
<polygon fill="#999999" stroke="#666666" points="290,-95 159.25,-95 159.25,-63 290,-63 290,-95"/>
<text text-anchor="start" x="167.25" y="-81.5" font-family="Helvetica,sans-Serif" font-size="10.00">Functions and Instructions</text>
<text text-anchor="middle" x="224.62" y="-69.5" font-family="Helvetica,sans-Serif" font-size="10.00"> Reference</text>
</a>
</g>
</g>
<!-- Node1&#45;&gt;Node3 -->
<g id="edge2" class="edge">
<title>Node1&#45;&gt;Node3</title>
<path fill="none" stroke="black" d="M279.25,-99.54C294.35,-105.25 310.8,-111.42 326,-117 333.68,-119.82 342,-122.81 349.75,-125.56"/>
<polygon fill="black" stroke="black" points="280.54,-96.28 269.95,-96.01 278.06,-102.83 280.54,-96.28"/>
</g>
<!-- Node5 -->
<g id="Node000005" class="node">
<title>Node5</title>
<g id="a_Node000005"><a xlink:href="group___c_m_s_i_s___core___n_v_i_c_functions.html" target="_top" xlink:title="Functions that manage interrupts and exceptions via the NVIC.">
<polygon fill="white" stroke="#666666" points="422.62,-108 338.38,-108 338.38,-88 422.62,-88 422.62,-108"/>
<text text-anchor="middle" x="380.5" y="-94.5" font-family="Helvetica,sans-Serif" font-size="10.00">NVIC Functions</text>
</a>
</g>
</g>
<!-- Node1&#45;&gt;Node5 -->
<g id="edge4" class="edge">
<title>Node1&#45;&gt;Node5</title>
<path fill="none" stroke="black" d="M301.84,-88.41C314.3,-89.95 326.79,-91.49 338,-92.88"/>
<polygon fill="black" stroke="black" points="302.29,-84.94 291.94,-87.19 301.43,-91.89 302.29,-84.94"/>
</g>
<!-- Node6 -->
<g id="Node000006" class="node">
<title>Node6</title>
<g id="a_Node000006"><a xlink:href="group___c_m_s_i_s___core___pac_key_functions.html" target="_top" xlink:title="Functions that access the PAC keys.">
<polygon fill="white" stroke="#666666" points="429.75,-70 331.25,-70 331.25,-50 429.75,-50 429.75,-70"/>
<text text-anchor="middle" x="380.5" y="-56.5" font-family="Helvetica,sans-Serif" font-size="10.00">PAC Key functions</text>
</a>
</g>
</g>
<!-- Node1&#45;&gt;Node6 -->
<g id="edge5" class="edge">
<title>Node1&#45;&gt;Node6</title>
<path fill="none" stroke="black" d="M301.7,-69.61C311.72,-68.37 321.75,-67.13 331.13,-65.97"/>
<polygon fill="black" stroke="black" points="301.43,-66.11 291.94,-70.81 302.29,-73.06 301.43,-66.11"/>
</g>
<!-- Node4 -->
<g id="Node000004" class="node">
<title>Node4</title>
<g id="a_Node000004"><a xlink:href="group___c_m_s_i_s___core___reg_acc_functions.html" target="_top" xlink:title=" ">
<polygon fill="white" stroke="#666666" points="435,-32 326,-32 326,0 435,0 435,-32"/>
<text text-anchor="start" x="334" y="-18.5" font-family="Helvetica,sans-Serif" font-size="10.00">CMSIS Core Register</text>
<text text-anchor="middle" x="380.5" y="-6.5" font-family="Helvetica,sans-Serif" font-size="10.00"> Access Functions</text>
</a>
</g>
</g>
<!-- Node1&#45;&gt;Node4 -->
<g id="edge3" class="edge">
<title>Node1&#45;&gt;Node4</title>
<path fill="none" stroke="black" d="M276.1,-58.33C296.65,-49.92 320.06,-40.34 339.41,-32.42"/>
<polygon fill="black" stroke="black" points="274.98,-55.01 267.05,-62.04 277.63,-61.49 274.98,-55.01"/>
</g>
<!-- Node2 -->
<g id="Node000002" class="node">
<title>Node2</title>
<g id="a_Node000002"><a xlink:href="group___c_m_s_i_s__register__aliases.html" target="_top" xlink:title="Register alias definitions for backwards compatibility.">
<polygon fill="white" stroke="#666666" points="123.25,-95 0,-95 0,-63 123.25,-63 123.25,-95"/>
<text text-anchor="start" x="8" y="-81.5" font-family="Helvetica,sans-Serif" font-size="10.00">Backwards Compatibility</text>
<text text-anchor="middle" x="61.62" y="-69.5" font-family="Helvetica,sans-Serif" font-size="10.00"> Aliases</text>
</a>
</g>
</g>
<!-- Node2&#45;&gt;Node1 -->
<g id="edge1" class="edge">
<title>Node2&#45;&gt;Node1</title>
<path fill="none" stroke="black" d="M134.76,-79C142.81,-79 150.97,-79 158.91,-79"/>
<polygon fill="black" stroke="black" points="135.01,-75.5 125.01,-79 135.01,-82.5 135.01,-75.5"/>
</g>
</g>
</svg>
