<?xml version="1.0" encoding="UTF-8" standalone="no"?>
<!DOCTYPE svg PUBLIC "-//W3C//DTD SVG 1.1//EN"
 "http://www.w3.org/Graphics/SVG/1.1/DTD/svg11.dtd">
<!-- Generated by graphviz version 9.0.0 (20230911.1827)
 -->
<!-- Title: Nested Vectored Interrupt Controller (NVIC) Pages: 1 -->
<svg width="415pt" height="40pt"
 viewBox="0.00 0.00 415.25 40.00" xmlns="http://www.w3.org/2000/svg" xmlns:xlink="http://www.w3.org/1999/xlink">
<g id="graph0" class="graph" transform="scale(1 1) rotate(0) translate(4 36)">
<title>Nested Vectored Interrupt Controller (NVIC)</title>
<!-- Node2 -->
<g id="Node000002" class="node">
<title>Node2</title>
<g id="a_Node000002"><a xlink:href="group___c_m_s_i_s___c_o_r_e.html" target="_top" xlink:title="Core Register type definitions.">
<polygon fill="white" stroke="#666666" points="97,-32 0,-32 0,0 97,0 97,-32"/>
<text text-anchor="start" x="8" y="-18.5" font-family="Helvetica,sans-Serif" font-size="10.00">Status and Control</text>
<text text-anchor="middle" x="48.5" y="-6.5" font-family="Helvetica,sans-Serif" font-size="10.00"> Registers</text>
</a>
</g>
</g>
<!-- Node1 -->
<g id="Node000001" class="node">
<title>Node1</title>
<g id="a_Node000001"><a xlink:title="Type definitions for the NVIC Registers.">
<polygon fill="#999999" stroke="#666666" points="260,-32 133,-32 133,0 260,0 260,-32"/>
<text text-anchor="start" x="141" y="-18.5" font-family="Helvetica,sans-Serif" font-size="10.00">Nested Vectored Interrupt</text>
<text text-anchor="middle" x="196.5" y="-6.5" font-family="Helvetica,sans-Serif" font-size="10.00"> Controller (NVIC)</text>
</a>
</g>
</g>
<!-- Node2&#45;&gt;Node1 -->
<g id="edge1" class="edge">
<title>Node2&#45;&gt;Node1</title>
<path fill="none" stroke="black" d="M108.69,-16C116.6,-16 124.74,-16 132.71,-16"/>
<polygon fill="black" stroke="black" points="108.82,-12.5 98.82,-16 108.82,-19.5 108.82,-12.5"/>
</g>
<!-- Node3 -->
<g id="Node000003" class="node">
<title>Node3</title>
<g id="a_Node000003"><a xlink:href="group___c_m_s_i_s___s_c_b.html" target="_top" xlink:title="Type definitions for the System Control Block Registers.">
<polygon fill="white" stroke="#666666" points="407.25,-32 296,-32 296,0 407.25,0 407.25,-32"/>
<text text-anchor="start" x="304" y="-18.5" font-family="Helvetica,sans-Serif" font-size="10.00">System Control Block</text>
<text text-anchor="middle" x="351.62" y="-6.5" font-family="Helvetica,sans-Serif" font-size="10.00"> (SCB)</text>
</a>
</g>
</g>
<!-- Node1&#45;&gt;Node3 -->
<g id="edge2" class="edge">
<title>Node1&#45;&gt;Node3</title>
<path fill="none" stroke="black" d="M271.59,-16C279.68,-16 287.8,-16 295.6,-16"/>
<polygon fill="black" stroke="black" points="271.74,-12.5 261.74,-16 271.74,-19.5 271.74,-12.5"/>
</g>
</g>
</svg>
