<?xml version="1.0" encoding="UTF-8" standalone="no"?>
<!DOCTYPE svg PUBLIC "-//W3C//DTD SVG 1.1//EN"
 "http://www.w3.org/Graphics/SVG/1.1/DTD/svg11.dtd">
<!-- Generated by graphviz version 9.0.0 (20230911.1827)
 -->
<!-- Title: EXTI Pages: 1 -->
<svg width="355pt" height="180pt"
 viewBox="0.00 0.00 354.50 180.00" xmlns="http://www.w3.org/2000/svg" xmlns:xlink="http://www.w3.org/1999/xlink">
<g id="graph0" class="graph" transform="scale(1 1) rotate(0) translate(4 176)">
<title>EXTI</title>
<!-- Node1 -->
<g id="Node000001" class="node">
<title>Node1</title>
<g id="a_Node000001"><a xlink:title="EXTI driver modules.">
<polygon fill="#999999" stroke="#666666" points="188.75,-96 153.25,-96 153.25,-76 188.75,-76 188.75,-96"/>
<text text-anchor="middle" x="171" y="-82.5" font-family="Helvetica,sans-Serif" font-size="10.00">EXTI</text>
</a>
</g>
</g>
<!-- Node5 -->
<g id="Node000005" class="node">
<title>Node5</title>
<g id="a_Node000005"><a xlink:href="group___e_x_t_i___exported___constants.html" target="_top" xlink:title=" ">
<polygon fill="white" stroke="#666666" points="346.5,-172 224.75,-172 224.75,-152 346.5,-152 346.5,-172"/>
<text text-anchor="middle" x="285.62" y="-158.5" font-family="Helvetica,sans-Serif" font-size="10.00">EXTI exported constants</text>
</a>
</g>
</g>
<!-- Node1&#45;&gt;Node5 -->
<g id="edge4" class="edge">
<title>Node1&#45;&gt;Node5</title>
<path fill="none" stroke="black" d="M185.76,-105.43C195.41,-117.76 209.3,-133.19 224.75,-143 230.09,-146.39 236.08,-149.22 242.16,-151.57"/>
<polygon fill="black" stroke="black" points="188.68,-103.49 179.89,-97.58 183.08,-107.69 188.68,-103.49"/>
</g>
<!-- Node6 -->
<g id="Node000006" class="node">
<title>Node6</title>
<g id="a_Node000006"><a xlink:href="group___e_x_t_i___exported___functions.html" target="_top" xlink:title=" ">
<polygon fill="white" stroke="#666666" points="344.62,-134 226.62,-134 226.62,-114 344.62,-114 344.62,-134"/>
<text text-anchor="middle" x="285.62" y="-120.5" font-family="Helvetica,sans-Serif" font-size="10.00">EXTI exported functions</text>
</a>
</g>
</g>
<!-- Node1&#45;&gt;Node6 -->
<g id="edge5" class="edge">
<title>Node1&#45;&gt;Node6</title>
<path fill="none" stroke="black" d="M199.76,-96.22C207.8,-99.12 216.6,-102.24 224.75,-105 233.22,-107.87 242.41,-110.85 250.98,-113.57"/>
<polygon fill="black" stroke="black" points="201.06,-92.97 190.47,-92.85 198.67,-99.55 201.06,-92.97"/>
</g>
<!-- Node3 -->
<g id="Node000003" class="node">
<title>Node3</title>
<g id="a_Node000003"><a xlink:href="group___e_x_t_i___exported___macro.html" target="_top" xlink:title=" ">
<polygon fill="white" stroke="#666666" points="341.25,-96 230,-96 230,-76 341.25,-76 341.25,-96"/>
<text text-anchor="middle" x="285.62" y="-82.5" font-family="Helvetica,sans-Serif" font-size="10.00">EXTI exported macros</text>
</a>
</g>
</g>
<!-- Node1&#45;&gt;Node3 -->
<g id="edge2" class="edge">
<title>Node1&#45;&gt;Node3</title>
<path fill="none" stroke="black" d="M200.4,-86C209.35,-86 219.55,-86 229.7,-86"/>
<polygon fill="black" stroke="black" points="200.62,-82.5 190.62,-86 200.62,-89.5 200.62,-82.5"/>
</g>
<!-- Node4 -->
<g id="Node000004" class="node">
<title>Node4</title>
<g id="a_Node000004"><a xlink:href="group___e_x_t_i___exported___types.html" target="_top" xlink:title=" ">
<polygon fill="white" stroke="#666666" points="337.12,-58 234.12,-58 234.12,-38 337.12,-38 337.12,-58"/>
<text text-anchor="middle" x="285.62" y="-44.5" font-family="Helvetica,sans-Serif" font-size="10.00">EXTI exported types</text>
</a>
</g>
</g>
<!-- Node1&#45;&gt;Node4 -->
<g id="edge3" class="edge">
<title>Node1&#45;&gt;Node4</title>
<path fill="none" stroke="black" d="M199.76,-75.78C207.8,-72.88 216.6,-69.76 224.75,-67 233.22,-64.13 242.41,-61.15 250.98,-58.43"/>
<polygon fill="black" stroke="black" points="198.67,-72.45 190.47,-79.15 201.06,-79.03 198.67,-72.45"/>
</g>
<!-- Node7 -->
<g id="Node000007" class="node">
<title>Node7</title>
<g id="a_Node000007"><a xlink:href="group___e_x_t_i___private___define.html" target="_top" xlink:title=" ">
<polygon fill="white" stroke="#666666" points="342,-20 229.25,-20 229.25,0 342,0 342,-20"/>
<text text-anchor="middle" x="285.62" y="-6.5" font-family="Helvetica,sans-Serif" font-size="10.00">EXTI private definitions</text>
</a>
</g>
</g>
<!-- Node1&#45;&gt;Node7 -->
<g id="edge6" class="edge">
<title>Node1&#45;&gt;Node7</title>
<path fill="none" stroke="black" d="M185.76,-66.57C195.41,-54.24 209.3,-38.81 224.75,-29 230.09,-25.61 236.08,-22.78 242.16,-20.43"/>
<polygon fill="black" stroke="black" points="183.08,-64.31 179.89,-74.42 188.68,-68.51 183.08,-64.31"/>
</g>
<!-- Node2 -->
<g id="Node000002" class="node">
<title>Node2</title>
<g id="a_Node000002"><a xlink:href="group___h_t32_f5xxxx___peripheral___driver.html" target="_top" xlink:title=" ">
<polygon fill="white" stroke="#666666" points="117.25,-102 0,-102 0,-70 117.25,-70 117.25,-102"/>
<text text-anchor="start" x="8" y="-88.5" font-family="Helvetica,sans-Serif" font-size="10.00">HT32F5xxxx Peripheral</text>
<text text-anchor="middle" x="58.62" y="-76.5" font-family="Helvetica,sans-Serif" font-size="10.00"> Driver</text>
</a>
</g>
</g>
<!-- Node2&#45;&gt;Node1 -->
<g id="edge1" class="edge">
<title>Node2&#45;&gt;Node1</title>
<path fill="none" stroke="black" d="M129.06,-86C137.86,-86 146.13,-86 152.91,-86"/>
<polygon fill="black" stroke="black" points="129.24,-82.5 119.24,-86 129.24,-89.5 129.24,-82.5"/>
</g>
</g>
</svg>
