<?xml version="1.0" encoding="UTF-8" standalone="no"?>
<!DOCTYPE svg PUBLIC "-//W3C//DTD SVG 1.1//EN"
 "http://www.w3.org/Graphics/SVG/1.1/DTD/svg11.dtd">
<!-- Generated by graphviz version 9.0.0 (20230911.1827)
 -->
<!-- Title: Memory System Control Registers (IMPLEMENTATION DEFINED) Pages: 1 -->
<svg width="442pt" height="52pt"
 viewBox="0.00 0.00 442.25 52.00" xmlns="http://www.w3.org/2000/svg" xmlns:xlink="http://www.w3.org/1999/xlink">
<g id="graph0" class="graph" transform="scale(1 1) rotate(0) translate(4 48)">
<title>Memory System Control Registers (IMPLEMENTATION DEFINED)</title>
<!-- Node2 -->
<g id="Node000002" class="node">
<title>Node2</title>
<g id="a_Node000002"><a xlink:href="group___c_m_s_i_s___d_w_t.html" target="_top" xlink:title="Type definitions for the Data Watchpoint and Trace (DWT)">
<polygon fill="white" stroke="#666666" points="107.5,-38 0,-38 0,-6 107.5,-6 107.5,-38"/>
<text text-anchor="start" x="8" y="-24.5" font-family="Helvetica,sans-Serif" font-size="10.00">Data Watchpoint and</text>
<text text-anchor="middle" x="53.75" y="-12.5" font-family="Helvetica,sans-Serif" font-size="10.00"> Trace (DWT)</text>
</a>
</g>
</g>
<!-- Node1 -->
<g id="Node000001" class="node">
<title>Node1</title>
<g id="a_Node000001"><a xlink:title="Type definitions for the Memory System Control Registers (MEMSYSCTL)">
<polygon fill="#999999" stroke="#666666" points="294.5,-44 143.5,-44 143.5,0 294.5,0 294.5,-44"/>
<text text-anchor="start" x="151.5" y="-30.5" font-family="Helvetica,sans-Serif" font-size="10.00">Memory System Control</text>
<text text-anchor="start" x="151.5" y="-18.5" font-family="Helvetica,sans-Serif" font-size="10.00"> Registers (IMPLEMENTATION</text>
<text text-anchor="middle" x="219" y="-6.5" font-family="Helvetica,sans-Serif" font-size="10.00"> DEFINED)</text>
</a>
</g>
</g>
<!-- Node2&#45;&gt;Node1 -->
<g id="edge1" class="edge">
<title>Node2&#45;&gt;Node1</title>
<path fill="none" stroke="black" d="M119.07,-22C126.94,-22 135.02,-22 143.02,-22"/>
<polygon fill="black" stroke="black" points="119.27,-18.5 109.27,-22 119.27,-25.5 119.27,-18.5"/>
</g>
<!-- Node3 -->
<g id="Node000003" class="node">
<title>Node3</title>
<g id="a_Node000003"><a xlink:href="group___pwr_mod_ctl___type.html" target="_top" xlink:title="Type definitions for the Power Mode Control Registers (PWRMODCTL)">
<polygon fill="white" stroke="#666666" points="434.25,-38 330.5,-38 330.5,-6 434.25,-6 434.25,-38"/>
<text text-anchor="start" x="338.5" y="-24.5" font-family="Helvetica,sans-Serif" font-size="10.00">Power Mode Control</text>
<text text-anchor="middle" x="382.38" y="-12.5" font-family="Helvetica,sans-Serif" font-size="10.00"> Registers</text>
</a>
</g>
</g>
<!-- Node1&#45;&gt;Node3 -->
<g id="edge2" class="edge">
<title>Node1&#45;&gt;Node3</title>
<path fill="none" stroke="black" d="M305.87,-22C314.17,-22 322.39,-22 330.19,-22"/>
<polygon fill="black" stroke="black" points="306.06,-18.5 296.06,-22 306.06,-25.5 306.06,-18.5"/>
</g>
</g>
</svg>
