<?xml version="1.0" encoding="UTF-8" standalone="no"?>
<!DOCTYPE svg PUBLIC "-//W3C//DTD SVG 1.1//EN"
 "http://www.w3.org/Graphics/SVG/1.1/DTD/svg11.dtd">
<!-- Generated by graphviz version 9.0.0 (20230911.1827)
 -->
<!-- Title: RING_BUFFER Pages: 1 -->
<svg width="322pt" height="90pt"
 viewBox="0.00 0.00 322.25 90.00" xmlns="http://www.w3.org/2000/svg" xmlns:xlink="http://www.w3.org/1999/xlink">
<g id="graph0" class="graph" transform="scale(1 1) rotate(0) translate(4 86)">
<title>RING_BUFFER</title>
<!-- Node2 -->
<g id="Node000002" class="node">
<title>Node2</title>
<g id="a_Node000002"><a xlink:href="group___common.html" target="_top" xlink:title=" ">
<polygon fill="white" stroke="#666666" points="55,-51 0,-51 0,-31 55,-31 55,-51"/>
<text text-anchor="middle" x="27.5" y="-37.5" font-family="Helvetica,sans-Serif" font-size="10.00">Common</text>
</a>
</g>
</g>
<!-- Node1 -->
<g id="Node000001" class="node">
<title>Node1</title>
<g id="a_Node000001"><a xlink:title="The source file of ring buffer.">
<polygon fill="#999999" stroke="#666666" points="174.5,-51 91,-51 91,-31 174.5,-31 174.5,-51"/>
<text text-anchor="middle" x="132.75" y="-37.5" font-family="Helvetica,sans-Serif" font-size="10.00">RING_BUFFER</text>
</a>
</g>
</g>
<!-- Node2&#45;&gt;Node1 -->
<g id="edge1" class="edge">
<title>Node2&#45;&gt;Node1</title>
<path fill="none" stroke="black" d="M66.73,-41C74.52,-41 82.73,-41 90.61,-41"/>
<polygon fill="black" stroke="black" points="66.87,-37.5 56.87,-41 66.87,-44.5 66.87,-37.5"/>
</g>
<!-- Node3 -->
<g id="Node000003" class="node">
<title>Node3</title>
<g id="a_Node000003"><a xlink:href="group___r_i_n_g___b_u_f_f_e_r___exported___functions.html" target="_top" xlink:title=" ">
<polygon fill="white" stroke="#666666" points="314.25,-82 210.5,-82 210.5,-50 314.25,-50 314.25,-82"/>
<text text-anchor="start" x="218.5" y="-68.5" font-family="Helvetica,sans-Serif" font-size="10.00">Ring Buffer exported</text>
<text text-anchor="middle" x="262.38" y="-56.5" font-family="Helvetica,sans-Serif" font-size="10.00"> functions</text>
</a>
</g>
</g>
<!-- Node1&#45;&gt;Node3 -->
<g id="edge2" class="edge">
<title>Node1&#45;&gt;Node3</title>
<path fill="none" stroke="black" d="M185.89,-51.21C193.88,-52.78 202.11,-54.39 210.07,-55.95"/>
<polygon fill="black" stroke="black" points="186.81,-47.83 176.32,-49.34 185.46,-54.7 186.81,-47.83"/>
</g>
<!-- Node4 -->
<g id="Node000004" class="node">
<title>Node4</title>
<g id="a_Node000004"><a xlink:href="group___r_i_n_g___b_u_f_f_e_r___exported___types.html" target="_top" xlink:title=" ">
<polygon fill="white" stroke="#666666" points="314.25,-32 210.5,-32 210.5,0 314.25,0 314.25,-32"/>
<text text-anchor="start" x="218.5" y="-18.5" font-family="Helvetica,sans-Serif" font-size="10.00">Ring Buffer exported</text>
<text text-anchor="middle" x="262.38" y="-6.5" font-family="Helvetica,sans-Serif" font-size="10.00"> types</text>
</a>
</g>
</g>
<!-- Node1&#45;&gt;Node4 -->
<g id="edge3" class="edge">
<title>Node1&#45;&gt;Node4</title>
<path fill="none" stroke="black" d="M185.89,-30.79C193.88,-29.22 202.11,-27.61 210.07,-26.05"/>
<polygon fill="black" stroke="black" points="185.46,-27.3 176.32,-32.66 186.81,-34.17 185.46,-27.3"/>
</g>
</g>
</svg>
