<?xml version="1.0" encoding="UTF-8" standalone="no"?>
<!DOCTYPE svg PUBLIC "-//W3C//DTD SVG 1.1//EN"
 "http://www.w3.org/Graphics/SVG/1.1/DTD/svg11.dtd">
<!-- Generated by graphviz version 9.0.0 (20230911.1827)
 -->
<!-- Title: RTC exported constants Pages: 1 -->
<svg width="363pt" height="190pt"
 viewBox="0.00 0.00 362.75 190.00" xmlns="http://www.w3.org/2000/svg" xmlns:xlink="http://www.w3.org/1999/xlink">
<g id="graph0" class="graph" transform="scale(1 1) rotate(0) translate(4 186)">
<title>RTC exported constants</title>
<!-- Node2 -->
<g id="Node000002" class="node">
<title>Node2</title>
<g id="a_Node000002"><a xlink:href="group___r_t_c.html" target="_top" xlink:title="RTC driver modules.">
<polygon fill="white" stroke="#666666" points="34.75,-101 0,-101 0,-81 34.75,-81 34.75,-101"/>
<text text-anchor="middle" x="17.38" y="-87.5" font-family="Helvetica,sans-Serif" font-size="10.00">RTC</text>
</a>
</g>
</g>
<!-- Node1 -->
<g id="Node000001" class="node">
<title>Node1</title>
<g id="a_Node000001"><a xlink:title=" ">
<polygon fill="#999999" stroke="#666666" points="191.75,-101 70.75,-101 70.75,-81 191.75,-81 191.75,-101"/>
<text text-anchor="middle" x="131.25" y="-87.5" font-family="Helvetica,sans-Serif" font-size="10.00">RTC exported constants</text>
</a>
</g>
</g>
<!-- Node2&#45;&gt;Node1 -->
<g id="edge1" class="edge">
<title>Node2&#45;&gt;Node1</title>
<path fill="none" stroke="black" d="M46.33,-91C53.69,-91 61.93,-91 70.3,-91"/>
<polygon fill="black" stroke="black" points="46.4,-87.5 36.4,-91 46.4,-94.5 46.4,-87.5"/>
</g>
<!-- Node6 -->
<g id="Node000006" class="node">
<title>Node6</title>
<g id="a_Node000006"><a xlink:href="group___r_t_c___check___parameter.html" target="_top" xlink:title=" ">
<polygon fill="white" stroke="#666666" points="340.12,-182 242.38,-182 242.38,-150 340.12,-150 340.12,-182"/>
<text text-anchor="start" x="250.38" y="-168.5" font-family="Helvetica,sans-Serif" font-size="10.00">Selection of Vdd18</text>
<text text-anchor="middle" x="291.25" y="-156.5" font-family="Helvetica,sans-Serif" font-size="10.00"> power good</text>
</a>
</g>
</g>
<!-- Node1&#45;&gt;Node6 -->
<g id="edge5" class="edge">
<title>Node1&#45;&gt;Node6</title>
<path fill="none" stroke="black" d="M160.62,-106.82C179.42,-117.07 204.76,-130.42 227.75,-141 234.12,-143.93 240.94,-146.86 247.64,-149.63"/>
<polygon fill="black" stroke="black" points="162.41,-103.82 151.96,-102.07 159.04,-109.95 162.41,-103.82"/>
</g>
<!-- Node5 -->
<g id="Node000005" class="node">
<title>Node5</title>
<g id="a_Node000005"><a xlink:href="group___r_t_c___f_l_a_g.html" target="_top" xlink:title=" ">
<polygon fill="white" stroke="#666666" points="337.88,-132 244.62,-132 244.62,-100 337.88,-100 337.88,-132"/>
<text text-anchor="start" x="252.62" y="-118.5" font-family="Helvetica,sans-Serif" font-size="10.00">RTC Definitions of</text>
<text text-anchor="middle" x="291.25" y="-106.5" font-family="Helvetica,sans-Serif" font-size="10.00"> flags</text>
</a>
</g>
</g>
<!-- Node1&#45;&gt;Node5 -->
<g id="edge4" class="edge">
<title>Node1&#45;&gt;Node5</title>
<path fill="none" stroke="black" d="M203.07,-102.21C217.04,-104.42 231.35,-106.68 244.23,-108.72"/>
<polygon fill="black" stroke="black" points="203.9,-98.79 193.48,-100.69 202.81,-105.71 203.9,-98.79"/>
</g>
<!-- Node4 -->
<g id="Node000004" class="node">
<title>Node4</title>
<g id="a_Node000004"><a xlink:href="group___r_t_c___i_t.html" target="_top" xlink:title=" ">
<polygon fill="white" stroke="#666666" points="354.75,-82 227.75,-82 227.75,-50 354.75,-50 354.75,-82"/>
<text text-anchor="start" x="235.75" y="-68.5" font-family="Helvetica,sans-Serif" font-size="10.00">RTC Selection of interrupt</text>
<text text-anchor="middle" x="291.25" y="-56.5" font-family="Helvetica,sans-Serif" font-size="10.00"> source</text>
</a>
</g>
</g>
<!-- Node1&#45;&gt;Node4 -->
<g id="edge3" class="edge">
<title>Node1&#45;&gt;Node4</title>
<path fill="none" stroke="black" d="M203.21,-79.77C211.23,-78.5 219.36,-77.22 227.27,-75.96"/>
<polygon fill="black" stroke="black" points="202.81,-76.29 193.48,-81.31 203.9,-83.21 202.81,-76.29"/>
</g>
<!-- Node3 -->
<g id="Node000003" class="node">
<title>Node3</title>
<g id="a_Node000003"><a xlink:href="group___r_t_c___w_a_k_e_u_p.html" target="_top" xlink:title=" ">
<polygon fill="white" stroke="#666666" points="353.62,-32 228.88,-32 228.88,0 353.62,0 353.62,-32"/>
<text text-anchor="start" x="236.88" y="-18.5" font-family="Helvetica,sans-Serif" font-size="10.00">Selection of RTC wakeup</text>
<text text-anchor="middle" x="291.25" y="-6.5" font-family="Helvetica,sans-Serif" font-size="10.00"> source</text>
</a>
</g>
</g>
<!-- Node1&#45;&gt;Node3 -->
<g id="edge2" class="edge">
<title>Node1&#45;&gt;Node3</title>
<path fill="none" stroke="black" d="M160.62,-75.18C179.42,-64.93 204.76,-51.58 227.75,-41 234.12,-38.07 240.94,-35.14 247.64,-32.37"/>
<polygon fill="black" stroke="black" points="159.04,-72.05 151.96,-79.93 162.41,-78.18 159.04,-72.05"/>
</g>
</g>
</svg>
