<?xml version="1.0" encoding="UTF-8" standalone="no"?>
<!DOCTYPE svg PUBLIC "-//W3C//DTD SVG 1.1//EN"
 "http://www.w3.org/Graphics/SVG/1.1/DTD/svg11.dtd">
<!-- Generated by graphviz version 9.0.0 (20230911.1827)
 -->
<!-- Title: Floating Point Unit (FPU) Pages: 1 -->
<svg width="388pt" height="40pt"
 viewBox="0.00 0.00 388.25 40.00" xmlns="http://www.w3.org/2000/svg" xmlns:xlink="http://www.w3.org/1999/xlink">
<g id="graph0" class="graph" transform="scale(1 1) rotate(0) translate(4 36)">
<title>Floating Point Unit (FPU)</title>
<!-- Node3 -->
<g id="Node000003" class="node">
<title>Node3</title>
<g id="a_Node000003"><a xlink:href="group___c_m_s_i_s___core_debug.html" target="_top" xlink:title="Type definitions for the Core Debug Registers.">
<polygon fill="white" stroke="#666666" points="380.25,-32 269,-32 269,0 380.25,0 380.25,-32"/>
<text text-anchor="start" x="277" y="-18.5" font-family="Helvetica,sans-Serif" font-size="10.00">Core Debug Registers</text>
<text text-anchor="middle" x="324.62" y="-6.5" font-family="Helvetica,sans-Serif" font-size="10.00"> (CoreDebug)</text>
</a>
</g>
</g>
<!-- Node1 -->
<g id="Node000001" class="node">
<title>Node1</title>
<g id="a_Node000001"><a xlink:title="Type definitions for the Floating Point Unit (FPU)">
<polygon fill="#999999" stroke="#666666" points="233,-32 136.75,-32 136.75,0 233,0 233,-32"/>
<text text-anchor="start" x="144.75" y="-18.5" font-family="Helvetica,sans-Serif" font-size="10.00">Floating Point Unit</text>
<text text-anchor="middle" x="184.88" y="-6.5" font-family="Helvetica,sans-Serif" font-size="10.00"> (FPU)</text>
</a>
</g>
</g>
<!-- Node1&#45;&gt;Node3 -->
<g id="edge2" class="edge">
<title>Node1&#45;&gt;Node3</title>
<path fill="none" stroke="black" d="M244.7,-16C252.61,-16 260.7,-16 268.55,-16"/>
<polygon fill="black" stroke="black" points="244.79,-12.5 234.79,-16 244.79,-19.5 244.79,-12.5"/>
</g>
<!-- Node2 -->
<g id="Node000002" class="node">
<title>Node2</title>
<g id="a_Node000002"><a xlink:href="group___c_m_s_i_s___t_p_i.html" target="_top" xlink:title="Type definitions for the Trace Port Interface (TPI)">
<polygon fill="white" stroke="#666666" points="100.75,-32 0,-32 0,0 100.75,0 100.75,-32"/>
<text text-anchor="start" x="8" y="-18.5" font-family="Helvetica,sans-Serif" font-size="10.00">Trace Port Interface</text>
<text text-anchor="middle" x="50.38" y="-6.5" font-family="Helvetica,sans-Serif" font-size="10.00"> (TPI)</text>
</a>
</g>
</g>
<!-- Node2&#45;&gt;Node1 -->
<g id="edge1" class="edge">
<title>Node2&#45;&gt;Node1</title>
<path fill="none" stroke="black" d="M112.41,-16C120.5,-16 128.7,-16 136.51,-16"/>
<polygon fill="black" stroke="black" points="112.6,-12.5 102.6,-16 112.6,-19.5 112.6,-12.5"/>
</g>
</g>
</svg>
