<?xml version="1.0" encoding="UTF-8" standalone="no"?>
<!DOCTYPE svg PUBLIC "-//W3C//DTD SVG 1.1//EN"
 "http://www.w3.org/Graphics/SVG/1.1/DTD/svg11.dtd">
<!-- Generated by graphviz version 9.0.0 (20230911.1827)
 -->
<!-- Title: BFTM Pages: 1 -->
<svg width="368pt" height="104pt"
 viewBox="0.00 0.00 368.00 104.00" xmlns="http://www.w3.org/2000/svg" xmlns:xlink="http://www.w3.org/1999/xlink">
<g id="graph0" class="graph" transform="scale(1 1) rotate(0) translate(4 100)">
<title>BFTM</title>
<!-- Node1 -->
<g id="Node000001" class="node">
<title>Node1</title>
<g id="a_Node000001"><a xlink:title="BFTM driver modules.">
<polygon fill="#999999" stroke="#666666" points="195.5,-58 153.25,-58 153.25,-38 195.5,-38 195.5,-58"/>
<text text-anchor="middle" x="174.38" y="-44.5" font-family="Helvetica,sans-Serif" font-size="10.00">BFTM</text>
</a>
</g>
</g>
<!-- Node4 -->
<g id="Node000004" class="node">
<title>Node4</title>
<g id="a_Node000004"><a xlink:href="group___b_f_t_m___exported___constants.html" target="_top" xlink:title=" ">
<polygon fill="white" stroke="#666666" points="360,-96 231.5,-96 231.5,-76 360,-76 360,-96"/>
<text text-anchor="middle" x="295.75" y="-82.5" font-family="Helvetica,sans-Serif" font-size="10.00">BFTM exported constants</text>
</a>
</g>
</g>
<!-- Node1&#45;&gt;Node4 -->
<g id="edge3" class="edge">
<title>Node1&#45;&gt;Node4</title>
<path fill="none" stroke="black" d="M206.71,-58.82C214.77,-61.55 223.44,-64.43 231.5,-67 240.46,-69.86 250.16,-72.84 259.22,-75.56"/>
<polygon fill="black" stroke="black" points="207.87,-55.52 197.28,-55.61 205.61,-62.15 207.87,-55.52"/>
</g>
<!-- Node5 -->
<g id="Node000005" class="node">
<title>Node5</title>
<g id="a_Node000005"><a xlink:href="group___b_f_t_m___exported___functions.html" target="_top" xlink:title=" ">
<polygon fill="white" stroke="#666666" points="358.12,-58 233.38,-58 233.38,-38 358.12,-38 358.12,-58"/>
<text text-anchor="middle" x="295.75" y="-44.5" font-family="Helvetica,sans-Serif" font-size="10.00">BFTM exported functions</text>
</a>
</g>
</g>
<!-- Node1&#45;&gt;Node5 -->
<g id="edge4" class="edge">
<title>Node1&#45;&gt;Node5</title>
<path fill="none" stroke="black" d="M207.24,-48C215.21,-48 224.03,-48 232.92,-48"/>
<polygon fill="black" stroke="black" points="207.41,-44.5 197.41,-48 207.41,-51.5 207.41,-44.5"/>
</g>
<!-- Node3 -->
<g id="Node000003" class="node">
<title>Node3</title>
<g id="a_Node000003"><a xlink:href="group___b_f_t_m___exported___types.html" target="_top" xlink:title=" ">
<polygon fill="white" stroke="#666666" points="350.62,-20 240.88,-20 240.88,0 350.62,0 350.62,-20"/>
<text text-anchor="middle" x="295.75" y="-6.5" font-family="Helvetica,sans-Serif" font-size="10.00">BFTM exported types</text>
</a>
</g>
</g>
<!-- Node1&#45;&gt;Node3 -->
<g id="edge2" class="edge">
<title>Node1&#45;&gt;Node3</title>
<path fill="none" stroke="black" d="M206.71,-37.18C214.77,-34.45 223.44,-31.57 231.5,-29 240.46,-26.14 250.16,-23.16 259.22,-20.44"/>
<polygon fill="black" stroke="black" points="205.61,-33.85 197.28,-40.39 207.87,-40.48 205.61,-33.85"/>
</g>
<!-- Node2 -->
<g id="Node000002" class="node">
<title>Node2</title>
<g id="a_Node000002"><a xlink:href="group___h_t32_f5xxxx___peripheral___driver.html" target="_top" xlink:title=" ">
<polygon fill="white" stroke="#666666" points="117.25,-64 0,-64 0,-32 117.25,-32 117.25,-64"/>
<text text-anchor="start" x="8" y="-50.5" font-family="Helvetica,sans-Serif" font-size="10.00">HT32F5xxxx Peripheral</text>
<text text-anchor="middle" x="58.62" y="-38.5" font-family="Helvetica,sans-Serif" font-size="10.00"> Driver</text>
</a>
</g>
</g>
<!-- Node2&#45;&gt;Node1 -->
<g id="edge1" class="edge">
<title>Node2&#45;&gt;Node1</title>
<path fill="none" stroke="black" d="M128.76,-48C137.52,-48 145.88,-48 152.94,-48"/>
<polygon fill="black" stroke="black" points="129.01,-44.5 119.01,-48 129.01,-51.5 129.01,-44.5"/>
</g>
</g>
</svg>
