<?xml version="1.0" encoding="UTF-8" standalone="no"?>
<!DOCTYPE svg PUBLIC "-//W3C//DTD SVG 1.1//EN"
 "http://www.w3.org/Graphics/SVG/1.1/DTD/svg11.dtd">
<!-- Generated by graphviz version 9.0.0 (20230911.1827)
 -->
<!-- Title: HT32 Peripheral Examples Pages: 1 -->
<svg width="265pt" height="1510pt"
 viewBox="0.00 0.00 265.00 1510.00" xmlns="http://www.w3.org/2000/svg" xmlns:xlink="http://www.w3.org/1999/xlink">
<g id="graph0" class="graph" transform="scale(1 1) rotate(0) translate(4 1506)">
<title>HT32 Peripheral Examples</title>
<!-- Node3 -->
<g id="Node000003" class="node">
<title>Node3</title>
<g id="a_Node000003"><a xlink:href="group___a_d_c__24bit___examples.html" target="_top" xlink:title=" ">
<polygon fill="white" stroke="#666666" points="243.5,-1502 181,-1502 181,-1482 243.5,-1482 243.5,-1502"/>
<text text-anchor="middle" x="212.25" y="-1488.5" font-family="Helvetica,sans-Serif" font-size="10.00">ADC_24bit</text>
</a>
</g>
</g>
<!-- Node2 -->
<g id="Node000002" class="node">
<title>Node2</title>
<g id="a_Node000002"><a xlink:href="group___a_d_c___examples.html" target="_top" xlink:title=" ">
<polygon fill="white" stroke="#666666" points="230.38,-1464 194.12,-1464 194.12,-1444 230.38,-1444 230.38,-1464"/>
<text text-anchor="middle" x="212.25" y="-1450.5" font-family="Helvetica,sans-Serif" font-size="10.00">ADC</text>
</a>
</g>
</g>
<!-- Node5 -->
<g id="Node000005" class="node">
<title>Node5</title>
<g id="a_Node000005"><a xlink:href="group___a_e_s___examples.html" target="_top" xlink:title=" ">
<polygon fill="white" stroke="#666666" points="230.38,-1426 194.12,-1426 194.12,-1406 230.38,-1406 230.38,-1426"/>
<text text-anchor="middle" x="212.25" y="-1412.5" font-family="Helvetica,sans-Serif" font-size="10.00">AES</text>
</a>
</g>
</g>
<!-- Node6 -->
<g id="Node000006" class="node">
<title>Node6</title>
<g id="a_Node000006"><a xlink:href="group___b_f_t_m___examples.html" target="_top" xlink:title=" ">
<polygon fill="white" stroke="#666666" points="233.38,-1388 191.12,-1388 191.12,-1368 233.38,-1368 233.38,-1388"/>
<text text-anchor="middle" x="212.25" y="-1374.5" font-family="Helvetica,sans-Serif" font-size="10.00">BFTM</text>
</a>
</g>
</g>
<!-- Node7 -->
<g id="Node000007" class="node">
<title>Node7</title>
<g id="a_Node000007"><a xlink:href="group___c_k_c_u___examples.html" target="_top" xlink:title=" ">
<polygon fill="white" stroke="#666666" points="233.75,-1350 190.75,-1350 190.75,-1330 233.75,-1330 233.75,-1350"/>
<text text-anchor="middle" x="212.25" y="-1336.5" font-family="Helvetica,sans-Serif" font-size="10.00">CKCU</text>
</a>
</g>
</g>
<!-- Node8 -->
<g id="Node000008" class="node">
<title>Node8</title>
<g id="a_Node000008"><a xlink:href="group___c_m_p___examples.html" target="_top" xlink:title=" ">
<polygon fill="white" stroke="#666666" points="231.12,-1312 193.38,-1312 193.38,-1292 231.12,-1292 231.12,-1312"/>
<text text-anchor="middle" x="212.25" y="-1298.5" font-family="Helvetica,sans-Serif" font-size="10.00">CMP</text>
</a>
</g>
</g>
<!-- Node9 -->
<g id="Node000009" class="node">
<title>Node9</title>
<g id="a_Node000009"><a xlink:href="group___c_r_c___examples.html" target="_top" xlink:title=" ">
<polygon fill="white" stroke="#666666" points="230.38,-1274 194.12,-1274 194.12,-1254 230.38,-1254 230.38,-1274"/>
<text text-anchor="middle" x="212.25" y="-1260.5" font-family="Helvetica,sans-Serif" font-size="10.00">CRC</text>
</a>
</g>
</g>
<!-- Node11 -->
<g id="Node000011" class="node">
<title>Node11</title>
<g id="a_Node000011"><a xlink:href="group___d_a_c___dual16__example.html" target="_top" xlink:title=" ">
<polygon fill="white" stroke="#666666" points="248,-1236 176.5,-1236 176.5,-1216 248,-1216 248,-1236"/>
<text text-anchor="middle" x="212.25" y="-1222.5" font-family="Helvetica,sans-Serif" font-size="10.00">DAC_Dual16</text>
</a>
</g>
</g>
<!-- Node10 -->
<g id="Node000010" class="node">
<title>Node10</title>
<g id="a_Node000010"><a xlink:href="group___d_a_c__example.html" target="_top" xlink:title=" ">
<polygon fill="white" stroke="#666666" points="230.38,-1198 194.12,-1198 194.12,-1178 230.38,-1178 230.38,-1198"/>
<text text-anchor="middle" x="212.25" y="-1184.5" font-family="Helvetica,sans-Serif" font-size="10.00">DAC</text>
</a>
</g>
</g>
<!-- Node16 -->
<g id="Node000016" class="node">
<title>Node16</title>
<g id="a_Node000016"><a xlink:href="group___d_i_v___examples.html" target="_top" xlink:title=" ">
<polygon fill="white" stroke="#666666" points="228.12,-1160 196.38,-1160 196.38,-1140 228.12,-1140 228.12,-1160"/>
<text text-anchor="middle" x="212.25" y="-1146.5" font-family="Helvetica,sans-Serif" font-size="10.00">DIV</text>
</a>
</g>
</g>
<!-- Node12 -->
<g id="Node000012" class="node">
<title>Node12</title>
<g id="a_Node000012"><a xlink:href="group___e_b_i___examples.html" target="_top" xlink:title=" ">
<polygon fill="white" stroke="#666666" points="228.12,-1122 196.38,-1122 196.38,-1102 228.12,-1102 228.12,-1122"/>
<text text-anchor="middle" x="212.25" y="-1108.5" font-family="Helvetica,sans-Serif" font-size="10.00">EBI</text>
</a>
</g>
</g>
<!-- Node13 -->
<g id="Node000013" class="node">
<title>Node13</title>
<g id="a_Node000013"><a xlink:href="group___e_x_t_i___examples.html" target="_top" xlink:title=" ">
<polygon fill="white" stroke="#666666" points="230,-1084 194.5,-1084 194.5,-1064 230,-1064 230,-1084"/>
<text text-anchor="middle" x="212.25" y="-1070.5" font-family="Helvetica,sans-Serif" font-size="10.00">EXTI</text>
</a>
</g>
</g>
<!-- Node14 -->
<g id="Node000014" class="node">
<title>Node14</title>
<g id="a_Node000014"><a xlink:href="group___f_m_c___examples.html" target="_top" xlink:title=" ">
<polygon fill="white" stroke="#666666" points="230.75,-1046 193.75,-1046 193.75,-1026 230.75,-1026 230.75,-1046"/>
<text text-anchor="middle" x="212.25" y="-1032.5" font-family="Helvetica,sans-Serif" font-size="10.00">FMC</text>
</a>
</g>
</g>
<!-- Node15 -->
<g id="Node000015" class="node">
<title>Node15</title>
<g id="a_Node000015"><a xlink:href="group___g_p_i_o___examples.html" target="_top" xlink:title=" ">
<polygon fill="white" stroke="#666666" points="232.25,-1008 192.25,-1008 192.25,-988 232.25,-988 232.25,-1008"/>
<text text-anchor="middle" x="212.25" y="-994.5" font-family="Helvetica,sans-Serif" font-size="10.00">GPIO</text>
</a>
</g>
</g>
<!-- Node1 -->
<g id="Node000001" class="node">
<title>Node1</title>
<g id="a_Node000001"><a xlink:title=" ">
<polygon fill="#999999" stroke="#666666" points="131.5,-761 0,-761 0,-741 131.5,-741 131.5,-761"/>
<text text-anchor="middle" x="65.75" y="-747.5" font-family="Helvetica,sans-Serif" font-size="10.00">HT32 Peripheral Examples</text>
</a>
</g>
</g>
<!-- Node1&#45;&gt;Node3 -->
<g id="edge2" class="edge">
<title>Node1&#45;&gt;Node3</title>
<path fill="none" stroke="black" d="M66.99,-772.6C68.61,-880.32 80.67,-1358.74 167.5,-1473 170.91,-1477.48 175.59,-1480.93 180.63,-1483.56"/>
<polygon fill="black" stroke="black" points="70.5,-772.82 66.86,-762.87 63.5,-772.91 70.5,-772.82"/>
</g>
<!-- Node1&#45;&gt;Node2 -->
<g id="edge1" class="edge">
<title>Node1&#45;&gt;Node2</title>
<path fill="none" stroke="black" d="M67.18,-772.76C69.67,-877.32 85.08,-1327.4 167.5,-1435 173.84,-1443.28 184.54,-1448.02 193.77,-1450.69"/>
<polygon fill="black" stroke="black" points="70.68,-772.73 66.96,-762.81 63.69,-772.89 70.68,-772.73"/>
</g>
<!-- Node1&#45;&gt;Node5 -->
<g id="edge4" class="edge">
<title>Node1&#45;&gt;Node5</title>
<path fill="none" stroke="black" d="M67.38,-772.5C70.74,-873.01 89.37,-1295.9 167.5,-1397 173.88,-1405.26 184.58,-1409.99 193.8,-1412.66"/>
<polygon fill="black" stroke="black" points="70.89,-772.59 67.07,-762.71 63.89,-772.82 70.89,-772.59"/>
</g>
<!-- Node1&#45;&gt;Node6 -->
<g id="edge5" class="edge">
<title>Node1&#45;&gt;Node6</title>
<path fill="none" stroke="black" d="M67.61,-772.44C71.89,-869.2 93.71,-1264.44 167.5,-1359 173.21,-1366.31 182.29,-1370.86 190.71,-1373.67"/>
<polygon fill="black" stroke="black" points="71.11,-772.41 67.19,-762.56 64.12,-772.7 71.11,-772.41"/>
</g>
<!-- Node1&#45;&gt;Node7 -->
<g id="edge6" class="edge">
<title>Node1&#45;&gt;Node7</title>
<path fill="none" stroke="black" d="M67.88,-772.57C73.15,-865.77 98.09,-1233.03 167.5,-1321 173.14,-1328.15 182.01,-1332.66 190.3,-1335.49"/>
<polygon fill="black" stroke="black" points="71.39,-772.61 67.35,-762.81 64.4,-772.99 71.39,-772.61"/>
</g>
<!-- Node1&#45;&gt;Node8 -->
<g id="edge7" class="edge">
<title>Node1&#45;&gt;Node8</title>
<path fill="none" stroke="black" d="M68.2,-772.83C74.53,-862.5 102.48,-1201.63 167.5,-1283 173.81,-1290.89 184.04,-1295.58 193.02,-1298.32"/>
<polygon fill="black" stroke="black" points="71.7,-772.71 67.52,-762.98 64.71,-773.19 71.7,-772.71"/>
</g>
<!-- Node1&#45;&gt;Node9 -->
<g id="edge8" class="edge">
<title>Node1&#45;&gt;Node9</title>
<path fill="none" stroke="black" d="M68.52,-772.6C75.92,-857.87 106.75,-1170.05 167.5,-1245 174.07,-1253.11 184.77,-1257.83 193.95,-1260.55"/>
<polygon fill="black" stroke="black" points="72.01,-772.31 67.68,-762.64 65.04,-772.9 72.01,-772.31"/>
</g>
<!-- Node1&#45;&gt;Node11 -->
<g id="edge10" class="edge">
<title>Node1&#45;&gt;Node11</title>
<path fill="none" stroke="black" d="M68.89,-772.23C77.37,-852.78 110.97,-1138.4 167.5,-1207 170.34,-1210.45 173.93,-1213.29 177.83,-1215.63"/>
<polygon fill="black" stroke="black" points="72.4,-772.22 67.9,-762.63 65.44,-772.94 72.4,-772.22"/>
</g>
<!-- Node1&#45;&gt;Node10 -->
<g id="edge9" class="edge">
<title>Node1&#45;&gt;Node10</title>
<path fill="none" stroke="black" d="M69.37,-772.41C79.1,-848.82 115.3,-1106.88 167.5,-1169 174.21,-1176.99 184.92,-1181.72 194.05,-1184.46"/>
<polygon fill="black" stroke="black" points="72.9,-772.39 68.18,-762.9 65.95,-773.26 72.9,-772.39"/>
</g>
<!-- Node1&#45;&gt;Node16 -->
<g id="edge15" class="edge">
<title>Node1&#45;&gt;Node16</title>
<path fill="none" stroke="black" d="M66.29,-772.42C66.09,-835.35 73.84,-1022.06 167.5,-1131 174.84,-1139.54 186.73,-1144.37 196.26,-1147.02"/>
<polygon fill="black" stroke="black" points="69.79,-772.8 66.4,-762.76 62.79,-772.72 69.79,-772.8"/>
</g>
<!-- Node1&#45;&gt;Node12 -->
<g id="edge11" class="edge">
<title>Node1&#45;&gt;Node12</title>
<path fill="none" stroke="black" d="M67.06,-772.59C69.05,-831.44 82.34,-996.64 167.5,-1093 174.85,-1101.31 186.49,-1106.13 195.92,-1108.83"/>
<polygon fill="black" stroke="black" points="70.57,-772.85 66.82,-762.94 63.57,-773.03 70.57,-772.85"/>
</g>
<!-- Node1&#45;&gt;Node13 -->
<g id="edge12" class="edge">
<title>Node1&#45;&gt;Node13</title>
<path fill="none" stroke="black" d="M68.02,-772.69C72.33,-827.11 90.75,-971.04 167.5,-1055 174.54,-1062.7 185.25,-1067.42 194.31,-1070.24"/>
<polygon fill="black" stroke="black" points="71.53,-772.65 67.34,-762.92 64.54,-773.14 71.53,-772.65"/>
</g>
<!-- Node1&#45;&gt;Node14 -->
<g id="edge13" class="edge">
<title>Node1&#45;&gt;Node14</title>
<path fill="none" stroke="black" d="M69.22,-772.61C75.96,-822.15 99,-945.16 167.5,-1017 174.47,-1024.31 184.73,-1028.97 193.57,-1031.84"/>
<polygon fill="black" stroke="black" points="72.72,-772.41 68,-762.93 65.78,-773.28 72.72,-772.41"/>
</g>
<!-- Node1&#45;&gt;Node15 -->
<g id="edge14" class="edge">
<title>Node1&#45;&gt;Node15</title>
<path fill="none" stroke="black" d="M70.76,-772.47C80.08,-816.74 107.16,-919.04 167.5,-979 174.2,-985.65 183.6,-990.15 191.98,-993.09"/>
<polygon fill="black" stroke="black" points="74.24,-771.98 68.85,-762.86 67.37,-773.35 74.24,-771.98"/>
</g>
<!-- Node4 -->
<g id="Node000004" class="node">
<title>Node4</title>
<g id="a_Node000004"><a xlink:href="group___i2_c.html" target="_top" xlink:title=" ">
<polygon fill="white" stroke="#666666" points="227.38,-970 197.12,-970 197.12,-950 227.38,-950 227.38,-970"/>
<text text-anchor="middle" x="212.25" y="-956.5" font-family="Helvetica,sans-Serif" font-size="10.00">I2C</text>
</a>
</g>
</g>
<!-- Node1&#45;&gt;Node4 -->
<g id="edge3" class="edge">
<title>Node1&#45;&gt;Node4</title>
<path fill="none" stroke="black" d="M72.76,-771.98C84.74,-810.39 115.07,-892.5 167.5,-941 175.77,-948.65 187.6,-953.53 196.87,-956.43"/>
<polygon fill="black" stroke="black" points="76.17,-771.17 69.94,-762.6 69.46,-773.18 76.17,-771.17"/>
</g>
<!-- Node17 -->
<g id="Node000017" class="node">
<title>Node17</title>
<g id="a_Node000017"><a xlink:href="group___i2_c___examples.html" target="_top" xlink:title=" ">
<polygon fill="white" stroke="#666666" points="227.38,-932 197.12,-932 197.12,-912 227.38,-912 227.38,-932"/>
<text text-anchor="middle" x="212.25" y="-918.5" font-family="Helvetica,sans-Serif" font-size="10.00">I2C</text>
</a>
</g>
</g>
<!-- Node1&#45;&gt;Node17 -->
<g id="edge16" class="edge">
<title>Node1&#45;&gt;Node17</title>
<path fill="none" stroke="black" d="M75.71,-771.71C90.53,-803.79 122.98,-865.69 167.5,-903 176,-910.13 187.59,-915 196.71,-918.02"/>
<polygon fill="black" stroke="black" points="78.96,-770.41 71.68,-762.72 72.58,-773.27 78.96,-770.41"/>
</g>
<!-- Node18 -->
<g id="Node000018" class="node">
<title>Node18</title>
<g id="a_Node000018"><a xlink:href="group___i2_s___examples.html" target="_top" xlink:title=" ">
<polygon fill="white" stroke="#666666" points="227.38,-894 197.12,-894 197.12,-874 227.38,-874 227.38,-894"/>
<text text-anchor="middle" x="212.25" y="-880.5" font-family="Helvetica,sans-Serif" font-size="10.00">I2S</text>
</a>
</g>
</g>
<!-- Node1&#45;&gt;Node18 -->
<g id="edge17" class="edge">
<title>Node1&#45;&gt;Node18</title>
<path fill="none" stroke="black" d="M79.92,-770.6C97.42,-795.4 130.48,-838.1 167.5,-865 176.48,-871.52 188.04,-876.42 197.03,-879.61"/>
<polygon fill="black" stroke="black" points="82.83,-768.65 74.27,-762.41 77.07,-772.63 82.83,-768.65"/>
</g>
<!-- Node19 -->
<g id="Node000019" class="node">
<title>Node19</title>
<g id="a_Node000019"><a xlink:href="group___l_c_d___examples.html" target="_top" xlink:title=" ">
<polygon fill="white" stroke="#666666" points="229.62,-856 194.88,-856 194.88,-836 229.62,-836 229.62,-856"/>
<text text-anchor="middle" x="212.25" y="-842.5" font-family="Helvetica,sans-Serif" font-size="10.00">LCD</text>
</a>
</g>
</g>
<!-- Node1&#45;&gt;Node19 -->
<g id="edge18" class="edge">
<title>Node1&#45;&gt;Node19</title>
<path fill="none" stroke="black" d="M87.19,-768.72C106.86,-785.2 137.9,-809.74 167.5,-827 176.08,-832.01 186.23,-836.49 194.59,-839.85"/>
<polygon fill="black" stroke="black" points="89.55,-766.13 79.66,-762.32 85.02,-771.46 89.55,-766.13"/>
</g>
<!-- Node20 -->
<g id="Node000020" class="node">
<title>Node20</title>
<g id="a_Node000020"><a xlink:href="group___l_e_d_c___examples.html" target="_top" xlink:title=" ">
<polygon fill="white" stroke="#666666" points="233,-818 191.5,-818 191.5,-798 233,-798 233,-818"/>
<text text-anchor="middle" x="212.25" y="-804.5" font-family="Helvetica,sans-Serif" font-size="10.00">SLEC</text>
</a>
</g>
</g>
<!-- Node1&#45;&gt;Node20 -->
<g id="edge19" class="edge">
<title>Node1&#45;&gt;Node20</title>
<path fill="none" stroke="black" d="M103.82,-765.62C131.74,-776.63 168.92,-791.3 191.41,-800.18"/>
<polygon fill="black" stroke="black" points="105.25,-762.42 94.66,-762.01 102.68,-768.94 105.25,-762.42"/>
</g>
<!-- Node21 -->
<g id="Node000021" class="node">
<title>Node21</title>
<g id="a_Node000021"><a xlink:href="group___m_c_t_m___examples.html" target="_top" xlink:title=" ">
<polygon fill="white" stroke="#666666" points="234.5,-780 190,-780 190,-760 234.5,-760 234.5,-780"/>
<text text-anchor="middle" x="212.25" y="-766.5" font-family="Helvetica,sans-Serif" font-size="10.00">MCTM</text>
</a>
</g>
</g>
<!-- Node1&#45;&gt;Node21 -->
<g id="edge20" class="edge">
<title>Node1&#45;&gt;Node21</title>
<path fill="none" stroke="black" d="M143.08,-761.04C160.21,-763.29 177.04,-765.5 189.69,-767.16"/>
<polygon fill="black" stroke="black" points="143.69,-757.59 133.31,-759.75 142.77,-764.53 143.69,-757.59"/>
</g>
<!-- Node22 -->
<g id="Node000022" class="node">
<title>Node22</title>
<g id="a_Node000022"><a xlink:href="group___mono___l_c_d___examples.html" target="_top" xlink:title=" ">
<polygon fill="white" stroke="#666666" points="244.25,-742 180.25,-742 180.25,-722 244.25,-722 244.25,-742"/>
<text text-anchor="middle" x="212.25" y="-728.5" font-family="Helvetica,sans-Serif" font-size="10.00">Mono_LCD</text>
</a>
</g>
</g>
<!-- Node1&#45;&gt;Node22 -->
<g id="edge21" class="edge">
<title>Node1&#45;&gt;Node22</title>
<path fill="none" stroke="black" d="M142.86,-740.99C156.01,-739.26 168.99,-737.56 180.05,-736.1"/>
<polygon fill="black" stroke="black" points="142.77,-737.47 133.31,-742.25 143.69,-744.41 142.77,-737.47"/>
</g>
<!-- Node23 -->
<g id="Node000023" class="node">
<title>Node23</title>
<g id="a_Node000023"><a xlink:href="group___n_v_i_c___examples.html" target="_top" xlink:title=" ">
<polygon fill="white" stroke="#666666" points="231.5,-704 193,-704 193,-684 231.5,-684 231.5,-704"/>
<text text-anchor="middle" x="212.25" y="-690.5" font-family="Helvetica,sans-Serif" font-size="10.00">NVIC</text>
</a>
</g>
</g>
<!-- Node1&#45;&gt;Node23 -->
<g id="edge22" class="edge">
<title>Node1&#45;&gt;Node23</title>
<path fill="none" stroke="black" d="M103.64,-736.45C132.12,-725.22 170.32,-710.14 192.71,-701.31"/>
<polygon fill="black" stroke="black" points="102.68,-733.06 94.66,-739.99 105.25,-739.58 102.68,-733.06"/>
</g>
<!-- Node24 -->
<g id="Node000024" class="node">
<title>Node24</title>
<g id="a_Node000024"><a xlink:href="group___o_p_a___examples.html" target="_top" xlink:title=" ">
<polygon fill="white" stroke="#666666" points="230.75,-666 193.75,-666 193.75,-646 230.75,-646 230.75,-666"/>
<text text-anchor="middle" x="212.25" y="-652.5" font-family="Helvetica,sans-Serif" font-size="10.00">OPA</text>
</a>
</g>
</g>
<!-- Node1&#45;&gt;Node24 -->
<g id="edge23" class="edge">
<title>Node1&#45;&gt;Node24</title>
<path fill="none" stroke="black" d="M87.19,-733.28C106.86,-716.8 137.9,-692.26 167.5,-675 175.65,-670.24 185.22,-665.96 193.33,-662.66"/>
<polygon fill="black" stroke="black" points="85.02,-730.54 79.66,-739.68 89.55,-735.87 85.02,-730.54"/>
</g>
<!-- Node25 -->
<g id="Node000025" class="node">
<title>Node25</title>
<g id="a_Node000025"><a xlink:href="group___p_d_m_a___examples.html" target="_top" xlink:title=" ">
<polygon fill="white" stroke="#666666" points="234.5,-628 190,-628 190,-608 234.5,-608 234.5,-628"/>
<text text-anchor="middle" x="212.25" y="-614.5" font-family="Helvetica,sans-Serif" font-size="10.00">PDMA</text>
</a>
</g>
</g>
<!-- Node1&#45;&gt;Node25 -->
<g id="edge24" class="edge">
<title>Node1&#45;&gt;Node25</title>
<path fill="none" stroke="black" d="M79.92,-731.4C97.42,-706.6 130.48,-663.9 167.5,-637 174.2,-632.13 182.34,-628.17 189.77,-625.14"/>
<polygon fill="black" stroke="black" points="77.07,-729.37 74.27,-739.59 82.83,-733.35 77.07,-729.37"/>
</g>
<!-- Node26 -->
<g id="Node000026" class="node">
<title>Node26</title>
<g id="a_Node000026"><a xlink:href="group___p_w_r_c_u___examples.html" target="_top" xlink:title=" ">
<polygon fill="white" stroke="#666666" points="238.62,-590 185.88,-590 185.88,-570 238.62,-570 238.62,-590"/>
<text text-anchor="middle" x="212.25" y="-576.5" font-family="Helvetica,sans-Serif" font-size="10.00">PWRCU</text>
</a>
</g>
</g>
<!-- Node1&#45;&gt;Node26 -->
<g id="edge25" class="edge">
<title>Node1&#45;&gt;Node26</title>
<path fill="none" stroke="black" d="M75.71,-730.29C90.53,-698.21 122.98,-636.31 167.5,-599 172.83,-594.53 179.37,-590.95 185.76,-588.15"/>
<polygon fill="black" stroke="black" points="72.58,-728.73 71.68,-739.28 78.96,-731.59 72.58,-728.73"/>
</g>
<!-- Node27 -->
<g id="Node000027" class="node">
<title>Node27</title>
<g id="a_Node000027"><a xlink:href="group___q_s_p_i___examples.html" target="_top" xlink:title=" ">
<polygon fill="white" stroke="#666666" points="231.88,-552 192.62,-552 192.62,-532 231.88,-532 231.88,-552"/>
<text text-anchor="middle" x="212.25" y="-538.5" font-family="Helvetica,sans-Serif" font-size="10.00">QSPI</text>
</a>
</g>
</g>
<!-- Node1&#45;&gt;Node27 -->
<g id="edge26" class="edge">
<title>Node1&#45;&gt;Node27</title>
<path fill="none" stroke="black" d="M72.76,-730.02C84.74,-691.61 115.07,-609.5 167.5,-561 174.43,-554.59 183.86,-550.12 192.2,-547.14"/>
<polygon fill="black" stroke="black" points="69.46,-728.82 69.94,-739.4 76.17,-730.83 69.46,-728.82"/>
</g>
<!-- Node28 -->
<g id="Node000028" class="node">
<title>Node28</title>
<g id="a_Node000028"><a xlink:href="group___r_a_n_d___examples.html" target="_top" xlink:title=" ">
<polygon fill="white" stroke="#666666" points="233.75,-514 190.75,-514 190.75,-494 233.75,-494 233.75,-514"/>
<text text-anchor="middle" x="212.25" y="-500.5" font-family="Helvetica,sans-Serif" font-size="10.00">RAND</text>
</a>
</g>
</g>
<!-- Node1&#45;&gt;Node28 -->
<g id="edge27" class="edge">
<title>Node1&#45;&gt;Node28</title>
<path fill="none" stroke="black" d="M70.76,-729.53C80.08,-685.26 107.16,-582.96 167.5,-523 173.84,-516.7 182.62,-512.33 190.65,-509.39"/>
<polygon fill="black" stroke="black" points="67.37,-728.65 68.85,-739.14 74.24,-730.02 67.37,-728.65"/>
</g>
<!-- Node29 -->
<g id="Node000029" class="node">
<title>Node29</title>
<g id="a_Node000029"><a xlink:href="group___r_s_t_c_u___examples.html" target="_top" xlink:title=" ">
<polygon fill="white" stroke="#666666" points="236.38,-476 188.12,-476 188.12,-456 236.38,-456 236.38,-476"/>
<text text-anchor="middle" x="212.25" y="-462.5" font-family="Helvetica,sans-Serif" font-size="10.00">RSTCU</text>
</a>
</g>
</g>
<!-- Node1&#45;&gt;Node29 -->
<g id="edge28" class="edge">
<title>Node1&#45;&gt;Node29</title>
<path fill="none" stroke="black" d="M69.22,-729.39C75.96,-679.85 99,-556.84 167.5,-485 172.99,-479.25 180.51,-475.14 187.77,-472.25"/>
<polygon fill="black" stroke="black" points="65.78,-728.72 68,-739.07 72.72,-729.59 65.78,-728.72"/>
</g>
<!-- Node30 -->
<g id="Node000030" class="node">
<title>Node30</title>
<g id="a_Node000030"><a xlink:href="group___r_t_c___examples.html" target="_top" xlink:title=" ">
<polygon fill="white" stroke="#666666" points="229.62,-438 194.88,-438 194.88,-418 229.62,-418 229.62,-438"/>
<text text-anchor="middle" x="212.25" y="-424.5" font-family="Helvetica,sans-Serif" font-size="10.00">RTC</text>
</a>
</g>
</g>
<!-- Node1&#45;&gt;Node30 -->
<g id="edge29" class="edge">
<title>Node1&#45;&gt;Node30</title>
<path fill="none" stroke="black" d="M68.02,-729.31C72.33,-674.89 90.75,-530.96 167.5,-447 174.65,-439.18 185.59,-434.43 194.74,-431.63"/>
<polygon fill="black" stroke="black" points="64.54,-728.86 67.34,-739.08 71.53,-729.35 64.54,-728.86"/>
</g>
<!-- Node31 -->
<g id="Node000031" class="node">
<title>Node31</title>
<g id="a_Node000031"><a xlink:href="group___s_c_i___examples.html" target="_top" xlink:title=" ">
<polygon fill="white" stroke="#666666" points="228.12,-400 196.38,-400 196.38,-380 228.12,-380 228.12,-400"/>
<text text-anchor="middle" x="212.25" y="-386.5" font-family="Helvetica,sans-Serif" font-size="10.00">SCI</text>
</a>
</g>
</g>
<!-- Node1&#45;&gt;Node31 -->
<g id="edge30" class="edge">
<title>Node1&#45;&gt;Node31</title>
<path fill="none" stroke="black" d="M67.06,-729.41C69.05,-670.56 82.34,-505.36 167.5,-409 174.85,-400.69 186.49,-395.87 195.92,-393.17"/>
<polygon fill="black" stroke="black" points="63.57,-728.97 66.82,-739.06 70.57,-729.15 63.57,-728.97"/>
</g>
<!-- Node32 -->
<g id="Node000032" class="node">
<title>Node32</title>
<g id="a_Node000032"><a xlink:href="group___s_l_e_d___examples.html" target="_top" xlink:title=" ">
<polygon fill="white" stroke="#666666" points="233,-362 191.5,-362 191.5,-342 233,-342 233,-362"/>
<text text-anchor="middle" x="212.25" y="-348.5" font-family="Helvetica,sans-Serif" font-size="10.00">SLED</text>
</a>
</g>
</g>
<!-- Node1&#45;&gt;Node32 -->
<g id="edge31" class="edge">
<title>Node1&#45;&gt;Node32</title>
<path fill="none" stroke="black" d="M66.29,-729.58C66.09,-666.65 73.84,-479.94 167.5,-371 173.55,-363.97 182.68,-359.45 191.03,-356.6"/>
<polygon fill="black" stroke="black" points="62.79,-729.28 66.4,-739.24 69.79,-729.2 62.79,-729.28"/>
</g>
<!-- Node33 -->
<g id="Node000033" class="node">
<title>Node33</title>
<g id="a_Node000033"><a xlink:href="group___s_p_i___examples.html" target="_top" xlink:title=" ">
<polygon fill="white" stroke="#666666" points="228.12,-324 196.38,-324 196.38,-304 228.12,-304 228.12,-324"/>
<text text-anchor="middle" x="212.25" y="-310.5" font-family="Helvetica,sans-Serif" font-size="10.00">SPI</text>
</a>
</g>
</g>
<!-- Node1&#45;&gt;Node33 -->
<g id="edge32" class="edge">
<title>Node1&#45;&gt;Node33</title>
<path fill="none" stroke="black" d="M69.37,-729.59C79.1,-653.18 115.3,-395.12 167.5,-333 174.74,-324.38 186.64,-319.55 196.2,-316.93"/>
<polygon fill="black" stroke="black" points="65.95,-728.74 68.18,-739.1 72.9,-729.61 65.95,-728.74"/>
</g>
<!-- Node34 -->
<g id="Node000034" class="node">
<title>Node34</title>
<g id="a_Node000034"><a xlink:href="group___s_r_a_m___overwrite___examples.html" target="_top" xlink:title=" ">
<polygon fill="white" stroke="#666666" points="257,-286 167.5,-286 167.5,-266 257,-266 257,-286"/>
<text text-anchor="middle" x="212.25" y="-272.5" font-family="Helvetica,sans-Serif" font-size="10.00">SRAM_Overwrite</text>
</a>
</g>
</g>
<!-- Node1&#45;&gt;Node34 -->
<g id="edge33" class="edge">
<title>Node1&#45;&gt;Node34</title>
<path fill="none" stroke="black" d="M68.89,-729.77C77.37,-649.22 110.97,-363.6 167.5,-295 170.34,-291.55 173.93,-288.71 177.83,-286.37"/>
<polygon fill="black" stroke="black" points="65.44,-729.06 67.9,-739.37 72.4,-729.78 65.44,-729.06"/>
</g>
<!-- Node35 -->
<g id="Node000035" class="node">
<title>Node35</title>
<g id="a_Node000035"><a xlink:href="group___s_w_d_i_v___examples.html" target="_top" xlink:title=" ">
<polygon fill="white" stroke="#666666" points="236.38,-248 188.12,-248 188.12,-228 236.38,-228 236.38,-248"/>
<text text-anchor="middle" x="212.25" y="-234.5" font-family="Helvetica,sans-Serif" font-size="10.00">SWDIV</text>
</a>
</g>
</g>
<!-- Node1&#45;&gt;Node35 -->
<g id="edge34" class="edge">
<title>Node1&#45;&gt;Node35</title>
<path fill="none" stroke="black" d="M68.52,-729.4C75.92,-644.13 106.75,-331.95 167.5,-257 172.61,-250.7 180.22,-246.43 187.66,-243.57"/>
<polygon fill="black" stroke="black" points="65.04,-729.1 67.68,-739.36 72.01,-729.69 65.04,-729.1"/>
</g>
<!-- Node36 -->
<g id="Node000036" class="node">
<title>Node36</title>
<g id="a_Node000036"><a xlink:href="group___s_y_s_t_i_c_k___examples.html" target="_top" xlink:title=" ">
<polygon fill="white" stroke="#666666" points="240.88,-210 183.62,-210 183.62,-190 240.88,-190 240.88,-210"/>
<text text-anchor="middle" x="212.25" y="-196.5" font-family="Helvetica,sans-Serif" font-size="10.00">SYSTICK</text>
</a>
</g>
</g>
<!-- Node1&#45;&gt;Node36 -->
<g id="edge35" class="edge">
<title>Node1&#45;&gt;Node36</title>
<path fill="none" stroke="black" d="M68.2,-729.17C74.53,-639.5 102.48,-300.37 167.5,-219 171.64,-213.82 177.46,-210.03 183.51,-207.25"/>
<polygon fill="black" stroke="black" points="64.71,-728.81 67.52,-739.02 71.7,-729.29 64.71,-728.81"/>
</g>
<!-- Node38 -->
<g id="Node000038" class="node">
<title>Node38</title>
<g id="a_Node000038"><a xlink:href="group___t_m___examples.html" target="_top" xlink:title=" ">
<polygon fill="white" stroke="#666666" points="227,-172 197.5,-172 197.5,-152 227,-152 227,-172"/>
<text text-anchor="middle" x="212.25" y="-158.5" font-family="Helvetica,sans-Serif" font-size="10.00">TM</text>
</a>
</g>
</g>
<!-- Node1&#45;&gt;Node38 -->
<g id="edge37" class="edge">
<title>Node1&#45;&gt;Node38</title>
<path fill="none" stroke="black" d="M67.88,-729.43C73.15,-636.23 98.09,-268.97 167.5,-181 174.78,-171.77 187.45,-166.93 197.28,-164.46"/>
<polygon fill="black" stroke="black" points="64.4,-729.01 67.35,-739.19 71.39,-729.39 64.4,-729.01"/>
</g>
<!-- Node37 -->
<g id="Node000037" class="node">
<title>Node37</title>
<g id="a_Node000037"><a xlink:href="group___time___examples.html" target="_top" xlink:title=" ">
<polygon fill="white" stroke="#666666" points="230.75,-134 193.75,-134 193.75,-114 230.75,-114 230.75,-134"/>
<text text-anchor="middle" x="212.25" y="-120.5" font-family="Helvetica,sans-Serif" font-size="10.00">Time</text>
</a>
</g>
</g>
<!-- Node1&#45;&gt;Node37 -->
<g id="edge36" class="edge">
<title>Node1&#45;&gt;Node37</title>
<path fill="none" stroke="black" d="M67.61,-729.56C71.89,-632.8 93.71,-237.56 167.5,-143 173.82,-134.9 184.28,-130.19 193.39,-127.49"/>
<polygon fill="black" stroke="black" points="64.12,-729.3 67.19,-739.44 71.11,-729.59 64.12,-729.3"/>
</g>
<!-- Node39 -->
<g id="Node000039" class="node">
<title>Node39</title>
<g id="a_Node000039"><a xlink:href="group___u_s_a_r_t___examples.html" target="_top" xlink:title=" ">
<polygon fill="white" stroke="#666666" points="236.38,-96 188.12,-96 188.12,-76 236.38,-76 236.38,-96"/>
<text text-anchor="middle" x="212.25" y="-82.5" font-family="Helvetica,sans-Serif" font-size="10.00">USART</text>
</a>
</g>
</g>
<!-- Node1&#45;&gt;Node39 -->
<g id="edge38" class="edge">
<title>Node1&#45;&gt;Node39</title>
<path fill="none" stroke="black" d="M67.38,-729.5C70.74,-628.99 89.37,-206.1 167.5,-105 172.56,-98.45 180.35,-94.12 187.95,-91.27"/>
<polygon fill="black" stroke="black" points="63.89,-729.18 67.07,-739.29 70.89,-729.41 63.89,-729.18"/>
</g>
<!-- Node40 -->
<g id="Node000040" class="node">
<title>Node40</title>
<g id="a_Node000040"><a xlink:href="group___u_s_b_d___examples.html" target="_top" xlink:title=" ">
<polygon fill="white" stroke="#666666" points="233.75,-58 190.75,-58 190.75,-38 233.75,-38 233.75,-58"/>
<text text-anchor="middle" x="212.25" y="-44.5" font-family="Helvetica,sans-Serif" font-size="10.00">USBD</text>
</a>
</g>
</g>
<!-- Node1&#45;&gt;Node40 -->
<g id="edge39" class="edge">
<title>Node1&#45;&gt;Node40</title>
<path fill="none" stroke="black" d="M67.18,-729.24C69.67,-624.68 85.08,-174.6 167.5,-67 173.14,-59.64 182.22,-55.08 190.65,-52.28"/>
<polygon fill="black" stroke="black" points="63.69,-729.11 66.96,-739.19 70.68,-729.27 63.69,-729.11"/>
</g>
<!-- Node41 -->
<g id="Node000041" class="node">
<title>Node41</title>
<g id="a_Node000041"><a xlink:href="group___w_d_t___examples.html" target="_top" xlink:title=" ">
<polygon fill="white" stroke="#666666" points="231.12,-20 193.38,-20 193.38,0 231.12,0 231.12,-20"/>
<text text-anchor="middle" x="212.25" y="-6.5" font-family="Helvetica,sans-Serif" font-size="10.00">WDT</text>
</a>
</g>
</g>
<!-- Node1&#45;&gt;Node41 -->
<g id="edge40" class="edge">
<title>Node1&#45;&gt;Node41</title>
<path fill="none" stroke="black" d="M66.99,-729.4C68.61,-621.68 80.67,-143.26 167.5,-29 173.71,-20.82 184.17,-16.11 193.31,-13.42"/>
<polygon fill="black" stroke="black" points="63.5,-729.09 66.86,-739.13 70.5,-729.18 63.5,-729.09"/>
</g>
</g>
</svg>
