<?xml version="1.0" encoding="UTF-8" standalone="no"?>
<!DOCTYPE svg PUBLIC "-//W3C//DTD SVG 1.1//EN"
 "http://www.w3.org/Graphics/SVG/1.1/DTD/svg11.dtd">
<!-- Generated by graphviz version 9.0.0 (20230911.1827)
 -->
<!-- Title: Power Mode Control Registers Pages: 1 -->
<svg width="464pt" height="52pt"
 viewBox="0.00 0.00 464.00 52.00" xmlns="http://www.w3.org/2000/svg" xmlns:xlink="http://www.w3.org/1999/xlink">
<g id="graph0" class="graph" transform="scale(1 1) rotate(0) translate(4 48)">
<title>Power Mode Control Registers</title>
<!-- Node3 -->
<g id="Node000003" class="node">
<title>Node3</title>
<g id="a_Node000003"><a xlink:href="group___e_w_i_c___type.html" target="_top" xlink:title="Type definitions for the External Wakeup Interrupt Controller Registers (EWIC)">
<polygon fill="white" stroke="#666666" points="456,-38 326.75,-38 326.75,-6 456,-6 456,-38"/>
<text text-anchor="start" x="334.75" y="-24.5" font-family="Helvetica,sans-Serif" font-size="10.00">External Wakeup Interrupt</text>
<text text-anchor="middle" x="391.38" y="-12.5" font-family="Helvetica,sans-Serif" font-size="10.00"> Controller Registers</text>
</a>
</g>
</g>
<!-- Node2 -->
<g id="Node000002" class="node">
<title>Node2</title>
<g id="a_Node000002"><a xlink:href="group___mem_sys_ctl___type.html" target="_top" xlink:title="Type definitions for the Memory System Control Registers (MEMSYSCTL)">
<polygon fill="white" stroke="#666666" points="151,-44 0,-44 0,0 151,0 151,-44"/>
<text text-anchor="start" x="8" y="-30.5" font-family="Helvetica,sans-Serif" font-size="10.00">Memory System Control</text>
<text text-anchor="start" x="8" y="-18.5" font-family="Helvetica,sans-Serif" font-size="10.00"> Registers (IMPLEMENTATION</text>
<text text-anchor="middle" x="75.5" y="-6.5" font-family="Helvetica,sans-Serif" font-size="10.00"> DEFINED)</text>
</a>
</g>
</g>
<!-- Node1 -->
<g id="Node000001" class="node">
<title>Node1</title>
<g id="a_Node000001"><a xlink:title="Type definitions for the Power Mode Control Registers (PWRMODCTL)">
<polygon fill="#999999" stroke="#666666" points="290.75,-38 187,-38 187,-6 290.75,-6 290.75,-38"/>
<text text-anchor="start" x="195" y="-24.5" font-family="Helvetica,sans-Serif" font-size="10.00">Power Mode Control</text>
<text text-anchor="middle" x="238.88" y="-12.5" font-family="Helvetica,sans-Serif" font-size="10.00"> Registers</text>
</a>
</g>
</g>
<!-- Node2&#45;&gt;Node1 -->
<g id="edge1" class="edge">
<title>Node2&#45;&gt;Node1</title>
<path fill="none" stroke="black" d="M162.37,-22C170.67,-22 178.89,-22 186.69,-22"/>
<polygon fill="black" stroke="black" points="162.56,-18.5 152.56,-22 162.56,-25.5 162.56,-18.5"/>
</g>
<!-- Node1&#45;&gt;Node3 -->
<g id="edge2" class="edge">
<title>Node1&#45;&gt;Node3</title>
<path fill="none" stroke="black" d="M302.61,-22C310.49,-22 318.56,-22 326.46,-22"/>
<polygon fill="black" stroke="black" points="302.76,-18.5 292.76,-22 302.76,-25.5 302.76,-18.5"/>
</g>
</g>
</svg>
