<?xml version="1.0" encoding="UTF-8" standalone="no"?>
<!DOCTYPE svg PUBLIC "-//W3C//DTD SVG 1.1//EN"
 "http://www.w3.org/Graphics/SVG/1.1/DTD/svg11.dtd">
<!-- Generated by graphviz version 9.0.0 (20230911.1827)
 -->
<!-- Title: OPA Pages: 1 -->
<svg width="321pt" height="28pt"
 viewBox="0.00 0.00 320.75 28.00" xmlns="http://www.w3.org/2000/svg" xmlns:xlink="http://www.w3.org/1999/xlink">
<g id="graph0" class="graph" transform="scale(1 1) rotate(0) translate(4 24)">
<title>OPA</title>
<!-- Node2 -->
<g id="Node000002" class="node">
<title>Node2</title>
<g id="a_Node000002"><a xlink:href="group___h_t32___series___peripheral___examples.html" target="_top" xlink:title=" ">
<polygon fill="white" stroke="#666666" points="131.5,-20 0,-20 0,0 131.5,0 131.5,-20"/>
<text text-anchor="middle" x="65.75" y="-6.5" font-family="Helvetica,sans-Serif" font-size="10.00">HT32 Peripheral Examples</text>
</a>
</g>
</g>
<!-- Node1 -->
<g id="Node000001" class="node">
<title>Node1</title>
<g id="a_Node000001"><a xlink:title=" ">
<polygon fill="#999999" stroke="#666666" points="204.5,-20 167.5,-20 167.5,0 204.5,0 204.5,-20"/>
<text text-anchor="middle" x="186" y="-6.5" font-family="Helvetica,sans-Serif" font-size="10.00">OPA</text>
</a>
</g>
</g>
<!-- Node2&#45;&gt;Node1 -->
<g id="edge1" class="edge">
<title>Node2&#45;&gt;Node1</title>
<path fill="none" stroke="black" d="M143.25,-10C152.13,-10 160.44,-10 167.27,-10"/>
<polygon fill="black" stroke="black" points="143.27,-6.5 133.27,-10 143.27,-13.5 143.27,-6.5"/>
</g>
<!-- Node3 -->
<g id="Node000003" class="node">
<title>Node3</title>
<g id="a_Node000003"><a xlink:href="group___o_p_a___enable.html" target="_top" xlink:title=" ">
<polygon fill="white" stroke="#666666" points="312.75,-20 240.5,-20 240.5,0 312.75,0 312.75,-20"/>
<text text-anchor="middle" x="276.62" y="-6.5" font-family="Helvetica,sans-Serif" font-size="10.00">OPA_Enable</text>
</a>
</g>
</g>
<!-- Node1&#45;&gt;Node3 -->
<g id="edge2" class="edge">
<title>Node1&#45;&gt;Node3</title>
<path fill="none" stroke="black" d="M216.23,-10C223.88,-10 232.2,-10 240.14,-10"/>
<polygon fill="black" stroke="black" points="216.45,-6.5 206.45,-10 216.45,-13.5 216.45,-6.5"/>
</g>
</g>
</svg>
