<?xml version="1.0" encoding="UTF-8" standalone="no"?>
<!DOCTYPE svg PUBLIC "-//W3C//DTD SVG 1.1//EN"
 "http://www.w3.org/Graphics/SVG/1.1/DTD/svg11.dtd">
<!-- Generated by graphviz version 9.0.0 (20230911.1827)
 -->
<!-- Title: System call functions Pages: 1 -->
<svg width="410pt" height="90pt"
 viewBox="0.00 0.00 410.00 90.00" xmlns="http://www.w3.org/2000/svg" xmlns:xlink="http://www.w3.org/1999/xlink">
<g id="graph0" class="graph" transform="scale(1 1) rotate(0) translate(4 86)">
<title>System call functions</title>
<!-- Node2 -->
<g id="Node000002" class="node">
<title>Node2</title>
<g id="a_Node000002"><a xlink:href="group___h_t32___peripheral___driver.html" target="_top" xlink:title=" ">
<polygon fill="white" stroke="#666666" points="112,-51 0,-51 0,-31 112,-31 112,-51"/>
<text text-anchor="middle" x="56" y="-37.5" font-family="Helvetica,sans-Serif" font-size="10.00">HT32 Peripheral Driver</text>
</a>
</g>
</g>
<!-- Node1 -->
<g id="Node000001" class="node">
<title>Node1</title>
<g id="a_Node000001"><a xlink:title="System call functions for GNU toolchain.">
<polygon fill="#999999" stroke="#666666" points="257.75,-51 148,-51 148,-31 257.75,-31 257.75,-51"/>
<text text-anchor="middle" x="202.88" y="-37.5" font-family="Helvetica,sans-Serif" font-size="10.00">System call functions</text>
</a>
</g>
</g>
<!-- Node2&#45;&gt;Node1 -->
<g id="edge1" class="edge">
<title>Node2&#45;&gt;Node1</title>
<path fill="none" stroke="black" d="M123.56,-41C131.68,-41 139.89,-41 147.8,-41"/>
<polygon fill="black" stroke="black" points="123.7,-37.5 113.7,-41 123.7,-44.5 123.7,-37.5"/>
</g>
<!-- Node4 -->
<g id="Node000004" class="node">
<title>Node4</title>
<g id="a_Node000004"><a xlink:href="group___s_y_s_c_a_l_l_s___exported___functions.html" target="_top" xlink:title=" ">
<polygon fill="white" stroke="#666666" points="402,-82 293.75,-82 293.75,-50 402,-50 402,-82"/>
<text text-anchor="start" x="301.75" y="-68.5" font-family="Helvetica,sans-Serif" font-size="10.00">System call exported</text>
<text text-anchor="middle" x="347.88" y="-56.5" font-family="Helvetica,sans-Serif" font-size="10.00"> functions</text>
</a>
</g>
</g>
<!-- Node1&#45;&gt;Node4 -->
<g id="edge3" class="edge">
<title>Node1&#45;&gt;Node4</title>
<path fill="none" stroke="black" d="M269.06,-52.4C277.31,-53.84 285.66,-55.3 293.68,-56.7"/>
<polygon fill="black" stroke="black" points="269.88,-48.99 259.43,-50.71 268.68,-55.88 269.88,-48.99"/>
</g>
<!-- Node3 -->
<g id="Node000003" class="node">
<title>Node3</title>
<g id="a_Node000003"><a xlink:href="group___s_y_s_c_a_l_l_s___global___variable.html" target="_top" xlink:title=" ">
<polygon fill="white" stroke="#666666" points="396,-32 299.75,-32 299.75,0 396,0 396,-32"/>
<text text-anchor="start" x="307.75" y="-18.5" font-family="Helvetica,sans-Serif" font-size="10.00">System call global</text>
<text text-anchor="middle" x="347.88" y="-6.5" font-family="Helvetica,sans-Serif" font-size="10.00"> variables</text>
</a>
</g>
</g>
<!-- Node1&#45;&gt;Node3 -->
<g id="edge2" class="edge">
<title>Node1&#45;&gt;Node3</title>
<path fill="none" stroke="black" d="M269.25,-29.57C279.38,-27.8 289.67,-26 299.3,-24.32"/>
<polygon fill="black" stroke="black" points="268.68,-26.12 259.43,-31.29 269.88,-33.01 268.68,-26.12"/>
</g>
</g>
</svg>
