<?xml version="1.0" encoding="UTF-8" standalone="no"?>
<!DOCTYPE svg PUBLIC "-//W3C//DTD SVG 1.1//EN"
 "http://www.w3.org/Graphics/SVG/1.1/DTD/svg11.dtd">
<!-- Generated by graphviz version 9.0.0 (20230911.1827)
 -->
<!-- Title: SYSTICK Pages: 1 -->
<svg width="380pt" height="66pt"
 viewBox="0.00 0.00 380.00 66.00" xmlns="http://www.w3.org/2000/svg" xmlns:xlink="http://www.w3.org/1999/xlink">
<g id="graph0" class="graph" transform="scale(1 1) rotate(0) translate(4 62)">
<title>SYSTICK</title>
<!-- Node3 -->
<g id="Node000003" class="node">
<title>Node3</title>
<g id="a_Node000003"><a xlink:href="group___delay_microsecond.html" target="_top" xlink:title=" ">
<polygon fill="white" stroke="#666666" points="364.5,-58 268.25,-58 268.25,-38 364.5,-38 364.5,-58"/>
<text text-anchor="middle" x="316.38" y="-44.5" font-family="Helvetica,sans-Serif" font-size="10.00">DelayMicrosecond</text>
</a>
</g>
</g>
<!-- Node2 -->
<g id="Node000002" class="node">
<title>Node2</title>
<g id="a_Node000002"><a xlink:href="group___h_t32___series___peripheral___examples.html" target="_top" xlink:title=" ">
<polygon fill="white" stroke="#666666" points="131.5,-39 0,-39 0,-19 131.5,-19 131.5,-39"/>
<text text-anchor="middle" x="65.75" y="-25.5" font-family="Helvetica,sans-Serif" font-size="10.00">HT32 Peripheral Examples</text>
</a>
</g>
</g>
<!-- Node1 -->
<g id="Node000001" class="node">
<title>Node1</title>
<g id="a_Node000001"><a xlink:title=" ">
<polygon fill="#999999" stroke="#666666" points="224.75,-39 167.5,-39 167.5,-19 224.75,-19 224.75,-39"/>
<text text-anchor="middle" x="196.12" y="-25.5" font-family="Helvetica,sans-Serif" font-size="10.00">SYSTICK</text>
</a>
</g>
</g>
<!-- Node2&#45;&gt;Node1 -->
<g id="edge1" class="edge">
<title>Node2&#45;&gt;Node1</title>
<path fill="none" stroke="black" d="M143,-29C151.51,-29 159.73,-29 167.02,-29"/>
<polygon fill="black" stroke="black" points="143.2,-25.5 133.2,-29 143.2,-32.5 143.2,-25.5"/>
</g>
<!-- Node4 -->
<g id="Node000004" class="node">
<title>Node4</title>
<g id="a_Node000004"><a xlink:href="group___period___down_counting.html" target="_top" xlink:title=" ">
<polygon fill="white" stroke="#666666" points="372,-20 260.75,-20 260.75,0 372,0 372,-20"/>
<text text-anchor="middle" x="316.38" y="-6.5" font-family="Helvetica,sans-Serif" font-size="10.00">Period_DownCounting</text>
</a>
</g>
</g>
<!-- Node1&#45;&gt;Node3 -->
<g id="edge2" class="edge">
<title>Node1&#45;&gt;Node3</title>
<path fill="none" stroke="black" d="M236.22,-35.28C246.43,-36.92 257.55,-38.71 268.13,-40.41"/>
<polygon fill="black" stroke="black" points="237.07,-31.87 226.64,-33.74 235.96,-38.79 237.07,-31.87"/>
</g>
<!-- Node1&#45;&gt;Node4 -->
<g id="edge3" class="edge">
<title>Node1&#45;&gt;Node4</title>
<path fill="none" stroke="black" d="M236.44,-22.68C244.2,-21.44 252.47,-20.11 260.63,-18.8"/>
<polygon fill="black" stroke="black" points="235.96,-19.21 226.64,-24.26 237.07,-26.13 235.96,-19.21"/>
</g>
</g>
</svg>
