<?xml version="1.0" encoding="UTF-8" standalone="no"?>
<!DOCTYPE svg PUBLIC "-//W3C//DTD SVG 1.1//EN"
 "http://www.w3.org/Graphics/SVG/1.1/DTD/svg11.dtd">
<!-- Generated by graphviz version 9.0.0 (20230911.1827)
 -->
<!-- Title: WDT Pages: 1 -->
<svg width="359pt" height="104pt"
 viewBox="0.00 0.00 359.00 104.00" xmlns="http://www.w3.org/2000/svg" xmlns:xlink="http://www.w3.org/1999/xlink">
<g id="graph0" class="graph" transform="scale(1 1) rotate(0) translate(4 100)">
<title>WDT</title>
<!-- Node2 -->
<g id="Node000002" class="node">
<title>Node2</title>
<g id="a_Node000002"><a xlink:href="group___h_t32_f5xxxx___peripheral___driver.html" target="_top" xlink:title=" ">
<polygon fill="white" stroke="#666666" points="117.25,-64 0,-64 0,-32 117.25,-32 117.25,-64"/>
<text text-anchor="start" x="8" y="-50.5" font-family="Helvetica,sans-Serif" font-size="10.00">HT32F5xxxx Peripheral</text>
<text text-anchor="middle" x="58.62" y="-38.5" font-family="Helvetica,sans-Serif" font-size="10.00"> Driver</text>
</a>
</g>
</g>
<!-- Node1 -->
<g id="Node000001" class="node">
<title>Node1</title>
<g id="a_Node000001"><a xlink:title="WDT driver modules.">
<polygon fill="#999999" stroke="#666666" points="191,-58 153.25,-58 153.25,-38 191,-38 191,-58"/>
<text text-anchor="middle" x="172.12" y="-44.5" font-family="Helvetica,sans-Serif" font-size="10.00">WDT</text>
</a>
</g>
</g>
<!-- Node2&#45;&gt;Node1 -->
<g id="edge1" class="edge">
<title>Node2&#45;&gt;Node1</title>
<path fill="none" stroke="black" d="M129.04,-48C137.88,-48 146.23,-48 153.13,-48"/>
<polygon fill="black" stroke="black" points="129.17,-44.5 119.17,-48 129.17,-51.5 129.17,-44.5"/>
</g>
<!-- Node3 -->
<g id="Node000003" class="node">
<title>Node3</title>
<g id="a_Node000003"><a xlink:href="group___w_d_t___exported___constants.html" target="_top" xlink:title=" ">
<polygon fill="white" stroke="#666666" points="351,-96 227,-96 227,-76 351,-76 351,-96"/>
<text text-anchor="middle" x="289" y="-82.5" font-family="Helvetica,sans-Serif" font-size="10.00">WDT exported constants</text>
</a>
</g>
</g>
<!-- Node1&#45;&gt;Node3 -->
<g id="edge2" class="edge">
<title>Node1&#45;&gt;Node3</title>
<path fill="none" stroke="black" d="M201.86,-58.35C209.97,-61.22 218.81,-64.28 227,-67 235.63,-69.87 244.99,-72.84 253.73,-75.57"/>
<polygon fill="black" stroke="black" points="203.05,-55.06 192.45,-55.01 200.7,-61.66 203.05,-55.06"/>
</g>
<!-- Node4 -->
<g id="Node000004" class="node">
<title>Node4</title>
<g id="a_Node000004"><a xlink:href="group___w_d_t___exported___functions.html" target="_top" xlink:title=" ">
<polygon fill="white" stroke="#666666" points="349.12,-58 228.88,-58 228.88,-38 349.12,-38 349.12,-58"/>
<text text-anchor="middle" x="289" y="-44.5" font-family="Helvetica,sans-Serif" font-size="10.00">WDT exported functions</text>
</a>
</g>
</g>
<!-- Node1&#45;&gt;Node4 -->
<g id="edge3" class="edge">
<title>Node1&#45;&gt;Node4</title>
<path fill="none" stroke="black" d="M202.62,-48C210.62,-48 219.58,-48 228.61,-48"/>
<polygon fill="black" stroke="black" points="202.84,-44.5 192.84,-48 202.84,-51.5 202.84,-44.5"/>
</g>
<!-- Node5 -->
<g id="Node000005" class="node">
<title>Node5</title>
<g id="a_Node000005"><a xlink:href="group___w_d_t___private___define.html" target="_top" xlink:title=" ">
<polygon fill="white" stroke="#666666" points="346.5,-20 231.5,-20 231.5,0 346.5,0 346.5,-20"/>
<text text-anchor="middle" x="289" y="-6.5" font-family="Helvetica,sans-Serif" font-size="10.00">WDT private definitions</text>
</a>
</g>
</g>
<!-- Node1&#45;&gt;Node5 -->
<g id="edge4" class="edge">
<title>Node1&#45;&gt;Node5</title>
<path fill="none" stroke="black" d="M201.86,-37.65C209.97,-34.78 218.81,-31.72 227,-29 235.63,-26.13 244.99,-23.16 253.73,-20.43"/>
<polygon fill="black" stroke="black" points="200.7,-34.34 192.45,-40.99 203.05,-40.94 200.7,-34.34"/>
</g>
</g>
</svg>
