<?xml version="1.0" encoding="UTF-8" standalone="no"?>
<!DOCTYPE svg PUBLIC "-//W3C//DTD SVG 1.1//EN"
 "http://www.w3.org/Graphics/SVG/1.1/DTD/svg11.dtd">
<!-- Generated by graphviz version 9.0.0 (20230911.1827)
 -->
<!-- Title: HT32F0008_SK Pages: 1 -->
<svg width="345pt" height="90pt"
 viewBox="0.00 0.00 344.75 90.00" xmlns="http://www.w3.org/2000/svg" xmlns:xlink="http://www.w3.org/1999/xlink">
<g id="graph0" class="graph" transform="scale(1 1) rotate(0) translate(4 86)">
<title>HT32F0008_SK</title>
<!-- Node1 -->
<g id="Node000001" class="node">
<title>Node1</title>
<g id="a_Node000001"><a xlink:title=" ">
<polygon fill="#999999" stroke="#666666" points="189.5,-51 105.25,-51 105.25,-31 189.5,-31 189.5,-51"/>
<text text-anchor="middle" x="147.38" y="-37.5" font-family="Helvetica,sans-Serif" font-size="10.00">HT32F0008_SK</text>
</a>
</g>
</g>
<!-- Node3 -->
<g id="Node000003" class="node">
<title>Node3</title>
<g id="a_Node000003"><a xlink:href="group___h_t32_f0008___s_k___exported___constants.html" target="_top" xlink:title=" ">
<polygon fill="white" stroke="#666666" points="336.75,-82 225.5,-82 225.5,-50 336.75,-50 336.75,-82"/>
<text text-anchor="start" x="233.5" y="-68.5" font-family="Helvetica,sans-Serif" font-size="10.00">HT32F0008 Starter kit</text>
<text text-anchor="middle" x="281.12" y="-56.5" font-family="Helvetica,sans-Serif" font-size="10.00"> exported constants</text>
</a>
</g>
</g>
<!-- Node1&#45;&gt;Node3 -->
<g id="edge2" class="edge">
<title>Node1&#45;&gt;Node3</title>
<path fill="none" stroke="black" d="M200.87,-50.96C208.94,-52.49 217.29,-54.08 225.41,-55.62"/>
<polygon fill="black" stroke="black" points="201.66,-47.55 191.19,-49.12 200.36,-54.43 201.66,-47.55"/>
</g>
<!-- Node4 -->
<g id="Node000004" class="node">
<title>Node4</title>
<g id="a_Node000004"><a xlink:href="group___h_t32_f0008___s_k___exported___functions.html" target="_top" xlink:title=" ">
<polygon fill="white" stroke="#666666" points="336.75,-32 225.5,-32 225.5,0 336.75,0 336.75,-32"/>
<text text-anchor="start" x="233.5" y="-18.5" font-family="Helvetica,sans-Serif" font-size="10.00">HT32F0008 Starter kit</text>
<text text-anchor="middle" x="281.12" y="-6.5" font-family="Helvetica,sans-Serif" font-size="10.00"> exported functions</text>
</a>
</g>
</g>
<!-- Node1&#45;&gt;Node4 -->
<g id="edge3" class="edge">
<title>Node1&#45;&gt;Node4</title>
<path fill="none" stroke="black" d="M200.87,-31.04C208.94,-29.51 217.29,-27.92 225.41,-26.38"/>
<polygon fill="black" stroke="black" points="200.36,-27.57 191.19,-32.88 201.66,-34.45 200.36,-27.57"/>
</g>
<!-- Node2 -->
<g id="Node000002" class="node">
<title>Node2</title>
<g id="a_Node000002"><a xlink:href="group___h_t32___board.html" target="_top" xlink:title=" ">
<polygon fill="white" stroke="#666666" points="69.25,-51 0,-51 0,-31 69.25,-31 69.25,-51"/>
<text text-anchor="middle" x="34.62" y="-37.5" font-family="Helvetica,sans-Serif" font-size="10.00">HT32_Board</text>
</a>
</g>
</g>
<!-- Node2&#45;&gt;Node1 -->
<g id="edge1" class="edge">
<title>Node2&#45;&gt;Node1</title>
<path fill="none" stroke="black" d="M80.85,-41C88.82,-41 97.08,-41 104.94,-41"/>
<polygon fill="black" stroke="black" points="80.97,-37.5 70.97,-41 80.97,-44.5 80.97,-37.5"/>
</g>
</g>
</svg>
