<?xml version="1.0" encoding="UTF-8" standalone="no"?>
<!DOCTYPE svg PUBLIC "-//W3C//DTD SVG 1.1//EN"
 "http://www.w3.org/Graphics/SVG/1.1/DTD/svg11.dtd">
<!-- Generated by graphviz version 9.0.0 (20230911.1827)
 -->
<!-- Title: FLASH Pages: 1 -->
<svg width="379pt" height="180pt"
 viewBox="0.00 0.00 378.50 180.00" xmlns="http://www.w3.org/2000/svg" xmlns:xlink="http://www.w3.org/1999/xlink">
<g id="graph0" class="graph" transform="scale(1 1) rotate(0) translate(4 176)">
<title>FLASH</title>
<!-- Node1 -->
<g id="Node000001" class="node">
<title>Node1</title>
<g id="a_Node000001"><a xlink:title="FLASH driver modules.">
<polygon fill="#999999" stroke="#666666" points="200.75,-96 153.25,-96 153.25,-76 200.75,-76 200.75,-96"/>
<text text-anchor="middle" x="177" y="-82.5" font-family="Helvetica,sans-Serif" font-size="10.00">FLASH</text>
</a>
</g>
</g>
<!-- Node4 -->
<g id="Node000004" class="node">
<title>Node4</title>
<g id="a_Node000004"><a xlink:href="group___f_l_a_s_h___exported___constants.html" target="_top" xlink:title=" ">
<polygon fill="white" stroke="#666666" points="370.5,-172 236.75,-172 236.75,-152 370.5,-152 370.5,-172"/>
<text text-anchor="middle" x="303.62" y="-158.5" font-family="Helvetica,sans-Serif" font-size="10.00">FLASH exported constants</text>
</a>
</g>
</g>
<!-- Node1&#45;&gt;Node4 -->
<g id="edge3" class="edge">
<title>Node1&#45;&gt;Node4</title>
<path fill="none" stroke="black" d="M193.35,-105.15C204.25,-117.58 219.9,-133.23 236.75,-143 242.62,-146.4 249.14,-149.23 255.73,-151.58"/>
<polygon fill="black" stroke="black" points="196.09,-102.97 186.97,-97.58 190.74,-107.48 196.09,-102.97"/>
</g>
<!-- Node5 -->
<g id="Node000005" class="node">
<title>Node5</title>
<g id="a_Node000005"><a xlink:href="group___f_l_a_s_h___exported___functions.html" target="_top" xlink:title=" ">
<polygon fill="white" stroke="#666666" points="368.62,-134 238.62,-134 238.62,-114 368.62,-114 368.62,-134"/>
<text text-anchor="middle" x="303.62" y="-120.5" font-family="Helvetica,sans-Serif" font-size="10.00">FLASH exported functions</text>
</a>
</g>
</g>
<!-- Node1&#45;&gt;Node5 -->
<g id="edge4" class="edge">
<title>Node1&#45;&gt;Node5</title>
<path fill="none" stroke="black" d="M211.79,-97.13C219.94,-99.76 228.65,-102.52 236.75,-105 246.08,-107.85 256.2,-110.83 265.63,-113.56"/>
<polygon fill="black" stroke="black" points="213.14,-93.89 202.55,-94.13 210.97,-100.55 213.14,-93.89"/>
</g>
<!-- Node3 -->
<g id="Node000003" class="node">
<title>Node3</title>
<g id="a_Node000003"><a xlink:href="group___f_l_a_s_h___exported___types.html" target="_top" xlink:title=" ">
<polygon fill="white" stroke="#666666" points="361.12,-96 246.12,-96 246.12,-76 361.12,-76 361.12,-96"/>
<text text-anchor="middle" x="303.62" y="-82.5" font-family="Helvetica,sans-Serif" font-size="10.00">FLASH exported types</text>
</a>
</g>
</g>
<!-- Node1&#45;&gt;Node3 -->
<g id="edge2" class="edge">
<title>Node1&#45;&gt;Node3</title>
<path fill="none" stroke="black" d="M212.54,-86C222.82,-86 234.37,-86 245.68,-86"/>
<polygon fill="black" stroke="black" points="212.66,-82.5 202.66,-86 212.66,-89.5 212.66,-82.5"/>
</g>
<!-- Node6 -->
<g id="Node000006" class="node">
<title>Node6</title>
<g id="a_Node000006"><a xlink:href="group___f_l_a_s_h___private___define.html" target="_top" xlink:title=" ">
<polygon fill="white" stroke="#666666" points="366,-58 241.25,-58 241.25,-38 366,-38 366,-58"/>
<text text-anchor="middle" x="303.62" y="-44.5" font-family="Helvetica,sans-Serif" font-size="10.00">FLASH private definitions</text>
</a>
</g>
</g>
<!-- Node1&#45;&gt;Node6 -->
<g id="edge5" class="edge">
<title>Node1&#45;&gt;Node6</title>
<path fill="none" stroke="black" d="M211.79,-74.87C219.94,-72.24 228.65,-69.48 236.75,-67 246.08,-64.15 256.2,-61.17 265.63,-58.44"/>
<polygon fill="black" stroke="black" points="210.97,-71.45 202.55,-77.87 213.14,-78.11 210.97,-71.45"/>
</g>
<!-- Node7 -->
<g id="Node000007" class="node">
<title>Node7</title>
<g id="a_Node000007"><a xlink:href="group___f_l_a_s_h___private___macro.html" target="_top" xlink:title=" ">
<polygon fill="white" stroke="#666666" points="360.38,-20 246.88,-20 246.88,0 360.38,0 360.38,-20"/>
<text text-anchor="middle" x="303.62" y="-6.5" font-family="Helvetica,sans-Serif" font-size="10.00">FLASH private macros</text>
</a>
</g>
</g>
<!-- Node1&#45;&gt;Node7 -->
<g id="edge6" class="edge">
<title>Node1&#45;&gt;Node7</title>
<path fill="none" stroke="black" d="M193.35,-66.85C204.25,-54.42 219.9,-38.77 236.75,-29 242.62,-25.6 249.14,-22.77 255.73,-20.42"/>
<polygon fill="black" stroke="black" points="190.74,-64.52 186.97,-74.42 196.09,-69.03 190.74,-64.52"/>
</g>
<!-- Node2 -->
<g id="Node000002" class="node">
<title>Node2</title>
<g id="a_Node000002"><a xlink:href="group___h_t32_f5xxxx___peripheral___driver.html" target="_top" xlink:title=" ">
<polygon fill="white" stroke="#666666" points="117.25,-102 0,-102 0,-70 117.25,-70 117.25,-102"/>
<text text-anchor="start" x="8" y="-88.5" font-family="Helvetica,sans-Serif" font-size="10.00">HT32F5xxxx Peripheral</text>
<text text-anchor="middle" x="58.62" y="-76.5" font-family="Helvetica,sans-Serif" font-size="10.00"> Driver</text>
</a>
</g>
</g>
<!-- Node2&#45;&gt;Node1 -->
<g id="edge1" class="edge">
<title>Node2&#45;&gt;Node1</title>
<path fill="none" stroke="black" d="M128.88,-86C137.47,-86 145.72,-86 152.85,-86"/>
<polygon fill="black" stroke="black" points="128.99,-82.5 118.99,-86 128.99,-89.5 128.99,-82.5"/>
</g>
</g>
</svg>
