<?xml version="1.0" encoding="UTF-8" standalone="no"?>
<!DOCTYPE svg PUBLIC "-//W3C//DTD SVG 1.1//EN"
 "http://www.w3.org/Graphics/SVG/1.1/DTD/svg11.dtd">
<!-- Generated by graphviz version 9.0.0 (20230911.1827)
 -->
<!-- Title: CKCU Pages: 1 -->
<svg width="370pt" height="180pt"
 viewBox="0.00 0.00 369.50 180.00" xmlns="http://www.w3.org/2000/svg" xmlns:xlink="http://www.w3.org/1999/xlink">
<g id="graph0" class="graph" transform="scale(1 1) rotate(0) translate(4 176)">
<title>CKCU</title>
<!-- Node1 -->
<g id="Node000001" class="node">
<title>Node1</title>
<g id="a_Node000001"><a xlink:title="CKCU driver modules.">
<polygon fill="#999999" stroke="#666666" points="196.25,-96 153.25,-96 153.25,-76 196.25,-76 196.25,-96"/>
<text text-anchor="middle" x="174.75" y="-82.5" font-family="Helvetica,sans-Serif" font-size="10.00">CKCU</text>
</a>
</g>
</g>
<!-- Node4 -->
<g id="Node000004" class="node">
<title>Node4</title>
<g id="a_Node000004"><a xlink:href="group___c_k_c_u___exported___constants.html" target="_top" xlink:title=" ">
<polygon fill="white" stroke="#666666" points="361.5,-172 232.25,-172 232.25,-152 361.5,-152 361.5,-172"/>
<text text-anchor="middle" x="296.88" y="-158.5" font-family="Helvetica,sans-Serif" font-size="10.00">CKCU exported constants</text>
</a>
</g>
</g>
<!-- Node1&#45;&gt;Node4 -->
<g id="edge3" class="edge">
<title>Node1&#45;&gt;Node4</title>
<path fill="none" stroke="black" d="M190.4,-105.12C200.83,-117.54 215.87,-133.18 232.25,-143 237.89,-146.38 244.17,-149.19 250.52,-151.53"/>
<polygon fill="black" stroke="black" points="193.32,-103.17 184.32,-97.58 187.87,-107.56 193.32,-103.17"/>
</g>
<!-- Node5 -->
<g id="Node000005" class="node">
<title>Node5</title>
<g id="a_Node000005"><a xlink:href="group___c_k_c_u___exported___functions.html" target="_top" xlink:title=" ">
<polygon fill="white" stroke="#666666" points="359.62,-134 234.12,-134 234.12,-114 359.62,-114 359.62,-134"/>
<text text-anchor="middle" x="296.88" y="-120.5" font-family="Helvetica,sans-Serif" font-size="10.00">CKCU exported functions</text>
</a>
</g>
</g>
<!-- Node1&#45;&gt;Node5 -->
<g id="edge4" class="edge">
<title>Node1&#45;&gt;Node5</title>
<path fill="none" stroke="black" d="M207.49,-96.89C215.55,-99.59 224.2,-102.45 232.25,-105 241.26,-107.86 251.03,-110.84 260.14,-113.56"/>
<polygon fill="black" stroke="black" points="208.65,-93.58 198.06,-93.69 206.41,-100.21 208.65,-93.58"/>
</g>
<!-- Node3 -->
<g id="Node000003" class="node">
<title>Node3</title>
<g id="a_Node000003"><a xlink:href="group___c_k_c_u___exported___types.html" target="_top" xlink:title=" ">
<polygon fill="white" stroke="#666666" points="352.12,-96 241.62,-96 241.62,-76 352.12,-76 352.12,-96"/>
<text text-anchor="middle" x="296.88" y="-82.5" font-family="Helvetica,sans-Serif" font-size="10.00">CKCU exported types</text>
</a>
</g>
</g>
<!-- Node1&#45;&gt;Node3 -->
<g id="edge2" class="edge">
<title>Node1&#45;&gt;Node3</title>
<path fill="none" stroke="black" d="M207.94,-86C218.17,-86 229.78,-86 241.13,-86"/>
<polygon fill="black" stroke="black" points="208.19,-82.5 198.19,-86 208.19,-89.5 208.19,-82.5"/>
</g>
<!-- Node6 -->
<g id="Node000006" class="node">
<title>Node6</title>
<g id="a_Node000006"><a xlink:href="group___c_k_c_u___private___define.html" target="_top" xlink:title=" ">
<polygon fill="white" stroke="#666666" points="357,-58 236.75,-58 236.75,-38 357,-38 357,-58"/>
<text text-anchor="middle" x="296.88" y="-44.5" font-family="Helvetica,sans-Serif" font-size="10.00">CKCU private definitions</text>
</a>
</g>
</g>
<!-- Node1&#45;&gt;Node6 -->
<g id="edge5" class="edge">
<title>Node1&#45;&gt;Node6</title>
<path fill="none" stroke="black" d="M207.49,-75.11C215.55,-72.41 224.2,-69.55 232.25,-67 241.26,-64.14 251.03,-61.16 260.14,-58.44"/>
<polygon fill="black" stroke="black" points="206.41,-71.79 198.06,-78.31 208.65,-78.42 206.41,-71.79"/>
</g>
<!-- Node7 -->
<g id="Node000007" class="node">
<title>Node7</title>
<g id="a_Node000007"><a xlink:href="group___c_k_c_u___private___macro.html" target="_top" xlink:title=" ">
<polygon fill="white" stroke="#666666" points="351.38,-20 242.38,-20 242.38,0 351.38,0 351.38,-20"/>
<text text-anchor="middle" x="296.88" y="-6.5" font-family="Helvetica,sans-Serif" font-size="10.00">CKCU private macros</text>
</a>
</g>
</g>
<!-- Node1&#45;&gt;Node7 -->
<g id="edge6" class="edge">
<title>Node1&#45;&gt;Node7</title>
<path fill="none" stroke="black" d="M190.4,-66.88C200.83,-54.46 215.87,-38.82 232.25,-29 237.89,-25.62 244.17,-22.81 250.52,-20.47"/>
<polygon fill="black" stroke="black" points="187.87,-64.44 184.32,-74.42 193.32,-68.83 187.87,-64.44"/>
</g>
<!-- Node2 -->
<g id="Node000002" class="node">
<title>Node2</title>
<g id="a_Node000002"><a xlink:href="group___h_t32_f5xxxx___peripheral___driver.html" target="_top" xlink:title=" ">
<polygon fill="white" stroke="#666666" points="117.25,-102 0,-102 0,-70 117.25,-70 117.25,-102"/>
<text text-anchor="start" x="8" y="-88.5" font-family="Helvetica,sans-Serif" font-size="10.00">HT32F5xxxx Peripheral</text>
<text text-anchor="middle" x="58.62" y="-76.5" font-family="Helvetica,sans-Serif" font-size="10.00"> Driver</text>
</a>
</g>
</g>
<!-- Node2&#45;&gt;Node1 -->
<g id="edge1" class="edge">
<title>Node2&#45;&gt;Node1</title>
<path fill="none" stroke="black" d="M129.18,-86C137.79,-86 146.01,-86 152.99,-86"/>
<polygon fill="black" stroke="black" points="129.2,-82.5 119.2,-86 129.2,-89.5 129.2,-82.5"/>
</g>
</g>
</svg>
