<?xml version="1.0" encoding="UTF-8" standalone="no"?>
<!DOCTYPE svg PUBLIC "-//W3C//DTD SVG 1.1//EN"
 "http://www.w3.org/Graphics/SVG/1.1/DTD/svg11.dtd">
<!-- Generated by graphviz version 9.0.0 (20230911.1827)
 -->
<!-- Title: LCD Pages: 1 -->
<svg width="292pt" height="28pt"
 viewBox="0.00 0.00 291.50 28.00" xmlns="http://www.w3.org/2000/svg" xmlns:xlink="http://www.w3.org/1999/xlink">
<g id="graph0" class="graph" transform="scale(1 1) rotate(0) translate(4 24)">
<title>LCD</title>
<!-- Node2 -->
<g id="Node000002" class="node">
<title>Node2</title>
<g id="a_Node000002"><a xlink:href="group___h_t32___series___peripheral___examples.html" target="_top" xlink:title=" ">
<polygon fill="white" stroke="#666666" points="131.5,-20 0,-20 0,0 131.5,0 131.5,-20"/>
<text text-anchor="middle" x="65.75" y="-6.5" font-family="Helvetica,sans-Serif" font-size="10.00">HT32 Peripheral Examples</text>
</a>
</g>
</g>
<!-- Node1 -->
<g id="Node000001" class="node">
<title>Node1</title>
<g id="a_Node000001"><a xlink:title=" ">
<polygon fill="#999999" stroke="#666666" points="202.25,-20 167.5,-20 167.5,0 202.25,0 202.25,-20"/>
<text text-anchor="middle" x="184.88" y="-6.5" font-family="Helvetica,sans-Serif" font-size="10.00">LCD</text>
</a>
</g>
</g>
<!-- Node2&#45;&gt;Node1 -->
<g id="edge1" class="edge">
<title>Node2&#45;&gt;Node1</title>
<path fill="none" stroke="black" d="M143.27,-10C152.1,-10 160.33,-10 167.04,-10"/>
<polygon fill="black" stroke="black" points="143.33,-6.5 133.33,-10 143.33,-13.5 143.33,-6.5"/>
</g>
<!-- Node3 -->
<g id="Node000003" class="node">
<title>Node3</title>
<g id="a_Node000003"><a xlink:href="group___l_c_d28.html" target="_top" xlink:title=" ">
<polygon fill="white" stroke="#666666" points="283.5,-20 238.25,-20 238.25,0 283.5,0 283.5,-20"/>
<text text-anchor="middle" x="260.88" y="-6.5" font-family="Helvetica,sans-Serif" font-size="10.00">LCD28</text>
</a>
</g>
</g>
<!-- Node1&#45;&gt;Node3 -->
<g id="edge2" class="edge">
<title>Node1&#45;&gt;Node3</title>
<path fill="none" stroke="black" d="M213.99,-10C221.88,-10 230.34,-10 237.81,-10"/>
<polygon fill="black" stroke="black" points="214.18,-6.5 204.18,-10 214.18,-13.5 214.18,-6.5"/>
</g>
</g>
</svg>
