<?xml version="1.0" encoding="UTF-8" standalone="no"?>
<!DOCTYPE svg PUBLIC "-//W3C//DTD SVG 1.1//EN"
 "http://www.w3.org/Graphics/SVG/1.1/DTD/svg11.dtd">
<!-- Generated by graphviz version 9.0.0 (20230911.1827)
 -->
<!-- Title: TM Pages: 1 -->
<svg width="343pt" height="180pt"
 viewBox="0.00 0.00 342.50 180.00" xmlns="http://www.w3.org/2000/svg" xmlns:xlink="http://www.w3.org/1999/xlink">
<g id="graph0" class="graph" transform="scale(1 1) rotate(0) translate(4 176)">
<title>TM</title>
<!-- Node2 -->
<g id="Node000002" class="node">
<title>Node2</title>
<g id="a_Node000002"><a xlink:href="group___h_t32_f5xxxx___peripheral___driver.html" target="_top" xlink:title=" ">
<polygon fill="white" stroke="#666666" points="117.25,-102 0,-102 0,-70 117.25,-70 117.25,-102"/>
<text text-anchor="start" x="8" y="-88.5" font-family="Helvetica,sans-Serif" font-size="10.00">HT32F5xxxx Peripheral</text>
<text text-anchor="middle" x="58.62" y="-76.5" font-family="Helvetica,sans-Serif" font-size="10.00"> Driver</text>
</a>
</g>
</g>
<!-- Node1 -->
<g id="Node000001" class="node">
<title>Node1</title>
<g id="a_Node000001"><a xlink:title="TM driver modules.">
<polygon fill="#999999" stroke="#666666" points="182.75,-96 153.25,-96 153.25,-76 182.75,-76 182.75,-96"/>
<text text-anchor="middle" x="168" y="-82.5" font-family="Helvetica,sans-Serif" font-size="10.00">TM</text>
</a>
</g>
</g>
<!-- Node2&#45;&gt;Node1 -->
<g id="edge1" class="edge">
<title>Node2&#45;&gt;Node1</title>
<path fill="none" stroke="black" d="M129.03,-86C138.1,-86 146.52,-86 153.11,-86"/>
<polygon fill="black" stroke="black" points="129.23,-82.5 119.23,-86 129.23,-89.5 129.23,-82.5"/>
</g>
<!-- Node4 -->
<g id="Node000004" class="node">
<title>Node4</title>
<g id="a_Node000004"><a xlink:href="group___t_m___exported___constants.html" target="_top" xlink:title=" ">
<polygon fill="white" stroke="#666666" points="334.5,-172 218.75,-172 218.75,-152 334.5,-152 334.5,-172"/>
<text text-anchor="middle" x="276.62" y="-158.5" font-family="Helvetica,sans-Serif" font-size="10.00">TM exported constants</text>
</a>
</g>
</g>
<!-- Node1&#45;&gt;Node4 -->
<g id="edge3" class="edge">
<title>Node1&#45;&gt;Node4</title>
<path fill="none" stroke="black" d="M182.07,-105.74C191.09,-117.99 204.06,-133.21 218.75,-143 223.86,-146.41 229.64,-149.25 235.5,-151.61"/>
<polygon fill="black" stroke="black" points="184.95,-103.76 176.35,-97.58 179.22,-107.77 184.95,-103.76"/>
</g>
<!-- Node5 -->
<g id="Node000005" class="node">
<title>Node5</title>
<g id="a_Node000005"><a xlink:href="group___t_m___exported___functions.html" target="_top" xlink:title=" ">
<polygon fill="white" stroke="#666666" points="332.62,-134 220.62,-134 220.62,-114 332.62,-114 332.62,-134"/>
<text text-anchor="middle" x="276.62" y="-120.5" font-family="Helvetica,sans-Serif" font-size="10.00">TM exported functions</text>
</a>
</g>
</g>
<!-- Node1&#45;&gt;Node5 -->
<g id="edge4" class="edge">
<title>Node1&#45;&gt;Node5</title>
<path fill="none" stroke="black" d="M193.43,-95.57C201.47,-98.65 210.47,-102.04 218.75,-105 226.79,-107.88 235.51,-110.86 243.66,-113.59"/>
<polygon fill="black" stroke="black" points="194.88,-92.38 184.29,-92.03 192.35,-98.9 194.88,-92.38"/>
</g>
<!-- Node3 -->
<g id="Node000003" class="node">
<title>Node3</title>
<g id="a_Node000003"><a xlink:href="group___t_m___exported___types.html" target="_top" xlink:title=" ">
<polygon fill="white" stroke="#666666" points="325.12,-96 228.12,-96 228.12,-76 325.12,-76 325.12,-96"/>
<text text-anchor="middle" x="276.62" y="-82.5" font-family="Helvetica,sans-Serif" font-size="10.00">TM exported types</text>
</a>
</g>
</g>
<!-- Node1&#45;&gt;Node3 -->
<g id="edge2" class="edge">
<title>Node1&#45;&gt;Node3</title>
<path fill="none" stroke="black" d="M194.16,-86C204.26,-86 216.23,-86 227.86,-86"/>
<polygon fill="black" stroke="black" points="194.45,-82.5 184.45,-86 194.45,-89.5 194.45,-82.5"/>
</g>
<!-- Node6 -->
<g id="Node000006" class="node">
<title>Node6</title>
<g id="a_Node000006"><a xlink:href="group___t_m___private___define.html" target="_top" xlink:title=" ">
<polygon fill="white" stroke="#666666" points="330,-58 223.25,-58 223.25,-38 330,-38 330,-58"/>
<text text-anchor="middle" x="276.62" y="-44.5" font-family="Helvetica,sans-Serif" font-size="10.00">TM private definitions</text>
</a>
</g>
</g>
<!-- Node1&#45;&gt;Node6 -->
<g id="edge5" class="edge">
<title>Node1&#45;&gt;Node6</title>
<path fill="none" stroke="black" d="M193.43,-76.43C201.47,-73.35 210.47,-69.96 218.75,-67 226.79,-64.12 235.51,-61.14 243.66,-58.41"/>
<polygon fill="black" stroke="black" points="192.35,-73.1 184.29,-79.97 194.88,-79.62 192.35,-73.1"/>
</g>
<!-- Node7 -->
<g id="Node000007" class="node">
<title>Node7</title>
<g id="a_Node000007"><a xlink:href="group___t_m___private___functions.html" target="_top" xlink:title=" ">
<polygon fill="white" stroke="#666666" points="327.75,-20 225.5,-20 225.5,0 327.75,0 327.75,-20"/>
<text text-anchor="middle" x="276.62" y="-6.5" font-family="Helvetica,sans-Serif" font-size="10.00">TM private functions</text>
</a>
</g>
</g>
<!-- Node1&#45;&gt;Node7 -->
<g id="edge6" class="edge">
<title>Node1&#45;&gt;Node7</title>
<path fill="none" stroke="black" d="M182.07,-66.26C191.09,-54.01 204.06,-38.79 218.75,-29 223.86,-25.59 229.64,-22.75 235.5,-20.39"/>
<polygon fill="black" stroke="black" points="179.22,-64.23 176.35,-74.42 184.95,-68.24 179.22,-64.23"/>
</g>
</g>
</svg>
