<?xml version="1.0" encoding="UTF-8" standalone="no"?>
<!DOCTYPE svg PUBLIC "-//W3C//DTD SVG 1.1//EN"
 "http://www.w3.org/Graphics/SVG/1.1/DTD/svg11.dtd">
<!-- Generated by graphviz version 9.0.0 (20230911.1827)
 -->
<!-- Title: USB Device Core exported constants Pages: 1 -->
<svg width="400pt" height="90pt"
 viewBox="0.00 0.00 400.25 90.00" xmlns="http://www.w3.org/2000/svg" xmlns:xlink="http://www.w3.org/1999/xlink">
<g id="graph0" class="graph" transform="scale(1 1) rotate(0) translate(4 86)">
<title>USB Device Core exported constants</title>
<!-- Node2 -->
<g id="Node000002" class="node">
<title>Node2</title>
<g id="a_Node000002"><a xlink:href="group___u_s_b_d_core.html" target="_top" xlink:title="USB Device Core standard protocol related function.">
<polygon fill="white" stroke="#666666" points="91,-51 0,-51 0,-31 91,-31 91,-51"/>
<text text-anchor="middle" x="45.5" y="-37.5" font-family="Helvetica,sans-Serif" font-size="10.00">USB Device Core</text>
</a>
</g>
</g>
<!-- Node1 -->
<g id="Node000001" class="node">
<title>Node1</title>
<g id="a_Node000001"><a xlink:title=" ">
<polygon fill="#999999" stroke="#666666" points="258.5,-57 127,-57 127,-25 258.5,-25 258.5,-57"/>
<text text-anchor="start" x="135" y="-43.5" font-family="Helvetica,sans-Serif" font-size="10.00">USB Device Core exported</text>
<text text-anchor="middle" x="192.75" y="-31.5" font-family="Helvetica,sans-Serif" font-size="10.00"> constants</text>
</a>
</g>
</g>
<!-- Node2&#45;&gt;Node1 -->
<g id="edge1" class="edge">
<title>Node2&#45;&gt;Node1</title>
<path fill="none" stroke="black" d="M102.55,-41C110.42,-41 118.56,-41 126.58,-41"/>
<polygon fill="black" stroke="black" points="102.78,-37.5 92.78,-41 102.78,-44.5 102.78,-37.5"/>
</g>
<!-- Node3 -->
<g id="Node000003" class="node">
<title>Node3</title>
<g id="a_Node000003"><a xlink:href="group___u_s_b_d_core___descriptor.html" target="_top" xlink:title=" ">
<polygon fill="white" stroke="#666666" points="392.25,-82 294.5,-82 294.5,-50 392.25,-50 392.25,-82"/>
<text text-anchor="start" x="302.5" y="-68.5" font-family="Helvetica,sans-Serif" font-size="10.00">Definitions for USB</text>
<text text-anchor="middle" x="343.38" y="-56.5" font-family="Helvetica,sans-Serif" font-size="10.00"> descriptor</text>
</a>
</g>
</g>
<!-- Node1&#45;&gt;Node3 -->
<g id="edge2" class="edge">
<title>Node1&#45;&gt;Node3</title>
<path fill="none" stroke="black" d="M270.11,-53.84C278.31,-55.22 286.48,-56.6 294.22,-57.9"/>
<polygon fill="black" stroke="black" points="270.87,-50.42 260.43,-52.22 269.71,-57.33 270.87,-50.42"/>
</g>
<!-- Node4 -->
<g id="Node000004" class="node">
<title>Node4</title>
<g id="a_Node000004"><a xlink:href="group___u_s_b_d_core___request.html" target="_top" xlink:title=" ">
<polygon fill="white" stroke="#666666" points="392.25,-32 294.5,-32 294.5,0 392.25,0 392.25,-32"/>
<text text-anchor="start" x="302.5" y="-18.5" font-family="Helvetica,sans-Serif" font-size="10.00">Definitions for USB</text>
<text text-anchor="middle" x="343.38" y="-6.5" font-family="Helvetica,sans-Serif" font-size="10.00"> Request</text>
</a>
</g>
</g>
<!-- Node1&#45;&gt;Node4 -->
<g id="edge3" class="edge">
<title>Node1&#45;&gt;Node4</title>
<path fill="none" stroke="black" d="M270.11,-28.16C278.31,-26.78 286.48,-25.4 294.22,-24.1"/>
<polygon fill="black" stroke="black" points="269.71,-24.67 260.43,-29.78 270.87,-31.58 269.71,-24.67"/>
</g>
</g>
</svg>
