<?xml version="1.0" encoding="UTF-8" standalone="no"?>
<!DOCTYPE svg PUBLIC "-//W3C//DTD SVG 1.1//EN"
 "http://www.w3.org/Graphics/SVG/1.1/DTD/svg11.dtd">
<!-- Generated by graphviz version 9.0.0 (20230911.1827)
 -->
<!-- Title: Status and Control Registers Pages: 1 -->
<svg width="443pt" height="40pt"
 viewBox="0.00 0.00 443.00 40.00" xmlns="http://www.w3.org/2000/svg" xmlns:xlink="http://www.w3.org/1999/xlink">
<g id="graph0" class="graph" transform="scale(1 1) rotate(0) translate(4 36)">
<title>Status and Control Registers</title>
<!-- Node1 -->
<g id="Node000001" class="node">
<title>Node1</title>
<g id="a_Node000001"><a xlink:title="Core Register type definitions.">
<polygon fill="#999999" stroke="#666666" points="272,-32 175,-32 175,0 272,0 272,-32"/>
<text text-anchor="start" x="183" y="-18.5" font-family="Helvetica,sans-Serif" font-size="10.00">Status and Control</text>
<text text-anchor="middle" x="223.5" y="-6.5" font-family="Helvetica,sans-Serif" font-size="10.00"> Registers</text>
</a>
</g>
</g>
<!-- Node3 -->
<g id="Node000003" class="node">
<title>Node3</title>
<g id="a_Node000003"><a xlink:href="group___c_m_s_i_s___n_v_i_c.html" target="_top" xlink:title="Type definitions for the NVIC Registers.">
<polygon fill="white" stroke="#666666" points="435,-32 308,-32 308,0 435,0 435,-32"/>
<text text-anchor="start" x="316" y="-18.5" font-family="Helvetica,sans-Serif" font-size="10.00">Nested Vectored Interrupt</text>
<text text-anchor="middle" x="371.5" y="-6.5" font-family="Helvetica,sans-Serif" font-size="10.00"> Controller (NVIC)</text>
</a>
</g>
</g>
<!-- Node1&#45;&gt;Node3 -->
<g id="edge2" class="edge">
<title>Node1&#45;&gt;Node3</title>
<path fill="none" stroke="black" d="M283.69,-16C291.6,-16 299.74,-16 307.71,-16"/>
<polygon fill="black" stroke="black" points="283.82,-12.5 273.82,-16 283.82,-19.5 283.82,-12.5"/>
</g>
<!-- Node2 -->
<g id="Node000002" class="node">
<title>Node2</title>
<g id="a_Node000002"><a xlink:href="group___c_m_s_i_s__core__register.html" target="_top" xlink:title="Type definitions and defines for Cortex&#45;M processor based devices.">
<polygon fill="white" stroke="#666666" points="139,-26 0,-26 0,-6 139,-6 139,-26"/>
<text text-anchor="middle" x="69.5" y="-12.5" font-family="Helvetica,sans-Serif" font-size="10.00">Defines and Type Definitions</text>
</a>
</g>
</g>
<!-- Node2&#45;&gt;Node1 -->
<g id="edge1" class="edge">
<title>Node2&#45;&gt;Node1</title>
<path fill="none" stroke="black" d="M150.89,-16C159.03,-16 167.09,-16 174.72,-16"/>
<polygon fill="black" stroke="black" points="150.9,-12.5 140.9,-16 150.9,-19.5 150.9,-12.5"/>
</g>
</g>
</svg>
