<?xml version="1.0" encoding="UTF-8" standalone="no"?>
<!DOCTYPE svg PUBLIC "-//W3C//DTD SVG 1.1//EN"
 "http://www.w3.org/Graphics/SVG/1.1/DTD/svg11.dtd">
<!-- Generated by graphviz version 9.0.0 (20230911.1827)
 -->
<!-- Title: HT32F5xxxx Pages: 1 -->
<svg width="326pt" height="228pt"
 viewBox="0.00 0.00 326.00 228.00" xmlns="http://www.w3.org/2000/svg" xmlns:xlink="http://www.w3.org/1999/xlink">
<g id="graph0" class="graph" transform="scale(1 1) rotate(0) translate(4 224)">
<title>HT32F5xxxx</title>
<!-- Node2 -->
<g id="Node000002" class="node">
<title>Node2</title>
<g id="a_Node000002"><a xlink:href="group___c_m_s_i_s.html" target="_top" xlink:title=" ">
<polygon fill="white" stroke="#666666" points="46.75,-120 0,-120 0,-100 46.75,-100 46.75,-120"/>
<text text-anchor="middle" x="23.38" y="-106.5" font-family="Helvetica,sans-Serif" font-size="10.00">CMSIS</text>
</a>
</g>
</g>
<!-- Node1 -->
<g id="Node000001" class="node">
<title>Node1</title>
<g id="a_Node000001"><a xlink:title=" ">
<polygon fill="#999999" stroke="#666666" points="153.5,-120 82.75,-120 82.75,-100 153.5,-100 153.5,-120"/>
<text text-anchor="middle" x="118.12" y="-106.5" font-family="Helvetica,sans-Serif" font-size="10.00">HT32F5xxxx</text>
</a>
</g>
</g>
<!-- Node2&#45;&gt;Node1 -->
<g id="edge1" class="edge">
<title>Node2&#45;&gt;Node1</title>
<path fill="none" stroke="black" d="M58.3,-110C66.21,-110 74.64,-110 82.57,-110"/>
<polygon fill="black" stroke="black" points="58.34,-106.5 48.34,-110 58.34,-113.5 58.34,-106.5"/>
</g>
<!-- Node5 -->
<g id="Node000005" class="node">
<title>Node5</title>
<g id="a_Node000005"><a xlink:href="group___configuration__for___interrupt___number.html" target="_top" xlink:title=" ">
<polygon fill="white" stroke="#666666" points="318,-220 189.5,-220 189.5,-188 318,-188 318,-220"/>
<text text-anchor="start" x="197.5" y="-206.5" font-family="Helvetica,sans-Serif" font-size="10.00">Configuration_for_Interrupt</text>
<text text-anchor="middle" x="253.75" y="-194.5" font-family="Helvetica,sans-Serif" font-size="10.00">_Number</text>
</a>
</g>
</g>
<!-- Node4 -->
<g id="Node000004" class="node">
<title>Node4</title>
<g id="a_Node000004"><a xlink:href="group___configuration__section__for___c_m_s_i_s.html" target="_top" xlink:title=" ">
<polygon fill="white" stroke="#666666" points="308.25,-170 199.25,-170 199.25,-138 308.25,-138 308.25,-170"/>
<text text-anchor="start" x="207.25" y="-156.5" font-family="Helvetica,sans-Serif" font-size="10.00">Configuration_section</text>
<text text-anchor="middle" x="253.75" y="-144.5" font-family="Helvetica,sans-Serif" font-size="10.00">_for_CMSIS</text>
</a>
</g>
</g>
<!-- Node6 -->
<g id="Node000006" class="node">
<title>Node6</title>
<g id="a_Node000006"><a xlink:href="group___exported___types.html" target="_top" xlink:title=" ">
<polygon fill="white" stroke="#666666" points="297,-120 210.5,-120 210.5,-100 297,-100 297,-120"/>
<text text-anchor="middle" x="253.75" y="-106.5" font-family="Helvetica,sans-Serif" font-size="10.00">Exported_Types</text>
</a>
</g>
</g>
<!-- Node1&#45;&gt;Node5 -->
<g id="edge4" class="edge">
<title>Node1&#45;&gt;Node5</title>
<path fill="none" stroke="black" d="M134.51,-128.79C147.77,-144 168.11,-165.11 189.5,-179 194.35,-182.15 199.66,-185.01 205.08,-187.58"/>
<polygon fill="black" stroke="black" points="137.34,-126.71 128.2,-121.35 132,-131.24 137.34,-126.71"/>
</g>
<!-- Node1&#45;&gt;Node4 -->
<g id="edge3" class="edge">
<title>Node1&#45;&gt;Node4</title>
<path fill="none" stroke="black" d="M161.43,-123.93C174.56,-128.25 189.16,-133.06 202.77,-137.54"/>
<polygon fill="black" stroke="black" points="162.82,-120.7 152.23,-120.9 160.63,-127.35 162.82,-120.7"/>
</g>
<!-- Node1&#45;&gt;Node6 -->
<g id="edge5" class="edge">
<title>Node1&#45;&gt;Node6</title>
<path fill="none" stroke="black" d="M165.18,-110C179.73,-110 195.74,-110 210.05,-110"/>
<polygon fill="black" stroke="black" points="165.4,-106.5 155.4,-110 165.4,-113.5 165.4,-106.5"/>
</g>
<!-- Node3 -->
<g id="Node000003" class="node">
<title>Node3</title>
<g id="a_Node000003"><a xlink:href="group___library__configuration__section.html" target="_top" xlink:title=" ">
<polygon fill="white" stroke="#666666" points="306.38,-82 201.12,-82 201.12,-50 306.38,-50 306.38,-82"/>
<text text-anchor="start" x="209.12" y="-68.5" font-family="Helvetica,sans-Serif" font-size="10.00">Library_configuration</text>
<text text-anchor="middle" x="253.75" y="-56.5" font-family="Helvetica,sans-Serif" font-size="10.00">_section</text>
</a>
</g>
</g>
<!-- Node1&#45;&gt;Node3 -->
<g id="edge2" class="edge">
<title>Node1&#45;&gt;Node3</title>
<path fill="none" stroke="black" d="M161.43,-96.07C174.56,-91.75 189.16,-86.94 202.77,-82.46"/>
<polygon fill="black" stroke="black" points="160.63,-92.65 152.23,-99.1 162.82,-99.3 160.63,-92.65"/>
</g>
<!-- Node7 -->
<g id="Node000007" class="node">
<title>Node7</title>
<g id="a_Node000007"><a xlink:href="group___peripheral___registers___structures.html" target="_top" xlink:title=" ">
<polygon fill="white" stroke="#666666" points="306.75,-32 200.75,-32 200.75,0 306.75,0 306.75,-32"/>
<text text-anchor="start" x="208.75" y="-18.5" font-family="Helvetica,sans-Serif" font-size="10.00">Peripheral_Registers</text>
<text text-anchor="middle" x="253.75" y="-6.5" font-family="Helvetica,sans-Serif" font-size="10.00">_Structures</text>
</a>
</g>
</g>
<!-- Node1&#45;&gt;Node7 -->
<g id="edge6" class="edge">
<title>Node1&#45;&gt;Node7</title>
<path fill="none" stroke="black" d="M134.51,-91.21C147.77,-76 168.11,-54.89 189.5,-41 194.35,-37.85 199.66,-34.99 205.08,-32.42"/>
<polygon fill="black" stroke="black" points="132,-88.76 128.2,-98.65 137.34,-93.29 132,-88.76"/>
</g>
</g>
</svg>
