<?xml version="1.0" encoding="UTF-8" standalone="no"?>
<!DOCTYPE svg PUBLIC "-//W3C//DTD SVG 1.1//EN"
 "http://www.w3.org/Graphics/SVG/1.1/DTD/svg11.dtd">
<!-- Generated by graphviz version 9.0.0 (20230911.1827)
 -->
<!-- Title: USBD Pages: 1 -->
<svg width="406pt" height="446pt"
 viewBox="0.00 0.00 405.50 446.00" xmlns="http://www.w3.org/2000/svg" xmlns:xlink="http://www.w3.org/1999/xlink">
<g id="graph0" class="graph" transform="scale(1 1) rotate(0) translate(4 442)">
<title>USBD</title>
<!-- Node3 -->
<g id="Node000003" class="node">
<title>Node3</title>
<g id="a_Node000003"><a xlink:href="group___h_i_d___demo.html" target="_top" xlink:title=" ">
<polygon fill="white" stroke="#666666" points="353.25,-438 290.75,-438 290.75,-418 353.25,-418 353.25,-438"/>
<text text-anchor="middle" x="322" y="-424.5" font-family="Helvetica,sans-Serif" font-size="10.00">HID_Demo</text>
</a>
</g>
</g>
<!-- Node4 -->
<g id="Node000004" class="node">
<title>Node4</title>
<g id="a_Node000004"><a xlink:href="group___h_i_d___demo_vendor_report.html" target="_top" xlink:title=" ">
<polygon fill="white" stroke="#666666" points="382.88,-400 261.12,-400 261.12,-380 382.88,-380 382.88,-400"/>
<text text-anchor="middle" x="322" y="-386.5" font-family="Helvetica,sans-Serif" font-size="10.00">HID_DemoVendorReport</text>
</a>
</g>
</g>
<!-- Node5 -->
<g id="Node000005" class="node">
<title>Node5</title>
<g id="a_Node000005"><a xlink:href="group___h_i_d___keyboard.html" target="_top" xlink:title=" ">
<polygon fill="white" stroke="#666666" points="361.12,-362 282.88,-362 282.88,-342 361.12,-342 361.12,-362"/>
<text text-anchor="middle" x="322" y="-348.5" font-family="Helvetica,sans-Serif" font-size="10.00">HID_Keyboard</text>
</a>
</g>
</g>
<!-- Node6 -->
<g id="Node000006" class="node">
<title>Node6</title>
<g id="a_Node000006"><a xlink:href="group___h_i_d___keyboard___joystick.html" target="_top" xlink:title=" ">
<polygon fill="white" stroke="#666666" points="381.75,-324 262.25,-324 262.25,-304 381.75,-304 381.75,-324"/>
<text text-anchor="middle" x="322" y="-310.5" font-family="Helvetica,sans-Serif" font-size="10.00">HID_Keyboard_Joystick</text>
</a>
</g>
</g>
<!-- Node7 -->
<g id="Node000007" class="node">
<title>Node7</title>
<g id="a_Node000007"><a xlink:href="group___h_i_d___keyboard___mass___storage.html" target="_top" xlink:title=" ">
<polygon fill="white" stroke="#666666" points="395.25,-286 248.75,-286 248.75,-266 395.25,-266 395.25,-286"/>
<text text-anchor="middle" x="322" y="-272.5" font-family="Helvetica,sans-Serif" font-size="10.00">HID_Keyboard_Mass_Storage</text>
</a>
</g>
</g>
<!-- Node8 -->
<g id="Node000008" class="node">
<title>Node8</title>
<g id="a_Node000008"><a xlink:href="group___h_i_d___keyboard___virtual___c_o_m.html" target="_top" xlink:title=" ">
<polygon fill="white" stroke="#666666" points="391.5,-248 252.5,-248 252.5,-228 391.5,-228 391.5,-248"/>
<text text-anchor="middle" x="322" y="-234.5" font-family="Helvetica,sans-Serif" font-size="10.00">HID_Keyboard_Virtual_COM</text>
</a>
</g>
</g>
<!-- Node9 -->
<g id="Node000009" class="node">
<title>Node9</title>
<g id="a_Node000009"><a xlink:href="group___h_i_d___mouse.html" target="_top" xlink:title=" ">
<polygon fill="white" stroke="#666666" points="355.12,-210 288.88,-210 288.88,-190 355.12,-190 355.12,-210"/>
<text text-anchor="middle" x="322" y="-196.5" font-family="Helvetica,sans-Serif" font-size="10.00">HID_Mouse</text>
</a>
</g>
</g>
<!-- Node2 -->
<g id="Node000002" class="node">
<title>Node2</title>
<g id="a_Node000002"><a xlink:href="group___h_t32___series___peripheral___examples.html" target="_top" xlink:title=" ">
<polygon fill="white" stroke="#666666" points="131.5,-229 0,-229 0,-209 131.5,-209 131.5,-229"/>
<text text-anchor="middle" x="65.75" y="-215.5" font-family="Helvetica,sans-Serif" font-size="10.00">HT32 Peripheral Examples</text>
</a>
</g>
</g>
<!-- Node1 -->
<g id="Node000001" class="node">
<title>Node1</title>
<g id="a_Node000001"><a xlink:title=" ">
<polygon fill="#999999" stroke="#666666" points="210.5,-229 167.5,-229 167.5,-209 210.5,-209 210.5,-229"/>
<text text-anchor="middle" x="189" y="-215.5" font-family="Helvetica,sans-Serif" font-size="10.00">USBD</text>
</a>
</g>
</g>
<!-- Node2&#45;&gt;Node1 -->
<g id="edge1" class="edge">
<title>Node2&#45;&gt;Node1</title>
<path fill="none" stroke="black" d="M143.24,-219C151.97,-219 160.23,-219 167.21,-219"/>
<polygon fill="black" stroke="black" points="143.5,-215.5 133.5,-219 143.5,-222.5 143.5,-215.5"/>
</g>
<!-- Node10 -->
<g id="Node000010" class="node">
<title>Node10</title>
<g id="a_Node000010"><a xlink:href="group___mass___storage.html" target="_top" xlink:title=" ">
<polygon fill="white" stroke="#666666" points="361.5,-172 282.5,-172 282.5,-152 361.5,-152 361.5,-172"/>
<text text-anchor="middle" x="322" y="-158.5" font-family="Helvetica,sans-Serif" font-size="10.00">Mass_Storage</text>
</a>
</g>
</g>
<!-- Node1&#45;&gt;Node3 -->
<g id="edge2" class="edge">
<title>Node1&#45;&gt;Node3</title>
<path fill="none" stroke="black" d="M189.92,-240.79C191,-280.2 199.15,-363.47 246.5,-409 258.14,-420.19 275.42,-425.05 290.41,-427.06"/>
<polygon fill="black" stroke="black" points="193.42,-240.9 189.79,-230.94 186.42,-240.98 193.42,-240.9"/>
</g>
<!-- Node1&#45;&gt;Node4 -->
<g id="edge3" class="edge">
<title>Node1&#45;&gt;Node4</title>
<path fill="none" stroke="black" d="M191.78,-240.33C195.7,-273.3 208.07,-336.45 246.5,-371 250.77,-374.84 255.7,-377.92 260.96,-380.4"/>
<polygon fill="black" stroke="black" points="195.31,-240.39 190.81,-230.8 188.34,-241.1 195.31,-240.39"/>
</g>
<!-- Node1&#45;&gt;Node5 -->
<g id="edge4" class="edge">
<title>Node1&#45;&gt;Node5</title>
<path fill="none" stroke="black" d="M194.84,-240.49C201.79,-266.35 217.13,-309.24 246.5,-333 256.67,-341.23 269.97,-345.94 282.52,-348.62"/>
<polygon fill="black" stroke="black" points="198.24,-239.66 192.44,-230.8 191.44,-241.34 198.24,-239.66"/>
</g>
<!-- Node1&#45;&gt;Node6 -->
<g id="edge5" class="edge">
<title>Node1&#45;&gt;Node6</title>
<path fill="none" stroke="black" d="M199.89,-239.14C209.46,-256.52 225.58,-280.97 246.5,-295 251.6,-298.42 257.27,-301.22 263.15,-303.52"/>
<polygon fill="black" stroke="black" points="203.23,-237.97 195.5,-230.73 197.03,-241.21 203.23,-237.97"/>
</g>
<!-- Node1&#45;&gt;Node7 -->
<g id="edge6" class="edge">
<title>Node1&#45;&gt;Node7</title>
<path fill="none" stroke="black" d="M211.91,-236.31C221.98,-243.57 234.36,-251.57 246.5,-257 253.93,-260.33 262.05,-263.15 270.11,-265.51"/>
<polygon fill="black" stroke="black" points="214.03,-233.52 203.93,-230.33 209.83,-239.13 214.03,-233.52"/>
</g>
<!-- Node1&#45;&gt;Node8 -->
<g id="edge7" class="edge">
<title>Node1&#45;&gt;Node8</title>
<path fill="none" stroke="black" d="M222.05,-223.65C231.24,-224.98 241.62,-226.49 252.12,-228.01"/>
<polygon fill="black" stroke="black" points="222.65,-220.2 212.26,-222.23 221.65,-227.13 222.65,-220.2"/>
</g>
<!-- Node1&#45;&gt;Node9 -->
<g id="edge8" class="edge">
<title>Node1&#45;&gt;Node9</title>
<path fill="none" stroke="black" d="M221.91,-214.37C242.15,-211.44 268.26,-207.65 288.6,-204.7"/>
<polygon fill="black" stroke="black" points="221.65,-210.87 212.26,-215.77 222.65,-217.8 221.65,-210.87"/>
</g>
<!-- Node1&#45;&gt;Node10 -->
<g id="edge9" class="edge">
<title>Node1&#45;&gt;Node10</title>
<path fill="none" stroke="black" d="M211.91,-201.69C221.98,-194.43 234.36,-186.43 246.5,-181 257.71,-175.98 270.48,-172.12 282.25,-169.22"/>
<polygon fill="black" stroke="black" points="209.83,-198.87 203.93,-207.67 214.03,-204.48 209.83,-198.87"/>
</g>
<!-- Node11 -->
<g id="Node000011" class="node">
<title>Node11</title>
<g id="a_Node000011"><a xlink:href="group___u_s_b___u_a_c___sound.html" target="_top" xlink:title=" ">
<polygon fill="white" stroke="#666666" points="369.38,-134 274.62,-134 274.62,-114 369.38,-114 369.38,-134"/>
<text text-anchor="middle" x="322" y="-120.5" font-family="Helvetica,sans-Serif" font-size="10.00">USB_UAC_Sound</text>
</a>
</g>
</g>
<!-- Node1&#45;&gt;Node11 -->
<g id="edge10" class="edge">
<title>Node1&#45;&gt;Node11</title>
<path fill="none" stroke="black" d="M199.89,-198.86C209.46,-181.48 225.58,-157.03 246.5,-143 254.82,-137.43 264.65,-133.49 274.41,-130.7"/>
<polygon fill="black" stroke="black" points="197.03,-196.79 195.5,-207.27 203.23,-200.03 197.03,-196.79"/>
</g>
<!-- Node12 -->
<g id="Node000012" class="node">
<title>Node12</title>
<g id="a_Node000012"><a xlink:href="group___u_s_b___u_a_c___sound___rate_control.html" target="_top" xlink:title=" ">
<polygon fill="white" stroke="#666666" points="397.5,-96 246.5,-96 246.5,-76 397.5,-76 397.5,-96"/>
<text text-anchor="middle" x="322" y="-82.5" font-family="Helvetica,sans-Serif" font-size="10.00">USB_UAC_Sound_RateControl</text>
</a>
</g>
</g>
<!-- Node1&#45;&gt;Node12 -->
<g id="edge11" class="edge">
<title>Node1&#45;&gt;Node12</title>
<path fill="none" stroke="black" d="M194.84,-197.51C201.79,-171.65 217.13,-128.76 246.5,-105 250.75,-101.56 255.56,-98.73 260.62,-96.41"/>
<polygon fill="black" stroke="black" points="191.44,-196.66 192.44,-207.2 198.24,-198.34 191.44,-196.66"/>
</g>
<!-- Node13 -->
<g id="Node000013" class="node">
<title>Node13</title>
<g id="a_Node000013"><a xlink:href="group___u_s_b___video.html" target="_top" xlink:title=" ">
<polygon fill="white" stroke="#666666" points="355.12,-58 288.88,-58 288.88,-38 355.12,-38 355.12,-58"/>
<text text-anchor="middle" x="322" y="-44.5" font-family="Helvetica,sans-Serif" font-size="10.00">USB_Video</text>
</a>
</g>
</g>
<!-- Node1&#45;&gt;Node13 -->
<g id="edge12" class="edge">
<title>Node1&#45;&gt;Node13</title>
<path fill="none" stroke="black" d="M191.78,-197.67C195.7,-164.7 208.07,-101.55 246.5,-67 257.91,-56.74 274.11,-51.86 288.48,-49.6"/>
<polygon fill="black" stroke="black" points="188.34,-196.9 190.81,-207.2 195.31,-197.61 188.34,-196.9"/>
</g>
<!-- Node14 -->
<g id="Node000014" class="node">
<title>Node14</title>
<g id="a_Node000014"><a xlink:href="group___virtual___c_o_m.html" target="_top" xlink:title=" ">
<polygon fill="white" stroke="#666666" points="357.75,-20 286.25,-20 286.25,0 357.75,0 357.75,-20"/>
<text text-anchor="middle" x="322" y="-6.5" font-family="Helvetica,sans-Serif" font-size="10.00">Virtual_COM</text>
</a>
</g>
</g>
<!-- Node1&#45;&gt;Node14 -->
<g id="edge13" class="edge">
<title>Node1&#45;&gt;Node14</title>
<path fill="none" stroke="black" d="M189.92,-197.21C191,-157.8 199.15,-74.53 246.5,-29 256.99,-18.92 272.05,-13.98 285.89,-11.63"/>
<polygon fill="black" stroke="black" points="186.42,-197.02 189.79,-207.06 193.42,-197.1 186.42,-197.02"/>
</g>
</g>
</svg>
