<?xml version="1.0" encoding="UTF-8" standalone="no"?>
<!DOCTYPE svg PUBLIC "-//W3C//DTD SVG 1.1//EN"
 "http://www.w3.org/Graphics/SVG/1.1/DTD/svg11.dtd">
<!-- Generated by graphviz version 9.0.0 (20230911.1827)
 -->
<!-- Title: ADC Pages: 1 -->
<svg width="356pt" height="104pt"
 viewBox="0.00 0.00 356.00 104.00" xmlns="http://www.w3.org/2000/svg" xmlns:xlink="http://www.w3.org/1999/xlink">
<g id="graph0" class="graph" transform="scale(1 1) rotate(0) translate(4 100)">
<title>ADC</title>
<!-- Node1 -->
<g id="Node000001" class="node">
<title>Node1</title>
<g id="a_Node000001"><a xlink:title="ADC driver modules.">
<polygon fill="#999999" stroke="#666666" points="189.5,-58 153.25,-58 153.25,-38 189.5,-38 189.5,-58"/>
<text text-anchor="middle" x="171.38" y="-44.5" font-family="Helvetica,sans-Serif" font-size="10.00">ADC</text>
</a>
</g>
</g>
<!-- Node3 -->
<g id="Node000003" class="node">
<title>Node3</title>
<g id="a_Node000003"><a xlink:href="group___a_d_c___exported___constants.html" target="_top" xlink:title=" ">
<polygon fill="white" stroke="#666666" points="348,-96 225.5,-96 225.5,-76 348,-76 348,-96"/>
<text text-anchor="middle" x="286.75" y="-82.5" font-family="Helvetica,sans-Serif" font-size="10.00">ADC exported constants</text>
</a>
</g>
</g>
<!-- Node1&#45;&gt;Node3 -->
<g id="edge2" class="edge">
<title>Node1&#45;&gt;Node3</title>
<path fill="none" stroke="black" d="M200.33,-58.22C208.43,-61.12 217.3,-64.24 225.5,-67 234.02,-69.87 243.27,-72.85 251.9,-75.57"/>
<polygon fill="black" stroke="black" points="201.56,-54.95 190.97,-54.84 199.18,-61.53 201.56,-54.95"/>
</g>
<!-- Node4 -->
<g id="Node000004" class="node">
<title>Node4</title>
<g id="a_Node000004"><a xlink:href="group___a_d_c___exported___functions.html" target="_top" xlink:title=" ">
<polygon fill="white" stroke="#666666" points="346.12,-58 227.38,-58 227.38,-38 346.12,-38 346.12,-58"/>
<text text-anchor="middle" x="286.75" y="-44.5" font-family="Helvetica,sans-Serif" font-size="10.00">ADC exported functions</text>
</a>
</g>
</g>
<!-- Node1&#45;&gt;Node4 -->
<g id="edge3" class="edge">
<title>Node1&#45;&gt;Node4</title>
<path fill="none" stroke="black" d="M200.85,-48C208.85,-48 217.87,-48 226.95,-48"/>
<polygon fill="black" stroke="black" points="201.11,-44.5 191.11,-48 201.11,-51.5 201.11,-44.5"/>
</g>
<!-- Node5 -->
<g id="Node000005" class="node">
<title>Node5</title>
<g id="a_Node000005"><a xlink:href="group___a_d_c___private___define.html" target="_top" xlink:title=" ">
<polygon fill="white" stroke="#666666" points="343.5,-20 230,-20 230,0 343.5,0 343.5,-20"/>
<text text-anchor="middle" x="286.75" y="-6.5" font-family="Helvetica,sans-Serif" font-size="10.00">ADC private definitions</text>
</a>
</g>
</g>
<!-- Node1&#45;&gt;Node5 -->
<g id="edge4" class="edge">
<title>Node1&#45;&gt;Node5</title>
<path fill="none" stroke="black" d="M200.33,-37.78C208.43,-34.88 217.3,-31.76 225.5,-29 234.02,-26.13 243.27,-23.15 251.9,-20.43"/>
<polygon fill="black" stroke="black" points="199.18,-34.47 190.97,-41.16 201.56,-41.05 199.18,-34.47"/>
</g>
<!-- Node2 -->
<g id="Node000002" class="node">
<title>Node2</title>
<g id="a_Node000002"><a xlink:href="group___h_t32_f5xxxx___peripheral___driver.html" target="_top" xlink:title=" ">
<polygon fill="white" stroke="#666666" points="117.25,-64 0,-64 0,-32 117.25,-32 117.25,-64"/>
<text text-anchor="start" x="8" y="-50.5" font-family="Helvetica,sans-Serif" font-size="10.00">HT32F5xxxx Peripheral</text>
<text text-anchor="middle" x="58.62" y="-38.5" font-family="Helvetica,sans-Serif" font-size="10.00"> Driver</text>
</a>
</g>
</g>
<!-- Node2&#45;&gt;Node1 -->
<g id="edge1" class="edge">
<title>Node2&#45;&gt;Node1</title>
<path fill="none" stroke="black" d="M129.03,-48C137.9,-48 146.25,-48 153.1,-48"/>
<polygon fill="black" stroke="black" points="129.11,-44.5 119.11,-48 129.11,-51.5 129.11,-44.5"/>
</g>
</g>
</svg>
