<?xml version="1.0" encoding="UTF-8" standalone="no"?>
<!DOCTYPE svg PUBLIC "-//W3C//DTD SVG 1.1//EN"
 "http://www.w3.org/Graphics/SVG/1.1/DTD/svg11.dtd">
<!-- Generated by graphviz version 9.0.0 (20230911.1827)
 -->
<!-- Title: Core Definitions Pages: 1 -->
<svg width="393pt" height="40pt"
 viewBox="0.00 0.00 392.75 40.00" xmlns="http://www.w3.org/2000/svg" xmlns:xlink="http://www.w3.org/1999/xlink">
<g id="graph0" class="graph" transform="scale(1 1) rotate(0) translate(4 36)">
<title>Core Definitions</title>
<!-- Node1 -->
<g id="Node000001" class="node">
<title>Node1</title>
<g id="a_Node000001"><a xlink:title="Definitions for base addresses, unions, and structures.">
<polygon fill="#999999" stroke="#666666" points="225.5,-26 141.25,-26 141.25,-6 225.5,-6 225.5,-26"/>
<text text-anchor="middle" x="183.38" y="-12.5" font-family="Helvetica,sans-Serif" font-size="10.00">Core Definitions</text>
</a>
</g>
</g>
<!-- Node3 -->
<g id="Node000003" class="node">
<title>Node3</title>
<g id="a_Node000003"><a xlink:href="group___c_m_s_i_s__register__aliases.html" target="_top" xlink:title="Register alias definitions for backwards compatibility.">
<polygon fill="white" stroke="#666666" points="384.75,-32 261.5,-32 261.5,0 384.75,0 384.75,-32"/>
<text text-anchor="start" x="269.5" y="-18.5" font-family="Helvetica,sans-Serif" font-size="10.00">Backwards Compatibility</text>
<text text-anchor="middle" x="323.12" y="-6.5" font-family="Helvetica,sans-Serif" font-size="10.00"> Aliases</text>
</a>
</g>
</g>
<!-- Node1&#45;&gt;Node3 -->
<g id="edge2" class="edge">
<title>Node1&#45;&gt;Node3</title>
<path fill="none" stroke="black" d="M237.03,-16C244.94,-16 253.15,-16 261.22,-16"/>
<polygon fill="black" stroke="black" points="237.22,-12.5 227.22,-16 237.22,-19.5 237.22,-12.5"/>
</g>
<!-- Node2 -->
<g id="Node000002" class="node">
<title>Node2</title>
<g id="a_Node000002"><a xlink:href="group___c_m_s_i_s__core__bitfield.html" target="_top" xlink:title="Macros for use with bit field definitions (xxx_Pos, xxx_Msk).">
<polygon fill="white" stroke="#666666" points="105.25,-32 0,-32 0,0 105.25,0 105.25,-32"/>
<text text-anchor="start" x="8" y="-18.5" font-family="Helvetica,sans-Serif" font-size="10.00">Core register bit field</text>
<text text-anchor="middle" x="52.62" y="-6.5" font-family="Helvetica,sans-Serif" font-size="10.00"> macros</text>
</a>
</g>
</g>
<!-- Node2&#45;&gt;Node1 -->
<g id="edge1" class="edge">
<title>Node2&#45;&gt;Node1</title>
<path fill="none" stroke="black" d="M117.01,-16C125.11,-16 133.24,-16 140.87,-16"/>
<polygon fill="black" stroke="black" points="117.14,-12.5 107.13,-16 117.13,-19.5 117.14,-12.5"/>
</g>
</g>
</svg>
