<?xml version="1.0" encoding="UTF-8" standalone="no"?>
<!DOCTYPE svg PUBLIC "-//W3C//DTD SVG 1.1//EN"
 "http://www.w3.org/Graphics/SVG/1.1/DTD/svg11.dtd">
<!-- Generated by graphviz version 9.0.0 (20230911.1827)
 -->
<!-- Title: HT32F54241 Starter kit exported constants Pages: 1 -->
<svg width="433pt" height="280pt"
 viewBox="0.00 0.00 433.25 280.00" xmlns="http://www.w3.org/2000/svg" xmlns:xlink="http://www.w3.org/1999/xlink">
<g id="graph0" class="graph" transform="scale(1 1) rotate(0) translate(4 276)">
<title>HT32F54241 Starter kit exported constants</title>
<!-- Node2 -->
<g id="Node000002" class="node">
<title>Node2</title>
<g id="a_Node000002"><a xlink:href="group___h_t32_f54241___d_v_b.html" target="_top" xlink:title=" ">
<polygon fill="white" stroke="#666666" points="96.25,-152 0,-152 0,-132 96.25,-132 96.25,-152"/>
<text text-anchor="middle" x="48.12" y="-138.5" font-family="Helvetica,sans-Serif" font-size="10.00">HT32F54241_DVB</text>
</a>
</g>
</g>
<!-- Node1 -->
<g id="Node000001" class="node">
<title>Node1</title>
<g id="a_Node000001"><a xlink:title=" ">
<polygon fill="#999999" stroke="#666666" points="248,-158 132.25,-158 132.25,-126 248,-126 248,-158"/>
<text text-anchor="start" x="140.25" y="-144.5" font-family="Helvetica,sans-Serif" font-size="10.00">HT32F54241 Starter</text>
<text text-anchor="middle" x="190.12" y="-132.5" font-family="Helvetica,sans-Serif" font-size="10.00"> kit exported constants</text>
</a>
</g>
</g>
<!-- Node2&#45;&gt;Node1 -->
<g id="edge1" class="edge">
<title>Node2&#45;&gt;Node1</title>
<path fill="none" stroke="black" d="M108.01,-142C115.98,-142 124.14,-142 132.08,-142"/>
<polygon fill="black" stroke="black" points="108.04,-138.5 98.04,-142 108.04,-145.5 108.04,-138.5"/>
</g>
<!-- Node4 -->
<g id="Node000004" class="node">
<title>Node4</title>
<g id="a_Node000004"><a xlink:href="group___h_t32_f54241___d_v_b___b_u_t_t_o_n.html" target="_top" xlink:title=" ">
<polygon fill="white" stroke="#666666" points="424.5,-272 284.75,-272 284.75,-252 424.5,-252 424.5,-272"/>
<text text-anchor="middle" x="354.62" y="-258.5" font-family="Helvetica,sans-Serif" font-size="10.00">HT32F54241_DVB_BUTTON</text>
</a>
</g>
</g>
<!-- Node5 -->
<g id="Node000005" class="node">
<title>Node5</title>
<g id="a_Node000005"><a xlink:href="group___h_t32_f54241___d_v_b___b_u_z_z_e_r.html" target="_top" xlink:title=" ">
<polygon fill="white" stroke="#666666" points="424.12,-234 285.12,-234 285.12,-214 424.12,-214 424.12,-234"/>
<text text-anchor="middle" x="354.62" y="-220.5" font-family="Helvetica,sans-Serif" font-size="10.00">HT32F54241_DVB_BUZZER</text>
</a>
</g>
</g>
<!-- Node6 -->
<g id="Node000006" class="node">
<title>Node6</title>
<g id="a_Node000006"><a xlink:href="group___h_t32_f54241___d_v_b___c_o_m.html" target="_top" xlink:title=" ">
<polygon fill="white" stroke="#666666" points="416.62,-196 292.62,-196 292.62,-176 416.62,-176 416.62,-196"/>
<text text-anchor="middle" x="354.62" y="-182.5" font-family="Helvetica,sans-Serif" font-size="10.00">HT32F54241_DVB_COM</text>
</a>
</g>
</g>
<!-- Node1&#45;&gt;Node4 -->
<g id="edge3" class="edge">
<title>Node1&#45;&gt;Node4</title>
<path fill="none" stroke="black" d="M208.12,-167.46C224.8,-190.5 252.31,-223.71 284,-243 289.67,-246.45 295.98,-249.29 302.42,-251.62"/>
<polygon fill="black" stroke="black" points="211.14,-165.67 202.52,-159.51 205.42,-169.7 211.14,-165.67"/>
</g>
<!-- Node1&#45;&gt;Node5 -->
<g id="edge4" class="edge">
<title>Node1&#45;&gt;Node5</title>
<path fill="none" stroke="black" d="M219.63,-164.98C237.29,-178.26 260.94,-194.39 284,-205 291.17,-208.3 299.03,-211.13 306.8,-213.51"/>
<polygon fill="black" stroke="black" points="222.24,-162.57 212.18,-159.26 217.98,-168.12 222.24,-162.57"/>
</g>
<!-- Node1&#45;&gt;Node6 -->
<g id="edge5" class="edge">
<title>Node1&#45;&gt;Node6</title>
<path fill="none" stroke="black" d="M259.48,-160.51C278.51,-165.66 298.51,-171.08 315.16,-175.58"/>
<polygon fill="black" stroke="black" points="260.44,-157.14 249.88,-157.91 258.62,-163.9 260.44,-157.14"/>
</g>
<!-- Node9 -->
<g id="Node000009" class="node">
<title>Node9</title>
<g id="a_Node000009"><a xlink:href="group___h_t32_f54241___d_v_b___i2_c___e_e_p_r_o_m.html" target="_top" xlink:title=" ">
<polygon fill="white" stroke="#666666" points="412.5,-158 296.75,-158 296.75,-126 412.5,-126 412.5,-158"/>
<text text-anchor="start" x="304.75" y="-144.5" font-family="Helvetica,sans-Serif" font-size="10.00">HT32F54241_DVB_I2C</text>
<text text-anchor="middle" x="354.62" y="-132.5" font-family="Helvetica,sans-Serif" font-size="10.00">_EEPROM</text>
</a>
</g>
</g>
<!-- Node1&#45;&gt;Node9 -->
<g id="edge8" class="edge">
<title>Node1&#45;&gt;Node9</title>
<path fill="none" stroke="black" d="M259.89,-142C272.02,-142 284.53,-142 296.3,-142"/>
<polygon fill="black" stroke="black" points="259.93,-138.5 249.93,-142 259.93,-145.5 259.93,-138.5"/>
</g>
<!-- Node3 -->
<g id="Node000003" class="node">
<title>Node3</title>
<g id="a_Node000003"><a xlink:href="group___h_t32_f54241___d_v_b___l_e_d.html" target="_top" xlink:title=" ">
<polygon fill="white" stroke="#666666" points="414.75,-108 294.5,-108 294.5,-88 414.75,-88 414.75,-108"/>
<text text-anchor="middle" x="354.62" y="-94.5" font-family="Helvetica,sans-Serif" font-size="10.00">HT32F54241_DVB_LED</text>
</a>
</g>
</g>
<!-- Node1&#45;&gt;Node3 -->
<g id="edge2" class="edge">
<title>Node1&#45;&gt;Node3</title>
<path fill="none" stroke="black" d="M259.48,-123.49C278.51,-118.34 298.51,-112.92 315.16,-108.42"/>
<polygon fill="black" stroke="black" points="258.62,-120.1 249.88,-126.09 260.44,-126.86 258.62,-120.1"/>
</g>
<!-- Node7 -->
<g id="Node000007" class="node">
<title>Node7</title>
<g id="a_Node000007"><a xlink:href="group___h_t32_f54241___d_v_b___s_p_i___f_l_a_s_h.html" target="_top" xlink:title=" ">
<polygon fill="white" stroke="#666666" points="413.25,-70 296,-70 296,-38 413.25,-38 413.25,-70"/>
<text text-anchor="start" x="304" y="-56.5" font-family="Helvetica,sans-Serif" font-size="10.00">HT32F54241_DVB_SPI</text>
<text text-anchor="middle" x="354.62" y="-44.5" font-family="Helvetica,sans-Serif" font-size="10.00">_FLASH</text>
</a>
</g>
</g>
<!-- Node1&#45;&gt;Node7 -->
<g id="edge6" class="edge">
<title>Node1&#45;&gt;Node7</title>
<path fill="none" stroke="black" d="M221.14,-118.8C238.77,-105.91 261.87,-90.25 284,-79 290.07,-75.91 296.61,-73.04 303.16,-70.41"/>
<polygon fill="black" stroke="black" points="219.1,-115.95 213.16,-124.73 223.27,-121.57 219.1,-115.95"/>
</g>
<!-- Node8 -->
<g id="Node000008" class="node">
<title>Node8</title>
<g id="a_Node000008"><a xlink:href="group___h_t32_f54241___d_v_b___s_p_i___l_c_d.html" target="_top" xlink:title=" ">
<polygon fill="white" stroke="#666666" points="425.25,-20 284,-20 284,0 425.25,0 425.25,-20"/>
<text text-anchor="middle" x="354.62" y="-6.5" font-family="Helvetica,sans-Serif" font-size="10.00">HT32F54241_DVB_SPI_LCD</text>
</a>
</g>
</g>
<!-- Node1&#45;&gt;Node8 -->
<g id="edge7" class="edge">
<title>Node1&#45;&gt;Node8</title>
<path fill="none" stroke="black" d="M205.87,-115.97C221.85,-90.11 249.72,-51.2 284,-29 289.26,-25.59 295.12,-22.8 301.15,-20.49"/>
<polygon fill="black" stroke="black" points="202.87,-114.16 200.74,-124.54 208.88,-117.76 202.87,-114.16"/>
</g>
</g>
</svg>
