<?xml version="1.0" encoding="UTF-8" standalone="no"?>
<!DOCTYPE svg PUBLIC "-//W3C//DTD SVG 1.1//EN"
 "http://www.w3.org/Graphics/SVG/1.1/DTD/svg11.dtd">
<!-- Generated by graphviz version 9.0.0 (20230911.1827)
 -->
<!-- Title: HT32F0006_DVB Pages: 1 -->
<svg width="371pt" height="90pt"
 viewBox="0.00 0.00 371.00 90.00" xmlns="http://www.w3.org/2000/svg" xmlns:xlink="http://www.w3.org/1999/xlink">
<g id="graph0" class="graph" transform="scale(1 1) rotate(0) translate(4 86)">
<title>HT32F0006_DVB</title>
<!-- Node1 -->
<g id="Node000001" class="node">
<title>Node1</title>
<g id="a_Node000001"><a xlink:title=" ">
<polygon fill="#999999" stroke="#666666" points="196.25,-51 105.25,-51 105.25,-31 196.25,-31 196.25,-51"/>
<text text-anchor="middle" x="150.75" y="-37.5" font-family="Helvetica,sans-Serif" font-size="10.00">HT32F0006_DVB</text>
</a>
</g>
</g>
<!-- Node3 -->
<g id="Node000003" class="node">
<title>Node3</title>
<g id="a_Node000003"><a xlink:href="group___h_t32_f0006___d_v_b___exported___constants.html" target="_top" xlink:title=" ">
<polygon fill="white" stroke="#666666" points="363,-82 232.25,-82 232.25,-50 363,-50 363,-82"/>
<text text-anchor="start" x="240.25" y="-68.5" font-family="Helvetica,sans-Serif" font-size="10.00">HT32F0006 Development</text>
<text text-anchor="middle" x="297.62" y="-56.5" font-family="Helvetica,sans-Serif" font-size="10.00"> Board exported constants</text>
</a>
</g>
</g>
<!-- Node1&#45;&gt;Node3 -->
<g id="edge2" class="edge">
<title>Node1&#45;&gt;Node3</title>
<path fill="none" stroke="black" d="M207.74,-50.66C215.65,-52.03 223.83,-53.44 231.88,-54.83"/>
<polygon fill="black" stroke="black" points="208.34,-47.21 197.89,-48.96 207.15,-54.11 208.34,-47.21"/>
</g>
<!-- Node4 -->
<g id="Node000004" class="node">
<title>Node4</title>
<g id="a_Node000004"><a xlink:href="group___h_t32_f0006___d_v_b___exported___functions.html" target="_top" xlink:title=" ">
<polygon fill="white" stroke="#666666" points="362.25,-32 233,-32 233,0 362.25,0 362.25,-32"/>
<text text-anchor="start" x="241" y="-18.5" font-family="Helvetica,sans-Serif" font-size="10.00">HT32F52230 Development</text>
<text text-anchor="middle" x="297.62" y="-6.5" font-family="Helvetica,sans-Serif" font-size="10.00"> Board exported functions</text>
</a>
</g>
</g>
<!-- Node1&#45;&gt;Node4 -->
<g id="edge3" class="edge">
<title>Node1&#45;&gt;Node4</title>
<path fill="none" stroke="black" d="M207.72,-31.34C215.89,-29.93 224.36,-28.47 232.68,-27.03"/>
<polygon fill="black" stroke="black" points="207.15,-27.89 197.89,-33.04 208.34,-34.79 207.15,-27.89"/>
</g>
<!-- Node2 -->
<g id="Node000002" class="node">
<title>Node2</title>
<g id="a_Node000002"><a xlink:href="group___h_t32___board.html" target="_top" xlink:title=" ">
<polygon fill="white" stroke="#666666" points="69.25,-51 0,-51 0,-31 69.25,-31 69.25,-51"/>
<text text-anchor="middle" x="34.62" y="-37.5" font-family="Helvetica,sans-Serif" font-size="10.00">HT32_Board</text>
</a>
</g>
</g>
<!-- Node2&#45;&gt;Node1 -->
<g id="edge1" class="edge">
<title>Node2&#45;&gt;Node1</title>
<path fill="none" stroke="black" d="M80.94,-41C88.91,-41 97.21,-41 105.16,-41"/>
<polygon fill="black" stroke="black" points="81.07,-37.5 71.07,-41 81.07,-44.5 81.07,-37.5"/>
</g>
</g>
</svg>
