<?xml version="1.0" encoding="UTF-8" standalone="no"?>
<!DOCTYPE svg PUBLIC "-//W3C//DTD SVG 1.1//EN"
 "http://www.w3.org/Graphics/SVG/1.1/DTD/svg11.dtd">
<!-- Generated by graphviz version 9.0.0 (20230911.1827)
 -->
<!-- Title: TM exported constants Pages: 1 -->
<svg width="351pt" height="142pt"
 viewBox="0.00 0.00 350.75 142.00" xmlns="http://www.w3.org/2000/svg" xmlns:xlink="http://www.w3.org/1999/xlink">
<g id="graph0" class="graph" transform="scale(1 1) rotate(0) translate(4 138)">
<title>TM exported constants</title>
<!-- Node2 -->
<g id="Node000002" class="node">
<title>Node2</title>
<g id="a_Node000002"><a xlink:href="group___t_m.html" target="_top" xlink:title="TM driver modules.">
<polygon fill="white" stroke="#666666" points="29.5,-77 0,-77 0,-57 29.5,-57 29.5,-77"/>
<text text-anchor="middle" x="14.75" y="-63.5" font-family="Helvetica,sans-Serif" font-size="10.00">TM</text>
</a>
</g>
</g>
<!-- Node1 -->
<g id="Node000001" class="node">
<title>Node1</title>
<g id="a_Node000001"><a xlink:title=" ">
<polygon fill="#999999" stroke="#666666" points="181.25,-77 65.5,-77 65.5,-57 181.25,-57 181.25,-77"/>
<text text-anchor="middle" x="123.38" y="-63.5" font-family="Helvetica,sans-Serif" font-size="10.00">TM exported constants</text>
</a>
</g>
</g>
<!-- Node2&#45;&gt;Node1 -->
<g id="edge1" class="edge">
<title>Node2&#45;&gt;Node1</title>
<path fill="none" stroke="black" d="M41.06,-67C48.47,-67 56.89,-67 65.44,-67"/>
<polygon fill="black" stroke="black" points="41.2,-63.5 31.2,-67 41.2,-70.5 41.2,-63.5"/>
</g>
<!-- Node6 -->
<g id="Node000006" class="node">
<title>Node6</title>
<g id="a_Node000006"><a xlink:href="group___t_m___check___parameter.html" target="_top" xlink:title=" ">
<polygon fill="white" stroke="#666666" points="325.12,-134 234.88,-134 234.88,-114 325.12,-114 325.12,-134"/>
<text text-anchor="middle" x="280" y="-120.5" font-family="Helvetica,sans-Serif" font-size="10.00">Check parameter</text>
</a>
</g>
</g>
<!-- Node4 -->
<g id="Node000004" class="node">
<title>Node4</title>
<g id="a_Node000004"><a xlink:href="group___t_m___e_v_e_n_t.html" target="_top" xlink:title=" ">
<polygon fill="white" stroke="#666666" points="342.75,-96 217.25,-96 217.25,-76 342.75,-76 342.75,-96"/>
<text text-anchor="middle" x="280" y="-82.5" font-family="Helvetica,sans-Serif" font-size="10.00">Definitions of TM_EVENT</text>
</a>
</g>
</g>
<!-- Node1&#45;&gt;Node6 -->
<g id="edge5" class="edge">
<title>Node1&#45;&gt;Node6</title>
<path fill="none" stroke="black" d="M158.46,-81.8C175.9,-89.16 197.55,-97.96 217.25,-105 225.59,-107.98 234.67,-110.94 243.23,-113.59"/>
<polygon fill="black" stroke="black" points="160.16,-78.73 149.59,-78.03 157.42,-85.17 160.16,-78.73"/>
</g>
<!-- Node1&#45;&gt;Node4 -->
<g id="edge3" class="edge">
<title>Node1&#45;&gt;Node4</title>
<path fill="none" stroke="black" d="M192.75,-75.4C200.79,-76.39 208.96,-77.39 216.9,-78.37"/>
<polygon fill="black" stroke="black" points="193.37,-71.95 183.01,-74.21 192.51,-78.9 193.37,-71.95"/>
</g>
<!-- Node5 -->
<g id="Node000005" class="node">
<title>Node5</title>
<g id="a_Node000005"><a xlink:href="group___t_m___f_l_a_g.html" target="_top" xlink:title=" ">
<polygon fill="white" stroke="#666666" points="339.38,-58 220.62,-58 220.62,-38 339.38,-38 339.38,-58"/>
<text text-anchor="middle" x="280" y="-44.5" font-family="Helvetica,sans-Serif" font-size="10.00">Definitions of TM_FLAG</text>
</a>
</g>
</g>
<!-- Node1&#45;&gt;Node5 -->
<g id="edge4" class="edge">
<title>Node1&#45;&gt;Node5</title>
<path fill="none" stroke="black" d="M192.64,-58.61C201.86,-57.48 211.25,-56.32 220.29,-55.21"/>
<polygon fill="black" stroke="black" points="192.51,-55.1 183.01,-59.79 193.37,-62.05 192.51,-55.1"/>
</g>
<!-- Node3 -->
<g id="Node000003" class="node">
<title>Node3</title>
<g id="a_Node000003"><a xlink:href="group___t_m___i_n_t.html" target="_top" xlink:title=" ">
<polygon fill="white" stroke="#666666" points="333.75,-20 226.25,-20 226.25,0 333.75,0 333.75,-20"/>
<text text-anchor="middle" x="280" y="-6.5" font-family="Helvetica,sans-Serif" font-size="10.00">Definitions of TM_INT</text>
</a>
</g>
</g>
<!-- Node1&#45;&gt;Node3 -->
<g id="edge2" class="edge">
<title>Node1&#45;&gt;Node3</title>
<path fill="none" stroke="black" d="M158.46,-52.2C175.9,-44.84 197.55,-36.04 217.25,-29 225.59,-26.02 234.67,-23.06 243.23,-20.41"/>
<polygon fill="black" stroke="black" points="157.42,-48.83 149.59,-55.97 160.16,-55.27 157.42,-48.83"/>
</g>
</g>
</svg>
