<?xml version="1.0" encoding="UTF-8" standalone="no"?>
<!DOCTYPE svg PUBLIC "-//W3C//DTD SVG 1.1//EN"
 "http://www.w3.org/Graphics/SVG/1.1/DTD/svg11.dtd">
<!-- Generated by graphviz version 9.0.0 (20230911.1827)
 -->
<!-- Title: SLED Pages: 1 -->
<svg width="367pt" height="104pt"
 viewBox="0.00 0.00 366.50 104.00" xmlns="http://www.w3.org/2000/svg" xmlns:xlink="http://www.w3.org/1999/xlink">
<g id="graph0" class="graph" transform="scale(1 1) rotate(0) translate(4 100)">
<title>SLED</title>
<!-- Node2 -->
<g id="Node000002" class="node">
<title>Node2</title>
<g id="a_Node000002"><a xlink:href="group___h_t32_f5xxxx___peripheral___driver.html" target="_top" xlink:title=" ">
<polygon fill="white" stroke="#666666" points="117.25,-64 0,-64 0,-32 117.25,-32 117.25,-64"/>
<text text-anchor="start" x="8" y="-50.5" font-family="Helvetica,sans-Serif" font-size="10.00">HT32F5xxxx Peripheral</text>
<text text-anchor="middle" x="58.62" y="-38.5" font-family="Helvetica,sans-Serif" font-size="10.00"> Driver</text>
</a>
</g>
</g>
<!-- Node1 -->
<g id="Node000001" class="node">
<title>Node1</title>
<g id="a_Node000001"><a xlink:title="SLED driver modules.">
<polygon fill="#999999" stroke="#666666" points="194.75,-58 153.25,-58 153.25,-38 194.75,-38 194.75,-58"/>
<text text-anchor="middle" x="174" y="-44.5" font-family="Helvetica,sans-Serif" font-size="10.00">SLED</text>
</a>
</g>
</g>
<!-- Node2&#45;&gt;Node1 -->
<g id="edge1" class="edge">
<title>Node2&#45;&gt;Node1</title>
<path fill="none" stroke="black" d="M129.1,-48C137.69,-48 145.86,-48 152.78,-48"/>
<polygon fill="black" stroke="black" points="129.15,-44.5 119.15,-48 129.15,-51.5 129.15,-44.5"/>
</g>
<!-- Node4 -->
<g id="Node000004" class="node">
<title>Node4</title>
<g id="a_Node000004"><a xlink:href="group___s_l_e_d___exported___constants.html" target="_top" xlink:title=" ">
<polygon fill="white" stroke="#666666" points="358.5,-96 230.75,-96 230.75,-76 358.5,-76 358.5,-96"/>
<text text-anchor="middle" x="294.62" y="-82.5" font-family="Helvetica,sans-Serif" font-size="10.00">SLED exported constants</text>
</a>
</g>
</g>
<!-- Node1&#45;&gt;Node4 -->
<g id="edge3" class="edge">
<title>Node1&#45;&gt;Node4</title>
<path fill="none" stroke="black" d="M205.92,-58.75C213.99,-61.5 222.68,-64.41 230.75,-67 239.65,-69.86 249.3,-72.84 258.31,-75.56"/>
<polygon fill="black" stroke="black" points="207.1,-55.46 196.5,-55.52 204.83,-62.08 207.1,-55.46"/>
</g>
<!-- Node5 -->
<g id="Node000005" class="node">
<title>Node5</title>
<g id="a_Node000005"><a xlink:href="group___s_l_e_d___exported___functions.html" target="_top" xlink:title=" ">
<polygon fill="white" stroke="#666666" points="356.62,-58 232.62,-58 232.62,-38 356.62,-38 356.62,-58"/>
<text text-anchor="middle" x="294.62" y="-44.5" font-family="Helvetica,sans-Serif" font-size="10.00">SLED exported functions</text>
</a>
</g>
</g>
<!-- Node1&#45;&gt;Node5 -->
<g id="edge4" class="edge">
<title>Node1&#45;&gt;Node5</title>
<path fill="none" stroke="black" d="M206.46,-48C214.44,-48 223.28,-48 232.2,-48"/>
<polygon fill="black" stroke="black" points="206.64,-44.5 196.64,-48 206.64,-51.5 206.64,-44.5"/>
</g>
<!-- Node3 -->
<g id="Node000003" class="node">
<title>Node3</title>
<g id="a_Node000003"><a xlink:href="group___s_l_e_d___exported___types.html" target="_top" xlink:title=" ">
<polygon fill="white" stroke="#666666" points="349.12,-20 240.12,-20 240.12,0 349.12,0 349.12,-20"/>
<text text-anchor="middle" x="294.62" y="-6.5" font-family="Helvetica,sans-Serif" font-size="10.00">SLED exported types</text>
</a>
</g>
</g>
<!-- Node1&#45;&gt;Node3 -->
<g id="edge2" class="edge">
<title>Node1&#45;&gt;Node3</title>
<path fill="none" stroke="black" d="M205.92,-37.25C213.99,-34.5 222.68,-31.59 230.75,-29 239.65,-26.14 249.3,-23.16 258.31,-20.44"/>
<polygon fill="black" stroke="black" points="204.83,-33.92 196.5,-40.48 207.1,-40.54 204.83,-33.92"/>
</g>
</g>
</svg>
