<?xml version="1.0" encoding="UTF-8" standalone="no"?>
<!DOCTYPE svg PUBLIC "-//W3C//DTD SVG 1.1//EN"
 "http://www.w3.org/Graphics/SVG/1.1/DTD/svg11.dtd">
<!-- Generated by graphviz version 9.0.0 (20230911.1827)
 -->
<!-- Title: Virtual_COM Pages: 1 -->
<svg width="429pt" height="30pt"
 viewBox="0.00 0.00 429.00 30.00" xmlns="http://www.w3.org/2000/svg" xmlns:xlink="http://www.w3.org/1999/xlink">
<g id="graph0" class="graph" transform="scale(1 1) rotate(0) translate(4 26)">
<title>Virtual_COM</title>
<!-- Node3 -->
<g id="Node000003" class="node">
<title>Node3</title>
<g id="a_Node000003"><a xlink:href="group___h_i_d___keyboard___virtual___c_o_m.html" target="_top" xlink:title=" ">
<polygon fill="white" stroke="#666666" points="421,-20 282,-20 282,0 421,0 421,-20"/>
<text text-anchor="middle" x="351.5" y="-6.5" font-family="Helvetica,sans-Serif" font-size="10.00">HID_Keyboard_Virtual_COM</text>
</a>
</g>
</g>
<!-- Node2 -->
<g id="Node000002" class="node">
<title>Node2</title>
<g id="a_Node000002"><a xlink:href="group___u_s_b_d___examples.html" target="_top" xlink:title=" ">
<polygon fill="white" stroke="#666666" points="43,-20 0,-20 0,0 43,0 43,-20"/>
<text text-anchor="middle" x="21.5" y="-6.5" font-family="Helvetica,sans-Serif" font-size="10.00">USBD</text>
</a>
</g>
</g>
<!-- Node1 -->
<g id="Node000001" class="node">
<title>Node1</title>
<g id="a_Node000001"><a xlink:title=" ">
<polygon fill="#999999" stroke="#666666" points="151.5,-20 80,-20 80,0 151.5,0 151.5,-20"/>
<text text-anchor="middle" x="115.75" y="-6.5" font-family="Helvetica,sans-Serif" font-size="10.00">Virtual_COM</text>
</a>
</g>
</g>
<!-- Node2&#45;&gt;Node1 -->
<g id="edge1" class="edge">
<title>Node2&#45;&gt;Node1</title>
<path fill="none" stroke="black" d="M54.72,-10C62.82,-10 71.56,-10 79.79,-10"/>
<polygon fill="black" stroke="black" points="54.95,-6.5 44.95,-10 54.95,-13.5 54.95,-6.5"/>
</g>
<!-- Node1&#45;&gt;Node3 -->
<g id="edge2" class="edge">
<title>Node1&#45;&gt;Node3</title>
<path fill="none" stroke="orange" stroke-dasharray="5,2" d="M152,-10C186.18,-10 238.96,-10 281.51,-10"/>
<text text-anchor="middle" x="216.75" y="-12.5" font-family="Helvetica,sans-Serif" font-size="10.00">_VCP_LINE_CODING</text>
</g>
</g>
</svg>
