<?xml version="1.0" encoding="UTF-8" standalone="no"?>
<!DOCTYPE svg PUBLIC "-//W3C//DTD SVG 1.1//EN"
 "http://www.w3.org/Graphics/SVG/1.1/DTD/svg11.dtd">
<!-- Generated by graphviz version 9.0.0 (20230911.1827)
 -->
<!-- Title: HT32 USB Device Library Pages: 1 -->
<svg width="265pt" height="104pt"
 viewBox="0.00 0.00 265.00 104.00" xmlns="http://www.w3.org/2000/svg" xmlns:xlink="http://www.w3.org/1999/xlink">
<g id="graph0" class="graph" transform="scale(1 1) rotate(0) translate(4 100)">
<title>HT32 USB Device Library</title>
<!-- Node1 -->
<g id="Node000001" class="node">
<title>Node1</title>
<g id="a_Node000001"><a xlink:title=" ">
<polygon fill="#999999" stroke="#666666" points="125.5,-58 0,-58 0,-38 125.5,-38 125.5,-58"/>
<text text-anchor="middle" x="62.75" y="-44.5" font-family="Helvetica,sans-Serif" font-size="10.00">HT32 USB Device Library</text>
</a>
</g>
</g>
<!-- Node2 -->
<g id="Node000002" class="node">
<title>Node2</title>
<g id="a_Node000002"><a xlink:href="group___u_s_b_d_class.html" target="_top" xlink:title="USB Device Class.">
<polygon fill="white" stroke="#666666" points="257,-96 161.5,-96 161.5,-76 257,-76 257,-96"/>
<text text-anchor="middle" x="209.25" y="-82.5" font-family="Helvetica,sans-Serif" font-size="10.00">USB Device Class</text>
</a>
</g>
</g>
<!-- Node1&#45;&gt;Node2 -->
<g id="edge1" class="edge">
<title>Node1&#45;&gt;Node2</title>
<path fill="none" stroke="black" d="M114.63,-61.38C132.31,-66.03 151.87,-71.17 168.51,-75.55"/>
<polygon fill="black" stroke="black" points="115.64,-58.03 105.08,-58.87 113.86,-64.8 115.64,-58.03"/>
</g>
<!-- Node4 -->
<g id="Node000004" class="node">
<title>Node4</title>
<g id="a_Node000004"><a xlink:href="group___u_s_b_d_core.html" target="_top" xlink:title="USB Device Core standard protocol related function.">
<polygon fill="white" stroke="#666666" points="254.75,-58 163.75,-58 163.75,-38 254.75,-38 254.75,-58"/>
<text text-anchor="middle" x="209.25" y="-44.5" font-family="Helvetica,sans-Serif" font-size="10.00">USB Device Core</text>
</a>
</g>
</g>
<!-- Node1&#45;&gt;Node4 -->
<g id="edge3" class="edge">
<title>Node1&#45;&gt;Node4</title>
<path fill="none" stroke="black" d="M137.25,-48C146.26,-48 155.24,-48 163.63,-48"/>
<polygon fill="black" stroke="black" points="137.38,-44.5 127.38,-48 137.38,-51.5 137.38,-44.5"/>
</g>
<!-- Node3 -->
<g id="Node000003" class="node">
<title>Node3</title>
<g id="a_Node000003"><a xlink:href="group___u_s_b_d_descriptor.html" target="_top" xlink:title="USB descriptor.">
<polygon fill="white" stroke="#666666" points="251,-20 167.5,-20 167.5,0 251,0 251,-20"/>
<text text-anchor="middle" x="209.25" y="-6.5" font-family="Helvetica,sans-Serif" font-size="10.00">USB Descriptor</text>
</a>
</g>
</g>
<!-- Node1&#45;&gt;Node3 -->
<g id="edge2" class="edge">
<title>Node1&#45;&gt;Node3</title>
<path fill="none" stroke="black" d="M114.63,-34.62C132.31,-29.97 151.87,-24.83 168.51,-20.45"/>
<polygon fill="black" stroke="black" points="113.86,-31.2 105.08,-37.13 115.64,-37.97 113.86,-31.2"/>
</g>
</g>
</svg>
