<?xml version="1.0" encoding="UTF-8" standalone="no"?>
<!DOCTYPE svg PUBLIC "-//W3C//DTD SVG 1.1//EN"
 "http://www.w3.org/Graphics/SVG/1.1/DTD/svg11.dtd">
<!-- Generated by graphviz version 9.0.0 (20230911.1827)
 -->
<!-- Title: Implementation Control Block register (ICB) Pages: 1 -->
<svg width="408pt" height="40pt"
 viewBox="0.00 0.00 407.75 40.00" xmlns="http://www.w3.org/2000/svg" xmlns:xlink="http://www.w3.org/1999/xlink">
<g id="graph0" class="graph" transform="scale(1 1) rotate(0) translate(4 36)">
<title>Implementation Control Block register (ICB)</title>
<!-- Node1 -->
<g id="Node000001" class="node">
<title>Node1</title>
<g id="a_Node000001"><a xlink:title="Type definitions for the Implementation Control Block Register.">
<polygon fill="#999999" stroke="#666666" points="263,-32 147.25,-32 147.25,0 263,0 263,-32"/>
<text text-anchor="start" x="155.25" y="-18.5" font-family="Helvetica,sans-Serif" font-size="10.00">Implementation Control</text>
<text text-anchor="middle" x="205.12" y="-6.5" font-family="Helvetica,sans-Serif" font-size="10.00"> Block register (ICB)</text>
</a>
</g>
</g>
<!-- Node3 -->
<g id="Node000003" class="node">
<title>Node3</title>
<g id="a_Node000003"><a xlink:href="group___c_m_s_i_s___sys_tick.html" target="_top" xlink:title="Type definitions for the System Timer Registers.">
<polygon fill="white" stroke="#666666" points="399.75,-32 299,-32 299,0 399.75,0 399.75,-32"/>
<text text-anchor="start" x="307" y="-18.5" font-family="Helvetica,sans-Serif" font-size="10.00">System Tick Timer </text>
<text text-anchor="middle" x="349.38" y="-6.5" font-family="Helvetica,sans-Serif" font-size="10.00">(SysTick)</text>
</a>
</g>
</g>
<!-- Node1&#45;&gt;Node3 -->
<g id="edge2" class="edge">
<title>Node1&#45;&gt;Node3</title>
<path fill="none" stroke="black" d="M274.57,-16C282.7,-16 290.87,-16 298.66,-16"/>
<polygon fill="black" stroke="black" points="274.68,-12.5 264.68,-16 274.68,-19.5 274.68,-12.5"/>
</g>
<!-- Node2 -->
<g id="Node000002" class="node">
<title>Node2</title>
<g id="a_Node000002"><a xlink:href="group___c_m_s_i_s___s_c_b.html" target="_top" xlink:title="Type definitions for the System Control Block Registers.">
<polygon fill="white" stroke="#666666" points="111.25,-32 0,-32 0,0 111.25,0 111.25,-32"/>
<text text-anchor="start" x="8" y="-18.5" font-family="Helvetica,sans-Serif" font-size="10.00">System Control Block</text>
<text text-anchor="middle" x="55.62" y="-6.5" font-family="Helvetica,sans-Serif" font-size="10.00"> (SCB)</text>
</a>
</g>
</g>
<!-- Node2&#45;&gt;Node1 -->
<g id="edge1" class="edge">
<title>Node2&#45;&gt;Node1</title>
<path fill="none" stroke="black" d="M122.89,-16C131,-16 139.23,-16 147.18,-16"/>
<polygon fill="black" stroke="black" points="123.06,-12.5 113.06,-16 123.06,-19.5 123.06,-12.5"/>
</g>
</g>
</svg>
