<?xml version="1.0" encoding="UTF-8" standalone="no"?>
<!DOCTYPE svg PUBLIC "-//W3C//DTD SVG 1.1//EN"
 "http://www.w3.org/Graphics/SVG/1.1/DTD/svg11.dtd">
<!-- Generated by graphviz version 9.0.0 (20230911.1827)
 -->
<!-- Title: Common Pages: 1 -->
<svg width="283pt" height="256pt"
 viewBox="0.00 0.00 283.25 256.00" xmlns="http://www.w3.org/2000/svg" xmlns:xlink="http://www.w3.org/1999/xlink">
<g id="graph0" class="graph" transform="scale(1 1) rotate(0) translate(4 252)">
<title>Common</title>
<!-- Node1 -->
<g id="Node000001" class="node">
<title>Node1</title>
<g id="a_Node000001"><a xlink:title=" ">
<polygon fill="#999999" stroke="#666666" points="139.25,-134 84.25,-134 84.25,-114 139.25,-114 139.25,-134"/>
<text text-anchor="middle" x="111.75" y="-120.5" font-family="Helvetica,sans-Serif" font-size="10.00">Common</text>
</a>
</g>
</g>
<!-- Node3 -->
<g id="Node000003" class="node">
<title>Node3</title>
<g id="a_Node000003"><a xlink:href="group___e_b_i___l_c_d.html" target="_top" xlink:title="This file provides a set of functions needed to manage the communication between EBI peripheral and L...">
<polygon fill="white" stroke="#666666" points="253.12,-248 197.38,-248 197.38,-228 253.12,-228 253.12,-248"/>
<text text-anchor="middle" x="225.25" y="-234.5" font-family="Helvetica,sans-Serif" font-size="10.00">EBI_LCD</text>
</a>
</g>
</g>
<!-- Node1&#45;&gt;Node3 -->
<g id="edge2" class="edge">
<title>Node1&#45;&gt;Node3</title>
<path fill="none" stroke="black" d="M121.64,-144.6C131.78,-165.9 150.25,-198.81 175.25,-219 181.57,-224.1 189.41,-227.95 196.96,-230.81"/>
<polygon fill="black" stroke="black" points="124.94,-143.41 117.61,-135.76 118.57,-146.31 124.94,-143.41"/>
</g>
<!-- Node4 -->
<g id="Node000004" class="node">
<title>Node4</title>
<g id="a_Node000004"><a xlink:href="group___f_o_n_t.html" target="_top" xlink:title="This file contains the font information.">
<polygon fill="white" stroke="#666666" points="243,-210 207.5,-210 207.5,-190 243,-190 243,-210"/>
<text text-anchor="middle" x="225.25" y="-196.5" font-family="Helvetica,sans-Serif" font-size="10.00">Font</text>
</a>
</g>
</g>
<!-- Node1&#45;&gt;Node4 -->
<g id="edge3" class="edge">
<title>Node1&#45;&gt;Node4</title>
<path fill="none" stroke="black" d="M129.26,-142.26C141.11,-154.5 157.97,-170.3 175.25,-181 185.18,-187.15 197.43,-191.9 207.2,-195.11"/>
<polygon fill="black" stroke="black" points="132.02,-140.08 122.62,-135.19 126.92,-144.87 132.02,-140.08"/>
</g>
<!-- Node5 -->
<g id="Node000005" class="node">
<title>Node5</title>
<g id="a_Node000005"><a xlink:href="group___i2_c___e_e_p_r_o_m.html" target="_top" xlink:title="The source file of i2c_eeprom.">
<polygon fill="white" stroke="#666666" points="264.38,-172 186.12,-172 186.12,-152 264.38,-152 264.38,-172"/>
<text text-anchor="middle" x="225.25" y="-158.5" font-family="Helvetica,sans-Serif" font-size="10.00">I2C_EEPROM</text>
</a>
</g>
</g>
<!-- Node1&#45;&gt;Node5 -->
<g id="edge4" class="edge">
<title>Node1&#45;&gt;Node5</title>
<path fill="none" stroke="black" d="M150.54,-136.88C164.55,-141.66 180.27,-147.01 193.57,-151.54"/>
<polygon fill="black" stroke="black" points="151.77,-133.6 141.17,-133.69 149.51,-140.23 151.77,-133.6"/>
</g>
<!-- Node6 -->
<g id="Node000006" class="node">
<title>Node6</title>
<g id="a_Node000006"><a xlink:href="group___r_i_n_g___b_u_f_f_e_r.html" target="_top" xlink:title="The source file of ring buffer.">
<polygon fill="white" stroke="#666666" points="267,-134 183.5,-134 183.5,-114 267,-114 267,-134"/>
<text text-anchor="middle" x="225.25" y="-120.5" font-family="Helvetica,sans-Serif" font-size="10.00">RING_BUFFER</text>
</a>
</g>
</g>
<!-- Node1&#45;&gt;Node6 -->
<g id="edge5" class="edge">
<title>Node1&#45;&gt;Node6</title>
<path fill="none" stroke="black" d="M150.98,-124C161.35,-124 172.62,-124 183.14,-124"/>
<polygon fill="black" stroke="black" points="151.25,-120.5 141.25,-124 151.25,-127.5 151.25,-120.5"/>
</g>
<!-- Node7 -->
<g id="Node000007" class="node">
<title>Node7</title>
<g id="a_Node000007"><a xlink:href="group___s_p_i___f_l_a_s_h.html" target="_top" xlink:title="This file provides a set of functions needed to manage the communication between SPI peripheral and S...">
<polygon fill="white" stroke="#666666" points="259.5,-96 191,-96 191,-76 259.5,-76 259.5,-96"/>
<text text-anchor="middle" x="225.25" y="-82.5" font-family="Helvetica,sans-Serif" font-size="10.00">SPI_FLASH</text>
</a>
</g>
</g>
<!-- Node1&#45;&gt;Node7 -->
<g id="edge6" class="edge">
<title>Node1&#45;&gt;Node7</title>
<path fill="none" stroke="black" d="M150.54,-111.12C164.55,-106.34 180.27,-100.99 193.57,-96.46"/>
<polygon fill="black" stroke="black" points="149.51,-107.77 141.17,-114.31 151.77,-114.4 149.51,-107.77"/>
</g>
<!-- Node8 -->
<g id="Node000008" class="node">
<title>Node8</title>
<g id="a_Node000008"><a xlink:href="group___s_p_i___f_l_a_s_h___a_u_t_o.html" target="_top" xlink:title="The SPI Flash Driver with auto detection function.">
<polygon fill="white" stroke="#666666" points="275.25,-58 175.25,-58 175.25,-38 275.25,-38 275.25,-58"/>
<text text-anchor="middle" x="225.25" y="-44.5" font-family="Helvetica,sans-Serif" font-size="10.00">SPI_FLASH_AUTO</text>
</a>
</g>
</g>
<!-- Node1&#45;&gt;Node8 -->
<g id="edge7" class="edge">
<title>Node1&#45;&gt;Node8</title>
<path fill="none" stroke="black" d="M129.26,-105.74C141.11,-93.5 157.97,-77.7 175.25,-67 180.52,-63.73 186.45,-60.86 192.32,-58.4"/>
<polygon fill="black" stroke="black" points="126.92,-103.13 122.62,-112.81 132.02,-107.92 126.92,-103.13"/>
</g>
<!-- Node9 -->
<g id="Node000009" class="node">
<title>Node9</title>
<g id="a_Node000009"><a xlink:href="group___s_p_i___l_c_d.html" target="_top" xlink:title="This file provides a set of functions needed to manage the communication between SPI peripheral and L...">
<polygon fill="white" stroke="#666666" points="253.12,-20 197.38,-20 197.38,0 253.12,0 253.12,-20"/>
<text text-anchor="middle" x="225.25" y="-6.5" font-family="Helvetica,sans-Serif" font-size="10.00">SPI_LCD</text>
</a>
</g>
</g>
<!-- Node1&#45;&gt;Node9 -->
<g id="edge8" class="edge">
<title>Node1&#45;&gt;Node9</title>
<path fill="none" stroke="black" d="M121.64,-103.4C131.78,-82.1 150.25,-49.19 175.25,-29 181.57,-23.9 189.41,-20.05 196.96,-17.19"/>
<polygon fill="black" stroke="black" points="118.57,-101.69 117.61,-112.24 124.94,-104.59 118.57,-101.69"/>
</g>
<!-- Node2 -->
<g id="Node000002" class="node">
<title>Node2</title>
<g id="a_Node000002"><a xlink:href="group___utilities.html" target="_top" xlink:title=" ">
<polygon fill="white" stroke="#666666" points="48.25,-134 0,-134 0,-114 48.25,-114 48.25,-134"/>
<text text-anchor="middle" x="24.12" y="-120.5" font-family="Helvetica,sans-Serif" font-size="10.00">Utilities</text>
</a>
</g>
</g>
<!-- Node2&#45;&gt;Node1 -->
<g id="edge1" class="edge">
<title>Node2&#45;&gt;Node1</title>
<path fill="none" stroke="black" d="M59.9,-124C67.96,-124 76.41,-124 84.05,-124"/>
<polygon fill="black" stroke="black" points="60.04,-120.5 50.04,-124 60.04,-127.5 60.04,-120.5"/>
</g>
</g>
</svg>
