<?xml version="1.0" encoding="UTF-8" standalone="no"?>
<!DOCTYPE svg PUBLIC "-//W3C//DTD SVG 1.1//EN"
 "http://www.w3.org/Graphics/SVG/1.1/DTD/svg11.dtd">
<!-- Generated by graphviz version 9.0.0 (20230911.1827)
 -->
<!-- Title: HT32F61355_SK Pages: 1 -->
<svg width="355pt" height="90pt"
 viewBox="0.00 0.00 354.50 90.00" xmlns="http://www.w3.org/2000/svg" xmlns:xlink="http://www.w3.org/1999/xlink">
<g id="graph0" class="graph" transform="scale(1 1) rotate(0) translate(4 86)">
<title>HT32F61355_SK</title>
<!-- Node1 -->
<g id="Node000001" class="node">
<title>Node1</title>
<g id="a_Node000001"><a xlink:title=" ">
<polygon fill="#999999" stroke="#666666" points="194.75,-51 105.25,-51 105.25,-31 194.75,-31 194.75,-51"/>
<text text-anchor="middle" x="150" y="-37.5" font-family="Helvetica,sans-Serif" font-size="10.00">HT32F61355_SK</text>
</a>
</g>
</g>
<!-- Node3 -->
<g id="Node000003" class="node">
<title>Node3</title>
<g id="a_Node000003"><a xlink:href="group___h_t32_f61355___s_k___exported___constants.html" target="_top" xlink:title=" ">
<polygon fill="white" stroke="#666666" points="346.5,-82 230.75,-82 230.75,-50 346.5,-50 346.5,-82"/>
<text text-anchor="start" x="238.75" y="-68.5" font-family="Helvetica,sans-Serif" font-size="10.00">HT32F61355 Starter</text>
<text text-anchor="middle" x="288.62" y="-56.5" font-family="Helvetica,sans-Serif" font-size="10.00"> kit exported constants</text>
</a>
</g>
</g>
<!-- Node1&#45;&gt;Node3 -->
<g id="edge2" class="edge">
<title>Node1&#45;&gt;Node3</title>
<path fill="none" stroke="black" d="M206.04,-51.07C214.01,-52.53 222.24,-54.03 230.25,-55.5"/>
<polygon fill="black" stroke="black" points="206.94,-47.68 196.47,-49.32 205.68,-54.56 206.94,-47.68"/>
</g>
<!-- Node4 -->
<g id="Node000004" class="node">
<title>Node4</title>
<g id="a_Node000004"><a xlink:href="group___h_t32_f61355___s_k___exported___functions.html" target="_top" xlink:title=" ">
<polygon fill="white" stroke="#666666" points="344.62,-32 232.62,-32 232.62,0 344.62,0 344.62,-32"/>
<text text-anchor="start" x="240.62" y="-18.5" font-family="Helvetica,sans-Serif" font-size="10.00">HT32F61355 Starter</text>
<text text-anchor="middle" x="288.62" y="-6.5" font-family="Helvetica,sans-Serif" font-size="10.00"> kit exported functions</text>
</a>
</g>
</g>
<!-- Node1&#45;&gt;Node4 -->
<g id="edge3" class="edge">
<title>Node1&#45;&gt;Node4</title>
<path fill="none" stroke="black" d="M206.08,-30.92C214.69,-29.34 223.6,-27.72 232.21,-26.14"/>
<polygon fill="black" stroke="black" points="205.68,-27.44 196.47,-32.68 206.94,-34.32 205.68,-27.44"/>
</g>
<!-- Node2 -->
<g id="Node000002" class="node">
<title>Node2</title>
<g id="a_Node000002"><a xlink:href="group___h_t32___board.html" target="_top" xlink:title=" ">
<polygon fill="white" stroke="#666666" points="69.25,-51 0,-51 0,-31 69.25,-31 69.25,-51"/>
<text text-anchor="middle" x="34.62" y="-37.5" font-family="Helvetica,sans-Serif" font-size="10.00">HT32_Board</text>
</a>
</g>
</g>
<!-- Node2&#45;&gt;Node1 -->
<g id="edge1" class="edge">
<title>Node2&#45;&gt;Node1</title>
<path fill="none" stroke="black" d="M80.93,-41C88.83,-41 97.05,-41 104.92,-41"/>
<polygon fill="black" stroke="black" points="81.15,-37.5 71.15,-41 81.15,-44.5 81.15,-37.5"/>
</g>
</g>
</svg>
