<?xml version="1.0" encoding="UTF-8" standalone="no"?>
<!DOCTYPE svg PUBLIC "-//W3C//DTD SVG 1.1//EN"
 "http://www.w3.org/Graphics/SVG/1.1/DTD/svg11.dtd">
<!-- Generated by graphviz version 9.0.0 (20230911.1827)
 -->
<!-- Title: CMSIS Core Register Access Functions Pages: 1 -->
<svg width="436pt" height="90pt"
 viewBox="0.00 0.00 435.50 90.00" xmlns="http://www.w3.org/2000/svg" xmlns:xlink="http://www.w3.org/1999/xlink">
<g id="graph0" class="graph" transform="scale(1 1) rotate(0) translate(4 86)">
<title>CMSIS Core Register Access Functions</title>
<!-- Node3 -->
<g id="Node000003" class="node">
<title>Node3</title>
<g id="a_Node000003"><a xlink:href="group___c_m_s_i_s___core___function_interface.html" target="_top" xlink:title=" ">
<polygon fill="white" stroke="#666666" points="130.75,-82 0,-82 0,-50 130.75,-50 130.75,-82"/>
<text text-anchor="start" x="8" y="-68.5" font-family="Helvetica,sans-Serif" font-size="10.00">Functions and Instructions</text>
<text text-anchor="middle" x="65.38" y="-56.5" font-family="Helvetica,sans-Serif" font-size="10.00"> Reference</text>
</a>
</g>
</g>
<!-- Node1 -->
<g id="Node000001" class="node">
<title>Node1</title>
<g id="a_Node000001"><a xlink:title=" ">
<polygon fill="#999999" stroke="#666666" points="275.75,-57 166.75,-57 166.75,-25 275.75,-25 275.75,-57"/>
<text text-anchor="start" x="174.75" y="-43.5" font-family="Helvetica,sans-Serif" font-size="10.00">CMSIS Core Register</text>
<text text-anchor="middle" x="221.25" y="-31.5" font-family="Helvetica,sans-Serif" font-size="10.00"> Access Functions</text>
</a>
</g>
</g>
<!-- Node3&#45;&gt;Node1 -->
<g id="edge2" class="edge">
<title>Node3&#45;&gt;Node1</title>
<path fill="none" stroke="black" d="M142.35,-53.66C150.58,-52.32 158.81,-50.98 166.69,-49.7"/>
<polygon fill="black" stroke="black" points="141.99,-50.17 132.68,-55.23 143.11,-57.08 141.99,-50.17"/>
</g>
<!-- Node2 -->
<g id="Node000002" class="node">
<title>Node2</title>
<g id="a_Node000002"><a xlink:href="group___c_m_s_i_s___core___instruction_interface.html" target="_top" xlink:title=" ">
<polygon fill="white" stroke="#666666" points="124.38,-32 6.38,-32 6.38,0 124.38,0 124.38,-32"/>
<text text-anchor="start" x="14.38" y="-18.5" font-family="Helvetica,sans-Serif" font-size="10.00">CMSIS Core Instruction</text>
<text text-anchor="middle" x="65.38" y="-6.5" font-family="Helvetica,sans-Serif" font-size="10.00"> Interface</text>
</a>
</g>
</g>
<!-- Node2&#45;&gt;Node1 -->
<g id="edge1" class="edge">
<title>Node2&#45;&gt;Node1</title>
<path fill="none" stroke="black" d="M135.61,-27.25C145.91,-28.92 156.39,-30.62 166.31,-32.24"/>
<polygon fill="black" stroke="black" points="136.47,-23.84 126.04,-25.69 135.35,-30.75 136.47,-23.84"/>
</g>
<!-- Node4 -->
<g id="Node000004" class="node">
<title>Node4</title>
<g id="a_Node000004"><a xlink:href="group___c_m_s_i_s___s_i_m_d__intrinsics.html" target="_top" xlink:title=" ">
<polygon fill="white" stroke="#666666" points="427.5,-51 311.75,-51 311.75,-31 427.5,-31 427.5,-51"/>
<text text-anchor="middle" x="369.62" y="-37.5" font-family="Helvetica,sans-Serif" font-size="10.00">CMSIS SIMD Intrinsics</text>
</a>
</g>
</g>
<!-- Node1&#45;&gt;Node4 -->
<g id="edge3" class="edge">
<title>Node1&#45;&gt;Node4</title>
<path fill="none" stroke="black" d="M287.23,-41C295.32,-41 303.55,-41 311.51,-41"/>
<polygon fill="black" stroke="black" points="287.44,-37.5 277.44,-41 287.44,-44.5 287.44,-37.5"/>
</g>
</g>
</svg>
