<?xml version="1.0" encoding="UTF-8" standalone="no"?>
<!DOCTYPE svg PUBLIC "-//W3C//DTD SVG 1.1//EN"
 "http://www.w3.org/Graphics/SVG/1.1/DTD/svg11.dtd">
<!-- Generated by graphviz version 9.0.0 (20230911.1827)
 -->
<!-- Title: CodecLoopback_PDMA Pages: 1 -->
<svg width="409pt" height="30pt"
 viewBox="0.00 0.00 408.75 30.00" xmlns="http://www.w3.org/2000/svg" xmlns:xlink="http://www.w3.org/1999/xlink">
<g id="graph0" class="graph" transform="scale(1 1) rotate(0) translate(4 26)">
<title>CodecLoopback_PDMA</title>
<!-- Node1 -->
<g id="Node000001" class="node">
<title>Node1</title>
<g id="a_Node000001"><a xlink:title=" ">
<polygon fill="#999999" stroke="#666666" points="186.75,-20 67.25,-20 67.25,0 186.75,0 186.75,-20"/>
<text text-anchor="middle" x="127" y="-6.5" font-family="Helvetica,sans-Serif" font-size="10.00">CodecLoopback_PDMA</text>
</a>
</g>
</g>
<!-- Node3 -->
<g id="Node000003" class="node">
<title>Node3</title>
<g id="a_Node000003"><a xlink:href="group___u_s_b___u_a_c___sound.html" target="_top" xlink:title=" ">
<polygon fill="white" stroke="#666666" points="400.75,-20 306,-20 306,0 400.75,0 400.75,-20"/>
<text text-anchor="middle" x="353.38" y="-6.5" font-family="Helvetica,sans-Serif" font-size="10.00">USB_UAC_Sound</text>
</a>
</g>
</g>
<!-- Node1&#45;&gt;Node3 -->
<g id="edge2" class="edge">
<title>Node1&#45;&gt;Node3</title>
<path fill="none" stroke="orange" stroke-dasharray="5,2" d="M187.25,-10C224.25,-10 271.22,-10 305.6,-10"/>
<text text-anchor="middle" x="246.38" y="-12.5" font-family="Helvetica,sans-Serif" font-size="10.00">I2CM_TransferType</text>
</g>
<!-- Node2 -->
<g id="Node000002" class="node">
<title>Node2</title>
<g id="a_Node000002"><a xlink:href="group___i2_s___examples.html" target="_top" xlink:title=" ">
<polygon fill="white" stroke="#666666" points="30.25,-20 0,-20 0,0 30.25,0 30.25,-20"/>
<text text-anchor="middle" x="15.12" y="-6.5" font-family="Helvetica,sans-Serif" font-size="10.00">I2S</text>
</a>
</g>
</g>
<!-- Node2&#45;&gt;Node1 -->
<g id="edge1" class="edge">
<title>Node2&#45;&gt;Node1</title>
<path fill="none" stroke="black" d="M41.77,-10C49.37,-10 58.03,-10 66.83,-10"/>
<polygon fill="black" stroke="black" points="42,-6.5 32,-10 42,-13.5 42,-6.5"/>
</g>
</g>
</svg>
