<?xml version="1.0" encoding="UTF-8" standalone="no"?>
<!DOCTYPE svg PUBLIC "-//W3C//DTD SVG 1.1//EN"
 "http://www.w3.org/Graphics/SVG/1.1/DTD/svg11.dtd">
<!-- Generated by graphviz version 9.0.0 (20230911.1827)
 -->
<!-- Title: MCTM exported constants Pages: 1 -->
<svg width="379pt" height="426pt"
 viewBox="0.00 0.00 378.50 426.00" xmlns="http://www.w3.org/2000/svg" xmlns:xlink="http://www.w3.org/1999/xlink">
<g id="graph0" class="graph" transform="scale(1 1) rotate(0) translate(4 422)">
<title>MCTM exported constants</title>
<!-- Node2 -->
<g id="Node000002" class="node">
<title>Node2</title>
<g id="a_Node000002"><a xlink:href="group___m_c_t_m.html" target="_top" xlink:title="MCTM driver modules.">
<polygon fill="white" stroke="#666666" points="44.5,-219 0,-219 0,-199 44.5,-199 44.5,-219"/>
<text text-anchor="middle" x="22.25" y="-205.5" font-family="Helvetica,sans-Serif" font-size="10.00">MCTM</text>
</a>
</g>
</g>
<!-- Node1 -->
<g id="Node000001" class="node">
<title>Node1</title>
<g id="a_Node000001"><a xlink:title=" ">
<polygon fill="#999999" stroke="#666666" points="211.25,-219 80.5,-219 80.5,-199 211.25,-199 211.25,-219"/>
<text text-anchor="middle" x="145.88" y="-205.5" font-family="Helvetica,sans-Serif" font-size="10.00">MCTM exported constants</text>
</a>
</g>
</g>
<!-- Node2&#45;&gt;Node1 -->
<g id="edge1" class="edge">
<title>Node2&#45;&gt;Node1</title>
<path fill="none" stroke="black" d="M56.32,-209C63.72,-209 71.82,-209 80.02,-209"/>
<polygon fill="black" stroke="black" points="56.51,-205.5 46.51,-209 56.51,-212.5 56.51,-205.5"/>
</g>
<!-- Node3 -->
<g id="Node000003" class="node">
<title>Node3</title>
<g id="a_Node000003"><a xlink:href="group___m_c_t_m___b_k_e.html" target="_top" xlink:title=" ">
<polygon fill="white" stroke="#666666" points="360.38,-418 257.38,-418 257.38,-386 360.38,-386 360.38,-418"/>
<text text-anchor="start" x="265.38" y="-404.5" font-family="Helvetica,sans-Serif" font-size="10.00">Definitions of MCTM</text>
<text text-anchor="middle" x="308.88" y="-392.5" font-family="Helvetica,sans-Serif" font-size="10.00"> break control</text>
</a>
</g>
</g>
<!-- Node4 -->
<g id="Node000004" class="node">
<title>Node4</title>
<g id="a_Node000004"><a xlink:href="group___m_c_t_m___b_k_p.html" target="_top" xlink:title=" ">
<polygon fill="white" stroke="#666666" points="360.38,-368 257.38,-368 257.38,-336 360.38,-336 360.38,-368"/>
<text text-anchor="start" x="265.38" y="-354.5" font-family="Helvetica,sans-Serif" font-size="10.00">Definitions of MCTM</text>
<text text-anchor="middle" x="308.88" y="-342.5" font-family="Helvetica,sans-Serif" font-size="10.00"> break polarity</text>
</a>
</g>
</g>
<!-- Node6 -->
<g id="Node000006" class="node">
<title>Node6</title>
<g id="a_Node000006"><a xlink:href="group___m_c_t_m___c_h_a_o_e.html" target="_top" xlink:title=" ">
<polygon fill="white" stroke="#666666" points="370.5,-318 247.25,-318 247.25,-274 370.5,-274 370.5,-318"/>
<text text-anchor="start" x="255.25" y="-304.5" font-family="Helvetica,sans-Serif" font-size="10.00">Definitions of MCTM</text>
<text text-anchor="start" x="255.25" y="-292.5" font-family="Helvetica,sans-Serif" font-size="10.00"> automatic output enable</text>
<text text-anchor="middle" x="308.88" y="-280.5" font-family="Helvetica,sans-Serif" font-size="10.00"> function state</text>
</a>
</g>
</g>
<!-- Node5 -->
<g id="Node000005" class="node">
<title>Node5</title>
<g id="a_Node000005"><a xlink:href="group___m_c_t_m___c_h_m_o_e.html" target="_top" xlink:title=" ">
<polygon fill="white" stroke="#666666" points="360.38,-256 257.38,-256 257.38,-212 360.38,-212 360.38,-256"/>
<text text-anchor="start" x="265.38" y="-242.5" font-family="Helvetica,sans-Serif" font-size="10.00">Definitions of MCTM</text>
<text text-anchor="start" x="265.38" y="-230.5" font-family="Helvetica,sans-Serif" font-size="10.00"> main output enable</text>
<text text-anchor="middle" x="308.88" y="-218.5" font-family="Helvetica,sans-Serif" font-size="10.00"> function state</text>
</a>
</g>
</g>
<!-- Node10 -->
<g id="Node000010" class="node">
<title>Node10</title>
<g id="a_Node000010"><a xlink:href="group___m_c_t_m___check___parameter.html" target="_top" xlink:title=" ">
<polygon fill="white" stroke="#666666" points="354,-194 263.75,-194 263.75,-174 354,-174 354,-194"/>
<text text-anchor="middle" x="308.88" y="-180.5" font-family="Helvetica,sans-Serif" font-size="10.00">Check parameter</text>
</a>
</g>
</g>
<!-- Node1&#45;&gt;Node3 -->
<g id="edge2" class="edge">
<title>Node1&#45;&gt;Node3</title>
<path fill="none" stroke="black" d="M154.34,-230.02C167.77,-265.02 199.15,-335.51 247.25,-377 250.96,-380.2 255.13,-383.03 259.51,-385.52"/>
<polygon fill="black" stroke="black" points="157.63,-228.8 150.87,-220.64 151.06,-231.23 157.63,-228.8"/>
</g>
<!-- Node1&#45;&gt;Node4 -->
<g id="edge3" class="edge">
<title>Node1&#45;&gt;Node4</title>
<path fill="none" stroke="black" d="M159.26,-228.7C176.29,-254.4 209.2,-299.34 247.25,-327 251.58,-330.15 256.36,-332.98 261.28,-335.51"/>
<polygon fill="black" stroke="black" points="162.34,-227.03 153.97,-220.53 156.47,-230.83 162.34,-227.03"/>
</g>
<!-- Node1&#45;&gt;Node6 -->
<g id="edge5" class="edge">
<title>Node1&#45;&gt;Node6</title>
<path fill="none" stroke="black" d="M174.91,-225C194.96,-236.35 222.63,-251.85 247.25,-265 252.57,-267.84 258.17,-270.78 263.74,-273.67"/>
<polygon fill="black" stroke="black" points="176.64,-221.96 166.22,-220.06 173.18,-228.04 176.64,-221.96"/>
</g>
<!-- Node1&#45;&gt;Node5 -->
<g id="edge4" class="edge">
<title>Node1&#45;&gt;Node5</title>
<path fill="none" stroke="black" d="M222.53,-220.75C234.19,-222.56 245.98,-224.39 256.93,-226.09"/>
<polygon fill="black" stroke="black" points="223.35,-217.33 212.93,-219.26 222.27,-224.25 223.35,-217.33"/>
</g>
<!-- Node1&#45;&gt;Node10 -->
<g id="edge9" class="edge">
<title>Node1&#45;&gt;Node10</title>
<path fill="none" stroke="black" d="M222.61,-197.24C236.64,-195.06 250.87,-192.85 263.57,-190.88"/>
<polygon fill="black" stroke="black" points="222.27,-193.75 212.93,-198.74 223.35,-200.67 222.27,-193.75"/>
</g>
<!-- Node7 -->
<g id="Node000007" class="node">
<title>Node7</title>
<g id="a_Node000007"><a xlink:href="group___m_c_t_m___l_o_c_k___l_e_v_e_l.html" target="_top" xlink:title=" ">
<polygon fill="white" stroke="#666666" points="360.38,-156 257.38,-156 257.38,-124 360.38,-124 360.38,-156"/>
<text text-anchor="start" x="265.38" y="-142.5" font-family="Helvetica,sans-Serif" font-size="10.00">Definitions of MCTM</text>
<text text-anchor="middle" x="308.88" y="-130.5" font-family="Helvetica,sans-Serif" font-size="10.00"> lock level selection</text>
</a>
</g>
</g>
<!-- Node1&#45;&gt;Node7 -->
<g id="edge6" class="edge">
<title>Node1&#45;&gt;Node7</title>
<path fill="none" stroke="black" d="M180.8,-193.91C200.21,-185.33 225.05,-174.44 247.25,-165 253.85,-162.19 260.87,-159.25 267.71,-156.42"/>
<polygon fill="black" stroke="black" points="179.45,-190.68 171.72,-197.93 182.28,-197.08 179.45,-190.68"/>
</g>
<!-- Node8 -->
<g id="Node000008" class="node">
<title>Node8</title>
<g id="a_Node000008"><a xlink:href="group___m_c_t_m___o_s_s_i.html" target="_top" xlink:title=" ">
<polygon fill="white" stroke="#666666" points="358.5,-106 259.25,-106 259.25,-62 358.5,-62 358.5,-106"/>
<text text-anchor="start" x="267.25" y="-92.5" font-family="Helvetica,sans-Serif" font-size="10.00">Definitions of Off</text>
<text text-anchor="start" x="267.25" y="-80.5" font-family="Helvetica,sans-Serif" font-size="10.00">&#45;State Selection for</text>
<text text-anchor="middle" x="308.88" y="-68.5" font-family="Helvetica,sans-Serif" font-size="10.00"> Idle mode states</text>
</a>
</g>
</g>
<!-- Node1&#45;&gt;Node8 -->
<g id="edge7" class="edge">
<title>Node1&#45;&gt;Node8</title>
<path fill="none" stroke="black" d="M163.77,-190.31C182.73,-170.06 215.07,-137.62 247.25,-115 251.51,-112.01 256.09,-109.13 260.76,-106.41"/>
<polygon fill="black" stroke="black" points="161.29,-187.84 157.08,-197.57 166.43,-192.59 161.29,-187.84"/>
</g>
<!-- Node9 -->
<g id="Node000009" class="node">
<title>Node9</title>
<g id="a_Node000009"><a xlink:href="group___m_c_t_m___o_s_s_r.html" target="_top" xlink:title=" ">
<polygon fill="white" stroke="#666666" points="358.5,-44 259.25,-44 259.25,0 358.5,0 358.5,-44"/>
<text text-anchor="start" x="267.25" y="-30.5" font-family="Helvetica,sans-Serif" font-size="10.00">Definitions of Off</text>
<text text-anchor="start" x="267.25" y="-18.5" font-family="Helvetica,sans-Serif" font-size="10.00">&#45;State Selection for</text>
<text text-anchor="middle" x="308.88" y="-6.5" font-family="Helvetica,sans-Serif" font-size="10.00"> Run mode states</text>
</a>
</g>
</g>
<!-- Node1&#45;&gt;Node9 -->
<g id="edge8" class="edge">
<title>Node1&#45;&gt;Node9</title>
<path fill="none" stroke="black" d="M155.93,-188.08C170.88,-155.6 203.45,-92.66 247.25,-53 250.84,-49.75 254.84,-46.74 259.02,-43.99"/>
<polygon fill="black" stroke="black" points="152.75,-186.63 151.86,-197.19 159.14,-189.49 152.75,-186.63"/>
</g>
</g>
</svg>
