<?xml version="1.0" encoding="UTF-8" standalone="no"?>
<!DOCTYPE svg PUBLIC "-//W3C//DTD SVG 1.1//EN"
 "http://www.w3.org/Graphics/SVG/1.1/DTD/svg11.dtd">
<!-- Generated by graphviz version 9.0.0 (20230911.1827)
 -->
<!-- Title: Software Test Library Observation Registers Pages: 1 -->
<svg width="450pt" height="52pt"
 viewBox="0.00 0.00 449.75 52.00" xmlns="http://www.w3.org/2000/svg" xmlns:xlink="http://www.w3.org/1999/xlink">
<g id="graph0" class="graph" transform="scale(1 1) rotate(0) translate(4 48)">
<title>Software Test Library Observation Registers</title>
<!-- Node3 -->
<g id="Node000003" class="node">
<title>Node3</title>
<g id="a_Node000003"><a xlink:href="group___c_m_s_i_s___t_p_i.html" target="_top" xlink:title="Type definitions for the Trace Port Interface (TPI)">
<polygon fill="white" stroke="#666666" points="441.75,-38 341,-38 341,-6 441.75,-6 441.75,-38"/>
<text text-anchor="start" x="349" y="-24.5" font-family="Helvetica,sans-Serif" font-size="10.00">Trace Port Interface</text>
<text text-anchor="middle" x="391.38" y="-12.5" font-family="Helvetica,sans-Serif" font-size="10.00"> (TPI)</text>
</a>
</g>
</g>
<!-- Node2 -->
<g id="Node000002" class="node">
<title>Node2</title>
<g id="a_Node000002"><a xlink:href="group___prc_cfg_inf___type.html" target="_top" xlink:title="Type definitions for the Processor Configuration Information Registerss (PRCCFGINF)">
<polygon fill="white" stroke="#666666" points="154.75,-44 0,-44 0,0 154.75,0 154.75,-44"/>
<text text-anchor="start" x="8" y="-30.5" font-family="Helvetica,sans-Serif" font-size="10.00">Processor Configuration</text>
<text text-anchor="start" x="8" y="-18.5" font-family="Helvetica,sans-Serif" font-size="10.00"> Information Registers</text>
<text text-anchor="middle" x="77.38" y="-6.5" font-family="Helvetica,sans-Serif" font-size="10.00"> (IMPLEMENTATION DEFINED)</text>
</a>
</g>
</g>
<!-- Node1 -->
<g id="Node000001" class="node">
<title>Node1</title>
<g id="a_Node000001"><a xlink:title="Type definitions for the Software Test Library Observation Registerss (STL)">
<polygon fill="#999999" stroke="#666666" points="305,-38 190.75,-38 190.75,-6 305,-6 305,-38"/>
<text text-anchor="start" x="198.75" y="-24.5" font-family="Helvetica,sans-Serif" font-size="10.00">Software Test Library</text>
<text text-anchor="middle" x="247.88" y="-12.5" font-family="Helvetica,sans-Serif" font-size="10.00"> Observation Registers</text>
</a>
</g>
</g>
<!-- Node2&#45;&gt;Node1 -->
<g id="edge1" class="edge">
<title>Node2&#45;&gt;Node1</title>
<path fill="none" stroke="black" d="M166.6,-22C174.64,-22 182.64,-22 190.29,-22"/>
<polygon fill="black" stroke="black" points="166.74,-18.5 156.74,-22 166.74,-25.5 166.74,-18.5"/>
</g>
<!-- Node1&#45;&gt;Node3 -->
<g id="edge2" class="edge">
<title>Node1&#45;&gt;Node3</title>
<path fill="none" stroke="black" d="M316.59,-22C324.7,-22 332.86,-22 340.64,-22"/>
<polygon fill="black" stroke="black" points="316.72,-18.5 306.72,-22 316.72,-25.5 316.72,-18.5"/>
</g>
</g>
</svg>
