<?xml version="1.0" encoding="UTF-8" standalone="no"?>
<!DOCTYPE svg PUBLIC "-//W3C//DTD SVG 1.1//EN"
 "http://www.w3.org/Graphics/SVG/1.1/DTD/svg11.dtd">
<!-- Generated by graphviz version 9.0.0 (20230911.1827)
 -->
<!-- Title: SPI Pages: 1 -->
<svg width="361pt" height="268pt"
 viewBox="0.00 0.00 361.25 268.00" xmlns="http://www.w3.org/2000/svg" xmlns:xlink="http://www.w3.org/1999/xlink">
<g id="graph0" class="graph" transform="scale(1 1) rotate(0) translate(4 264)">
<title>SPI</title>
<!-- Node2 -->
<g id="Node000002" class="node">
<title>Node2</title>
<g id="a_Node000002"><a xlink:href="group___h_t32_f5xxxx___peripheral___driver.html" target="_top" xlink:title=" ">
<polygon fill="white" stroke="#666666" points="124.38,-174 7.12,-174 7.12,-142 124.38,-142 124.38,-174"/>
<text text-anchor="start" x="15.12" y="-160.5" font-family="Helvetica,sans-Serif" font-size="10.00">HT32F5xxxx Peripheral</text>
<text text-anchor="middle" x="65.75" y="-148.5" font-family="Helvetica,sans-Serif" font-size="10.00"> Driver</text>
</a>
</g>
</g>
<!-- Node1 -->
<g id="Node000001" class="node">
<title>Node1</title>
<g id="a_Node000001"><a xlink:title="SPI driver modules.">
<polygon fill="#999999" stroke="#666666" points="199.25,-146 167.5,-146 167.5,-126 199.25,-126 199.25,-146"/>
<text text-anchor="middle" x="183.38" y="-132.5" font-family="Helvetica,sans-Serif" font-size="10.00">SPI</text>
</a>
</g>
</g>
<!-- Node2&#45;&gt;Node1 -->
<g id="edge1" class="edge">
<title>Node2&#45;&gt;Node1</title>
<path fill="none" stroke="black" d="M135.62,-144.9C147.52,-142.63 158.78,-140.49 167.26,-138.88"/>
<polygon fill="black" stroke="black" points="135.22,-141.41 126.05,-146.72 136.53,-148.29 135.22,-141.41"/>
</g>
<!-- Node3 -->
<g id="Node000003" class="node">
<title>Node3</title>
<g id="a_Node000003"><a xlink:href="group___h_t32___series___peripheral___examples.html" target="_top" xlink:title=" ">
<polygon fill="white" stroke="#666666" points="131.5,-124 0,-124 0,-104 131.5,-104 131.5,-124"/>
<text text-anchor="middle" x="65.75" y="-110.5" font-family="Helvetica,sans-Serif" font-size="10.00">HT32 Peripheral Examples</text>
</a>
</g>
</g>
<!-- Node3&#45;&gt;Node1 -->
<g id="edge2" class="edge">
<title>Node3&#45;&gt;Node1</title>
<path fill="none" stroke="black" d="M132.83,-126.57C145.81,-129.04 158.22,-131.4 167.38,-133.15"/>
<polygon fill="black" stroke="black" points="133.82,-123.2 123.34,-124.77 132.51,-130.08 133.82,-123.2"/>
</g>
<!-- Node9 -->
<g id="Node000009" class="node">
<title>Node9</title>
<g id="a_Node000009"><a xlink:href="group___s_p_i___a_p_i.html" target="_top" xlink:title=" ">
<polygon fill="white" stroke="#666666" points="319.5,-260 269,-260 269,-240 319.5,-240 319.5,-260"/>
<text text-anchor="middle" x="294.25" y="-246.5" font-family="Helvetica,sans-Serif" font-size="10.00">SPI API</text>
</a>
</g>
</g>
<!-- Node1&#45;&gt;Node9 -->
<g id="edge8" class="edge">
<title>Node1&#45;&gt;Node9</title>
<path fill="none" stroke="black" d="M190.51,-157.11C197.81,-178.62 212.01,-211.51 235.25,-231 244.67,-238.9 257.46,-243.54 268.63,-246.25"/>
<polygon fill="black" stroke="black" points="193.88,-156.14 187.53,-147.66 187.2,-158.25 193.88,-156.14"/>
</g>
<!-- Node10 -->
<g id="Node000010" class="node">
<title>Node10</title>
<g id="a_Node000010"><a xlink:href="group___s_p_i___c_o_n_f_i_g.html" target="_top" xlink:title=" ">
<polygon fill="white" stroke="#666666" points="330,-222 258.5,-222 258.5,-202 330,-202 330,-222"/>
<text text-anchor="middle" x="294.25" y="-208.5" font-family="Helvetica,sans-Serif" font-size="10.00">SPI CONFIG</text>
</a>
</g>
</g>
<!-- Node1&#45;&gt;Node10 -->
<g id="edge9" class="edge">
<title>Node1&#45;&gt;Node10</title>
<path fill="none" stroke="black" d="M197.54,-155.4C206.79,-167.72 220.19,-183.14 235.25,-193 242.17,-197.52 250.25,-201.06 258.15,-203.78"/>
<polygon fill="black" stroke="black" points="200.6,-153.66 191.93,-147.58 194.91,-157.74 200.6,-153.66"/>
</g>
<!-- Node5 -->
<g id="Node000005" class="node">
<title>Node5</title>
<g id="a_Node000005"><a xlink:href="group___s_p_i___exported___constants.html" target="_top" xlink:title=" ">
<polygon fill="white" stroke="#666666" points="353.25,-184 235.25,-184 235.25,-164 353.25,-164 353.25,-184"/>
<text text-anchor="middle" x="294.25" y="-170.5" font-family="Helvetica,sans-Serif" font-size="10.00">SPI exported constants</text>
</a>
</g>
</g>
<!-- Node1&#45;&gt;Node5 -->
<g id="edge4" class="edge">
<title>Node1&#45;&gt;Node5</title>
<path fill="none" stroke="black" d="M210.07,-145.83C218.11,-148.84 227.02,-152.12 235.25,-155 243.45,-157.87 252.35,-160.85 260.65,-163.58"/>
<polygon fill="black" stroke="black" points="211.46,-142.61 200.87,-142.35 208.99,-149.16 211.46,-142.61"/>
</g>
<!-- Node6 -->
<g id="Node000006" class="node">
<title>Node6</title>
<g id="a_Node000006"><a xlink:href="group___s_p_i___exported___functions.html" target="_top" xlink:title=" ">
<polygon fill="white" stroke="#666666" points="351.38,-146 237.12,-146 237.12,-126 351.38,-126 351.38,-146"/>
<text text-anchor="middle" x="294.25" y="-132.5" font-family="Helvetica,sans-Serif" font-size="10.00">SPI exported functions</text>
</a>
</g>
</g>
<!-- Node1&#45;&gt;Node6 -->
<g id="edge5" class="edge">
<title>Node1&#45;&gt;Node6</title>
<path fill="none" stroke="black" d="M210.94,-136C218.86,-136 227.87,-136 236.95,-136"/>
<polygon fill="black" stroke="black" points="211.03,-132.5 201.03,-136 211.03,-139.5 211.03,-132.5"/>
</g>
<!-- Node4 -->
<g id="Node000004" class="node">
<title>Node4</title>
<g id="a_Node000004"><a xlink:href="group___s_p_i___exported___types.html" target="_top" xlink:title=" ">
<polygon fill="white" stroke="#666666" points="343.88,-108 244.62,-108 244.62,-88 343.88,-88 343.88,-108"/>
<text text-anchor="middle" x="294.25" y="-94.5" font-family="Helvetica,sans-Serif" font-size="10.00">SPI exported types</text>
</a>
</g>
</g>
<!-- Node1&#45;&gt;Node4 -->
<g id="edge3" class="edge">
<title>Node1&#45;&gt;Node4</title>
<path fill="none" stroke="black" d="M210.07,-126.17C218.11,-123.16 227.02,-119.88 235.25,-117 243.45,-114.13 252.35,-111.15 260.65,-108.42"/>
<polygon fill="black" stroke="black" points="208.99,-122.84 200.87,-129.65 211.46,-129.39 208.99,-122.84"/>
</g>
<!-- Node7 -->
<g id="Node000007" class="node">
<title>Node7</title>
<g id="a_Node000007"><a xlink:href="group___s_p_i___m_i_d_i___exported___types.html" target="_top" xlink:title=" ">
<polygon fill="white" stroke="#666666" points="345.38,-70 243.12,-70 243.12,-38 345.38,-38 345.38,-70"/>
<text text-anchor="start" x="251.12" y="-56.5" font-family="Helvetica,sans-Serif" font-size="10.00">QSPI MIDI exported</text>
<text text-anchor="middle" x="294.25" y="-44.5" font-family="Helvetica,sans-Serif" font-size="10.00"> types</text>
</a>
</g>
</g>
<!-- Node1&#45;&gt;Node7 -->
<g id="edge6" class="edge">
<title>Node1&#45;&gt;Node7</title>
<path fill="none" stroke="black" d="M197.84,-117.05C207.23,-104.91 220.65,-89.53 235.25,-79 239.61,-75.86 244.42,-73 249.36,-70.44"/>
<polygon fill="black" stroke="black" points="195.3,-114.6 192.14,-124.71 200.92,-118.78 195.3,-114.6"/>
</g>
<!-- Node8 -->
<g id="Node000008" class="node">
<title>Node8</title>
<g id="a_Node000008"><a xlink:href="group___s_p_i___private___define.html" target="_top" xlink:title=" ">
<polygon fill="white" stroke="#666666" points="348.75,-20 239.75,-20 239.75,0 348.75,0 348.75,-20"/>
<text text-anchor="middle" x="294.25" y="-6.5" font-family="Helvetica,sans-Serif" font-size="10.00">SPI private definitions</text>
</a>
</g>
</g>
<!-- Node1&#45;&gt;Node8 -->
<g id="edge7" class="edge">
<title>Node1&#45;&gt;Node8</title>
<path fill="none" stroke="black" d="M189.21,-114.38C195.69,-90.27 209.48,-51.68 235.25,-29 239.15,-25.57 243.68,-22.76 248.46,-20.45"/>
<polygon fill="black" stroke="black" points="185.82,-113.49 186.82,-124.04 192.62,-115.17 185.82,-113.49"/>
</g>
</g>
</svg>
