<?xml version="1.0" encoding="UTF-8" standalone="no"?>
<!DOCTYPE svg PUBLIC "-//W3C//DTD SVG 1.1//EN"
 "http://www.w3.org/Graphics/SVG/1.1/DTD/svg11.dtd">
<!-- Generated by graphviz version 9.0.0 (20230911.1827)
 -->
<!-- Title: D:/Note_Database/Subject/MCETA Microcontroller Experiment TA/files/HT32_STD_5xxxx_FWLib_V1.5.1_7084b/library/HT32F5xxxx_Driver/src/ht32_cm0plus_misc.c Pages: 1 -->
<svg width="352pt" height="312pt"
 viewBox="0.00 0.00 352.00 312.00" xmlns="http://www.w3.org/2000/svg" xmlns:xlink="http://www.w3.org/1999/xlink">
<g id="graph0" class="graph" transform="scale(1 1) rotate(0) translate(4 308)">
<title>D:/Note_Database/Subject/MCETA Microcontroller Experiment TA/files/HT32_STD_5xxxx_FWLib_V1.5.1_7084b/library/HT32F5xxxx_Driver/src/ht32_cm0plus_misc.c</title>
<!-- Node1 -->
<g id="Node000001" class="node">
<title>Node1</title>
<g id="a_Node000001"><a xlink:title="This file provides all the miscellaneous firmware functions.">
<polygon fill="#999999" stroke="#666666" points="243.88,-304 73.38,-304 73.38,-224 243.88,-224 243.88,-304"/>
<text text-anchor="start" x="81.38" y="-290.5" font-family="Helvetica,sans-Serif" font-size="10.00">D:/Note_Database/Subject</text>
<text text-anchor="start" x="81.38" y="-278.5" font-family="Helvetica,sans-Serif" font-size="10.00">/MCETA Microcontroller</text>
<text text-anchor="start" x="81.38" y="-266.5" font-family="Helvetica,sans-Serif" font-size="10.00"> Experiment TA/files/HT32</text>
<text text-anchor="start" x="81.38" y="-254.5" font-family="Helvetica,sans-Serif" font-size="10.00">_STD_5xxxx_FWLib_V1.5.1_7084b</text>
<text text-anchor="start" x="81.38" y="-242.5" font-family="Helvetica,sans-Serif" font-size="10.00">/library/HT32F5xxxx_Driver/src</text>
<text text-anchor="middle" x="158.62" y="-230.5" font-family="Helvetica,sans-Serif" font-size="10.00">/ht32_cm0plus_misc.c</text>
</a>
</g>
</g>
<!-- Node2 -->
<g id="Node000002" class="node">
<title>Node2</title>
<g id="a_Node000002"><a xlink:href="ht32__cm0plus__misc_8h.html" target="_top" xlink:title="All the function prototypes for the miscellaneous firmware library.">
<polygon fill="white" stroke="#666666" points="111.25,-188 0,-188 0,-168 111.25,-168 111.25,-188"/>
<text text-anchor="middle" x="55.62" y="-174.5" font-family="Helvetica,sans-Serif" font-size="10.00">ht32_cm0plus_misc.h</text>
</a>
</g>
</g>
<!-- Node1&#45;&gt;Node2 -->
<g id="edge1_Node000001_Node000002" class="edge">
<title>Node1&#45;&gt;Node2</title>
<g id="a_edge1_Node000001_Node000002"><a xlink:title=" ">
<path fill="none" stroke="#63b8ff" d="M110.44,-223.71C98.22,-213.74 85.75,-203.57 75.8,-195.45"/>
<polygon fill="#63b8ff" stroke="#63b8ff" points="78.25,-192.94 68.29,-189.33 73.83,-198.36 78.25,-192.94"/>
</a>
</g>
</g>
<!-- Node8 -->
<g id="Node000008" class="node">
<title>Node8</title>
<g id="a_Node000008"><a xlink:href="ht32__div_8c.html" target="_top" xlink:title="The division assembly.">
<polygon fill="white" stroke="#666666" points="188.38,-188 128.88,-188 128.88,-168 188.38,-168 188.38,-188"/>
<text text-anchor="middle" x="158.62" y="-174.5" font-family="Helvetica,sans-Serif" font-size="10.00">ht32_div.c</text>
</a>
</g>
</g>
<!-- Node1&#45;&gt;Node8 -->
<g id="edge7_Node000001_Node000008" class="edge">
<title>Node1&#45;&gt;Node8</title>
<g id="a_edge7_Node000001_Node000008"><a xlink:title=" ">
<path fill="none" stroke="#63b8ff" d="M158.62,-223.95C158.62,-215.6 158.62,-207.09 158.62,-199.76"/>
<polygon fill="#63b8ff" stroke="#63b8ff" points="162.13,-199.95 158.63,-189.95 155.13,-199.95 162.13,-199.95"/>
</a>
</g>
</g>
<!-- Node9 -->
<g id="Node000009" class="node">
<title>Node9</title>
<g id="a_Node000009"><a xlink:href="ht32__rand_8c.html" target="_top" xlink:title="The rundom number function.">
<polygon fill="white" stroke="#666666" points="273.12,-188 206.12,-188 206.12,-168 273.12,-168 273.12,-188"/>
<text text-anchor="middle" x="239.62" y="-174.5" font-family="Helvetica,sans-Serif" font-size="10.00">ht32_rand.c</text>
</a>
</g>
</g>
<!-- Node1&#45;&gt;Node9 -->
<g id="edge9_Node000001_Node000009" class="edge">
<title>Node1&#45;&gt;Node9</title>
<g id="a_edge9_Node000001_Node000009"><a xlink:title=" ">
<path fill="none" stroke="#63b8ff" d="M196.28,-223.95C205.52,-214.36 214.97,-204.57 222.67,-196.58"/>
<polygon fill="#63b8ff" stroke="#63b8ff" points="225.05,-199.15 229.47,-189.53 220.01,-194.3 225.05,-199.15"/>
</a>
</g>
</g>
<!-- Node3 -->
<g id="Node000003" class="node">
<title>Node3</title>
<g id="a_Node000003"><a xlink:href="ht32_8h.html" target="_top" xlink:title="The API between application and HT32FXXXX Firmware Library.">
<polygon fill="white" stroke="#666666" points="180.12,-132 137.12,-132 137.12,-112 180.12,-112 180.12,-132"/>
<text text-anchor="middle" x="158.62" y="-118.5" font-family="Helvetica,sans-Serif" font-size="10.00">ht32.h</text>
</a>
</g>
</g>
<!-- Node2&#45;&gt;Node3 -->
<g id="edge2_Node000002_Node000003" class="edge">
<title>Node2&#45;&gt;Node3</title>
<g id="a_edge2_Node000002_Node000003"><a xlink:title=" ">
<path fill="none" stroke="#63b8ff" d="M73.57,-167.59C89.27,-159.36 112.36,-147.26 130.51,-137.74"/>
<polygon fill="#63b8ff" stroke="#63b8ff" points="131.97,-140.93 139.2,-133.18 128.72,-134.73 131.97,-140.93"/>
</a>
</g>
</g>
<!-- Node4 -->
<g id="Node000004" class="node">
<title>Node4</title>
<g id="a_Node000004"><a xlink:href="ht32f5xxxx__01_8h.html" target="_top" xlink:title="CMSIS Cortex&#45;M0+ Device Peripheral Access Layer Header File.">
<polygon fill="white" stroke="#666666" points="202.25,-76 115,-76 115,-56 202.25,-56 202.25,-76"/>
<text text-anchor="middle" x="158.62" y="-62.5" font-family="Helvetica,sans-Serif" font-size="10.00">ht32f5xxxx_01.h</text>
</a>
</g>
</g>
<!-- Node3&#45;&gt;Node4 -->
<g id="edge3_Node000003_Node000004" class="edge">
<title>Node3&#45;&gt;Node4</title>
<g id="a_edge3_Node000003_Node000004"><a xlink:title=" ">
<path fill="none" stroke="#63b8ff" d="M158.62,-111.59C158.62,-105.01 158.62,-95.96 158.62,-87.73"/>
<polygon fill="#63b8ff" stroke="#63b8ff" points="162.13,-87.81 158.63,-77.81 155.13,-87.81 162.13,-87.81"/>
</a>
</g>
</g>
<!-- Node5 -->
<g id="Node000005" class="node">
<title>Node5</title>
<g id="a_Node000005"><a xlink:href="ht32__config_8h.html" target="_top" xlink:title="Configuration file of HT32.">
<polygon fill="white" stroke="#666666" points="98.5,-20 24.75,-20 24.75,0 98.5,0 98.5,-20"/>
<text text-anchor="middle" x="61.62" y="-6.5" font-family="Helvetica,sans-Serif" font-size="10.00">ht32_config.h</text>
</a>
</g>
</g>
<!-- Node4&#45;&gt;Node5 -->
<g id="edge4_Node000004_Node000005" class="edge">
<title>Node4&#45;&gt;Node5</title>
<g id="a_edge4_Node000004_Node000005"><a xlink:title=" ">
<path fill="none" stroke="#63b8ff" d="M141.73,-55.59C127.08,-47.44 105.6,-35.48 88.58,-26"/>
<polygon fill="#63b8ff" stroke="#63b8ff" points="90.42,-23.02 79.98,-21.22 87.01,-29.14 90.42,-23.02"/>
</a>
</g>
</g>
<!-- Node6 -->
<g id="Node000006" class="node">
<title>Node6</title>
<g id="a_Node000006"><a xlink:title=" ">
<polygon fill="#e0e0e0" stroke="#999999" points="201.12,-20 116.12,-20 116.12,0 201.12,0 201.12,-20"/>
<text text-anchor="middle" x="158.62" y="-6.5" font-family="Helvetica,sans-Serif" font-size="10.00">core_cm0plus.h</text>
</a>
</g>
</g>
<!-- Node4&#45;&gt;Node6 -->
<g id="edge5_Node000004_Node000006" class="edge">
<title>Node4&#45;&gt;Node6</title>
<g id="a_edge5_Node000004_Node000006"><a xlink:title=" ">
<path fill="none" stroke="#63b8ff" d="M158.62,-55.59C158.62,-49.01 158.62,-39.96 158.62,-31.73"/>
<polygon fill="#63b8ff" stroke="#63b8ff" points="162.13,-31.81 158.63,-21.81 155.13,-31.81 162.13,-31.81"/>
</a>
</g>
</g>
<!-- Node7 -->
<g id="Node000007" class="node">
<title>Node7</title>
<g id="a_Node000007"><a xlink:href="system__ht32f5xxxx__01_8h.html" target="_top" xlink:title="CMSIS Cortex&#45;M0+ Device Peripheral Access Layer System Header File for the Holtek HT32F5xxxx Device S...">
<polygon fill="white" stroke="#666666" points="344,-20 219.25,-20 219.25,0 344,0 344,-20"/>
<text text-anchor="middle" x="281.62" y="-6.5" font-family="Helvetica,sans-Serif" font-size="10.00">system_ht32f5xxxx_01.h</text>
</a>
</g>
</g>
<!-- Node4&#45;&gt;Node7 -->
<g id="edge6_Node000004_Node000007" class="edge">
<title>Node4&#45;&gt;Node7</title>
<g id="a_edge6_Node000004_Node000007"><a xlink:title=" ">
<path fill="none" stroke="#63b8ff" d="M180.05,-55.59C199.25,-47.17 227.67,-34.69 249.57,-25.07"/>
<polygon fill="#63b8ff" stroke="#63b8ff" points="250.9,-28.31 258.65,-21.09 248.08,-21.9 250.9,-28.31"/>
</a>
</g>
</g>
<!-- Node8&#45;&gt;Node3 -->
<g id="edge8_Node000008_Node000003" class="edge">
<title>Node8&#45;&gt;Node3</title>
<g id="a_edge8_Node000008_Node000003"><a xlink:title=" ">
<path fill="none" stroke="#63b8ff" d="M158.62,-167.59C158.62,-161.01 158.62,-151.96 158.62,-143.73"/>
<polygon fill="#63b8ff" stroke="#63b8ff" points="162.13,-143.81 158.63,-133.81 155.13,-143.81 162.13,-143.81"/>
</a>
</g>
</g>
<!-- Node9&#45;&gt;Node3 -->
<g id="edge10_Node000009_Node000003" class="edge">
<title>Node9&#45;&gt;Node3</title>
<g id="a_edge10_Node000009_Node000003"><a xlink:title=" ">
<path fill="none" stroke="#63b8ff" d="M225.52,-167.59C213.63,-159.67 196.36,-148.16 182.35,-138.82"/>
<polygon fill="#63b8ff" stroke="#63b8ff" points="184.37,-135.95 174.1,-133.32 180.48,-141.78 184.37,-135.95"/>
</a>
</g>
</g>
<!-- Node10 -->
<g id="Node000010" class="node">
<title>Node10</title>
<g id="a_Node000010"><a xlink:title=" ">
<polygon fill="#e0e0e0" stroke="#999999" points="263.38,-132 215.88,-132 215.88,-112 263.38,-112 263.38,-132"/>
<text text-anchor="middle" x="239.62" y="-118.5" font-family="Helvetica,sans-Serif" font-size="10.00">stdlib.h</text>
</a>
</g>
</g>
<!-- Node9&#45;&gt;Node10 -->
<g id="edge11_Node000009_Node000010" class="edge">
<title>Node9&#45;&gt;Node10</title>
<g id="a_edge11_Node000009_Node000010"><a xlink:title=" ">
<path fill="none" stroke="#63b8ff" d="M239.62,-167.59C239.62,-161.01 239.62,-151.96 239.62,-143.73"/>
<polygon fill="#63b8ff" stroke="#63b8ff" points="243.13,-143.81 239.63,-133.81 236.13,-143.81 243.13,-143.81"/>
</a>
</g>
</g>
</g>
</svg>
