<?xml version="1.0" encoding="UTF-8" standalone="no"?>
<!DOCTYPE svg PUBLIC "-//W3C//DTD SVG 1.1//EN"
 "http://www.w3.org/Graphics/SVG/1.1/DTD/svg11.dtd">
<!-- Generated by graphviz version 9.0.0 (20230911.1827)
 -->
<!-- Title: D:/Note_Database/Subject/MCETA Microcontroller Experiment TA/files/HT32_STD_5xxxx_FWLib_V1.5.1_7084b/utilities/HT32_Board/ht32f52253_sk.h Pages: 1 -->
<svg width="502pt" height="244pt"
 viewBox="0.00 0.00 502.25 244.00" xmlns="http://www.w3.org/2000/svg" xmlns:xlink="http://www.w3.org/1999/xlink">
<g id="graph0" class="graph" transform="scale(1 1) rotate(0) translate(4 240)">
<title>D:/Note_Database/Subject/MCETA Microcontroller Experiment TA/files/HT32_STD_5xxxx_FWLib_V1.5.1_7084b/utilities/HT32_Board/ht32f52253_sk.h</title>
<!-- Node1 -->
<g id="Node000001" class="node">
<title>Node1</title>
<g id="a_Node000001"><a xlink:title="The header file of HT32F52253 Starter kit.">
<polygon fill="#999999" stroke="#666666" points="355.62,-236 175.38,-236 175.38,-168 355.62,-168 355.62,-236"/>
<text text-anchor="start" x="183.38" y="-222.5" font-family="Helvetica,sans-Serif" font-size="10.00">D:/Note_Database/Subject</text>
<text text-anchor="start" x="183.38" y="-210.5" font-family="Helvetica,sans-Serif" font-size="10.00">/MCETA Microcontroller</text>
<text text-anchor="start" x="183.38" y="-198.5" font-family="Helvetica,sans-Serif" font-size="10.00"> Experiment TA/files/HT32</text>
<text text-anchor="start" x="183.38" y="-186.5" font-family="Helvetica,sans-Serif" font-size="10.00">_STD_5xxxx_FWLib_V1.5.1_7084b</text>
<text text-anchor="middle" x="265.5" y="-174.5" font-family="Helvetica,sans-Serif" font-size="10.00">/utilities/HT32_Board/ht32f52253_sk.h</text>
</a>
</g>
</g>
<!-- Node2 -->
<g id="Node000002" class="node">
<title>Node2</title>
<g id="a_Node000002"><a xlink:href="ht32_8h.html" target="_top" xlink:title="The API between application and HT32FXXXX Firmware Library.">
<polygon fill="white" stroke="#666666" points="127,-132 84,-132 84,-112 127,-112 127,-132"/>
<text text-anchor="middle" x="105.5" y="-118.5" font-family="Helvetica,sans-Serif" font-size="10.00">ht32.h</text>
</a>
</g>
</g>
<!-- Node1&#45;&gt;Node2 -->
<g id="edge1_Node000001_Node000002" class="edge">
<title>Node1&#45;&gt;Node2</title>
<g id="a_edge1_Node000001_Node000002"><a xlink:title=" ">
<path fill="none" stroke="#63b8ff" d="M197.18,-167.69C175.38,-157.06 152.39,-145.86 134.89,-137.33"/>
<polygon fill="#63b8ff" stroke="#63b8ff" points="136.64,-134.29 126.12,-133.05 133.57,-140.58 136.64,-134.29"/>
</a>
</g>
</g>
<!-- Node7 -->
<g id="Node000007" class="node">
<title>Node7</title>
<g id="a_Node000007"><a xlink:href="i2c__eeprom_8h.html" target="_top" xlink:title="The header file of i2c_eeprom.">
<polygon fill="white" stroke="#666666" points="260,-132 145,-132 145,-112 260,-112 260,-132"/>
<text text-anchor="middle" x="202.5" y="-118.5" font-family="Helvetica,sans-Serif" font-size="10.00">common/i2c_eeprom.h</text>
</a>
</g>
</g>
<!-- Node1&#45;&gt;Node7 -->
<g id="edge6_Node000001_Node000007" class="edge">
<title>Node1&#45;&gt;Node7</title>
<g id="a_edge6_Node000001_Node000007"><a xlink:title=" ">
<path fill="none" stroke="#63b8ff" d="M238.78,-167.92C231.34,-158.71 223.54,-149.05 217.08,-141.06"/>
<polygon fill="#63b8ff" stroke="#63b8ff" points="219.95,-139.04 210.94,-133.46 214.51,-143.43 219.95,-139.04"/>
</a>
</g>
</g>
<!-- Node9 -->
<g id="Node000009" class="node">
<title>Node9</title>
<g id="a_Node000009"><a xlink:href="spi__flash_8h.html" target="_top" xlink:title="The header file of spi_flash.c module.">
<polygon fill="white" stroke="#666666" points="381,-132 278,-132 278,-112 381,-112 381,-132"/>
<text text-anchor="middle" x="329.5" y="-118.5" font-family="Helvetica,sans-Serif" font-size="10.00">common/spi_flash.h</text>
</a>
</g>
</g>
<!-- Node1&#45;&gt;Node9 -->
<g id="edge9_Node000001_Node000009" class="edge">
<title>Node1&#45;&gt;Node9</title>
<g id="a_edge9_Node000001_Node000009"><a xlink:title=" ">
<path fill="none" stroke="#63b8ff" d="M292.64,-167.92C300.2,-158.71 308.13,-149.05 314.68,-141.06"/>
<polygon fill="#63b8ff" stroke="#63b8ff" points="317.29,-143.4 320.93,-133.45 311.88,-138.96 317.29,-143.4"/>
</a>
</g>
</g>
<!-- Node10 -->
<g id="Node000010" class="node">
<title>Node10</title>
<g id="a_Node000010"><a xlink:href="spi__lcd_8h.html" target="_top" xlink:title="The header file of spi_lcd.c module.">
<polygon fill="white" stroke="#666666" points="494.25,-132 398.75,-132 398.75,-112 494.25,-112 494.25,-132"/>
<text text-anchor="middle" x="446.5" y="-118.5" font-family="Helvetica,sans-Serif" font-size="10.00">common/spi_lcd.h</text>
</a>
</g>
</g>
<!-- Node1&#45;&gt;Node10 -->
<g id="edge11_Node000001_Node000010" class="edge">
<title>Node1&#45;&gt;Node10</title>
<g id="a_edge11_Node000001_Node000010"><a xlink:title=" ">
<path fill="none" stroke="#63b8ff" d="M343.05,-167.58C368.14,-156.77 394.6,-145.37 414.47,-136.8"/>
<polygon fill="#63b8ff" stroke="#63b8ff" points="415.6,-140.13 423.4,-132.96 412.83,-133.7 415.6,-140.13"/>
</a>
</g>
</g>
<!-- Node3 -->
<g id="Node000003" class="node">
<title>Node3</title>
<g id="a_Node000003"><a xlink:href="ht32f5xxxx__01_8h.html" target="_top" xlink:title="CMSIS Cortex&#45;M0+ Device Peripheral Access Layer Header File.">
<polygon fill="white" stroke="#666666" points="202.12,-76 114.88,-76 114.88,-56 202.12,-56 202.12,-76"/>
<text text-anchor="middle" x="158.5" y="-62.5" font-family="Helvetica,sans-Serif" font-size="10.00">ht32f5xxxx_01.h</text>
</a>
</g>
</g>
<!-- Node2&#45;&gt;Node3 -->
<g id="edge2_Node000002_Node000003" class="edge">
<title>Node2&#45;&gt;Node3</title>
<g id="a_edge2_Node000002_Node000003"><a xlink:title=" ">
<path fill="none" stroke="#63b8ff" d="M114.73,-111.59C122.1,-104.08 132.63,-93.35 141.52,-84.3"/>
<polygon fill="#63b8ff" stroke="#63b8ff" points="143.81,-86.97 148.31,-77.38 138.81,-82.06 143.81,-86.97"/>
</a>
</g>
</g>
<!-- Node4 -->
<g id="Node000004" class="node">
<title>Node4</title>
<g id="a_Node000004"><a xlink:href="ht32__config_8h.html" target="_top" xlink:title="Configuration file of HT32.">
<polygon fill="white" stroke="#666666" points="346.38,-20 272.62,-20 272.62,0 346.38,0 346.38,-20"/>
<text text-anchor="middle" x="309.5" y="-6.5" font-family="Helvetica,sans-Serif" font-size="10.00">ht32_config.h</text>
</a>
</g>
</g>
<!-- Node3&#45;&gt;Node4 -->
<g id="edge3_Node000003_Node000004" class="edge">
<title>Node3&#45;&gt;Node4</title>
<g id="a_edge3_Node000003_Node000004"><a xlink:title=" ">
<path fill="none" stroke="#63b8ff" d="M184.8,-55.59C209.01,-46.94 245.18,-34 272.34,-24.29"/>
<polygon fill="#63b8ff" stroke="#63b8ff" points="273.33,-27.65 281.57,-20.99 270.97,-21.06 273.33,-27.65"/>
</a>
</g>
</g>
<!-- Node5 -->
<g id="Node000005" class="node">
<title>Node5</title>
<g id="a_Node000005"><a xlink:title=" ">
<polygon fill="#e0e0e0" stroke="#999999" points="85,-20 0,-20 0,0 85,0 85,-20"/>
<text text-anchor="middle" x="42.5" y="-6.5" font-family="Helvetica,sans-Serif" font-size="10.00">core_cm0plus.h</text>
</a>
</g>
</g>
<!-- Node3&#45;&gt;Node5 -->
<g id="edge4_Node000003_Node000005" class="edge">
<title>Node3&#45;&gt;Node5</title>
<g id="a_edge4_Node000003_Node000005"><a xlink:title=" ">
<path fill="none" stroke="#63b8ff" d="M138.29,-55.59C120.27,-47.21 93.63,-34.8 73.02,-25.21"/>
<polygon fill="#63b8ff" stroke="#63b8ff" points="74.78,-22.17 64.24,-21.12 71.82,-28.51 74.78,-22.17"/>
</a>
</g>
</g>
<!-- Node6 -->
<g id="Node000006" class="node">
<title>Node6</title>
<g id="a_Node000006"><a xlink:href="system__ht32f5xxxx__01_8h.html" target="_top" xlink:title="CMSIS Cortex&#45;M0+ Device Peripheral Access Layer System Header File for the Holtek HT32F5xxxx Device S...">
<polygon fill="white" stroke="#666666" points="227.88,-20 103.12,-20 103.12,0 227.88,0 227.88,-20"/>
<text text-anchor="middle" x="165.5" y="-6.5" font-family="Helvetica,sans-Serif" font-size="10.00">system_ht32f5xxxx_01.h</text>
</a>
</g>
</g>
<!-- Node3&#45;&gt;Node6 -->
<g id="edge5_Node000003_Node000006" class="edge">
<title>Node3&#45;&gt;Node6</title>
<g id="a_edge5_Node000003_Node000006"><a xlink:title=" ">
<path fill="none" stroke="#63b8ff" d="M159.72,-55.59C160.58,-48.93 161.77,-39.75 162.85,-31.44"/>
<polygon fill="#63b8ff" stroke="#63b8ff" points="166.29,-32.17 164.1,-21.8 159.34,-31.27 166.29,-32.17"/>
</a>
</g>
</g>
<!-- Node8 -->
<g id="Node000008" class="node">
<title>Node8</title>
<g id="a_Node000008"><a xlink:href="ht32__board_8h.html" target="_top" xlink:title="HT32 target board definition file.">
<polygon fill="white" stroke="#666666" points="352.62,-76 280.38,-76 280.38,-56 352.62,-56 352.62,-76"/>
<text text-anchor="middle" x="316.5" y="-62.5" font-family="Helvetica,sans-Serif" font-size="10.00">ht32_board.h</text>
</a>
</g>
</g>
<!-- Node7&#45;&gt;Node8 -->
<g id="edge7_Node000007_Node000008" class="edge">
<title>Node7&#45;&gt;Node8</title>
<g id="a_edge7_Node000007_Node000008"><a xlink:title=" ">
<path fill="none" stroke="#63b8ff" d="M222.36,-111.59C239.99,-103.24 266.01,-90.92 286.23,-81.34"/>
<polygon fill="#63b8ff" stroke="#63b8ff" points="287.58,-84.57 295.12,-77.13 284.58,-78.25 287.58,-84.57"/>
</a>
</g>
</g>
<!-- Node8&#45;&gt;Node4 -->
<g id="edge8_Node000008_Node000004" class="edge">
<title>Node8&#45;&gt;Node4</title>
<g id="a_edge8_Node000008_Node000004"><a xlink:title=" ">
<path fill="none" stroke="#63b8ff" d="M315.28,-55.59C314.42,-48.93 313.23,-39.75 312.15,-31.44"/>
<polygon fill="#63b8ff" stroke="#63b8ff" points="315.66,-31.27 310.9,-21.8 308.71,-32.17 315.66,-31.27"/>
</a>
</g>
</g>
<!-- Node9&#45;&gt;Node8 -->
<g id="edge10_Node000009_Node000008" class="edge">
<title>Node9&#45;&gt;Node8</title>
<g id="a_edge10_Node000009_Node000008"><a xlink:title=" ">
<path fill="none" stroke="#63b8ff" d="M327.24,-111.59C325.63,-104.93 323.42,-95.75 321.42,-87.44"/>
<polygon fill="#63b8ff" stroke="#63b8ff" points="324.84,-86.67 319.09,-77.77 318.03,-88.31 324.84,-86.67"/>
</a>
</g>
</g>
<!-- Node10&#45;&gt;Node8 -->
<g id="edge12_Node000010_Node000008" class="edge">
<title>Node10&#45;&gt;Node8</title>
<g id="a_edge12_Node000010_Node000008"><a xlink:title=" ">
<path fill="none" stroke="#63b8ff" d="M423.86,-111.59C403.38,-103.09 372.98,-90.46 349.75,-80.81"/>
<polygon fill="#63b8ff" stroke="#63b8ff" points="351.3,-77.66 340.72,-77.06 348.61,-84.13 351.3,-77.66"/>
</a>
</g>
</g>
<!-- Node11 -->
<g id="Node000011" class="node">
<title>Node11</title>
<g id="a_Node000011"><a xlink:href="lcd_8h.html" target="_top" xlink:title="The header file of lcd module.">
<polygon fill="white" stroke="#666666" points="465,-76 428,-76 428,-56 465,-56 465,-76"/>
<text text-anchor="middle" x="446.5" y="-62.5" font-family="Helvetica,sans-Serif" font-size="10.00">lcd.h</text>
</a>
</g>
</g>
<!-- Node10&#45;&gt;Node11 -->
<g id="edge13_Node000010_Node000011" class="edge">
<title>Node10&#45;&gt;Node11</title>
<g id="a_edge13_Node000010_Node000011"><a xlink:title=" ">
<path fill="none" stroke="#63b8ff" d="M446.5,-111.59C446.5,-105.01 446.5,-95.96 446.5,-87.73"/>
<polygon fill="#63b8ff" stroke="#63b8ff" points="450,-87.81 446.5,-77.81 443,-87.81 450,-87.81"/>
</a>
</g>
</g>
</g>
</svg>
