<?xml version="1.0" encoding="UTF-8" standalone="no"?>
<!DOCTYPE svg PUBLIC "-//W3C//DTD SVG 1.1//EN"
 "http://www.w3.org/Graphics/SVG/1.1/DTD/svg11.dtd">
<!-- Generated by graphviz version 9.0.0 (20230911.1827)
 -->
<!-- Title: D:/Note_Database/Subject/MCETA Microcontroller Experiment TA/files/HT32_STD_5xxxx_FWLib_V1.5.1_7084b/utilities/HT32_Board/ht32f50441_sk.h Pages: 1 -->
<svg width="620pt" height="244pt"
 viewBox="0.00 0.00 620.12 244.00" xmlns="http://www.w3.org/2000/svg" xmlns:xlink="http://www.w3.org/1999/xlink">
<g id="graph0" class="graph" transform="scale(1 1) rotate(0) translate(4 240)">
<title>D:/Note_Database/Subject/MCETA Microcontroller Experiment TA/files/HT32_STD_5xxxx_FWLib_V1.5.1_7084b/utilities/HT32_Board/ht32f50441_sk.h</title>
<!-- Node1 -->
<g id="Node000001" class="node">
<title>Node1</title>
<g id="a_Node000001"><a xlink:title="The header file of HT32F50441 Starter kit (temporary file, not finish/support yet).">
<polygon fill="#999999" stroke="#666666" points="417.5,-236 237.25,-236 237.25,-168 417.5,-168 417.5,-236"/>
<text text-anchor="start" x="245.25" y="-222.5" font-family="Helvetica,sans-Serif" font-size="10.00">D:/Note_Database/Subject</text>
<text text-anchor="start" x="245.25" y="-210.5" font-family="Helvetica,sans-Serif" font-size="10.00">/MCETA Microcontroller</text>
<text text-anchor="start" x="245.25" y="-198.5" font-family="Helvetica,sans-Serif" font-size="10.00"> Experiment TA/files/HT32</text>
<text text-anchor="start" x="245.25" y="-186.5" font-family="Helvetica,sans-Serif" font-size="10.00">_STD_5xxxx_FWLib_V1.5.1_7084b</text>
<text text-anchor="middle" x="327.38" y="-174.5" font-family="Helvetica,sans-Serif" font-size="10.00">/utilities/HT32_Board/ht32f50441_sk.h</text>
</a>
</g>
</g>
<!-- Node2 -->
<g id="Node000002" class="node">
<title>Node2</title>
<g id="a_Node000002"><a xlink:href="ht32_8h.html" target="_top" xlink:title="The API between application and HT32FXXXX Firmware Library.">
<polygon fill="white" stroke="#666666" points="130.88,-132 87.88,-132 87.88,-112 130.88,-112 130.88,-132"/>
<text text-anchor="middle" x="109.38" y="-118.5" font-family="Helvetica,sans-Serif" font-size="10.00">ht32.h</text>
</a>
</g>
</g>
<!-- Node1&#45;&gt;Node2 -->
<g id="edge1_Node000001_Node000002" class="edge">
<title>Node1&#45;&gt;Node2</title>
<g id="a_edge1_Node000001_Node000002"><a xlink:title=" ">
<path fill="none" stroke="#63b8ff" d="M236.82,-168.6C203.14,-156.55 167.04,-143.63 141.89,-134.63"/>
<polygon fill="#63b8ff" stroke="#63b8ff" points="143.17,-131.38 132.58,-131.3 140.81,-137.97 143.17,-131.38"/>
</a>
</g>
</g>
<!-- Node7 -->
<g id="Node000007" class="node">
<title>Node7</title>
<g id="a_Node000007"><a xlink:href="i2c__eeprom_8h.html" target="_top" xlink:title="The header file of i2c_eeprom.">
<polygon fill="white" stroke="#666666" points="384.88,-132 269.88,-132 269.88,-112 384.88,-112 384.88,-132"/>
<text text-anchor="middle" x="327.38" y="-118.5" font-family="Helvetica,sans-Serif" font-size="10.00">common/i2c_eeprom.h</text>
</a>
</g>
</g>
<!-- Node1&#45;&gt;Node7 -->
<g id="edge6_Node000001_Node000007" class="edge">
<title>Node1&#45;&gt;Node7</title>
<g id="a_edge6_Node000001_Node000007"><a xlink:title=" ">
<path fill="none" stroke="#63b8ff" d="M327.38,-167.92C327.38,-159.72 327.38,-151.17 327.38,-143.75"/>
<polygon fill="#63b8ff" stroke="#63b8ff" points="330.88,-143.79 327.38,-133.79 323.88,-143.79 330.88,-143.79"/>
</a>
</g>
</g>
<!-- Node9 -->
<g id="Node000009" class="node">
<title>Node9</title>
<g id="a_Node000009"><a xlink:href="spi__flash_8h.html" target="_top" xlink:title="The header file of spi_flash.c module.">
<polygon fill="white" stroke="#666666" points="251.88,-132 148.88,-132 148.88,-112 251.88,-112 251.88,-132"/>
<text text-anchor="middle" x="200.38" y="-118.5" font-family="Helvetica,sans-Serif" font-size="10.00">common/spi_flash.h</text>
</a>
</g>
</g>
<!-- Node1&#45;&gt;Node9 -->
<g id="edge9_Node000001_Node000009" class="edge">
<title>Node1&#45;&gt;Node9</title>
<g id="a_edge9_Node000001_Node000009"><a xlink:title=" ">
<path fill="none" stroke="#63b8ff" d="M273.15,-167.69C256.49,-157.47 238.97,-146.7 225.29,-138.3"/>
<polygon fill="#63b8ff" stroke="#63b8ff" points="227.3,-135.43 216.95,-133.18 223.64,-141.4 227.3,-135.43"/>
</a>
</g>
</g>
<!-- Node10 -->
<g id="Node000010" class="node">
<title>Node10</title>
<g id="a_Node000010"><a xlink:href="spi__lcd_8h.html" target="_top" xlink:title="The header file of spi_lcd.c module.">
<polygon fill="white" stroke="#666666" points="612.12,-132 516.62,-132 516.62,-112 612.12,-112 612.12,-132"/>
<text text-anchor="middle" x="564.38" y="-118.5" font-family="Helvetica,sans-Serif" font-size="10.00">common/spi_lcd.h</text>
</a>
</g>
</g>
<!-- Node1&#45;&gt;Node10 -->
<g id="edge11_Node000001_Node000010" class="edge">
<title>Node1&#45;&gt;Node10</title>
<g id="a_edge11_Node000001_Node000010"><a xlink:title=" ">
<path fill="none" stroke="#63b8ff" d="M417.99,-171.18C455.07,-158.97 496.01,-145.5 525.14,-135.91"/>
<polygon fill="#63b8ff" stroke="#63b8ff" points="525.86,-139.36 534.26,-132.91 523.67,-132.71 525.86,-139.36"/>
</a>
</g>
</g>
<!-- Node12 -->
<g id="Node000012" class="node">
<title>Node12</title>
<g id="a_Node000012"><a xlink:href="ebi__lcd_8h.html" target="_top" xlink:title="The header file of ebi_lcd.c module.">
<polygon fill="white" stroke="#666666" points="498.12,-132 402.62,-132 402.62,-112 498.12,-112 498.12,-132"/>
<text text-anchor="middle" x="450.38" y="-118.5" font-family="Helvetica,sans-Serif" font-size="10.00">common/ebi_lcd.h</text>
</a>
</g>
</g>
<!-- Node1&#45;&gt;Node12 -->
<g id="edge14_Node000001_Node000012" class="edge">
<title>Node1&#45;&gt;Node12</title>
<g id="a_edge14_Node000001_Node000012"><a xlink:title=" ">
<path fill="none" stroke="#63b8ff" d="M379.89,-167.69C395.87,-157.57 412.66,-146.91 425.85,-138.55"/>
<polygon fill="#63b8ff" stroke="#63b8ff" points="427.72,-141.51 434.29,-133.2 423.97,-135.6 427.72,-141.51"/>
</a>
</g>
</g>
<!-- Node3 -->
<g id="Node000003" class="node">
<title>Node3</title>
<g id="a_Node000003"><a xlink:href="ht32f5xxxx__01_8h.html" target="_top" xlink:title="CMSIS Cortex&#45;M0+ Device Peripheral Access Layer Header File.">
<polygon fill="white" stroke="#666666" points="213,-76 125.75,-76 125.75,-56 213,-56 213,-76"/>
<text text-anchor="middle" x="169.38" y="-62.5" font-family="Helvetica,sans-Serif" font-size="10.00">ht32f5xxxx_01.h</text>
</a>
</g>
</g>
<!-- Node2&#45;&gt;Node3 -->
<g id="edge2_Node000002_Node000003" class="edge">
<title>Node2&#45;&gt;Node3</title>
<g id="a_edge2_Node000002_Node000003"><a xlink:title=" ">
<path fill="none" stroke="#63b8ff" d="M119.83,-111.59C128.34,-103.93 140.59,-92.91 150.77,-83.75"/>
<polygon fill="#63b8ff" stroke="#63b8ff" points="152.83,-86.6 157.92,-77.31 148.14,-81.4 152.83,-86.6"/>
</a>
</g>
</g>
<!-- Node4 -->
<g id="Node000004" class="node">
<title>Node4</title>
<g id="a_Node000004"><a xlink:href="ht32__config_8h.html" target="_top" xlink:title="Configuration file of HT32.">
<polygon fill="white" stroke="#666666" points="349.25,-20 275.5,-20 275.5,0 349.25,0 349.25,-20"/>
<text text-anchor="middle" x="312.38" y="-6.5" font-family="Helvetica,sans-Serif" font-size="10.00">ht32_config.h</text>
</a>
</g>
</g>
<!-- Node3&#45;&gt;Node4 -->
<g id="edge3_Node000003_Node000004" class="edge">
<title>Node3&#45;&gt;Node4</title>
<g id="a_edge3_Node000003_Node000004"><a xlink:title=" ">
<path fill="none" stroke="#63b8ff" d="M194.28,-55.59C217.11,-46.97 251.16,-34.12 276.84,-24.42"/>
<polygon fill="#63b8ff" stroke="#63b8ff" points="277.74,-27.82 285.86,-21.01 275.26,-21.27 277.74,-27.82"/>
</a>
</g>
</g>
<!-- Node5 -->
<g id="Node000005" class="node">
<title>Node5</title>
<g id="a_Node000005"><a xlink:title=" ">
<polygon fill="#e0e0e0" stroke="#999999" points="227.88,-20 142.88,-20 142.88,0 227.88,0 227.88,-20"/>
<text text-anchor="middle" x="185.38" y="-6.5" font-family="Helvetica,sans-Serif" font-size="10.00">core_cm0plus.h</text>
</a>
</g>
</g>
<!-- Node3&#45;&gt;Node5 -->
<g id="edge4_Node000003_Node000005" class="edge">
<title>Node3&#45;&gt;Node5</title>
<g id="a_edge4_Node000003_Node000005"><a xlink:title=" ">
<path fill="none" stroke="#63b8ff" d="M172.16,-55.59C174.16,-48.86 176.92,-39.53 179.4,-31.15"/>
<polygon fill="#63b8ff" stroke="#63b8ff" points="182.7,-32.33 182.19,-21.75 175.99,-30.34 182.7,-32.33"/>
</a>
</g>
</g>
<!-- Node6 -->
<g id="Node000006" class="node">
<title>Node6</title>
<g id="a_Node000006"><a xlink:href="system__ht32f5xxxx__01_8h.html" target="_top" xlink:title="CMSIS Cortex&#45;M0+ Device Peripheral Access Layer System Header File for the Holtek HT32F5xxxx Device S...">
<polygon fill="white" stroke="#666666" points="124.75,-20 0,-20 0,0 124.75,0 124.75,-20"/>
<text text-anchor="middle" x="62.38" y="-6.5" font-family="Helvetica,sans-Serif" font-size="10.00">system_ht32f5xxxx_01.h</text>
</a>
</g>
</g>
<!-- Node3&#45;&gt;Node6 -->
<g id="edge5_Node000003_Node000006" class="edge">
<title>Node3&#45;&gt;Node6</title>
<g id="a_edge5_Node000003_Node000006"><a xlink:title=" ">
<path fill="none" stroke="#63b8ff" d="M150.74,-55.59C134.34,-47.32 110.22,-35.14 91.31,-25.6"/>
<polygon fill="#63b8ff" stroke="#63b8ff" points="93.01,-22.54 82.51,-21.16 89.86,-28.79 93.01,-22.54"/>
</a>
</g>
</g>
<!-- Node8 -->
<g id="Node000008" class="node">
<title>Node8</title>
<g id="a_Node000008"><a xlink:href="ht32__board_8h.html" target="_top" xlink:title="HT32 target board definition file.">
<polygon fill="white" stroke="#666666" points="363.5,-76 291.25,-76 291.25,-56 363.5,-56 363.5,-76"/>
<text text-anchor="middle" x="327.38" y="-62.5" font-family="Helvetica,sans-Serif" font-size="10.00">ht32_board.h</text>
</a>
</g>
</g>
<!-- Node7&#45;&gt;Node8 -->
<g id="edge7_Node000007_Node000008" class="edge">
<title>Node7&#45;&gt;Node8</title>
<g id="a_edge7_Node000007_Node000008"><a xlink:title=" ">
<path fill="none" stroke="#63b8ff" d="M327.38,-111.59C327.38,-105.01 327.38,-95.96 327.38,-87.73"/>
<polygon fill="#63b8ff" stroke="#63b8ff" points="330.88,-87.81 327.38,-77.81 323.88,-87.81 330.88,-87.81"/>
</a>
</g>
</g>
<!-- Node8&#45;&gt;Node4 -->
<g id="edge8_Node000008_Node000004" class="edge">
<title>Node8&#45;&gt;Node4</title>
<g id="a_edge8_Node000008_Node000004"><a xlink:title=" ">
<path fill="none" stroke="#63b8ff" d="M324.76,-55.59C322.89,-48.86 320.3,-39.53 317.97,-31.15"/>
<polygon fill="#63b8ff" stroke="#63b8ff" points="321.41,-30.46 315.36,-21.76 314.67,-32.33 321.41,-30.46"/>
</a>
</g>
</g>
<!-- Node9&#45;&gt;Node8 -->
<g id="edge10_Node000009_Node000008" class="edge">
<title>Node9&#45;&gt;Node8</title>
<g id="a_edge10_Node000009_Node000008"><a xlink:title=" ">
<path fill="none" stroke="#63b8ff" d="M222.5,-111.59C242.41,-103.13 271.93,-90.58 294.58,-80.94"/>
<polygon fill="#63b8ff" stroke="#63b8ff" points="295.85,-84.21 303.69,-77.07 293.12,-77.76 295.85,-84.21"/>
</a>
</g>
</g>
<!-- Node10&#45;&gt;Node8 -->
<g id="edge12_Node000010_Node000008" class="edge">
<title>Node10&#45;&gt;Node8</title>
<g id="a_edge12_Node000010_Node000008"><a xlink:title=" ">
<path fill="none" stroke="#63b8ff" d="M522.82,-111.53C481.51,-102.12 418.21,-87.7 374.92,-77.83"/>
<polygon fill="#63b8ff" stroke="#63b8ff" points="375.83,-74.45 365.3,-75.64 374.27,-81.28 375.83,-74.45"/>
</a>
</g>
</g>
<!-- Node11 -->
<g id="Node000011" class="node">
<title>Node11</title>
<g id="a_Node000011"><a xlink:href="lcd_8h.html" target="_top" xlink:title="The header file of lcd module.">
<polygon fill="white" stroke="#666666" points="525.88,-76 488.88,-76 488.88,-56 525.88,-56 525.88,-76"/>
<text text-anchor="middle" x="507.38" y="-62.5" font-family="Helvetica,sans-Serif" font-size="10.00">lcd.h</text>
</a>
</g>
</g>
<!-- Node10&#45;&gt;Node11 -->
<g id="edge13_Node000010_Node000011" class="edge">
<title>Node10&#45;&gt;Node11</title>
<g id="a_edge13_Node000010_Node000011"><a xlink:title=" ">
<path fill="none" stroke="#63b8ff" d="M554.45,-111.59C546.44,-104.01 534.96,-93.13 525.34,-84.02"/>
<polygon fill="#63b8ff" stroke="#63b8ff" points="527.96,-81.68 518.29,-77.34 523.14,-86.76 527.96,-81.68"/>
</a>
</g>
</g>
<!-- Node12&#45;&gt;Node8 -->
<g id="edge15_Node000012_Node000008" class="edge">
<title>Node12&#45;&gt;Node8</title>
<g id="a_edge15_Node000012_Node000008"><a xlink:title=" ">
<path fill="none" stroke="#63b8ff" d="M428.95,-111.59C409.75,-103.17 381.33,-90.69 359.43,-81.07"/>
<polygon fill="#63b8ff" stroke="#63b8ff" points="360.92,-77.9 350.35,-77.09 358.1,-84.31 360.92,-77.9"/>
</a>
</g>
</g>
<!-- Node12&#45;&gt;Node11 -->
<g id="edge16_Node000012_Node000011" class="edge">
<title>Node12&#45;&gt;Node11</title>
<g id="a_edge16_Node000012_Node000011"><a xlink:title=" ">
<path fill="none" stroke="#63b8ff" d="M460.3,-111.59C468.31,-104.01 479.79,-93.13 489.41,-84.02"/>
<polygon fill="#63b8ff" stroke="#63b8ff" points="491.61,-86.76 496.46,-77.34 486.79,-81.68 491.61,-86.76"/>
</a>
</g>
</g>
</g>
</svg>
