<?xml version="1.0" encoding="UTF-8" standalone="no"?>
<!DOCTYPE svg PUBLIC "-//W3C//DTD SVG 1.1//EN"
 "http://www.w3.org/Graphics/SVG/1.1/DTD/svg11.dtd">
<!-- Generated by graphviz version 9.0.0 (20230911.1827)
 -->
<!-- Title: D:/Note_Database/Subject/MCETA Microcontroller Experiment TA/files/HT32_STD_5xxxx_FWLib_V1.5.1_7084b/utilities/common/i2c_eeprom.c Pages: 1 -->
<svg width="328pt" height="244pt"
 viewBox="0.00 0.00 327.62 244.00" xmlns="http://www.w3.org/2000/svg" xmlns:xlink="http://www.w3.org/1999/xlink">
<g id="graph0" class="graph" transform="scale(1 1) rotate(0) translate(4 240)">
<title>D:/Note_Database/Subject/MCETA Microcontroller Experiment TA/files/HT32_STD_5xxxx_FWLib_V1.5.1_7084b/utilities/common/i2c_eeprom.c</title>
<!-- Node1 -->
<g id="Node000001" class="node">
<title>Node1</title>
<g id="a_Node000001"><a xlink:title="The source file of i2c_eeprom.">
<polygon fill="#999999" stroke="#666666" points="170.5,-236 0,-236 0,-168 170.5,-168 170.5,-236"/>
<text text-anchor="start" x="8" y="-222.5" font-family="Helvetica,sans-Serif" font-size="10.00">D:/Note_Database/Subject</text>
<text text-anchor="start" x="8" y="-210.5" font-family="Helvetica,sans-Serif" font-size="10.00">/MCETA Microcontroller</text>
<text text-anchor="start" x="8" y="-198.5" font-family="Helvetica,sans-Serif" font-size="10.00"> Experiment TA/files/HT32</text>
<text text-anchor="start" x="8" y="-186.5" font-family="Helvetica,sans-Serif" font-size="10.00">_STD_5xxxx_FWLib_V1.5.1_7084b</text>
<text text-anchor="middle" x="85.25" y="-174.5" font-family="Helvetica,sans-Serif" font-size="10.00">/utilities/common/i2c_eeprom.c</text>
</a>
</g>
</g>
<!-- Node2 -->
<g id="Node000002" class="node">
<title>Node2</title>
<g id="a_Node000002"><a xlink:href="ht32_8h.html" target="_top" xlink:title="The API between application and HT32FXXXX Firmware Library.">
<polygon fill="white" stroke="#666666" points="150.75,-132 107.75,-132 107.75,-112 150.75,-112 150.75,-132"/>
<text text-anchor="middle" x="129.25" y="-118.5" font-family="Helvetica,sans-Serif" font-size="10.00">ht32.h</text>
</a>
</g>
</g>
<!-- Node1&#45;&gt;Node2 -->
<g id="edge1_Node000001_Node000002" class="edge">
<title>Node1&#45;&gt;Node2</title>
<g id="a_edge1_Node000001_Node000002"><a xlink:title=" ">
<path fill="none" stroke="#63b8ff" d="M103.91,-167.92C108.88,-159.12 114.08,-149.9 118.46,-142.12"/>
<polygon fill="#63b8ff" stroke="#63b8ff" points="121.41,-144.03 123.27,-133.6 115.31,-140.59 121.41,-144.03"/>
</a>
</g>
</g>
<!-- Node7 -->
<g id="Node000007" class="node">
<title>Node7</title>
<g id="a_Node000007"><a xlink:href="i2c__eeprom_8h.html" target="_top" xlink:title="The header file of i2c_eeprom.">
<polygon fill="white" stroke="#666666" points="84.5,-132 10,-132 10,-112 84.5,-112 84.5,-132"/>
<text text-anchor="middle" x="47.25" y="-118.5" font-family="Helvetica,sans-Serif" font-size="10.00">i2c_eeprom.h</text>
</a>
</g>
</g>
<!-- Node1&#45;&gt;Node7 -->
<g id="edge6_Node000001_Node000007" class="edge">
<title>Node1&#45;&gt;Node7</title>
<g id="a_edge6_Node000001_Node000007"><a xlink:title=" ">
<path fill="none" stroke="#63b8ff" d="M69.13,-167.92C64.89,-159.22 60.46,-150.11 56.7,-142.39"/>
<polygon fill="#63b8ff" stroke="#63b8ff" points="59.96,-141.1 52.43,-133.64 53.67,-144.16 59.96,-141.1"/>
</a>
</g>
</g>
<!-- Node3 -->
<g id="Node000003" class="node">
<title>Node3</title>
<g id="a_Node000003"><a xlink:href="ht32f5xxxx__01_8h.html" target="_top" xlink:title="CMSIS Cortex&#45;M0+ Device Peripheral Access Layer Header File.">
<polygon fill="white" stroke="#666666" points="178.88,-76 91.62,-76 91.62,-56 178.88,-56 178.88,-76"/>
<text text-anchor="middle" x="135.25" y="-62.5" font-family="Helvetica,sans-Serif" font-size="10.00">ht32f5xxxx_01.h</text>
</a>
</g>
</g>
<!-- Node2&#45;&gt;Node3 -->
<g id="edge2_Node000002_Node000003" class="edge">
<title>Node2&#45;&gt;Node3</title>
<g id="a_edge2_Node000002_Node000003"><a xlink:title=" ">
<path fill="none" stroke="#63b8ff" d="M130.3,-111.59C131.03,-105.01 132.03,-95.96 132.95,-87.73"/>
<polygon fill="#63b8ff" stroke="#63b8ff" points="136.42,-88.13 134.05,-77.8 129.47,-87.35 136.42,-88.13"/>
</a>
</g>
</g>
<!-- Node4 -->
<g id="Node000004" class="node">
<title>Node4</title>
<g id="a_Node000004"><a xlink:href="ht32__config_8h.html" target="_top" xlink:title="Configuration file of HT32.">
<polygon fill="white" stroke="#666666" points="74.12,-20 0.38,-20 0.38,0 74.12,0 74.12,-20"/>
<text text-anchor="middle" x="37.25" y="-6.5" font-family="Helvetica,sans-Serif" font-size="10.00">ht32_config.h</text>
</a>
</g>
</g>
<!-- Node3&#45;&gt;Node4 -->
<g id="edge3_Node000003_Node000004" class="edge">
<title>Node3&#45;&gt;Node4</title>
<g id="a_edge3_Node000003_Node000004"><a xlink:title=" ">
<path fill="none" stroke="#63b8ff" d="M118.18,-55.59C103.37,-47.44 81.68,-35.48 64.48,-26"/>
<polygon fill="#63b8ff" stroke="#63b8ff" points="66.23,-22.97 55.78,-21.21 62.85,-29.1 66.23,-22.97"/>
</a>
</g>
</g>
<!-- Node5 -->
<g id="Node000005" class="node">
<title>Node5</title>
<g id="a_Node000005"><a xlink:title=" ">
<polygon fill="#e0e0e0" stroke="#999999" points="176.75,-20 91.75,-20 91.75,0 176.75,0 176.75,-20"/>
<text text-anchor="middle" x="134.25" y="-6.5" font-family="Helvetica,sans-Serif" font-size="10.00">core_cm0plus.h</text>
</a>
</g>
</g>
<!-- Node3&#45;&gt;Node5 -->
<g id="edge4_Node000003_Node000005" class="edge">
<title>Node3&#45;&gt;Node5</title>
<g id="a_edge4_Node000003_Node000005"><a xlink:title=" ">
<path fill="none" stroke="#63b8ff" d="M135.08,-55.59C134.95,-49.01 134.79,-39.96 134.63,-31.73"/>
<polygon fill="#63b8ff" stroke="#63b8ff" points="138.13,-31.75 134.45,-21.81 131.14,-31.87 138.13,-31.75"/>
</a>
</g>
</g>
<!-- Node6 -->
<g id="Node000006" class="node">
<title>Node6</title>
<g id="a_Node000006"><a xlink:href="system__ht32f5xxxx__01_8h.html" target="_top" xlink:title="CMSIS Cortex&#45;M0+ Device Peripheral Access Layer System Header File for the Holtek HT32F5xxxx Device S...">
<polygon fill="white" stroke="#666666" points="319.62,-20 194.88,-20 194.88,0 319.62,0 319.62,-20"/>
<text text-anchor="middle" x="257.25" y="-6.5" font-family="Helvetica,sans-Serif" font-size="10.00">system_ht32f5xxxx_01.h</text>
</a>
</g>
</g>
<!-- Node3&#45;&gt;Node6 -->
<g id="edge5_Node000003_Node000006" class="edge">
<title>Node3&#45;&gt;Node6</title>
<g id="a_edge5_Node000003_Node000006"><a xlink:title=" ">
<path fill="none" stroke="#63b8ff" d="M156.5,-55.59C175.54,-47.17 203.73,-34.69 225.45,-25.07"/>
<polygon fill="#63b8ff" stroke="#63b8ff" points="226.72,-28.34 234.45,-21.09 223.89,-21.94 226.72,-28.34"/>
</a>
</g>
</g>
<!-- Node8 -->
<g id="Node000008" class="node">
<title>Node8</title>
<g id="a_Node000008"><a xlink:href="ht32__board_8h.html" target="_top" xlink:title="HT32 target board definition file.">
<polygon fill="white" stroke="#666666" points="73.38,-76 1.12,-76 1.12,-56 73.38,-56 73.38,-76"/>
<text text-anchor="middle" x="37.25" y="-62.5" font-family="Helvetica,sans-Serif" font-size="10.00">ht32_board.h</text>
</a>
</g>
</g>
<!-- Node7&#45;&gt;Node8 -->
<g id="edge7_Node000007_Node000008" class="edge">
<title>Node7&#45;&gt;Node8</title>
<g id="a_edge7_Node000007_Node000008"><a xlink:title=" ">
<path fill="none" stroke="#63b8ff" d="M45.51,-111.59C44.27,-104.93 42.57,-95.75 41.04,-87.44"/>
<polygon fill="#63b8ff" stroke="#63b8ff" points="44.51,-86.98 39.25,-77.79 37.63,-88.26 44.51,-86.98"/>
</a>
</g>
</g>
<!-- Node8&#45;&gt;Node4 -->
<g id="edge8_Node000008_Node000004" class="edge">
<title>Node8&#45;&gt;Node4</title>
<g id="a_edge8_Node000008_Node000004"><a xlink:title=" ">
<path fill="none" stroke="#63b8ff" d="M37.25,-55.59C37.25,-49.01 37.25,-39.96 37.25,-31.73"/>
<polygon fill="#63b8ff" stroke="#63b8ff" points="40.75,-31.81 37.25,-21.81 33.75,-31.81 40.75,-31.81"/>
</a>
</g>
</g>
</g>
</svg>
