<?xml version="1.0" encoding="UTF-8" standalone="no"?>
<!DOCTYPE svg PUBLIC "-//W3C//DTD SVG 1.1//EN"
 "http://www.w3.org/Graphics/SVG/1.1/DTD/svg11.dtd">
<!-- Generated by graphviz version 9.0.0 (20230911.1827)
 -->
<!-- Title: D:/Note_Database/Subject/MCETA Microcontroller Experiment TA/files/HT32_STD_5xxxx_FWLib_V1.5.1_7084b/example/Mono_LCD/LCD_module/lcd_ESK32_A3A31.h Pages: 1 -->
<svg width="248pt" height="424pt"
 viewBox="0.00 0.00 248.00 424.00" xmlns="http://www.w3.org/2000/svg" xmlns:xlink="http://www.w3.org/1999/xlink">
<g id="graph0" class="graph" transform="scale(1 1) rotate(0) translate(4 420)">
<title>D:/Note_Database/Subject/MCETA Microcontroller Experiment TA/files/HT32_STD_5xxxx_FWLib_V1.5.1_7084b/example/Mono_LCD/LCD_module/lcd_ESK32_A3A31.h</title>
<!-- Node1 -->
<g id="Node000001" class="node">
<title>Node1</title>
<g id="a_Node000001"><a xlink:title="The header file of LCD_module.c.">
<polygon fill="#999999" stroke="#666666" points="226.5,-416 56,-416 56,-336 226.5,-336 226.5,-416"/>
<text text-anchor="start" x="64" y="-402.5" font-family="Helvetica,sans-Serif" font-size="10.00">D:/Note_Database/Subject</text>
<text text-anchor="start" x="64" y="-390.5" font-family="Helvetica,sans-Serif" font-size="10.00">/MCETA Microcontroller</text>
<text text-anchor="start" x="64" y="-378.5" font-family="Helvetica,sans-Serif" font-size="10.00"> Experiment TA/files/HT32</text>
<text text-anchor="start" x="64" y="-366.5" font-family="Helvetica,sans-Serif" font-size="10.00">_STD_5xxxx_FWLib_V1.5.1_7084b</text>
<text text-anchor="start" x="64" y="-354.5" font-family="Helvetica,sans-Serif" font-size="10.00">/example/Mono_LCD/LCD_module</text>
<text text-anchor="middle" x="141.25" y="-342.5" font-family="Helvetica,sans-Serif" font-size="10.00">/lcd_ESK32_A3A31.h</text>
</a>
</g>
</g>
<!-- Node2 -->
<g id="Node000002" class="node">
<title>Node2</title>
<g id="a_Node000002"><a xlink:href="lcd___e_s_k32___a3_a31_8c.html" target="_top" xlink:title="The file provides firmware functions to LCD.">
<polygon fill="white" stroke="#666666" points="170.5,-300 0,-300 0,-220 170.5,-220 170.5,-300"/>
<text text-anchor="start" x="8" y="-286.5" font-family="Helvetica,sans-Serif" font-size="10.00">D:/Note_Database/Subject</text>
<text text-anchor="start" x="8" y="-274.5" font-family="Helvetica,sans-Serif" font-size="10.00">/MCETA Microcontroller</text>
<text text-anchor="start" x="8" y="-262.5" font-family="Helvetica,sans-Serif" font-size="10.00"> Experiment TA/files/HT32</text>
<text text-anchor="start" x="8" y="-250.5" font-family="Helvetica,sans-Serif" font-size="10.00">_STD_5xxxx_FWLib_V1.5.1_7084b</text>
<text text-anchor="start" x="8" y="-238.5" font-family="Helvetica,sans-Serif" font-size="10.00">/example/Mono_LCD/LCD_module</text>
<text text-anchor="middle" x="85.25" y="-226.5" font-family="Helvetica,sans-Serif" font-size="10.00">/lcd_ESK32_A3A31.c</text>
</a>
</g>
</g>
<!-- Node1&#45;&gt;Node2 -->
<g id="edge1_Node000001_Node000002" class="edge">
<title>Node1&#45;&gt;Node2</title>
<g id="a_edge1_Node000001_Node000002"><a xlink:title=" ">
<path fill="none" stroke="#63b8ff" d="M116.99,-325.61C112.83,-317.15 108.56,-308.46 104.56,-300.3"/>
<polygon fill="#63b8ff" stroke="#63b8ff" points="113.76,-326.98 121.31,-334.41 120.04,-323.89 113.76,-326.98"/>
</a>
</g>
</g>
<!-- Node4 -->
<g id="Node000004" class="node">
<title>Node4</title>
<g id="a_Node000004"><a xlink:href="_mono___l_c_d_2_l_c_d__module_2main_8c.html" target="_top" xlink:title="Main program.">
<polygon fill="white" stroke="#666666" points="240,-68 42.5,-68 42.5,0 240,0 240,-68"/>
<text text-anchor="start" x="50.5" y="-54.5" font-family="Helvetica,sans-Serif" font-size="10.00">D:/Note_Database/Subject</text>
<text text-anchor="start" x="50.5" y="-42.5" font-family="Helvetica,sans-Serif" font-size="10.00">/MCETA Microcontroller</text>
<text text-anchor="start" x="50.5" y="-30.5" font-family="Helvetica,sans-Serif" font-size="10.00"> Experiment TA/files/HT32</text>
<text text-anchor="start" x="50.5" y="-18.5" font-family="Helvetica,sans-Serif" font-size="10.00">_STD_5xxxx_FWLib_V1.5.1_7084b</text>
<text text-anchor="middle" x="141.25" y="-6.5" font-family="Helvetica,sans-Serif" font-size="10.00">/example/Mono_LCD/LCD_module/main.c</text>
</a>
</g>
</g>
<!-- Node1&#45;&gt;Node4 -->
<g id="edge4_Node000001_Node000004" class="edge">
<title>Node1&#45;&gt;Node4</title>
<g id="a_edge4_Node000001_Node000004"><a xlink:title=" ">
<path fill="none" stroke="#63b8ff" d="M170.3,-325.6C174,-317.3 177.2,-308.58 179.25,-300 199.49,-215.27 200.95,-188.37 179.25,-104 176.08,-91.68 170.2,-79.21 164,-68.32"/>
<polygon fill="#63b8ff" stroke="#63b8ff" points="167.21,-323.96 166.06,-334.49 173.53,-326.97 167.21,-323.96"/>
</a>
</g>
</g>
<!-- Node3 -->
<g id="Node000003" class="node">
<title>Node3</title>
<g id="a_Node000003"><a xlink:href="_mono___l_c_d_2_l_c_d__module_2__ht32__project__source_8h.html" target="_top" xlink:title="The project source code setting.">
<polygon fill="white" stroke="#666666" points="170.5,-184 0,-184 0,-104 170.5,-104 170.5,-184"/>
<text text-anchor="start" x="8" y="-170.5" font-family="Helvetica,sans-Serif" font-size="10.00">D:/Note_Database/Subject</text>
<text text-anchor="start" x="8" y="-158.5" font-family="Helvetica,sans-Serif" font-size="10.00">/MCETA Microcontroller</text>
<text text-anchor="start" x="8" y="-146.5" font-family="Helvetica,sans-Serif" font-size="10.00"> Experiment TA/files/HT32</text>
<text text-anchor="start" x="8" y="-134.5" font-family="Helvetica,sans-Serif" font-size="10.00">_STD_5xxxx_FWLib_V1.5.1_7084b</text>
<text text-anchor="start" x="8" y="-122.5" font-family="Helvetica,sans-Serif" font-size="10.00">/example/Mono_LCD/LCD_module</text>
<text text-anchor="middle" x="85.25" y="-110.5" font-family="Helvetica,sans-Serif" font-size="10.00">/_ht32_project_source.h</text>
</a>
</g>
</g>
<!-- Node2&#45;&gt;Node3 -->
<g id="edge2_Node000002_Node000003" class="edge">
<title>Node2&#45;&gt;Node3</title>
<g id="a_edge2_Node000002_Node000003"><a xlink:title=" ">
<path fill="none" stroke="#63b8ff" d="M85.25,-208.49C85.25,-200.39 85.25,-192.1 85.25,-184.3"/>
<polygon fill="#63b8ff" stroke="#63b8ff" points="81.75,-208.25 85.25,-218.25 88.75,-208.25 81.75,-208.25"/>
</a>
</g>
</g>
<!-- Node3&#45;&gt;Node4 -->
<g id="edge3_Node000003_Node000004" class="edge">
<title>Node3&#45;&gt;Node4</title>
<g id="a_edge3_Node000003_Node000004"><a xlink:title=" ">
<path fill="none" stroke="#63b8ff" d="M110.78,-93.75C115.24,-85.17 119.77,-76.43 123.93,-68.4"/>
<polygon fill="#63b8ff" stroke="#63b8ff" points="107.82,-91.87 106.32,-102.36 114.03,-95.09 107.82,-91.87"/>
</a>
</g>
</g>
</g>
</svg>
