<?xml version="1.0" encoding="UTF-8" standalone="no"?>
<!DOCTYPE svg PUBLIC "-//W3C//DTD SVG 1.1//EN"
 "http://www.w3.org/Graphics/SVG/1.1/DTD/svg11.dtd">
<!-- Generated by graphviz version 9.0.0 (20230911.1827)
 -->
<!-- Title: D:/Note_Database/Subject/MCETA Microcontroller Experiment TA/files/HT32_STD_5xxxx_FWLib_V1.5.1_7084b/example/Mono_LCD/LCD_module/lcd_ESK32_A3A31.c Pages: 1 -->
<svg width="224pt" height="200pt"
 viewBox="0.00 0.00 223.88 200.00" xmlns="http://www.w3.org/2000/svg" xmlns:xlink="http://www.w3.org/1999/xlink">
<g id="graph0" class="graph" transform="scale(1 1) rotate(0) translate(4 196)">
<title>D:/Note_Database/Subject/MCETA Microcontroller Experiment TA/files/HT32_STD_5xxxx_FWLib_V1.5.1_7084b/example/Mono_LCD/LCD_module/lcd_ESK32_A3A31.c</title>
<!-- Node1 -->
<g id="Node000001" class="node">
<title>Node1</title>
<g id="a_Node000001"><a xlink:title="The file provides firmware functions to LCD.">
<polygon fill="#999999" stroke="#666666" points="188.38,-192 17.88,-192 17.88,-112 188.38,-112 188.38,-192"/>
<text text-anchor="start" x="25.88" y="-178.5" font-family="Helvetica,sans-Serif" font-size="10.00">D:/Note_Database/Subject</text>
<text text-anchor="start" x="25.88" y="-166.5" font-family="Helvetica,sans-Serif" font-size="10.00">/MCETA Microcontroller</text>
<text text-anchor="start" x="25.88" y="-154.5" font-family="Helvetica,sans-Serif" font-size="10.00"> Experiment TA/files/HT32</text>
<text text-anchor="start" x="25.88" y="-142.5" font-family="Helvetica,sans-Serif" font-size="10.00">_STD_5xxxx_FWLib_V1.5.1_7084b</text>
<text text-anchor="start" x="25.88" y="-130.5" font-family="Helvetica,sans-Serif" font-size="10.00">/example/Mono_LCD/LCD_module</text>
<text text-anchor="middle" x="103.12" y="-118.5" font-family="Helvetica,sans-Serif" font-size="10.00">/lcd_ESK32_A3A31.c</text>
</a>
</g>
</g>
<!-- Node2 -->
<g id="Node000002" class="node">
<title>Node2</title>
<g id="a_Node000002"><a xlink:href="ht32__lcd__board_8h.html" target="_top" xlink:title="HT32 target board definition file.">
<polygon fill="white" stroke="#666666" points="90.25,-76 0,-76 0,-56 90.25,-56 90.25,-76"/>
<text text-anchor="middle" x="45.12" y="-62.5" font-family="Helvetica,sans-Serif" font-size="10.00">ht32_lcd_board.h</text>
</a>
</g>
</g>
<!-- Node1&#45;&gt;Node2 -->
<g id="edge1_Node000001_Node000002" class="edge">
<title>Node1&#45;&gt;Node2</title>
<g id="a_edge1_Node000001_Node000002"><a xlink:title=" ">
<path fill="none" stroke="#63b8ff" d="M76.16,-111.95C69.9,-102.88 63.51,-93.62 58.16,-85.89"/>
<polygon fill="#63b8ff" stroke="#63b8ff" points="61.06,-83.92 52.5,-77.68 55.3,-87.9 61.06,-83.92"/>
</a>
</g>
</g>
<!-- Node4 -->
<g id="Node000004" class="node">
<title>Node4</title>
<g id="a_Node000004"><a xlink:href="lcd___e_s_k32___a3_a31_8h.html" target="_top" xlink:title="The header file of LCD_module.c.">
<polygon fill="white" stroke="#666666" points="215.88,-76 108.38,-76 108.38,-56 215.88,-56 215.88,-76"/>
<text text-anchor="middle" x="162.12" y="-62.5" font-family="Helvetica,sans-Serif" font-size="10.00">lcd_ESK32_A3A31.h</text>
</a>
</g>
</g>
<!-- Node1&#45;&gt;Node4 -->
<g id="edge3_Node000001_Node000004" class="edge">
<title>Node1&#45;&gt;Node4</title>
<g id="a_edge3_Node000001_Node000004"><a xlink:title=" ">
<path fill="none" stroke="#63b8ff" d="M130.55,-111.95C137,-102.78 143.57,-93.41 149.05,-85.62"/>
<polygon fill="#63b8ff" stroke="#63b8ff" points="151.74,-87.87 154.63,-77.68 146.01,-83.85 151.74,-87.87"/>
</a>
</g>
</g>
<!-- Node3 -->
<g id="Node000003" class="node">
<title>Node3</title>
<g id="a_Node000003"><a xlink:title=" ">
<polygon fill="#e0e0e0" stroke="#999999" points="82,-20 8.25,-20 8.25,0 82,0 82,-20"/>
<text text-anchor="middle" x="45.12" y="-6.5" font-family="Helvetica,sans-Serif" font-size="10.00">ht32_config.h</text>
</a>
</g>
</g>
<!-- Node2&#45;&gt;Node3 -->
<g id="edge2_Node000002_Node000003" class="edge">
<title>Node2&#45;&gt;Node3</title>
<g id="a_edge2_Node000002_Node000003"><a xlink:title=" ">
<path fill="none" stroke="#63b8ff" d="M45.12,-55.59C45.12,-49.01 45.12,-39.96 45.12,-31.73"/>
<polygon fill="#63b8ff" stroke="#63b8ff" points="48.63,-31.81 45.13,-21.81 41.63,-31.81 48.63,-31.81"/>
</a>
</g>
</g>
<!-- Node5 -->
<g id="Node000005" class="node">
<title>Node5</title>
<g id="a_Node000005"><a xlink:title=" ">
<polygon fill="#e0e0e0" stroke="#999999" points="183.62,-20 140.62,-20 140.62,0 183.62,0 183.62,-20"/>
<text text-anchor="middle" x="162.12" y="-6.5" font-family="Helvetica,sans-Serif" font-size="10.00">ht32.h</text>
</a>
</g>
</g>
<!-- Node4&#45;&gt;Node5 -->
<g id="edge4_Node000004_Node000005" class="edge">
<title>Node4&#45;&gt;Node5</title>
<g id="a_edge4_Node000004_Node000005"><a xlink:title=" ">
<path fill="none" stroke="#63b8ff" d="M162.12,-55.59C162.12,-49.01 162.12,-39.96 162.12,-31.73"/>
<polygon fill="#63b8ff" stroke="#63b8ff" points="165.63,-31.81 162.13,-21.81 158.63,-31.81 165.63,-31.81"/>
</a>
</g>
</g>
</g>
</svg>
