<?xml version="1.0" encoding="UTF-8" standalone="no"?>
<!DOCTYPE svg PUBLIC "-//W3C//DTD SVG 1.1//EN"
 "http://www.w3.org/Graphics/SVG/1.1/DTD/svg11.dtd">
<!-- Generated by graphviz version 9.0.0 (20230911.1827)
 -->
<!-- Title: D:/Note_Database/Subject/MCETA Microcontroller Experiment TA/files/HT32_STD_5xxxx_FWLib_V1.5.1_7084b/library/CMSIS/Core/Template/ARMv8&#45;M/main_s.c Pages: 1 -->
<svg width="200pt" height="144pt"
 viewBox="0.00 0.00 199.50 144.00" xmlns="http://www.w3.org/2000/svg" xmlns:xlink="http://www.w3.org/1999/xlink">
<g id="graph0" class="graph" transform="scale(1 1) rotate(0) translate(4 140)">
<title>D:/Note_Database/Subject/MCETA Microcontroller Experiment TA/files/HT32_STD_5xxxx_FWLib_V1.5.1_7084b/library/CMSIS/Core/Template/ARMv8&#45;M/main_s.c</title>
<!-- Node1 -->
<g id="Node000001" class="node">
<title>Node1</title>
<g id="a_Node000001"><a xlink:title=" ">
<polygon fill="#999999" stroke="#666666" points="172.25,-136 1.75,-136 1.75,-56 172.25,-56 172.25,-136"/>
<text text-anchor="start" x="9.75" y="-122.5" font-family="Helvetica,sans-Serif" font-size="10.00">D:/Note_Database/Subject</text>
<text text-anchor="start" x="9.75" y="-110.5" font-family="Helvetica,sans-Serif" font-size="10.00">/MCETA Microcontroller</text>
<text text-anchor="start" x="9.75" y="-98.5" font-family="Helvetica,sans-Serif" font-size="10.00"> Experiment TA/files/HT32</text>
<text text-anchor="start" x="9.75" y="-86.5" font-family="Helvetica,sans-Serif" font-size="10.00">_STD_5xxxx_FWLib_V1.5.1_7084b</text>
<text text-anchor="start" x="9.75" y="-74.5" font-family="Helvetica,sans-Serif" font-size="10.00">/library/CMSIS/Core/Template</text>
<text text-anchor="middle" x="87" y="-62.5" font-family="Helvetica,sans-Serif" font-size="10.00">/ARMv8&#45;M/main_s.c</text>
</a>
</g>
</g>
<!-- Node2 -->
<g id="Node000002" class="node">
<title>Node2</title>
<g id="a_Node000002"><a xlink:title=" ">
<polygon fill="#e0e0e0" stroke="#999999" points="70,-20 0,-20 0,0 70,0 70,-20"/>
<text text-anchor="middle" x="35" y="-6.5" font-family="Helvetica,sans-Serif" font-size="10.00">arm_cmse.h</text>
</a>
</g>
</g>
<!-- Node1&#45;&gt;Node2 -->
<g id="edge1_Node000001_Node000002" class="edge">
<title>Node1&#45;&gt;Node2</title>
<g id="a_edge1_Node000001_Node000002"><a xlink:title=" ">
<path fill="none" stroke="#63b8ff" d="M62.83,-55.95C57.27,-46.98 51.61,-37.83 46.85,-30.15"/>
<polygon fill="#63b8ff" stroke="#63b8ff" points="49.88,-28.38 41.64,-21.72 43.93,-32.07 49.88,-28.38"/>
</a>
</g>
</g>
<!-- Node3 -->
<g id="Node000003" class="node">
<title>Node3</title>
<g id="a_Node000003"><a xlink:title=" ">
<polygon fill="#e0e0e0" stroke="#999999" points="191.5,-20 88.5,-20 88.5,0 191.5,0 191.5,-20"/>
<text text-anchor="middle" x="140" y="-6.5" font-family="Helvetica,sans-Serif" font-size="10.00">RTE_Components.h</text>
</a>
</g>
</g>
<!-- Node1&#45;&gt;Node3 -->
<g id="edge2_Node000001_Node000003" class="edge">
<title>Node1&#45;&gt;Node3</title>
<g id="a_edge2_Node000001_Node000003"><a xlink:title=" ">
<path fill="none" stroke="#63b8ff" d="M111.64,-55.95C117.3,-46.98 123.07,-37.83 127.92,-30.15"/>
<polygon fill="#63b8ff" stroke="#63b8ff" points="130.86,-32.04 133.24,-21.72 124.94,-28.31 130.86,-32.04"/>
</a>
</g>
</g>
</g>
</svg>
