<?xml version="1.0" encoding="UTF-8" standalone="no"?>
<!DOCTYPE svg PUBLIC "-//W3C//DTD SVG 1.1//EN"
 "http://www.w3.org/Graphics/SVG/1.1/DTD/svg11.dtd">
<!-- Generated by graphviz version 9.0.0 (20230911.1827)
 -->
<!-- Title: D:/Note_Database/Subject/MCETA Microcontroller Experiment TA/files/HT32_STD_5xxxx_FWLib_V1.5.1_7084b/example/USBD/USB_UAC_Sound_RateControl/main.h Pages: 1 -->
<svg width="264pt" height="132pt"
 viewBox="0.00 0.00 264.00 132.00" xmlns="http://www.w3.org/2000/svg" xmlns:xlink="http://www.w3.org/1999/xlink">
<g id="graph0" class="graph" transform="scale(1 1) rotate(0) translate(4 128)">
<title>D:/Note_Database/Subject/MCETA Microcontroller Experiment TA/files/HT32_STD_5xxxx_FWLib_V1.5.1_7084b/example/USBD/USB_UAC_Sound_RateControl/main.h</title>
<!-- Node1 -->
<g id="Node000001" class="node">
<title>Node1</title>
<g id="a_Node000001"><a xlink:title="The API between application and HT32FXXXX Firmware Library.">
<polygon fill="#999999" stroke="#666666" points="256,-124 0,-124 0,-56 256,-56 256,-124"/>
<text text-anchor="start" x="8" y="-110.5" font-family="Helvetica,sans-Serif" font-size="10.00">D:/Note_Database/Subject</text>
<text text-anchor="start" x="8" y="-98.5" font-family="Helvetica,sans-Serif" font-size="10.00">/MCETA Microcontroller</text>
<text text-anchor="start" x="8" y="-86.5" font-family="Helvetica,sans-Serif" font-size="10.00"> Experiment TA/files/HT32</text>
<text text-anchor="start" x="8" y="-74.5" font-family="Helvetica,sans-Serif" font-size="10.00">_STD_5xxxx_FWLib_V1.5.1_7084b</text>
<text text-anchor="middle" x="128" y="-62.5" font-family="Helvetica,sans-Serif" font-size="10.00">/example/USBD/USB_UAC_Sound_RateControl/main.h</text>
</a>
</g>
</g>
<!-- Node2 -->
<g id="Node000002" class="node">
<title>Node2</title>
<g id="a_Node000002"><a xlink:title=" ">
<polygon fill="#e0e0e0" stroke="#999999" points="104.5,-20 61.5,-20 61.5,0 104.5,0 104.5,-20"/>
<text text-anchor="middle" x="83" y="-6.5" font-family="Helvetica,sans-Serif" font-size="10.00">ht32.h</text>
</a>
</g>
</g>
<!-- Node1&#45;&gt;Node2 -->
<g id="edge1_Node000001_Node000002" class="edge">
<title>Node1&#45;&gt;Node2</title>
<g id="a_edge1_Node000001_Node000002"><a xlink:title=" ">
<path fill="none" stroke="#63b8ff" d="M108.92,-55.92C103.84,-47.12 98.52,-37.9 94.03,-30.12"/>
<polygon fill="#63b8ff" stroke="#63b8ff" points="97.14,-28.5 89.11,-21.59 91.07,-32 97.14,-28.5"/>
</a>
</g>
</g>
<!-- Node3 -->
<g id="Node000003" class="node">
<title>Node3</title>
<g id="a_Node000003"><a xlink:href="_u_s_b_d_2_u_s_b___u_a_c___sound___rate_control_2ht32__board__config_8h.html" target="_top" xlink:title="The header file of board configuration.">
<polygon fill="white" stroke="#666666" points="225.5,-20 122.5,-20 122.5,0 225.5,0 225.5,-20"/>
<text text-anchor="middle" x="174" y="-6.5" font-family="Helvetica,sans-Serif" font-size="10.00">ht32_board_config.h</text>
</a>
</g>
</g>
<!-- Node1&#45;&gt;Node3 -->
<g id="edge2_Node000001_Node000003" class="edge">
<title>Node1&#45;&gt;Node3</title>
<g id="a_edge2_Node000001_Node000003"><a xlink:title=" ">
<path fill="none" stroke="#63b8ff" d="M147.51,-55.92C152.7,-47.12 158.14,-37.9 162.72,-30.12"/>
<polygon fill="#63b8ff" stroke="#63b8ff" points="165.69,-31.97 167.76,-21.58 159.66,-28.42 165.69,-31.97"/>
</a>
</g>
</g>
</g>
</svg>
