<?xml version="1.0" encoding="UTF-8" standalone="no"?>
<!DOCTYPE svg PUBLIC "-//W3C//DTD SVG 1.1//EN"
 "http://www.w3.org/Graphics/SVG/1.1/DTD/svg11.dtd">
<!-- Generated by graphviz version 9.0.0 (20230911.1827)
 -->
<!-- Title: D:/Note_Database/Subject/MCETA Microcontroller Experiment TA/files/HT32_STD_5xxxx_FWLib_V1.5.1_7084b/example/TM/PWM/pwm.c Pages: 1 -->
<svg width="187pt" height="244pt"
 viewBox="0.00 0.00 186.75 244.00" xmlns="http://www.w3.org/2000/svg" xmlns:xlink="http://www.w3.org/1999/xlink">
<g id="graph0" class="graph" transform="scale(1 1) rotate(0) translate(4 240)">
<title>D:/Note_Database/Subject/MCETA Microcontroller Experiment TA/files/HT32_STD_5xxxx_FWLib_V1.5.1_7084b/example/TM/PWM/pwm.c</title>
<!-- Node1 -->
<g id="Node000001" class="node">
<title>Node1</title>
<g id="a_Node000001"><a xlink:title="The PWM functions.">
<polygon fill="#999999" stroke="#666666" points="170.5,-236 0,-236 0,-168 170.5,-168 170.5,-236"/>
<text text-anchor="start" x="8" y="-222.5" font-family="Helvetica,sans-Serif" font-size="10.00">D:/Note_Database/Subject</text>
<text text-anchor="start" x="8" y="-210.5" font-family="Helvetica,sans-Serif" font-size="10.00">/MCETA Microcontroller</text>
<text text-anchor="start" x="8" y="-198.5" font-family="Helvetica,sans-Serif" font-size="10.00"> Experiment TA/files/HT32</text>
<text text-anchor="start" x="8" y="-186.5" font-family="Helvetica,sans-Serif" font-size="10.00">_STD_5xxxx_FWLib_V1.5.1_7084b</text>
<text text-anchor="middle" x="85.25" y="-174.5" font-family="Helvetica,sans-Serif" font-size="10.00">/example/TM/PWM/pwm.c</text>
</a>
</g>
</g>
<!-- Node2 -->
<g id="Node000002" class="node">
<title>Node2</title>
<g id="a_Node000002"><a xlink:title=" ">
<polygon fill="#e0e0e0" stroke="#999999" points="108.75,-20 65.75,-20 65.75,0 108.75,0 108.75,-20"/>
<text text-anchor="middle" x="87.25" y="-6.5" font-family="Helvetica,sans-Serif" font-size="10.00">ht32.h</text>
</a>
</g>
</g>
<!-- Node1&#45;&gt;Node2 -->
<g id="edge1_Node000001_Node000002" class="edge">
<title>Node1&#45;&gt;Node2</title>
<g id="a_edge1_Node000001_Node000002"><a xlink:title=" ">
<path fill="none" stroke="#63b8ff" d="M74.33,-167.6C66.21,-138.02 57.86,-93.8 66.25,-56 68.21,-47.18 72.08,-38.04 75.98,-30.32"/>
<polygon fill="#63b8ff" stroke="#63b8ff" points="79.04,-32.01 80.75,-21.55 72.89,-28.66 79.04,-32.01"/>
</a>
</g>
</g>
<!-- Node3 -->
<g id="Node000003" class="node">
<title>Node3</title>
<g id="a_Node000003"><a xlink:href="_t_m_2_p_w_m_2ht32__board__config_8h.html" target="_top" xlink:title="The header file of board configuration.">
<polygon fill="white" stroke="#666666" points="178.75,-76 75.75,-76 75.75,-56 178.75,-56 178.75,-76"/>
<text text-anchor="middle" x="127.25" y="-62.5" font-family="Helvetica,sans-Serif" font-size="10.00">ht32_board_config.h</text>
</a>
</g>
</g>
<!-- Node1&#45;&gt;Node3 -->
<g id="edge2_Node000001_Node000003" class="edge">
<title>Node1&#45;&gt;Node3</title>
<g id="a_edge2_Node000001_Node000003"><a xlink:title=" ">
<path fill="none" stroke="#63b8ff" d="M90.19,-167.88C93.25,-150.88 97.85,-130.01 104.25,-112 107.36,-103.23 111.85,-94.01 116.03,-86.21"/>
<polygon fill="#63b8ff" stroke="#63b8ff" points="118.99,-88.09 120.82,-77.65 112.88,-84.66 118.99,-88.09"/>
</a>
</g>
</g>
<!-- Node4 -->
<g id="Node000004" class="node">
<title>Node4</title>
<g id="a_Node000004"><a xlink:href="pwm_8h.html" target="_top" xlink:title="The header file of PWM.">
<polygon fill="white" stroke="#666666" points="157.5,-132 113,-132 113,-112 157.5,-112 157.5,-132"/>
<text text-anchor="middle" x="135.25" y="-118.5" font-family="Helvetica,sans-Serif" font-size="10.00">pwm.h</text>
</a>
</g>
</g>
<!-- Node1&#45;&gt;Node4 -->
<g id="edge4_Node000001_Node000004" class="edge">
<title>Node1&#45;&gt;Node4</title>
<g id="a_edge4_Node000001_Node000004"><a xlink:title=" ">
<path fill="none" stroke="#63b8ff" d="M106.45,-167.92C112.16,-159.01 118.14,-149.69 123.16,-141.85"/>
<polygon fill="#63b8ff" stroke="#63b8ff" points="126.04,-143.86 128.49,-133.55 120.14,-140.08 126.04,-143.86"/>
</a>
</g>
</g>
<!-- Node3&#45;&gt;Node2 -->
<g id="edge3_Node000003_Node000002" class="edge">
<title>Node3&#45;&gt;Node2</title>
<g id="a_edge3_Node000003_Node000002"><a xlink:title=" ">
<path fill="none" stroke="#63b8ff" d="M120.28,-55.59C114.95,-48.39 107.42,-38.23 100.9,-29.43"/>
<polygon fill="#63b8ff" stroke="#63b8ff" points="103.8,-27.47 95.04,-21.51 98.18,-31.63 103.8,-27.47"/>
</a>
</g>
</g>
<!-- Node4&#45;&gt;Node3 -->
<g id="edge5_Node000004_Node000003" class="edge">
<title>Node4&#45;&gt;Node3</title>
<g id="a_edge5_Node000004_Node000003"><a xlink:title=" ">
<path fill="none" stroke="#63b8ff" d="M133.86,-111.59C132.87,-104.93 131.51,-95.75 130.28,-87.44"/>
<polygon fill="#63b8ff" stroke="#63b8ff" points="133.78,-87.17 128.85,-77.8 126.85,-88.2 133.78,-87.17"/>
</a>
</g>
</g>
</g>
</svg>
