<?xml version="1.0" encoding="UTF-8" standalone="no"?>
<!DOCTYPE svg PUBLIC "-//W3C//DTD SVG 1.1//EN"
 "http://www.w3.org/Graphics/SVG/1.1/DTD/svg11.dtd">
<!-- Generated by graphviz version 9.0.0 (20230911.1827)
 -->
<!-- Title: D:/Note_Database/Subject/MCETA Microcontroller Experiment TA/files/HT32_STD_5xxxx_FWLib_V1.5.1_7084b/utilities/common/ring_buffer.h Pages: 1 -->
<svg width="516pt" height="296pt"
 viewBox="0.00 0.00 516.25 296.00" xmlns="http://www.w3.org/2000/svg" xmlns:xlink="http://www.w3.org/1999/xlink">
<g id="graph0" class="graph" transform="scale(1 1) rotate(0) translate(4 292)">
<title>D:/Note_Database/Subject/MCETA Microcontroller Experiment TA/files/HT32_STD_5xxxx_FWLib_V1.5.1_7084b/utilities/common/ring_buffer.h</title>
<!-- Node1 -->
<g id="Node000001" class="node">
<title>Node1</title>
<g id="a_Node000001"><a xlink:title="The header file of ring buffer.">
<polygon fill="#999999" stroke="#666666" points="338.25,-288 167.75,-288 167.75,-220 338.25,-220 338.25,-288"/>
<text text-anchor="start" x="175.75" y="-274.5" font-family="Helvetica,sans-Serif" font-size="10.00">D:/Note_Database/Subject</text>
<text text-anchor="start" x="175.75" y="-262.5" font-family="Helvetica,sans-Serif" font-size="10.00">/MCETA Microcontroller</text>
<text text-anchor="start" x="175.75" y="-250.5" font-family="Helvetica,sans-Serif" font-size="10.00"> Experiment TA/files/HT32</text>
<text text-anchor="start" x="175.75" y="-238.5" font-family="Helvetica,sans-Serif" font-size="10.00">_STD_5xxxx_FWLib_V1.5.1_7084b</text>
<text text-anchor="middle" x="253" y="-226.5" font-family="Helvetica,sans-Serif" font-size="10.00">/utilities/common/ring_buffer.h</text>
</a>
</g>
</g>
<!-- Node2 -->
<g id="Node000002" class="node">
<title>Node2</title>
<g id="a_Node000002"><a xlink:href="example_2_u_s_b_d_2_h_i_d___keyboard___virtual___c_o_m_2ht32__usbd__class_8c.html" target="_top" xlink:title="The USB Device Class.">
<polygon fill="white" stroke="#666666" points="184,-80 0,-80 0,0 184,0 184,-80"/>
<text text-anchor="start" x="8" y="-66.5" font-family="Helvetica,sans-Serif" font-size="10.00">D:/Note_Database/Subject</text>
<text text-anchor="start" x="8" y="-54.5" font-family="Helvetica,sans-Serif" font-size="10.00">/MCETA Microcontroller</text>
<text text-anchor="start" x="8" y="-42.5" font-family="Helvetica,sans-Serif" font-size="10.00"> Experiment TA/files/HT32</text>
<text text-anchor="start" x="8" y="-30.5" font-family="Helvetica,sans-Serif" font-size="10.00">_STD_5xxxx_FWLib_V1.5.1_7084b</text>
<text text-anchor="start" x="8" y="-18.5" font-family="Helvetica,sans-Serif" font-size="10.00">/example/USBD/HID_Keyboard_Virtual</text>
<text text-anchor="middle" x="92" y="-6.5" font-family="Helvetica,sans-Serif" font-size="10.00">_COM/ht32_usbd_class.c</text>
</a>
</g>
</g>
<!-- Node1&#45;&gt;Node2 -->
<g id="edge1_Node000001_Node000002" class="edge">
<title>Node1&#45;&gt;Node2</title>
<g id="a_edge1_Node000001_Node000002"><a xlink:title=" ">
<path fill="none" stroke="#63b8ff" d="M156.98,-226.98C136.05,-216.88 116.23,-203 103,-184 82.09,-153.96 81.56,-111.27 84.91,-80.36"/>
<polygon fill="#63b8ff" stroke="#63b8ff" points="155.38,-230.1 165.94,-231.02 158.26,-223.72 155.38,-230.1"/>
</a>
</g>
</g>
<!-- Node3 -->
<g id="Node000003" class="node">
<title>Node3</title>
<g id="a_Node000003"><a xlink:href="example_2_u_s_b_d_2_virtual___c_o_m_2ht32__usbd__class_8c.html" target="_top" xlink:title="The USB Device Class.">
<polygon fill="white" stroke="#666666" points="387.25,-80 216.75,-80 216.75,0 387.25,0 387.25,-80"/>
<text text-anchor="start" x="224.75" y="-66.5" font-family="Helvetica,sans-Serif" font-size="10.00">D:/Note_Database/Subject</text>
<text text-anchor="start" x="224.75" y="-54.5" font-family="Helvetica,sans-Serif" font-size="10.00">/MCETA Microcontroller</text>
<text text-anchor="start" x="224.75" y="-42.5" font-family="Helvetica,sans-Serif" font-size="10.00"> Experiment TA/files/HT32</text>
<text text-anchor="start" x="224.75" y="-30.5" font-family="Helvetica,sans-Serif" font-size="10.00">_STD_5xxxx_FWLib_V1.5.1_7084b</text>
<text text-anchor="start" x="224.75" y="-18.5" font-family="Helvetica,sans-Serif" font-size="10.00">/example/USBD/Virtual_COM/ht32</text>
<text text-anchor="middle" x="302" y="-6.5" font-family="Helvetica,sans-Serif" font-size="10.00">_usbd_class.c</text>
</a>
</g>
</g>
<!-- Node1&#45;&gt;Node3 -->
<g id="edge2_Node000001_Node000003" class="edge">
<title>Node1&#45;&gt;Node3</title>
<g id="a_edge2_Node000001_Node000003"><a xlink:title=" ">
<path fill="none" stroke="#63b8ff" d="M280.57,-209.46C284.71,-201.26 288.44,-192.57 291,-184 301.15,-150 303.41,-109.54 303.42,-80.35"/>
<polygon fill="#63b8ff" stroke="#63b8ff" points="277.53,-207.72 275.89,-218.19 283.7,-211.03 277.53,-207.72"/>
</a>
</g>
</g>
<!-- Node4 -->
<g id="Node000004" class="node">
<title>Node4</title>
<g id="a_Node000004"><a xlink:href="ring__buffer_8c.html" target="_top" xlink:title="Ring buffer related functions.">
<polygon fill="white" stroke="#666666" points="282.25,-184 111.75,-184 111.75,-116 282.25,-116 282.25,-184"/>
<text text-anchor="start" x="119.75" y="-170.5" font-family="Helvetica,sans-Serif" font-size="10.00">D:/Note_Database/Subject</text>
<text text-anchor="start" x="119.75" y="-158.5" font-family="Helvetica,sans-Serif" font-size="10.00">/MCETA Microcontroller</text>
<text text-anchor="start" x="119.75" y="-146.5" font-family="Helvetica,sans-Serif" font-size="10.00"> Experiment TA/files/HT32</text>
<text text-anchor="start" x="119.75" y="-134.5" font-family="Helvetica,sans-Serif" font-size="10.00">_STD_5xxxx_FWLib_V1.5.1_7084b</text>
<text text-anchor="middle" x="197" y="-122.5" font-family="Helvetica,sans-Serif" font-size="10.00">/utilities/common/ring_buffer.c</text>
</a>
</g>
</g>
<!-- Node1&#45;&gt;Node4 -->
<g id="edge3_Node000001_Node000004" class="edge">
<title>Node1&#45;&gt;Node4</title>
<g id="a_edge3_Node000001_Node000004"><a xlink:title=" ">
<path fill="none" stroke="#63b8ff" d="M229.15,-209.56C224.54,-201.17 219.78,-192.49 215.38,-184.47"/>
<polygon fill="#63b8ff" stroke="#63b8ff" points="226.05,-211.19 233.94,-218.27 232.19,-207.82 226.05,-211.19"/>
</a>
</g>
</g>
<!-- Node5 -->
<g id="Node000005" class="node">
<title>Node5</title>
<g id="a_Node000005"><a xlink:href="uart__module_8c.html" target="_top" xlink:title="The UART Module (interrupt mode with buffer).">
<polygon fill="white" stroke="#666666" points="508.25,-184 337.75,-184 337.75,-116 508.25,-116 508.25,-184"/>
<text text-anchor="start" x="345.75" y="-170.5" font-family="Helvetica,sans-Serif" font-size="10.00">D:/Note_Database/Subject</text>
<text text-anchor="start" x="345.75" y="-158.5" font-family="Helvetica,sans-Serif" font-size="10.00">/MCETA Microcontroller</text>
<text text-anchor="start" x="345.75" y="-146.5" font-family="Helvetica,sans-Serif" font-size="10.00"> Experiment TA/files/HT32</text>
<text text-anchor="start" x="345.75" y="-134.5" font-family="Helvetica,sans-Serif" font-size="10.00">_STD_5xxxx_FWLib_V1.5.1_7084b</text>
<text text-anchor="middle" x="423" y="-122.5" font-family="Helvetica,sans-Serif" font-size="10.00">/utilities/middleware/uart_module.c</text>
</a>
</g>
</g>
<!-- Node1&#45;&gt;Node5 -->
<g id="edge6_Node000001_Node000005" class="edge">
<title>Node1&#45;&gt;Node5</title>
<g id="a_edge6_Node000001_Node000005"><a xlink:title=" ">
<path fill="none" stroke="#63b8ff" d="M318.52,-213.69C334.59,-204.04 351.65,-193.81 367.21,-184.47"/>
<polygon fill="#63b8ff" stroke="#63b8ff" points="316.74,-210.68 309.96,-218.82 320.34,-216.68 316.74,-210.68"/>
</a>
</g>
</g>
<!-- Node4&#45;&gt;Node2 -->
<g id="edge4_Node000004_Node000002" class="edge">
<title>Node4&#45;&gt;Node2</title>
<g id="a_edge4_Node000004_Node000002"><a xlink:title=" ">
<path fill="none" stroke="#63b8ff" d="M156.82,-107.67C148.13,-98.73 138.96,-89.3 130.34,-80.43"/>
<polygon fill="#63b8ff" stroke="#63b8ff" points="154.1,-109.9 163.58,-114.63 159.12,-105.02 154.1,-109.9"/>
</a>
</g>
</g>
<!-- Node4&#45;&gt;Node3 -->
<g id="edge5_Node000004_Node000003" class="edge">
<title>Node4&#45;&gt;Node3</title>
<g id="a_edge5_Node000004_Node000003"><a xlink:title=" ">
<path fill="none" stroke="#63b8ff" d="M237.18,-107.67C245.87,-98.73 255.04,-89.3 263.66,-80.43"/>
<polygon fill="#63b8ff" stroke="#63b8ff" points="234.88,-105.02 230.42,-114.63 239.9,-109.9 234.88,-105.02"/>
</a>
</g>
</g>
</g>
</svg>
