<?xml version="1.0" encoding="UTF-8" standalone="no"?>
<!DOCTYPE svg PUBLIC "-//W3C//DTD SVG 1.1//EN"
 "http://www.w3.org/Graphics/SVG/1.1/DTD/svg11.dtd">
<!-- Generated by graphviz version 9.0.0 (20230911.1827)
 -->
<!-- Title: D:/Note_Database/Subject/MCETA Microcontroller Experiment TA/files/HT32_STD_5xxxx_FWLib_V1.5.1_7084b/example/USBD/Mass_Storage/sd_disk.c Pages: 1 -->
<svg width="321pt" height="244pt"
 viewBox="0.00 0.00 321.00 244.00" xmlns="http://www.w3.org/2000/svg" xmlns:xlink="http://www.w3.org/1999/xlink">
<g id="graph0" class="graph" transform="scale(1 1) rotate(0) translate(4 240)">
<title>D:/Note_Database/Subject/MCETA Microcontroller Experiment TA/files/HT32_STD_5xxxx_FWLib_V1.5.1_7084b/example/USBD/Mass_Storage/sd_disk.c</title>
<!-- Node1 -->
<g id="Node000001" class="node">
<title>Node1</title>
<g id="a_Node000001"><a xlink:title="The SD Disk related function.">
<polygon fill="#999999" stroke="#666666" points="260.88,-236 64.12,-236 64.12,-168 260.88,-168 260.88,-236"/>
<text text-anchor="start" x="72.12" y="-222.5" font-family="Helvetica,sans-Serif" font-size="10.00">D:/Note_Database/Subject</text>
<text text-anchor="start" x="72.12" y="-210.5" font-family="Helvetica,sans-Serif" font-size="10.00">/MCETA Microcontroller</text>
<text text-anchor="start" x="72.12" y="-198.5" font-family="Helvetica,sans-Serif" font-size="10.00"> Experiment TA/files/HT32</text>
<text text-anchor="start" x="72.12" y="-186.5" font-family="Helvetica,sans-Serif" font-size="10.00">_STD_5xxxx_FWLib_V1.5.1_7084b</text>
<text text-anchor="middle" x="162.5" y="-174.5" font-family="Helvetica,sans-Serif" font-size="10.00">/example/USBD/Mass_Storage/sd_disk.c</text>
</a>
</g>
</g>
<!-- Node2 -->
<g id="Node000002" class="node">
<title>Node2</title>
<g id="a_Node000002"><a xlink:href="sd__disk_8h.html" target="_top" xlink:title="The header file of SD Disk.">
<polygon fill="white" stroke="#666666" points="155.5,-132 97.5,-132 97.5,-112 155.5,-112 155.5,-132"/>
<text text-anchor="middle" x="126.5" y="-118.5" font-family="Helvetica,sans-Serif" font-size="10.00">sd_disk.h</text>
</a>
</g>
</g>
<!-- Node1&#45;&gt;Node2 -->
<g id="edge1_Node000001_Node000002" class="edge">
<title>Node1&#45;&gt;Node2</title>
<g id="a_edge1_Node000001_Node000002"><a xlink:title=" ">
<path fill="none" stroke="#63b8ff" d="M147.23,-167.92C143.26,-159.32 139.11,-150.32 135.57,-142.66"/>
<polygon fill="#63b8ff" stroke="#63b8ff" points="138.78,-141.27 131.42,-133.65 132.43,-144.2 138.78,-141.27"/>
</a>
</g>
</g>
<!-- Node6 -->
<g id="Node000006" class="node">
<title>Node6</title>
<g id="a_Node000006"><a xlink:href="spi__sd_8h.html" target="_top" xlink:title="The header file of SD Memory card driver.">
<polygon fill="white" stroke="#666666" points="256.88,-132 204.12,-132 204.12,-112 256.88,-112 256.88,-132"/>
<text text-anchor="middle" x="230.5" y="-118.5" font-family="Helvetica,sans-Serif" font-size="10.00">spi_sd.h</text>
</a>
</g>
</g>
<!-- Node1&#45;&gt;Node6 -->
<g id="edge5_Node000001_Node000006" class="edge">
<title>Node1&#45;&gt;Node6</title>
<g id="a_edge5_Node000001_Node000006"><a xlink:title=" ">
<path fill="none" stroke="#63b8ff" d="M191.34,-167.92C199.46,-158.61 207.97,-148.84 214.99,-140.79"/>
<polygon fill="#63b8ff" stroke="#63b8ff" points="217.48,-143.26 221.42,-133.42 212.21,-138.66 217.48,-143.26"/>
</a>
</g>
</g>
<!-- Node3 -->
<g id="Node000003" class="node">
<title>Node3</title>
<g id="a_Node000003"><a xlink:title=" ">
<polygon fill="#e0e0e0" stroke="#999999" points="43,-76 0,-76 0,-56 43,-56 43,-76"/>
<text text-anchor="middle" x="21.5" y="-62.5" font-family="Helvetica,sans-Serif" font-size="10.00">ht32.h</text>
</a>
</g>
</g>
<!-- Node2&#45;&gt;Node3 -->
<g id="edge2_Node000002_Node000003" class="edge">
<title>Node2&#45;&gt;Node3</title>
<g id="a_edge2_Node000002_Node000003"><a xlink:title=" ">
<path fill="none" stroke="#63b8ff" d="M108.21,-111.59C92.2,-103.36 68.67,-91.26 50.16,-81.74"/>
<polygon fill="#63b8ff" stroke="#63b8ff" points="51.77,-78.63 41.28,-77.17 48.57,-84.86 51.77,-78.63"/>
</a>
</g>
</g>
<!-- Node4 -->
<g id="Node000004" class="node">
<title>Node4</title>
<g id="a_Node000004"><a xlink:href="_mass___storage_2usb__bulk__only__transport_8h.html" target="_top" xlink:title="The header file of Bulk Only Transport.">
<polygon fill="white" stroke="#666666" points="191.5,-76 61.5,-76 61.5,-56 191.5,-56 191.5,-76"/>
<text text-anchor="middle" x="126.5" y="-62.5" font-family="Helvetica,sans-Serif" font-size="10.00">usb_bulk_only_transport.h</text>
</a>
</g>
</g>
<!-- Node2&#45;&gt;Node4 -->
<g id="edge3_Node000002_Node000004" class="edge">
<title>Node2&#45;&gt;Node4</title>
<g id="a_edge3_Node000002_Node000004"><a xlink:title=" ">
<path fill="none" stroke="#63b8ff" d="M126.5,-111.59C126.5,-105.01 126.5,-95.96 126.5,-87.73"/>
<polygon fill="#63b8ff" stroke="#63b8ff" points="130,-87.81 126.5,-77.81 123,-87.81 130,-87.81"/>
</a>
</g>
</g>
<!-- Node5 -->
<g id="Node000005" class="node">
<title>Node5</title>
<g id="a_Node000005"><a xlink:title=" ">
<polygon fill="#e0e0e0" stroke="#999999" points="162.62,-20 90.38,-20 90.38,0 162.62,0 162.62,-20"/>
<text text-anchor="middle" x="126.5" y="-6.5" font-family="Helvetica,sans-Serif" font-size="10.00">ht32_board.h</text>
</a>
</g>
</g>
<!-- Node4&#45;&gt;Node5 -->
<g id="edge4_Node000004_Node000005" class="edge">
<title>Node4&#45;&gt;Node5</title>
<g id="a_edge4_Node000004_Node000005"><a xlink:title=" ">
<path fill="none" stroke="#63b8ff" d="M126.5,-55.59C126.5,-49.01 126.5,-39.96 126.5,-31.73"/>
<polygon fill="#63b8ff" stroke="#63b8ff" points="130,-31.81 126.5,-21.81 123,-31.81 130,-31.81"/>
</a>
</g>
</g>
<!-- Node7 -->
<g id="Node000007" class="node">
<title>Node7</title>
<g id="a_Node000007"><a xlink:href="_u_s_b_d_2_mass___storage_2ht32__board__config_8h.html" target="_top" xlink:title="The header file of board configuration.">
<polygon fill="white" stroke="#666666" points="313,-76 210,-76 210,-56 313,-56 313,-76"/>
<text text-anchor="middle" x="261.5" y="-62.5" font-family="Helvetica,sans-Serif" font-size="10.00">ht32_board_config.h</text>
</a>
</g>
</g>
<!-- Node6&#45;&gt;Node7 -->
<g id="edge6_Node000006_Node000007" class="edge">
<title>Node6&#45;&gt;Node7</title>
<g id="a_edge6_Node000006_Node000007"><a xlink:title=" ">
<path fill="none" stroke="#63b8ff" d="M235.9,-111.59C239.94,-104.55 245.62,-94.67 250.59,-86"/>
<polygon fill="#63b8ff" stroke="#63b8ff" points="253.47,-88.03 255.41,-77.61 247.39,-84.54 253.47,-88.03"/>
</a>
</g>
</g>
</g>
</svg>
