<?xml version="1.0" encoding="UTF-8" standalone="no"?>
<!DOCTYPE svg PUBLIC "-//W3C//DTD SVG 1.1//EN"
 "http://www.w3.org/Graphics/SVG/1.1/DTD/svg11.dtd">
<!-- Generated by graphviz version 9.0.0 (20230911.1827)
 -->
<!-- Title: D:/Note_Database/Subject/MCETA Microcontroller Experiment TA/files/HT32_STD_5xxxx_FWLib_V1.5.1_7084b/utilities/common/spi_lcd.c Pages: 1 -->
<svg width="199pt" height="244pt"
 viewBox="0.00 0.00 199.12 244.00" xmlns="http://www.w3.org/2000/svg" xmlns:xlink="http://www.w3.org/1999/xlink">
<g id="graph0" class="graph" transform="scale(1 1) rotate(0) translate(4 240)">
<title>D:/Note_Database/Subject/MCETA Microcontroller Experiment TA/files/HT32_STD_5xxxx_FWLib_V1.5.1_7084b/utilities/common/spi_lcd.c</title>
<!-- Node1 -->
<g id="Node000001" class="node">
<title>Node1</title>
<g id="a_Node000001"><a xlink:title="This file provides a set of functions needed to manage the communication between SPI peripheral and L...">
<polygon fill="#999999" stroke="#666666" points="191.12,-236 20.62,-236 20.62,-168 191.12,-168 191.12,-236"/>
<text text-anchor="start" x="28.62" y="-222.5" font-family="Helvetica,sans-Serif" font-size="10.00">D:/Note_Database/Subject</text>
<text text-anchor="start" x="28.62" y="-210.5" font-family="Helvetica,sans-Serif" font-size="10.00">/MCETA Microcontroller</text>
<text text-anchor="start" x="28.62" y="-198.5" font-family="Helvetica,sans-Serif" font-size="10.00"> Experiment TA/files/HT32</text>
<text text-anchor="start" x="28.62" y="-186.5" font-family="Helvetica,sans-Serif" font-size="10.00">_STD_5xxxx_FWLib_V1.5.1_7084b</text>
<text text-anchor="middle" x="105.88" y="-174.5" font-family="Helvetica,sans-Serif" font-size="10.00">/utilities/common/spi_lcd.c</text>
</a>
</g>
</g>
<!-- Node2 -->
<g id="Node000002" class="node">
<title>Node2</title>
<g id="a_Node000002"><a xlink:href="spi__lcd_8h.html" target="_top" xlink:title="The header file of spi_lcd.c module.">
<polygon fill="white" stroke="#666666" points="100.38,-132 45.38,-132 45.38,-112 100.38,-112 100.38,-132"/>
<text text-anchor="middle" x="72.88" y="-118.5" font-family="Helvetica,sans-Serif" font-size="10.00">spi_lcd.h</text>
</a>
</g>
</g>
<!-- Node1&#45;&gt;Node2 -->
<g id="edge1_Node000001_Node000002" class="edge">
<title>Node1&#45;&gt;Node2</title>
<g id="a_edge1_Node000001_Node000002"><a xlink:title=" ">
<path fill="none" stroke="#63b8ff" d="M91.88,-167.92C88.24,-159.32 84.43,-150.32 81.19,-142.66"/>
<polygon fill="#63b8ff" stroke="#63b8ff" points="84.51,-141.52 77.39,-133.67 78.06,-144.25 84.51,-141.52"/>
</a>
</g>
</g>
<!-- Node6 -->
<g id="Node000006" class="node">
<title>Node6</title>
<g id="a_Node000006"><a xlink:href="font_8h.html" target="_top" xlink:title="This file contains the font information.">
<polygon fill="white" stroke="#666666" points="158.88,-132 118.88,-132 118.88,-112 158.88,-112 158.88,-132"/>
<text text-anchor="middle" x="138.88" y="-118.5" font-family="Helvetica,sans-Serif" font-size="10.00">font.h</text>
</a>
</g>
</g>
<!-- Node1&#45;&gt;Node6 -->
<g id="edge5_Node000001_Node000006" class="edge">
<title>Node1&#45;&gt;Node6</title>
<g id="a_edge5_Node000001_Node000006"><a xlink:title=" ">
<path fill="none" stroke="#63b8ff" d="M119.87,-167.92C123.51,-159.32 127.32,-150.32 130.56,-142.66"/>
<polygon fill="#63b8ff" stroke="#63b8ff" points="133.69,-144.25 134.36,-133.67 127.24,-141.52 133.69,-144.25"/>
</a>
</g>
</g>
<!-- Node3 -->
<g id="Node000003" class="node">
<title>Node3</title>
<g id="a_Node000003"><a xlink:href="ht32__board_8h.html" target="_top" xlink:title="HT32 target board definition file.">
<polygon fill="white" stroke="#666666" points="73,-76 0.75,-76 0.75,-56 73,-56 73,-76"/>
<text text-anchor="middle" x="36.88" y="-62.5" font-family="Helvetica,sans-Serif" font-size="10.00">ht32_board.h</text>
</a>
</g>
</g>
<!-- Node2&#45;&gt;Node3 -->
<g id="edge2_Node000002_Node000003" class="edge">
<title>Node2&#45;&gt;Node3</title>
<g id="a_edge2_Node000002_Node000003"><a xlink:title=" ">
<path fill="none" stroke="#63b8ff" d="M66.6,-111.59C61.86,-104.47 55.18,-94.45 49.35,-85.72"/>
<polygon fill="#63b8ff" stroke="#63b8ff" points="52.37,-83.94 43.91,-77.56 46.55,-87.82 52.37,-83.94"/>
</a>
</g>
</g>
<!-- Node5 -->
<g id="Node000005" class="node">
<title>Node5</title>
<g id="a_Node000005"><a xlink:href="lcd_8h.html" target="_top" xlink:title="The header file of lcd module.">
<polygon fill="white" stroke="#666666" points="128.38,-76 91.38,-76 91.38,-56 128.38,-56 128.38,-76"/>
<text text-anchor="middle" x="109.88" y="-62.5" font-family="Helvetica,sans-Serif" font-size="10.00">lcd.h</text>
</a>
</g>
</g>
<!-- Node2&#45;&gt;Node5 -->
<g id="edge4_Node000002_Node000005" class="edge">
<title>Node2&#45;&gt;Node5</title>
<g id="a_edge4_Node000002_Node000005"><a xlink:title=" ">
<path fill="none" stroke="#63b8ff" d="M79.32,-111.59C84.2,-104.47 91.07,-94.45 97.05,-85.72"/>
<polygon fill="#63b8ff" stroke="#63b8ff" points="99.88,-87.77 102.65,-77.55 94.11,-83.82 99.88,-87.77"/>
</a>
</g>
</g>
<!-- Node4 -->
<g id="Node000004" class="node">
<title>Node4</title>
<g id="a_Node000004"><a xlink:href="ht32__config_8h.html" target="_top" xlink:title="Configuration file of HT32.">
<polygon fill="white" stroke="#666666" points="73.75,-20 0,-20 0,0 73.75,0 73.75,-20"/>
<text text-anchor="middle" x="36.88" y="-6.5" font-family="Helvetica,sans-Serif" font-size="10.00">ht32_config.h</text>
</a>
</g>
</g>
<!-- Node3&#45;&gt;Node4 -->
<g id="edge3_Node000003_Node000004" class="edge">
<title>Node3&#45;&gt;Node4</title>
<g id="a_edge3_Node000003_Node000004"><a xlink:title=" ">
<path fill="none" stroke="#63b8ff" d="M36.88,-55.59C36.88,-49.01 36.88,-39.96 36.88,-31.73"/>
<polygon fill="#63b8ff" stroke="#63b8ff" points="40.38,-31.81 36.88,-21.81 33.38,-31.81 40.38,-31.81"/>
</a>
</g>
</g>
</g>
</svg>
