<?xml version="1.0" encoding="UTF-8" standalone="no"?>
<!DOCTYPE svg PUBLIC "-//W3C//DTD SVG 1.1//EN"
 "http://www.w3.org/Graphics/SVG/1.1/DTD/svg11.dtd">
<!-- Generated by graphviz version 9.0.0 (20230911.1827)
 -->
<!-- Title: D:/Note_Database/Subject/MCETA Microcontroller Experiment TA/files/HT32_STD_5xxxx_FWLib_V1.5.1_7084b/utilities/common/spi_flash_common.h Pages: 1 -->
<svg width="251pt" height="284pt"
 viewBox="0.00 0.00 250.50 284.00" xmlns="http://www.w3.org/2000/svg" xmlns:xlink="http://www.w3.org/1999/xlink">
<g id="graph0" class="graph" transform="scale(1 1) rotate(0) translate(4 280)">
<title>D:/Note_Database/Subject/MCETA Microcontroller Experiment TA/files/HT32_STD_5xxxx_FWLib_V1.5.1_7084b/utilities/common/spi_flash_common.h</title>
<!-- Node1 -->
<g id="Node000001" class="node">
<title>Node1</title>
<g id="a_Node000001"><a xlink:title="The header file of common function for SPI Flash.">
<polygon fill="#999999" stroke="#666666" points="182.5,-276 0,-276 0,-208 182.5,-208 182.5,-276"/>
<text text-anchor="start" x="8" y="-262.5" font-family="Helvetica,sans-Serif" font-size="10.00">D:/Note_Database/Subject</text>
<text text-anchor="start" x="8" y="-250.5" font-family="Helvetica,sans-Serif" font-size="10.00">/MCETA Microcontroller</text>
<text text-anchor="start" x="8" y="-238.5" font-family="Helvetica,sans-Serif" font-size="10.00"> Experiment TA/files/HT32</text>
<text text-anchor="start" x="8" y="-226.5" font-family="Helvetica,sans-Serif" font-size="10.00">_STD_5xxxx_FWLib_V1.5.1_7084b</text>
<text text-anchor="middle" x="91.25" y="-214.5" font-family="Helvetica,sans-Serif" font-size="10.00">/utilities/common/spi_flash_common.h</text>
</a>
</g>
</g>
<!-- Node2 -->
<g id="Node000002" class="node">
<title>Node2</title>
<g id="a_Node000002"><a xlink:href="spi__flash__auto_8c.html" target="_top" xlink:title="The SPI Flash Driver with auto detection function.">
<polygon fill="white" stroke="#666666" points="176.5,-68 6,-68 6,0 176.5,0 176.5,-68"/>
<text text-anchor="start" x="14" y="-54.5" font-family="Helvetica,sans-Serif" font-size="10.00">D:/Note_Database/Subject</text>
<text text-anchor="start" x="14" y="-42.5" font-family="Helvetica,sans-Serif" font-size="10.00">/MCETA Microcontroller</text>
<text text-anchor="start" x="14" y="-30.5" font-family="Helvetica,sans-Serif" font-size="10.00"> Experiment TA/files/HT32</text>
<text text-anchor="start" x="14" y="-18.5" font-family="Helvetica,sans-Serif" font-size="10.00">_STD_5xxxx_FWLib_V1.5.1_7084b</text>
<text text-anchor="middle" x="91.25" y="-6.5" font-family="Helvetica,sans-Serif" font-size="10.00">/utilities/common/spi_flash_auto.c</text>
</a>
</g>
</g>
<!-- Node1&#45;&gt;Node2 -->
<g id="edge1_Node000001_Node000002" class="edge">
<title>Node1&#45;&gt;Node2</title>
<g id="a_edge1_Node000001_Node000002"><a xlink:title=" ">
<path fill="none" stroke="#63b8ff" d="M61.8,-198.02C57.44,-189.72 53.63,-180.84 51.25,-172 43.4,-142.81 43.4,-133.19 51.25,-104 54.59,-91.56 60.79,-79.06 67.32,-68.17"/>
<polygon fill="#63b8ff" stroke="#63b8ff" points="58.62,-199.51 66.58,-206.51 64.72,-196.08 58.62,-199.51"/>
</a>
</g>
</g>
<!-- Node3 -->
<g id="Node000003" class="node">
<title>Node3</title>
<g id="a_Node000003"><a xlink:href="spi__flash__common_8c.html" target="_top" xlink:title="This file provides a set of functions needed to manage the communication between SPI peripheral and S...">
<polygon fill="white" stroke="#666666" points="242.5,-172 60,-172 60,-104 242.5,-104 242.5,-172"/>
<text text-anchor="start" x="68" y="-158.5" font-family="Helvetica,sans-Serif" font-size="10.00">D:/Note_Database/Subject</text>
<text text-anchor="start" x="68" y="-146.5" font-family="Helvetica,sans-Serif" font-size="10.00">/MCETA Microcontroller</text>
<text text-anchor="start" x="68" y="-134.5" font-family="Helvetica,sans-Serif" font-size="10.00"> Experiment TA/files/HT32</text>
<text text-anchor="start" x="68" y="-122.5" font-family="Helvetica,sans-Serif" font-size="10.00">_STD_5xxxx_FWLib_V1.5.1_7084b</text>
<text text-anchor="middle" x="151.25" y="-110.5" font-family="Helvetica,sans-Serif" font-size="10.00">/utilities/common/spi_flash_common.c</text>
</a>
</g>
</g>
<!-- Node1&#45;&gt;Node3 -->
<g id="edge2_Node000001_Node000003" class="edge">
<title>Node1&#45;&gt;Node3</title>
<g id="a_edge2_Node000001_Node000003"><a xlink:title=" ">
<path fill="none" stroke="#63b8ff" d="M116.64,-197.84C121.63,-189.36 126.79,-180.58 131.56,-172.47"/>
<polygon fill="#63b8ff" stroke="#63b8ff" points="113.72,-195.9 111.66,-206.3 119.75,-199.45 113.72,-195.9"/>
</a>
</g>
</g>
<!-- Node3&#45;&gt;Node2 -->
<g id="edge3_Node000003_Node000002" class="edge">
<title>Node3&#45;&gt;Node2</title>
<g id="a_edge3_Node000003_Node000002"><a xlink:title=" ">
<path fill="none" stroke="#63b8ff" d="M125.86,-93.84C120.87,-85.36 115.71,-76.58 110.94,-68.47"/>
<polygon fill="#63b8ff" stroke="#63b8ff" points="122.75,-95.45 130.84,-102.3 128.78,-91.9 122.75,-95.45"/>
</a>
</g>
</g>
</g>
</svg>
