<?xml version="1.0" encoding="UTF-8" standalone="no"?>
<!DOCTYPE svg PUBLIC "-//W3C//DTD SVG 1.1//EN"
 "http://www.w3.org/Graphics/SVG/1.1/DTD/svg11.dtd">
<!-- Generated by graphviz version 9.0.0 (20230911.1827)
 -->
<!-- Title: D:/Note_Database/Subject/MCETA Microcontroller Experiment TA/files/HT32_STD_5xxxx_FWLib_V1.5.1_7084b/utilities/common/spi_flash_auto.c Pages: 1 -->
<svg width="904pt" height="300pt"
 viewBox="0.00 0.00 904.38 300.00" xmlns="http://www.w3.org/2000/svg" xmlns:xlink="http://www.w3.org/1999/xlink">
<g id="graph0" class="graph" transform="scale(1 1) rotate(0) translate(4 296)">
<title>D:/Note_Database/Subject/MCETA Microcontroller Experiment TA/files/HT32_STD_5xxxx_FWLib_V1.5.1_7084b/utilities/common/spi_flash_auto.c</title>
<!-- Node1 -->
<g id="Node000001" class="node">
<title>Node1</title>
<g id="a_Node000001"><a xlink:title="The SPI Flash Driver with auto detection function.">
<polygon fill="#999999" stroke="#666666" points="242.5,-292 72,-292 72,-224 242.5,-224 242.5,-292"/>
<text text-anchor="start" x="80" y="-278.5" font-family="Helvetica,sans-Serif" font-size="10.00">D:/Note_Database/Subject</text>
<text text-anchor="start" x="80" y="-266.5" font-family="Helvetica,sans-Serif" font-size="10.00">/MCETA Microcontroller</text>
<text text-anchor="start" x="80" y="-254.5" font-family="Helvetica,sans-Serif" font-size="10.00"> Experiment TA/files/HT32</text>
<text text-anchor="start" x="80" y="-242.5" font-family="Helvetica,sans-Serif" font-size="10.00">_STD_5xxxx_FWLib_V1.5.1_7084b</text>
<text text-anchor="middle" x="157.25" y="-230.5" font-family="Helvetica,sans-Serif" font-size="10.00">/utilities/common/spi_flash_auto.c</text>
</a>
</g>
</g>
<!-- Node2 -->
<g id="Node000002" class="node">
<title>Node2</title>
<g id="a_Node000002"><a xlink:href="spi__flash__auto_8h.html" target="_top" xlink:title="The header file of SPI Flash driver.">
<polygon fill="white" stroke="#666666" points="86.5,-132 0,-132 0,-112 86.5,-112 86.5,-132"/>
<text text-anchor="middle" x="43.25" y="-118.5" font-family="Helvetica,sans-Serif" font-size="10.00">spi_flash_auto.h</text>
</a>
</g>
</g>
<!-- Node1&#45;&gt;Node2 -->
<g id="edge1_Node000001_Node000002" class="edge">
<title>Node1&#45;&gt;Node2</title>
<g id="a_edge1_Node000001_Node000002"><a xlink:title=" ">
<path fill="none" stroke="#63b8ff" d="M128.78,-223.53C106.47,-197.31 76.32,-161.87 58.41,-140.82"/>
<polygon fill="#63b8ff" stroke="#63b8ff" points="61.25,-138.76 52.1,-133.41 55.92,-143.29 61.25,-138.76"/>
</a>
</g>
</g>
<!-- Node5 -->
<g id="Node000005" class="node">
<title>Node5</title>
<g id="a_Node000005"><a xlink:href="spi__flash__common_8h.html" target="_top" xlink:title="The header file of common function for SPI Flash.">
<polygon fill="white" stroke="#666666" points="209.88,-132 104.62,-132 104.62,-112 209.88,-112 209.88,-132"/>
<text text-anchor="middle" x="157.25" y="-118.5" font-family="Helvetica,sans-Serif" font-size="10.00">spi_flash_common.h</text>
</a>
</g>
</g>
<!-- Node1&#45;&gt;Node5 -->
<g id="edge4_Node000001_Node000005" class="edge">
<title>Node1&#45;&gt;Node5</title>
<g id="a_edge4_Node000001_Node000005"><a xlink:title=" ">
<path fill="none" stroke="#63b8ff" d="M157.25,-223.53C157.25,-198.5 157.25,-165.04 157.25,-143.75"/>
<polygon fill="#63b8ff" stroke="#63b8ff" points="160.75,-143.77 157.25,-133.77 153.75,-143.77 160.75,-143.77"/>
</a>
</g>
</g>
<!-- Node6 -->
<g id="Node000006" class="node">
<title>Node6</title>
<g id="a_Node000006"><a xlink:href="spi__flash__common_8c.html" target="_top" xlink:title="This file provides a set of functions needed to manage the communication between SPI peripheral and S...">
<polygon fill="white" stroke="#666666" points="340.88,-188 235.62,-188 235.62,-168 340.88,-168 340.88,-188"/>
<text text-anchor="middle" x="288.25" y="-174.5" font-family="Helvetica,sans-Serif" font-size="10.00">spi_flash_common.c</text>
</a>
</g>
</g>
<!-- Node1&#45;&gt;Node6 -->
<g id="edge5_Node000001_Node000006" class="edge">
<title>Node1&#45;&gt;Node6</title>
<g id="a_edge5_Node000001_Node000006"><a xlink:title=" ">
<path fill="none" stroke="#63b8ff" d="M213.19,-223.69C230.53,-213.37 248.8,-202.49 262.96,-194.06"/>
<polygon fill="#63b8ff" stroke="#63b8ff" points="264.38,-197.29 271.18,-189.16 260.8,-191.27 264.38,-197.29"/>
</a>
</g>
</g>
<!-- Node3 -->
<g id="Node000003" class="node">
<title>Node3</title>
<g id="a_Node000003"><a xlink:href="ht32__board_8h.html" target="_top" xlink:title="HT32 target board definition file.">
<polygon fill="white" stroke="#666666" points="207.38,-76 135.12,-76 135.12,-56 207.38,-56 207.38,-76"/>
<text text-anchor="middle" x="171.25" y="-62.5" font-family="Helvetica,sans-Serif" font-size="10.00">ht32_board.h</text>
</a>
</g>
</g>
<!-- Node2&#45;&gt;Node3 -->
<g id="edge2_Node000002_Node000003" class="edge">
<title>Node2&#45;&gt;Node3</title>
<g id="a_edge2_Node000002_Node000003"><a xlink:title=" ">
<path fill="none" stroke="#63b8ff" d="M65.55,-111.59C85.61,-103.13 115.37,-90.58 138.2,-80.94"/>
<polygon fill="#63b8ff" stroke="#63b8ff" points="139.53,-84.18 147.39,-77.07 136.81,-77.73 139.53,-84.18"/>
</a>
</g>
</g>
<!-- Node4 -->
<g id="Node000004" class="node">
<title>Node4</title>
<g id="a_Node000004"><a xlink:href="ht32__config_8h.html" target="_top" xlink:title="Configuration file of HT32.">
<polygon fill="white" stroke="#666666" points="208.12,-20 134.38,-20 134.38,0 208.12,0 208.12,-20"/>
<text text-anchor="middle" x="171.25" y="-6.5" font-family="Helvetica,sans-Serif" font-size="10.00">ht32_config.h</text>
</a>
</g>
</g>
<!-- Node3&#45;&gt;Node4 -->
<g id="edge3_Node000003_Node000004" class="edge">
<title>Node3&#45;&gt;Node4</title>
<g id="a_edge3_Node000003_Node000004"><a xlink:title=" ">
<path fill="none" stroke="#63b8ff" d="M171.25,-55.59C171.25,-49.01 171.25,-39.96 171.25,-31.73"/>
<polygon fill="#63b8ff" stroke="#63b8ff" points="174.75,-31.81 171.25,-21.81 167.75,-31.81 174.75,-31.81"/>
</a>
</g>
</g>
<!-- Node6&#45;&gt;Node2 -->
<g id="edge12_Node000006_Node000002" class="edge">
<title>Node6&#45;&gt;Node2</title>
<g id="a_edge12_Node000006_Node000002"><a xlink:title=" ">
<path fill="none" stroke="#63b8ff" d="M245.29,-167.53C204.14,-158.46 141.88,-144.74 97.35,-134.93"/>
<polygon fill="#63b8ff" stroke="#63b8ff" points="98.15,-131.52 87.63,-132.78 96.65,-138.35 98.15,-131.52"/>
</a>
</g>
</g>
<!-- Node6&#45;&gt;Node3 -->
<g id="edge11_Node000006_Node000003" class="edge">
<title>Node6&#45;&gt;Node3</title>
<g id="a_edge11_Node000006_Node000003"><a xlink:title=" ">
<path fill="none" stroke="#63b8ff" d="M278.43,-167.74C265.06,-155.12 240.36,-131.84 219.25,-112 209.39,-102.73 198.37,-92.4 189.38,-83.98"/>
<polygon fill="#63b8ff" stroke="#63b8ff" points="191.98,-81.62 182.29,-77.34 187.19,-86.73 191.98,-81.62"/>
</a>
</g>
</g>
<!-- Node6&#45;&gt;Node5 -->
<g id="edge13_Node000006_Node000005" class="edge">
<title>Node6&#45;&gt;Node5</title>
<g id="a_edge13_Node000006_Node000005"><a xlink:title=" ">
<path fill="none" stroke="#63b8ff" d="M265.43,-167.59C244.8,-159.09 214.17,-146.46 190.76,-136.81"/>
<polygon fill="#63b8ff" stroke="#63b8ff" points="192.23,-133.63 181.65,-133.06 189.56,-140.1 192.23,-133.63"/>
</a>
</g>
</g>
<!-- Node7 -->
<g id="Node000007" class="node">
<title>Node7</title>
<g id="a_Node000007"><a xlink:href="ht32_8h.html" target="_top" xlink:title="The API between application and HT32FXXXX Firmware Library.">
<polygon fill="white" stroke="#666666" points="309.75,-132 266.75,-132 266.75,-112 309.75,-112 309.75,-132"/>
<text text-anchor="middle" x="288.25" y="-118.5" font-family="Helvetica,sans-Serif" font-size="10.00">ht32.h</text>
</a>
</g>
</g>
<!-- Node6&#45;&gt;Node7 -->
<g id="edge6_Node000006_Node000007" class="edge">
<title>Node6&#45;&gt;Node7</title>
<g id="a_edge6_Node000006_Node000007"><a xlink:title=" ">
<path fill="none" stroke="#63b8ff" d="M288.25,-167.59C288.25,-161.01 288.25,-151.96 288.25,-143.73"/>
<polygon fill="#63b8ff" stroke="#63b8ff" points="291.75,-143.81 288.25,-133.81 284.75,-143.81 291.75,-143.81"/>
</a>
</g>
</g>
<!-- Node11 -->
<g id="Node000011" class="node">
<title>Node11</title>
<g id="a_Node000011"><a xlink:href="spi__flash___m_x25_l1606_e_8h.html" target="_top" xlink:title="The header file of MX25L1606E.">
<polygon fill="white" stroke="#666666" points="452.62,-132 327.88,-132 327.88,-112 452.62,-112 452.62,-132"/>
<text text-anchor="middle" x="390.25" y="-118.5" font-family="Helvetica,sans-Serif" font-size="10.00">spi_flash_MX25L1606E.h</text>
</a>
</g>
</g>
<!-- Node6&#45;&gt;Node11 -->
<g id="edge14_Node000006_Node000011" class="edge">
<title>Node6&#45;&gt;Node11</title>
<g id="a_edge14_Node000006_Node000011"><a xlink:title=" ">
<path fill="none" stroke="#63b8ff" d="M306.02,-167.59C321.57,-159.36 344.43,-147.26 362.41,-137.74"/>
<polygon fill="#63b8ff" stroke="#63b8ff" points="363.81,-140.96 371.01,-133.19 360.53,-134.77 363.81,-140.96"/>
</a>
</g>
</g>
<!-- Node12 -->
<g id="Node000012" class="node">
<title>Node12</title>
<g id="a_Node000012"><a xlink:href="spi__flash___m_x25_l1606_e_8c.html" target="_top" xlink:title="This file provides a set of functions needed to manage the communication between SPI peripheral and S...">
<polygon fill="white" stroke="#666666" points="595.62,-132 470.88,-132 470.88,-112 595.62,-112 595.62,-132"/>
<text text-anchor="middle" x="533.25" y="-118.5" font-family="Helvetica,sans-Serif" font-size="10.00">spi_flash_MX25L1606E.c</text>
</a>
</g>
</g>
<!-- Node6&#45;&gt;Node12 -->
<g id="edge15_Node000006_Node000012" class="edge">
<title>Node6&#45;&gt;Node12</title>
<g id="a_edge15_Node000006_Node000012"><a xlink:title=" ">
<path fill="none" stroke="#63b8ff" d="M331.21,-167.53C372.36,-158.46 434.62,-144.74 479.15,-134.93"/>
<polygon fill="#63b8ff" stroke="#63b8ff" points="479.85,-138.35 488.87,-132.78 478.35,-131.52 479.85,-138.35"/>
</a>
</g>
</g>
<!-- Node13 -->
<g id="Node000013" class="node">
<title>Node13</title>
<g id="a_Node000013"><a xlink:href="spi__flash___s_s_t25_v_f016_b_8h.html" target="_top" xlink:title="The header file of SST25V016B.">
<polygon fill="white" stroke="#666666" points="746.38,-132 614.12,-132 614.12,-112 746.38,-112 746.38,-132"/>
<text text-anchor="middle" x="680.25" y="-118.5" font-family="Helvetica,sans-Serif" font-size="10.00">spi_flash_SST25VF016B.h</text>
</a>
</g>
</g>
<!-- Node6&#45;&gt;Node13 -->
<g id="edge16_Node000006_Node000013" class="edge">
<title>Node6&#45;&gt;Node13</title>
<g id="a_edge16_Node000006_Node000013"><a xlink:title=" ">
<path fill="none" stroke="#63b8ff" d="M341.12,-169.72C408.44,-160.44 525.31,-144.34 602.72,-133.68"/>
<polygon fill="#63b8ff" stroke="#63b8ff" points="602.91,-137.19 612.34,-132.35 601.96,-130.25 602.91,-137.19"/>
</a>
</g>
</g>
<!-- Node14 -->
<g id="Node000014" class="node">
<title>Node14</title>
<g id="a_Node000014"><a xlink:href="spi__flash___s_s_t25_v_f016_b_8c.html" target="_top" xlink:title="This file provides a set of functions needed to manage the communication between SPI peripheral and S...">
<polygon fill="white" stroke="#666666" points="896.38,-132 764.12,-132 764.12,-112 896.38,-112 896.38,-132"/>
<text text-anchor="middle" x="830.25" y="-118.5" font-family="Helvetica,sans-Serif" font-size="10.00">spi_flash_SST25VF016B.c</text>
</a>
</g>
</g>
<!-- Node6&#45;&gt;Node14 -->
<g id="edge17_Node000006_Node000014" class="edge">
<title>Node6&#45;&gt;Node14</title>
<g id="a_edge17_Node000006_Node000014"><a xlink:title=" ">
<path fill="none" stroke="#63b8ff" d="M341.17,-172.31C425.76,-164.72 596.97,-148.99 752.81,-132.24"/>
<polygon fill="#63b8ff" stroke="#63b8ff" points="752.93,-135.75 762.5,-131.2 752.18,-128.79 752.93,-135.75"/>
</a>
</g>
</g>
<!-- Node8 -->
<g id="Node000008" class="node">
<title>Node8</title>
<g id="a_Node000008"><a xlink:href="ht32f5xxxx__01_8h.html" target="_top" xlink:title="CMSIS Cortex&#45;M0+ Device Peripheral Access Layer Header File.">
<polygon fill="white" stroke="#666666" points="331.88,-76 244.62,-76 244.62,-56 331.88,-56 331.88,-76"/>
<text text-anchor="middle" x="288.25" y="-62.5" font-family="Helvetica,sans-Serif" font-size="10.00">ht32f5xxxx_01.h</text>
</a>
</g>
</g>
<!-- Node7&#45;&gt;Node8 -->
<g id="edge7_Node000007_Node000008" class="edge">
<title>Node7&#45;&gt;Node8</title>
<g id="a_edge7_Node000007_Node000008"><a xlink:title=" ">
<path fill="none" stroke="#63b8ff" d="M288.25,-111.59C288.25,-105.01 288.25,-95.96 288.25,-87.73"/>
<polygon fill="#63b8ff" stroke="#63b8ff" points="291.75,-87.81 288.25,-77.81 284.75,-87.81 291.75,-87.81"/>
</a>
</g>
</g>
<!-- Node8&#45;&gt;Node4 -->
<g id="edge8_Node000008_Node000004" class="edge">
<title>Node8&#45;&gt;Node4</title>
<g id="a_edge8_Node000008_Node000004"><a xlink:title=" ">
<path fill="none" stroke="#63b8ff" d="M267.87,-55.59C249.69,-47.21 222.82,-34.8 202.03,-25.21"/>
<polygon fill="#63b8ff" stroke="#63b8ff" points="203.71,-22.13 193.16,-21.11 200.78,-28.48 203.71,-22.13"/>
</a>
</g>
</g>
<!-- Node9 -->
<g id="Node000009" class="node">
<title>Node9</title>
<g id="a_Node000009"><a xlink:title=" ">
<polygon fill="#e0e0e0" stroke="#999999" points="453.75,-20 368.75,-20 368.75,0 453.75,0 453.75,-20"/>
<text text-anchor="middle" x="411.25" y="-6.5" font-family="Helvetica,sans-Serif" font-size="10.00">core_cm0plus.h</text>
</a>
</g>
</g>
<!-- Node8&#45;&gt;Node9 -->
<g id="edge9_Node000008_Node000009" class="edge">
<title>Node8&#45;&gt;Node9</title>
<g id="a_edge9_Node000008_Node000009"><a xlink:title=" ">
<path fill="none" stroke="#63b8ff" d="M309.67,-55.59C328.87,-47.17 357.29,-34.69 379.19,-25.07"/>
<polygon fill="#63b8ff" stroke="#63b8ff" points="380.52,-28.31 388.27,-21.09 377.71,-21.9 380.52,-28.31"/>
</a>
</g>
</g>
<!-- Node10 -->
<g id="Node000010" class="node">
<title>Node10</title>
<g id="a_Node000010"><a xlink:href="system__ht32f5xxxx__01_8h.html" target="_top" xlink:title="CMSIS Cortex&#45;M0+ Device Peripheral Access Layer System Header File for the Holtek HT32F5xxxx Device S...">
<polygon fill="white" stroke="#666666" points="350.62,-20 225.88,-20 225.88,0 350.62,0 350.62,-20"/>
<text text-anchor="middle" x="288.25" y="-6.5" font-family="Helvetica,sans-Serif" font-size="10.00">system_ht32f5xxxx_01.h</text>
</a>
</g>
</g>
<!-- Node8&#45;&gt;Node10 -->
<g id="edge10_Node000008_Node000010" class="edge">
<title>Node8&#45;&gt;Node10</title>
<g id="a_edge10_Node000008_Node000010"><a xlink:title=" ">
<path fill="none" stroke="#63b8ff" d="M288.25,-55.59C288.25,-49.01 288.25,-39.96 288.25,-31.73"/>
<polygon fill="#63b8ff" stroke="#63b8ff" points="291.75,-31.81 288.25,-21.81 284.75,-31.81 291.75,-31.81"/>
</a>
</g>
</g>
</g>
</svg>
