<?xml version="1.0" encoding="UTF-8" standalone="no"?>
<!DOCTYPE svg PUBLIC "-//W3C//DTD SVG 1.1//EN"
 "http://www.w3.org/Graphics/SVG/1.1/DTD/svg11.dtd">
<!-- Generated by graphviz version 9.0.0 (20230911.1827)
 -->
<!-- Title: D:/Note_Database/Subject/MCETA Microcontroller Experiment TA/files/HT32_STD_5xxxx_FWLib_V1.5.1_7084b/example/USBD/Mass_Storage/spi_sd.c Pages: 1 -->
<svg width="200pt" height="188pt"
 viewBox="0.00 0.00 199.50 188.00" xmlns="http://www.w3.org/2000/svg" xmlns:xlink="http://www.w3.org/1999/xlink">
<g id="graph0" class="graph" transform="scale(1 1) rotate(0) translate(4 184)">
<title>D:/Note_Database/Subject/MCETA Microcontroller Experiment TA/files/HT32_STD_5xxxx_FWLib_V1.5.1_7084b/example/USBD/Mass_Storage/spi_sd.c</title>
<!-- Node1 -->
<g id="Node000001" class="node">
<title>Node1</title>
<g id="a_Node000001"><a xlink:title="The SD Memory card driver. Supports both SD and SDHC.">
<polygon fill="#999999" stroke="#666666" points="191.5,-180 0,-180 0,-112 191.5,-112 191.5,-180"/>
<text text-anchor="start" x="8" y="-166.5" font-family="Helvetica,sans-Serif" font-size="10.00">D:/Note_Database/Subject</text>
<text text-anchor="start" x="8" y="-154.5" font-family="Helvetica,sans-Serif" font-size="10.00">/MCETA Microcontroller</text>
<text text-anchor="start" x="8" y="-142.5" font-family="Helvetica,sans-Serif" font-size="10.00"> Experiment TA/files/HT32</text>
<text text-anchor="start" x="8" y="-130.5" font-family="Helvetica,sans-Serif" font-size="10.00">_STD_5xxxx_FWLib_V1.5.1_7084b</text>
<text text-anchor="middle" x="95.75" y="-118.5" font-family="Helvetica,sans-Serif" font-size="10.00">/example/USBD/Mass_Storage/spi_sd.c</text>
</a>
</g>
</g>
<!-- Node2 -->
<g id="Node000002" class="node">
<title>Node2</title>
<g id="a_Node000002"><a xlink:title=" ">
<polygon fill="#e0e0e0" stroke="#999999" points="84.25,-76 41.25,-76 41.25,-56 84.25,-56 84.25,-76"/>
<text text-anchor="middle" x="62.75" y="-62.5" font-family="Helvetica,sans-Serif" font-size="10.00">ht32.h</text>
</a>
</g>
</g>
<!-- Node1&#45;&gt;Node2 -->
<g id="edge1_Node000001_Node000002" class="edge">
<title>Node1&#45;&gt;Node2</title>
<g id="a_edge1_Node000001_Node000002"><a xlink:title=" ">
<path fill="none" stroke="#63b8ff" d="M81.76,-111.92C78.12,-103.32 74.31,-94.32 71.07,-86.66"/>
<polygon fill="#63b8ff" stroke="#63b8ff" points="74.38,-85.52 67.27,-77.67 67.94,-88.25 74.38,-85.52"/>
</a>
</g>
</g>
<!-- Node3 -->
<g id="Node000003" class="node">
<title>Node3</title>
<g id="a_Node000003"><a xlink:href="spi__sd_8h.html" target="_top" xlink:title="The header file of SD Memory card driver.">
<polygon fill="white" stroke="#666666" points="155.12,-76 102.38,-76 102.38,-56 155.12,-56 155.12,-76"/>
<text text-anchor="middle" x="128.75" y="-62.5" font-family="Helvetica,sans-Serif" font-size="10.00">spi_sd.h</text>
</a>
</g>
</g>
<!-- Node1&#45;&gt;Node3 -->
<g id="edge2_Node000001_Node000003" class="edge">
<title>Node1&#45;&gt;Node3</title>
<g id="a_edge2_Node000001_Node000003"><a xlink:title=" ">
<path fill="none" stroke="#63b8ff" d="M109.74,-111.92C113.38,-103.32 117.19,-94.32 120.43,-86.66"/>
<polygon fill="#63b8ff" stroke="#63b8ff" points="123.56,-88.25 124.23,-77.67 117.12,-85.52 123.56,-88.25"/>
</a>
</g>
</g>
<!-- Node4 -->
<g id="Node000004" class="node">
<title>Node4</title>
<g id="a_Node000004"><a xlink:href="_u_s_b_d_2_mass___storage_2ht32__board__config_8h.html" target="_top" xlink:title="The header file of board configuration.">
<polygon fill="white" stroke="#666666" points="180.25,-20 77.25,-20 77.25,0 180.25,0 180.25,-20"/>
<text text-anchor="middle" x="128.75" y="-6.5" font-family="Helvetica,sans-Serif" font-size="10.00">ht32_board_config.h</text>
</a>
</g>
</g>
<!-- Node3&#45;&gt;Node4 -->
<g id="edge3_Node000003_Node000004" class="edge">
<title>Node3&#45;&gt;Node4</title>
<g id="a_edge3_Node000003_Node000004"><a xlink:title=" ">
<path fill="none" stroke="#63b8ff" d="M128.75,-55.59C128.75,-49.01 128.75,-39.96 128.75,-31.73"/>
<polygon fill="#63b8ff" stroke="#63b8ff" points="132.25,-31.81 128.75,-21.81 125.25,-31.81 132.25,-31.81"/>
</a>
</g>
</g>
</g>
</svg>
