<?xml version="1.0" encoding="UTF-8" standalone="no"?>
<!DOCTYPE svg PUBLIC "-//W3C//DTD SVG 1.1//EN"
 "http://www.w3.org/Graphics/SVG/1.1/DTD/svg11.dtd">
<!-- Generated by graphviz version 9.0.0 (20230911.1827)
 -->
<!-- Title: D:/Note_Database/Subject/MCETA Microcontroller Experiment TA/files/HT32_STD_5xxxx_FWLib_V1.5.1_7084b/utilities/common/spi_flash_common.c Pages: 1 -->
<svg width="1048pt" height="244pt"
 viewBox="0.00 0.00 1047.62 244.00" xmlns="http://www.w3.org/2000/svg" xmlns:xlink="http://www.w3.org/1999/xlink">
<g id="graph0" class="graph" transform="scale(1 1) rotate(0) translate(4 240)">
<title>D:/Note_Database/Subject/MCETA Microcontroller Experiment TA/files/HT32_STD_5xxxx_FWLib_V1.5.1_7084b/utilities/common/spi_flash_common.c</title>
<!-- Node1 -->
<g id="Node000001" class="node">
<title>Node1</title>
<g id="a_Node000001"><a xlink:title="This file provides a set of functions needed to manage the communication between SPI peripheral and S...">
<polygon fill="#999999" stroke="#666666" points="557.75,-236 375.25,-236 375.25,-168 557.75,-168 557.75,-236"/>
<text text-anchor="start" x="383.25" y="-222.5" font-family="Helvetica,sans-Serif" font-size="10.00">D:/Note_Database/Subject</text>
<text text-anchor="start" x="383.25" y="-210.5" font-family="Helvetica,sans-Serif" font-size="10.00">/MCETA Microcontroller</text>
<text text-anchor="start" x="383.25" y="-198.5" font-family="Helvetica,sans-Serif" font-size="10.00"> Experiment TA/files/HT32</text>
<text text-anchor="start" x="383.25" y="-186.5" font-family="Helvetica,sans-Serif" font-size="10.00">_STD_5xxxx_FWLib_V1.5.1_7084b</text>
<text text-anchor="middle" x="466.5" y="-174.5" font-family="Helvetica,sans-Serif" font-size="10.00">/utilities/common/spi_flash_common.c</text>
</a>
</g>
</g>
<!-- Node2 -->
<g id="Node000002" class="node">
<title>Node2</title>
<g id="a_Node000002"><a xlink:href="ht32_8h.html" target="_top" xlink:title="The API between application and HT32FXXXX Firmware Library.">
<polygon fill="white" stroke="#666666" points="187,-132 144,-132 144,-112 187,-112 187,-132"/>
<text text-anchor="middle" x="165.5" y="-118.5" font-family="Helvetica,sans-Serif" font-size="10.00">ht32.h</text>
</a>
</g>
</g>
<!-- Node1&#45;&gt;Node2 -->
<g id="edge1_Node000001_Node000002" class="edge">
<title>Node1&#45;&gt;Node2</title>
<g id="a_edge1_Node000001_Node000002"><a xlink:title=" ">
<path fill="none" stroke="#63b8ff" d="M374.96,-177.28C315.05,-161.75 240.32,-142.39 198.25,-131.49"/>
<polygon fill="#63b8ff" stroke="#63b8ff" points="199.31,-128.15 188.75,-129.03 197.56,-134.92 199.31,-128.15"/>
</a>
</g>
</g>
<!-- Node7 -->
<g id="Node000007" class="node">
<title>Node7</title>
<g id="a_Node000007"><a xlink:href="ht32__board_8h.html" target="_top" xlink:title="HT32 target board definition file.">
<polygon fill="white" stroke="#666666" points="318.62,-76 246.38,-76 246.38,-56 318.62,-56 318.62,-76"/>
<text text-anchor="middle" x="282.5" y="-62.5" font-family="Helvetica,sans-Serif" font-size="10.00">ht32_board.h</text>
</a>
</g>
</g>
<!-- Node1&#45;&gt;Node7 -->
<g id="edge6_Node000001_Node000007" class="edge">
<title>Node1&#45;&gt;Node7</title>
<g id="a_edge6_Node000001_Node000007"><a xlink:title=" ">
<path fill="none" stroke="#63b8ff" d="M374.8,-185.28C317.66,-173.41 251.8,-155.2 234.5,-132 222.12,-115.4 239.99,-96.32 257.33,-83.15"/>
<polygon fill="#63b8ff" stroke="#63b8ff" points="259.35,-86.01 265.48,-77.37 255.3,-80.3 259.35,-86.01"/>
</a>
</g>
</g>
<!-- Node8 -->
<g id="Node000008" class="node">
<title>Node8</title>
<g id="a_Node000008"><a xlink:href="spi__flash__auto_8h.html" target="_top" xlink:title="The header file of SPI Flash driver.">
<polygon fill="white" stroke="#666666" points="329.75,-132 243.25,-132 243.25,-112 329.75,-112 329.75,-132"/>
<text text-anchor="middle" x="286.5" y="-118.5" font-family="Helvetica,sans-Serif" font-size="10.00">spi_flash_auto.h</text>
</a>
</g>
</g>
<!-- Node1&#45;&gt;Node8 -->
<g id="edge8_Node000001_Node000008" class="edge">
<title>Node1&#45;&gt;Node8</title>
<g id="a_edge8_Node000001_Node000008"><a xlink:title=" ">
<path fill="none" stroke="#63b8ff" d="M389.38,-167.58C364.54,-156.82 338.36,-145.47 318.62,-136.92"/>
<polygon fill="#63b8ff" stroke="#63b8ff" points="320.05,-133.72 309.48,-132.96 317.27,-140.15 320.05,-133.72"/>
</a>
</g>
</g>
<!-- Node9 -->
<g id="Node000009" class="node">
<title>Node9</title>
<g id="a_Node000009"><a xlink:href="spi__flash__common_8h.html" target="_top" xlink:title="The header file of common function for SPI Flash.">
<polygon fill="white" stroke="#666666" points="453.12,-132 347.88,-132 347.88,-112 453.12,-112 453.12,-132"/>
<text text-anchor="middle" x="400.5" y="-118.5" font-family="Helvetica,sans-Serif" font-size="10.00">spi_flash_common.h</text>
</a>
</g>
</g>
<!-- Node1&#45;&gt;Node9 -->
<g id="edge10_Node000001_Node000009" class="edge">
<title>Node1&#45;&gt;Node9</title>
<g id="a_edge10_Node000001_Node000009"><a xlink:title=" ">
<path fill="none" stroke="#63b8ff" d="M438.51,-167.92C430.72,-158.71 422.54,-149.05 415.78,-141.06"/>
<polygon fill="#63b8ff" stroke="#63b8ff" points="418.46,-138.81 409.33,-133.43 413.12,-143.33 418.46,-138.81"/>
</a>
</g>
</g>
<!-- Node10 -->
<g id="Node000010" class="node">
<title>Node10</title>
<g id="a_Node000010"><a xlink:href="spi__flash___m_x25_l1606_e_8h.html" target="_top" xlink:title="The header file of MX25L1606E.">
<polygon fill="white" stroke="#666666" points="595.88,-132 471.12,-132 471.12,-112 595.88,-112 595.88,-132"/>
<text text-anchor="middle" x="533.5" y="-118.5" font-family="Helvetica,sans-Serif" font-size="10.00">spi_flash_MX25L1606E.h</text>
</a>
</g>
</g>
<!-- Node1&#45;&gt;Node10 -->
<g id="edge11_Node000001_Node000010" class="edge">
<title>Node1&#45;&gt;Node10</title>
<g id="a_edge11_Node000001_Node000010"><a xlink:title=" ">
<path fill="none" stroke="#63b8ff" d="M494.91,-167.92C502.91,-158.61 511.31,-148.84 518.21,-140.79"/>
<polygon fill="#63b8ff" stroke="#63b8ff" points="520.68,-143.29 524.54,-133.43 515.37,-138.73 520.68,-143.29"/>
</a>
</g>
</g>
<!-- Node11 -->
<g id="Node000011" class="node">
<title>Node11</title>
<g id="a_Node000011"><a xlink:href="spi__flash___m_x25_l1606_e_8c.html" target="_top" xlink:title="This file provides a set of functions needed to manage the communication between SPI peripheral and S...">
<polygon fill="white" stroke="#666666" points="738.88,-132 614.12,-132 614.12,-112 738.88,-112 738.88,-132"/>
<text text-anchor="middle" x="676.5" y="-118.5" font-family="Helvetica,sans-Serif" font-size="10.00">spi_flash_MX25L1606E.c</text>
</a>
</g>
</g>
<!-- Node1&#45;&gt;Node11 -->
<g id="edge12_Node000001_Node000011" class="edge">
<title>Node1&#45;&gt;Node11</title>
<g id="a_edge12_Node000001_Node000011"><a xlink:title=" ">
<path fill="none" stroke="#63b8ff" d="M556.47,-167.58C586.13,-156.57 617.42,-144.94 640.62,-136.33"/>
<polygon fill="#63b8ff" stroke="#63b8ff" points="641.73,-139.65 649.89,-132.88 639.3,-133.08 641.73,-139.65"/>
</a>
</g>
</g>
<!-- Node12 -->
<g id="Node000012" class="node">
<title>Node12</title>
<g id="a_Node000012"><a xlink:href="spi__flash___s_s_t25_v_f016_b_8h.html" target="_top" xlink:title="The header file of SST25V016B.">
<polygon fill="white" stroke="#666666" points="889.62,-132 757.38,-132 757.38,-112 889.62,-112 889.62,-132"/>
<text text-anchor="middle" x="823.5" y="-118.5" font-family="Helvetica,sans-Serif" font-size="10.00">spi_flash_SST25VF016B.h</text>
</a>
</g>
</g>
<!-- Node1&#45;&gt;Node12 -->
<g id="edge13_Node000001_Node000012" class="edge">
<title>Node1&#45;&gt;Node12</title>
<g id="a_edge13_Node000001_Node000012"><a xlink:title=" ">
<path fill="none" stroke="#63b8ff" d="M557.97,-181.01C624.85,-166.4 713.29,-147.08 769.31,-134.84"/>
<polygon fill="#63b8ff" stroke="#63b8ff" points="769.9,-138.29 778.93,-132.74 768.41,-131.45 769.9,-138.29"/>
</a>
</g>
</g>
<!-- Node13 -->
<g id="Node000013" class="node">
<title>Node13</title>
<g id="a_Node000013"><a xlink:href="spi__flash___s_s_t25_v_f016_b_8c.html" target="_top" xlink:title="This file provides a set of functions needed to manage the communication between SPI peripheral and S...">
<polygon fill="white" stroke="#666666" points="1039.62,-132 907.38,-132 907.38,-112 1039.62,-112 1039.62,-132"/>
<text text-anchor="middle" x="973.5" y="-118.5" font-family="Helvetica,sans-Serif" font-size="10.00">spi_flash_SST25VF016B.c</text>
</a>
</g>
</g>
<!-- Node1&#45;&gt;Node13 -->
<g id="edge14_Node000001_Node000013" class="edge">
<title>Node1&#45;&gt;Node13</title>
<g id="a_edge14_Node000001_Node000013"><a xlink:title=" ">
<path fill="none" stroke="#63b8ff" d="M558.02,-186.92C656.22,-171.81 810.21,-148.12 900.57,-134.22"/>
<polygon fill="#63b8ff" stroke="#63b8ff" points="900.95,-137.7 910.3,-132.72 899.89,-130.78 900.95,-137.7"/>
</a>
</g>
</g>
<!-- Node3 -->
<g id="Node000003" class="node">
<title>Node3</title>
<g id="a_Node000003"><a xlink:href="ht32f5xxxx__01_8h.html" target="_top" xlink:title="CMSIS Cortex&#45;M0+ Device Peripheral Access Layer Header File.">
<polygon fill="white" stroke="#666666" points="209.12,-76 121.88,-76 121.88,-56 209.12,-56 209.12,-76"/>
<text text-anchor="middle" x="165.5" y="-62.5" font-family="Helvetica,sans-Serif" font-size="10.00">ht32f5xxxx_01.h</text>
</a>
</g>
</g>
<!-- Node2&#45;&gt;Node3 -->
<g id="edge2_Node000002_Node000003" class="edge">
<title>Node2&#45;&gt;Node3</title>
<g id="a_edge2_Node000002_Node000003"><a xlink:title=" ">
<path fill="none" stroke="#63b8ff" d="M165.5,-111.59C165.5,-105.01 165.5,-95.96 165.5,-87.73"/>
<polygon fill="#63b8ff" stroke="#63b8ff" points="169,-87.81 165.5,-77.81 162,-87.81 169,-87.81"/>
</a>
</g>
</g>
<!-- Node4 -->
<g id="Node000004" class="node">
<title>Node4</title>
<g id="a_Node000004"><a xlink:href="ht32__config_8h.html" target="_top" xlink:title="Configuration file of HT32.">
<polygon fill="white" stroke="#666666" points="319.38,-20 245.62,-20 245.62,0 319.38,0 319.38,-20"/>
<text text-anchor="middle" x="282.5" y="-6.5" font-family="Helvetica,sans-Serif" font-size="10.00">ht32_config.h</text>
</a>
</g>
</g>
<!-- Node3&#45;&gt;Node4 -->
<g id="edge3_Node000003_Node000004" class="edge">
<title>Node3&#45;&gt;Node4</title>
<g id="a_edge3_Node000003_Node000004"><a xlink:title=" ">
<path fill="none" stroke="#63b8ff" d="M185.88,-55.59C204.06,-47.21 230.93,-34.8 251.72,-25.21"/>
<polygon fill="#63b8ff" stroke="#63b8ff" points="252.97,-28.48 260.59,-21.11 250.04,-22.13 252.97,-28.48"/>
</a>
</g>
</g>
<!-- Node5 -->
<g id="Node000005" class="node">
<title>Node5</title>
<g id="a_Node000005"><a xlink:title=" ">
<polygon fill="#e0e0e0" stroke="#999999" points="85,-20 0,-20 0,0 85,0 85,-20"/>
<text text-anchor="middle" x="42.5" y="-6.5" font-family="Helvetica,sans-Serif" font-size="10.00">core_cm0plus.h</text>
</a>
</g>
</g>
<!-- Node3&#45;&gt;Node5 -->
<g id="edge4_Node000003_Node000005" class="edge">
<title>Node3&#45;&gt;Node5</title>
<g id="a_edge4_Node000003_Node000005"><a xlink:title=" ">
<path fill="none" stroke="#63b8ff" d="M144.08,-55.59C124.88,-47.17 96.46,-34.69 74.56,-25.07"/>
<polygon fill="#63b8ff" stroke="#63b8ff" points="76.04,-21.9 65.48,-21.09 73.23,-28.31 76.04,-21.9"/>
</a>
</g>
</g>
<!-- Node6 -->
<g id="Node000006" class="node">
<title>Node6</title>
<g id="a_Node000006"><a xlink:href="system__ht32f5xxxx__01_8h.html" target="_top" xlink:title="CMSIS Cortex&#45;M0+ Device Peripheral Access Layer System Header File for the Holtek HT32F5xxxx Device S...">
<polygon fill="white" stroke="#666666" points="227.88,-20 103.12,-20 103.12,0 227.88,0 227.88,-20"/>
<text text-anchor="middle" x="165.5" y="-6.5" font-family="Helvetica,sans-Serif" font-size="10.00">system_ht32f5xxxx_01.h</text>
</a>
</g>
</g>
<!-- Node3&#45;&gt;Node6 -->
<g id="edge5_Node000003_Node000006" class="edge">
<title>Node3&#45;&gt;Node6</title>
<g id="a_edge5_Node000003_Node000006"><a xlink:title=" ">
<path fill="none" stroke="#63b8ff" d="M165.5,-55.59C165.5,-49.01 165.5,-39.96 165.5,-31.73"/>
<polygon fill="#63b8ff" stroke="#63b8ff" points="169,-31.81 165.5,-21.81 162,-31.81 169,-31.81"/>
</a>
</g>
</g>
<!-- Node7&#45;&gt;Node4 -->
<g id="edge7_Node000007_Node000004" class="edge">
<title>Node7&#45;&gt;Node4</title>
<g id="a_edge7_Node000007_Node000004"><a xlink:title=" ">
<path fill="none" stroke="#63b8ff" d="M282.5,-55.59C282.5,-49.01 282.5,-39.96 282.5,-31.73"/>
<polygon fill="#63b8ff" stroke="#63b8ff" points="286,-31.81 282.5,-21.81 279,-31.81 286,-31.81"/>
</a>
</g>
</g>
<!-- Node8&#45;&gt;Node7 -->
<g id="edge9_Node000008_Node000007" class="edge">
<title>Node8&#45;&gt;Node7</title>
<g id="a_edge9_Node000008_Node000007"><a xlink:title=" ">
<path fill="none" stroke="#63b8ff" d="M285.8,-111.59C285.32,-105.01 284.65,-95.96 284.04,-87.73"/>
<polygon fill="#63b8ff" stroke="#63b8ff" points="287.53,-87.52 283.3,-77.81 280.55,-88.04 287.53,-87.52"/>
</a>
</g>
</g>
</g>
</svg>
