<?xml version="1.0" encoding="UTF-8" standalone="no"?>
<!DOCTYPE svg PUBLIC "-//W3C//DTD SVG 1.1//EN"
 "http://www.w3.org/Graphics/SVG/1.1/DTD/svg11.dtd">
<!-- Generated by graphviz version 9.0.0 (20230911.1827)
 -->
<!-- Title: D:/Note_Database/Subject/MCETA Microcontroller Experiment TA/files/HT32_STD_5xxxx_FWLib_V1.5.1_7084b/utilities/middleware/spi_module.c Pages: 1 -->
<svg width="391pt" height="244pt"
 viewBox="0.00 0.00 391.12 244.00" xmlns="http://www.w3.org/2000/svg" xmlns:xlink="http://www.w3.org/1999/xlink">
<g id="graph0" class="graph" transform="scale(1 1) rotate(0) translate(4 240)">
<title>D:/Note_Database/Subject/MCETA Microcontroller Experiment TA/files/HT32_STD_5xxxx_FWLib_V1.5.1_7084b/utilities/middleware/spi_module.c</title>
<!-- Node1 -->
<g id="Node000001" class="node">
<title>Node1</title>
<g id="a_Node000001"><a xlink:title="The SPI Master (interrupt mode with buffer).">
<polygon fill="#999999" stroke="#666666" points="310.12,-236 139.62,-236 139.62,-168 310.12,-168 310.12,-236"/>
<text text-anchor="start" x="147.62" y="-222.5" font-family="Helvetica,sans-Serif" font-size="10.00">D:/Note_Database/Subject</text>
<text text-anchor="start" x="147.62" y="-210.5" font-family="Helvetica,sans-Serif" font-size="10.00">/MCETA Microcontroller</text>
<text text-anchor="start" x="147.62" y="-198.5" font-family="Helvetica,sans-Serif" font-size="10.00"> Experiment TA/files/HT32</text>
<text text-anchor="start" x="147.62" y="-186.5" font-family="Helvetica,sans-Serif" font-size="10.00">_STD_5xxxx_FWLib_V1.5.1_7084b</text>
<text text-anchor="middle" x="224.88" y="-174.5" font-family="Helvetica,sans-Serif" font-size="10.00">/utilities/middleware/spi_module.c</text>
</a>
</g>
</g>
<!-- Node2 -->
<g id="Node000002" class="node">
<title>Node2</title>
<g id="a_Node000002"><a xlink:href="ht32_8h.html" target="_top" xlink:title="The API between application and HT32FXXXX Firmware Library.">
<polygon fill="white" stroke="#666666" points="155.38,-132 112.38,-132 112.38,-112 155.38,-112 155.38,-132"/>
<text text-anchor="middle" x="133.88" y="-118.5" font-family="Helvetica,sans-Serif" font-size="10.00">ht32.h</text>
</a>
</g>
</g>
<!-- Node1&#45;&gt;Node2 -->
<g id="edge1_Node000001_Node000002" class="edge">
<title>Node1&#45;&gt;Node2</title>
<g id="a_edge1_Node000001_Node000002"><a xlink:title=" ">
<path fill="none" stroke="#63b8ff" d="M186.02,-167.69C174.71,-158.01 162.85,-147.84 153.3,-139.65"/>
<polygon fill="#63b8ff" stroke="#63b8ff" points="155.65,-137.05 145.78,-133.2 151.09,-142.37 155.65,-137.05"/>
</a>
</g>
</g>
<!-- Node7 -->
<g id="Node000007" class="node">
<title>Node7</title>
<g id="a_Node000007"><a xlink:title=" ">
<polygon fill="#e0e0e0" stroke="#999999" points="276.38,-132 173.38,-132 173.38,-112 276.38,-112 276.38,-132"/>
<text text-anchor="middle" x="224.88" y="-118.5" font-family="Helvetica,sans-Serif" font-size="10.00">ht32_board_config.h</text>
</a>
</g>
</g>
<!-- Node1&#45;&gt;Node7 -->
<g id="edge6_Node000001_Node000007" class="edge">
<title>Node1&#45;&gt;Node7</title>
<g id="a_edge6_Node000001_Node000007"><a xlink:title=" ">
<path fill="none" stroke="#63b8ff" d="M224.88,-167.92C224.88,-159.72 224.88,-151.17 224.88,-143.75"/>
<polygon fill="#63b8ff" stroke="#63b8ff" points="228.38,-143.79 224.88,-133.79 221.38,-143.79 228.38,-143.79"/>
</a>
</g>
</g>
<!-- Node8 -->
<g id="Node000008" class="node">
<title>Node8</title>
<g id="a_Node000008"><a xlink:href="spi__module_8h.html" target="_top" xlink:title="The header file of spi api (interrupt mode with buffer).">
<polygon fill="white" stroke="#666666" points="367.75,-132 294,-132 294,-112 367.75,-112 367.75,-132"/>
<text text-anchor="middle" x="330.88" y="-118.5" font-family="Helvetica,sans-Serif" font-size="10.00">spi_module.h</text>
</a>
</g>
</g>
<!-- Node1&#45;&gt;Node8 -->
<g id="edge7_Node000001_Node000008" class="edge">
<title>Node1&#45;&gt;Node8</title>
<g id="a_edge7_Node000001_Node000008"><a xlink:title=" ">
<path fill="none" stroke="#63b8ff" d="M270.14,-167.69C283.71,-157.7 297.99,-147.2 309.28,-138.89"/>
<polygon fill="#63b8ff" stroke="#63b8ff" points="311.15,-141.86 317.13,-133.11 307,-136.22 311.15,-141.86"/>
</a>
</g>
</g>
<!-- Node3 -->
<g id="Node000003" class="node">
<title>Node3</title>
<g id="a_Node000003"><a xlink:href="ht32f5xxxx__01_8h.html" target="_top" xlink:title="CMSIS Cortex&#45;M0+ Device Peripheral Access Layer Header File.">
<polygon fill="white" stroke="#666666" points="177.5,-76 90.25,-76 90.25,-56 177.5,-56 177.5,-76"/>
<text text-anchor="middle" x="133.88" y="-62.5" font-family="Helvetica,sans-Serif" font-size="10.00">ht32f5xxxx_01.h</text>
</a>
</g>
</g>
<!-- Node2&#45;&gt;Node3 -->
<g id="edge2_Node000002_Node000003" class="edge">
<title>Node2&#45;&gt;Node3</title>
<g id="a_edge2_Node000002_Node000003"><a xlink:title=" ">
<path fill="none" stroke="#63b8ff" d="M133.88,-111.59C133.88,-105.01 133.88,-95.96 133.88,-87.73"/>
<polygon fill="#63b8ff" stroke="#63b8ff" points="137.38,-87.81 133.88,-77.81 130.38,-87.81 137.38,-87.81"/>
</a>
</g>
</g>
<!-- Node4 -->
<g id="Node000004" class="node">
<title>Node4</title>
<g id="a_Node000004"><a xlink:href="ht32__config_8h.html" target="_top" xlink:title="Configuration file of HT32.">
<polygon fill="white" stroke="#666666" points="73.75,-20 0,-20 0,0 73.75,0 73.75,-20"/>
<text text-anchor="middle" x="36.88" y="-6.5" font-family="Helvetica,sans-Serif" font-size="10.00">ht32_config.h</text>
</a>
</g>
</g>
<!-- Node3&#45;&gt;Node4 -->
<g id="edge3_Node000003_Node000004" class="edge">
<title>Node3&#45;&gt;Node4</title>
<g id="a_edge3_Node000003_Node000004"><a xlink:title=" ">
<path fill="none" stroke="#63b8ff" d="M116.98,-55.59C102.33,-47.44 80.85,-35.48 63.83,-26"/>
<polygon fill="#63b8ff" stroke="#63b8ff" points="65.67,-23.02 55.23,-21.22 62.26,-29.14 65.67,-23.02"/>
</a>
</g>
</g>
<!-- Node5 -->
<g id="Node000005" class="node">
<title>Node5</title>
<g id="a_Node000005"><a xlink:title=" ">
<polygon fill="#e0e0e0" stroke="#999999" points="176.38,-20 91.38,-20 91.38,0 176.38,0 176.38,-20"/>
<text text-anchor="middle" x="133.88" y="-6.5" font-family="Helvetica,sans-Serif" font-size="10.00">core_cm0plus.h</text>
</a>
</g>
</g>
<!-- Node3&#45;&gt;Node5 -->
<g id="edge4_Node000003_Node000005" class="edge">
<title>Node3&#45;&gt;Node5</title>
<g id="a_edge4_Node000003_Node000005"><a xlink:title=" ">
<path fill="none" stroke="#63b8ff" d="M133.88,-55.59C133.88,-49.01 133.88,-39.96 133.88,-31.73"/>
<polygon fill="#63b8ff" stroke="#63b8ff" points="137.38,-31.81 133.88,-21.81 130.38,-31.81 137.38,-31.81"/>
</a>
</g>
</g>
<!-- Node6 -->
<g id="Node000006" class="node">
<title>Node6</title>
<g id="a_Node000006"><a xlink:href="system__ht32f5xxxx__01_8h.html" target="_top" xlink:title="CMSIS Cortex&#45;M0+ Device Peripheral Access Layer System Header File for the Holtek HT32F5xxxx Device S...">
<polygon fill="white" stroke="#666666" points="319.25,-20 194.5,-20 194.5,0 319.25,0 319.25,-20"/>
<text text-anchor="middle" x="256.88" y="-6.5" font-family="Helvetica,sans-Serif" font-size="10.00">system_ht32f5xxxx_01.h</text>
</a>
</g>
</g>
<!-- Node3&#45;&gt;Node6 -->
<g id="edge5_Node000003_Node000006" class="edge">
<title>Node3&#45;&gt;Node6</title>
<g id="a_edge5_Node000003_Node000006"><a xlink:title=" ">
<path fill="none" stroke="#63b8ff" d="M155.3,-55.59C174.5,-47.17 202.92,-34.69 224.82,-25.07"/>
<polygon fill="#63b8ff" stroke="#63b8ff" points="226.15,-28.31 233.9,-21.09 223.33,-21.9 226.15,-28.31"/>
</a>
</g>
</g>
<!-- Node9 -->
<g id="Node000009" class="node">
<title>Node9</title>
<g id="a_Node000009"><a xlink:title=" ">
<polygon fill="#e0e0e0" stroke="#999999" points="383.12,-76 278.62,-76 278.62,-56 383.12,-56 383.12,-76"/>
<text text-anchor="middle" x="330.88" y="-62.5" font-family="Helvetica,sans-Serif" font-size="10.00">spi_module_config.h</text>
</a>
</g>
</g>
<!-- Node8&#45;&gt;Node9 -->
<g id="edge8_Node000008_Node000009" class="edge">
<title>Node8&#45;&gt;Node9</title>
<g id="a_edge8_Node000008_Node000009"><a xlink:title=" ">
<path fill="none" stroke="#63b8ff" d="M330.88,-111.59C330.88,-105.01 330.88,-95.96 330.88,-87.73"/>
<polygon fill="#63b8ff" stroke="#63b8ff" points="334.38,-87.81 330.88,-77.81 327.38,-87.81 334.38,-87.81"/>
</a>
</g>
</g>
</g>
</svg>
