<?xml version="1.0" encoding="UTF-8" standalone="no"?>
<!DOCTYPE svg PUBLIC "-//W3C//DTD SVG 1.1//EN"
 "http://www.w3.org/Graphics/SVG/1.1/DTD/svg11.dtd">
<!-- Generated by graphviz version 9.0.0 (20230911.1827)
 -->
<!-- Title: D:/Note_Database/Subject/MCETA Microcontroller Experiment TA/files/HT32_STD_5xxxx_FWLib_V1.5.1_7084b/utilities/common/spi_flash.c Pages: 1 -->
<svg width="179pt" height="244pt"
 viewBox="0.00 0.00 178.50 244.00" xmlns="http://www.w3.org/2000/svg" xmlns:xlink="http://www.w3.org/1999/xlink">
<g id="graph0" class="graph" transform="scale(1 1) rotate(0) translate(4 240)">
<title>D:/Note_Database/Subject/MCETA Microcontroller Experiment TA/files/HT32_STD_5xxxx_FWLib_V1.5.1_7084b/utilities/common/spi_flash.c</title>
<!-- Node1 -->
<g id="Node000001" class="node">
<title>Node1</title>
<g id="a_Node000001"><a xlink:title="This file provides a set of functions needed to manage the communication between SPI peripheral and S...">
<polygon fill="#999999" stroke="#666666" points="170.5,-236 0,-236 0,-168 170.5,-168 170.5,-236"/>
<text text-anchor="start" x="8" y="-222.5" font-family="Helvetica,sans-Serif" font-size="10.00">D:/Note_Database/Subject</text>
<text text-anchor="start" x="8" y="-210.5" font-family="Helvetica,sans-Serif" font-size="10.00">/MCETA Microcontroller</text>
<text text-anchor="start" x="8" y="-198.5" font-family="Helvetica,sans-Serif" font-size="10.00"> Experiment TA/files/HT32</text>
<text text-anchor="start" x="8" y="-186.5" font-family="Helvetica,sans-Serif" font-size="10.00">_STD_5xxxx_FWLib_V1.5.1_7084b</text>
<text text-anchor="middle" x="85.25" y="-174.5" font-family="Helvetica,sans-Serif" font-size="10.00">/utilities/common/spi_flash.c</text>
</a>
</g>
</g>
<!-- Node2 -->
<g id="Node000002" class="node">
<title>Node2</title>
<g id="a_Node000002"><a xlink:href="spi__flash_8h.html" target="_top" xlink:title="The header file of spi_flash.c module.">
<polygon fill="white" stroke="#666666" points="116.5,-132 54,-132 54,-112 116.5,-112 116.5,-132"/>
<text text-anchor="middle" x="85.25" y="-118.5" font-family="Helvetica,sans-Serif" font-size="10.00">spi_flash.h</text>
</a>
</g>
</g>
<!-- Node1&#45;&gt;Node2 -->
<g id="edge1_Node000001_Node000002" class="edge">
<title>Node1&#45;&gt;Node2</title>
<g id="a_edge1_Node000001_Node000002"><a xlink:title=" ">
<path fill="none" stroke="#63b8ff" d="M85.25,-167.92C85.25,-159.72 85.25,-151.17 85.25,-143.75"/>
<polygon fill="#63b8ff" stroke="#63b8ff" points="88.75,-143.79 85.25,-133.79 81.75,-143.79 88.75,-143.79"/>
</a>
</g>
</g>
<!-- Node3 -->
<g id="Node000003" class="node">
<title>Node3</title>
<g id="a_Node000003"><a xlink:href="ht32__board_8h.html" target="_top" xlink:title="HT32 target board definition file.">
<polygon fill="white" stroke="#666666" points="121.38,-76 49.12,-76 49.12,-56 121.38,-56 121.38,-76"/>
<text text-anchor="middle" x="85.25" y="-62.5" font-family="Helvetica,sans-Serif" font-size="10.00">ht32_board.h</text>
</a>
</g>
</g>
<!-- Node2&#45;&gt;Node3 -->
<g id="edge2_Node000002_Node000003" class="edge">
<title>Node2&#45;&gt;Node3</title>
<g id="a_edge2_Node000002_Node000003"><a xlink:title=" ">
<path fill="none" stroke="#63b8ff" d="M85.25,-111.59C85.25,-105.01 85.25,-95.96 85.25,-87.73"/>
<polygon fill="#63b8ff" stroke="#63b8ff" points="88.75,-87.81 85.25,-77.81 81.75,-87.81 88.75,-87.81"/>
</a>
</g>
</g>
<!-- Node4 -->
<g id="Node000004" class="node">
<title>Node4</title>
<g id="a_Node000004"><a xlink:href="ht32__config_8h.html" target="_top" xlink:title="Configuration file of HT32.">
<polygon fill="white" stroke="#666666" points="122.12,-20 48.38,-20 48.38,0 122.12,0 122.12,-20"/>
<text text-anchor="middle" x="85.25" y="-6.5" font-family="Helvetica,sans-Serif" font-size="10.00">ht32_config.h</text>
</a>
</g>
</g>
<!-- Node3&#45;&gt;Node4 -->
<g id="edge3_Node000003_Node000004" class="edge">
<title>Node3&#45;&gt;Node4</title>
<g id="a_edge3_Node000003_Node000004"><a xlink:title=" ">
<path fill="none" stroke="#63b8ff" d="M85.25,-55.59C85.25,-49.01 85.25,-39.96 85.25,-31.73"/>
<polygon fill="#63b8ff" stroke="#63b8ff" points="88.75,-31.81 85.25,-21.81 81.75,-31.81 88.75,-31.81"/>
</a>
</g>
</g>
</g>
</svg>
