<?xml version="1.0" encoding="UTF-8" standalone="no"?>
<!DOCTYPE svg PUBLIC "-//W3C//DTD SVG 1.1//EN"
 "http://www.w3.org/Graphics/SVG/1.1/DTD/svg11.dtd">
<!-- Generated by graphviz version 9.0.0 (20230911.1827)
 -->
<!-- Title: SPIAPI_StateTypeDef Pages: 1 -->
<svg width="214pt" height="96pt"
 viewBox="0.00 0.00 213.62 96.00" xmlns="http://www.w3.org/2000/svg" xmlns:xlink="http://www.w3.org/1999/xlink">
<g id="graph0" class="graph" transform="scale(1 1) rotate(0) translate(4 92)">
<title>SPIAPI_StateTypeDef</title>
<!-- Node1 -->
<g id="Node000001" class="node">
<title>Node1</title>
<g id="a_Node000001"><a xlink:title=" ">
<polygon fill="#999999" stroke="#666666" points="156.38,-20 45.12,-20 45.12,0 156.38,0 156.38,-20"/>
<text text-anchor="middle" x="100.75" y="-6.5" font-family="Helvetica,sans-Serif" font-size="10.00">SPIAPI_StateTypeDef</text>
</a>
</g>
</g>
<!-- Node2 -->
<g id="Node000002" class="node">
<title>Node2</title>
<g id="a_Node000002"><a xlink:href="struct_h_t___s_p_i___type_def.html" target="_top" xlink:title="SPI.">
<polygon fill="white" stroke="#666666" points="89.5,-88 0,-88 0,-68 89.5,-68 89.5,-88"/>
<text text-anchor="middle" x="44.75" y="-74.5" font-family="Helvetica,sans-Serif" font-size="10.00">HT_SPI_TypeDef</text>
</a>
</g>
</g>
<!-- Node2&#45;&gt;Node1 -->
<g id="edge1_Node000001_Node000002" class="edge">
<title>Node2&#45;&gt;Node1</title>
<g id="a_edge1_Node000001_Node000002"><a xlink:title=" ">
<path fill="none" stroke="#9a32cd" stroke-dasharray="5,2" d="M60.12,-58.88C70.68,-46.44 84.26,-30.43 92.74,-20.44"/>
<polygon fill="#9a32cd" stroke="#9a32cd" points="57.55,-56.5 53.75,-66.39 62.89,-61.03 57.55,-56.5"/>
</a>
</g>
<text text-anchor="middle" x="93.38" y="-40.5" font-family="Helvetica,sans-Serif" font-size="10.00" fill="grey"> pSPIx</text>
</g>
<!-- Node3 -->
<g id="Node000003" class="node">
<title>Node3</title>
<g id="a_Node000003"><a xlink:href="struct_h_t___g_p_i_o___type_def.html" target="_top" xlink:title="General Purpose I/O.">
<polygon fill="white" stroke="#666666" points="205.62,-88 107.88,-88 107.88,-68 205.62,-68 205.62,-88"/>
<text text-anchor="middle" x="156.75" y="-74.5" font-family="Helvetica,sans-Serif" font-size="10.00">HT_GPIO_TypeDef</text>
</a>
</g>
</g>
<!-- Node3&#45;&gt;Node1 -->
<g id="edge2_Node000001_Node000003" class="edge">
<title>Node3&#45;&gt;Node1</title>
<g id="a_edge2_Node000001_Node000003"><a xlink:title=" ">
<path fill="none" stroke="#9a32cd" stroke-dasharray="5,2" d="M141.38,-58.88C130.82,-46.44 117.24,-30.43 108.76,-20.44"/>
<polygon fill="#9a32cd" stroke="#9a32cd" points="138.61,-61.03 147.75,-66.39 143.95,-56.5 138.61,-61.03"/>
</a>
</g>
<text text-anchor="middle" x="164.88" y="-40.5" font-family="Helvetica,sans-Serif" font-size="10.00" fill="grey"> pGPIO_MISO</text>
</g>
</g>
</svg>
