<?xml version="1.0" encoding="UTF-8" standalone="no"?>
<!DOCTYPE svg PUBLIC "-//W3C//DTD SVG 1.1//EN"
 "http://www.w3.org/Graphics/SVG/1.1/DTD/svg11.dtd">
<!-- Generated by graphviz version 9.0.0 (20230911.1827)
 -->
<!-- Title: USBDCore_Class_TypeDef Pages: 1 -->
<svg width="388pt" height="304pt"
 viewBox="0.00 0.00 387.75 304.00" xmlns="http://www.w3.org/2000/svg" xmlns:xlink="http://www.w3.org/1999/xlink">
<g id="graph0" class="graph" transform="scale(1 1) rotate(0) translate(4 300)">
<title>USBDCore_Class_TypeDef</title>
<!-- Node1 -->
<g id="Node000001" class="node">
<title>Node1</title>
<g id="a_Node000001"><a xlink:title="USB Class call back function.">
<polygon fill="#999999" stroke="#666666" points="140.88,-20 7.12,-20 7.12,0 140.88,0 140.88,-20"/>
<text text-anchor="middle" x="74" y="-6.5" font-family="Helvetica,sans-Serif" font-size="10.00">USBDCore_Class_TypeDef</text>
</a>
</g>
</g>
<!-- Node2 -->
<g id="Node000002" class="node">
<title>Node2</title>
<g id="a_Node000002"><a xlink:href="struct_u_s_b_d_core___call_back___type_def.html" target="_top" xlink:title="Call back function.">
<polygon fill="white" stroke="#666666" points="148,-296 0,-296 0,-276 148,-276 148,-296"/>
<text text-anchor="middle" x="74" y="-282.5" font-family="Helvetica,sans-Serif" font-size="10.00">USBDCore_CallBack_TypeDef</text>
</a>
</g>
</g>
<!-- Node2&#45;&gt;Node1 -->
<g id="edge1_Node000001_Node000002" class="edge">
<title>Node2&#45;&gt;Node1</title>
<g id="a_edge1_Node000001_Node000002"><a xlink:title=" ">
<path fill="none" stroke="#9a32cd" stroke-dasharray="5,2" d="M70.14,-264.38C66.76,-245.2 62.11,-215.78 60.25,-190 55.57,-125.03 67.7,-46.84 72.31,-20.32"/>
<polygon fill="#9a32cd" stroke="#9a32cd" points="66.68,-264.91 71.91,-274.12 73.57,-263.66 66.68,-264.91"/>
</a>
</g>
<text text-anchor="middle" x="112.38" y="-180.5" font-family="Helvetica,sans-Serif" font-size="10.00" fill="grey"> CallBack_MainRoutine</text>
<text text-anchor="middle" x="112.38" y="-168.5" font-family="Helvetica,sans-Serif" font-size="10.00" fill="grey">CallBack_Reset</text>
<text text-anchor="middle" x="112.38" y="-156.5" font-family="Helvetica,sans-Serif" font-size="10.00" fill="grey">CallBack_StartOfFrame</text>
</g>
<!-- Node5 -->
<g id="Node000005" class="node">
<title>Node5</title>
<g id="a_Node000005"><a xlink:href="struct_u_s_b_d_core___transfer___type_def.html" target="_top" xlink:title="Parameter for control IN/OUT Transfer.">
<polygon fill="white" stroke="#666666" points="229.75,-228 86.25,-228 86.25,-208 229.75,-208 229.75,-228"/>
<text text-anchor="middle" x="158" y="-214.5" font-family="Helvetica,sans-Serif" font-size="10.00">USBDCore_Transfer_TypeDef</text>
</a>
</g>
</g>
<!-- Node2&#45;&gt;Node5 -->
<g id="edge5_Node000005_Node000002" class="edge">
<title>Node2&#45;&gt;Node5</title>
<g id="a_edge5_Node000005_Node000002"><a xlink:title=" ">
<path fill="none" stroke="#9a32cd" stroke-dasharray="5,2" d="M94.76,-268.69C110.87,-256.03 132.65,-238.92 145.99,-228.44"/>
<polygon fill="#9a32cd" stroke="#9a32cd" points="92.93,-265.68 87.23,-274.61 97.25,-271.18 92.93,-265.68"/>
</a>
</g>
<text text-anchor="middle" x="157.38" y="-248.5" font-family="Helvetica,sans-Serif" font-size="10.00" fill="grey"> CallBack_OUT</text>
</g>
<!-- Node3 -->
<g id="Node000003" class="node">
<title>Node3</title>
<g id="a_Node000003"><a xlink:href="struct_u_s_b_d_core___device___type_def.html" target="_top" xlink:title="USB Device.">
<polygon fill="white" stroke="#666666" points="252.75,-136 115.25,-136 115.25,-116 252.75,-116 252.75,-136"/>
<text text-anchor="middle" x="184" y="-122.5" font-family="Helvetica,sans-Serif" font-size="10.00">USBDCore_Device_TypeDef</text>
</a>
</g>
</g>
<!-- Node3&#45;&gt;Node1 -->
<g id="edge2_Node000001_Node000003" class="edge">
<title>Node3&#45;&gt;Node1</title>
<g id="a_edge2_Node000001_Node000003"><a xlink:title=" ">
<path fill="none" stroke="#9a32cd" stroke-dasharray="5,2" d="M167.24,-107.63C143.68,-83.21 101.6,-39.61 83.13,-20.46"/>
<polygon fill="#9a32cd" stroke="#9a32cd" points="164.48,-109.82 173.95,-114.58 169.52,-104.96 164.48,-109.82"/>
</a>
</g>
<text text-anchor="middle" x="224" y="-88.5" font-family="Helvetica,sans-Serif" font-size="10.00" fill="grey"> CallBack_ClassGetDescriptor</text>
<text text-anchor="middle" x="224" y="-76.5" font-family="Helvetica,sans-Serif" font-size="10.00" fill="grey">CallBack_ClassGetInterface</text>
<text text-anchor="middle" x="224" y="-64.5" font-family="Helvetica,sans-Serif" font-size="10.00" fill="grey">CallBack_ClassRequest</text>
<text text-anchor="middle" x="224" y="-52.5" font-family="Helvetica,sans-Serif" font-size="10.00" fill="grey">CallBack_ClassSetInterface</text>
<text text-anchor="middle" x="224" y="-40.5" font-family="Helvetica,sans-Serif" font-size="10.00" fill="grey">CallBack_VendorRequest</text>
</g>
<!-- Node4 -->
<g id="Node000004" class="node">
<title>Node4</title>
<g id="a_Node000004"><a xlink:href="struct_u_s_b_d_core___desc___type_def.html" target="_top" xlink:title="USB Descriptor.">
<polygon fill="white" stroke="#666666" points="379.75,-228 248.25,-228 248.25,-208 379.75,-208 379.75,-228"/>
<text text-anchor="middle" x="314" y="-214.5" font-family="Helvetica,sans-Serif" font-size="10.00">USBDCore_Desc_TypeDef</text>
</a>
</g>
</g>
<!-- Node4&#45;&gt;Node3 -->
<g id="edge3_Node000003_Node000004" class="edge">
<title>Node4&#45;&gt;Node3</title>
<g id="a_edge3_Node000003_Node000004"><a xlink:title=" ">
<path fill="none" stroke="#9a32cd" stroke-dasharray="5,2" d="M291.46,-201.4C264.38,-182.65 219.81,-151.79 197.54,-136.38"/>
<polygon fill="#9a32cd" stroke="#9a32cd" points="289.12,-204.03 299.33,-206.85 293.1,-198.28 289.12,-204.03"/>
</a>
</g>
<text text-anchor="middle" x="283.75" y="-168.5" font-family="Helvetica,sans-Serif" font-size="10.00" fill="grey"> Desc</text>
</g>
<!-- Node5&#45;&gt;Node3 -->
<g id="edge4_Node000003_Node000005" class="edge">
<title>Node5&#45;&gt;Node3</title>
<g id="a_edge4_Node000003_Node000005"><a xlink:title=" ">
<path fill="none" stroke="#9a32cd" stroke-dasharray="5,2" d="M163.85,-196.75C169.3,-177.87 177.19,-150.58 181.29,-136.38"/>
<polygon fill="#9a32cd" stroke="#9a32cd" points="160.52,-195.67 161.1,-206.25 167.24,-197.62 160.52,-195.67"/>
</a>
</g>
<text text-anchor="middle" x="194.75" y="-168.5" font-family="Helvetica,sans-Serif" font-size="10.00" fill="grey"> Transfer</text>
</g>
</g>
</svg>
