<?xml version="1.0" encoding="UTF-8" standalone="no"?>
<!DOCTYPE svg PUBLIC "-//W3C//DTD SVG 1.1//EN"
 "http://www.w3.org/Graphics/SVG/1.1/DTD/svg11.dtd">
<!-- Generated by graphviz version 9.0.0 (20230911.1827)
 -->
<!-- Title: HT32_Board_COM_TypeDef Pages: 1 -->
<svg width="272pt" height="108pt"
 viewBox="0.00 0.00 271.50 108.00" xmlns="http://www.w3.org/2000/svg" xmlns:xlink="http://www.w3.org/1999/xlink">
<g id="graph0" class="graph" transform="scale(1 1) rotate(0) translate(4 104)">
<title>HT32_Board_COM_TypeDef</title>
<!-- Node1 -->
<g id="Node000001" class="node">
<title>Node1</title>
<g id="a_Node000001"><a xlink:title=" ">
<polygon fill="#999999" stroke="#666666" points="191.75,-20 54.25,-20 54.25,0 191.75,0 191.75,-20"/>
<text text-anchor="middle" x="123" y="-6.5" font-family="Helvetica,sans-Serif" font-size="10.00">HT32_Board_COM_TypeDef</text>
</a>
</g>
</g>
<!-- Node2 -->
<g id="Node000002" class="node">
<title>Node2</title>
<g id="a_Node000002"><a xlink:href="struct_h_t___u_s_a_r_t___type_def.html" target="_top" xlink:title="Universal Synchronous Asynchronous Receiver Transmitter.">
<polygon fill="white" stroke="#666666" points="106,-100 0,-100 0,-80 106,-80 106,-100"/>
<text text-anchor="middle" x="53" y="-86.5" font-family="Helvetica,sans-Serif" font-size="10.00">HT_USART_TypeDef</text>
</a>
</g>
</g>
<!-- Node2&#45;&gt;Node1 -->
<g id="edge1_Node000001_Node000002" class="edge">
<title>Node2&#45;&gt;Node1</title>
<g id="a_edge1_Node000001_Node000002"><a xlink:title=" ">
<path fill="none" stroke="#9a32cd" stroke-dasharray="5,2" d="M68.87,-71.32C83.11,-55.45 103.45,-32.78 114.71,-20.24"/>
<polygon fill="#9a32cd" stroke="#9a32cd" points="66.39,-68.84 62.32,-78.62 71.6,-73.51 66.39,-68.84"/>
</a>
</g>
<text text-anchor="middle" x="119.25" y="-46.5" font-family="Helvetica,sans-Serif" font-size="10.00" fill="grey"> USARTx</text>
</g>
<!-- Node3 -->
<g id="Node000003" class="node">
<title>Node3</title>
<g id="a_Node000003"><a xlink:href="struct_h_t32___board___g_p_i_o___type_def.html" target="_top" xlink:title=" ">
<polygon fill="white" stroke="#666666" points="263.5,-100 124.5,-100 124.5,-80 263.5,-80 263.5,-100"/>
<text text-anchor="middle" x="194" y="-86.5" font-family="Helvetica,sans-Serif" font-size="10.00">HT32_Board_GPIO_TypeDef</text>
</a>
</g>
</g>
<!-- Node3&#45;&gt;Node1 -->
<g id="edge2_Node000001_Node000003" class="edge">
<title>Node3&#45;&gt;Node1</title>
<g id="a_edge2_Node000001_Node000003"><a xlink:title=" ">
<path fill="none" stroke="#9a32cd" stroke-dasharray="5,2" d="M177.9,-71.32C163.46,-55.45 142.83,-32.78 131.41,-20.24"/>
<polygon fill="#9a32cd" stroke="#9a32cd" points="175.24,-73.59 184.56,-78.63 180.41,-68.88 175.24,-73.59"/>
</a>
</g>
<text text-anchor="middle" x="184" y="-52.5" font-family="Helvetica,sans-Serif" font-size="10.00" fill="grey"> Rx_IO</text>
<text text-anchor="middle" x="184" y="-40.5" font-family="Helvetica,sans-Serif" font-size="10.00" fill="grey">Tx_IO</text>
</g>
</g>
</svg>
