<?xml version="1.0" encoding="UTF-8" standalone="no"?>
<!DOCTYPE svg PUBLIC "-//W3C//DTD SVG 1.1//EN"
 "http://www.w3.org/Graphics/SVG/1.1/DTD/svg11.dtd">
<!-- Generated by graphviz version 9.0.0 (20230911.1827)
 -->
<!-- Title: USBDCore_Info_TypeDef Pages: 1 -->
<svg width="138pt" height="164pt"
 viewBox="0.00 0.00 137.50 164.00" xmlns="http://www.w3.org/2000/svg" xmlns:xlink="http://www.w3.org/1999/xlink">
<g id="graph0" class="graph" transform="scale(1 1) rotate(0) translate(4 160)">
<title>USBDCore_Info_TypeDef</title>
<!-- Node1 -->
<g id="Node000001" class="node">
<title>Node1</title>
<g id="a_Node000001"><a xlink:title="USB Device information.">
<polygon fill="#999999" stroke="#666666" points="124,-20 0,-20 0,0 124,0 124,-20"/>
<text text-anchor="middle" x="62" y="-6.5" font-family="Helvetica,sans-Serif" font-size="10.00">USBDCore_Info_TypeDef</text>
</a>
</g>
</g>
<!-- Node2 -->
<g id="Node000002" class="node">
<title>Node2</title>
<g id="a_Node000002"><a xlink:href="union___f_e_a_t_u_r_e___t_y_p_e_d_e_f.html" target="_top" xlink:title="For Set/ClearFeature and GetStatus request.">
<polygon fill="white" stroke="#666666" points="120.25,-88 3.75,-88 3.75,-68 120.25,-68 120.25,-88"/>
<text text-anchor="middle" x="62" y="-74.5" font-family="Helvetica,sans-Serif" font-size="10.00">_FEATURE_TYPEDEF</text>
</a>
</g>
</g>
<!-- Node2&#45;&gt;Node1 -->
<g id="edge1_Node000001_Node000002" class="edge">
<title>Node2&#45;&gt;Node1</title>
<g id="a_edge1_Node000001_Node000002"><a xlink:title=" ">
<path fill="none" stroke="#9a32cd" stroke-dasharray="5,2" d="M62,-56.28C62,-44.27 62,-29.74 62,-20.44"/>
<polygon fill="#9a32cd" stroke="#9a32cd" points="58.5,-56.03 62,-66.03 65.5,-56.03 58.5,-56.03"/>
</a>
</g>
<text text-anchor="middle" x="95.75" y="-40.5" font-family="Helvetica,sans-Serif" font-size="10.00" fill="grey"> CurrentFeature</text>
</g>
<!-- Node3 -->
<g id="Node000003" class="node">
<title>Node3</title>
<g id="a_Node000003"><a xlink:href="struct___f_e_a_t_u_r_e___t_y_p_e_b_i_t.html" target="_top" xlink:title="Bit access for CurrentFeature.">
<polygon fill="white" stroke="#666666" points="117.62,-156 6.38,-156 6.38,-136 117.62,-136 117.62,-156"/>
<text text-anchor="middle" x="62" y="-142.5" font-family="Helvetica,sans-Serif" font-size="10.00">_FEATURE_TYPEBIT</text>
</a>
</g>
</g>
<!-- Node3&#45;&gt;Node2 -->
<g id="edge2_Node000002_Node000003" class="edge">
<title>Node3&#45;&gt;Node2</title>
<g id="a_edge2_Node000002_Node000003"><a xlink:title=" ">
<path fill="none" stroke="#9a32cd" stroke-dasharray="5,2" d="M62,-124.28C62,-112.27 62,-97.74 62,-88.44"/>
<polygon fill="#9a32cd" stroke="#9a32cd" points="58.5,-124.03 62,-134.03 65.5,-124.03 58.5,-124.03"/>
</a>
</g>
<text text-anchor="middle" x="72.12" y="-108.5" font-family="Helvetica,sans-Serif" font-size="10.00" fill="grey"> Bits</text>
</g>
</g>
</svg>
