<?xml version="1.0" encoding="UTF-8" standalone="no"?>
<!DOCTYPE svg PUBLIC "-//W3C//DTD SVG 1.1//EN"
 "http://www.w3.org/Graphics/SVG/1.1/DTD/svg11.dtd">
<!-- Generated by graphviz version 9.0.0 (20230911.1827)
 -->
<!-- Title: USBDCore_TypeDef Pages: 1 -->
<svg width="1200pt" height="200pt"
 viewBox="0.00 0.00 1199.75 200.00" xmlns="http://www.w3.org/2000/svg" xmlns:xlink="http://www.w3.org/1999/xlink">
<g id="graph0" class="graph" transform="scale(1 1) rotate(0) translate(4 196)">
<title>USBDCore_TypeDef</title>
<!-- Node1 -->
<g id="Node000001" class="node">
<title>Node1</title>
<g id="a_Node000001"><a xlink:title="Major structure of USB Library.">
<polygon fill="#999999" stroke="#666666" points="1191.75,-78 1088,-78 1088,-58 1191.75,-58 1191.75,-78"/>
<text text-anchor="middle" x="1139.88" y="-64.5" font-family="Helvetica,sans-Serif" font-size="10.00">USBDCore_TypeDef</text>
</a>
</g>
</g>
<!-- Node2 -->
<g id="Node000002" class="node">
<title>Node2</title>
<g id="a_Node000002"><a xlink:href="struct_u_s_b_d_core___device___type_def.html" target="_top" xlink:title="USB Device.">
<polygon fill="white" stroke="#666666" points="722.5,-172 585,-172 585,-152 722.5,-152 722.5,-172"/>
<text text-anchor="middle" x="653.75" y="-158.5" font-family="Helvetica,sans-Serif" font-size="10.00">USBDCore_Device_TypeDef</text>
</a>
</g>
</g>
<!-- Node2&#45;&gt;Node1 -->
<g id="edge1_Node000001_Node000002" class="edge">
<title>Node2&#45;&gt;Node1</title>
<g id="a_edge1_Node000001_Node000002"><a xlink:title=" ">
<path fill="none" stroke="#9a32cd" stroke-dasharray="5,2" d="M708.42,-174.74C752.8,-183.29 817.26,-191.14 872.5,-180 971.59,-160.02 1079.72,-102.1 1121.27,-78.35"/>
<polygon fill="#9a32cd" stroke="#9a32cd" points="709.29,-171.34 698.79,-172.8 707.91,-178.2 709.29,-171.34"/>
</a>
</g>
<text text-anchor="middle" x="957.38" y="-177.5" font-family="Helvetica,sans-Serif" font-size="10.00" fill="grey"> Device</text>
</g>
<!-- Node9 -->
<g id="Node000009" class="node">
<title>Node9</title>
<g id="a_Node000009"><a xlink:href="struct_u_s_b_d_core___class___type_def.html" target="_top" xlink:title="USB Class call back function.">
<polygon fill="white" stroke="#666666" points="1024.25,-96 890.5,-96 890.5,-76 1024.25,-76 1024.25,-96"/>
<text text-anchor="middle" x="957.38" y="-82.5" font-family="Helvetica,sans-Serif" font-size="10.00">USBDCore_Class_TypeDef</text>
</a>
</g>
</g>
<!-- Node2&#45;&gt;Node9 -->
<g id="edge10_Node000009_Node000002" class="edge">
<title>Node2&#45;&gt;Node9</title>
<g id="a_edge10_Node000009_Node000002"><a xlink:title=" ">
<path fill="none" stroke="#9a32cd" stroke-dasharray="5,2" d="M682.15,-145.96C698.56,-137.02 720.14,-126.43 740.5,-120 754.63,-115.54 831.93,-103.86 890.03,-95.43"/>
<polygon fill="#9a32cd" stroke="#9a32cd" points="680.51,-142.86 673.49,-150.79 683.93,-148.97 680.51,-142.86"/>
</a>
</g>
<text text-anchor="middle" x="806.5" y="-170.5" font-family="Helvetica,sans-Serif" font-size="10.00" fill="grey"> CallBack_ClassGetDescriptor</text>
<text text-anchor="middle" x="806.5" y="-158.5" font-family="Helvetica,sans-Serif" font-size="10.00" fill="grey">CallBack_ClassGetInterface</text>
<text text-anchor="middle" x="806.5" y="-146.5" font-family="Helvetica,sans-Serif" font-size="10.00" fill="grey">CallBack_ClassRequest</text>
<text text-anchor="middle" x="806.5" y="-134.5" font-family="Helvetica,sans-Serif" font-size="10.00" fill="grey">CallBack_ClassSetInterface</text>
<text text-anchor="middle" x="806.5" y="-122.5" font-family="Helvetica,sans-Serif" font-size="10.00" fill="grey">CallBack_VendorRequest</text>
</g>
<!-- Node3 -->
<g id="Node000003" class="node">
<title>Node3</title>
<g id="a_Node000003"><a xlink:href="struct_u_s_b_d_core___desc___type_def.html" target="_top" xlink:title="USB Descriptor.">
<polygon fill="white" stroke="#666666" points="407,-154 275.5,-154 275.5,-134 407,-134 407,-154"/>
<text text-anchor="middle" x="341.25" y="-140.5" font-family="Helvetica,sans-Serif" font-size="10.00">USBDCore_Desc_TypeDef</text>
</a>
</g>
</g>
<!-- Node3&#45;&gt;Node2 -->
<g id="edge2_Node000002_Node000003" class="edge">
<title>Node3&#45;&gt;Node2</title>
<g id="a_edge2_Node000002_Node000003"><a xlink:title=" ">
<path fill="none" stroke="#9a32cd" stroke-dasharray="5,2" d="M418.68,-142C462.24,-141.61 517.78,-142.4 567,-147 577.98,-148.03 589.68,-149.69 600.78,-151.54"/>
<polygon fill="#9a32cd" stroke="#9a32cd" points="418.78,-138.5 408.82,-142.11 418.86,-145.5 418.78,-138.5"/>
</a>
</g>
<text text-anchor="middle" x="499" y="-149.5" font-family="Helvetica,sans-Serif" font-size="10.00" fill="grey"> Desc</text>
</g>
<!-- Node4 -->
<g id="Node000004" class="node">
<title>Node4</title>
<g id="a_Node000004"><a xlink:href="struct_u_s_b_d_core___transfer___type_def.html" target="_top" xlink:title="Parameter for control IN/OUT Transfer.">
<polygon fill="white" stroke="#666666" points="413,-192 269.5,-192 269.5,-172 413,-172 413,-192"/>
<text text-anchor="middle" x="341.25" y="-178.5" font-family="Helvetica,sans-Serif" font-size="10.00">USBDCore_Transfer_TypeDef</text>
</a>
</g>
</g>
<!-- Node4&#45;&gt;Node2 -->
<g id="edge3_Node000002_Node000004" class="edge">
<title>Node4&#45;&gt;Node2</title>
<g id="a_edge3_Node000002_Node000004"><a xlink:title=" ">
<path fill="none" stroke="#9a32cd" stroke-dasharray="5,2" d="M424.89,-176.68C474.74,-173.47 537.49,-169.42 584.51,-166.4"/>
<polygon fill="#9a32cd" stroke="#9a32cd" points="424.75,-173.18 415,-177.31 425.2,-180.16 424.75,-173.18"/>
</a>
</g>
<text text-anchor="middle" x="499" y="-178.5" font-family="Helvetica,sans-Serif" font-size="10.00" fill="grey"> Transfer</text>
</g>
<!-- Node5 -->
<g id="Node000005" class="node">
<title>Node5</title>
<g id="a_Node000005"><a xlink:href="struct_u_s_b_d_core___call_back___type_def.html" target="_top" xlink:title="Call back function.">
<polygon fill="white" stroke="#666666" points="148,-96 0,-96 0,-76 148,-76 148,-96"/>
<text text-anchor="middle" x="74" y="-82.5" font-family="Helvetica,sans-Serif" font-size="10.00">USBDCore_CallBack_TypeDef</text>
</a>
</g>
</g>
<!-- Node5&#45;&gt;Node4 -->
<g id="edge4_Node000004_Node000005" class="edge">
<title>Node5&#45;&gt;Node4</title>
<g id="a_edge4_Node000004_Node000005"><a xlink:title=" ">
<path fill="none" stroke="#9a32cd" stroke-dasharray="5,2" d="M108.74,-100.73C147.2,-117.19 212.14,-144.01 269.5,-163 278.68,-166.04 288.64,-168.95 298.11,-171.53"/>
<polygon fill="#9a32cd" stroke="#9a32cd" points="110.59,-97.71 100.02,-96.97 107.82,-104.14 110.59,-97.71"/>
</a>
</g>
<text text-anchor="middle" x="208.75" y="-157.5" font-family="Helvetica,sans-Serif" font-size="10.00" fill="grey"> CallBack_OUT</text>
</g>
<!-- Node5&#45;&gt;Node9 -->
<g id="edge9_Node000009_Node000005" class="edge">
<title>Node5&#45;&gt;Node9</title>
<g id="a_edge9_Node000009_Node000005"><a xlink:title=" ">
<path fill="none" stroke="#9a32cd" stroke-dasharray="5,2" d="M159.7,-86C334.58,-86 732.42,-86 890.16,-86"/>
<polygon fill="#9a32cd" stroke="#9a32cd" points="159.77,-82.5 149.77,-86 159.77,-89.5 159.77,-82.5"/>
</a>
</g>
<text text-anchor="middle" x="499" y="-112.5" font-family="Helvetica,sans-Serif" font-size="10.00" fill="grey"> CallBack_MainRoutine</text>
<text text-anchor="middle" x="499" y="-100.5" font-family="Helvetica,sans-Serif" font-size="10.00" fill="grey">CallBack_Reset</text>
<text text-anchor="middle" x="499" y="-88.5" font-family="Helvetica,sans-Serif" font-size="10.00" fill="grey">CallBack_StartOfFrame</text>
</g>
<!-- Node10 -->
<g id="Node000010" class="node">
<title>Node10</title>
<g id="a_Node000010"><a xlink:href="struct_u_s_b_d_core___power___type_def.html" target="_top" xlink:title="USB Device Power related call back function.">
<polygon fill="white" stroke="#666666" points="567,-20 431,-20 431,0 567,0 567,-20"/>
<text text-anchor="middle" x="499" y="-6.5" font-family="Helvetica,sans-Serif" font-size="10.00">USBDCore_Power_TypeDef</text>
</a>
</g>
</g>
<!-- Node5&#45;&gt;Node10 -->
<g id="edge12_Node000010_Node000005" class="edge">
<title>Node5&#45;&gt;Node10</title>
<g id="a_edge12_Node000010_Node000005"><a xlink:title=" ">
<path fill="none" stroke="#9a32cd" stroke-dasharray="5,2" d="M114.72,-71.79C153.63,-58.48 214.87,-39.17 269.5,-29 323.11,-19.02 384.79,-14.28 430.54,-12.03"/>
<polygon fill="#9a32cd" stroke="#9a32cd" points="113.62,-68.47 105.31,-75.04 115.91,-75.08 113.62,-68.47"/>
</a>
</g>
<text text-anchor="middle" x="208.75" y="-57.5" font-family="Helvetica,sans-Serif" font-size="10.00" fill="grey"> CallBack_Suspend</text>
</g>
<!-- Node6 -->
<g id="Node000006" class="node">
<title>Node6</title>
<g id="a_Node000006"><a xlink:href="struct_u_s_b_d_core___info___type_def.html" target="_top" xlink:title="USB Device information.">
<polygon fill="white" stroke="#666666" points="1019.38,-58 895.38,-58 895.38,-38 1019.38,-38 1019.38,-58"/>
<text text-anchor="middle" x="957.38" y="-44.5" font-family="Helvetica,sans-Serif" font-size="10.00">USBDCore_Info_TypeDef</text>
</a>
</g>
</g>
<!-- Node6&#45;&gt;Node1 -->
<g id="edge5_Node000001_Node000006" class="edge">
<title>Node6&#45;&gt;Node1</title>
<g id="a_edge5_Node000001_Node000006"><a xlink:title=" ">
<path fill="none" stroke="#9a32cd" stroke-dasharray="5,2" d="M1031.08,-54.83C1044.05,-56.14 1057.43,-57.56 1070,-59 1075.75,-59.66 1081.77,-60.39 1087.75,-61.14"/>
<polygon fill="#9a32cd" stroke="#9a32cd" points="1031.63,-51.37 1021.33,-53.85 1030.93,-58.33 1031.63,-51.37"/>
</a>
</g>
<text text-anchor="middle" x="1056.12" y="-61.5" font-family="Helvetica,sans-Serif" font-size="10.00" fill="grey"> Info</text>
</g>
<!-- Node7 -->
<g id="Node000007" class="node">
<title>Node7</title>
<g id="a_Node000007"><a xlink:href="union___f_e_a_t_u_r_e___t_y_p_e_d_e_f.html" target="_top" xlink:title="For Set/ClearFeature and GetStatus request.">
<polygon fill="white" stroke="#666666" points="712,-58 595.5,-58 595.5,-38 712,-38 712,-58"/>
<text text-anchor="middle" x="653.75" y="-44.5" font-family="Helvetica,sans-Serif" font-size="10.00">_FEATURE_TYPEDEF</text>
</a>
</g>
</g>
<!-- Node7&#45;&gt;Node6 -->
<g id="edge6_Node000006_Node000007" class="edge">
<title>Node7&#45;&gt;Node6</title>
<g id="a_edge6_Node000006_Node000007"><a xlink:title=" ">
<path fill="none" stroke="#9a32cd" stroke-dasharray="5,2" d="M723.58,-48C775.21,-48 845.26,-48 895,-48"/>
<polygon fill="#9a32cd" stroke="#9a32cd" points="723.71,-44.5 713.71,-48 723.71,-51.5 723.71,-44.5"/>
</a>
</g>
<text text-anchor="middle" x="806.5" y="-50.5" font-family="Helvetica,sans-Serif" font-size="10.00" fill="grey"> CurrentFeature</text>
</g>
<!-- Node8 -->
<g id="Node000008" class="node">
<title>Node8</title>
<g id="a_Node000008"><a xlink:href="struct___f_e_a_t_u_r_e___t_y_p_e_b_i_t.html" target="_top" xlink:title="Bit access for CurrentFeature.">
<polygon fill="white" stroke="#666666" points="396.88,-58 285.62,-58 285.62,-38 396.88,-38 396.88,-58"/>
<text text-anchor="middle" x="341.25" y="-44.5" font-family="Helvetica,sans-Serif" font-size="10.00">_FEATURE_TYPEBIT</text>
</a>
</g>
</g>
<!-- Node8&#45;&gt;Node7 -->
<g id="edge7_Node000007_Node000008" class="edge">
<title>Node8&#45;&gt;Node7</title>
<g id="a_edge7_Node000007_Node000008"><a xlink:title=" ">
<path fill="none" stroke="#9a32cd" stroke-dasharray="5,2" d="M408.51,-48C463.93,-48 542.21,-48 595.08,-48"/>
<polygon fill="#9a32cd" stroke="#9a32cd" points="408.56,-44.5 398.56,-48 408.56,-51.5 408.56,-44.5"/>
</a>
</g>
<text text-anchor="middle" x="499" y="-50.5" font-family="Helvetica,sans-Serif" font-size="10.00" fill="grey"> Bits</text>
</g>
<!-- Node9&#45;&gt;Node1 -->
<g id="edge8_Node000001_Node000009" class="edge">
<title>Node9&#45;&gt;Node1</title>
<g id="a_edge8_Node000001_Node000009"><a xlink:title=" ">
<path fill="none" stroke="#9a32cd" stroke-dasharray="5,2" d="M1035.94,-78.27C1053.44,-76.52 1071.59,-74.71 1087.68,-73.11"/>
<polygon fill="#9a32cd" stroke="#9a32cd" points="1035.67,-74.77 1026.07,-79.25 1036.37,-81.74 1035.67,-74.77"/>
</a>
</g>
<text text-anchor="middle" x="1056.12" y="-79.5" font-family="Helvetica,sans-Serif" font-size="10.00" fill="grey"> Class</text>
</g>
<!-- Node10&#45;&gt;Node1 -->
<g id="edge11_Node000001_Node000010" class="edge">
<title>Node10&#45;&gt;Node1</title>
<g id="a_edge11_Node000001_Node000010"><a xlink:title=" ">
<path fill="none" stroke="#9a32cd" stroke-dasharray="5,2" d="M578.55,-5.78C681.75,-1.84 868.2,-0.27 1024.25,-29 1056.5,-34.94 1092.01,-48.12 1114.83,-57.51"/>
<polygon fill="#9a32cd" stroke="#9a32cd" points="578.66,-2.27 568.81,-6.17 578.94,-9.27 578.66,-2.27"/>
</a>
</g>
<text text-anchor="middle" x="806.5" y="-12.5" font-family="Helvetica,sans-Serif" font-size="10.00" fill="grey"> Power</text>
</g>
</g>
</svg>
