<?xml version="1.0" encoding="UTF-8" standalone="no"?>
<!DOCTYPE svg PUBLIC "-//W3C//DTD SVG 1.1//EN"
 "http://www.w3.org/Graphics/SVG/1.1/DTD/svg11.dtd">
<!-- Generated by graphviz version 9.0.0 (20230911.1827)
 -->
<!-- Title: USBDCore_Device_TypeDef Pages: 1 -->
<svg width="304pt" height="164pt"
 viewBox="0.00 0.00 303.75 164.00" xmlns="http://www.w3.org/2000/svg" xmlns:xlink="http://www.w3.org/1999/xlink">
<g id="graph0" class="graph" transform="scale(1 1) rotate(0) translate(4 160)">
<title>USBDCore_Device_TypeDef</title>
<!-- Node1 -->
<g id="Node000001" class="node">
<title>Node1</title>
<g id="a_Node000001"><a xlink:title="USB Device.">
<polygon fill="#999999" stroke="#666666" points="158.5,-20 21,-20 21,0 158.5,0 158.5,-20"/>
<text text-anchor="middle" x="89.75" y="-6.5" font-family="Helvetica,sans-Serif" font-size="10.00">USBDCore_Device_TypeDef</text>
</a>
</g>
</g>
<!-- Node2 -->
<g id="Node000002" class="node">
<title>Node2</title>
<g id="a_Node000002"><a xlink:href="struct_u_s_b_d_core___desc___type_def.html" target="_top" xlink:title="USB Descriptor.">
<polygon fill="white" stroke="#666666" points="131.5,-88 0,-88 0,-68 131.5,-68 131.5,-88"/>
<text text-anchor="middle" x="65.75" y="-74.5" font-family="Helvetica,sans-Serif" font-size="10.00">USBDCore_Desc_TypeDef</text>
</a>
</g>
</g>
<!-- Node2&#45;&gt;Node1 -->
<g id="edge1_Node000001_Node000002" class="edge">
<title>Node2&#45;&gt;Node1</title>
<g id="a_edge1_Node000001_Node000002"><a xlink:title=" ">
<path fill="none" stroke="#9a32cd" stroke-dasharray="5,2" d="M73.01,-57.03C77.43,-44.89 82.86,-29.94 86.32,-20.44"/>
<polygon fill="#9a32cd" stroke="#9a32cd" points="69.83,-55.53 69.71,-66.12 76.41,-57.92 69.83,-55.53"/>
</a>
</g>
<text text-anchor="middle" x="93.5" y="-40.5" font-family="Helvetica,sans-Serif" font-size="10.00" fill="grey"> Desc</text>
</g>
<!-- Node3 -->
<g id="Node000003" class="node">
<title>Node3</title>
<g id="a_Node000003"><a xlink:href="struct_u_s_b_d_core___transfer___type_def.html" target="_top" xlink:title="Parameter for control IN/OUT Transfer.">
<polygon fill="white" stroke="#666666" points="293.5,-88 150,-88 150,-68 293.5,-68 293.5,-88"/>
<text text-anchor="middle" x="221.75" y="-74.5" font-family="Helvetica,sans-Serif" font-size="10.00">USBDCore_Transfer_TypeDef</text>
</a>
</g>
</g>
<!-- Node3&#45;&gt;Node1 -->
<g id="edge2_Node000001_Node000003" class="edge">
<title>Node3&#45;&gt;Node1</title>
<g id="a_edge2_Node000001_Node000003"><a xlink:title=" ">
<path fill="none" stroke="#9a32cd" stroke-dasharray="5,2" d="M192.61,-62.43C167.03,-49.64 130.57,-31.41 108.63,-20.44"/>
<polygon fill="#9a32cd" stroke="#9a32cd" points="190.97,-65.53 201.48,-66.87 194.1,-59.26 190.97,-65.53"/>
</a>
</g>
<text text-anchor="middle" x="185.5" y="-40.5" font-family="Helvetica,sans-Serif" font-size="10.00" fill="grey"> Transfer</text>
</g>
<!-- Node4 -->
<g id="Node000004" class="node">
<title>Node4</title>
<g id="a_Node000004"><a xlink:href="struct_u_s_b_d_core___call_back___type_def.html" target="_top" xlink:title="Call back function.">
<polygon fill="white" stroke="#666666" points="295.75,-156 147.75,-156 147.75,-136 295.75,-136 295.75,-156"/>
<text text-anchor="middle" x="221.75" y="-142.5" font-family="Helvetica,sans-Serif" font-size="10.00">USBDCore_CallBack_TypeDef</text>
</a>
</g>
</g>
<!-- Node4&#45;&gt;Node3 -->
<g id="edge3_Node000003_Node000004" class="edge">
<title>Node4&#45;&gt;Node3</title>
<g id="a_edge3_Node000003_Node000004"><a xlink:title=" ">
<path fill="none" stroke="#9a32cd" stroke-dasharray="5,2" d="M221.75,-124.28C221.75,-112.27 221.75,-97.74 221.75,-88.44"/>
<polygon fill="#9a32cd" stroke="#9a32cd" points="218.25,-124.03 221.75,-134.03 225.25,-124.03 218.25,-124.03"/>
</a>
</g>
<text text-anchor="middle" x="255.12" y="-108.5" font-family="Helvetica,sans-Serif" font-size="10.00" fill="grey"> CallBack_OUT</text>
</g>
</g>
</svg>
