<?xml version="1.0" encoding="UTF-8" standalone="no"?>
<!DOCTYPE svg PUBLIC "-//W3C//DTD SVG 1.1//EN"
 "http://www.w3.org/Graphics/SVG/1.1/DTD/svg11.dtd">
<!-- Generated by graphviz version 9.0.0 (20230911.1827)
 -->
<!-- Title: USBD_Driver_TypeDef Pages: 1 -->
<svg width="128pt" height="232pt"
 viewBox="0.00 0.00 128.25 232.00" xmlns="http://www.w3.org/2000/svg" xmlns:xlink="http://www.w3.org/1999/xlink">
<g id="graph0" class="graph" transform="scale(1 1) rotate(0) translate(4 228)">
<title>USBD_Driver_TypeDef</title>
<!-- Node1 -->
<g id="Node000001" class="node">
<title>Node1</title>
<g id="a_Node000001"><a xlink:title=" ">
<polygon fill="#999999" stroke="#666666" points="116.5,-20 3.75,-20 3.75,0 116.5,0 116.5,-20"/>
<text text-anchor="middle" x="60.12" y="-6.5" font-family="Helvetica,sans-Serif" font-size="10.00">USBD_Driver_TypeDef</text>
</a>
</g>
</g>
<!-- Node2 -->
<g id="Node000002" class="node">
<title>Node2</title>
<g id="a_Node000002"><a xlink:href="struct_u_s_b_d___e_p_t_init___type_def.html" target="_top" xlink:title=" ">
<polygon fill="white" stroke="#666666" points="120.25,-88 0,-88 0,-68 120.25,-68 120.25,-88"/>
<text text-anchor="middle" x="60.12" y="-74.5" font-family="Helvetica,sans-Serif" font-size="10.00">USBD_EPTInit_TypeDef</text>
</a>
</g>
</g>
<!-- Node2&#45;&gt;Node1 -->
<g id="edge1_Node000001_Node000002" class="edge">
<title>Node2&#45;&gt;Node1</title>
<g id="a_edge1_Node000001_Node000002"><a xlink:title=" ">
<path fill="none" stroke="#9a32cd" stroke-dasharray="5,2" d="M60.12,-56.28C60.12,-44.27 60.12,-29.74 60.12,-20.44"/>
<polygon fill="#9a32cd" stroke="#9a32cd" points="56.63,-56.03 60.13,-66.03 63.63,-56.03 56.63,-56.03"/>
</a>
</g>
<text text-anchor="middle" x="68.38" y="-40.5" font-family="Helvetica,sans-Serif" font-size="10.00" fill="grey"> ept</text>
</g>
<!-- Node3 -->
<g id="Node000003" class="node">
<title>Node3</title>
<g id="a_Node000003"><a xlink:href="union___e_p_t_c_f_g_r___t_y_p_e_d_e_f.html" target="_top" xlink:title=" ">
<polygon fill="white" stroke="#666666" points="118.75,-156 1.5,-156 1.5,-136 118.75,-136 118.75,-156"/>
<text text-anchor="middle" x="60.12" y="-142.5" font-family="Helvetica,sans-Serif" font-size="10.00">_EPTCFGR_TYPEDEF</text>
</a>
</g>
</g>
<!-- Node3&#45;&gt;Node2 -->
<g id="edge2_Node000002_Node000003" class="edge">
<title>Node3&#45;&gt;Node2</title>
<g id="a_edge2_Node000002_Node000003"><a xlink:title=" ">
<path fill="none" stroke="#9a32cd" stroke-dasharray="5,2" d="M60.12,-124.28C60.12,-112.27 60.12,-97.74 60.12,-88.44"/>
<polygon fill="#9a32cd" stroke="#9a32cd" points="56.63,-124.03 60.13,-134.03 63.63,-124.03 56.63,-124.03"/>
</a>
</g>
<text text-anchor="middle" x="75.12" y="-108.5" font-family="Helvetica,sans-Serif" font-size="10.00" fill="grey"> CFGR</text>
</g>
<!-- Node4 -->
<g id="Node000004" class="node">
<title>Node4</title>
<g id="a_Node000004"><a xlink:href="struct___e_p_t_c_f_g_r___b_i_t.html" target="_top" xlink:title=" ">
<polygon fill="white" stroke="#666666" points="103.38,-224 16.88,-224 16.88,-204 103.38,-204 103.38,-224"/>
<text text-anchor="middle" x="60.12" y="-210.5" font-family="Helvetica,sans-Serif" font-size="10.00">_EPTCFGR_BIT</text>
</a>
</g>
</g>
<!-- Node4&#45;&gt;Node3 -->
<g id="edge3_Node000003_Node000004" class="edge">
<title>Node4&#45;&gt;Node3</title>
<g id="a_edge3_Node000003_Node000004"><a xlink:title=" ">
<path fill="none" stroke="#9a32cd" stroke-dasharray="5,2" d="M60.12,-192.28C60.12,-180.27 60.12,-165.74 60.12,-156.44"/>
<polygon fill="#9a32cd" stroke="#9a32cd" points="56.63,-192.03 60.13,-202.03 63.63,-192.03 56.63,-192.03"/>
</a>
</g>
<text text-anchor="middle" x="69.5" y="-176.5" font-family="Helvetica,sans-Serif" font-size="10.00" fill="grey"> bits</text>
</g>
</g>
</svg>
