<?xml version="1.0" encoding="UTF-8" standalone="no"?>
<!DOCTYPE svg PUBLIC "-//W3C//DTD SVG 1.1//EN"
 "http://www.w3.org/Graphics/SVG/1.1/DTD/svg11.dtd">
<!-- Generated by graphviz version 9.0.0 (20230911.1827)
 -->
<!-- Title: D:/Note_Database/Subject/MCETA Microcontroller Experiment TA/files/HT32_STD_5xxxx_FWLib_V1.5.1_7084b/library/CMSIS/Core/Template/ARMv8&#45;M/tz_context.c Pages: 1 -->
<svg width="200pt" height="200pt"
 viewBox="0.00 0.00 199.50 200.00" xmlns="http://www.w3.org/2000/svg" xmlns:xlink="http://www.w3.org/1999/xlink">
<g id="graph0" class="graph" transform="scale(1 1) rotate(0) translate(4 196)">
<title>D:/Note_Database/Subject/MCETA Microcontroller Experiment TA/files/HT32_STD_5xxxx_FWLib_V1.5.1_7084b/library/CMSIS/Core/Template/ARMv8&#45;M/tz_context.c</title>
<!-- Node1 -->
<g id="Node000001" class="node">
<title>Node1</title>
<g id="a_Node000001"><a xlink:title=" ">
<polygon fill="#999999" stroke="#666666" points="188.75,-192 18.25,-192 18.25,-112 188.75,-112 188.75,-192"/>
<text text-anchor="start" x="26.25" y="-178.5" font-family="Helvetica,sans-Serif" font-size="10.00">D:/Note_Database/Subject</text>
<text text-anchor="start" x="26.25" y="-166.5" font-family="Helvetica,sans-Serif" font-size="10.00">/MCETA Microcontroller</text>
<text text-anchor="start" x="26.25" y="-154.5" font-family="Helvetica,sans-Serif" font-size="10.00"> Experiment TA/files/HT32</text>
<text text-anchor="start" x="26.25" y="-142.5" font-family="Helvetica,sans-Serif" font-size="10.00">_STD_5xxxx_FWLib_V1.5.1_7084b</text>
<text text-anchor="start" x="26.25" y="-130.5" font-family="Helvetica,sans-Serif" font-size="10.00">/library/CMSIS/Core/Template</text>
<text text-anchor="middle" x="103.5" y="-118.5" font-family="Helvetica,sans-Serif" font-size="10.00">/ARMv8&#45;M/tz_context.c</text>
</a>
</g>
</g>
<!-- Node2 -->
<g id="Node000002" class="node">
<title>Node2</title>
<g id="a_Node000002"><a xlink:title=" ">
<polygon fill="#e0e0e0" stroke="#999999" points="103,-76 0,-76 0,-56 103,-56 103,-76"/>
<text text-anchor="middle" x="51.5" y="-62.5" font-family="Helvetica,sans-Serif" font-size="10.00">RTE_Components.h</text>
</a>
</g>
</g>
<!-- Node1&#45;&gt;Node2 -->
<g id="edge1_Node000001_Node000002" class="edge">
<title>Node1&#45;&gt;Node2</title>
<g id="a_edge1_Node000001_Node000002"><a xlink:title=" ">
<path fill="none" stroke="#63b8ff" d="M79.33,-111.95C73.77,-102.98 68.11,-93.83 63.35,-86.15"/>
<polygon fill="#63b8ff" stroke="#63b8ff" points="66.38,-84.38 58.14,-77.72 60.43,-88.07 66.38,-84.38"/>
</a>
</g>
</g>
<!-- Node3 -->
<g id="Node000003" class="node">
<title>Node3</title>
<g id="a_Node000003"><a xlink:href="tz__context_8h.html" target="_top" xlink:title=" ">
<polygon fill="white" stroke="#666666" points="191.5,-76 121.5,-76 121.5,-56 191.5,-56 191.5,-76"/>
<text text-anchor="middle" x="156.5" y="-62.5" font-family="Helvetica,sans-Serif" font-size="10.00">tz_context.h</text>
</a>
</g>
</g>
<!-- Node1&#45;&gt;Node3 -->
<g id="edge2_Node000001_Node000003" class="edge">
<title>Node1&#45;&gt;Node3</title>
<g id="a_edge2_Node000001_Node000003"><a xlink:title=" ">
<path fill="none" stroke="#63b8ff" d="M128.14,-111.95C133.8,-102.98 139.57,-93.83 144.42,-86.15"/>
<polygon fill="#63b8ff" stroke="#63b8ff" points="147.36,-88.04 149.74,-77.72 141.44,-84.31 147.36,-88.04"/>
</a>
</g>
</g>
<!-- Node4 -->
<g id="Node000004" class="node">
<title>Node4</title>
<g id="a_Node000004"><a xlink:title=" ">
<polygon fill="#e0e0e0" stroke="#999999" points="180.62,-20 132.38,-20 132.38,0 180.62,0 180.62,-20"/>
<text text-anchor="middle" x="156.5" y="-6.5" font-family="Helvetica,sans-Serif" font-size="10.00">stdint.h</text>
</a>
</g>
</g>
<!-- Node3&#45;&gt;Node4 -->
<g id="edge3_Node000003_Node000004" class="edge">
<title>Node3&#45;&gt;Node4</title>
<g id="a_edge3_Node000003_Node000004"><a xlink:title=" ">
<path fill="none" stroke="#63b8ff" d="M156.5,-55.59C156.5,-49.01 156.5,-39.96 156.5,-31.73"/>
<polygon fill="#63b8ff" stroke="#63b8ff" points="160,-31.81 156.5,-21.81 153,-31.81 160,-31.81"/>
</a>
</g>
</g>
</g>
</svg>
