<?xml version="1.0" encoding="UTF-8" standalone="no"?>
<!DOCTYPE svg PUBLIC "-//W3C//DTD SVG 1.1//EN"
 "http://www.w3.org/Graphics/SVG/1.1/DTD/svg11.dtd">
<!-- Generated by graphviz version 9.0.0 (20230911.1827)
 -->
<!-- Title: D:/Note_Database/Subject/MCETA Microcontroller Experiment TA/files/HT32_STD_5xxxx_FWLib_V1.5.1_7084b/utilities/middleware/uart_module.c Pages: 1 -->
<svg width="349pt" height="300pt"
 viewBox="0.00 0.00 348.51 300.00" xmlns="http://www.w3.org/2000/svg" xmlns:xlink="http://www.w3.org/1999/xlink">
<g id="graph0" class="graph" transform="scale(1 1) rotate(0) translate(4 296)">
<title>D:/Note_Database/Subject/MCETA Microcontroller Experiment TA/files/HT32_STD_5xxxx_FWLib_V1.5.1_7084b/utilities/middleware/uart_module.c</title>
<!-- Node1 -->
<g id="Node000001" class="node">
<title>Node1</title>
<g id="a_Node000001"><a xlink:title="The UART Module (interrupt mode with buffer).">
<polygon fill="#999999" stroke="#666666" points="206.26,-292 35.76,-292 35.76,-224 206.26,-224 206.26,-292"/>
<text text-anchor="start" x="43.76" y="-278.5" font-family="Helvetica,sans-Serif" font-size="10.00">D:/Note_Database/Subject</text>
<text text-anchor="start" x="43.76" y="-266.5" font-family="Helvetica,sans-Serif" font-size="10.00">/MCETA Microcontroller</text>
<text text-anchor="start" x="43.76" y="-254.5" font-family="Helvetica,sans-Serif" font-size="10.00"> Experiment TA/files/HT32</text>
<text text-anchor="start" x="43.76" y="-242.5" font-family="Helvetica,sans-Serif" font-size="10.00">_STD_5xxxx_FWLib_V1.5.1_7084b</text>
<text text-anchor="middle" x="121.01" y="-230.5" font-family="Helvetica,sans-Serif" font-size="10.00">/utilities/middleware/uart_module.c</text>
</a>
</g>
</g>
<!-- Node2 -->
<g id="Node000002" class="node">
<title>Node2</title>
<g id="a_Node000002"><a xlink:href="ht32_8h.html" target="_top" xlink:title="The API between application and HT32FXXXX Firmware Library.">
<polygon fill="white" stroke="#666666" points="157.51,-132 114.51,-132 114.51,-112 157.51,-112 157.51,-132"/>
<text text-anchor="middle" x="136.01" y="-118.5" font-family="Helvetica,sans-Serif" font-size="10.00">ht32.h</text>
</a>
</g>
</g>
<!-- Node1&#45;&gt;Node2 -->
<g id="edge1_Node000001_Node000002" class="edge">
<title>Node1&#45;&gt;Node2</title>
<g id="a_edge1_Node000001_Node000002"><a xlink:title=" ">
<path fill="none" stroke="#63b8ff" d="M35.38,-225.04C8.7,-210.06 -10.02,-190.52 6.01,-168 27.78,-137.43 71.81,-127.43 102.56,-124.27"/>
<polygon fill="#63b8ff" stroke="#63b8ff" points="102.83,-127.76 112.52,-123.46 102.27,-120.78 102.83,-127.76"/>
</a>
</g>
</g>
<!-- Node7 -->
<g id="Node000007" class="node">
<title>Node7</title>
<g id="a_Node000007"><a xlink:title=" ">
<polygon fill="#e0e0e0" stroke="#999999" points="118.51,-188 15.51,-188 15.51,-168 118.51,-168 118.51,-188"/>
<text text-anchor="middle" x="67.01" y="-174.5" font-family="Helvetica,sans-Serif" font-size="10.00">ht32_board_config.h</text>
</a>
</g>
</g>
<!-- Node1&#45;&gt;Node7 -->
<g id="edge6_Node000001_Node000007" class="edge">
<title>Node1&#45;&gt;Node7</title>
<g id="a_edge6_Node000001_Node000007"><a xlink:title=" ">
<path fill="none" stroke="#63b8ff" d="M98.11,-223.92C91.87,-214.91 85.34,-205.47 79.88,-197.59"/>
<polygon fill="#63b8ff" stroke="#63b8ff" points="82.87,-195.75 74.3,-189.52 77.11,-199.74 82.87,-195.75"/>
</a>
</g>
</g>
<!-- Node8 -->
<g id="Node000008" class="node">
<title>Node8</title>
<g id="a_Node000008"><a xlink:href="uart__module_8h.html" target="_top" xlink:title="The header file of UART Module (interrupt mode with buffer).">
<polygon fill="white" stroke="#666666" points="213.76,-188 136.26,-188 136.26,-168 213.76,-168 213.76,-188"/>
<text text-anchor="middle" x="175.01" y="-174.5" font-family="Helvetica,sans-Serif" font-size="10.00">uart_module.h</text>
</a>
</g>
</g>
<!-- Node1&#45;&gt;Node8 -->
<g id="edge7_Node000001_Node000008" class="edge">
<title>Node1&#45;&gt;Node8</title>
<g id="a_edge7_Node000001_Node000008"><a xlink:title=" ">
<path fill="none" stroke="#63b8ff" d="M143.91,-223.92C150.15,-214.91 156.68,-205.47 162.14,-197.59"/>
<polygon fill="#63b8ff" stroke="#63b8ff" points="164.91,-199.74 167.73,-189.52 159.16,-195.75 164.91,-199.74"/>
</a>
</g>
</g>
<!-- Node9 -->
<g id="Node000009" class="node">
<title>Node9</title>
<g id="a_Node000009"><a xlink:href="ring__buffer_8h.html" target="_top" xlink:title="The header file of ring buffer.">
<polygon fill="white" stroke="#666666" points="340.51,-188 231.51,-188 231.51,-168 340.51,-168 340.51,-188"/>
<text text-anchor="middle" x="286.01" y="-174.5" font-family="Helvetica,sans-Serif" font-size="10.00">common/ring_buffer.h</text>
</a>
</g>
</g>
<!-- Node1&#45;&gt;Node9 -->
<g id="edge8_Node000001_Node000009" class="edge">
<title>Node1&#45;&gt;Node9</title>
<g id="a_edge8_Node000001_Node000009"><a xlink:title=" ">
<path fill="none" stroke="#63b8ff" d="M191.46,-223.69C214.06,-213.01 237.88,-201.75 255.96,-193.21"/>
<polygon fill="#63b8ff" stroke="#63b8ff" points="257.24,-196.47 264.78,-189.03 254.25,-190.14 257.24,-196.47"/>
</a>
</g>
</g>
<!-- Node3 -->
<g id="Node000003" class="node">
<title>Node3</title>
<g id="a_Node000003"><a xlink:href="ht32f5xxxx__01_8h.html" target="_top" xlink:title="CMSIS Cortex&#45;M0+ Device Peripheral Access Layer Header File.">
<polygon fill="white" stroke="#666666" points="179.64,-76 92.39,-76 92.39,-56 179.64,-56 179.64,-76"/>
<text text-anchor="middle" x="136.01" y="-62.5" font-family="Helvetica,sans-Serif" font-size="10.00">ht32f5xxxx_01.h</text>
</a>
</g>
</g>
<!-- Node2&#45;&gt;Node3 -->
<g id="edge2_Node000002_Node000003" class="edge">
<title>Node2&#45;&gt;Node3</title>
<g id="a_edge2_Node000002_Node000003"><a xlink:title=" ">
<path fill="none" stroke="#63b8ff" d="M136.01,-111.59C136.01,-105.01 136.01,-95.96 136.01,-87.73"/>
<polygon fill="#63b8ff" stroke="#63b8ff" points="139.51,-87.81 136.01,-77.81 132.51,-87.81 139.51,-87.81"/>
</a>
</g>
</g>
<!-- Node4 -->
<g id="Node000004" class="node">
<title>Node4</title>
<g id="a_Node000004"><a xlink:href="ht32__config_8h.html" target="_top" xlink:title="Configuration file of HT32.">
<polygon fill="white" stroke="#666666" points="75.89,-20 2.14,-20 2.14,0 75.89,0 75.89,-20"/>
<text text-anchor="middle" x="39.01" y="-6.5" font-family="Helvetica,sans-Serif" font-size="10.00">ht32_config.h</text>
</a>
</g>
</g>
<!-- Node3&#45;&gt;Node4 -->
<g id="edge3_Node000003_Node000004" class="edge">
<title>Node3&#45;&gt;Node4</title>
<g id="a_edge3_Node000003_Node000004"><a xlink:title=" ">
<path fill="none" stroke="#63b8ff" d="M119.11,-55.59C104.46,-47.44 82.99,-35.48 65.96,-26"/>
<polygon fill="#63b8ff" stroke="#63b8ff" points="67.8,-23.02 57.36,-21.22 64.4,-29.14 67.8,-23.02"/>
</a>
</g>
</g>
<!-- Node5 -->
<g id="Node000005" class="node">
<title>Node5</title>
<g id="a_Node000005"><a xlink:title=" ">
<polygon fill="#e0e0e0" stroke="#999999" points="178.51,-20 93.51,-20 93.51,0 178.51,0 178.51,-20"/>
<text text-anchor="middle" x="136.01" y="-6.5" font-family="Helvetica,sans-Serif" font-size="10.00">core_cm0plus.h</text>
</a>
</g>
</g>
<!-- Node3&#45;&gt;Node5 -->
<g id="edge4_Node000003_Node000005" class="edge">
<title>Node3&#45;&gt;Node5</title>
<g id="a_edge4_Node000003_Node000005"><a xlink:title=" ">
<path fill="none" stroke="#63b8ff" d="M136.01,-55.59C136.01,-49.01 136.01,-39.96 136.01,-31.73"/>
<polygon fill="#63b8ff" stroke="#63b8ff" points="139.51,-31.81 136.01,-21.81 132.51,-31.81 139.51,-31.81"/>
</a>
</g>
</g>
<!-- Node6 -->
<g id="Node000006" class="node">
<title>Node6</title>
<g id="a_Node000006"><a xlink:href="system__ht32f5xxxx__01_8h.html" target="_top" xlink:title="CMSIS Cortex&#45;M0+ Device Peripheral Access Layer System Header File for the Holtek HT32F5xxxx Device S...">
<polygon fill="white" stroke="#666666" points="321.39,-20 196.64,-20 196.64,0 321.39,0 321.39,-20"/>
<text text-anchor="middle" x="259.01" y="-6.5" font-family="Helvetica,sans-Serif" font-size="10.00">system_ht32f5xxxx_01.h</text>
</a>
</g>
</g>
<!-- Node3&#45;&gt;Node6 -->
<g id="edge5_Node000003_Node000006" class="edge">
<title>Node3&#45;&gt;Node6</title>
<g id="a_edge5_Node000003_Node000006"><a xlink:title=" ">
<path fill="none" stroke="#63b8ff" d="M157.44,-55.59C176.63,-47.17 205.05,-34.69 226.95,-25.07"/>
<polygon fill="#63b8ff" stroke="#63b8ff" points="228.28,-28.31 236.03,-21.09 225.47,-21.9 228.28,-28.31"/>
</a>
</g>
</g>
<!-- Node9&#45;&gt;Node2 -->
<g id="edge9_Node000009_Node000002" class="edge">
<title>Node9&#45;&gt;Node2</title>
<g id="a_edge9_Node000009_Node000002"><a xlink:title=" ">
<path fill="none" stroke="#63b8ff" d="M259.88,-167.59C234.5,-158.46 195.9,-144.56 168.55,-134.71"/>
<polygon fill="#63b8ff" stroke="#63b8ff" points="169.96,-131.5 159.37,-131.41 167.59,-138.09 169.96,-131.5"/>
</a>
</g>
</g>
</g>
</svg>
